M48
;GenerationSoftware,Autodesk,EAGLE,9.7.0*%
;CreationDate,2022-12-06T13:18:21Z*%
FMAT,2
ICI,OFF
METRIC,TZ,000.000
T7C0.813
T6C0.900
T5C1.000
T4C1.016
T3C1.118
T2C1.524
T1C1.651
%
G90
M71
T1
X23079Y79085
X15979Y20800
X23079Y21300
X11779Y83185
X15979Y78585
X11779Y97086
X23079Y92986
X15979Y92486
X11779Y25400
X15979Y35405
X11779Y69215
X23079Y35905
X11779Y40005
X15979Y64615
X23079Y65115
X23079Y50510
X15979Y50010
X11779Y54610
T2
X19679Y30600
X18679Y28000
X19679Y45205
X18679Y85785
X19679Y102286
X19679Y88385
X18679Y99686
X18679Y42605
X19679Y59810
X18679Y71815
X18679Y57210
X19679Y74415
T3
X62286Y102235
X54286Y102235
X53150Y91440
X61150Y91440
T4
X70198Y89187
X70198Y91727
X67658Y91727
X70198Y94267
X67658Y94267
X70198Y96807
X67658Y96807
X67658Y89187
X70198Y99347
X67658Y99347
X39370Y53334
X28575Y92075
X28575Y94615
X28575Y69850
X28575Y67310
X28575Y64770
X28575Y83820
X28575Y81280
X28575Y78740
X28575Y97155
T5
X50800Y71755
X51752Y85090
X50800Y97155
X45085Y68580
X39053Y72708
X64770Y11430
X62230Y11430
X59690Y11430
T6
X54927Y30162
X54927Y22542
X49530Y22542
X49530Y30162
T7
X40958Y97155
X41910Y86360
X41910Y91440
X53022Y57467
X69533Y62865
X69533Y57785
X56515Y65405
X56515Y62865
X56515Y50165
X64135Y50165
X56515Y60325
X56515Y57785
X56515Y52705
X56515Y55245
X34290Y94615
X34290Y86995
X34925Y20320
X45085Y20320
X52705Y20320
X52705Y10160
X27305Y20320
X29845Y20320
X31432Y81280
X64135Y52705
X33338Y66993
X33338Y74613
X51435Y102235
X48895Y102235
X50165Y91440
X47625Y91440
X64135Y55245
X64135Y57785
X64135Y60325
X49212Y77153
X39053Y77153
X49275Y50965
X39115Y50965
X41593Y34925
X39053Y81280
X45085Y31115
X34925Y31115
X29210Y50165
X31750Y50165
X27940Y34925
X30480Y34925
X64135Y62865
X64135Y65405
X47942Y57467
X44450Y102235
X44450Y97155
X44767Y86360
X44767Y91440
X40958Y102235
X41593Y45085
M30