G04 EAGLE Gerber RS-274X export*
G75*
%MOMM*%
%FSLAX34Y34*%
%LPD*%
%INBottom Copper*%
%IPPOS*%
%AMOC8*
5,1,8,0,0,1.08239X$1,22.5*%
G01*
G04 Define Apertures*
%ADD10C,0.508000*%
%ADD11P,1.42962X8X292.5*%
%ADD12C,1.408000*%
%ADD13C,1.320800*%
%ADD14C,1.879600*%
%ADD15C,1.320800*%
%ADD16P,1.42962X8X112.5*%
%ADD17P,1.42962X8X22.5*%
%ADD18P,1.42962X8X202.5*%
%ADD19C,1.700000*%
%ADD20C,3.000000*%
%ADD21P,1.73204X8X112.5*%
%ADD22C,1.600200*%
%ADD23P,1.73204X8X202.5*%
%ADD24C,1.930400*%
%ADD25C,2.200000*%
%ADD26C,1.270000*%
%ADD27C,1.778000*%
G36*
X571079Y2773D02*
X50820Y2561D01*
X49991Y2615D01*
X39140Y4039D01*
X37538Y4468D01*
X27427Y8653D01*
X25990Y9481D01*
X17307Y16141D01*
X16134Y17313D01*
X9471Y25994D01*
X8641Y27430D01*
X4452Y37540D01*
X4023Y39142D01*
X2594Y49992D01*
X2540Y50821D01*
X2540Y947454D01*
X2541Y947456D01*
X2540Y949221D01*
X2594Y950050D01*
X4019Y960895D01*
X4448Y962497D01*
X8631Y972603D01*
X9460Y974039D01*
X16116Y982718D01*
X17288Y983891D01*
X25965Y990551D01*
X27400Y991380D01*
X37505Y995568D01*
X39106Y995997D01*
X49951Y997426D01*
X50780Y997481D01*
X52545Y997481D01*
X52547Y997481D01*
X571106Y997693D01*
X571571Y997617D01*
X572416Y997677D01*
X572864Y997693D01*
X573544Y997694D01*
X573927Y997682D01*
X585314Y996999D01*
X586942Y996685D01*
X598112Y992961D01*
X599603Y992236D01*
X609429Y985747D01*
X610681Y984660D01*
X618492Y975849D01*
X619420Y974476D01*
X624683Y963943D01*
X625225Y962375D01*
X627559Y950948D01*
X627688Y949677D01*
X627688Y52216D01*
X627578Y51039D01*
X625376Y39364D01*
X624859Y37789D01*
X619678Y27015D01*
X618770Y25628D01*
X610977Y16562D01*
X609742Y15457D01*
X599868Y8717D01*
X598388Y7970D01*
X587106Y4016D01*
X585484Y3676D01*
X573749Y2792D01*
X573274Y2774D01*
X572839Y2773D01*
X572483Y2783D01*
X571472Y2840D01*
X571079Y2773D01*
G37*
%LPC*%
G36*
X151207Y910226D02*
X155826Y909172D01*
X161510Y910469D01*
X161513Y910454D01*
X163066Y910782D01*
X165546Y910299D01*
X167672Y909419D01*
X169811Y909419D01*
X171495Y909419D01*
X173697Y910331D01*
X176674Y910790D01*
X179098Y910076D01*
X180118Y909536D01*
X182130Y909346D01*
X184344Y910027D01*
X186161Y910308D01*
X188642Y909825D01*
X189622Y909419D01*
X191643Y909419D01*
X193070Y910010D01*
X195450Y910493D01*
X197930Y910010D01*
X199357Y909419D01*
X201378Y909419D01*
X203470Y910285D01*
X205448Y911541D01*
X207949Y911907D01*
X210394Y911268D01*
X210969Y910826D01*
X211422Y910599D01*
X212225Y910063D01*
X212606Y909936D01*
X213438Y909592D01*
X213797Y909412D01*
X214132Y909345D01*
X214533Y909374D01*
X215433Y909374D01*
X215834Y909345D01*
X216169Y909412D01*
X216528Y909592D01*
X217360Y909936D01*
X217741Y910063D01*
X218025Y910253D01*
X218288Y910557D01*
X218925Y911193D01*
X219229Y911457D01*
X219418Y911740D01*
X219545Y912122D01*
X219890Y912953D01*
X220070Y913313D01*
X220258Y914259D01*
X226895Y934171D01*
X226752Y936187D01*
X225422Y938846D01*
X224858Y939596D01*
X224277Y942056D01*
X224700Y944547D01*
X226062Y946676D01*
X228147Y948105D01*
X229692Y948419D01*
X232016Y949382D01*
X233445Y950811D01*
X234342Y952977D01*
X234682Y954724D01*
X236078Y956831D01*
X236831Y957584D01*
X237605Y959451D01*
X237605Y961528D01*
X237144Y963798D01*
X237605Y966164D01*
X237605Y968245D01*
X236831Y970112D01*
X236078Y970866D01*
X234721Y972879D01*
X234352Y974694D01*
X233445Y976886D01*
X232016Y978315D01*
X230149Y979088D01*
X228072Y979088D01*
X225802Y978627D01*
X223436Y979088D01*
X221354Y979088D01*
X219487Y978315D01*
X218930Y977758D01*
X217009Y976441D01*
X214541Y975898D01*
X212057Y976362D01*
X210662Y977285D01*
X206310Y979088D01*
X202043Y979088D01*
X197881Y977364D01*
X195552Y976882D01*
X193068Y977345D01*
X191966Y978075D01*
X189520Y979088D01*
X187499Y979088D01*
X185632Y978315D01*
X184203Y976886D01*
X183550Y975309D01*
X182209Y973285D01*
X180113Y971873D01*
X177620Y970840D01*
X175291Y970357D01*
X172806Y970821D01*
X172292Y971161D01*
X169507Y972315D01*
X157842Y972315D01*
X155553Y972742D01*
X153424Y974104D01*
X151995Y976188D01*
X151492Y978665D01*
X151492Y979534D01*
X150719Y981401D01*
X149290Y982830D01*
X147423Y983604D01*
X145402Y983604D01*
X143535Y982830D01*
X142106Y981401D01*
X141332Y979534D01*
X141332Y978648D01*
X140937Y976443D01*
X139606Y974295D01*
X137542Y972836D01*
X135073Y972298D01*
X134366Y972288D01*
X130782Y971492D01*
X129109Y970738D01*
X129109Y970738D01*
X128187Y970323D01*
X126271Y968287D01*
X125864Y967624D01*
X123827Y966129D01*
X121367Y965547D01*
X118876Y965971D01*
X116747Y967333D01*
X115318Y969417D01*
X115011Y970928D01*
X113354Y974928D01*
X110655Y977627D01*
X107128Y979088D01*
X103021Y979088D01*
X98850Y977698D01*
X97742Y976867D01*
X96046Y974738D01*
X93964Y973037D01*
X91529Y972360D01*
X89707Y972230D01*
X89400Y972077D01*
X86160Y971419D01*
X83720Y972077D01*
X83412Y972230D01*
X81396Y972374D01*
X79463Y971729D01*
X77505Y971403D01*
X75025Y971887D01*
X73991Y972315D01*
X64633Y972315D01*
X64435Y972273D01*
X61947Y972716D01*
X59829Y974095D01*
X58417Y976191D01*
X58129Y976886D01*
X56700Y978315D01*
X54833Y979088D01*
X52812Y979088D01*
X50259Y978031D01*
X49616Y977590D01*
X47148Y977048D01*
X44663Y977511D01*
X43953Y977981D01*
X41281Y979088D01*
X39260Y979088D01*
X37393Y978315D01*
X35964Y976886D01*
X35311Y975309D01*
X33970Y973285D01*
X31874Y971873D01*
X29830Y971026D01*
X27448Y968644D01*
X26159Y965532D01*
X26159Y963848D01*
X26159Y963848D01*
X26159Y952678D01*
X26933Y950811D01*
X28362Y949382D01*
X30229Y948608D01*
X32250Y948608D01*
X33325Y949054D01*
X35704Y949537D01*
X38185Y949053D01*
X39260Y948608D01*
X41281Y948608D01*
X42358Y949055D01*
X44738Y949538D01*
X47219Y949055D01*
X48296Y948608D01*
X50436Y948608D01*
X52120Y948608D01*
X55099Y949842D01*
X57479Y950326D01*
X59959Y949842D01*
X62939Y948608D01*
X64960Y948608D01*
X66035Y949054D01*
X68414Y949537D01*
X70895Y949053D01*
X71970Y948608D01*
X73991Y948608D01*
X75488Y949228D01*
X77765Y949710D01*
X80253Y949267D01*
X82371Y947888D01*
X83784Y945793D01*
X83834Y945671D01*
X84317Y943341D01*
X83854Y940856D01*
X82458Y938749D01*
X81405Y937696D01*
X81136Y937045D01*
X79830Y935057D01*
X77746Y933628D01*
X75269Y933125D01*
X61673Y933125D01*
X57907Y931565D01*
X55578Y931083D01*
X53093Y931546D01*
X52379Y932020D01*
X49709Y933125D01*
X42499Y933125D01*
X39209Y931762D01*
X36880Y931280D01*
X34395Y931743D01*
X34146Y931909D01*
X31208Y933125D01*
X22869Y933125D01*
X19757Y931836D01*
X17376Y929455D01*
X16087Y926343D01*
X16087Y924659D01*
X16087Y924659D01*
X16087Y913488D01*
X16860Y911621D01*
X18289Y910192D01*
X20156Y909419D01*
X22177Y909419D01*
X23252Y909864D01*
X25632Y910347D01*
X28112Y909864D01*
X29187Y909419D01*
X31208Y909419D01*
X33067Y910189D01*
X35447Y910672D01*
X37927Y910189D01*
X39786Y909419D01*
X45876Y909419D01*
X45877Y909419D01*
X47938Y909419D01*
X50580Y910691D01*
X53234Y911319D01*
X55718Y910856D01*
X56097Y910605D01*
X58960Y909419D01*
X61037Y909419D01*
X63307Y909880D01*
X65673Y909419D01*
X67810Y909419D01*
X70080Y909880D01*
X72446Y909419D01*
X74528Y909419D01*
X75895Y909985D01*
X77414Y910403D01*
X79938Y910260D01*
X83145Y909419D01*
X84009Y909419D01*
X86360Y910393D01*
X88740Y910876D01*
X91221Y910393D01*
X93572Y909419D01*
X95593Y909419D01*
X98099Y910457D01*
X98896Y910999D01*
X101369Y911522D01*
X103850Y911038D01*
X107760Y909419D01*
X116548Y909419D01*
X118415Y910192D01*
X119844Y911621D01*
X120618Y913488D01*
X120618Y917254D01*
X121009Y919448D01*
X122337Y921599D01*
X124398Y923061D01*
X126866Y923603D01*
X129351Y923140D01*
X131458Y921744D01*
X131721Y921481D01*
X132372Y921211D01*
X134360Y919906D01*
X135789Y917821D01*
X136292Y915345D01*
X136292Y913488D01*
X137065Y911621D01*
X138494Y910192D01*
X140361Y909419D01*
X142382Y909419D01*
X145416Y910675D01*
X145437Y910626D01*
X147132Y911204D01*
X149653Y911021D01*
X151207Y910226D01*
G37*
G36*
X198650Y39370D02*
X206226Y39370D01*
X211582Y44726D01*
X211582Y45377D01*
X211836Y46654D01*
X211836Y70537D01*
X212263Y72826D01*
X213625Y74955D01*
X215709Y76384D01*
X217171Y76681D01*
X218954Y77420D01*
X221384Y77903D01*
X253661Y77903D01*
X256929Y79256D01*
X310305Y132632D01*
X311658Y135900D01*
X311658Y153941D01*
X312103Y156277D01*
X313482Y158395D01*
X313723Y158557D01*
X317118Y161952D01*
X318510Y165313D01*
X318510Y168951D01*
X317118Y172312D01*
X314087Y175342D01*
X312771Y177262D01*
X312228Y179731D01*
X312692Y182215D01*
X314087Y184322D01*
X317118Y187352D01*
X318510Y190713D01*
X318510Y194351D01*
X317118Y197712D01*
X314087Y200742D01*
X312771Y202662D01*
X312228Y205131D01*
X312692Y207615D01*
X314087Y209722D01*
X317118Y212752D01*
X318570Y216259D01*
X319947Y218319D01*
X352374Y250746D01*
X354202Y252021D01*
X356661Y252603D01*
X359153Y252179D01*
X361282Y250817D01*
X362711Y248733D01*
X363214Y246256D01*
X363214Y241513D01*
X364606Y238152D01*
X367636Y235122D01*
X368953Y233202D01*
X369495Y230733D01*
X369032Y228249D01*
X367636Y226142D01*
X364606Y223112D01*
X363214Y219751D01*
X363214Y216113D01*
X364606Y212752D01*
X367636Y209722D01*
X368953Y207802D01*
X369495Y205333D01*
X369032Y202849D01*
X367636Y200742D01*
X364606Y197712D01*
X363214Y194351D01*
X363214Y190713D01*
X364606Y187352D01*
X367636Y184322D01*
X368953Y182402D01*
X369495Y179933D01*
X369032Y177449D01*
X367636Y175342D01*
X364606Y172312D01*
X363214Y168951D01*
X363214Y165313D01*
X364606Y161952D01*
X367178Y159380D01*
X370539Y157988D01*
X372903Y157988D01*
X375286Y157524D01*
X377393Y156128D01*
X384474Y149047D01*
X384679Y148744D01*
X387602Y145820D01*
X388877Y143992D01*
X389459Y141532D01*
X389035Y139041D01*
X387673Y136912D01*
X385589Y135483D01*
X383112Y134980D01*
X370807Y134980D01*
X365830Y132919D01*
X365101Y132190D01*
X363088Y130833D01*
X360611Y130330D01*
X330492Y130330D01*
X327224Y128977D01*
X271101Y72854D01*
X269748Y69586D01*
X269748Y55186D01*
X269494Y53882D01*
X269494Y44726D01*
X274850Y39370D01*
X282426Y39370D01*
X287782Y44726D01*
X287782Y53935D01*
X287528Y55186D01*
X287528Y61505D01*
X287992Y63889D01*
X289388Y65996D01*
X334083Y110690D01*
X336096Y112047D01*
X338573Y112550D01*
X360611Y112550D01*
X362994Y112086D01*
X365101Y110690D01*
X365830Y109961D01*
X370807Y107900D01*
X391193Y107900D01*
X396170Y109961D01*
X399979Y113770D01*
X402040Y118747D01*
X402040Y124133D01*
X399979Y129110D01*
X397801Y131287D01*
X396484Y133208D01*
X395942Y135676D01*
X396405Y138161D01*
X397801Y140268D01*
X404622Y147088D01*
X404622Y154664D01*
X398621Y160664D01*
X396786Y161880D01*
X396570Y162097D01*
X395213Y164110D01*
X394710Y166587D01*
X394710Y168951D01*
X393318Y172312D01*
X390287Y175342D01*
X388971Y177262D01*
X388428Y179731D01*
X388892Y182215D01*
X390287Y184322D01*
X393318Y187352D01*
X394710Y190713D01*
X394710Y194351D01*
X393318Y197712D01*
X392827Y198202D01*
X391552Y200030D01*
X390971Y202490D01*
X391395Y204981D01*
X392756Y207110D01*
X394841Y208539D01*
X397318Y209042D01*
X406078Y209042D01*
X408273Y208651D01*
X410423Y207323D01*
X411885Y205262D01*
X412427Y202793D01*
X411964Y200309D01*
X410568Y198202D01*
X409216Y196850D01*
X424920Y196850D01*
X423244Y198526D01*
X421948Y200400D01*
X421386Y202864D01*
X421829Y205352D01*
X423208Y207470D01*
X425304Y208883D01*
X428956Y210395D01*
X445941Y227380D01*
X447294Y230648D01*
X447294Y237238D01*
X447721Y239527D01*
X449083Y241656D01*
X451167Y243085D01*
X453644Y243588D01*
X458401Y243588D01*
X459705Y243334D01*
X468860Y243334D01*
X474216Y248690D01*
X474216Y256265D01*
X468752Y261729D01*
X467162Y262013D01*
X465011Y263341D01*
X463549Y265402D01*
X463007Y267870D01*
X463470Y270355D01*
X464866Y272462D01*
X496487Y304082D01*
X498281Y308415D01*
X499517Y310330D01*
X501578Y311792D01*
X504047Y312335D01*
X506531Y311871D01*
X508638Y310475D01*
X524682Y294432D01*
X526039Y292418D01*
X526542Y289941D01*
X526542Y289177D01*
X526097Y286841D01*
X524718Y284723D01*
X522622Y283310D01*
X520262Y282333D01*
X516453Y278524D01*
X514392Y273547D01*
X514392Y268161D01*
X516453Y263184D01*
X520262Y259375D01*
X525239Y257314D01*
X545625Y257314D01*
X550602Y259375D01*
X554411Y263184D01*
X556472Y268161D01*
X556472Y273547D01*
X554411Y278524D01*
X550602Y282333D01*
X548242Y283310D01*
X546254Y284616D01*
X544825Y286700D01*
X544322Y289177D01*
X544322Y298022D01*
X542969Y301290D01*
X521690Y322569D01*
X520333Y324582D01*
X519830Y327059D01*
X519830Y328146D01*
X520221Y330341D01*
X521549Y332491D01*
X523610Y333953D01*
X526079Y334495D01*
X528563Y334032D01*
X530670Y332636D01*
X532660Y330646D01*
X540236Y330646D01*
X545592Y336002D01*
X545592Y344109D01*
X545333Y344493D01*
X544830Y346970D01*
X544830Y384656D01*
X545239Y386898D01*
X546584Y389037D01*
X548657Y390483D01*
X551129Y391006D01*
X553610Y390523D01*
X558565Y388470D01*
X563315Y388470D01*
X567702Y390287D01*
X571061Y393646D01*
X572878Y398033D01*
X572878Y402783D01*
X571061Y407170D01*
X567702Y410529D01*
X563315Y412346D01*
X558565Y412346D01*
X553388Y410201D01*
X552794Y409801D01*
X550317Y409298D01*
X546563Y409298D01*
X544180Y409762D01*
X543558Y410174D01*
X538315Y412346D01*
X533565Y412346D01*
X529178Y410529D01*
X527930Y409281D01*
X526010Y407964D01*
X523541Y407422D01*
X521057Y407885D01*
X518950Y409281D01*
X517702Y410529D01*
X515465Y411455D01*
X513625Y412622D01*
X512130Y414660D01*
X511548Y417120D01*
X511972Y419611D01*
X513334Y421740D01*
X515418Y423169D01*
X517895Y423672D01*
X519166Y423672D01*
X522434Y425025D01*
X556985Y459577D01*
X558906Y460894D01*
X561374Y461436D01*
X563859Y460973D01*
X565966Y459577D01*
X570004Y455538D01*
X576451Y452868D01*
X583429Y452868D01*
X589876Y455538D01*
X594810Y460472D01*
X597480Y466919D01*
X597480Y473897D01*
X594810Y480344D01*
X589876Y485278D01*
X583429Y487948D01*
X576451Y487948D01*
X570164Y485344D01*
X567936Y484864D01*
X565445Y485287D01*
X563316Y486649D01*
X561887Y488734D01*
X561384Y491210D01*
X561384Y664682D01*
X561793Y666924D01*
X563138Y669063D01*
X565211Y670509D01*
X567683Y671032D01*
X570164Y670549D01*
X575689Y668260D01*
X582667Y668260D01*
X589114Y670930D01*
X594048Y675864D01*
X596718Y682311D01*
X596718Y689289D01*
X594048Y695736D01*
X589114Y700670D01*
X582667Y703340D01*
X575689Y703340D01*
X570164Y701051D01*
X567936Y700571D01*
X565445Y700995D01*
X563316Y702357D01*
X561887Y704441D01*
X561384Y706918D01*
X561384Y739135D01*
X561829Y741471D01*
X563208Y743589D01*
X565304Y745002D01*
X566940Y745679D01*
X570299Y749038D01*
X572116Y753425D01*
X572116Y758175D01*
X569971Y763352D01*
X569571Y763946D01*
X569068Y766423D01*
X569068Y767220D01*
X567715Y770488D01*
X554532Y783671D01*
X551264Y785024D01*
X490587Y785024D01*
X488250Y785470D01*
X486132Y786848D01*
X484720Y788944D01*
X482847Y793466D01*
X482119Y794546D01*
X481616Y797023D01*
X481616Y806398D01*
X482080Y808781D01*
X483476Y810888D01*
X487339Y814750D01*
X489352Y816107D01*
X491829Y816610D01*
X510077Y816610D01*
X512460Y816146D01*
X513082Y815734D01*
X518325Y813562D01*
X523075Y813562D01*
X528252Y815707D01*
X528846Y816107D01*
X531323Y816610D01*
X535477Y816610D01*
X537860Y816146D01*
X538482Y815734D01*
X543725Y813562D01*
X548475Y813562D01*
X552862Y815379D01*
X556221Y818738D01*
X558038Y823125D01*
X558038Y827875D01*
X556221Y832262D01*
X554773Y833710D01*
X553456Y835630D01*
X552914Y838099D01*
X553377Y840583D01*
X554773Y842690D01*
X556221Y844138D01*
X556917Y845820D01*
X541020Y845820D01*
X541020Y855980D01*
X556917Y855980D01*
X556221Y857662D01*
X554773Y859110D01*
X553456Y861030D01*
X552914Y863499D01*
X553377Y865983D01*
X554773Y868090D01*
X556221Y869538D01*
X556917Y871220D01*
X541020Y871220D01*
X541020Y881380D01*
X556917Y881380D01*
X556221Y883062D01*
X554773Y884510D01*
X553456Y886430D01*
X552914Y888899D01*
X553377Y891383D01*
X554773Y893490D01*
X556221Y894938D01*
X556917Y896620D01*
X541020Y896620D01*
X541020Y906780D01*
X556917Y906780D01*
X556221Y908462D01*
X554773Y909910D01*
X553456Y911830D01*
X552914Y914299D01*
X553377Y916783D01*
X554773Y918890D01*
X556221Y920338D01*
X558038Y924725D01*
X558038Y929475D01*
X556221Y933862D01*
X552862Y937221D01*
X548475Y939038D01*
X543725Y939038D01*
X538548Y936893D01*
X537954Y936493D01*
X535477Y935990D01*
X531323Y935990D01*
X528940Y936454D01*
X528318Y936866D01*
X523075Y939038D01*
X518325Y939038D01*
X513148Y936893D01*
X512554Y936493D01*
X510077Y935990D01*
X493353Y935990D01*
X490969Y936454D01*
X488863Y937850D01*
X475438Y951275D01*
X474081Y953288D01*
X473578Y955765D01*
X473578Y957520D01*
X474042Y959903D01*
X474791Y961033D01*
X476880Y966077D01*
X476880Y970927D01*
X475024Y975408D01*
X471594Y978838D01*
X467113Y980694D01*
X462263Y980694D01*
X457782Y978838D01*
X454352Y975408D01*
X452496Y970927D01*
X452496Y966077D01*
X453109Y964596D01*
X453586Y962469D01*
X453202Y959971D01*
X451874Y957821D01*
X449812Y956359D01*
X447344Y955817D01*
X444860Y956280D01*
X442753Y957676D01*
X425152Y975277D01*
X421884Y976630D01*
X396432Y976630D01*
X394049Y977094D01*
X391942Y978490D01*
X391594Y978838D01*
X387113Y980694D01*
X382263Y980694D01*
X377782Y978838D01*
X374352Y975408D01*
X372496Y970927D01*
X372496Y966077D01*
X374352Y961596D01*
X377782Y958166D01*
X382263Y956310D01*
X387113Y956310D01*
X392078Y958367D01*
X394508Y958850D01*
X413803Y958850D01*
X416187Y958386D01*
X418294Y956990D01*
X432734Y942550D01*
X433477Y941448D01*
X439950Y934974D01*
X447526Y934974D01*
X452569Y940018D01*
X454490Y941335D01*
X456958Y941877D01*
X459443Y941414D01*
X461550Y940018D01*
X482004Y919563D01*
X485272Y918210D01*
X505114Y918210D01*
X507355Y917801D01*
X509495Y916456D01*
X510941Y914383D01*
X511463Y911911D01*
X510980Y909430D01*
X509883Y906780D01*
X525780Y906780D01*
X525780Y896620D01*
X509883Y896620D01*
X510579Y894938D01*
X512027Y893490D01*
X513344Y891570D01*
X513886Y889101D01*
X513423Y886617D01*
X512027Y884510D01*
X510579Y883062D01*
X509883Y881380D01*
X525780Y881380D01*
X525780Y871220D01*
X509883Y871220D01*
X510579Y869538D01*
X512027Y868090D01*
X513344Y866170D01*
X513886Y863701D01*
X513423Y861217D01*
X512027Y859110D01*
X510579Y857662D01*
X509883Y855980D01*
X525780Y855980D01*
X525780Y845820D01*
X509883Y845820D01*
X510980Y843170D01*
X511460Y840942D01*
X511037Y838451D01*
X509675Y836322D01*
X507590Y834893D01*
X505114Y834390D01*
X483748Y834390D01*
X480480Y833037D01*
X464906Y817463D01*
X464218Y816377D01*
X462180Y814882D01*
X459721Y814301D01*
X457229Y814724D01*
X455100Y816086D01*
X453671Y818171D01*
X453168Y820647D01*
X453168Y825406D01*
X453652Y827836D01*
X454025Y828737D01*
X454025Y832931D01*
X453111Y835136D01*
X452628Y837567D01*
X452628Y861246D01*
X452882Y862550D01*
X452882Y871706D01*
X447526Y877062D01*
X439950Y877062D01*
X433439Y870551D01*
X432734Y869487D01*
X431248Y868000D01*
X429234Y866643D01*
X426757Y866140D01*
X408754Y866140D01*
X407450Y866394D01*
X398294Y866394D01*
X392938Y861038D01*
X392938Y853462D01*
X398294Y848106D01*
X405119Y848106D01*
X407313Y847715D01*
X409463Y846387D01*
X410925Y844326D01*
X411468Y841857D01*
X411004Y839373D01*
X409609Y837266D01*
X408257Y835914D01*
X423164Y835914D01*
X423164Y821007D01*
X424548Y822391D01*
X426376Y823666D01*
X428836Y824248D01*
X431327Y823824D01*
X433456Y822462D01*
X434885Y820378D01*
X435388Y817901D01*
X435388Y765984D01*
X436742Y762716D01*
X439242Y760216D01*
X442510Y758862D01*
X485310Y758862D01*
X489460Y760581D01*
X491688Y761061D01*
X494179Y760638D01*
X496308Y759276D01*
X497737Y757191D01*
X498240Y754715D01*
X498240Y753425D01*
X500385Y748248D01*
X500785Y747654D01*
X501288Y745177D01*
X501288Y741027D01*
X500824Y738643D01*
X499428Y736537D01*
X494367Y731475D01*
X492353Y730118D01*
X489876Y729615D01*
X396022Y729615D01*
X395384Y729742D01*
X358140Y729742D01*
X355851Y730169D01*
X353722Y731531D01*
X352293Y733615D01*
X351790Y736092D01*
X351790Y744660D01*
X352044Y745964D01*
X352044Y756753D01*
X351790Y758004D01*
X351790Y761228D01*
X350437Y764496D01*
X309925Y805008D01*
X308649Y806836D01*
X308068Y809296D01*
X308492Y811787D01*
X309854Y813916D01*
X311938Y815345D01*
X313796Y815722D01*
X319278Y821204D01*
X319278Y823251D01*
X319669Y825446D01*
X320997Y827596D01*
X323058Y829058D01*
X325527Y829601D01*
X328011Y829137D01*
X330118Y827742D01*
X331896Y825964D01*
X332639Y824862D01*
X339112Y818388D01*
X346688Y818388D01*
X352044Y823744D01*
X352044Y831320D01*
X348393Y834971D01*
X347056Y836938D01*
X346533Y839410D01*
X347016Y841891D01*
X347072Y842025D01*
X347072Y846775D01*
X345255Y851162D01*
X341521Y854896D01*
X340246Y856724D01*
X339664Y859184D01*
X340088Y861675D01*
X341450Y863804D01*
X343534Y865233D01*
X346011Y865736D01*
X368439Y865736D01*
X369722Y865605D01*
X369930Y865562D01*
X370246Y865623D01*
X371441Y865736D01*
X371763Y865736D01*
X371960Y865818D01*
X373195Y866187D01*
X373404Y866227D01*
X373673Y866404D01*
X374733Y866966D01*
X375030Y867089D01*
X375181Y867240D01*
X376181Y868055D01*
X376358Y868172D01*
X376539Y868438D01*
X377304Y869363D01*
X377531Y869590D01*
X377613Y869787D01*
X378225Y870922D01*
X408626Y915733D01*
X409391Y916658D01*
X409619Y916885D01*
X409700Y917082D01*
X410312Y918217D01*
X410431Y918393D01*
X410496Y918708D01*
X410849Y919855D01*
X410972Y920153D01*
X410972Y920366D01*
X411103Y921648D01*
X411146Y921857D01*
X411085Y922173D01*
X410972Y923368D01*
X410972Y926778D01*
X411226Y928082D01*
X411226Y937238D01*
X405870Y942594D01*
X398294Y942594D01*
X392938Y937238D01*
X392938Y928029D01*
X393192Y926778D01*
X393192Y926603D01*
X392097Y923038D01*
X383279Y910041D01*
X380686Y907841D01*
X378226Y907259D01*
X375735Y907683D01*
X373606Y909045D01*
X372177Y911129D01*
X371674Y913606D01*
X371674Y917889D01*
X369004Y924336D01*
X364070Y929270D01*
X357623Y931940D01*
X350645Y931940D01*
X344198Y929270D01*
X339264Y924336D01*
X336594Y917889D01*
X336594Y910911D01*
X339264Y904464D01*
X344198Y899530D01*
X350645Y896860D01*
X357623Y896860D01*
X361280Y898375D01*
X364745Y898774D01*
X367106Y897874D01*
X368930Y896125D01*
X369927Y893802D01*
X369940Y891275D01*
X368965Y888943D01*
X367173Y886301D01*
X364394Y884019D01*
X361918Y883516D01*
X295623Y883516D01*
X292356Y882163D01*
X277597Y867404D01*
X276244Y864137D01*
X276244Y855023D01*
X275780Y852640D01*
X275368Y852018D01*
X273196Y846775D01*
X273196Y842025D01*
X275013Y837638D01*
X278372Y834279D01*
X282759Y832462D01*
X287509Y832462D01*
X292210Y834409D01*
X294438Y834890D01*
X296929Y834466D01*
X299058Y833104D01*
X300487Y831019D01*
X300990Y828543D01*
X300990Y825500D01*
X300563Y823211D01*
X299201Y821082D01*
X297117Y819653D01*
X294640Y819150D01*
X159072Y819150D01*
X157768Y819404D01*
X148612Y819404D01*
X143256Y814048D01*
X143256Y806472D01*
X148612Y801116D01*
X157821Y801116D01*
X159072Y801370D01*
X285787Y801370D01*
X288171Y800906D01*
X290278Y799510D01*
X321012Y768776D01*
X322287Y766948D01*
X322868Y764488D01*
X322444Y761997D01*
X321083Y759868D01*
X318998Y758439D01*
X316521Y757936D01*
X304713Y757936D01*
X303462Y757682D01*
X213499Y757682D01*
X212222Y757936D01*
X194777Y757936D01*
X191416Y756544D01*
X188844Y753972D01*
X187452Y750611D01*
X187452Y746973D01*
X188844Y743612D01*
X191874Y740582D01*
X193191Y738662D01*
X193733Y736193D01*
X193270Y733709D01*
X191874Y731602D01*
X188844Y728572D01*
X187452Y725211D01*
X187452Y721573D01*
X188844Y718212D01*
X191089Y715967D01*
X191481Y715411D01*
X192632Y714654D01*
X194061Y712570D01*
X194564Y710093D01*
X194564Y709998D01*
X194173Y707803D01*
X192845Y705653D01*
X190784Y704191D01*
X188315Y703649D01*
X185831Y704112D01*
X183724Y705508D01*
X183561Y705671D01*
X183371Y705941D01*
X179873Y707390D01*
X176235Y707390D01*
X172874Y705998D01*
X170302Y703426D01*
X168807Y699815D01*
X167571Y697901D01*
X165510Y696439D01*
X163041Y695896D01*
X160557Y696360D01*
X158450Y697755D01*
X155536Y700670D01*
X149089Y703340D01*
X142111Y703340D01*
X135664Y700670D01*
X130730Y695736D01*
X128060Y689289D01*
X128060Y682311D01*
X130730Y675864D01*
X135664Y670930D01*
X142111Y668260D01*
X149089Y668260D01*
X155536Y670930D01*
X158324Y673719D01*
X160152Y674994D01*
X162612Y675575D01*
X165103Y675152D01*
X167232Y673790D01*
X168661Y671705D01*
X169164Y669228D01*
X169164Y666331D01*
X168910Y665054D01*
X168910Y613986D01*
X168656Y612682D01*
X168656Y603526D01*
X174012Y598170D01*
X181588Y598170D01*
X186944Y603526D01*
X186944Y612735D01*
X186690Y613986D01*
X186690Y659295D01*
X186944Y660572D01*
X186944Y664501D01*
X187335Y666696D01*
X188663Y668846D01*
X190724Y670308D01*
X193193Y670851D01*
X195677Y670387D01*
X197784Y668992D01*
X207188Y659587D01*
X208545Y657574D01*
X209048Y655097D01*
X209048Y570298D01*
X208794Y568994D01*
X208794Y558205D01*
X209048Y556954D01*
X209048Y451358D01*
X208621Y449069D01*
X207259Y446940D01*
X205175Y445511D01*
X202698Y445008D01*
X184668Y445008D01*
X181400Y443655D01*
X169755Y432010D01*
X168402Y428742D01*
X168402Y415902D01*
X167975Y413613D01*
X166613Y411484D01*
X164529Y410055D01*
X162052Y409552D01*
X137731Y409552D01*
X135348Y410016D01*
X134726Y410428D01*
X129483Y412600D01*
X124733Y412600D01*
X119556Y410455D01*
X118962Y410055D01*
X116485Y409552D01*
X112731Y409552D01*
X110348Y410016D01*
X109726Y410428D01*
X104483Y412600D01*
X99733Y412600D01*
X95346Y410783D01*
X94098Y409535D01*
X92178Y408218D01*
X89709Y407676D01*
X87225Y408139D01*
X85118Y409535D01*
X83870Y410783D01*
X79483Y412600D01*
X74733Y412600D01*
X70346Y410783D01*
X66987Y407424D01*
X64843Y402247D01*
X64706Y401543D01*
X63310Y399437D01*
X62567Y398694D01*
X61214Y395426D01*
X61214Y386148D01*
X60750Y383765D01*
X59354Y381658D01*
X57272Y379576D01*
X55880Y376215D01*
X55880Y372577D01*
X57272Y369216D01*
X60302Y366186D01*
X61619Y364266D01*
X62161Y361797D01*
X61698Y359313D01*
X60302Y357206D01*
X57272Y354176D01*
X55880Y350815D01*
X55880Y347177D01*
X57272Y343816D01*
X59844Y341244D01*
X63205Y339852D01*
X80650Y339852D01*
X81927Y340106D01*
X93970Y340106D01*
X97238Y341459D01*
X109137Y353358D01*
X110490Y356626D01*
X110490Y369502D01*
X110744Y370806D01*
X110744Y379962D01*
X109774Y380932D01*
X108499Y382760D01*
X107917Y385220D01*
X108341Y387711D01*
X109703Y389840D01*
X111787Y391269D01*
X114264Y391772D01*
X116485Y391772D01*
X118868Y391308D01*
X119490Y390896D01*
X124733Y388724D01*
X130592Y388724D01*
X130826Y388682D01*
X130875Y388756D01*
X132970Y390169D01*
X134660Y390869D01*
X135254Y391269D01*
X137731Y391772D01*
X158786Y391772D01*
X160981Y391381D01*
X163131Y390053D01*
X164593Y387992D01*
X165135Y385523D01*
X164672Y383039D01*
X163276Y380932D01*
X162211Y379867D01*
X162056Y379630D01*
X159971Y378201D01*
X157495Y377698D01*
X145610Y377698D01*
X144306Y377952D01*
X135400Y377952D01*
X135156Y377995D01*
X135082Y377884D01*
X129794Y372596D01*
X129794Y365020D01*
X135150Y359664D01*
X144359Y359664D01*
X145610Y359918D01*
X158682Y359918D01*
X160877Y359527D01*
X163027Y358199D01*
X164489Y356138D01*
X165031Y353669D01*
X164568Y351185D01*
X163172Y349078D01*
X161820Y347726D01*
X177524Y347726D01*
X174138Y351111D01*
X172842Y352986D01*
X172280Y355450D01*
X172724Y357938D01*
X174103Y360056D01*
X175346Y360893D01*
X178861Y364408D01*
X180874Y365765D01*
X183351Y366268D01*
X185715Y366268D01*
X189076Y367660D01*
X191648Y370232D01*
X193040Y373593D01*
X193040Y377231D01*
X191648Y380592D01*
X188618Y383622D01*
X187301Y385542D01*
X186759Y388011D01*
X187222Y390495D01*
X188618Y392602D01*
X191648Y395632D01*
X193040Y398993D01*
X193040Y402631D01*
X191648Y405992D01*
X188351Y409289D01*
X188114Y409444D01*
X186685Y411529D01*
X186182Y414005D01*
X186182Y420661D01*
X186646Y423045D01*
X188042Y425152D01*
X188259Y425368D01*
X190272Y426725D01*
X192749Y427228D01*
X279840Y427228D01*
X282035Y426837D01*
X284185Y425509D01*
X285647Y423448D01*
X286189Y420979D01*
X285726Y418495D01*
X284330Y416388D01*
X283332Y415390D01*
X281940Y412029D01*
X281940Y408391D01*
X283332Y405030D01*
X285904Y402458D01*
X289265Y401066D01*
X293502Y401066D01*
X294779Y401320D01*
X325665Y401320D01*
X328049Y400856D01*
X330156Y399460D01*
X334436Y395180D01*
X335793Y393166D01*
X336296Y390689D01*
X336296Y375480D01*
X336042Y374176D01*
X336042Y365020D01*
X341398Y359664D01*
X350650Y359664D01*
X352845Y359273D01*
X354995Y357945D01*
X356457Y355884D01*
X356999Y353415D01*
X356536Y350931D01*
X355140Y348824D01*
X350343Y344027D01*
X348990Y340759D01*
X348990Y306026D01*
X348526Y303643D01*
X347130Y301536D01*
X327367Y281774D01*
X325585Y280520D01*
X323130Y279919D01*
X320636Y280323D01*
X318496Y281668D01*
X317050Y283741D01*
X316527Y286213D01*
X317011Y288694D01*
X318510Y292313D01*
X318510Y295951D01*
X317118Y299312D01*
X314087Y302342D01*
X312771Y304262D01*
X312228Y306731D01*
X312692Y309215D01*
X314087Y311322D01*
X317118Y314352D01*
X318510Y317713D01*
X318510Y321351D01*
X317118Y324712D01*
X314545Y327284D01*
X311185Y328676D01*
X294339Y328676D01*
X290978Y327284D01*
X288406Y324712D01*
X287014Y321351D01*
X287014Y317713D01*
X288406Y314352D01*
X288570Y314188D01*
X289845Y312360D01*
X290427Y309900D01*
X290003Y307409D01*
X288641Y305280D01*
X286557Y303851D01*
X284080Y303348D01*
X264482Y303348D01*
X262099Y303812D01*
X262033Y303856D01*
X253762Y303856D01*
X251955Y302596D01*
X249495Y302014D01*
X247004Y302438D01*
X244875Y303800D01*
X243446Y305884D01*
X242943Y308361D01*
X242943Y373536D01*
X243407Y375920D01*
X244803Y378027D01*
X245829Y379053D01*
X247889Y380429D01*
X252855Y382486D01*
X256070Y385701D01*
X257810Y389902D01*
X257810Y394450D01*
X256070Y398651D01*
X252855Y401866D01*
X248654Y403606D01*
X244106Y403606D01*
X239905Y401866D01*
X236690Y398651D01*
X234633Y393685D01*
X233257Y391625D01*
X226516Y384885D01*
X225163Y381617D01*
X225163Y312614D01*
X224680Y310184D01*
X224655Y310124D01*
X224655Y304800D01*
X224228Y302511D01*
X222866Y300382D01*
X220782Y298953D01*
X218305Y298450D01*
X211142Y298450D01*
X208759Y298914D01*
X207159Y299974D01*
X199412Y299974D01*
X194056Y294618D01*
X194056Y287042D01*
X199518Y281580D01*
X201416Y281203D01*
X202702Y280670D01*
X218853Y280670D01*
X221189Y280225D01*
X223307Y278846D01*
X224719Y276750D01*
X226008Y273638D01*
X233807Y265839D01*
X237075Y264486D01*
X249868Y264486D01*
X252063Y264095D01*
X254213Y262767D01*
X255675Y260706D01*
X256217Y258237D01*
X255754Y255753D01*
X254358Y253646D01*
X248412Y247700D01*
X248412Y238491D01*
X248666Y237240D01*
X248666Y228160D01*
X248202Y225777D01*
X246806Y223670D01*
X244856Y221720D01*
X244856Y214144D01*
X246992Y212008D01*
X248267Y210180D01*
X248849Y207720D01*
X248425Y205229D01*
X247063Y203100D01*
X244979Y201671D01*
X242502Y201168D01*
X241870Y201168D01*
X239486Y201632D01*
X237380Y203028D01*
X212426Y227982D01*
X211069Y229995D01*
X210566Y232472D01*
X210566Y236210D01*
X209213Y239478D01*
X180676Y268015D01*
X179933Y269116D01*
X173460Y275590D01*
X165884Y275590D01*
X159632Y269337D01*
X157711Y268020D01*
X155243Y267478D01*
X152758Y267941D01*
X150651Y269337D01*
X149688Y270301D01*
X148331Y272314D01*
X147828Y274791D01*
X147828Y285936D01*
X148082Y287240D01*
X148082Y296396D01*
X142726Y301752D01*
X135150Y301752D01*
X129794Y296396D01*
X129794Y287187D01*
X130048Y285936D01*
X130048Y284131D01*
X129657Y281936D01*
X128329Y279786D01*
X126268Y278324D01*
X123799Y277782D01*
X121315Y278245D01*
X119208Y279641D01*
X116770Y282079D01*
X114410Y283056D01*
X112422Y284362D01*
X110993Y286446D01*
X110490Y288923D01*
X110490Y293302D01*
X110744Y294606D01*
X110744Y303762D01*
X105388Y309118D01*
X97812Y309118D01*
X92456Y303762D01*
X92456Y294553D01*
X92710Y293302D01*
X92710Y288923D01*
X92265Y286587D01*
X90886Y284469D01*
X88790Y283056D01*
X86430Y282079D01*
X82621Y278270D01*
X80560Y273293D01*
X80560Y267907D01*
X82621Y262930D01*
X86430Y259121D01*
X91407Y257060D01*
X111793Y257060D01*
X116770Y259121D01*
X121077Y263429D01*
X121497Y264080D01*
X123559Y265542D01*
X126027Y266084D01*
X128512Y265621D01*
X130619Y264225D01*
X139364Y255480D01*
X140639Y253652D01*
X141220Y251192D01*
X140796Y248701D01*
X139435Y246572D01*
X137350Y245143D01*
X134939Y244653D01*
X129930Y242579D01*
X126121Y238770D01*
X124060Y233793D01*
X124060Y213407D01*
X125367Y210251D01*
X125846Y208074D01*
X125442Y205579D01*
X124927Y204759D01*
X127149Y205229D01*
X129629Y204746D01*
X134907Y202560D01*
X140293Y202560D01*
X145270Y204621D01*
X149404Y208755D01*
X151232Y210030D01*
X153692Y210612D01*
X156183Y210188D01*
X158312Y208826D01*
X159741Y206742D01*
X160244Y204265D01*
X160244Y182587D01*
X159780Y180203D01*
X158384Y178097D01*
X117128Y136840D01*
X115114Y135483D01*
X112637Y134980D01*
X91407Y134980D01*
X86430Y132919D01*
X82621Y129110D01*
X80560Y124133D01*
X80560Y118747D01*
X82621Y113770D01*
X86430Y109961D01*
X91407Y107900D01*
X111793Y107900D01*
X116770Y109961D01*
X120579Y113770D01*
X121068Y114952D01*
X122445Y117012D01*
X176671Y171238D01*
X178024Y174506D01*
X178024Y230191D01*
X178415Y232386D01*
X179743Y234536D01*
X181804Y235998D01*
X184273Y236541D01*
X186757Y236077D01*
X188864Y234682D01*
X190926Y232620D01*
X192283Y230606D01*
X192786Y228129D01*
X192786Y224391D01*
X192811Y224331D01*
X193294Y221901D01*
X193294Y168141D01*
X192830Y165758D01*
X192604Y165417D01*
X192604Y157245D01*
X197960Y151889D01*
X205536Y151889D01*
X210892Y157245D01*
X210892Y157998D01*
X211074Y158913D01*
X211074Y188858D01*
X211465Y191053D01*
X212793Y193203D01*
X214854Y194665D01*
X217323Y195208D01*
X219807Y194744D01*
X221914Y193349D01*
X230521Y184741D01*
X233789Y183388D01*
X284152Y183388D01*
X286346Y182997D01*
X288497Y181669D01*
X289959Y179608D01*
X290501Y177139D01*
X290038Y174655D01*
X288642Y172548D01*
X288406Y172312D01*
X287014Y168951D01*
X287014Y165313D01*
X288406Y161952D01*
X291699Y158660D01*
X291946Y158497D01*
X293375Y156413D01*
X293878Y153936D01*
X293878Y143981D01*
X293414Y141597D01*
X292018Y139491D01*
X250070Y97543D01*
X248057Y96186D01*
X245580Y95683D01*
X201940Y95683D01*
X198988Y94460D01*
X198309Y94325D01*
X192604Y88620D01*
X192604Y80848D01*
X193553Y79440D01*
X194056Y76963D01*
X194056Y55694D01*
X193592Y53311D01*
X193294Y52861D01*
X193294Y44726D01*
X198650Y39370D01*
G37*
G36*
X262645Y896860D02*
X269623Y896860D01*
X276070Y899530D01*
X281004Y904464D01*
X283674Y910911D01*
X283674Y917889D01*
X281004Y924336D01*
X276070Y929270D01*
X269623Y931940D01*
X262645Y931940D01*
X256198Y929270D01*
X251264Y924336D01*
X248594Y917889D01*
X248594Y910911D01*
X251264Y904464D01*
X256198Y899530D01*
X262645Y896860D01*
G37*
G36*
X49719Y862831D02*
X50480Y862770D01*
X51185Y863062D01*
X51667Y863239D01*
X52393Y863473D01*
X52933Y864013D01*
X53311Y864361D01*
X54125Y865053D01*
X54531Y865610D01*
X54583Y865663D01*
X54774Y865961D01*
X56824Y867439D01*
X59288Y868001D01*
X61776Y867557D01*
X63894Y866178D01*
X64129Y865828D01*
X66332Y863625D01*
X68199Y862852D01*
X71349Y862852D01*
X73071Y863565D01*
X75803Y864041D01*
X78253Y863421D01*
X79491Y862826D01*
X81377Y862853D01*
X85424Y862910D01*
X89233Y864281D01*
X90815Y864850D01*
X91174Y865084D01*
X93642Y865626D01*
X96127Y865163D01*
X98233Y863767D01*
X98375Y863625D01*
X100242Y862852D01*
X102263Y862852D01*
X103792Y863485D01*
X106172Y863969D01*
X108652Y863485D01*
X110181Y862852D01*
X118520Y862852D01*
X121632Y864141D01*
X122178Y864687D01*
X123693Y865807D01*
X126117Y866523D01*
X128628Y866237D01*
X130829Y864994D01*
X131252Y864626D01*
X131889Y863990D01*
X132152Y863686D01*
X132436Y863497D01*
X132817Y863370D01*
X133649Y863025D01*
X134008Y862845D01*
X134343Y862779D01*
X134744Y862807D01*
X135644Y862807D01*
X136045Y862779D01*
X136380Y862845D01*
X136740Y863025D01*
X137571Y863370D01*
X137953Y863497D01*
X138236Y863686D01*
X138500Y863990D01*
X139136Y864627D01*
X139440Y864890D01*
X139630Y865174D01*
X139757Y865555D01*
X140101Y866387D01*
X140281Y866746D01*
X140469Y867692D01*
X144110Y878614D01*
X145434Y880877D01*
X147472Y882371D01*
X149931Y882953D01*
X152423Y882529D01*
X154552Y881167D01*
X155981Y879083D01*
X156484Y876606D01*
X156484Y871443D01*
X158117Y867502D01*
X161133Y864485D01*
X165075Y862852D01*
X169342Y862852D01*
X172380Y864111D01*
X174709Y864593D01*
X177194Y864130D01*
X177239Y864100D01*
X177243Y864109D01*
X180277Y862852D01*
X187711Y862852D01*
X191238Y864313D01*
X192010Y865085D01*
X193526Y866205D01*
X195949Y866921D01*
X198460Y866635D01*
X200661Y865392D01*
X201544Y864627D01*
X202181Y863990D01*
X202444Y863686D01*
X202728Y863497D01*
X203109Y863370D01*
X203941Y863025D01*
X204300Y862845D01*
X204635Y862779D01*
X205036Y862807D01*
X205936Y862807D01*
X206337Y862779D01*
X206672Y862845D01*
X207031Y863025D01*
X207863Y863370D01*
X208245Y863497D01*
X208528Y863686D01*
X208792Y863990D01*
X209428Y864627D01*
X209732Y864890D01*
X209921Y865174D01*
X210049Y865555D01*
X210393Y866387D01*
X210573Y866746D01*
X210761Y867692D01*
X217398Y887604D01*
X217255Y889620D01*
X216351Y891428D01*
X214824Y892752D01*
X212907Y893391D01*
X210891Y893248D01*
X208326Y891965D01*
X205086Y891307D01*
X202646Y891965D01*
X200081Y893248D01*
X198065Y893391D01*
X195591Y892566D01*
X195201Y892321D01*
X192728Y891798D01*
X190248Y892281D01*
X187711Y893332D01*
X185803Y893332D01*
X185803Y893332D01*
X180277Y893332D01*
X177335Y892114D01*
X177334Y892113D01*
X177332Y892112D01*
X177243Y892075D01*
X177236Y892092D01*
X174861Y891590D01*
X172380Y892073D01*
X169342Y893332D01*
X165075Y893332D01*
X161133Y891699D01*
X157223Y887789D01*
X157151Y887861D01*
X155753Y886693D01*
X153335Y885958D01*
X150821Y886224D01*
X148611Y887449D01*
X147054Y889439D01*
X146059Y891428D01*
X144533Y892752D01*
X142615Y893391D01*
X140599Y893248D01*
X138034Y891965D01*
X134795Y891307D01*
X132354Y891965D01*
X129789Y893248D01*
X127773Y893391D01*
X125856Y892752D01*
X124329Y891428D01*
X123602Y889973D01*
X121386Y887491D01*
X119036Y886562D01*
X116509Y886622D01*
X115707Y886805D01*
X111262Y885791D01*
X110394Y885265D01*
X107925Y884722D01*
X105441Y885186D01*
X105213Y885337D01*
X102263Y886559D01*
X93469Y886559D01*
X92379Y886107D01*
X89647Y885631D01*
X87197Y886251D01*
X86504Y886585D01*
X84618Y886558D01*
X82783Y886532D01*
X79199Y885736D01*
X77525Y884982D01*
X77525Y884982D01*
X76604Y884567D01*
X75219Y883095D01*
X74502Y881206D01*
X74518Y880684D01*
X74094Y878202D01*
X72732Y876073D01*
X70648Y874644D01*
X68226Y874152D01*
X66332Y873367D01*
X64737Y871773D01*
X63773Y870278D01*
X61711Y868816D01*
X59243Y868274D01*
X56759Y868737D01*
X54652Y870133D01*
X53587Y871197D01*
X53239Y871575D01*
X52971Y871890D01*
X51669Y874383D01*
X51524Y876906D01*
X52374Y879286D01*
X54321Y882509D01*
X54220Y886170D01*
X53740Y887650D01*
X50439Y891322D01*
X45928Y893332D01*
X41438Y893332D01*
X37704Y891785D01*
X34846Y888927D01*
X33299Y885193D01*
X33299Y881009D01*
X34898Y877280D01*
X35410Y874880D01*
X34947Y872395D01*
X34366Y871519D01*
X33299Y868942D01*
X33299Y866922D01*
X34073Y865054D01*
X35502Y863625D01*
X37369Y862852D01*
X49206Y862852D01*
X49719Y862831D01*
G37*
G36*
X408257Y825754D02*
X413004Y821007D01*
X413004Y825754D01*
X408257Y825754D01*
G37*
G36*
X97812Y598170D02*
X105388Y598170D01*
X110744Y603526D01*
X110744Y612735D01*
X110490Y613986D01*
X110490Y740048D01*
X110899Y742290D01*
X112244Y744429D01*
X114317Y745875D01*
X116789Y746398D01*
X119270Y745915D01*
X121520Y744983D01*
X121520Y766617D01*
X119838Y765921D01*
X118590Y764673D01*
X116670Y763356D01*
X114201Y762814D01*
X111717Y763277D01*
X109610Y764673D01*
X108362Y765921D01*
X103975Y767738D01*
X99225Y767738D01*
X94270Y765685D01*
X92042Y765205D01*
X89551Y765629D01*
X87422Y766991D01*
X85993Y769075D01*
X85490Y771552D01*
X85490Y812510D01*
X85344Y813244D01*
X85344Y814048D01*
X79988Y819404D01*
X72412Y819404D01*
X67056Y814048D01*
X67056Y805889D01*
X67207Y805665D01*
X67710Y803188D01*
X67710Y766423D01*
X67246Y764040D01*
X66834Y763418D01*
X64662Y758175D01*
X64662Y753425D01*
X66479Y749038D01*
X69838Y745679D01*
X74225Y743862D01*
X78975Y743862D01*
X83930Y745915D01*
X86158Y746395D01*
X88649Y745971D01*
X90778Y744609D01*
X92207Y742525D01*
X92710Y740048D01*
X92710Y613986D01*
X92456Y612682D01*
X92456Y603526D01*
X97812Y598170D01*
G37*
G36*
X388896Y753110D02*
X396472Y753110D01*
X401828Y758466D01*
X401828Y767841D01*
X401616Y768884D01*
X401616Y775058D01*
X402080Y777441D01*
X402829Y778571D01*
X404918Y783615D01*
X404918Y788465D01*
X403062Y792946D01*
X399632Y796376D01*
X395151Y798232D01*
X390301Y798232D01*
X385820Y796376D01*
X382390Y792946D01*
X380534Y788465D01*
X380534Y783615D01*
X382606Y778614D01*
X383333Y777535D01*
X383836Y775058D01*
X383836Y768968D01*
X383540Y767447D01*
X383540Y758466D01*
X388896Y753110D01*
G37*
G36*
X131680Y760880D02*
X137417Y760880D01*
X136721Y762562D01*
X133362Y765921D01*
X131680Y766617D01*
X131680Y760880D01*
G37*
G36*
X131680Y750720D02*
X131680Y744983D01*
X133362Y745679D01*
X136721Y749038D01*
X137417Y750720D01*
X131680Y750720D01*
G37*
G36*
X54111Y668260D02*
X61089Y668260D01*
X67536Y670930D01*
X72470Y675864D01*
X75140Y682311D01*
X75140Y689289D01*
X72470Y695736D01*
X67536Y700670D01*
X61089Y703340D01*
X54111Y703340D01*
X47664Y700670D01*
X42730Y695736D01*
X40060Y689289D01*
X40060Y682311D01*
X42730Y675864D01*
X47664Y670930D01*
X54111Y668260D01*
G37*
G36*
X102198Y553094D02*
X106590Y553094D01*
X109387Y554253D01*
X111817Y554736D01*
X135066Y554736D01*
X136371Y554482D01*
X145526Y554482D01*
X150882Y559838D01*
X150882Y567414D01*
X145526Y572770D01*
X136317Y572770D01*
X135066Y572516D01*
X114255Y572516D01*
X111872Y572980D01*
X111817Y573016D01*
X111815Y573010D01*
X106590Y575174D01*
X102198Y575174D01*
X98140Y573493D01*
X96184Y571537D01*
X94264Y570220D01*
X91795Y569678D01*
X89311Y570141D01*
X87204Y571537D01*
X85248Y573493D01*
X84074Y573979D01*
X84074Y554289D01*
X85248Y554775D01*
X87204Y556731D01*
X89124Y558048D01*
X91593Y558590D01*
X94077Y558127D01*
X96184Y556731D01*
X98140Y554775D01*
X102198Y553094D01*
G37*
G36*
X72740Y554775D02*
X73914Y554289D01*
X73914Y573979D01*
X72740Y573493D01*
X70784Y571537D01*
X68864Y570220D01*
X66395Y569678D01*
X63911Y570141D01*
X61804Y571537D01*
X59848Y573493D01*
X58674Y573979D01*
X58674Y554289D01*
X59848Y554775D01*
X61804Y556731D01*
X63724Y558048D01*
X66193Y558590D01*
X68677Y558127D01*
X70784Y556731D01*
X72740Y554775D01*
G37*
G36*
X43749Y569214D02*
X48514Y569214D01*
X48514Y573979D01*
X47340Y573493D01*
X44235Y570388D01*
X43749Y569214D01*
G37*
G36*
X47340Y554775D02*
X48514Y554289D01*
X48514Y559054D01*
X43749Y559054D01*
X44235Y557880D01*
X47340Y554775D01*
G37*
G36*
X142619Y453122D02*
X149597Y453122D01*
X156044Y455792D01*
X160978Y460726D01*
X163648Y467173D01*
X163648Y474151D01*
X160978Y480598D01*
X156044Y485532D01*
X149597Y488202D01*
X142619Y488202D01*
X136172Y485532D01*
X131238Y480598D01*
X128568Y474151D01*
X128568Y467173D01*
X131238Y460726D01*
X136172Y455792D01*
X142619Y453122D01*
G37*
G36*
X54619Y453122D02*
X61597Y453122D01*
X68044Y455792D01*
X72978Y460726D01*
X75648Y467173D01*
X75648Y474151D01*
X72978Y480598D01*
X68044Y485532D01*
X61597Y488202D01*
X54619Y488202D01*
X48172Y485532D01*
X43238Y480598D01*
X40568Y474151D01*
X40568Y467173D01*
X43238Y460726D01*
X48172Y455792D01*
X54619Y453122D01*
G37*
G36*
X195348Y346710D02*
X198120Y346710D01*
X198120Y349482D01*
X195348Y346710D01*
G37*
G36*
X208280Y346710D02*
X211052Y346710D01*
X208280Y349482D01*
X208280Y346710D01*
G37*
G36*
X161820Y337566D02*
X164592Y334794D01*
X164592Y337566D01*
X161820Y337566D01*
G37*
G36*
X174752Y337566D02*
X174752Y334794D01*
X177524Y337566D01*
X174752Y337566D01*
G37*
G36*
X208280Y336550D02*
X208280Y333778D01*
X211052Y336550D01*
X208280Y336550D01*
G37*
G36*
X195348Y336550D02*
X198120Y333778D01*
X198120Y336550D01*
X195348Y336550D01*
G37*
G36*
X568739Y202814D02*
X574125Y202814D01*
X579102Y204875D01*
X582911Y208684D01*
X584972Y213661D01*
X584972Y234047D01*
X582911Y239024D01*
X579102Y242833D01*
X574125Y244894D01*
X568739Y244894D01*
X563762Y242833D01*
X559953Y239024D01*
X557892Y234047D01*
X557892Y213661D01*
X559199Y210505D01*
X559678Y208328D01*
X559274Y205833D01*
X558759Y205013D01*
X560981Y205483D01*
X563461Y205000D01*
X568739Y202814D01*
G37*
G36*
X486892Y227934D02*
X495352Y227934D01*
X495352Y242905D01*
X492762Y241833D01*
X488953Y238024D01*
X486892Y233047D01*
X486892Y227934D01*
G37*
G36*
X505512Y227934D02*
X513972Y227934D01*
X513972Y233047D01*
X511911Y238024D01*
X508102Y241833D01*
X505512Y242905D01*
X505512Y227934D01*
G37*
G36*
X53060Y227680D02*
X61520Y227680D01*
X61520Y242651D01*
X58930Y241579D01*
X55121Y237770D01*
X53060Y232793D01*
X53060Y227680D01*
G37*
G36*
X71680Y227680D02*
X80140Y227680D01*
X80140Y232793D01*
X78079Y237770D01*
X74270Y241579D01*
X71680Y242651D01*
X71680Y227680D01*
G37*
G36*
X525239Y177314D02*
X545625Y177314D01*
X550602Y179375D01*
X554411Y183184D01*
X556472Y188161D01*
X556472Y193547D01*
X555165Y196703D01*
X554686Y198880D01*
X555090Y201375D01*
X555605Y202195D01*
X553383Y201725D01*
X550903Y202208D01*
X545625Y204394D01*
X525239Y204394D01*
X521669Y202915D01*
X519492Y202437D01*
X516997Y202841D01*
X514857Y204186D01*
X513411Y206259D01*
X512889Y208731D01*
X513372Y211212D01*
X513972Y212661D01*
X513972Y217774D01*
X505512Y217774D01*
X505512Y202803D01*
X506695Y203293D01*
X508873Y203771D01*
X511367Y203367D01*
X513507Y202022D01*
X514953Y199949D01*
X515475Y197477D01*
X514992Y194996D01*
X514392Y193547D01*
X514392Y188161D01*
X516453Y183184D01*
X520262Y179375D01*
X525239Y177314D01*
G37*
G36*
X492762Y203875D02*
X495352Y202803D01*
X495352Y217774D01*
X486892Y217774D01*
X486892Y212661D01*
X488953Y207684D01*
X492762Y203875D01*
G37*
G36*
X58930Y203621D02*
X61520Y202549D01*
X61520Y217520D01*
X53060Y217520D01*
X53060Y212407D01*
X55121Y207430D01*
X58930Y203621D01*
G37*
G36*
X91407Y177060D02*
X111793Y177060D01*
X116770Y179121D01*
X120579Y182930D01*
X122640Y187907D01*
X122640Y193293D01*
X121333Y196449D01*
X120854Y198626D01*
X121258Y201121D01*
X121773Y201941D01*
X119551Y201471D01*
X117071Y201954D01*
X111793Y204140D01*
X91407Y204140D01*
X87837Y202661D01*
X85660Y202183D01*
X83165Y202587D01*
X81025Y203932D01*
X79579Y206005D01*
X79057Y208477D01*
X79540Y210958D01*
X80140Y212407D01*
X80140Y217520D01*
X71680Y217520D01*
X71680Y202549D01*
X72863Y203039D01*
X75041Y203517D01*
X77535Y203113D01*
X79675Y201768D01*
X81121Y199695D01*
X81643Y197223D01*
X81160Y194742D01*
X80560Y193293D01*
X80560Y187907D01*
X82621Y182930D01*
X86430Y179121D01*
X91407Y177060D01*
G37*
G36*
X422148Y186690D02*
X422148Y183918D01*
X424920Y186690D01*
X422148Y186690D01*
G37*
G36*
X409216Y186690D02*
X411988Y183918D01*
X411988Y186690D01*
X409216Y186690D01*
G37*
G36*
X457221Y181358D02*
X459992Y181358D01*
X459992Y184129D01*
X457221Y181358D01*
G37*
G36*
X470152Y181358D02*
X472924Y181358D01*
X470152Y184129D01*
X470152Y181358D01*
G37*
G36*
X524223Y108408D02*
X544609Y108408D01*
X549586Y110469D01*
X553395Y114278D01*
X555456Y119255D01*
X555456Y124641D01*
X553395Y129618D01*
X549586Y133427D01*
X544609Y135488D01*
X524223Y135488D01*
X519246Y133427D01*
X518517Y132698D01*
X516504Y131341D01*
X514027Y130838D01*
X512991Y130838D01*
X510608Y131302D01*
X508501Y132698D01*
X482786Y158413D01*
X479519Y159766D01*
X478350Y159766D01*
X476711Y160085D01*
X474882Y160411D01*
X472732Y161739D01*
X471270Y163800D01*
X470728Y166269D01*
X471191Y168753D01*
X472587Y170860D01*
X472924Y171198D01*
X457221Y171198D01*
X461634Y166784D01*
X461868Y166742D01*
X464018Y165415D01*
X465481Y163353D01*
X466023Y160885D01*
X465560Y158400D01*
X464164Y156293D01*
X462534Y154664D01*
X462534Y147088D01*
X467890Y141732D01*
X471692Y141732D01*
X474075Y141268D01*
X476182Y139872D01*
X501643Y114411D01*
X504910Y113058D01*
X514027Y113058D01*
X516410Y112594D01*
X518517Y111198D01*
X519246Y110469D01*
X524223Y108408D01*
G37*
G36*
X246148Y146812D02*
X248920Y146812D01*
X248920Y149584D01*
X246148Y146812D01*
G37*
G36*
X259080Y146812D02*
X261852Y146812D01*
X259080Y149584D01*
X259080Y146812D01*
G37*
G36*
X259080Y136652D02*
X259080Y133880D01*
X261852Y136652D01*
X259080Y136652D01*
G37*
G36*
X246148Y136652D02*
X248920Y133880D01*
X248920Y136652D01*
X246148Y136652D01*
G37*
G36*
X567723Y53908D02*
X573109Y53908D01*
X578086Y55969D01*
X581895Y59778D01*
X583956Y64755D01*
X583956Y85141D01*
X581895Y90118D01*
X578086Y93927D01*
X573109Y95988D01*
X567723Y95988D01*
X562746Y93927D01*
X558937Y90118D01*
X556876Y85141D01*
X556876Y64755D01*
X558183Y61599D01*
X558662Y59422D01*
X558258Y56927D01*
X557743Y56107D01*
X559965Y56577D01*
X562445Y56094D01*
X567723Y53908D01*
G37*
G36*
X134907Y53400D02*
X140293Y53400D01*
X145270Y55461D01*
X149079Y59270D01*
X151140Y64247D01*
X151140Y84633D01*
X149079Y89610D01*
X145270Y93419D01*
X140293Y95480D01*
X134907Y95480D01*
X129930Y93419D01*
X126121Y89610D01*
X124060Y84633D01*
X124060Y64247D01*
X125367Y61091D01*
X125846Y58914D01*
X125442Y56419D01*
X124927Y55599D01*
X127149Y56069D01*
X129629Y55586D01*
X134907Y53400D01*
G37*
G36*
X414307Y53400D02*
X419693Y53400D01*
X424670Y55461D01*
X428479Y59270D01*
X430540Y64247D01*
X430540Y84633D01*
X428479Y89610D01*
X424670Y93419D01*
X419693Y95480D01*
X414307Y95480D01*
X409330Y93419D01*
X405521Y89610D01*
X403460Y84633D01*
X403460Y64247D01*
X404767Y61091D01*
X405246Y58914D01*
X404842Y56419D01*
X404327Y55599D01*
X406549Y56069D01*
X409029Y55586D01*
X414307Y53400D01*
G37*
G36*
X485876Y79028D02*
X494336Y79028D01*
X494336Y93999D01*
X491746Y92927D01*
X487937Y89118D01*
X485876Y84141D01*
X485876Y79028D01*
G37*
G36*
X504496Y79028D02*
X512956Y79028D01*
X512956Y84141D01*
X510895Y89118D01*
X507086Y92927D01*
X504496Y93999D01*
X504496Y79028D01*
G37*
G36*
X351080Y78520D02*
X359540Y78520D01*
X359540Y83633D01*
X357479Y88610D01*
X353670Y92419D01*
X351080Y93491D01*
X351080Y78520D01*
G37*
G36*
X332460Y78520D02*
X340920Y78520D01*
X340920Y93491D01*
X338330Y92419D01*
X334521Y88610D01*
X332460Y83633D01*
X332460Y78520D01*
G37*
G36*
X53060Y78520D02*
X61520Y78520D01*
X61520Y93491D01*
X58930Y92419D01*
X55121Y88610D01*
X53060Y83633D01*
X53060Y78520D01*
G37*
G36*
X71680Y78520D02*
X80140Y78520D01*
X80140Y83633D01*
X78079Y88610D01*
X74270Y92419D01*
X71680Y93491D01*
X71680Y78520D01*
G37*
G36*
X491746Y54969D02*
X494336Y53897D01*
X494336Y68868D01*
X485876Y68868D01*
X485876Y63755D01*
X487937Y58778D01*
X491746Y54969D01*
G37*
G36*
X524223Y28408D02*
X544609Y28408D01*
X549586Y30469D01*
X553395Y34278D01*
X555456Y39255D01*
X555456Y44641D01*
X554149Y47797D01*
X553670Y49974D01*
X554074Y52469D01*
X554589Y53289D01*
X552367Y52819D01*
X549887Y53302D01*
X544609Y55488D01*
X524223Y55488D01*
X520653Y54009D01*
X518476Y53531D01*
X515981Y53935D01*
X513841Y55280D01*
X512395Y57353D01*
X511873Y59825D01*
X512356Y62306D01*
X512956Y63755D01*
X512956Y68868D01*
X504496Y68868D01*
X504496Y53897D01*
X505679Y54387D01*
X507857Y54865D01*
X510351Y54461D01*
X512491Y53116D01*
X513937Y51043D01*
X514459Y48571D01*
X513976Y46090D01*
X513376Y44641D01*
X513376Y39255D01*
X515437Y34278D01*
X519246Y30469D01*
X524223Y28408D01*
G37*
G36*
X58930Y54461D02*
X61520Y53389D01*
X61520Y68360D01*
X53060Y68360D01*
X53060Y63247D01*
X55121Y58270D01*
X58930Y54461D01*
G37*
G36*
X370807Y27900D02*
X391193Y27900D01*
X396170Y29961D01*
X399979Y33770D01*
X402040Y38747D01*
X402040Y44133D01*
X400733Y47289D01*
X400254Y49466D01*
X400658Y51961D01*
X401173Y52781D01*
X398951Y52311D01*
X396471Y52794D01*
X391193Y54980D01*
X370807Y54980D01*
X367237Y53501D01*
X365060Y53023D01*
X362565Y53427D01*
X360425Y54772D01*
X358979Y56845D01*
X358457Y59317D01*
X358940Y61798D01*
X359540Y63247D01*
X359540Y68360D01*
X351080Y68360D01*
X351080Y53389D01*
X352263Y53879D01*
X354441Y54357D01*
X356935Y53953D01*
X359075Y52608D01*
X360521Y50535D01*
X361043Y48063D01*
X360560Y45582D01*
X359960Y44133D01*
X359960Y38747D01*
X362021Y33770D01*
X365830Y29961D01*
X370807Y27900D01*
G37*
G36*
X338330Y54461D02*
X340920Y53389D01*
X340920Y68360D01*
X332460Y68360D01*
X332460Y63247D01*
X334521Y58270D01*
X338330Y54461D01*
G37*
G36*
X91407Y27900D02*
X111793Y27900D01*
X116770Y29961D01*
X120579Y33770D01*
X122640Y38747D01*
X122640Y44133D01*
X121333Y47289D01*
X120854Y49466D01*
X121258Y51961D01*
X121773Y52781D01*
X119551Y52311D01*
X117071Y52794D01*
X111793Y54980D01*
X91407Y54980D01*
X87837Y53501D01*
X85660Y53023D01*
X83165Y53427D01*
X81025Y54772D01*
X79579Y56845D01*
X79057Y59317D01*
X79540Y61798D01*
X80140Y63247D01*
X80140Y68360D01*
X71680Y68360D01*
X71680Y53389D01*
X72863Y53879D01*
X75041Y54357D01*
X77535Y53953D01*
X79675Y52608D01*
X81121Y50535D01*
X81643Y48063D01*
X81160Y45582D01*
X80560Y44133D01*
X80560Y38747D01*
X82621Y33770D01*
X86430Y29961D01*
X91407Y27900D01*
G37*
%LPD*%
G36*
X399262Y329179D02*
X396785Y328676D01*
X375467Y328676D01*
X373273Y329067D01*
X371123Y330395D01*
X369661Y332456D01*
X369118Y334925D01*
X369582Y337409D01*
X370977Y339516D01*
X388537Y357075D01*
X389890Y360343D01*
X389890Y409273D01*
X390335Y411609D01*
X391714Y413727D01*
X392620Y414338D01*
X407841Y429558D01*
X409194Y432826D01*
X409194Y516822D01*
X409658Y519205D01*
X409956Y519655D01*
X409956Y527790D01*
X404600Y533146D01*
X396370Y533146D01*
X396363Y533141D01*
X393886Y532638D01*
X378014Y532638D01*
X375819Y533029D01*
X373669Y534357D01*
X372207Y536418D01*
X371664Y538887D01*
X372128Y541371D01*
X373523Y543478D01*
X374014Y543968D01*
X375406Y547329D01*
X375406Y550967D01*
X374014Y554328D01*
X370983Y557358D01*
X369667Y559278D01*
X369124Y561747D01*
X369588Y564231D01*
X370983Y566338D01*
X374014Y569368D01*
X374055Y569468D01*
X345261Y569468D01*
X345302Y569368D01*
X348332Y566338D01*
X349649Y564418D01*
X350191Y561949D01*
X349728Y559465D01*
X348332Y557358D01*
X345302Y554328D01*
X343910Y550967D01*
X343910Y547329D01*
X345302Y543968D01*
X348332Y540938D01*
X349649Y539018D01*
X350191Y536549D01*
X349728Y534065D01*
X348332Y531958D01*
X345302Y528928D01*
X343910Y525567D01*
X343910Y521929D01*
X345302Y518568D01*
X348332Y515538D01*
X349649Y513618D01*
X350191Y511149D01*
X349728Y508665D01*
X348332Y506558D01*
X345302Y503528D01*
X343910Y500167D01*
X343910Y496529D01*
X345302Y493168D01*
X347874Y490596D01*
X351235Y489204D01*
X368680Y489204D01*
X369957Y489458D01*
X376779Y489458D01*
X378971Y489022D01*
X383156Y489022D01*
X384862Y489390D01*
X387353Y488966D01*
X389482Y487604D01*
X390911Y485520D01*
X391414Y483043D01*
X391414Y440907D01*
X390950Y438523D01*
X389554Y436417D01*
X387306Y434168D01*
X385292Y432811D01*
X382815Y432308D01*
X358970Y432308D01*
X356775Y432699D01*
X354625Y434027D01*
X353163Y436088D01*
X352621Y438557D01*
X353084Y441041D01*
X354480Y443148D01*
X354970Y443638D01*
X355011Y443738D01*
X335534Y443738D01*
X335534Y446486D01*
X334247Y445588D01*
X331774Y445066D01*
X330767Y445262D01*
X326349Y445262D01*
X322988Y443870D01*
X320416Y441298D01*
X319024Y437937D01*
X319024Y433700D01*
X319278Y432423D01*
X319278Y425450D01*
X318851Y423161D01*
X317489Y421032D01*
X315405Y419603D01*
X312928Y419100D01*
X302836Y419100D01*
X300641Y419491D01*
X298491Y420819D01*
X297029Y422880D01*
X296487Y425349D01*
X296950Y427833D01*
X298346Y429940D01*
X298836Y430430D01*
X300228Y433791D01*
X300228Y437429D01*
X298836Y440790D01*
X295806Y443820D01*
X294489Y445740D01*
X293947Y448209D01*
X294410Y450693D01*
X295806Y452800D01*
X298836Y455830D01*
X300228Y459191D01*
X300228Y462829D01*
X298836Y466190D01*
X296264Y468762D01*
X292903Y470154D01*
X288666Y470154D01*
X287389Y469900D01*
X262122Y469900D01*
X259833Y470327D01*
X257704Y471689D01*
X256275Y473773D01*
X255772Y476250D01*
X255772Y493426D01*
X256146Y495573D01*
X257456Y497734D01*
X258289Y498334D01*
X257704Y498708D01*
X256275Y500793D01*
X255772Y503270D01*
X255772Y518826D01*
X256146Y520973D01*
X257456Y523134D01*
X258289Y523734D01*
X257704Y524108D01*
X256275Y526193D01*
X255772Y528670D01*
X255772Y544226D01*
X256146Y546373D01*
X257456Y548534D01*
X258289Y549134D01*
X257704Y549508D01*
X256275Y551593D01*
X255772Y554070D01*
X255772Y569626D01*
X256146Y571773D01*
X257456Y573934D01*
X258289Y574534D01*
X257704Y574908D01*
X256275Y576993D01*
X255772Y579470D01*
X255772Y595026D01*
X256146Y597173D01*
X257456Y599334D01*
X258289Y599934D01*
X257704Y600308D01*
X256275Y602393D01*
X255772Y604870D01*
X255772Y620426D01*
X256146Y622573D01*
X257456Y624734D01*
X258289Y625334D01*
X257704Y625708D01*
X256275Y627793D01*
X255772Y630270D01*
X255772Y645826D01*
X256146Y647973D01*
X257456Y650134D01*
X258289Y650734D01*
X257704Y651108D01*
X256275Y653193D01*
X255772Y655670D01*
X255772Y691165D01*
X256236Y693548D01*
X257632Y695655D01*
X269031Y707054D01*
X271044Y708411D01*
X273521Y708914D01*
X339333Y708914D01*
X341527Y708523D01*
X343677Y707195D01*
X345139Y705134D01*
X345682Y702665D01*
X345218Y700181D01*
X344293Y698785D01*
X343755Y697484D01*
X362365Y697484D01*
X361996Y698375D01*
X359757Y700614D01*
X358441Y702534D01*
X357898Y705003D01*
X358362Y707487D01*
X359757Y709594D01*
X360265Y710102D01*
X362279Y711459D01*
X364755Y711962D01*
X377444Y711962D01*
X379733Y711535D01*
X381862Y710173D01*
X383291Y708089D01*
X383794Y705612D01*
X383794Y692726D01*
X383540Y691422D01*
X383540Y682266D01*
X388896Y676910D01*
X396472Y676910D01*
X401828Y682266D01*
X401828Y691475D01*
X401574Y692726D01*
X401574Y705485D01*
X402001Y707774D01*
X403363Y709903D01*
X405447Y711332D01*
X407924Y711835D01*
X477077Y711835D01*
X479272Y711444D01*
X481422Y710116D01*
X482884Y708055D01*
X483427Y705586D01*
X482963Y703102D01*
X481568Y700995D01*
X476308Y695736D01*
X473638Y689289D01*
X473638Y682311D01*
X476308Y675864D01*
X481242Y670930D01*
X487689Y668260D01*
X494667Y668260D01*
X501114Y670930D01*
X506199Y676016D01*
X507110Y677453D01*
X509148Y678948D01*
X511608Y679529D01*
X514099Y679106D01*
X516228Y677744D01*
X517657Y675659D01*
X518160Y673182D01*
X518160Y632528D01*
X517696Y630145D01*
X516300Y628038D01*
X510966Y622704D01*
X509138Y621429D01*
X506678Y620847D01*
X504187Y621271D01*
X502058Y622633D01*
X500629Y624717D01*
X500126Y627194D01*
X500126Y628894D01*
X498773Y632162D01*
X472396Y658539D01*
X469128Y659892D01*
X394883Y659892D01*
X393632Y659638D01*
X369957Y659638D01*
X368680Y659892D01*
X351235Y659892D01*
X347874Y658500D01*
X345302Y655928D01*
X343910Y652567D01*
X343910Y648929D01*
X345302Y645568D01*
X348332Y642538D01*
X349649Y640618D01*
X350191Y638149D01*
X349728Y635665D01*
X348332Y633558D01*
X345302Y630528D01*
X345261Y630428D01*
X374055Y630428D01*
X374014Y630528D01*
X373523Y631018D01*
X372248Y632846D01*
X371667Y635306D01*
X372091Y637797D01*
X373452Y639926D01*
X375537Y641355D01*
X378014Y641858D01*
X393632Y641858D01*
X394936Y641604D01*
X404746Y641604D01*
X404753Y641609D01*
X407230Y642112D01*
X461047Y642112D01*
X463431Y641648D01*
X465538Y640252D01*
X469348Y636442D01*
X470623Y634614D01*
X471204Y632154D01*
X470780Y629663D01*
X469419Y627534D01*
X467334Y626105D01*
X464857Y625602D01*
X464820Y625602D01*
X464820Y621538D01*
X468884Y621538D01*
X468884Y621575D01*
X469275Y623770D01*
X470603Y625920D01*
X472664Y627382D01*
X475133Y627925D01*
X477617Y627461D01*
X479724Y626066D01*
X480486Y625304D01*
X481843Y623290D01*
X482346Y620813D01*
X482346Y598678D01*
X481919Y596389D01*
X480557Y594260D01*
X478473Y592831D01*
X475996Y592328D01*
X433334Y592328D01*
X430066Y590975D01*
X427565Y588474D01*
X426212Y585206D01*
X426212Y388837D01*
X425748Y386453D01*
X424352Y384347D01*
X419818Y379812D01*
X418716Y379069D01*
X412242Y372596D01*
X412242Y365020D01*
X417598Y359664D01*
X425174Y359664D01*
X431685Y366175D01*
X432390Y367240D01*
X440518Y375368D01*
X442346Y376643D01*
X444806Y377224D01*
X447297Y376800D01*
X449426Y375439D01*
X450855Y373354D01*
X451358Y370877D01*
X451358Y346462D01*
X451104Y345158D01*
X451104Y344678D01*
X450677Y342389D01*
X449315Y340260D01*
X447231Y338831D01*
X444754Y338328D01*
X432983Y338328D01*
X431732Y338074D01*
X410728Y338074D01*
X407460Y336721D01*
X401276Y330536D01*
X399262Y329179D01*
G37*
%LPC*%
G36*
X358140Y687324D02*
X358140Y683099D01*
X359031Y683468D01*
X361996Y686433D01*
X362365Y687324D01*
X358140Y687324D01*
G37*
G36*
X347089Y683468D02*
X347980Y683099D01*
X347980Y687324D01*
X343755Y687324D01*
X344124Y686433D01*
X347089Y683468D01*
G37*
G36*
X269061Y655828D02*
X278378Y655828D01*
X278378Y659892D01*
X275035Y659892D01*
X271674Y658500D01*
X269102Y655928D01*
X269061Y655828D01*
G37*
G36*
X288538Y655828D02*
X297855Y655828D01*
X297814Y655928D01*
X295241Y658500D01*
X291881Y659892D01*
X288538Y659892D01*
X288538Y655828D01*
G37*
G36*
X269061Y605028D02*
X297855Y605028D01*
X297814Y605128D01*
X294783Y608158D01*
X293467Y610078D01*
X292924Y612547D01*
X293388Y615031D01*
X294783Y617138D01*
X297814Y620168D01*
X299206Y623529D01*
X299206Y627167D01*
X297814Y630528D01*
X294783Y633558D01*
X293467Y635478D01*
X292924Y637947D01*
X293388Y640431D01*
X294783Y642538D01*
X297814Y645568D01*
X297855Y645668D01*
X269061Y645668D01*
X269102Y645568D01*
X272132Y642538D01*
X273449Y640618D01*
X273991Y638149D01*
X273528Y635665D01*
X272132Y633558D01*
X269102Y630528D01*
X267988Y627840D01*
X266821Y625999D01*
X265950Y625360D01*
X266576Y624952D01*
X267988Y622856D01*
X269102Y620168D01*
X272132Y617138D01*
X273449Y615218D01*
X273991Y612749D01*
X273528Y610265D01*
X272132Y608158D01*
X269102Y605128D01*
X269061Y605028D01*
G37*
G36*
X451888Y621538D02*
X454660Y621538D01*
X454660Y624310D01*
X451888Y621538D01*
G37*
G36*
X345261Y579628D02*
X374055Y579628D01*
X374014Y579728D01*
X370983Y582758D01*
X369667Y584678D01*
X369124Y587147D01*
X369588Y589631D01*
X370983Y591738D01*
X374014Y594768D01*
X375406Y598129D01*
X375406Y601767D01*
X374014Y605128D01*
X370983Y608158D01*
X369667Y610078D01*
X369124Y612547D01*
X369588Y615031D01*
X370983Y617138D01*
X374014Y620168D01*
X374055Y620268D01*
X345261Y620268D01*
X345302Y620168D01*
X348332Y617138D01*
X349649Y615218D01*
X350191Y612749D01*
X349728Y610265D01*
X348332Y608158D01*
X345302Y605128D01*
X343910Y601767D01*
X343910Y598129D01*
X345302Y594768D01*
X348332Y591738D01*
X349649Y589818D01*
X350191Y587349D01*
X349728Y584865D01*
X348332Y582758D01*
X345302Y579728D01*
X345261Y579628D01*
G37*
G36*
X464820Y611378D02*
X464820Y608606D01*
X467592Y611378D01*
X464820Y611378D01*
G37*
G36*
X451888Y611378D02*
X454660Y608606D01*
X454660Y611378D01*
X451888Y611378D01*
G37*
G36*
X392452Y605028D02*
X395224Y605028D01*
X395224Y607800D01*
X392452Y605028D01*
G37*
G36*
X405384Y605028D02*
X408156Y605028D01*
X405384Y607800D01*
X405384Y605028D01*
G37*
G36*
X392960Y579882D02*
X408664Y579882D01*
X405407Y583139D01*
X404090Y585059D01*
X403548Y587528D01*
X404011Y590012D01*
X405407Y592119D01*
X408156Y594868D01*
X392452Y594868D01*
X395709Y591611D01*
X397026Y589691D01*
X397568Y587222D01*
X397105Y584738D01*
X395709Y582631D01*
X392960Y579882D01*
G37*
G36*
X269061Y554228D02*
X297855Y554228D01*
X297814Y554328D01*
X294783Y557358D01*
X293467Y559278D01*
X292924Y561747D01*
X293388Y564231D01*
X294783Y566338D01*
X297814Y569368D01*
X299206Y572729D01*
X299206Y576367D01*
X297814Y579728D01*
X294783Y582758D01*
X293467Y584678D01*
X292924Y587147D01*
X293388Y589631D01*
X294783Y591738D01*
X297814Y594768D01*
X297855Y594868D01*
X269061Y594868D01*
X269102Y594768D01*
X272132Y591738D01*
X273449Y589818D01*
X273991Y587349D01*
X273528Y584865D01*
X272132Y582758D01*
X269102Y579728D01*
X267988Y577040D01*
X266821Y575199D01*
X265950Y574560D01*
X266576Y574152D01*
X267988Y572056D01*
X269102Y569368D01*
X272132Y566338D01*
X273449Y564418D01*
X273991Y561949D01*
X273528Y559465D01*
X272132Y557358D01*
X269102Y554328D01*
X269061Y554228D01*
G37*
G36*
X392960Y569722D02*
X395732Y566950D01*
X395732Y569722D01*
X392960Y569722D01*
G37*
G36*
X405892Y569722D02*
X405892Y566950D01*
X408664Y569722D01*
X405892Y569722D01*
G37*
G36*
X269061Y503428D02*
X297855Y503428D01*
X297814Y503528D01*
X294783Y506558D01*
X293467Y508478D01*
X292924Y510947D01*
X293388Y513431D01*
X294783Y515538D01*
X297814Y518568D01*
X299206Y521929D01*
X299206Y525567D01*
X297814Y528928D01*
X294783Y531958D01*
X293467Y533878D01*
X292924Y536347D01*
X293388Y538831D01*
X294783Y540938D01*
X297814Y543968D01*
X297855Y544068D01*
X269061Y544068D01*
X269102Y543968D01*
X272132Y540938D01*
X273449Y539018D01*
X273991Y536549D01*
X273528Y534065D01*
X272132Y531958D01*
X269102Y528928D01*
X267988Y526240D01*
X266821Y524399D01*
X265950Y523760D01*
X266576Y523352D01*
X267988Y521256D01*
X269102Y518568D01*
X272132Y515538D01*
X273449Y513618D01*
X273991Y511149D01*
X273528Y508665D01*
X272132Y506558D01*
X269102Y503528D01*
X269061Y503428D01*
G37*
G36*
X275035Y489204D02*
X278378Y489204D01*
X278378Y493268D01*
X269061Y493268D01*
X269102Y493168D01*
X271674Y490596D01*
X275035Y489204D01*
G37*
G36*
X288538Y489204D02*
X291881Y489204D01*
X295241Y490596D01*
X297814Y493168D01*
X297855Y493268D01*
X288538Y493268D01*
X288538Y489204D01*
G37*
G36*
X352298Y453898D02*
X355011Y453898D01*
X354970Y453998D01*
X352398Y456570D01*
X352298Y456611D01*
X352298Y453898D01*
G37*
G36*
X339425Y453898D02*
X342138Y453898D01*
X342138Y456611D01*
X342038Y456570D01*
X339466Y453998D01*
X339425Y453898D01*
G37*
%LPD*%
D10*
X212259Y888252D02*
X205486Y867932D01*
X198713Y888252D01*
X185803Y867932D02*
X181287Y867932D01*
X185803Y867932D02*
X185934Y867934D01*
X186066Y867940D01*
X186197Y867949D01*
X186327Y867963D01*
X186458Y867980D01*
X186587Y868001D01*
X186716Y868025D01*
X186844Y868054D01*
X186972Y868086D01*
X187098Y868122D01*
X187223Y868161D01*
X187348Y868204D01*
X187470Y868251D01*
X187592Y868301D01*
X187712Y868355D01*
X187830Y868412D01*
X187946Y868473D01*
X188061Y868537D01*
X188174Y868604D01*
X188285Y868675D01*
X188393Y868749D01*
X188500Y868826D01*
X188604Y868906D01*
X188706Y868989D01*
X188805Y869074D01*
X188902Y869163D01*
X188996Y869255D01*
X189088Y869349D01*
X189177Y869446D01*
X189262Y869545D01*
X189345Y869647D01*
X189425Y869751D01*
X189502Y869858D01*
X189576Y869966D01*
X189647Y870077D01*
X189714Y870190D01*
X189778Y870305D01*
X189839Y870421D01*
X189896Y870539D01*
X189950Y870659D01*
X190000Y870781D01*
X190047Y870903D01*
X190090Y871028D01*
X190129Y871153D01*
X190165Y871279D01*
X190197Y871407D01*
X190226Y871535D01*
X190250Y871664D01*
X190271Y871794D01*
X190288Y871924D01*
X190302Y872054D01*
X190311Y872185D01*
X190317Y872317D01*
X190319Y872448D01*
X190318Y872448D02*
X190318Y883736D01*
X190319Y883736D02*
X190317Y883870D01*
X190311Y884004D01*
X190301Y884137D01*
X190287Y884270D01*
X190270Y884403D01*
X190248Y884535D01*
X190222Y884666D01*
X190193Y884797D01*
X190159Y884926D01*
X190122Y885055D01*
X190081Y885182D01*
X190036Y885308D01*
X189988Y885433D01*
X189936Y885556D01*
X189880Y885678D01*
X189821Y885798D01*
X189758Y885916D01*
X189691Y886033D01*
X189622Y886147D01*
X189549Y886259D01*
X189472Y886369D01*
X189393Y886476D01*
X189310Y886581D01*
X189224Y886684D01*
X189135Y886784D01*
X189043Y886882D01*
X188949Y886976D01*
X188851Y887068D01*
X188751Y887157D01*
X188649Y887243D01*
X188543Y887326D01*
X188436Y887405D01*
X188326Y887482D01*
X188214Y887555D01*
X188100Y887624D01*
X187983Y887691D01*
X187865Y887754D01*
X187745Y887813D01*
X187624Y887869D01*
X187500Y887921D01*
X187376Y887969D01*
X187249Y888014D01*
X187122Y888055D01*
X186993Y888092D01*
X186864Y888126D01*
X186733Y888155D01*
X186602Y888181D01*
X186470Y888202D01*
X186337Y888220D01*
X186204Y888234D01*
X186071Y888244D01*
X185937Y888250D01*
X185803Y888252D01*
X181287Y888252D01*
X172853Y882608D02*
X172853Y873576D01*
X172852Y882608D02*
X172850Y882757D01*
X172844Y882906D01*
X172834Y883055D01*
X172821Y883203D01*
X172803Y883351D01*
X172781Y883498D01*
X172756Y883645D01*
X172727Y883791D01*
X172693Y883936D01*
X172656Y884081D01*
X172616Y884224D01*
X172571Y884366D01*
X172523Y884507D01*
X172471Y884647D01*
X172415Y884785D01*
X172356Y884922D01*
X172293Y885057D01*
X172227Y885190D01*
X172157Y885322D01*
X172083Y885451D01*
X172007Y885579D01*
X171927Y885705D01*
X171843Y885828D01*
X171757Y885950D01*
X171667Y886068D01*
X171574Y886185D01*
X171478Y886299D01*
X171379Y886410D01*
X171277Y886519D01*
X171172Y886625D01*
X171065Y886728D01*
X170955Y886829D01*
X170842Y886926D01*
X170727Y887021D01*
X170609Y887112D01*
X170489Y887200D01*
X170367Y887285D01*
X170242Y887367D01*
X170116Y887445D01*
X169987Y887520D01*
X169856Y887592D01*
X169724Y887660D01*
X169590Y887725D01*
X169454Y887786D01*
X169316Y887844D01*
X169177Y887897D01*
X169037Y887947D01*
X168895Y887994D01*
X168753Y888037D01*
X168609Y888075D01*
X168464Y888110D01*
X168318Y888142D01*
X168172Y888169D01*
X168025Y888193D01*
X167877Y888212D01*
X167729Y888228D01*
X167580Y888240D01*
X167431Y888248D01*
X167282Y888252D01*
X167134Y888252D01*
X166985Y888248D01*
X166836Y888240D01*
X166687Y888228D01*
X166539Y888212D01*
X166391Y888193D01*
X166244Y888169D01*
X166098Y888142D01*
X165952Y888110D01*
X165807Y888075D01*
X165663Y888037D01*
X165521Y887994D01*
X165379Y887947D01*
X165239Y887897D01*
X165100Y887844D01*
X164962Y887786D01*
X164826Y887725D01*
X164692Y887660D01*
X164560Y887592D01*
X164429Y887520D01*
X164300Y887445D01*
X164174Y887367D01*
X164049Y887285D01*
X163927Y887200D01*
X163807Y887112D01*
X163689Y887021D01*
X163574Y886926D01*
X163461Y886829D01*
X163351Y886728D01*
X163244Y886625D01*
X163139Y886519D01*
X163037Y886410D01*
X162938Y886299D01*
X162842Y886185D01*
X162749Y886068D01*
X162659Y885950D01*
X162573Y885828D01*
X162489Y885705D01*
X162409Y885579D01*
X162333Y885451D01*
X162259Y885322D01*
X162189Y885190D01*
X162123Y885057D01*
X162060Y884922D01*
X162001Y884785D01*
X161945Y884647D01*
X161893Y884507D01*
X161845Y884366D01*
X161800Y884224D01*
X161760Y884081D01*
X161723Y883936D01*
X161689Y883791D01*
X161660Y883645D01*
X161635Y883498D01*
X161613Y883351D01*
X161595Y883203D01*
X161582Y883055D01*
X161572Y882906D01*
X161566Y882757D01*
X161564Y882608D01*
X161564Y873576D01*
X161566Y873427D01*
X161572Y873278D01*
X161582Y873129D01*
X161595Y872981D01*
X161613Y872833D01*
X161635Y872686D01*
X161660Y872539D01*
X161689Y872393D01*
X161723Y872248D01*
X161760Y872103D01*
X161800Y871960D01*
X161845Y871818D01*
X161893Y871677D01*
X161945Y871537D01*
X162001Y871399D01*
X162060Y871262D01*
X162123Y871127D01*
X162189Y870994D01*
X162259Y870862D01*
X162333Y870733D01*
X162409Y870605D01*
X162489Y870479D01*
X162573Y870356D01*
X162659Y870234D01*
X162749Y870116D01*
X162842Y869999D01*
X162938Y869885D01*
X163037Y869774D01*
X163139Y869665D01*
X163244Y869559D01*
X163351Y869456D01*
X163461Y869355D01*
X163574Y869258D01*
X163689Y869163D01*
X163807Y869072D01*
X163927Y868984D01*
X164049Y868899D01*
X164174Y868817D01*
X164300Y868739D01*
X164429Y868664D01*
X164560Y868592D01*
X164692Y868524D01*
X164826Y868459D01*
X164962Y868398D01*
X165100Y868340D01*
X165239Y868287D01*
X165379Y868237D01*
X165521Y868190D01*
X165663Y868147D01*
X165807Y868109D01*
X165952Y868074D01*
X166098Y868042D01*
X166244Y868015D01*
X166391Y867991D01*
X166539Y867972D01*
X166687Y867956D01*
X166836Y867944D01*
X166985Y867936D01*
X167134Y867932D01*
X167282Y867932D01*
X167431Y867936D01*
X167580Y867944D01*
X167729Y867956D01*
X167877Y867972D01*
X168025Y867991D01*
X168172Y868015D01*
X168318Y868042D01*
X168464Y868074D01*
X168609Y868109D01*
X168753Y868147D01*
X168895Y868190D01*
X169037Y868237D01*
X169177Y868287D01*
X169316Y868340D01*
X169454Y868398D01*
X169590Y868459D01*
X169724Y868524D01*
X169856Y868592D01*
X169987Y868664D01*
X170116Y868739D01*
X170242Y868817D01*
X170367Y868899D01*
X170489Y868984D01*
X170609Y869072D01*
X170727Y869163D01*
X170842Y869258D01*
X170955Y869355D01*
X171065Y869456D01*
X171172Y869559D01*
X171277Y869665D01*
X171379Y869774D01*
X171478Y869885D01*
X171574Y869999D01*
X171667Y870116D01*
X171757Y870234D01*
X171843Y870356D01*
X171927Y870479D01*
X172007Y870605D01*
X172083Y870733D01*
X172157Y870862D01*
X172227Y870994D01*
X172293Y871127D01*
X172356Y871262D01*
X172415Y871399D01*
X172471Y871537D01*
X172523Y871677D01*
X172571Y871818D01*
X172616Y871960D01*
X172656Y872103D01*
X172693Y872248D01*
X172727Y872393D01*
X172756Y872539D01*
X172781Y872686D01*
X172803Y872833D01*
X172821Y872981D01*
X172834Y873129D01*
X172844Y873278D01*
X172850Y873427D01*
X172852Y873576D01*
X141968Y888252D02*
X135194Y867932D01*
X128421Y888252D01*
X116836Y867932D02*
X111192Y867932D01*
X116836Y867932D02*
X116952Y867934D01*
X117067Y867940D01*
X117182Y867950D01*
X117297Y867964D01*
X117411Y867981D01*
X117525Y868003D01*
X117638Y868028D01*
X117750Y868058D01*
X117861Y868091D01*
X117970Y868128D01*
X118079Y868168D01*
X118185Y868212D01*
X118291Y868260D01*
X118394Y868312D01*
X118496Y868367D01*
X118596Y868425D01*
X118694Y868487D01*
X118789Y868552D01*
X118883Y868620D01*
X118974Y868692D01*
X119062Y868766D01*
X119148Y868844D01*
X119231Y868924D01*
X119311Y869007D01*
X119389Y869093D01*
X119463Y869182D01*
X119535Y869272D01*
X119603Y869366D01*
X119668Y869461D01*
X119730Y869559D01*
X119788Y869659D01*
X119843Y869761D01*
X119895Y869864D01*
X119943Y869970D01*
X119987Y870076D01*
X120027Y870185D01*
X120064Y870294D01*
X120097Y870405D01*
X120127Y870517D01*
X120152Y870630D01*
X120174Y870744D01*
X120191Y870858D01*
X120205Y870973D01*
X120215Y871088D01*
X120221Y871203D01*
X120223Y871319D01*
X120223Y876963D01*
X120221Y877096D01*
X120215Y877228D01*
X120205Y877360D01*
X120192Y877492D01*
X120174Y877624D01*
X120153Y877754D01*
X120128Y877885D01*
X120099Y878014D01*
X120066Y878142D01*
X120030Y878270D01*
X119990Y878396D01*
X119946Y878521D01*
X119898Y878645D01*
X119847Y878767D01*
X119792Y878888D01*
X119734Y879007D01*
X119672Y879125D01*
X119607Y879240D01*
X119538Y879354D01*
X119467Y879465D01*
X119391Y879574D01*
X119313Y879681D01*
X119232Y879786D01*
X119147Y879888D01*
X119060Y879988D01*
X118970Y880085D01*
X118877Y880180D01*
X118781Y880271D01*
X118683Y880360D01*
X118582Y880446D01*
X118478Y880529D01*
X118372Y880609D01*
X118264Y880685D01*
X118154Y880759D01*
X118041Y880829D01*
X117927Y880896D01*
X117810Y880959D01*
X117692Y881019D01*
X117572Y881076D01*
X117450Y881129D01*
X117327Y881178D01*
X117203Y881224D01*
X117077Y881266D01*
X116950Y881304D01*
X116822Y881339D01*
X116693Y881370D01*
X116564Y881397D01*
X116433Y881420D01*
X116302Y881440D01*
X116170Y881455D01*
X116038Y881467D01*
X115906Y881475D01*
X115773Y881479D01*
X115641Y881479D01*
X115508Y881475D01*
X115376Y881467D01*
X115244Y881455D01*
X115112Y881440D01*
X114981Y881420D01*
X114850Y881397D01*
X114721Y881370D01*
X114592Y881339D01*
X114464Y881304D01*
X114337Y881266D01*
X114211Y881224D01*
X114087Y881178D01*
X113964Y881129D01*
X113842Y881076D01*
X113722Y881019D01*
X113604Y880959D01*
X113487Y880896D01*
X113373Y880829D01*
X113260Y880759D01*
X113150Y880685D01*
X113042Y880609D01*
X112936Y880529D01*
X112832Y880446D01*
X112731Y880360D01*
X112633Y880271D01*
X112537Y880180D01*
X112444Y880085D01*
X112354Y879988D01*
X112267Y879888D01*
X112182Y879786D01*
X112101Y879681D01*
X112023Y879574D01*
X111947Y879465D01*
X111876Y879354D01*
X111807Y879240D01*
X111742Y879125D01*
X111680Y879007D01*
X111622Y878888D01*
X111567Y878767D01*
X111516Y878645D01*
X111468Y878521D01*
X111424Y878396D01*
X111384Y878270D01*
X111348Y878142D01*
X111315Y878014D01*
X111286Y877885D01*
X111261Y877754D01*
X111240Y877624D01*
X111222Y877492D01*
X111209Y877360D01*
X111199Y877228D01*
X111193Y877096D01*
X111191Y876963D01*
X111192Y876963D02*
X111192Y874705D01*
X120223Y874705D01*
X101253Y867932D02*
X101253Y881479D01*
X94479Y881479D01*
X94479Y879221D01*
X85820Y875834D02*
X80175Y873576D01*
X85820Y875834D02*
X85919Y875876D01*
X86015Y875921D01*
X86111Y875969D01*
X86204Y876022D01*
X86295Y876077D01*
X86385Y876136D01*
X86472Y876198D01*
X86557Y876263D01*
X86639Y876331D01*
X86719Y876402D01*
X86796Y876476D01*
X86871Y876552D01*
X86942Y876632D01*
X87011Y876714D01*
X87076Y876798D01*
X87139Y876885D01*
X87198Y876974D01*
X87254Y877065D01*
X87307Y877158D01*
X87356Y877253D01*
X87402Y877349D01*
X87444Y877448D01*
X87482Y877547D01*
X87517Y877648D01*
X87548Y877751D01*
X87576Y877854D01*
X87599Y877958D01*
X87619Y878063D01*
X87635Y878169D01*
X87647Y878275D01*
X87655Y878382D01*
X87659Y878488D01*
X87660Y878595D01*
X87656Y878702D01*
X87649Y878809D01*
X87637Y878915D01*
X87622Y879021D01*
X87603Y879126D01*
X87580Y879230D01*
X87554Y879334D01*
X87523Y879436D01*
X87489Y879538D01*
X87451Y879638D01*
X87410Y879736D01*
X87365Y879833D01*
X87316Y879928D01*
X87264Y880022D01*
X87209Y880113D01*
X87150Y880203D01*
X87088Y880290D01*
X87023Y880375D01*
X86955Y880457D01*
X86884Y880537D01*
X86810Y880614D01*
X86734Y880688D01*
X86654Y880760D01*
X86572Y880829D01*
X86488Y880894D01*
X86401Y880957D01*
X86312Y881016D01*
X86221Y881072D01*
X86128Y881125D01*
X86034Y881174D01*
X85937Y881220D01*
X85839Y881262D01*
X85739Y881301D01*
X85638Y881336D01*
X85536Y881367D01*
X85433Y881394D01*
X85328Y881418D01*
X85223Y881438D01*
X85118Y881454D01*
X85011Y881466D01*
X84905Y881474D01*
X84798Y881478D01*
X84691Y881479D01*
X84383Y881471D01*
X84075Y881455D01*
X83767Y881432D01*
X83461Y881402D01*
X83155Y881364D01*
X82850Y881319D01*
X82546Y881267D01*
X82244Y881207D01*
X81943Y881140D01*
X81643Y881066D01*
X81346Y880985D01*
X81051Y880897D01*
X80758Y880801D01*
X80467Y880699D01*
X80179Y880589D01*
X79893Y880473D01*
X79611Y880350D01*
X80175Y873577D02*
X80076Y873535D01*
X79980Y873490D01*
X79884Y873442D01*
X79791Y873389D01*
X79700Y873334D01*
X79610Y873275D01*
X79523Y873213D01*
X79438Y873148D01*
X79356Y873080D01*
X79276Y873009D01*
X79199Y872935D01*
X79124Y872859D01*
X79053Y872779D01*
X78984Y872697D01*
X78919Y872613D01*
X78856Y872526D01*
X78797Y872437D01*
X78741Y872346D01*
X78688Y872253D01*
X78639Y872158D01*
X78593Y872062D01*
X78551Y871963D01*
X78513Y871864D01*
X78478Y871763D01*
X78447Y871660D01*
X78419Y871557D01*
X78396Y871453D01*
X78376Y871348D01*
X78360Y871242D01*
X78348Y871136D01*
X78340Y871029D01*
X78336Y870923D01*
X78335Y870816D01*
X78339Y870709D01*
X78346Y870602D01*
X78358Y870496D01*
X78373Y870390D01*
X78392Y870285D01*
X78415Y870181D01*
X78441Y870077D01*
X78472Y869975D01*
X78506Y869873D01*
X78544Y869773D01*
X78585Y869675D01*
X78630Y869578D01*
X78679Y869483D01*
X78731Y869389D01*
X78786Y869298D01*
X78845Y869208D01*
X78907Y869121D01*
X78972Y869036D01*
X79040Y868954D01*
X79111Y868874D01*
X79185Y868797D01*
X79261Y868723D01*
X79341Y868651D01*
X79423Y868582D01*
X79507Y868517D01*
X79594Y868454D01*
X79683Y868395D01*
X79774Y868339D01*
X79867Y868286D01*
X79961Y868237D01*
X80058Y868191D01*
X80156Y868149D01*
X80256Y868110D01*
X80357Y868075D01*
X80459Y868044D01*
X80562Y868017D01*
X80667Y867993D01*
X80772Y867973D01*
X80877Y867957D01*
X80984Y867945D01*
X81090Y867937D01*
X81197Y867933D01*
X81304Y867932D01*
X81756Y867944D01*
X82209Y867966D01*
X82660Y868000D01*
X83111Y868043D01*
X83560Y868098D01*
X84008Y868163D01*
X84455Y868239D01*
X84899Y868325D01*
X85342Y868422D01*
X85782Y868529D01*
X86219Y868647D01*
X86653Y868774D01*
X87085Y868913D01*
X87512Y869061D01*
X70339Y869061D02*
X70339Y867932D01*
X70339Y869061D02*
X69210Y869061D01*
X69210Y867932D01*
X70339Y867932D01*
X43459Y888252D02*
X43319Y888250D01*
X43179Y888244D01*
X43039Y888235D01*
X42900Y888221D01*
X42761Y888204D01*
X42623Y888183D01*
X42485Y888158D01*
X42348Y888129D01*
X42212Y888097D01*
X42077Y888060D01*
X41943Y888020D01*
X41810Y887977D01*
X41678Y887929D01*
X41547Y887879D01*
X41418Y887824D01*
X41291Y887766D01*
X41165Y887705D01*
X41041Y887640D01*
X40919Y887571D01*
X40799Y887500D01*
X40681Y887425D01*
X40564Y887347D01*
X40450Y887265D01*
X40339Y887181D01*
X40230Y887093D01*
X40123Y887003D01*
X40018Y886909D01*
X39917Y886813D01*
X39818Y886714D01*
X39722Y886613D01*
X39628Y886508D01*
X39538Y886401D01*
X39450Y886292D01*
X39366Y886181D01*
X39284Y886067D01*
X39206Y885950D01*
X39131Y885832D01*
X39060Y885712D01*
X38991Y885590D01*
X38926Y885466D01*
X38865Y885340D01*
X38807Y885213D01*
X38752Y885084D01*
X38702Y884953D01*
X38654Y884821D01*
X38611Y884688D01*
X38571Y884554D01*
X38534Y884419D01*
X38502Y884283D01*
X38473Y884146D01*
X38448Y884008D01*
X38427Y883870D01*
X38410Y883731D01*
X38396Y883592D01*
X38387Y883452D01*
X38381Y883312D01*
X38379Y883172D01*
X43459Y888252D02*
X43620Y888250D01*
X43781Y888244D01*
X43941Y888234D01*
X44102Y888220D01*
X44262Y888202D01*
X44421Y888181D01*
X44580Y888155D01*
X44738Y888125D01*
X44895Y888092D01*
X45052Y888055D01*
X45208Y888013D01*
X45362Y887968D01*
X45515Y887920D01*
X45667Y887867D01*
X45818Y887811D01*
X45967Y887751D01*
X46115Y887687D01*
X46261Y887620D01*
X46406Y887549D01*
X46549Y887474D01*
X46689Y887396D01*
X46828Y887315D01*
X46965Y887230D01*
X47100Y887142D01*
X47232Y887051D01*
X47362Y886956D01*
X47490Y886858D01*
X47615Y886757D01*
X47738Y886653D01*
X47858Y886546D01*
X47976Y886436D01*
X48091Y886324D01*
X48202Y886208D01*
X48312Y886090D01*
X48418Y885969D01*
X48521Y885845D01*
X48621Y885719D01*
X48718Y885591D01*
X48811Y885460D01*
X48902Y885327D01*
X48989Y885191D01*
X49073Y885054D01*
X49153Y884915D01*
X49230Y884773D01*
X49303Y884630D01*
X49373Y884485D01*
X49439Y884338D01*
X49502Y884190D01*
X49561Y884040D01*
X49616Y883889D01*
X49668Y883737D01*
X40073Y879221D02*
X39971Y879321D01*
X39872Y879423D01*
X39776Y879528D01*
X39682Y879635D01*
X39591Y879745D01*
X39503Y879857D01*
X39418Y879971D01*
X39335Y880088D01*
X39256Y880206D01*
X39181Y880327D01*
X39108Y880449D01*
X39038Y880574D01*
X38972Y880700D01*
X38909Y880828D01*
X38850Y880957D01*
X38794Y881088D01*
X38741Y881221D01*
X38692Y881355D01*
X38646Y881490D01*
X38604Y881626D01*
X38565Y881763D01*
X38530Y881901D01*
X38499Y882040D01*
X38471Y882180D01*
X38447Y882320D01*
X38426Y882461D01*
X38410Y882603D01*
X38397Y882745D01*
X38387Y882887D01*
X38382Y883029D01*
X38380Y883172D01*
X40073Y879221D02*
X49668Y867932D01*
X38379Y867932D01*
X214983Y914499D02*
X221756Y934819D01*
X208210Y934819D02*
X214983Y914499D01*
X200368Y914499D02*
X200368Y928045D01*
X200932Y933690D02*
X200932Y934819D01*
X199803Y934819D01*
X199803Y933690D01*
X200932Y933690D01*
X190633Y934819D02*
X190633Y914499D01*
X190633Y921272D02*
X181602Y928045D01*
X186682Y924094D02*
X181602Y914499D01*
X175456Y928045D02*
X168682Y928045D01*
X173198Y934819D02*
X173198Y917885D01*
X173196Y917769D01*
X173190Y917654D01*
X173180Y917539D01*
X173166Y917424D01*
X173149Y917310D01*
X173127Y917196D01*
X173102Y917083D01*
X173072Y916971D01*
X173039Y916860D01*
X173002Y916751D01*
X172962Y916642D01*
X172918Y916536D01*
X172870Y916430D01*
X172818Y916327D01*
X172763Y916225D01*
X172705Y916125D01*
X172643Y916027D01*
X172578Y915932D01*
X172510Y915838D01*
X172438Y915747D01*
X172364Y915659D01*
X172286Y915573D01*
X172206Y915490D01*
X172123Y915410D01*
X172037Y915332D01*
X171948Y915258D01*
X171858Y915186D01*
X171764Y915118D01*
X171669Y915053D01*
X171571Y914991D01*
X171471Y914933D01*
X171369Y914878D01*
X171266Y914826D01*
X171160Y914778D01*
X171054Y914734D01*
X170945Y914694D01*
X170836Y914657D01*
X170725Y914624D01*
X170613Y914594D01*
X170500Y914569D01*
X170386Y914547D01*
X170272Y914530D01*
X170157Y914516D01*
X170042Y914506D01*
X169927Y914500D01*
X169811Y914498D01*
X169811Y914499D02*
X168682Y914499D01*
X160342Y919014D02*
X160342Y923530D01*
X160340Y923663D01*
X160334Y923795D01*
X160324Y923927D01*
X160311Y924059D01*
X160293Y924191D01*
X160272Y924321D01*
X160247Y924452D01*
X160218Y924581D01*
X160185Y924709D01*
X160149Y924837D01*
X160109Y924963D01*
X160065Y925088D01*
X160017Y925212D01*
X159966Y925334D01*
X159911Y925455D01*
X159853Y925574D01*
X159791Y925692D01*
X159726Y925807D01*
X159657Y925921D01*
X159586Y926032D01*
X159510Y926141D01*
X159432Y926248D01*
X159351Y926353D01*
X159266Y926455D01*
X159179Y926555D01*
X159089Y926652D01*
X158996Y926747D01*
X158900Y926838D01*
X158802Y926927D01*
X158701Y927013D01*
X158597Y927096D01*
X158491Y927176D01*
X158383Y927252D01*
X158273Y927326D01*
X158160Y927396D01*
X158046Y927463D01*
X157929Y927526D01*
X157811Y927586D01*
X157691Y927643D01*
X157569Y927696D01*
X157446Y927745D01*
X157322Y927791D01*
X157196Y927833D01*
X157069Y927871D01*
X156941Y927906D01*
X156812Y927937D01*
X156683Y927964D01*
X156552Y927987D01*
X156421Y928007D01*
X156289Y928022D01*
X156157Y928034D01*
X156025Y928042D01*
X155892Y928046D01*
X155760Y928046D01*
X155627Y928042D01*
X155495Y928034D01*
X155363Y928022D01*
X155231Y928007D01*
X155100Y927987D01*
X154969Y927964D01*
X154840Y927937D01*
X154711Y927906D01*
X154583Y927871D01*
X154456Y927833D01*
X154330Y927791D01*
X154206Y927745D01*
X154083Y927696D01*
X153961Y927643D01*
X153841Y927586D01*
X153723Y927526D01*
X153606Y927463D01*
X153492Y927396D01*
X153379Y927326D01*
X153269Y927252D01*
X153161Y927176D01*
X153055Y927096D01*
X152951Y927013D01*
X152850Y926927D01*
X152752Y926838D01*
X152656Y926747D01*
X152563Y926652D01*
X152473Y926555D01*
X152386Y926455D01*
X152301Y926353D01*
X152220Y926248D01*
X152142Y926141D01*
X152066Y926032D01*
X151995Y925921D01*
X151926Y925807D01*
X151861Y925692D01*
X151799Y925574D01*
X151741Y925455D01*
X151686Y925334D01*
X151635Y925212D01*
X151587Y925088D01*
X151543Y924963D01*
X151503Y924837D01*
X151467Y924709D01*
X151434Y924581D01*
X151405Y924452D01*
X151380Y924321D01*
X151359Y924191D01*
X151341Y924059D01*
X151328Y923927D01*
X151318Y923795D01*
X151312Y923663D01*
X151310Y923530D01*
X151311Y923530D02*
X151311Y919014D01*
X151310Y919014D02*
X151312Y918881D01*
X151318Y918749D01*
X151328Y918617D01*
X151341Y918485D01*
X151359Y918353D01*
X151380Y918223D01*
X151405Y918092D01*
X151434Y917963D01*
X151467Y917835D01*
X151503Y917707D01*
X151543Y917581D01*
X151587Y917456D01*
X151635Y917332D01*
X151686Y917210D01*
X151741Y917089D01*
X151799Y916970D01*
X151861Y916852D01*
X151926Y916737D01*
X151995Y916623D01*
X152066Y916512D01*
X152142Y916403D01*
X152220Y916296D01*
X152301Y916191D01*
X152386Y916089D01*
X152473Y915989D01*
X152563Y915892D01*
X152656Y915797D01*
X152752Y915706D01*
X152850Y915617D01*
X152951Y915531D01*
X153055Y915448D01*
X153161Y915368D01*
X153269Y915292D01*
X153379Y915218D01*
X153492Y915148D01*
X153606Y915081D01*
X153723Y915018D01*
X153841Y914958D01*
X153961Y914901D01*
X154083Y914848D01*
X154206Y914799D01*
X154330Y914753D01*
X154456Y914711D01*
X154583Y914673D01*
X154711Y914638D01*
X154840Y914607D01*
X154969Y914580D01*
X155100Y914557D01*
X155231Y914537D01*
X155363Y914522D01*
X155495Y914510D01*
X155627Y914502D01*
X155760Y914498D01*
X155892Y914498D01*
X156025Y914502D01*
X156157Y914510D01*
X156289Y914522D01*
X156421Y914537D01*
X156552Y914557D01*
X156683Y914580D01*
X156812Y914607D01*
X156941Y914638D01*
X157069Y914673D01*
X157196Y914711D01*
X157322Y914753D01*
X157446Y914799D01*
X157569Y914848D01*
X157691Y914901D01*
X157811Y914958D01*
X157929Y915018D01*
X158046Y915081D01*
X158160Y915148D01*
X158273Y915218D01*
X158383Y915292D01*
X158491Y915368D01*
X158597Y915448D01*
X158701Y915531D01*
X158802Y915617D01*
X158900Y915706D01*
X158996Y915797D01*
X159089Y915892D01*
X159179Y915989D01*
X159266Y916089D01*
X159351Y916191D01*
X159432Y916296D01*
X159510Y916403D01*
X159586Y916512D01*
X159657Y916623D01*
X159726Y916737D01*
X159791Y916852D01*
X159853Y916970D01*
X159911Y917089D01*
X159966Y917210D01*
X160017Y917332D01*
X160065Y917456D01*
X160109Y917581D01*
X160149Y917707D01*
X160185Y917835D01*
X160218Y917963D01*
X160247Y918092D01*
X160272Y918223D01*
X160293Y918353D01*
X160311Y918485D01*
X160324Y918617D01*
X160334Y918749D01*
X160340Y918881D01*
X160342Y919014D01*
X141372Y914499D02*
X141372Y928045D01*
X134598Y928045D01*
X134598Y925788D01*
X115538Y934819D02*
X115538Y914499D01*
X115538Y934819D02*
X109893Y934819D01*
X109893Y934818D02*
X109745Y934816D01*
X109598Y934810D01*
X109450Y934801D01*
X109303Y934787D01*
X109156Y934770D01*
X109010Y934749D01*
X108864Y934723D01*
X108720Y934695D01*
X108575Y934662D01*
X108432Y934626D01*
X108290Y934586D01*
X108149Y934542D01*
X108009Y934494D01*
X107870Y934443D01*
X107733Y934388D01*
X107597Y934330D01*
X107463Y934268D01*
X107331Y934203D01*
X107200Y934134D01*
X107071Y934062D01*
X106944Y933986D01*
X106819Y933907D01*
X106696Y933825D01*
X106576Y933740D01*
X106457Y933652D01*
X106341Y933560D01*
X106228Y933466D01*
X106116Y933368D01*
X106008Y933268D01*
X105902Y933165D01*
X105799Y933059D01*
X105699Y932951D01*
X105601Y932839D01*
X105507Y932726D01*
X105415Y932610D01*
X105327Y932491D01*
X105242Y932371D01*
X105160Y932248D01*
X105081Y932123D01*
X105005Y931996D01*
X104933Y931867D01*
X104864Y931736D01*
X104799Y931604D01*
X104737Y931470D01*
X104679Y931334D01*
X104624Y931197D01*
X104573Y931058D01*
X104525Y930918D01*
X104481Y930777D01*
X104441Y930635D01*
X104405Y930492D01*
X104372Y930347D01*
X104344Y930203D01*
X104318Y930057D01*
X104297Y929911D01*
X104280Y929764D01*
X104266Y929617D01*
X104257Y929469D01*
X104251Y929322D01*
X104249Y929174D01*
X104249Y920143D01*
X104251Y919995D01*
X104257Y919848D01*
X104266Y919700D01*
X104280Y919553D01*
X104297Y919406D01*
X104318Y919260D01*
X104344Y919114D01*
X104372Y918970D01*
X104405Y918825D01*
X104441Y918682D01*
X104481Y918540D01*
X104525Y918399D01*
X104573Y918259D01*
X104624Y918120D01*
X104679Y917983D01*
X104737Y917847D01*
X104799Y917713D01*
X104864Y917581D01*
X104933Y917450D01*
X105005Y917321D01*
X105081Y917194D01*
X105160Y917069D01*
X105242Y916946D01*
X105327Y916826D01*
X105415Y916707D01*
X105507Y916591D01*
X105601Y916478D01*
X105699Y916366D01*
X105799Y916258D01*
X105902Y916152D01*
X106008Y916049D01*
X106116Y915949D01*
X106228Y915851D01*
X106341Y915757D01*
X106457Y915665D01*
X106576Y915577D01*
X106696Y915492D01*
X106819Y915410D01*
X106944Y915331D01*
X107071Y915255D01*
X107200Y915183D01*
X107331Y915114D01*
X107463Y915049D01*
X107597Y914987D01*
X107733Y914929D01*
X107870Y914874D01*
X108009Y914823D01*
X108149Y914775D01*
X108290Y914731D01*
X108432Y914691D01*
X108575Y914655D01*
X108720Y914622D01*
X108864Y914594D01*
X109010Y914568D01*
X109156Y914547D01*
X109303Y914530D01*
X109450Y914516D01*
X109598Y914507D01*
X109745Y914501D01*
X109893Y914499D01*
X115538Y914499D01*
X94582Y914499D02*
X94582Y928045D01*
X95147Y933690D02*
X95147Y934819D01*
X94018Y934819D01*
X94018Y933690D01*
X95147Y933690D01*
X85712Y934819D02*
X85712Y917885D01*
X85710Y917769D01*
X85704Y917654D01*
X85694Y917539D01*
X85680Y917424D01*
X85663Y917310D01*
X85641Y917196D01*
X85616Y917083D01*
X85586Y916971D01*
X85553Y916860D01*
X85516Y916751D01*
X85476Y916642D01*
X85432Y916536D01*
X85384Y916430D01*
X85332Y916327D01*
X85277Y916225D01*
X85219Y916125D01*
X85157Y916027D01*
X85092Y915932D01*
X85024Y915838D01*
X84952Y915748D01*
X84878Y915659D01*
X84800Y915573D01*
X84720Y915490D01*
X84637Y915410D01*
X84551Y915332D01*
X84463Y915258D01*
X84372Y915186D01*
X84278Y915118D01*
X84183Y915053D01*
X84085Y914991D01*
X83985Y914933D01*
X83883Y914878D01*
X83780Y914826D01*
X83674Y914778D01*
X83568Y914734D01*
X83459Y914694D01*
X83350Y914657D01*
X83239Y914624D01*
X83127Y914594D01*
X83014Y914569D01*
X82901Y914547D01*
X82786Y914530D01*
X82671Y914516D01*
X82556Y914506D01*
X82441Y914500D01*
X82325Y914498D01*
X73517Y914499D02*
X73517Y928045D01*
X63357Y928045D01*
X63357Y928046D02*
X63241Y928044D01*
X63126Y928038D01*
X63011Y928028D01*
X62896Y928014D01*
X62782Y927997D01*
X62668Y927975D01*
X62555Y927950D01*
X62443Y927920D01*
X62332Y927887D01*
X62223Y927850D01*
X62114Y927810D01*
X62008Y927766D01*
X61902Y927718D01*
X61799Y927666D01*
X61697Y927611D01*
X61597Y927553D01*
X61499Y927491D01*
X61404Y927426D01*
X61310Y927358D01*
X61220Y927286D01*
X61131Y927212D01*
X61045Y927134D01*
X60962Y927054D01*
X60882Y926971D01*
X60804Y926885D01*
X60730Y926797D01*
X60658Y926706D01*
X60590Y926612D01*
X60525Y926517D01*
X60463Y926419D01*
X60405Y926319D01*
X60350Y926217D01*
X60298Y926114D01*
X60250Y926008D01*
X60206Y925902D01*
X60166Y925793D01*
X60129Y925684D01*
X60096Y925573D01*
X60066Y925461D01*
X60041Y925348D01*
X60019Y925235D01*
X60002Y925120D01*
X59988Y925005D01*
X59978Y924890D01*
X59972Y924775D01*
X59970Y924659D01*
X59970Y914499D01*
X66744Y914499D02*
X66744Y928045D01*
X45877Y922401D02*
X40797Y922401D01*
X45877Y922401D02*
X46001Y922399D01*
X46125Y922393D01*
X46249Y922383D01*
X46372Y922370D01*
X46495Y922352D01*
X46617Y922331D01*
X46739Y922306D01*
X46860Y922277D01*
X46979Y922244D01*
X47098Y922208D01*
X47215Y922167D01*
X47331Y922124D01*
X47446Y922076D01*
X47559Y922025D01*
X47671Y921970D01*
X47780Y921912D01*
X47888Y921851D01*
X47994Y921786D01*
X48098Y921718D01*
X48199Y921646D01*
X48299Y921572D01*
X48395Y921494D01*
X48490Y921414D01*
X48582Y921330D01*
X48671Y921244D01*
X48757Y921155D01*
X48841Y921063D01*
X48921Y920968D01*
X48999Y920872D01*
X49073Y920772D01*
X49145Y920671D01*
X49213Y920567D01*
X49278Y920461D01*
X49339Y920353D01*
X49397Y920244D01*
X49452Y920132D01*
X49503Y920019D01*
X49551Y919904D01*
X49594Y919788D01*
X49635Y919671D01*
X49671Y919552D01*
X49704Y919433D01*
X49733Y919312D01*
X49758Y919190D01*
X49779Y919068D01*
X49797Y918945D01*
X49810Y918822D01*
X49820Y918698D01*
X49826Y918574D01*
X49828Y918450D01*
X49826Y918326D01*
X49820Y918202D01*
X49810Y918078D01*
X49797Y917955D01*
X49779Y917832D01*
X49758Y917710D01*
X49733Y917588D01*
X49704Y917467D01*
X49671Y917348D01*
X49635Y917229D01*
X49594Y917112D01*
X49551Y916996D01*
X49503Y916881D01*
X49452Y916768D01*
X49397Y916656D01*
X49339Y916547D01*
X49278Y916439D01*
X49213Y916333D01*
X49145Y916229D01*
X49073Y916128D01*
X48999Y916028D01*
X48921Y915932D01*
X48841Y915837D01*
X48757Y915745D01*
X48671Y915656D01*
X48582Y915570D01*
X48490Y915486D01*
X48395Y915406D01*
X48299Y915328D01*
X48199Y915254D01*
X48098Y915182D01*
X47994Y915114D01*
X47888Y915049D01*
X47780Y914988D01*
X47671Y914930D01*
X47559Y914875D01*
X47446Y914824D01*
X47331Y914776D01*
X47215Y914733D01*
X47098Y914692D01*
X46979Y914656D01*
X46860Y914623D01*
X46739Y914594D01*
X46617Y914569D01*
X46495Y914548D01*
X46372Y914530D01*
X46249Y914517D01*
X46125Y914507D01*
X46001Y914501D01*
X45877Y914499D01*
X40797Y914499D01*
X40797Y924659D01*
X40796Y924659D02*
X40798Y924775D01*
X40804Y924890D01*
X40814Y925005D01*
X40828Y925120D01*
X40845Y925234D01*
X40867Y925348D01*
X40892Y925461D01*
X40922Y925573D01*
X40955Y925684D01*
X40992Y925793D01*
X41032Y925902D01*
X41076Y926008D01*
X41124Y926114D01*
X41176Y926217D01*
X41231Y926319D01*
X41289Y926419D01*
X41351Y926517D01*
X41416Y926612D01*
X41484Y926706D01*
X41556Y926797D01*
X41630Y926885D01*
X41708Y926971D01*
X41788Y927054D01*
X41871Y927134D01*
X41957Y927212D01*
X42046Y927286D01*
X42136Y927358D01*
X42230Y927426D01*
X42325Y927491D01*
X42423Y927553D01*
X42523Y927611D01*
X42625Y927666D01*
X42728Y927718D01*
X42834Y927766D01*
X42940Y927810D01*
X43049Y927850D01*
X43158Y927887D01*
X43269Y927920D01*
X43381Y927950D01*
X43494Y927975D01*
X43608Y927997D01*
X43722Y928014D01*
X43837Y928028D01*
X43952Y928038D01*
X44067Y928044D01*
X44183Y928046D01*
X44183Y928045D02*
X48699Y928045D01*
X30198Y928045D02*
X30198Y914499D01*
X30198Y928045D02*
X24553Y928045D01*
X24553Y928046D02*
X24437Y928044D01*
X24322Y928038D01*
X24207Y928028D01*
X24092Y928014D01*
X23978Y927997D01*
X23864Y927975D01*
X23751Y927950D01*
X23639Y927920D01*
X23528Y927887D01*
X23419Y927850D01*
X23310Y927810D01*
X23204Y927766D01*
X23098Y927718D01*
X22995Y927666D01*
X22893Y927611D01*
X22793Y927553D01*
X22695Y927491D01*
X22600Y927426D01*
X22506Y927358D01*
X22416Y927286D01*
X22327Y927212D01*
X22241Y927134D01*
X22158Y927054D01*
X22078Y926971D01*
X22000Y926885D01*
X21926Y926797D01*
X21854Y926706D01*
X21786Y926612D01*
X21721Y926517D01*
X21659Y926419D01*
X21601Y926319D01*
X21546Y926217D01*
X21494Y926114D01*
X21446Y926008D01*
X21402Y925902D01*
X21362Y925793D01*
X21325Y925684D01*
X21292Y925573D01*
X21262Y925461D01*
X21237Y925348D01*
X21215Y925235D01*
X21198Y925120D01*
X21184Y925005D01*
X21174Y924890D01*
X21168Y924775D01*
X21166Y924659D01*
X21167Y924659D02*
X21167Y914499D01*
X218978Y960462D02*
X232525Y960462D01*
X232525Y967235D02*
X218978Y967235D01*
X229138Y974008D02*
X229138Y953688D01*
X222365Y953688D02*
X222365Y974008D01*
X209821Y968364D02*
X209821Y959333D01*
X209821Y968364D02*
X209819Y968513D01*
X209813Y968662D01*
X209803Y968811D01*
X209790Y968959D01*
X209772Y969107D01*
X209750Y969254D01*
X209725Y969401D01*
X209696Y969547D01*
X209662Y969692D01*
X209625Y969837D01*
X209585Y969980D01*
X209540Y970122D01*
X209492Y970263D01*
X209440Y970403D01*
X209384Y970541D01*
X209325Y970678D01*
X209262Y970813D01*
X209196Y970946D01*
X209126Y971078D01*
X209052Y971207D01*
X208976Y971335D01*
X208896Y971461D01*
X208812Y971584D01*
X208726Y971706D01*
X208636Y971824D01*
X208543Y971941D01*
X208447Y972055D01*
X208348Y972166D01*
X208246Y972275D01*
X208141Y972381D01*
X208034Y972484D01*
X207924Y972585D01*
X207811Y972682D01*
X207696Y972777D01*
X207578Y972868D01*
X207458Y972956D01*
X207336Y973041D01*
X207211Y973123D01*
X207085Y973201D01*
X206956Y973276D01*
X206825Y973348D01*
X206693Y973416D01*
X206559Y973481D01*
X206423Y973542D01*
X206285Y973600D01*
X206146Y973653D01*
X206006Y973703D01*
X205864Y973750D01*
X205722Y973793D01*
X205578Y973831D01*
X205433Y973866D01*
X205287Y973898D01*
X205141Y973925D01*
X204994Y973949D01*
X204846Y973968D01*
X204698Y973984D01*
X204549Y973996D01*
X204400Y974004D01*
X204251Y974008D01*
X204103Y974008D01*
X203954Y974004D01*
X203805Y973996D01*
X203656Y973984D01*
X203508Y973968D01*
X203360Y973949D01*
X203213Y973925D01*
X203067Y973898D01*
X202921Y973866D01*
X202776Y973831D01*
X202632Y973793D01*
X202490Y973750D01*
X202348Y973703D01*
X202208Y973653D01*
X202069Y973600D01*
X201931Y973542D01*
X201795Y973481D01*
X201661Y973416D01*
X201529Y973348D01*
X201398Y973276D01*
X201269Y973201D01*
X201143Y973123D01*
X201018Y973041D01*
X200896Y972956D01*
X200776Y972868D01*
X200658Y972777D01*
X200543Y972682D01*
X200430Y972585D01*
X200320Y972484D01*
X200213Y972381D01*
X200108Y972275D01*
X200006Y972166D01*
X199907Y972055D01*
X199811Y971941D01*
X199718Y971824D01*
X199628Y971706D01*
X199542Y971584D01*
X199458Y971461D01*
X199378Y971335D01*
X199302Y971207D01*
X199228Y971078D01*
X199158Y970946D01*
X199092Y970813D01*
X199029Y970678D01*
X198970Y970541D01*
X198914Y970403D01*
X198862Y970263D01*
X198814Y970122D01*
X198769Y969980D01*
X198729Y969837D01*
X198692Y969692D01*
X198658Y969547D01*
X198629Y969401D01*
X198604Y969254D01*
X198582Y969107D01*
X198564Y968959D01*
X198551Y968811D01*
X198541Y968662D01*
X198535Y968513D01*
X198533Y968364D01*
X198532Y968364D02*
X198532Y959333D01*
X198533Y959333D02*
X198535Y959184D01*
X198541Y959035D01*
X198551Y958886D01*
X198564Y958738D01*
X198582Y958590D01*
X198604Y958443D01*
X198629Y958296D01*
X198658Y958150D01*
X198692Y958005D01*
X198729Y957860D01*
X198769Y957717D01*
X198814Y957575D01*
X198862Y957434D01*
X198914Y957294D01*
X198970Y957156D01*
X199029Y957019D01*
X199092Y956884D01*
X199158Y956751D01*
X199228Y956619D01*
X199302Y956490D01*
X199378Y956362D01*
X199458Y956236D01*
X199542Y956113D01*
X199628Y955991D01*
X199718Y955873D01*
X199811Y955756D01*
X199907Y955642D01*
X200006Y955531D01*
X200108Y955422D01*
X200213Y955316D01*
X200320Y955213D01*
X200430Y955112D01*
X200543Y955015D01*
X200658Y954920D01*
X200776Y954829D01*
X200896Y954741D01*
X201018Y954656D01*
X201143Y954574D01*
X201269Y954496D01*
X201398Y954421D01*
X201529Y954349D01*
X201661Y954281D01*
X201795Y954216D01*
X201931Y954155D01*
X202069Y954097D01*
X202208Y954044D01*
X202348Y953994D01*
X202490Y953947D01*
X202632Y953904D01*
X202776Y953866D01*
X202921Y953831D01*
X203067Y953799D01*
X203213Y953772D01*
X203360Y953748D01*
X203508Y953729D01*
X203656Y953713D01*
X203805Y953701D01*
X203954Y953693D01*
X204103Y953689D01*
X204251Y953689D01*
X204400Y953693D01*
X204549Y953701D01*
X204698Y953713D01*
X204846Y953729D01*
X204994Y953748D01*
X205141Y953772D01*
X205287Y953799D01*
X205433Y953831D01*
X205578Y953866D01*
X205722Y953904D01*
X205864Y953947D01*
X206006Y953994D01*
X206146Y954044D01*
X206285Y954097D01*
X206423Y954155D01*
X206559Y954216D01*
X206693Y954281D01*
X206825Y954349D01*
X206956Y954421D01*
X207085Y954496D01*
X207211Y954574D01*
X207336Y954656D01*
X207458Y954741D01*
X207578Y954829D01*
X207696Y954920D01*
X207811Y955015D01*
X207924Y955112D01*
X208034Y955213D01*
X208141Y955316D01*
X208246Y955422D01*
X208348Y955531D01*
X208447Y955642D01*
X208543Y955756D01*
X208636Y955873D01*
X208726Y955991D01*
X208812Y956113D01*
X208896Y956236D01*
X208976Y956362D01*
X209052Y956490D01*
X209126Y956619D01*
X209196Y956751D01*
X209262Y956884D01*
X209325Y957019D01*
X209384Y957156D01*
X209440Y957294D01*
X209492Y957434D01*
X209540Y957575D01*
X209585Y957717D01*
X209625Y957860D01*
X209662Y958005D01*
X209696Y958150D01*
X209725Y958296D01*
X209750Y958443D01*
X209772Y958590D01*
X209790Y958738D01*
X209803Y958886D01*
X209813Y959035D01*
X209819Y959184D01*
X209821Y959333D01*
X188509Y953688D02*
X188509Y974008D01*
X188509Y967235D02*
X182865Y967235D01*
X182749Y967233D01*
X182634Y967227D01*
X182519Y967217D01*
X182404Y967203D01*
X182290Y967186D01*
X182176Y967164D01*
X182063Y967139D01*
X181951Y967109D01*
X181840Y967076D01*
X181731Y967039D01*
X181622Y966999D01*
X181516Y966955D01*
X181410Y966907D01*
X181307Y966855D01*
X181205Y966800D01*
X181105Y966742D01*
X181007Y966680D01*
X180912Y966615D01*
X180818Y966547D01*
X180728Y966475D01*
X180639Y966401D01*
X180553Y966323D01*
X180470Y966243D01*
X180390Y966160D01*
X180312Y966074D01*
X180238Y965986D01*
X180166Y965895D01*
X180098Y965801D01*
X180033Y965706D01*
X179971Y965608D01*
X179913Y965508D01*
X179858Y965406D01*
X179806Y965303D01*
X179758Y965197D01*
X179714Y965091D01*
X179674Y964982D01*
X179637Y964873D01*
X179604Y964762D01*
X179574Y964650D01*
X179549Y964537D01*
X179527Y964424D01*
X179510Y964309D01*
X179496Y964194D01*
X179486Y964079D01*
X179480Y963964D01*
X179478Y963848D01*
X179478Y953688D01*
X168497Y953688D02*
X168497Y967235D01*
X158337Y967235D01*
X158221Y967233D01*
X158106Y967227D01*
X157991Y967217D01*
X157876Y967203D01*
X157762Y967186D01*
X157648Y967164D01*
X157535Y967139D01*
X157423Y967109D01*
X157312Y967076D01*
X157203Y967039D01*
X157094Y966999D01*
X156988Y966955D01*
X156882Y966907D01*
X156779Y966855D01*
X156677Y966800D01*
X156577Y966742D01*
X156479Y966680D01*
X156384Y966615D01*
X156290Y966547D01*
X156200Y966475D01*
X156111Y966401D01*
X156025Y966323D01*
X155942Y966243D01*
X155862Y966160D01*
X155784Y966074D01*
X155710Y965986D01*
X155638Y965895D01*
X155570Y965801D01*
X155505Y965706D01*
X155443Y965608D01*
X155385Y965508D01*
X155330Y965406D01*
X155278Y965303D01*
X155230Y965197D01*
X155186Y965091D01*
X155146Y964982D01*
X155109Y964873D01*
X155076Y964762D01*
X155046Y964650D01*
X155021Y964537D01*
X154999Y964424D01*
X154982Y964309D01*
X154968Y964194D01*
X154958Y964079D01*
X154952Y963964D01*
X154950Y963848D01*
X154950Y953688D01*
X161723Y953688D02*
X161723Y967235D01*
X146412Y974008D02*
X146412Y978524D01*
X137403Y961590D02*
X131759Y959333D01*
X137403Y961590D02*
X137502Y961632D01*
X137598Y961677D01*
X137694Y961725D01*
X137787Y961778D01*
X137878Y961833D01*
X137968Y961892D01*
X138055Y961954D01*
X138140Y962019D01*
X138222Y962087D01*
X138302Y962158D01*
X138379Y962232D01*
X138454Y962308D01*
X138525Y962388D01*
X138594Y962470D01*
X138659Y962554D01*
X138722Y962641D01*
X138781Y962730D01*
X138837Y962821D01*
X138890Y962914D01*
X138939Y963009D01*
X138985Y963105D01*
X139027Y963204D01*
X139065Y963303D01*
X139100Y963404D01*
X139131Y963507D01*
X139159Y963610D01*
X139182Y963714D01*
X139202Y963819D01*
X139218Y963925D01*
X139230Y964031D01*
X139238Y964138D01*
X139242Y964244D01*
X139243Y964351D01*
X139239Y964458D01*
X139232Y964565D01*
X139220Y964671D01*
X139205Y964777D01*
X139186Y964882D01*
X139163Y964986D01*
X139137Y965090D01*
X139106Y965192D01*
X139072Y965294D01*
X139034Y965394D01*
X138993Y965492D01*
X138948Y965589D01*
X138899Y965684D01*
X138847Y965778D01*
X138792Y965869D01*
X138733Y965959D01*
X138671Y966046D01*
X138606Y966131D01*
X138538Y966213D01*
X138467Y966293D01*
X138393Y966370D01*
X138317Y966444D01*
X138237Y966516D01*
X138155Y966585D01*
X138071Y966650D01*
X137984Y966713D01*
X137895Y966772D01*
X137804Y966828D01*
X137711Y966881D01*
X137617Y966930D01*
X137520Y966976D01*
X137422Y967018D01*
X137322Y967057D01*
X137221Y967092D01*
X137119Y967123D01*
X137016Y967150D01*
X136911Y967174D01*
X136806Y967194D01*
X136701Y967210D01*
X136594Y967222D01*
X136488Y967230D01*
X136381Y967234D01*
X136274Y967235D01*
X135966Y967227D01*
X135658Y967211D01*
X135350Y967188D01*
X135044Y967158D01*
X134738Y967120D01*
X134433Y967075D01*
X134129Y967023D01*
X133827Y966963D01*
X133526Y966896D01*
X133226Y966822D01*
X132929Y966741D01*
X132634Y966653D01*
X132341Y966557D01*
X132050Y966455D01*
X131762Y966345D01*
X131476Y966229D01*
X131194Y966106D01*
X131759Y959333D02*
X131660Y959291D01*
X131564Y959246D01*
X131468Y959198D01*
X131375Y959145D01*
X131284Y959090D01*
X131194Y959031D01*
X131107Y958969D01*
X131022Y958904D01*
X130940Y958836D01*
X130860Y958765D01*
X130783Y958691D01*
X130708Y958615D01*
X130637Y958535D01*
X130568Y958453D01*
X130503Y958369D01*
X130440Y958282D01*
X130381Y958193D01*
X130325Y958102D01*
X130272Y958009D01*
X130223Y957914D01*
X130177Y957818D01*
X130135Y957719D01*
X130097Y957620D01*
X130062Y957519D01*
X130031Y957416D01*
X130003Y957313D01*
X129980Y957209D01*
X129960Y957104D01*
X129944Y956998D01*
X129932Y956892D01*
X129924Y956785D01*
X129920Y956679D01*
X129919Y956572D01*
X129923Y956465D01*
X129930Y956358D01*
X129942Y956252D01*
X129957Y956146D01*
X129976Y956041D01*
X129999Y955937D01*
X130025Y955833D01*
X130056Y955731D01*
X130090Y955629D01*
X130128Y955529D01*
X130169Y955431D01*
X130214Y955334D01*
X130263Y955239D01*
X130315Y955145D01*
X130370Y955054D01*
X130429Y954964D01*
X130491Y954877D01*
X130556Y954792D01*
X130624Y954710D01*
X130695Y954630D01*
X130769Y954553D01*
X130845Y954479D01*
X130925Y954407D01*
X131007Y954338D01*
X131091Y954273D01*
X131178Y954210D01*
X131267Y954151D01*
X131358Y954095D01*
X131451Y954042D01*
X131545Y953993D01*
X131642Y953947D01*
X131740Y953905D01*
X131840Y953866D01*
X131941Y953831D01*
X132043Y953800D01*
X132146Y953773D01*
X132251Y953749D01*
X132356Y953729D01*
X132461Y953713D01*
X132568Y953701D01*
X132674Y953693D01*
X132781Y953689D01*
X132888Y953688D01*
X132888Y953689D02*
X133340Y953701D01*
X133793Y953723D01*
X134244Y953757D01*
X134695Y953800D01*
X135144Y953855D01*
X135592Y953920D01*
X136039Y953996D01*
X136483Y954082D01*
X136926Y954179D01*
X137366Y954286D01*
X137803Y954404D01*
X138237Y954531D01*
X138669Y954670D01*
X139096Y954818D01*
X103526Y953688D02*
X103395Y953690D01*
X103263Y953696D01*
X103132Y953705D01*
X103002Y953719D01*
X102871Y953736D01*
X102742Y953757D01*
X102613Y953781D01*
X102485Y953810D01*
X102357Y953842D01*
X102231Y953878D01*
X102106Y953917D01*
X101981Y953960D01*
X101859Y954007D01*
X101737Y954057D01*
X101617Y954111D01*
X101499Y954168D01*
X101383Y954229D01*
X101268Y954293D01*
X101155Y954360D01*
X101044Y954431D01*
X100936Y954505D01*
X100829Y954582D01*
X100725Y954662D01*
X100623Y954745D01*
X100524Y954830D01*
X100427Y954919D01*
X100333Y955011D01*
X100241Y955105D01*
X100152Y955202D01*
X100067Y955301D01*
X99984Y955403D01*
X99904Y955507D01*
X99827Y955614D01*
X99753Y955722D01*
X99682Y955833D01*
X99615Y955946D01*
X99551Y956061D01*
X99490Y956177D01*
X99433Y956295D01*
X99379Y956415D01*
X99329Y956537D01*
X99282Y956659D01*
X99239Y956784D01*
X99200Y956909D01*
X99164Y957035D01*
X99132Y957163D01*
X99103Y957291D01*
X99079Y957420D01*
X99058Y957549D01*
X99041Y957680D01*
X99027Y957810D01*
X99018Y957941D01*
X99012Y958073D01*
X99010Y958204D01*
X103526Y953688D02*
X103754Y953691D01*
X103982Y953699D01*
X104210Y953713D01*
X104438Y953732D01*
X104664Y953756D01*
X104891Y953786D01*
X105116Y953821D01*
X105341Y953862D01*
X105564Y953908D01*
X105787Y953960D01*
X106008Y954016D01*
X106227Y954078D01*
X106445Y954146D01*
X106662Y954218D01*
X106877Y954296D01*
X107089Y954379D01*
X107300Y954466D01*
X107508Y954559D01*
X107715Y954657D01*
X107919Y954760D01*
X108120Y954867D01*
X108319Y954979D01*
X108514Y955096D01*
X108708Y955218D01*
X108898Y955344D01*
X109085Y955475D01*
X109269Y955610D01*
X109449Y955750D01*
X109626Y955894D01*
X109800Y956042D01*
X109970Y956194D01*
X110137Y956350D01*
X110299Y956510D01*
X109735Y969493D02*
X109733Y969624D01*
X109727Y969756D01*
X109718Y969887D01*
X109704Y970017D01*
X109687Y970148D01*
X109666Y970277D01*
X109642Y970406D01*
X109613Y970534D01*
X109581Y970662D01*
X109545Y970788D01*
X109506Y970913D01*
X109463Y971038D01*
X109416Y971160D01*
X109366Y971282D01*
X109312Y971402D01*
X109255Y971520D01*
X109194Y971636D01*
X109130Y971751D01*
X109063Y971864D01*
X108992Y971975D01*
X108918Y972083D01*
X108841Y972190D01*
X108761Y972294D01*
X108678Y972396D01*
X108593Y972495D01*
X108504Y972592D01*
X108412Y972686D01*
X108318Y972778D01*
X108221Y972867D01*
X108122Y972952D01*
X108020Y973035D01*
X107916Y973115D01*
X107809Y973192D01*
X107701Y973266D01*
X107590Y973337D01*
X107477Y973404D01*
X107362Y973468D01*
X107246Y973529D01*
X107128Y973586D01*
X107008Y973640D01*
X106886Y973690D01*
X106764Y973737D01*
X106639Y973780D01*
X106514Y973819D01*
X106388Y973855D01*
X106260Y973887D01*
X106132Y973916D01*
X106003Y973940D01*
X105874Y973961D01*
X105743Y973978D01*
X105613Y973992D01*
X105482Y974001D01*
X105350Y974007D01*
X105219Y974009D01*
X105017Y974007D01*
X104816Y973999D01*
X104614Y973987D01*
X104413Y973971D01*
X104212Y973949D01*
X104012Y973923D01*
X103813Y973891D01*
X103614Y973856D01*
X103417Y973815D01*
X103220Y973770D01*
X103025Y973720D01*
X102830Y973665D01*
X102637Y973606D01*
X102446Y973542D01*
X102256Y973474D01*
X102068Y973401D01*
X101882Y973323D01*
X101697Y973242D01*
X101515Y973156D01*
X101334Y973065D01*
X101156Y972970D01*
X100980Y972872D01*
X100807Y972768D01*
X100636Y972661D01*
X100467Y972550D01*
X100302Y972435D01*
X100139Y972316D01*
X107477Y965542D02*
X107590Y965611D01*
X107701Y965683D01*
X107810Y965758D01*
X107917Y965836D01*
X108021Y965918D01*
X108123Y966002D01*
X108222Y966089D01*
X108319Y966179D01*
X108413Y966272D01*
X108505Y966367D01*
X108594Y966466D01*
X108680Y966566D01*
X108762Y966669D01*
X108842Y966775D01*
X108919Y966882D01*
X108993Y966992D01*
X109064Y967104D01*
X109131Y967218D01*
X109195Y967333D01*
X109255Y967451D01*
X109312Y967570D01*
X109366Y967691D01*
X109416Y967814D01*
X109463Y967937D01*
X109506Y968062D01*
X109546Y968189D01*
X109581Y968316D01*
X109613Y968444D01*
X109642Y968573D01*
X109667Y968703D01*
X109687Y968834D01*
X109705Y968965D01*
X109718Y969097D01*
X109727Y969229D01*
X109733Y969361D01*
X109735Y969493D01*
X101268Y962155D02*
X101155Y962086D01*
X101044Y962014D01*
X100935Y961939D01*
X100828Y961861D01*
X100724Y961779D01*
X100622Y961695D01*
X100523Y961608D01*
X100426Y961518D01*
X100332Y961425D01*
X100240Y961330D01*
X100151Y961232D01*
X100065Y961131D01*
X99983Y961028D01*
X99903Y960923D01*
X99826Y960815D01*
X99752Y960705D01*
X99682Y960593D01*
X99614Y960479D01*
X99550Y960364D01*
X99490Y960246D01*
X99433Y960127D01*
X99379Y960006D01*
X99329Y959883D01*
X99282Y959760D01*
X99239Y959635D01*
X99199Y959508D01*
X99164Y959381D01*
X99132Y959253D01*
X99103Y959124D01*
X99078Y958994D01*
X99058Y958863D01*
X99040Y958732D01*
X99027Y958600D01*
X99018Y958468D01*
X99012Y958336D01*
X99010Y958204D01*
X101268Y962155D02*
X107477Y965542D01*
X91075Y946915D02*
X88818Y946915D01*
X82044Y967235D01*
X91075Y967235D02*
X86560Y953688D01*
X72980Y953688D02*
X72980Y967235D01*
X67336Y967235D01*
X67220Y967233D01*
X67105Y967227D01*
X66990Y967217D01*
X66875Y967203D01*
X66761Y967186D01*
X66647Y967164D01*
X66534Y967139D01*
X66422Y967109D01*
X66311Y967076D01*
X66202Y967039D01*
X66093Y966999D01*
X65987Y966955D01*
X65881Y966907D01*
X65778Y966855D01*
X65676Y966800D01*
X65576Y966742D01*
X65478Y966680D01*
X65383Y966615D01*
X65289Y966547D01*
X65199Y966475D01*
X65110Y966401D01*
X65024Y966323D01*
X64941Y966243D01*
X64861Y966160D01*
X64783Y966074D01*
X64709Y965986D01*
X64637Y965895D01*
X64569Y965801D01*
X64504Y965706D01*
X64442Y965608D01*
X64384Y965508D01*
X64329Y965406D01*
X64277Y965303D01*
X64229Y965197D01*
X64185Y965091D01*
X64145Y964982D01*
X64108Y964873D01*
X64075Y964762D01*
X64045Y964650D01*
X64020Y964537D01*
X63998Y964424D01*
X63981Y964309D01*
X63967Y964194D01*
X63957Y964079D01*
X63951Y963964D01*
X63949Y963848D01*
X63949Y953688D01*
X56080Y967235D02*
X49307Y967235D01*
X53822Y974008D02*
X53822Y957075D01*
X53823Y957075D02*
X53821Y956959D01*
X53815Y956844D01*
X53805Y956729D01*
X53791Y956614D01*
X53774Y956500D01*
X53752Y956386D01*
X53727Y956273D01*
X53697Y956161D01*
X53664Y956050D01*
X53627Y955941D01*
X53587Y955832D01*
X53543Y955726D01*
X53495Y955620D01*
X53443Y955517D01*
X53388Y955415D01*
X53330Y955315D01*
X53268Y955217D01*
X53203Y955122D01*
X53135Y955028D01*
X53063Y954937D01*
X52989Y954849D01*
X52911Y954763D01*
X52831Y954680D01*
X52748Y954600D01*
X52662Y954522D01*
X52573Y954448D01*
X52483Y954376D01*
X52389Y954308D01*
X52294Y954243D01*
X52196Y954181D01*
X52096Y954123D01*
X51994Y954068D01*
X51891Y954016D01*
X51785Y953968D01*
X51679Y953924D01*
X51570Y953884D01*
X51461Y953847D01*
X51350Y953814D01*
X51238Y953784D01*
X51125Y953759D01*
X51011Y953737D01*
X50897Y953720D01*
X50782Y953706D01*
X50667Y953696D01*
X50552Y953690D01*
X50436Y953688D01*
X49307Y953688D01*
X40270Y953688D02*
X40270Y974008D01*
X40270Y967235D02*
X34626Y967235D01*
X34510Y967233D01*
X34395Y967227D01*
X34280Y967217D01*
X34165Y967203D01*
X34051Y967186D01*
X33937Y967164D01*
X33824Y967139D01*
X33712Y967109D01*
X33601Y967076D01*
X33492Y967039D01*
X33383Y966999D01*
X33277Y966955D01*
X33171Y966907D01*
X33068Y966855D01*
X32966Y966800D01*
X32866Y966742D01*
X32768Y966680D01*
X32673Y966615D01*
X32579Y966547D01*
X32489Y966475D01*
X32400Y966401D01*
X32314Y966323D01*
X32231Y966243D01*
X32151Y966160D01*
X32073Y966074D01*
X31999Y965986D01*
X31927Y965895D01*
X31859Y965801D01*
X31794Y965706D01*
X31732Y965608D01*
X31674Y965508D01*
X31619Y965406D01*
X31567Y965303D01*
X31519Y965197D01*
X31475Y965091D01*
X31435Y964982D01*
X31398Y964873D01*
X31365Y964762D01*
X31335Y964650D01*
X31310Y964537D01*
X31288Y964424D01*
X31271Y964309D01*
X31257Y964194D01*
X31247Y964079D01*
X31241Y963964D01*
X31239Y963848D01*
X31239Y953688D01*
D11*
X400812Y574802D03*
X400812Y524002D03*
X257556Y294712D03*
X257556Y243912D03*
D12*
X381000Y498602D03*
X381000Y422402D03*
D13*
X385566Y167132D02*
X372358Y167132D01*
X372358Y192532D02*
X385566Y192532D01*
X385566Y319532D02*
X372358Y319532D01*
X309366Y319532D02*
X296158Y319532D01*
X372358Y217932D02*
X385566Y217932D01*
X385566Y243332D02*
X372358Y243332D01*
X372358Y294132D02*
X385566Y294132D01*
X385566Y268732D02*
X372358Y268732D01*
X309366Y294132D02*
X296158Y294132D01*
X296158Y268732D02*
X309366Y268732D01*
X309366Y243332D02*
X296158Y243332D01*
X296158Y217932D02*
X309366Y217932D01*
X309366Y192532D02*
X296158Y192532D01*
X296158Y167132D02*
X309366Y167132D01*
X290062Y650748D02*
X276854Y650748D01*
X276854Y625348D02*
X290062Y625348D01*
X290062Y498348D02*
X276854Y498348D01*
X353054Y498348D02*
X366262Y498348D01*
X290062Y599948D02*
X276854Y599948D01*
X276854Y574548D02*
X290062Y574548D01*
X290062Y523748D02*
X276854Y523748D01*
X276854Y549148D02*
X290062Y549148D01*
X353054Y523748D02*
X366262Y523748D01*
X366262Y549148D02*
X353054Y549148D01*
X353054Y574548D02*
X366262Y574548D01*
X366262Y599948D02*
X353054Y599948D01*
X353054Y625348D02*
X366262Y625348D01*
X366262Y650748D02*
X353054Y650748D01*
D14*
X546100Y927100D03*
X520700Y927100D03*
X546100Y901700D03*
X520700Y901700D03*
X546100Y876300D03*
X520700Y876300D03*
X546100Y850900D03*
X520700Y850900D03*
X546100Y825500D03*
X520700Y825500D03*
D15*
X291084Y410210D03*
X291084Y435610D03*
X291084Y461010D03*
X347218Y448818D03*
X328168Y436118D03*
X347218Y423418D03*
D11*
X402082Y933450D03*
X402082Y857250D03*
D16*
X254000Y141732D03*
X254000Y217932D03*
D11*
X169672Y342646D03*
X169672Y266446D03*
X201748Y161033D03*
X201748Y84833D03*
D17*
X202438Y48514D03*
X278638Y48514D03*
D16*
X521970Y544576D03*
X521970Y620776D03*
X465072Y176278D03*
X465072Y252478D03*
D17*
X460248Y339790D03*
X536448Y339790D03*
D11*
X459740Y616458D03*
X459740Y540258D03*
X438404Y329184D03*
X438404Y252984D03*
D17*
X395478Y150876D03*
X471678Y150876D03*
D16*
X342900Y751332D03*
X342900Y827532D03*
D18*
X152400Y810260D03*
X76200Y810260D03*
D11*
X310134Y824992D03*
X310134Y748792D03*
D17*
X101600Y607314D03*
X177800Y607314D03*
D16*
X138938Y292608D03*
X138938Y368808D03*
X101600Y299974D03*
X101600Y376174D03*
D17*
X141738Y563626D03*
X217938Y563626D03*
D19*
X104394Y564134D03*
X78994Y564134D03*
X53594Y564134D03*
D17*
X345186Y368808D03*
X421386Y368808D03*
D14*
X285134Y844400D03*
X310134Y844400D03*
X335134Y844400D03*
D20*
X266134Y914400D03*
X354134Y914400D03*
D14*
X126600Y755800D03*
X101600Y755800D03*
X76600Y755800D03*
D20*
X145600Y685800D03*
X57600Y685800D03*
D14*
X77108Y400662D03*
X102108Y400662D03*
X127108Y400662D03*
D20*
X58108Y470662D03*
X146108Y470662D03*
D14*
X560178Y755800D03*
X535178Y755800D03*
X510178Y755800D03*
D20*
X579178Y685800D03*
X491178Y685800D03*
D14*
X510940Y400408D03*
X535940Y400408D03*
X560940Y400408D03*
D20*
X491940Y470408D03*
X579940Y470408D03*
D13*
X209804Y748792D02*
X196596Y748792D01*
X196596Y723392D02*
X209804Y723392D01*
X178054Y698246D02*
X178054Y685038D01*
X203454Y685038D02*
X203454Y698246D01*
X183896Y375412D02*
X170688Y375412D01*
X170688Y400812D02*
X183896Y400812D01*
X78232Y348996D02*
X65024Y348996D01*
X65024Y374396D02*
X78232Y374396D01*
D21*
X353060Y717804D03*
D22*
X353060Y692404D03*
D23*
X418084Y830834D03*
D22*
X443484Y830834D03*
D11*
X417068Y242570D03*
X417068Y191770D03*
X203200Y341630D03*
X203200Y290830D03*
X400304Y650748D03*
X400304Y599948D03*
D24*
X464688Y968502D03*
X384688Y968502D03*
X392726Y786040D03*
X472726Y786040D03*
D25*
X137600Y81940D02*
X137600Y66940D01*
X109100Y41440D02*
X94100Y41440D01*
X66600Y65940D02*
X66600Y80940D01*
X94100Y121440D02*
X109100Y121440D01*
X137600Y216100D02*
X137600Y231100D01*
X109100Y190600D02*
X94100Y190600D01*
X66600Y215100D02*
X66600Y230100D01*
X94100Y270600D02*
X109100Y270600D01*
X571432Y231354D02*
X571432Y216354D01*
X542932Y190854D02*
X527932Y190854D01*
X500432Y215354D02*
X500432Y230354D01*
X527932Y270854D02*
X542932Y270854D01*
X417000Y81940D02*
X417000Y66940D01*
X388500Y41440D02*
X373500Y41440D01*
X346000Y65940D02*
X346000Y80940D01*
X373500Y121440D02*
X388500Y121440D01*
X570416Y82448D02*
X570416Y67448D01*
X541916Y41948D02*
X526916Y41948D01*
X499416Y66448D02*
X499416Y81448D01*
X526916Y121948D02*
X541916Y121948D01*
D11*
X443738Y944118D03*
X443738Y867918D03*
X392684Y762254D03*
X392684Y686054D03*
D26*
X310134Y824992D02*
X310134Y844400D01*
X345186Y397002D02*
X345186Y368808D01*
X345186Y397002D02*
X331978Y410210D01*
X291084Y410210D01*
X321663Y410210D01*
X328168Y416715D02*
X328168Y436118D01*
X328168Y416715D02*
X321663Y410210D01*
X169134Y176274D02*
X114300Y121440D01*
X101600Y121440D01*
X169134Y238282D02*
X138938Y268478D01*
X138938Y292608D01*
X169134Y238282D02*
X169134Y176274D01*
X101600Y270600D02*
X101600Y299974D01*
X202946Y85777D02*
X202946Y49022D01*
X202438Y48514D01*
X215900Y85777D02*
X215900Y86793D01*
X203708Y86793D02*
X201748Y84833D01*
X302762Y167132D02*
X302768Y167126D01*
X302768Y137668D01*
X251893Y86793D01*
X215900Y86793D01*
X203708Y86793D01*
X202946Y85777D02*
X215900Y85777D01*
X335134Y835298D02*
X335134Y844400D01*
X335134Y835298D02*
X342900Y827532D01*
X535940Y400408D02*
X535940Y340298D01*
X536448Y339790D01*
X535940Y400408D02*
X560940Y400408D01*
X527050Y625856D02*
X527050Y747672D01*
X527050Y625856D02*
X521970Y620776D01*
X527050Y747672D02*
X535178Y755800D01*
X101600Y755800D02*
X101600Y607314D01*
X297392Y874626D02*
X369995Y874626D01*
X297392Y874626D02*
X285134Y862368D01*
X285134Y844400D01*
X402082Y921921D02*
X402082Y933450D01*
X402082Y921921D02*
X369995Y874626D01*
X76600Y809860D02*
X76200Y810260D01*
X76600Y809860D02*
X76600Y755800D01*
X202184Y225651D02*
X202184Y161469D01*
X235557Y192278D02*
X202184Y225651D01*
X201676Y226159D01*
X201676Y234442D01*
X302508Y192278D02*
X302762Y192532D01*
X302508Y192278D02*
X235557Y192278D01*
X201676Y234442D02*
X169672Y266446D01*
X202184Y161469D02*
X201748Y161033D01*
X477751Y150876D02*
X506679Y121948D01*
X477751Y150876D02*
X471678Y150876D01*
X506679Y121948D02*
X534416Y121948D01*
X510940Y320746D02*
X510940Y400408D01*
X535432Y296254D02*
X535432Y270854D01*
X535432Y296254D02*
X510940Y320746D01*
X381000Y121440D02*
X332260Y121440D01*
X278638Y67818D01*
X278638Y48514D01*
X310134Y748792D02*
X203200Y748792D01*
X177800Y662686D02*
X177800Y607314D01*
X178054Y662940D02*
X178054Y691642D01*
X178054Y662940D02*
X177800Y662686D01*
X177292Y375412D02*
X170688Y368808D01*
X138938Y368808D01*
X77108Y400662D02*
X70104Y393658D01*
X70104Y374396D01*
X71628Y374396D01*
X101600Y376174D02*
X101600Y358394D01*
X92202Y348996D01*
X71628Y348996D01*
X254000Y217932D02*
X302762Y217932D01*
X257556Y221488D02*
X257556Y243912D01*
X257556Y221488D02*
X254000Y217932D01*
X302762Y217932D02*
X306987Y217932D01*
X357787Y268732D01*
X378962Y268732D01*
X302762Y294132D02*
X302762Y319532D01*
X303088Y294458D02*
X302762Y294132D01*
X303088Y294458D02*
X257810Y294458D01*
X257556Y294712D01*
X517652Y540258D02*
X521970Y544576D01*
X517652Y540258D02*
X460248Y540258D01*
X460248Y540262D01*
X460248Y540258D02*
X460248Y339790D01*
X459740Y540258D02*
X460248Y540262D01*
X443992Y294132D02*
X378962Y294132D01*
X443992Y294132D02*
X460248Y310388D01*
X460248Y339790D01*
X438404Y329184D02*
X412496Y329184D01*
X403098Y319786D01*
X379216Y319786D01*
X378962Y319532D01*
X438404Y252984D02*
X438404Y232416D01*
X423920Y217932D01*
X378962Y217932D01*
X438910Y252478D02*
X465072Y252478D01*
X438910Y252478D02*
X438404Y252984D01*
X395478Y150876D02*
X395218Y150876D01*
X378962Y167132D01*
X378962Y192532D01*
X380746Y498348D02*
X381000Y498602D01*
X380746Y498348D02*
X359658Y498348D01*
X487040Y927100D02*
X546100Y927100D01*
X487040Y927100D02*
X464688Y949452D01*
X464688Y968502D01*
X520700Y927100D02*
X546100Y927100D01*
X546100Y825500D02*
X520700Y825500D01*
X546100Y825500D02*
X485516Y825500D01*
X472726Y812710D01*
X472726Y786040D01*
D27*
X439166Y627888D03*
X439420Y745998D03*
D26*
X520700Y850900D02*
X546100Y850900D01*
X546100Y876300D02*
X520700Y876300D01*
X520700Y901700D02*
X546100Y901700D01*
X141738Y563626D02*
X104902Y563626D01*
X104394Y564134D01*
X384688Y967740D02*
X384688Y968502D01*
X420116Y967740D02*
X443738Y944118D01*
X420116Y967740D02*
X384688Y967740D01*
X217938Y563626D02*
X217938Y436118D01*
X127108Y400662D02*
X102108Y400662D01*
X177142Y400662D02*
X177292Y400812D01*
X177142Y400662D02*
X127108Y400662D01*
X203454Y691642D02*
X203454Y723138D01*
X203200Y723392D01*
X186436Y436118D02*
X177292Y426974D01*
X177292Y400812D01*
X217938Y661410D02*
X203454Y675894D01*
X203454Y691642D01*
X217938Y661410D02*
X217938Y563626D01*
X290576Y436118D02*
X291084Y435610D01*
X218440Y436118D02*
X217938Y436118D01*
X186436Y436118D01*
X218440Y436118D02*
X290576Y436118D01*
X392726Y762296D02*
X392726Y786040D01*
X392726Y762296D02*
X392684Y762254D01*
X400812Y524002D02*
X400558Y523748D01*
X359658Y523748D01*
X326898Y268732D02*
X302762Y268732D01*
X326898Y268732D02*
X357880Y299714D01*
X357880Y338991D01*
X381000Y362111D02*
X381000Y422402D01*
X381000Y362111D02*
X357880Y338991D01*
X347218Y423418D02*
X379984Y423418D01*
X381000Y422402D01*
X400304Y523494D02*
X400812Y524002D01*
X400304Y523494D02*
X400304Y434594D01*
X388112Y422402D01*
X381000Y422402D01*
X491924Y776134D02*
X549496Y776134D01*
X560178Y765452D02*
X560178Y755800D01*
X560178Y765452D02*
X549496Y776134D01*
X403775Y243332D02*
X378962Y243332D01*
X403775Y243332D02*
X418084Y243332D01*
X417068Y242570D02*
X411649Y242570D01*
X403775Y243332D01*
X483542Y767752D02*
X491924Y776134D01*
X483542Y767752D02*
X444278Y767752D01*
X444278Y830834D01*
X443484Y830834D01*
X433070Y857250D02*
X443738Y867918D01*
X433070Y857250D02*
X402082Y857250D01*
X418084Y270510D02*
X418084Y243332D01*
X418084Y270510D02*
X450342Y270510D01*
X488950Y309118D01*
X552494Y582422D02*
X552494Y748116D01*
X552494Y582422D02*
X552494Y467658D01*
X517398Y432562D01*
X490220Y432562D01*
X488950Y431292D01*
X488950Y309118D01*
X552494Y748116D02*
X560178Y755800D01*
X443738Y831374D02*
X443738Y867918D01*
X443738Y831374D02*
X444278Y830834D01*
X499110Y582422D02*
X552494Y582422D01*
X491236Y627126D02*
X467360Y651002D01*
X491236Y627126D02*
X491236Y590296D01*
X498094Y583438D02*
X499110Y582422D01*
X498094Y583438D02*
X491236Y590296D01*
X498094Y583438D02*
X435102Y583438D01*
X435102Y382524D01*
X421386Y368808D01*
X400558Y651002D02*
X467360Y651002D01*
X400304Y650748D02*
X359658Y650748D01*
X400304Y650748D02*
X400558Y651002D01*
X392684Y686054D02*
X392684Y720852D01*
X356108Y720852D01*
X353060Y717804D01*
X342900Y727964D01*
X342900Y751332D01*
X292100Y810260D02*
X152400Y810260D01*
X267208Y717804D02*
X353060Y717804D01*
X510178Y734714D02*
X510178Y755800D01*
X510178Y734714D02*
X496189Y720725D01*
X392684Y720725D01*
X392684Y686054D01*
D27*
X247142Y461010D03*
X246380Y392176D03*
D26*
X297434Y243332D02*
X302762Y243332D01*
X342900Y759460D02*
X292100Y810260D01*
X342900Y759460D02*
X342900Y751332D01*
X267390Y273376D02*
X297434Y243332D01*
X267390Y273376D02*
X238843Y273376D01*
X233545Y278674D01*
X234053Y308356D02*
X234053Y379849D01*
X233545Y308356D02*
X233545Y289560D01*
X233545Y278674D01*
X233545Y308356D02*
X234053Y308356D01*
X233545Y289560D02*
X204470Y289560D01*
X203200Y290830D01*
X246882Y697478D02*
X267208Y717804D01*
X247142Y461010D02*
X291084Y461010D01*
X246882Y461270D02*
X246882Y697478D01*
X246882Y461270D02*
X247142Y461010D01*
X246380Y392176D02*
X234053Y379849D01*
M02*
