G04 EAGLE Gerber RS-274X export*
G75*
%MOMM*%
%FSLAX34Y34*%
%LPD*%
%INSilkscreen Bottom*%
%IPPOS*%
%AMOC8*
5,1,8,0,0,1.08239X$1,22.5*%
G01*
G04 Define Apertures*
%ADD10C,0.203200*%
%ADD11C,0.254000*%
D10*
X561150Y933450D02*
X561150Y920750D01*
X488400Y977300D02*
X488400Y775300D01*
X578400Y775300D02*
X578400Y854300D01*
X578400Y898300D01*
X578400Y977300D01*
X489400Y977300D01*
X488400Y775300D02*
X578400Y775300D01*
X578400Y898300D02*
X563400Y898300D01*
X563400Y854300D01*
X578400Y854300D01*
D11*
X571923Y983968D02*
X571923Y991870D01*
X571923Y983968D02*
X571925Y983875D01*
X571931Y983782D01*
X571940Y983689D01*
X571954Y983596D01*
X571971Y983505D01*
X571992Y983414D01*
X572017Y983324D01*
X572045Y983235D01*
X572077Y983147D01*
X572113Y983061D01*
X572152Y982976D01*
X572195Y982893D01*
X572241Y982812D01*
X572291Y982733D01*
X572343Y982656D01*
X572399Y982581D01*
X572458Y982509D01*
X572520Y982439D01*
X572584Y982371D01*
X572652Y982307D01*
X572722Y982245D01*
X572794Y982186D01*
X572869Y982130D01*
X572946Y982078D01*
X573025Y982028D01*
X573106Y981982D01*
X573189Y981939D01*
X573274Y981900D01*
X573360Y981864D01*
X573448Y981832D01*
X573537Y981804D01*
X573627Y981779D01*
X573718Y981758D01*
X573809Y981741D01*
X573902Y981727D01*
X573995Y981718D01*
X574088Y981712D01*
X574181Y981710D01*
X575310Y981710D01*
X565838Y989612D02*
X563016Y991870D01*
X563016Y981710D01*
X565838Y981710D02*
X560194Y981710D01*
M02*
