M48
;GenerationSoftware,Autodesk,EAGLE,9.7.0*%
;CreationDate,2022-11-21T19:56:55Z*%
FMAT,2
ICI,OFF
METRIC,TZ,000.000
T7C0.762
T6C0.813
T5C0.900
T4C1.000
T3C1.016
T2C2.000
T1C2.700
%
G90
M71
T1
X53340Y12144
X49840Y7344
X53340Y4144
X56940Y7444
X38100Y12144
X34600Y7344
X38100Y4144
X41700Y7444
X53340Y32140
X49840Y27340
X13760Y7444
X10160Y4144
X53340Y24140
X56940Y27440
X10160Y27060
X6660Y22260
X10160Y19060
X13760Y22360
X10160Y12144
X6660Y7344
T2
X34829Y91440
X26029Y91440
X57740Y49530
X48940Y49530
X48940Y68580
X57740Y68580
X13290Y49530
X4490Y49530
X4490Y68580
X13290Y68580
T3
X54610Y82550
X52070Y82550
X54610Y85090
X52070Y85090
X54610Y87630
X52070Y87630
X54610Y90170
X52070Y90170
X54610Y92710
X52070Y92710
T4
X6390Y75580
X6390Y42530
X8890Y42530
X11390Y42530
X55840Y75580
X53340Y75580
X50840Y75580
X50840Y42530
X53340Y42530
X55840Y42530
X8890Y75580
X11390Y75580
X32929Y84440
X30429Y84440
X27929Y84440
X22860Y38100
X22860Y40640
X22860Y43180
T5
X39370Y36601
X39370Y44221
T6
X21590Y30683
X21590Y23063
X21597Y16205
X21597Y8585
X21590Y5461
X29210Y5461
X45720Y53543
X45720Y61163
X44577Y18187
X44577Y25807
X45720Y38602
X53340Y38602
X43536Y43155
X43536Y50775
X41859Y32436
X6350Y39370
X41910Y15443
X49530Y15443
X34290Y75133
X34290Y82753
X13970Y80950
X6350Y80950
X30480Y82550
X30480Y74930
X10160Y59690
X17780Y59690
X17780Y25400
X17780Y33020
X10160Y29210
X10160Y36830
X21615Y46762
X21615Y54382
X25400Y21793
X25400Y14173
X43307Y94996
X26391Y36932
X34011Y36932
X43307Y87376
X34290Y44196
X36195Y42926
X34290Y41656
X30683Y41707
X28778Y42977
X30683Y44247
X33756Y65100
X33756Y62560
X33756Y60020
X33756Y57480
X33756Y54940
X33756Y52400
X26136Y54940
X26136Y52400
X26136Y57480
X26136Y60020
X33756Y49860
X26136Y49860
X26136Y62560
X26136Y65100
X30276Y16713
X30276Y19253
X30276Y21793
X30276Y24333
X30276Y26873
X30276Y29413
X37896Y26873
X37896Y29413
X37896Y24333
X37896Y21793
X30276Y31953
X37896Y31953
X37896Y19253
X37896Y16713
X25400Y25153
X25400Y30233
X39370Y55880
X39370Y60960
X6350Y36830
X17780Y38100
X17780Y35560
X24130Y68580
X21590Y68580
X41859Y24816
X27076Y73406
X27076Y70866
T7
X40894Y72517
X37313Y72568
X31445Y72593
X4394Y30658
X4394Y35103
X40818Y78384
M30