M48
;GenerationSoftware,Autodesk,EAGLE,9.7.0*%
;CreationDate,2022-11-21T07:21:09Z*%
FMAT,2
ICI,OFF
METRIC,TZ,000.000
T9C0.660
T8C0.762
T7C0.813
T6C1.000
T5C1.016
T4C1.143
T3C1.524
T2C1.651
T1C2.286
%
G90
M71
T1
X12241Y62502
X12241Y38463
X12241Y47262
X12241Y53702
T2
X5590Y19530
X5590Y70965
X12690Y71465
X1391Y24130
X1391Y75565
X5590Y87158
X12690Y87657
X12690Y20030
X1391Y91757
X1391Y7937
X12690Y3837
X5590Y3338
T3
X9290Y96957
X8290Y78165
X8290Y94358
X8290Y10538
X8290Y26730
X9290Y29330
X9290Y80765
X9290Y13137
T4
X8941Y45362
X8941Y42863
X8941Y40363
X8941Y60602
X8941Y58102
X8941Y55602
T5
X50482Y89535
X47942Y86995
X47942Y92075
X50482Y86995
X47942Y84455
X50482Y92075
X47942Y94615
X47942Y89535
X50482Y94615
X50482Y84455
T6
X37783Y71755
X40323Y74295
X42863Y71755
T7
X37783Y35560
X37783Y45720
X37783Y43180
X37783Y38100
X37783Y40640
X45402Y38100
X45402Y40640
X45402Y43180
X45402Y45720
X45402Y48260
X45402Y50800
X45402Y35560
X21273Y58420
X43180Y56515
X38100Y56515
X16192Y58420
X15875Y70803
X29252Y49742
X29252Y47583
X29252Y45424
X20955Y70803
X26352Y69850
X31432Y69850
X41593Y98425
X41593Y93345
X41910Y85725
X41910Y80645
X37783Y50800
X37783Y48260
T8
X45085Y69215
X47739Y44564
X15875Y33020
X47625Y76835
X47815Y46037
X45402Y53975
X21273Y61277
X8255Y50800
X38735Y93345
X16192Y50482
X38735Y90805
T9
X33338Y52197
X15430Y66040
X22670Y66040
X27177Y65723
X34418Y65723
X26035Y44577
X26035Y37338
X29845Y38545
X29845Y31305
X42863Y60515
X42863Y67755
X32893Y63182
X33338Y44957
X49847Y39498
X49847Y32257
X31242Y54927
X24002Y54927
X23305Y40958
X16065Y40958
X22987Y92392
X20638Y53785
X20638Y46545
X15747Y92392
X22987Y88900
X15747Y88900
X40133Y63182
M30