M48
;GenerationSoftware,Autodesk,EAGLE,9.7.0*%
;CreationDate,2022-12-21T09:26:54Z*%
FMAT,2
ICI,OFF
METRIC,TZ,000.000
T8C0.813
T7C0.889
T6C0.900
T5C1.000
T4C1.016
T3C1.118
T2C2.000
T1C2.600
%
G90
M71
T1
X10160Y12144
X13760Y7444
X10160Y4144
X6660Y7344
X53442Y12195
X49942Y7395
X53442Y4195
X57042Y7495
X13760Y22360
X10160Y19060
X38100Y12144
X34600Y7344
X38100Y4144
X41700Y7444
X53543Y27085
X50043Y22285
X53543Y19085
X57143Y22385
X10160Y27060
X6660Y22260
T2
X14611Y47066
X5811Y47066
X26613Y91440
X5760Y68580
X14560Y68580
X35413Y91440
X57994Y47041
X49194Y47041
X49118Y68580
X57918Y68580
T3
X47273Y78604
X39273Y78604
X38469Y96850
X46469Y96850
T4
X52070Y82550
X54610Y82550
X52070Y85090
X54610Y85090
X54610Y92710
X52070Y92710
X54610Y90170
X52070Y90170
X54610Y87630
X52070Y87630
T5
X51018Y75580
X10439Y56413
X53594Y40041
X56094Y40041
X53518Y75580
X56018Y75580
X12711Y40066
X10211Y40066
X7711Y40066
X7660Y75580
X10160Y75580
X12660Y75580
X51094Y40041
X33513Y84440
X31013Y84440
X28513Y84440
X5359Y56413
X7899Y56413
T6
X38100Y42240
X38100Y49860
X24638Y39218
X24714Y46101
T7
X43942Y74600
X43917Y62789
T8
X46025Y33979
X53645Y33979
X45974Y61646
X45974Y54026
X43840Y32918
X43840Y25298
X39548Y15088
X47168Y15088
X34290Y75133
X34290Y82753
X15240Y81026
X7620Y81026
X31013Y82499
X31013Y74879
X10160Y60731
X17780Y60731
X13894Y29261
X13894Y36881
X10160Y29997
X10160Y37617
X14174Y56363
X21794Y56363
X46507Y25248
X46507Y17628
X52197Y62078
X34519Y36881
X42139Y36881
X52197Y54458
X27864Y4851
X20244Y4851
X20175Y8483
X20175Y16103
X16967Y26645
X16967Y34265
X25400Y21793
X25400Y14173
X40208Y85725
X40208Y93345
X34722Y42342
X32817Y43612
X34722Y44882
X29108Y46101
X29108Y43561
X29108Y41021
X35966Y65075
X35966Y62535
X35966Y59995
X35966Y57455
X35966Y54915
X35966Y52375
X28346Y54915
X28346Y52375
X20320Y74879
X20320Y72339
X17805Y69164
X20345Y69164
X17729Y37541
X17729Y40081
X7163Y34900
X7163Y37440
X35306Y71780
X35306Y69240
X41808Y83083
X44348Y83083
X41707Y24257
X41707Y19177
X20320Y34163
X20320Y29083
X40030Y65075
X40030Y59995
X28346Y57455
X28346Y59995
X35966Y49835
X28346Y49835
X28346Y62535
X28346Y65075
X30276Y16713
X30276Y19253
X30276Y21793
X30276Y24333
X30276Y26873
X30276Y29413
X37896Y26873
X37896Y29413
X37896Y24333
X37896Y21793
X30276Y31953
X37896Y31953
X37896Y19253
X37896Y16713
X25756Y24391
X25756Y29471
X40081Y52400
X40081Y57480
X44374Y94412
X44374Y86792
X39268Y76225
X39268Y68605
M30