G04 EAGLE Gerber RS-274X export*
G75*
%MOMM*%
%FSLAX34Y34*%
%LPD*%
%INTop Copper*%
%IPPOS*%
%AMOC8*
5,1,8,0,0,1.08239X$1,22.5*%
G01*
G04 Define Apertures*
%ADD10P,1.42962X8X292.5*%
%ADD11P,1.42962X8X112.5*%
%ADD12P,1.42962X8X202.5*%
%ADD13C,1.408000*%
%ADD14C,1.930400*%
%ADD15C,1.320800*%
%ADD16C,2.476500*%
%ADD17C,2.286000*%
%ADD18P,2.03446X8X292.5*%
%ADD19P,1.81452X8X292.5*%
%ADD20P,1.81452X8X22.5*%
%ADD21P,1.42962X8X22.5*%
%ADD22P,1.81452X8X112.5*%
%ADD23C,1.700000*%
%ADD24P,1.81452X8X202.5*%
%ADD25C,1.879600*%
%ADD26C,1.500000*%
%ADD27C,1.270000*%
%ADD28C,1.524000*%
D10*
X444500Y1022350D03*
X444500Y971550D03*
D11*
X447675Y863600D03*
X447675Y914400D03*
D10*
X409575Y1022350D03*
X409575Y971550D03*
D11*
X419100Y863600D03*
X419100Y914400D03*
D12*
X530225Y574675D03*
X479425Y574675D03*
D10*
X695325Y628650D03*
X695325Y577850D03*
D13*
X495300Y301625D03*
X495300Y225425D03*
X549275Y225425D03*
X549275Y301625D03*
D14*
X622862Y1022350D03*
X542862Y1022350D03*
X531500Y914400D03*
X611500Y914400D03*
D15*
X571754Y654050D02*
X558546Y654050D01*
X558546Y628650D02*
X571754Y628650D01*
X571754Y501650D02*
X558546Y501650D01*
X634746Y501650D02*
X647954Y501650D01*
X571754Y603250D02*
X558546Y603250D01*
X558546Y577850D02*
X571754Y577850D01*
X571754Y527050D02*
X558546Y527050D01*
X558546Y552450D02*
X571754Y552450D01*
X634746Y527050D02*
X647954Y527050D01*
X647954Y552450D02*
X634746Y552450D01*
X634746Y577850D02*
X647954Y577850D01*
X647954Y603250D02*
X634746Y603250D01*
X634746Y628650D02*
X647954Y628650D01*
X647954Y654050D02*
X634746Y654050D01*
D16*
X117793Y958479D02*
X117793Y983244D01*
D17*
X175360Y996861D02*
X198220Y996861D01*
D16*
X230788Y942242D02*
X230788Y917477D01*
X172173Y924862D02*
X147408Y924862D01*
D17*
X185360Y1022860D02*
X208220Y1022860D01*
D18*
X676582Y993468D03*
X701982Y993468D03*
X676582Y968068D03*
X701982Y968068D03*
X676582Y942668D03*
X701982Y942668D03*
X676582Y917268D03*
X701982Y917268D03*
X676582Y891868D03*
X701982Y891868D03*
D16*
X117793Y844233D02*
X117793Y819468D01*
D17*
X175360Y857850D02*
X198220Y857850D01*
D16*
X230788Y803231D02*
X230788Y778466D01*
X172173Y785851D02*
X147408Y785851D01*
D17*
X185360Y883849D02*
X208220Y883849D01*
D16*
X117793Y704533D02*
X117793Y679768D01*
D17*
X175360Y718150D02*
X198220Y718150D01*
D16*
X230788Y663531D02*
X230788Y638766D01*
X172173Y646151D02*
X147408Y646151D01*
D17*
X185360Y744149D02*
X208220Y744149D01*
D16*
X117793Y558483D02*
X117793Y533718D01*
D17*
X175360Y572100D02*
X198220Y572100D01*
D16*
X230788Y517481D02*
X230788Y492716D01*
X172173Y500101D02*
X147408Y500101D01*
D17*
X185360Y598099D02*
X208220Y598099D01*
D16*
X117793Y412433D02*
X117793Y387668D01*
D17*
X175360Y426050D02*
X198220Y426050D01*
D16*
X230788Y371431D02*
X230788Y346666D01*
X172173Y354051D02*
X147408Y354051D01*
D17*
X185360Y452049D02*
X208220Y452049D01*
D16*
X117793Y266383D02*
X117793Y241618D01*
D17*
X175360Y280000D02*
X198220Y280000D01*
D16*
X230788Y225381D02*
X230788Y200616D01*
X172173Y208001D02*
X147408Y208001D01*
D17*
X185360Y305999D02*
X208220Y305999D01*
D19*
X342900Y946150D03*
X342900Y869950D03*
D20*
X349250Y203200D03*
X450850Y203200D03*
D19*
X527050Y203200D03*
X527050Y101600D03*
D21*
X273050Y203200D03*
X298450Y203200D03*
D20*
X314325Y812800D03*
X390525Y812800D03*
D22*
X333375Y669925D03*
X333375Y746125D03*
D12*
X514350Y1022350D03*
X488950Y1022350D03*
X501650Y914400D03*
X476250Y914400D03*
D23*
X647700Y114300D03*
X622300Y114300D03*
X596900Y114300D03*
D24*
X492125Y771525D03*
X390525Y771525D03*
X492748Y509651D03*
X391148Y509651D03*
D22*
X415925Y349250D03*
X415925Y450850D03*
D24*
X450850Y311150D03*
X349250Y311150D03*
D21*
X292100Y501650D03*
X317500Y501650D03*
X279400Y349250D03*
X304800Y349250D03*
D25*
X285750Y698500D03*
X285750Y673100D03*
X285750Y647700D03*
X285750Y838200D03*
X285750Y812800D03*
X285750Y787400D03*
X285750Y971550D03*
X285750Y946150D03*
X285750Y920750D03*
D26*
X508000Y717550D03*
D27*
X400050Y717550D01*
X390525Y727075D01*
D26*
X390525Y727075D03*
X450850Y685800D03*
D27*
X450850Y625475D01*
X393700Y568325D01*
D28*
X393700Y533344D03*
D27*
X393700Y568325D01*
D26*
X508000Y971550D03*
D27*
X542925Y971550D01*
X571500Y942975D01*
X571500Y866775D01*
X555625Y850900D01*
X517525Y850900D01*
D26*
X517525Y850900D03*
M02*
