G04 EAGLE Gerber RS-274X export*
G75*
%MOMM*%
%FSLAX34Y34*%
%LPD*%
%INBottom Copper*%
%IPPOS*%
%AMOC8*
5,1,8,0,0,1.08239X$1,22.5*%
G01*
G04 Define Apertures*
%ADD10C,0.508000*%
%ADD11P,1.42962X8X202.5*%
%ADD12P,1.42962X8X22.5*%
%ADD13P,1.42962X8X292.5*%
%ADD14C,1.320800*%
%ADD15P,2.03446X8X292.5*%
%ADD16C,2.476500*%
%ADD17C,2.286000*%
%ADD18C,1.260000*%
%ADD19C,1.563700*%
%ADD20P,1.81452X8X292.5*%
%ADD21R,1.879600X1.879600*%
%ADD22P,3.57405X8X202.5*%
%ADD23C,1.016000*%
%ADD24C,1.270000*%
%ADD25C,1.168400*%
G36*
X115977Y2299D02*
X113993Y1909D01*
X12347Y2531D01*
X12302Y2540D01*
X10863Y2540D01*
X10830Y2540D01*
X10806Y2540D01*
X9525Y2713D01*
X7915Y3145D01*
X5638Y4459D01*
X4459Y5638D01*
X3145Y7915D01*
X2713Y9525D01*
X2540Y10840D01*
X2540Y47946D01*
X2867Y49739D01*
X3943Y51451D01*
X5601Y52608D01*
X7580Y53026D01*
X8827Y52783D01*
X8827Y105952D01*
X7782Y105727D01*
X5789Y106066D01*
X4086Y107155D01*
X2942Y108823D01*
X2540Y110804D01*
X2540Y209871D01*
X2867Y211664D01*
X3943Y213376D01*
X5601Y214533D01*
X7580Y214951D01*
X8827Y214708D01*
X8827Y267877D01*
X7782Y267652D01*
X5789Y267991D01*
X4086Y269080D01*
X2942Y270748D01*
X2540Y272729D01*
X2540Y724221D01*
X2867Y726014D01*
X3943Y727726D01*
X5601Y728883D01*
X7580Y729301D01*
X8827Y729058D01*
X8827Y782227D01*
X7782Y782002D01*
X5789Y782341D01*
X4086Y783430D01*
X2942Y785098D01*
X2540Y787079D01*
X2540Y886146D01*
X2867Y887939D01*
X3943Y889651D01*
X5601Y890808D01*
X7580Y891226D01*
X8827Y890983D01*
X8827Y944152D01*
X7782Y943927D01*
X5789Y944266D01*
X4086Y945355D01*
X2942Y947023D01*
X2540Y949004D01*
X2540Y984313D01*
X2713Y985628D01*
X3794Y989661D01*
X5109Y991939D01*
X8062Y994891D01*
X10339Y996206D01*
X14372Y997287D01*
X15687Y997460D01*
X154423Y997460D01*
X156178Y997147D01*
X157898Y996085D01*
X159068Y994436D01*
X159502Y992461D01*
X159131Y990473D01*
X158466Y989469D01*
X157658Y987519D01*
X156585Y985900D01*
X154909Y984770D01*
X152884Y983931D01*
X149788Y980835D01*
X148112Y976789D01*
X148112Y974600D01*
X148112Y974600D01*
X148112Y962924D01*
X149272Y960124D01*
X151416Y957980D01*
X154216Y956820D01*
X157248Y956820D01*
X158303Y957257D01*
X160207Y957644D01*
X162192Y957257D01*
X163247Y956820D01*
X166279Y956820D01*
X167337Y957258D01*
X169241Y957645D01*
X171225Y957258D01*
X172284Y956820D01*
X174928Y956820D01*
X177118Y956820D01*
X180078Y958046D01*
X181981Y958433D01*
X183966Y958046D01*
X186926Y956820D01*
X189958Y956820D01*
X191014Y957257D01*
X192917Y957644D01*
X194902Y957257D01*
X195957Y956820D01*
X198989Y956820D01*
X199724Y957125D01*
X201907Y957506D01*
X203868Y957011D01*
X205479Y955790D01*
X206488Y954038D01*
X206650Y953550D01*
X207603Y952597D01*
X207849Y952334D01*
X208732Y951315D01*
X209978Y950799D01*
X210305Y950650D01*
X211511Y950047D01*
X212860Y950047D01*
X213220Y950034D01*
X214661Y949931D01*
X215371Y950047D01*
X217084Y950047D01*
X219884Y951207D01*
X222028Y953350D01*
X222166Y953684D01*
X223211Y955274D01*
X224878Y956418D01*
X226859Y956820D01*
X228018Y956820D01*
X228019Y956820D01*
X231450Y956820D01*
X237786Y959460D01*
X239747Y961437D01*
X239751Y961444D01*
X240899Y962798D01*
X242681Y963752D01*
X244695Y963935D01*
X246620Y963319D01*
X248153Y962000D01*
X250529Y958938D01*
X255006Y956785D01*
X257489Y956821D01*
X261961Y956885D01*
X266169Y958399D01*
X267595Y958912D01*
X270571Y961619D01*
X271896Y962490D01*
X273867Y962939D01*
X275858Y962585D01*
X277552Y961482D01*
X278296Y960378D01*
X280694Y957980D01*
X283494Y956820D01*
X286602Y956820D01*
X288356Y957176D01*
X290186Y956820D01*
X293375Y956820D01*
X295130Y957176D01*
X296959Y956820D01*
X300073Y956820D01*
X302104Y957661D01*
X304007Y958048D01*
X305992Y957661D01*
X308023Y956820D01*
X311054Y956820D01*
X312110Y957257D01*
X314014Y957644D01*
X315998Y957257D01*
X317054Y956820D01*
X320085Y956820D01*
X323692Y958314D01*
X323791Y958381D01*
X325769Y958799D01*
X327754Y958413D01*
X331599Y956820D01*
X336875Y956820D01*
X342503Y959151D01*
X344366Y959537D01*
X346353Y959166D01*
X348039Y958050D01*
X348109Y957980D01*
X350909Y956820D01*
X354017Y956820D01*
X355771Y957176D01*
X357600Y956820D01*
X360714Y956820D01*
X363515Y957980D01*
X365658Y960124D01*
X366950Y963242D01*
X367190Y964473D01*
X368306Y966158D01*
X368518Y966370D01*
X369981Y967390D01*
X371948Y967855D01*
X373941Y967516D01*
X375644Y966427D01*
X376788Y964759D01*
X377190Y962778D01*
X377190Y938473D01*
X376803Y936529D01*
X376428Y935623D01*
X376428Y931278D01*
X376803Y930371D01*
X377190Y928427D01*
X377190Y913073D01*
X376803Y911129D01*
X376428Y910223D01*
X376428Y905877D01*
X378091Y901863D01*
X381163Y898791D01*
X385177Y897128D01*
X389523Y897128D01*
X393537Y898791D01*
X396609Y901863D01*
X398272Y905877D01*
X398272Y910223D01*
X397897Y911129D01*
X397510Y913073D01*
X397510Y926669D01*
X397823Y928425D01*
X398885Y930145D01*
X400534Y931315D01*
X402509Y931749D01*
X404497Y931378D01*
X406182Y930261D01*
X410845Y925598D01*
X410845Y941302D01*
X406182Y936639D01*
X404719Y935619D01*
X402752Y935153D01*
X400759Y935492D01*
X399056Y936582D01*
X397912Y938249D01*
X397510Y940231D01*
X397510Y969010D01*
X397852Y970841D01*
X398941Y972544D01*
X400609Y973688D01*
X402590Y974090D01*
X407457Y974090D01*
X409364Y973719D01*
X411049Y972602D01*
X411085Y972566D01*
X420765Y972566D01*
X420801Y972602D01*
X422412Y973688D01*
X424393Y974090D01*
X435012Y974090D01*
X436919Y973719D01*
X438604Y972602D01*
X463459Y947747D01*
X464545Y946137D01*
X464947Y944155D01*
X464947Y940153D01*
X469854Y935246D01*
X470907Y933710D01*
X471341Y931735D01*
X470971Y929747D01*
X469854Y928062D01*
X467622Y925830D01*
X484505Y925830D01*
X484505Y915670D01*
X467622Y915670D01*
X471650Y911642D01*
X472703Y910106D01*
X473137Y908131D01*
X472767Y906143D01*
X471650Y904458D01*
X467622Y900430D01*
X484505Y900430D01*
X484505Y890270D01*
X467622Y890270D01*
X471650Y886242D01*
X472703Y884706D01*
X473137Y882731D01*
X472767Y880743D01*
X471650Y879058D01*
X467622Y875030D01*
X484505Y875030D01*
X484505Y864870D01*
X467622Y864870D01*
X469854Y862638D01*
X470907Y861102D01*
X471341Y859127D01*
X470971Y857140D01*
X469854Y855454D01*
X464947Y850547D01*
X464947Y846545D01*
X464576Y844638D01*
X463459Y842953D01*
X438604Y818098D01*
X436994Y817012D01*
X435012Y816610D01*
X427568Y816610D01*
X425661Y816981D01*
X423976Y818098D01*
X423940Y818134D01*
X414260Y818134D01*
X407416Y811290D01*
X407416Y801610D01*
X414260Y794766D01*
X423940Y794766D01*
X423976Y794802D01*
X425587Y795888D01*
X427568Y796290D01*
X431837Y796290D01*
X433744Y795919D01*
X435429Y794802D01*
X465514Y764717D01*
X466615Y763069D01*
X466991Y762163D01*
X470063Y759091D01*
X474077Y757428D01*
X478423Y757428D01*
X482437Y759091D01*
X485509Y762163D01*
X487172Y766177D01*
X487172Y770523D01*
X485509Y774537D01*
X482437Y777609D01*
X481531Y777985D01*
X479883Y779086D01*
X457698Y801270D01*
X456645Y802807D01*
X456211Y804782D01*
X456581Y806769D01*
X457698Y808455D01*
X477828Y828584D01*
X479438Y829670D01*
X481420Y830072D01*
X485422Y830072D01*
X488252Y832902D01*
X489863Y833988D01*
X491844Y834390D01*
X492406Y834390D01*
X494312Y834019D01*
X495998Y832902D01*
X498828Y830072D01*
X510822Y830072D01*
X519303Y838553D01*
X519303Y850547D01*
X514396Y855454D01*
X513343Y856990D01*
X512909Y858965D01*
X513279Y860953D01*
X514396Y862638D01*
X516628Y864870D01*
X499745Y864870D01*
X499745Y875030D01*
X516628Y875030D01*
X512600Y879058D01*
X511547Y880594D01*
X511113Y882569D01*
X511483Y884557D01*
X512600Y886242D01*
X516628Y890270D01*
X499745Y890270D01*
X499745Y900430D01*
X516628Y900430D01*
X512600Y904458D01*
X511547Y905994D01*
X511113Y907969D01*
X511483Y909957D01*
X512600Y911642D01*
X516628Y915670D01*
X499745Y915670D01*
X499745Y925830D01*
X516628Y925830D01*
X514396Y928062D01*
X513343Y929598D01*
X512909Y931573D01*
X513279Y933561D01*
X514396Y935246D01*
X519303Y940153D01*
X519303Y952147D01*
X510822Y960628D01*
X498828Y960628D01*
X495998Y957798D01*
X494387Y956712D01*
X492406Y956310D01*
X491844Y956310D01*
X489938Y956681D01*
X488252Y957798D01*
X485422Y960628D01*
X481420Y960628D01*
X479513Y960999D01*
X477828Y962116D01*
X451156Y988788D01*
X450136Y990251D01*
X449670Y992218D01*
X450009Y994211D01*
X451099Y995914D01*
X452766Y997058D01*
X454748Y997460D01*
X532440Y997460D01*
X533755Y997287D01*
X535087Y996930D01*
X537365Y995615D01*
X538340Y994640D01*
X539655Y992362D01*
X540012Y991030D01*
X540185Y989715D01*
X540185Y664398D01*
X539872Y662643D01*
X538810Y660922D01*
X537161Y659753D01*
X535186Y659319D01*
X533198Y659689D01*
X531513Y660806D01*
X440756Y751563D01*
X437021Y753110D01*
X413410Y753110D01*
X411504Y753481D01*
X411468Y753505D01*
X411465Y753498D01*
X405791Y755849D01*
X400659Y755849D01*
X395919Y753885D01*
X392290Y750256D01*
X390327Y745516D01*
X390327Y740384D01*
X392659Y734753D01*
X393042Y733012D01*
X393001Y732761D01*
X393044Y732770D01*
X395028Y732384D01*
X400659Y730052D01*
X405791Y730052D01*
X411422Y732384D01*
X413163Y732767D01*
X415159Y732443D01*
X416871Y731368D01*
X418027Y729709D01*
X418445Y727731D01*
X418059Y725747D01*
X415727Y720116D01*
X415727Y714984D01*
X416808Y712373D01*
X417195Y710429D01*
X417195Y695288D01*
X416882Y693532D01*
X415820Y691812D01*
X414171Y690642D01*
X412196Y690208D01*
X410208Y690579D01*
X408523Y691696D01*
X391516Y708703D01*
X390446Y710276D01*
X390028Y712254D01*
X390415Y714239D01*
X390724Y714984D01*
X390724Y720116D01*
X388391Y725747D01*
X388008Y727488D01*
X388049Y727739D01*
X388006Y727730D01*
X386022Y728116D01*
X380391Y730449D01*
X375259Y730449D01*
X370519Y728485D01*
X366890Y724856D01*
X364927Y720116D01*
X364927Y714984D01*
X367261Y709348D01*
X367263Y709346D01*
X367263Y709343D01*
X367277Y709310D01*
X367271Y709307D01*
X367665Y707365D01*
X367665Y706004D01*
X369212Y702270D01*
X389677Y681804D01*
X390763Y680194D01*
X391165Y678212D01*
X391165Y638044D01*
X390778Y636100D01*
X389945Y634089D01*
X389945Y629561D01*
X391678Y625379D01*
X394879Y622178D01*
X399061Y620445D01*
X403589Y620445D01*
X407771Y622178D01*
X410973Y625379D01*
X412705Y629561D01*
X412705Y634089D01*
X411872Y636100D01*
X411485Y638044D01*
X411485Y666261D01*
X411798Y668017D01*
X412860Y669737D01*
X414509Y670907D01*
X416484Y671341D01*
X418472Y670970D01*
X420157Y669853D01*
X422150Y667860D01*
X426351Y666120D01*
X430899Y666120D01*
X432396Y666740D01*
X434178Y667124D01*
X436171Y666785D01*
X437874Y665696D01*
X439018Y664028D01*
X439420Y662047D01*
X439420Y632314D01*
X439049Y630407D01*
X437932Y628722D01*
X426108Y616898D01*
X424460Y615797D01*
X422150Y614840D01*
X418935Y611625D01*
X418052Y609492D01*
X416951Y607844D01*
X407344Y598237D01*
X405807Y597184D01*
X403832Y596750D01*
X401845Y597120D01*
X400159Y598237D01*
X355823Y642574D01*
X354737Y644184D01*
X354335Y646166D01*
X354335Y651006D01*
X354722Y652950D01*
X355555Y654961D01*
X355555Y659489D01*
X353823Y663671D01*
X350621Y666873D01*
X346439Y668605D01*
X341911Y668605D01*
X339900Y667772D01*
X337956Y667385D01*
X336513Y667385D01*
X334606Y667756D01*
X332921Y668873D01*
X325973Y675821D01*
X324887Y677431D01*
X324485Y679413D01*
X324485Y690032D01*
X324856Y691939D01*
X325973Y693624D01*
X326009Y693660D01*
X326009Y703340D01*
X319165Y710184D01*
X309485Y710184D01*
X302641Y703340D01*
X302641Y693660D01*
X302677Y693624D01*
X303763Y692014D01*
X304165Y690032D01*
X304165Y671079D01*
X305712Y667345D01*
X324681Y648376D01*
X325570Y647807D01*
X326753Y646167D01*
X327202Y644196D01*
X326847Y642206D01*
X325744Y640511D01*
X324068Y639381D01*
X323918Y639319D01*
X321503Y636905D01*
X334005Y636905D01*
X334005Y624403D01*
X336039Y626437D01*
X337575Y627490D01*
X339550Y627924D01*
X341537Y627553D01*
X343223Y626437D01*
X384153Y585506D01*
X385174Y584043D01*
X385639Y582076D01*
X385300Y580083D01*
X384210Y578380D01*
X382543Y577236D01*
X380561Y576834D01*
X376160Y576834D01*
X369316Y569990D01*
X369316Y560310D01*
X369352Y560274D01*
X370438Y558664D01*
X370840Y556682D01*
X370840Y537215D01*
X370498Y535384D01*
X369409Y533681D01*
X367741Y532537D01*
X365760Y532135D01*
X339594Y532135D01*
X337650Y532522D01*
X335639Y533355D01*
X331111Y533355D01*
X326929Y531623D01*
X323728Y528421D01*
X321995Y524239D01*
X321995Y519711D01*
X323728Y515529D01*
X326929Y512328D01*
X331111Y510595D01*
X335639Y510595D01*
X337650Y511428D01*
X339594Y511815D01*
X354457Y511815D01*
X356288Y511473D01*
X357991Y510384D01*
X359135Y508716D01*
X359537Y506735D01*
X359537Y505676D01*
X361316Y501382D01*
X364949Y497748D01*
X365603Y497326D01*
X366772Y495677D01*
X367206Y493703D01*
X366836Y491715D01*
X365719Y490030D01*
X363469Y487780D01*
X363428Y487680D01*
X382905Y487680D01*
X382905Y477520D01*
X363428Y477520D01*
X363469Y477420D01*
X364857Y476032D01*
X365877Y474569D01*
X366343Y472602D01*
X366004Y470609D01*
X364914Y468906D01*
X363247Y467762D01*
X361265Y467360D01*
X337704Y467360D01*
X333970Y465813D01*
X328412Y460255D01*
X327055Y459349D01*
X323728Y456021D01*
X322894Y454009D01*
X321793Y452361D01*
X314651Y445219D01*
X313188Y444199D01*
X311220Y443734D01*
X309227Y444073D01*
X307524Y445162D01*
X306381Y446830D01*
X305979Y448811D01*
X305979Y459820D01*
X302556Y463242D01*
X301502Y464779D01*
X301068Y466754D01*
X301439Y468741D01*
X302556Y470427D01*
X302883Y470754D01*
X282150Y470754D01*
X282477Y470427D01*
X283531Y468890D01*
X283965Y466916D01*
X283594Y464928D01*
X282477Y463242D01*
X277928Y458693D01*
X276317Y457607D01*
X274336Y457205D01*
X258076Y457205D01*
X253875Y455465D01*
X251370Y452959D01*
X249833Y451906D01*
X247859Y451472D01*
X245871Y451843D01*
X244186Y452959D01*
X226654Y470491D01*
X223082Y474063D01*
X218937Y475780D01*
X218134Y475923D01*
X216414Y476985D01*
X215244Y478634D01*
X214810Y480609D01*
X215181Y482597D01*
X216298Y484282D01*
X249863Y517848D01*
X251410Y521582D01*
X251410Y549343D01*
X251405Y549368D01*
X251405Y551539D01*
X250572Y553550D01*
X250185Y555494D01*
X250185Y622421D01*
X248638Y626155D01*
X232084Y642710D01*
X231047Y644209D01*
X230597Y646180D01*
X230952Y648171D01*
X232055Y649865D01*
X232680Y650286D01*
X236348Y653954D01*
X238080Y658136D01*
X238080Y662664D01*
X236348Y666846D01*
X233146Y670048D01*
X231134Y670881D01*
X229486Y671982D01*
X221198Y680271D01*
X220112Y681881D01*
X219710Y683863D01*
X219710Y692785D01*
X220052Y694616D01*
X221141Y696319D01*
X222809Y697463D01*
X224790Y697865D01*
X246761Y697865D01*
X248592Y697523D01*
X250295Y696434D01*
X251439Y694766D01*
X251618Y693883D01*
X253777Y691724D01*
X254863Y690114D01*
X255265Y688132D01*
X255265Y661554D01*
X256812Y657820D01*
X260127Y654504D01*
X261213Y652894D01*
X261615Y650912D01*
X261615Y516144D01*
X263162Y512410D01*
X277567Y498005D01*
X278652Y496394D01*
X279055Y494413D01*
X279055Y491847D01*
X282477Y488425D01*
X283531Y486888D01*
X283965Y484913D01*
X283594Y482926D01*
X282477Y481240D01*
X282150Y480914D01*
X302883Y480914D01*
X302556Y481240D01*
X301502Y482777D01*
X301068Y484751D01*
X301439Y486739D01*
X302556Y488425D01*
X305979Y491847D01*
X305979Y503000D01*
X298093Y510886D01*
X295527Y510886D01*
X293621Y511257D01*
X291935Y512373D01*
X283423Y520886D01*
X282337Y522496D01*
X281935Y524478D01*
X281935Y651006D01*
X282322Y652950D01*
X283155Y654961D01*
X283155Y659489D01*
X281423Y663671D01*
X277868Y667225D01*
X277131Y667710D01*
X275987Y669377D01*
X275585Y671359D01*
X275585Y700549D01*
X275209Y702439D01*
X275209Y703340D01*
X268365Y710184D01*
X268314Y710184D01*
X266407Y710555D01*
X264722Y711672D01*
X259755Y716638D01*
X256021Y718185D01*
X218018Y718185D01*
X216111Y718556D01*
X214426Y719673D01*
X214390Y719709D01*
X204710Y719709D01*
X202093Y717092D01*
X200630Y716072D01*
X198663Y715606D01*
X196670Y715945D01*
X194967Y717035D01*
X193823Y718703D01*
X193421Y720684D01*
X193421Y792165D01*
X193720Y793882D01*
X194769Y795611D01*
X195710Y796290D01*
X194967Y796766D01*
X193823Y798434D01*
X193421Y800415D01*
X193421Y826131D01*
X193792Y828038D01*
X194909Y829723D01*
X238488Y873303D01*
X240035Y877037D01*
X240035Y882781D01*
X240422Y884725D01*
X241255Y886736D01*
X241255Y891264D01*
X240422Y893275D01*
X240035Y895219D01*
X240035Y917706D01*
X240422Y919650D01*
X241255Y921661D01*
X241255Y926189D01*
X239523Y930371D01*
X236321Y933573D01*
X232139Y935305D01*
X227611Y935305D01*
X223429Y933573D01*
X220228Y930371D01*
X218495Y926189D01*
X218495Y921661D01*
X219328Y919650D01*
X219715Y917706D01*
X219715Y895219D01*
X219328Y893275D01*
X218495Y891264D01*
X218495Y886736D01*
X218570Y886556D01*
X218956Y884693D01*
X218585Y882705D01*
X217469Y881020D01*
X176307Y839858D01*
X174844Y838838D01*
X172877Y838373D01*
X171939Y838533D01*
X172699Y837425D01*
X173101Y835443D01*
X173101Y722462D01*
X172788Y720706D01*
X171726Y718986D01*
X170077Y717816D01*
X168102Y717383D01*
X166114Y717753D01*
X164429Y718870D01*
X163590Y719709D01*
X153910Y719709D01*
X153037Y718836D01*
X151574Y717816D01*
X149607Y717350D01*
X147614Y717689D01*
X145911Y718779D01*
X144767Y720446D01*
X144365Y722428D01*
X144365Y730504D01*
X141706Y736922D01*
X136794Y741834D01*
X130376Y744493D01*
X123429Y744493D01*
X117011Y741834D01*
X112098Y736922D01*
X109440Y730504D01*
X109440Y698792D01*
X112098Y692374D01*
X117011Y687462D01*
X123429Y684803D01*
X130376Y684803D01*
X136794Y687462D01*
X139918Y690585D01*
X141381Y691605D01*
X143348Y692071D01*
X145341Y691732D01*
X147044Y690642D01*
X148188Y688975D01*
X148590Y686993D01*
X148590Y676910D01*
X148248Y675079D01*
X147159Y673376D01*
X145491Y672232D01*
X143510Y671830D01*
X86626Y671830D01*
X82425Y670090D01*
X79210Y666875D01*
X77470Y662674D01*
X77470Y658127D01*
X77591Y657834D01*
X77978Y655890D01*
X77978Y622679D01*
X77607Y620773D01*
X76490Y619087D01*
X75703Y618301D01*
X74930Y616433D01*
X74930Y595617D01*
X74991Y595469D01*
X75378Y593566D01*
X74991Y591581D01*
X74930Y591434D01*
X74930Y570617D01*
X74991Y570469D01*
X75378Y568566D01*
X74991Y566581D01*
X74930Y566434D01*
X74930Y545617D01*
X75703Y543749D01*
X76490Y542963D01*
X77576Y541352D01*
X77978Y539371D01*
X77978Y521697D01*
X77607Y519790D01*
X76490Y518105D01*
X72860Y514475D01*
X71120Y510274D01*
X71120Y505726D01*
X72860Y501525D01*
X76075Y498310D01*
X76454Y498153D01*
X78016Y497137D01*
X79172Y495478D01*
X79590Y493500D01*
X79204Y491516D01*
X77978Y488557D01*
X77978Y470279D01*
X77607Y468373D01*
X76490Y466687D01*
X75703Y465901D01*
X74930Y464033D01*
X74930Y443217D01*
X74991Y443069D01*
X75378Y441166D01*
X74991Y439181D01*
X74930Y439034D01*
X74930Y418217D01*
X74991Y418069D01*
X75378Y416166D01*
X74991Y414181D01*
X74930Y414034D01*
X74930Y393217D01*
X75703Y391349D01*
X76490Y390563D01*
X77576Y388952D01*
X77978Y386971D01*
X77978Y362343D01*
X79718Y358142D01*
X117350Y320510D01*
X121551Y318770D01*
X161920Y318770D01*
X163751Y318428D01*
X165454Y317339D01*
X166598Y315671D01*
X167000Y313690D01*
X167000Y297773D01*
X166629Y295866D01*
X165512Y294181D01*
X121377Y250046D01*
X119767Y248960D01*
X117785Y248558D01*
X111205Y248558D01*
X109450Y248871D01*
X107729Y249933D01*
X106560Y251582D01*
X106126Y253557D01*
X106496Y255545D01*
X107613Y257230D01*
X108331Y257948D01*
X110844Y264016D01*
X110844Y270584D01*
X110122Y272327D01*
X109737Y274150D01*
X110092Y276140D01*
X111195Y277835D01*
X112872Y278965D01*
X113687Y279302D01*
X118331Y283947D01*
X120844Y290015D01*
X120844Y296583D01*
X118331Y302651D01*
X113687Y307295D01*
X107618Y309809D01*
X78190Y309809D01*
X72122Y307295D01*
X67478Y302651D01*
X64964Y296583D01*
X64964Y290015D01*
X65686Y288272D01*
X66072Y286449D01*
X65717Y284459D01*
X64614Y282764D01*
X62937Y281634D01*
X62122Y281297D01*
X57478Y276652D01*
X54964Y270584D01*
X54964Y264016D01*
X57478Y257948D01*
X62122Y253304D01*
X63595Y252693D01*
X65127Y251705D01*
X66297Y250056D01*
X66731Y248081D01*
X66360Y246094D01*
X65243Y244408D01*
X47291Y226456D01*
X45744Y222722D01*
X45744Y217843D01*
X45403Y216012D01*
X44313Y214309D01*
X42646Y213165D01*
X40664Y212763D01*
X40048Y212763D01*
X33630Y210105D01*
X28718Y205192D01*
X26059Y198774D01*
X26059Y191827D01*
X28718Y185409D01*
X33630Y180497D01*
X40048Y177838D01*
X71760Y177838D01*
X78179Y180497D01*
X83091Y185409D01*
X85749Y191827D01*
X85749Y198774D01*
X83091Y205192D01*
X78179Y210105D01*
X72120Y212614D01*
X70588Y213603D01*
X69418Y215252D01*
X68985Y217227D01*
X69355Y219214D01*
X70472Y220900D01*
X76322Y226750D01*
X77933Y227836D01*
X79914Y228238D01*
X106843Y228238D01*
X108636Y227911D01*
X110348Y226835D01*
X111504Y225177D01*
X111922Y223198D01*
X111536Y221214D01*
X109440Y216154D01*
X109440Y184442D01*
X112098Y178024D01*
X117011Y173112D01*
X123429Y170453D01*
X130376Y170453D01*
X136794Y173112D01*
X141706Y178024D01*
X144365Y184442D01*
X144365Y216154D01*
X141706Y222572D01*
X136475Y227803D01*
X135752Y228270D01*
X134582Y229919D01*
X134148Y231894D01*
X134519Y233882D01*
X135636Y235567D01*
X185773Y285705D01*
X187320Y289439D01*
X187320Y409194D01*
X187633Y410950D01*
X188695Y412670D01*
X190344Y413840D01*
X192319Y414274D01*
X194307Y413903D01*
X195992Y412786D01*
X207817Y400962D01*
X211551Y399415D01*
X224941Y399415D01*
X226848Y399044D01*
X228533Y397927D01*
X229750Y396710D01*
X233951Y394970D01*
X282419Y394970D01*
X284212Y394643D01*
X285924Y393567D01*
X287081Y391909D01*
X287499Y389931D01*
X287112Y387946D01*
X287020Y387724D01*
X287020Y383176D01*
X288760Y378975D01*
X296425Y371310D01*
X300626Y369570D01*
X328337Y369570D01*
X330093Y369257D01*
X331813Y368195D01*
X332983Y366546D01*
X333417Y364571D01*
X333046Y362583D01*
X331929Y360898D01*
X295729Y324698D01*
X294119Y323612D01*
X292137Y323210D01*
X285713Y323210D01*
X283806Y323581D01*
X282121Y324698D01*
X271998Y334821D01*
X270912Y336431D01*
X270510Y338413D01*
X270510Y367156D01*
X270897Y369100D01*
X271730Y371111D01*
X271730Y375639D01*
X269998Y379821D01*
X266796Y383023D01*
X262614Y384755D01*
X258086Y384755D01*
X253904Y383023D01*
X250703Y379821D01*
X248970Y375639D01*
X248970Y371111D01*
X249803Y369100D01*
X250190Y367156D01*
X250190Y330079D01*
X251737Y326345D01*
X273645Y304437D01*
X277379Y302890D01*
X292231Y302890D01*
X294175Y302503D01*
X296186Y301670D01*
X300714Y301670D01*
X304896Y303403D01*
X308098Y306604D01*
X308931Y308616D01*
X310032Y310264D01*
X343721Y343952D01*
X345331Y345038D01*
X347313Y345440D01*
X364207Y345440D01*
X366151Y345053D01*
X368897Y343916D01*
X386753Y343916D01*
X391047Y345695D01*
X394334Y348982D01*
X395992Y352983D01*
X396925Y354455D01*
X398524Y355628D01*
X397122Y356540D01*
X395992Y358217D01*
X394312Y362273D01*
X393365Y363631D01*
X392899Y365598D01*
X393238Y367591D01*
X394328Y369294D01*
X395996Y370438D01*
X397977Y370840D01*
X400685Y370840D01*
X402516Y370498D01*
X404219Y369409D01*
X405363Y367741D01*
X405765Y365760D01*
X405765Y360161D01*
X405466Y358444D01*
X404417Y356715D01*
X402835Y355573D01*
X404219Y354688D01*
X405363Y353020D01*
X405765Y351039D01*
X405765Y331354D01*
X407312Y327620D01*
X422870Y312062D01*
X426604Y310515D01*
X498596Y310515D01*
X499071Y310712D01*
X500853Y311096D01*
X502846Y310757D01*
X504549Y309667D01*
X505693Y308000D01*
X506095Y306018D01*
X506095Y305759D01*
X505724Y303853D01*
X504607Y302167D01*
X289984Y87544D01*
X288373Y86459D01*
X286392Y86056D01*
X118142Y86056D01*
X114408Y84509D01*
X80508Y50609D01*
X78934Y49540D01*
X76956Y49121D01*
X74972Y49508D01*
X71760Y50838D01*
X40048Y50838D01*
X33630Y48180D01*
X28718Y43267D01*
X26059Y36849D01*
X26059Y29902D01*
X28718Y23484D01*
X33630Y18572D01*
X40048Y15913D01*
X71760Y15913D01*
X78179Y18572D01*
X83091Y23484D01*
X83391Y24209D01*
X84492Y25857D01*
X100768Y42132D01*
X102230Y43152D01*
X104198Y43618D01*
X106191Y43279D01*
X107894Y42189D01*
X109038Y40522D01*
X109440Y38540D01*
X109440Y22517D01*
X112098Y16099D01*
X117616Y10581D01*
X118649Y9090D01*
X119102Y7120D01*
X118751Y5129D01*
X117651Y3433D01*
X115977Y2299D01*
G37*
%LPC*%
G36*
X40048Y692188D02*
X71760Y692188D01*
X78179Y694847D01*
X83091Y699759D01*
X85749Y706177D01*
X85749Y713124D01*
X83533Y718476D01*
X83147Y720339D01*
X83517Y722326D01*
X84634Y724012D01*
X138788Y778166D01*
X140335Y781900D01*
X140335Y812837D01*
X140706Y814744D01*
X141823Y816429D01*
X164429Y839035D01*
X165892Y840056D01*
X167859Y840521D01*
X168797Y840361D01*
X168037Y841469D01*
X167635Y843451D01*
X167635Y882781D01*
X168022Y884725D01*
X168855Y886736D01*
X168855Y891264D01*
X167123Y895446D01*
X163921Y898648D01*
X159739Y900380D01*
X155211Y900380D01*
X151029Y898648D01*
X149871Y897490D01*
X148372Y896453D01*
X146401Y896004D01*
X144410Y896358D01*
X142716Y897462D01*
X141938Y898616D01*
X136794Y903759D01*
X135575Y904265D01*
X134102Y905198D01*
X132906Y906829D01*
X132441Y908796D01*
X132780Y910789D01*
X133870Y912492D01*
X135537Y913636D01*
X137519Y914038D01*
X150597Y914038D01*
X152541Y913651D01*
X155211Y912545D01*
X159739Y912545D01*
X163921Y914278D01*
X167123Y917479D01*
X168855Y921661D01*
X168855Y926189D01*
X167123Y930371D01*
X163921Y933573D01*
X159739Y935305D01*
X155211Y935305D01*
X153859Y934745D01*
X151915Y934358D01*
X115924Y934358D01*
X114093Y934700D01*
X112390Y935789D01*
X111247Y937457D01*
X110844Y939438D01*
X110844Y946859D01*
X110122Y948602D01*
X109737Y950425D01*
X110092Y952415D01*
X111195Y954110D01*
X112872Y955240D01*
X113687Y955577D01*
X118331Y960222D01*
X120844Y966290D01*
X120844Y972858D01*
X118331Y978926D01*
X113687Y983570D01*
X107618Y986084D01*
X78190Y986084D01*
X72122Y983570D01*
X67478Y978926D01*
X64964Y972858D01*
X64964Y966290D01*
X65686Y964547D01*
X66072Y962724D01*
X65717Y960734D01*
X64614Y959039D01*
X62937Y957909D01*
X62122Y957572D01*
X57478Y952927D01*
X54964Y946859D01*
X54964Y940291D01*
X57478Y934223D01*
X62122Y929579D01*
X68190Y927065D01*
X87450Y927065D01*
X89205Y926752D01*
X90925Y925690D01*
X92095Y924041D01*
X92529Y922066D01*
X92158Y920079D01*
X91042Y918393D01*
X63175Y890526D01*
X61564Y889440D01*
X59582Y889038D01*
X40048Y889038D01*
X33630Y886380D01*
X28718Y881467D01*
X26059Y875049D01*
X26059Y868102D01*
X28718Y861684D01*
X33630Y856772D01*
X40048Y854113D01*
X71760Y854113D01*
X78179Y856772D01*
X83091Y861684D01*
X85749Y868102D01*
X85749Y875049D01*
X84320Y878500D01*
X83934Y880363D01*
X84305Y882350D01*
X85421Y884036D01*
X102430Y901045D01*
X103856Y902048D01*
X105820Y902529D01*
X107816Y902205D01*
X109527Y901130D01*
X110684Y899471D01*
X111102Y897493D01*
X110716Y895509D01*
X109440Y892429D01*
X109440Y860717D01*
X112098Y854299D01*
X117011Y849387D01*
X123429Y846728D01*
X131120Y846728D01*
X132876Y846415D01*
X134596Y845353D01*
X135766Y843704D01*
X136200Y841729D01*
X135829Y839741D01*
X134712Y838056D01*
X121562Y824905D01*
X121200Y824032D01*
X120184Y822471D01*
X118525Y821314D01*
X116547Y820896D01*
X114563Y821282D01*
X107618Y824159D01*
X78190Y824159D01*
X72122Y821645D01*
X67478Y817001D01*
X64964Y810933D01*
X64964Y804365D01*
X65686Y802622D01*
X66072Y800799D01*
X65717Y798809D01*
X64614Y797114D01*
X62937Y795984D01*
X62122Y795647D01*
X57478Y791002D01*
X54964Y784934D01*
X54964Y778366D01*
X57478Y772298D01*
X62122Y767654D01*
X68190Y765140D01*
X84761Y765140D01*
X86517Y764827D01*
X88237Y763765D01*
X89407Y762116D01*
X89841Y760141D01*
X89470Y758154D01*
X88353Y756468D01*
X60486Y728601D01*
X58876Y727515D01*
X56894Y727113D01*
X40048Y727113D01*
X33630Y724455D01*
X28718Y719542D01*
X26059Y713124D01*
X26059Y706177D01*
X28718Y699759D01*
X33630Y694847D01*
X40048Y692188D01*
G37*
G36*
X18987Y922655D02*
X28829Y922655D01*
X28829Y932926D01*
X26557Y938410D01*
X22359Y942608D01*
X18987Y944005D01*
X18987Y922655D01*
G37*
G36*
X421005Y938530D02*
X423777Y938530D01*
X421005Y941302D01*
X421005Y938530D01*
G37*
G36*
X421005Y928370D02*
X421005Y925598D01*
X423777Y928370D01*
X421005Y928370D01*
G37*
G36*
X18987Y912495D02*
X18987Y891145D01*
X22359Y892542D01*
X26557Y896740D01*
X28829Y902224D01*
X28829Y912495D01*
X18987Y912495D01*
G37*
G36*
X292881Y861695D02*
X295295Y861695D01*
X295295Y861695D01*
X298727Y861695D01*
X305062Y864335D01*
X306503Y865788D01*
X308017Y866840D01*
X309989Y867289D01*
X311979Y866934D01*
X313673Y865831D01*
X313781Y865671D01*
X316597Y862855D01*
X319398Y861695D01*
X323558Y861695D01*
X326428Y862884D01*
X328331Y863270D01*
X330316Y862884D01*
X333186Y861695D01*
X336217Y861695D01*
X339018Y862855D01*
X341161Y864999D01*
X342321Y867799D01*
X342321Y878811D01*
X342677Y880680D01*
X343780Y882374D01*
X344028Y882541D01*
X346806Y885319D01*
X347966Y888119D01*
X347966Y891151D01*
X346806Y893951D01*
X344662Y896095D01*
X341861Y897255D01*
X327541Y897255D01*
X324740Y896095D01*
X322597Y893951D01*
X321437Y891151D01*
X321437Y888119D01*
X322749Y884951D01*
X323135Y883128D01*
X322780Y881138D01*
X321677Y879443D01*
X320000Y878313D01*
X315856Y876597D01*
X314351Y876229D01*
X312342Y876459D01*
X310582Y877454D01*
X309350Y879057D01*
X308840Y881013D01*
X309124Y882946D01*
X309124Y887533D01*
X307276Y891994D01*
X303862Y895407D01*
X299402Y897255D01*
X294378Y897255D01*
X289424Y895604D01*
X287852Y894425D01*
X285108Y890994D01*
X284481Y887320D01*
X285354Y884820D01*
X285636Y883306D01*
X285297Y881313D01*
X284208Y879610D01*
X282540Y878466D01*
X280559Y878064D01*
X280424Y878064D01*
X277624Y876904D01*
X275480Y874760D01*
X274320Y871960D01*
X274320Y867799D01*
X275480Y864999D01*
X277624Y862855D01*
X280424Y861695D01*
X284585Y861695D01*
X286789Y862608D01*
X288692Y862994D01*
X290677Y862608D01*
X292881Y861695D01*
G37*
G36*
X424180Y862330D02*
X426952Y862330D01*
X424180Y865102D01*
X424180Y862330D01*
G37*
G36*
X411248Y862330D02*
X414020Y862330D01*
X414020Y865102D01*
X411248Y862330D01*
G37*
G36*
X424180Y852170D02*
X424180Y849398D01*
X426952Y852170D01*
X424180Y852170D01*
G37*
G36*
X411248Y852170D02*
X414020Y849398D01*
X414020Y852170D01*
X411248Y852170D01*
G37*
G36*
X375222Y788625D02*
X375874Y788579D01*
X376878Y788779D01*
X377462Y789071D01*
X378128Y789346D01*
X378748Y789553D01*
X379599Y790122D01*
X380027Y790616D01*
X380536Y791125D01*
X381030Y791553D01*
X381599Y792404D01*
X381805Y793024D01*
X382081Y793690D01*
X382373Y794274D01*
X382597Y795399D01*
X389343Y815638D01*
X389128Y818662D01*
X387773Y821373D01*
X385483Y823360D01*
X382607Y824318D01*
X379583Y824103D01*
X377134Y822879D01*
X374542Y822352D01*
X372590Y822879D01*
X370140Y824103D01*
X367117Y824318D01*
X363520Y823119D01*
X361954Y822859D01*
X359969Y823245D01*
X357592Y824230D01*
X356890Y824230D01*
X355179Y824230D01*
X355178Y824230D01*
X349147Y824230D01*
X348007Y823758D01*
X346104Y823371D01*
X344119Y823758D01*
X342980Y824230D01*
X330917Y824230D01*
X328117Y823070D01*
X326907Y821860D01*
X325695Y820964D01*
X323756Y820392D01*
X321747Y820620D01*
X319987Y821615D01*
X317975Y823360D01*
X315099Y824318D01*
X312075Y824103D01*
X309625Y822879D01*
X307034Y822352D01*
X305082Y822879D01*
X302632Y824103D01*
X299609Y824318D01*
X296733Y823360D01*
X294443Y821373D01*
X293888Y820265D01*
X292994Y819002D01*
X291326Y817859D01*
X289345Y817457D01*
X285453Y817457D01*
X282134Y816082D01*
X280231Y815696D01*
X278246Y816082D01*
X274928Y817457D01*
X265123Y817457D01*
X264092Y817029D01*
X261906Y816648D01*
X259946Y817145D01*
X259225Y817491D01*
X256741Y817456D01*
X256741Y817456D01*
X254645Y817426D01*
X250553Y816517D01*
X248642Y815656D01*
X248642Y815656D01*
X247260Y815034D01*
X245182Y812826D01*
X244005Y809720D01*
X243760Y808288D01*
X242670Y806585D01*
X241003Y805441D01*
X240654Y805370D01*
X236856Y803797D01*
X236472Y803495D01*
X234574Y802800D01*
X232555Y802900D01*
X230734Y803781D01*
X229402Y805301D01*
X228768Y807221D01*
X228933Y809236D01*
X229568Y811429D01*
X229234Y814442D01*
X227771Y817098D01*
X221492Y822121D01*
X221074Y822496D01*
X220385Y823185D01*
X219915Y823462D01*
X218980Y823733D01*
X218449Y823919D01*
X217549Y824292D01*
X217009Y824369D01*
X216041Y824261D01*
X215480Y824230D01*
X214505Y824230D01*
X213977Y824094D01*
X213124Y823624D01*
X212617Y823381D01*
X211717Y823008D01*
X211281Y822680D01*
X210672Y821919D01*
X210298Y821501D01*
X209609Y820812D01*
X209331Y820342D01*
X209060Y819406D01*
X208874Y818876D01*
X208501Y817976D01*
X208425Y817436D01*
X208532Y816468D01*
X208563Y815907D01*
X208563Y807114D01*
X208207Y805245D01*
X207104Y803551D01*
X206856Y803384D01*
X204079Y800606D01*
X203194Y798471D01*
X202261Y796999D01*
X201292Y796288D01*
X202064Y795786D01*
X203194Y794109D01*
X204079Y791974D01*
X206222Y789830D01*
X209023Y788670D01*
X223343Y788670D01*
X226144Y789830D01*
X228006Y791692D01*
X229543Y792746D01*
X231517Y793180D01*
X233505Y792809D01*
X235191Y791692D01*
X237053Y789830D01*
X239854Y788670D01*
X244014Y788670D01*
X245678Y789359D01*
X247863Y789740D01*
X249823Y789244D01*
X251089Y788635D01*
X253572Y788671D01*
X258044Y788735D01*
X262252Y790249D01*
X263944Y790858D01*
X265583Y791157D01*
X267570Y790786D01*
X268878Y789920D01*
X271896Y788670D01*
X274928Y788670D01*
X276438Y789295D01*
X278341Y789682D01*
X280326Y789295D01*
X281836Y788670D01*
X291185Y788670D01*
X295239Y790349D01*
X297096Y791528D01*
X299097Y791821D01*
X301053Y791310D01*
X302498Y790199D01*
X302514Y790190D01*
X303468Y789553D01*
X304088Y789346D01*
X304753Y789071D01*
X305338Y788779D01*
X306342Y788579D01*
X306994Y788625D01*
X307714Y788625D01*
X308366Y788579D01*
X309370Y788779D01*
X309954Y789071D01*
X310619Y789346D01*
X311240Y789553D01*
X312091Y790122D01*
X312519Y790616D01*
X313028Y791125D01*
X313522Y791553D01*
X314091Y792404D01*
X314297Y793024D01*
X314573Y793690D01*
X314865Y794274D01*
X315089Y795399D01*
X317177Y801662D01*
X318291Y803531D01*
X319940Y804701D01*
X321915Y805135D01*
X323902Y804764D01*
X325588Y803648D01*
X328117Y801119D01*
X330708Y800046D01*
X332298Y799001D01*
X333442Y797334D01*
X333844Y795352D01*
X333844Y794774D01*
X335004Y791974D01*
X337148Y789830D01*
X339948Y788670D01*
X342980Y788670D01*
X344119Y789142D01*
X346023Y789529D01*
X348007Y789142D01*
X349147Y788670D01*
X357592Y788670D01*
X362053Y790518D01*
X362335Y790800D01*
X364206Y791988D01*
X366207Y792280D01*
X368163Y791770D01*
X369765Y790537D01*
X370125Y790122D01*
X370976Y789553D01*
X371596Y789346D01*
X372261Y789071D01*
X372846Y788779D01*
X373850Y788579D01*
X374502Y788625D01*
X375222Y788625D01*
G37*
G36*
X18987Y760730D02*
X28829Y760730D01*
X28829Y771001D01*
X26557Y776485D01*
X22359Y780683D01*
X18987Y782080D01*
X18987Y760730D01*
G37*
G36*
X18987Y750570D02*
X18987Y729220D01*
X22359Y730617D01*
X26557Y734815D01*
X28829Y740299D01*
X28829Y750570D01*
X18987Y750570D01*
G37*
G36*
X321503Y626745D02*
X323845Y624403D01*
X323845Y626745D01*
X321503Y626745D01*
G37*
G36*
X305003Y554355D02*
X307345Y554355D01*
X307345Y556697D01*
X305003Y554355D01*
G37*
G36*
X317505Y554355D02*
X319847Y554355D01*
X317505Y556697D01*
X317505Y554355D01*
G37*
G36*
X317505Y544195D02*
X317505Y541853D01*
X319847Y544195D01*
X317505Y544195D01*
G37*
G36*
X305003Y544195D02*
X307345Y541853D01*
X307345Y544195D01*
X305003Y544195D01*
G37*
G36*
X18987Y246380D02*
X28829Y246380D01*
X28829Y256651D01*
X26557Y262135D01*
X22359Y266333D01*
X18987Y267730D01*
X18987Y246380D01*
G37*
G36*
X18987Y236220D02*
X18987Y214870D01*
X22359Y216267D01*
X26557Y220465D01*
X28829Y225949D01*
X28829Y236220D01*
X18987Y236220D01*
G37*
G36*
X68190Y88865D02*
X97618Y88865D01*
X103687Y91379D01*
X108331Y96023D01*
X110844Y102091D01*
X110844Y108659D01*
X110122Y110402D01*
X109737Y112225D01*
X110092Y114215D01*
X111195Y115910D01*
X112872Y117040D01*
X113687Y117377D01*
X118331Y122022D01*
X120844Y128090D01*
X120844Y134658D01*
X118331Y140726D01*
X113687Y145370D01*
X107618Y147884D01*
X78190Y147884D01*
X72122Y145370D01*
X67478Y140726D01*
X64964Y134658D01*
X64964Y128090D01*
X65686Y126347D01*
X66072Y124524D01*
X65717Y122534D01*
X64614Y120839D01*
X62937Y119709D01*
X62122Y119372D01*
X57478Y114727D01*
X54964Y108659D01*
X54964Y102091D01*
X57478Y96023D01*
X62122Y91379D01*
X68190Y88865D01*
G37*
G36*
X18987Y84455D02*
X28829Y84455D01*
X28829Y94726D01*
X26557Y100210D01*
X22359Y104408D01*
X18987Y105805D01*
X18987Y84455D01*
G37*
G36*
X18987Y74295D02*
X18987Y52945D01*
X22359Y54342D01*
X26557Y58540D01*
X28829Y64024D01*
X28829Y74295D01*
X18987Y74295D01*
G37*
%LPD*%
D10*
X362585Y971213D02*
X349038Y971213D01*
X349038Y977987D02*
X362585Y977987D01*
X359198Y984760D02*
X359198Y964440D01*
X352425Y964440D02*
X352425Y984760D01*
X339881Y979116D02*
X339881Y970084D01*
X339881Y979116D02*
X339879Y979265D01*
X339873Y979414D01*
X339863Y979563D01*
X339850Y979711D01*
X339832Y979859D01*
X339810Y980006D01*
X339785Y980153D01*
X339756Y980299D01*
X339722Y980444D01*
X339685Y980589D01*
X339645Y980732D01*
X339600Y980874D01*
X339552Y981015D01*
X339500Y981155D01*
X339444Y981293D01*
X339385Y981430D01*
X339322Y981565D01*
X339256Y981698D01*
X339186Y981830D01*
X339112Y981959D01*
X339036Y982087D01*
X338956Y982213D01*
X338872Y982336D01*
X338786Y982458D01*
X338696Y982576D01*
X338603Y982693D01*
X338507Y982807D01*
X338408Y982918D01*
X338306Y983027D01*
X338201Y983133D01*
X338094Y983236D01*
X337984Y983337D01*
X337871Y983434D01*
X337756Y983529D01*
X337638Y983620D01*
X337518Y983708D01*
X337396Y983793D01*
X337271Y983875D01*
X337145Y983953D01*
X337016Y984028D01*
X336885Y984100D01*
X336753Y984168D01*
X336619Y984233D01*
X336483Y984294D01*
X336345Y984352D01*
X336206Y984405D01*
X336066Y984455D01*
X335924Y984502D01*
X335782Y984545D01*
X335638Y984583D01*
X335493Y984618D01*
X335347Y984650D01*
X335201Y984677D01*
X335054Y984701D01*
X334906Y984720D01*
X334758Y984736D01*
X334609Y984748D01*
X334460Y984756D01*
X334311Y984760D01*
X334163Y984760D01*
X334014Y984756D01*
X333865Y984748D01*
X333716Y984736D01*
X333568Y984720D01*
X333420Y984701D01*
X333273Y984677D01*
X333127Y984650D01*
X332981Y984618D01*
X332836Y984583D01*
X332692Y984545D01*
X332550Y984502D01*
X332408Y984455D01*
X332268Y984405D01*
X332129Y984352D01*
X331991Y984294D01*
X331855Y984233D01*
X331721Y984168D01*
X331589Y984100D01*
X331458Y984028D01*
X331329Y983953D01*
X331203Y983875D01*
X331078Y983793D01*
X330956Y983708D01*
X330836Y983620D01*
X330718Y983529D01*
X330603Y983434D01*
X330490Y983337D01*
X330380Y983236D01*
X330273Y983133D01*
X330168Y983027D01*
X330066Y982918D01*
X329967Y982807D01*
X329871Y982693D01*
X329778Y982576D01*
X329688Y982458D01*
X329602Y982336D01*
X329518Y982213D01*
X329438Y982087D01*
X329362Y981959D01*
X329288Y981830D01*
X329218Y981698D01*
X329152Y981565D01*
X329089Y981430D01*
X329030Y981293D01*
X328974Y981155D01*
X328922Y981015D01*
X328874Y980874D01*
X328829Y980732D01*
X328789Y980589D01*
X328752Y980444D01*
X328718Y980299D01*
X328689Y980153D01*
X328664Y980006D01*
X328642Y979859D01*
X328624Y979711D01*
X328611Y979563D01*
X328601Y979414D01*
X328595Y979265D01*
X328593Y979116D01*
X328593Y970084D01*
X328595Y969935D01*
X328601Y969786D01*
X328611Y969637D01*
X328624Y969489D01*
X328642Y969341D01*
X328664Y969194D01*
X328689Y969047D01*
X328718Y968901D01*
X328752Y968756D01*
X328789Y968611D01*
X328829Y968468D01*
X328874Y968326D01*
X328922Y968185D01*
X328974Y968045D01*
X329030Y967907D01*
X329089Y967770D01*
X329152Y967635D01*
X329218Y967502D01*
X329288Y967370D01*
X329362Y967241D01*
X329438Y967113D01*
X329518Y966987D01*
X329602Y966864D01*
X329688Y966742D01*
X329778Y966624D01*
X329871Y966507D01*
X329967Y966393D01*
X330066Y966282D01*
X330168Y966173D01*
X330273Y966067D01*
X330380Y965964D01*
X330490Y965863D01*
X330603Y965766D01*
X330718Y965671D01*
X330836Y965580D01*
X330956Y965492D01*
X331078Y965407D01*
X331203Y965325D01*
X331329Y965247D01*
X331458Y965172D01*
X331589Y965100D01*
X331721Y965032D01*
X331855Y964967D01*
X331991Y964906D01*
X332129Y964848D01*
X332268Y964795D01*
X332408Y964745D01*
X332550Y964698D01*
X332692Y964655D01*
X332836Y964617D01*
X332981Y964582D01*
X333127Y964550D01*
X333273Y964523D01*
X333420Y964499D01*
X333568Y964480D01*
X333716Y964464D01*
X333865Y964452D01*
X334014Y964444D01*
X334163Y964440D01*
X334311Y964440D01*
X334460Y964444D01*
X334609Y964452D01*
X334758Y964464D01*
X334906Y964480D01*
X335054Y964499D01*
X335201Y964523D01*
X335347Y964550D01*
X335493Y964582D01*
X335638Y964617D01*
X335782Y964655D01*
X335924Y964698D01*
X336066Y964745D01*
X336206Y964795D01*
X336345Y964848D01*
X336483Y964906D01*
X336619Y964967D01*
X336753Y965032D01*
X336885Y965100D01*
X337016Y965172D01*
X337145Y965247D01*
X337271Y965325D01*
X337396Y965407D01*
X337518Y965492D01*
X337638Y965580D01*
X337756Y965671D01*
X337871Y965766D01*
X337984Y965863D01*
X338094Y965964D01*
X338201Y966067D01*
X338306Y966173D01*
X338408Y966282D01*
X338507Y966393D01*
X338603Y966507D01*
X338696Y966624D01*
X338786Y966742D01*
X338872Y966864D01*
X338956Y966987D01*
X339036Y967113D01*
X339112Y967241D01*
X339186Y967370D01*
X339256Y967502D01*
X339322Y967635D01*
X339385Y967770D01*
X339444Y967907D01*
X339500Y968045D01*
X339552Y968185D01*
X339600Y968326D01*
X339645Y968468D01*
X339685Y968611D01*
X339722Y968756D01*
X339756Y968901D01*
X339785Y969047D01*
X339810Y969194D01*
X339832Y969341D01*
X339850Y969489D01*
X339863Y969637D01*
X339873Y969786D01*
X339879Y969935D01*
X339881Y970084D01*
X318570Y964440D02*
X318570Y984760D01*
X318570Y977987D02*
X312925Y977987D01*
X312809Y977985D01*
X312694Y977979D01*
X312579Y977969D01*
X312464Y977955D01*
X312350Y977938D01*
X312236Y977916D01*
X312123Y977891D01*
X312011Y977861D01*
X311900Y977828D01*
X311791Y977791D01*
X311682Y977751D01*
X311576Y977707D01*
X311470Y977659D01*
X311367Y977607D01*
X311265Y977552D01*
X311165Y977494D01*
X311067Y977432D01*
X310972Y977367D01*
X310878Y977299D01*
X310788Y977227D01*
X310699Y977153D01*
X310613Y977075D01*
X310530Y976995D01*
X310450Y976912D01*
X310372Y976826D01*
X310298Y976738D01*
X310226Y976647D01*
X310158Y976553D01*
X310093Y976458D01*
X310031Y976360D01*
X309973Y976260D01*
X309918Y976158D01*
X309866Y976055D01*
X309818Y975949D01*
X309774Y975843D01*
X309734Y975734D01*
X309697Y975625D01*
X309664Y975514D01*
X309634Y975402D01*
X309609Y975289D01*
X309587Y975176D01*
X309570Y975061D01*
X309556Y974946D01*
X309546Y974831D01*
X309540Y974716D01*
X309538Y974600D01*
X309539Y974600D02*
X309539Y964440D01*
X298557Y964440D02*
X298557Y977987D01*
X288397Y977987D01*
X288281Y977985D01*
X288166Y977979D01*
X288051Y977969D01*
X287936Y977955D01*
X287822Y977938D01*
X287708Y977916D01*
X287595Y977891D01*
X287483Y977861D01*
X287372Y977828D01*
X287263Y977791D01*
X287154Y977751D01*
X287048Y977707D01*
X286942Y977659D01*
X286839Y977607D01*
X286737Y977552D01*
X286637Y977494D01*
X286539Y977432D01*
X286444Y977367D01*
X286350Y977299D01*
X286260Y977227D01*
X286171Y977153D01*
X286085Y977075D01*
X286002Y976995D01*
X285922Y976912D01*
X285844Y976826D01*
X285770Y976738D01*
X285698Y976647D01*
X285630Y976553D01*
X285565Y976458D01*
X285503Y976360D01*
X285445Y976260D01*
X285390Y976158D01*
X285338Y976055D01*
X285290Y975949D01*
X285246Y975843D01*
X285206Y975734D01*
X285169Y975625D01*
X285136Y975514D01*
X285106Y975402D01*
X285081Y975289D01*
X285059Y975176D01*
X285042Y975061D01*
X285028Y974946D01*
X285018Y974831D01*
X285012Y974716D01*
X285010Y974600D01*
X285010Y964440D01*
X291784Y964440D02*
X291784Y977987D01*
X275946Y988147D02*
X271431Y984760D01*
X261896Y972342D02*
X256251Y970084D01*
X261896Y972342D02*
X261995Y972384D01*
X262091Y972429D01*
X262187Y972477D01*
X262280Y972530D01*
X262371Y972585D01*
X262461Y972644D01*
X262548Y972706D01*
X262633Y972771D01*
X262715Y972839D01*
X262795Y972910D01*
X262872Y972984D01*
X262947Y973060D01*
X263018Y973140D01*
X263087Y973222D01*
X263152Y973306D01*
X263215Y973393D01*
X263274Y973482D01*
X263330Y973573D01*
X263383Y973666D01*
X263432Y973761D01*
X263478Y973857D01*
X263520Y973956D01*
X263558Y974055D01*
X263593Y974156D01*
X263624Y974259D01*
X263652Y974362D01*
X263675Y974466D01*
X263695Y974571D01*
X263711Y974677D01*
X263723Y974783D01*
X263731Y974890D01*
X263735Y974996D01*
X263736Y975103D01*
X263732Y975210D01*
X263725Y975317D01*
X263713Y975423D01*
X263698Y975529D01*
X263679Y975634D01*
X263656Y975738D01*
X263630Y975842D01*
X263599Y975944D01*
X263565Y976046D01*
X263527Y976146D01*
X263486Y976244D01*
X263441Y976341D01*
X263392Y976436D01*
X263340Y976530D01*
X263285Y976621D01*
X263226Y976711D01*
X263164Y976798D01*
X263099Y976883D01*
X263031Y976965D01*
X262960Y977045D01*
X262886Y977122D01*
X262810Y977196D01*
X262730Y977268D01*
X262648Y977337D01*
X262564Y977402D01*
X262477Y977465D01*
X262388Y977524D01*
X262297Y977580D01*
X262204Y977633D01*
X262110Y977682D01*
X262013Y977728D01*
X261915Y977770D01*
X261815Y977809D01*
X261714Y977844D01*
X261612Y977875D01*
X261509Y977902D01*
X261404Y977926D01*
X261299Y977946D01*
X261194Y977962D01*
X261087Y977974D01*
X260981Y977982D01*
X260874Y977986D01*
X260767Y977987D01*
X260459Y977979D01*
X260151Y977963D01*
X259843Y977940D01*
X259537Y977910D01*
X259231Y977872D01*
X258926Y977827D01*
X258622Y977775D01*
X258320Y977715D01*
X258019Y977648D01*
X257719Y977574D01*
X257422Y977493D01*
X257127Y977405D01*
X256834Y977309D01*
X256543Y977207D01*
X256255Y977097D01*
X255969Y976981D01*
X255687Y976858D01*
X256251Y970085D02*
X256152Y970043D01*
X256056Y969998D01*
X255960Y969950D01*
X255867Y969897D01*
X255776Y969842D01*
X255686Y969783D01*
X255599Y969721D01*
X255514Y969656D01*
X255432Y969588D01*
X255352Y969517D01*
X255275Y969443D01*
X255200Y969367D01*
X255129Y969287D01*
X255060Y969205D01*
X254995Y969121D01*
X254932Y969034D01*
X254873Y968945D01*
X254817Y968854D01*
X254764Y968761D01*
X254715Y968666D01*
X254669Y968570D01*
X254627Y968471D01*
X254589Y968372D01*
X254554Y968271D01*
X254523Y968168D01*
X254495Y968065D01*
X254472Y967961D01*
X254452Y967856D01*
X254436Y967750D01*
X254424Y967644D01*
X254416Y967537D01*
X254412Y967431D01*
X254411Y967324D01*
X254415Y967217D01*
X254422Y967110D01*
X254434Y967004D01*
X254449Y966898D01*
X254468Y966793D01*
X254491Y966689D01*
X254517Y966585D01*
X254548Y966483D01*
X254582Y966381D01*
X254620Y966281D01*
X254661Y966183D01*
X254706Y966086D01*
X254755Y965991D01*
X254807Y965897D01*
X254862Y965806D01*
X254921Y965716D01*
X254983Y965629D01*
X255048Y965544D01*
X255116Y965462D01*
X255187Y965382D01*
X255261Y965305D01*
X255337Y965231D01*
X255417Y965159D01*
X255499Y965090D01*
X255583Y965025D01*
X255670Y964962D01*
X255759Y964903D01*
X255850Y964847D01*
X255943Y964794D01*
X256037Y964745D01*
X256134Y964699D01*
X256232Y964657D01*
X256332Y964618D01*
X256433Y964583D01*
X256535Y964552D01*
X256638Y964525D01*
X256743Y964501D01*
X256848Y964481D01*
X256953Y964465D01*
X257060Y964453D01*
X257166Y964445D01*
X257273Y964441D01*
X257380Y964440D01*
X257832Y964452D01*
X258285Y964474D01*
X258736Y964508D01*
X259187Y964551D01*
X259636Y964606D01*
X260084Y964671D01*
X260531Y964747D01*
X260975Y964833D01*
X261418Y964930D01*
X261858Y965037D01*
X262295Y965155D01*
X262729Y965282D01*
X263161Y965421D01*
X263588Y965569D01*
X228018Y964440D02*
X227887Y964442D01*
X227755Y964448D01*
X227624Y964457D01*
X227494Y964471D01*
X227363Y964488D01*
X227234Y964509D01*
X227105Y964533D01*
X226977Y964562D01*
X226849Y964594D01*
X226723Y964630D01*
X226598Y964669D01*
X226473Y964712D01*
X226351Y964759D01*
X226229Y964809D01*
X226109Y964863D01*
X225991Y964920D01*
X225875Y964981D01*
X225760Y965045D01*
X225647Y965112D01*
X225536Y965183D01*
X225428Y965257D01*
X225321Y965334D01*
X225217Y965414D01*
X225115Y965497D01*
X225016Y965582D01*
X224919Y965671D01*
X224825Y965763D01*
X224733Y965857D01*
X224644Y965954D01*
X224559Y966053D01*
X224476Y966155D01*
X224396Y966259D01*
X224319Y966366D01*
X224245Y966474D01*
X224174Y966585D01*
X224107Y966698D01*
X224043Y966813D01*
X223982Y966929D01*
X223925Y967047D01*
X223871Y967167D01*
X223821Y967289D01*
X223774Y967411D01*
X223731Y967536D01*
X223692Y967661D01*
X223656Y967787D01*
X223624Y967915D01*
X223595Y968043D01*
X223571Y968172D01*
X223550Y968301D01*
X223533Y968432D01*
X223519Y968562D01*
X223510Y968693D01*
X223504Y968825D01*
X223502Y968956D01*
X228018Y964440D02*
X228246Y964443D01*
X228474Y964451D01*
X228702Y964465D01*
X228930Y964484D01*
X229156Y964508D01*
X229383Y964538D01*
X229608Y964573D01*
X229833Y964614D01*
X230056Y964660D01*
X230279Y964712D01*
X230500Y964768D01*
X230719Y964830D01*
X230937Y964898D01*
X231154Y964970D01*
X231369Y965048D01*
X231581Y965131D01*
X231792Y965218D01*
X232000Y965311D01*
X232207Y965409D01*
X232411Y965512D01*
X232612Y965619D01*
X232811Y965731D01*
X233006Y965848D01*
X233200Y965970D01*
X233390Y966096D01*
X233577Y966227D01*
X233761Y966362D01*
X233941Y966502D01*
X234118Y966646D01*
X234292Y966794D01*
X234462Y966946D01*
X234629Y967102D01*
X234791Y967262D01*
X234228Y980244D02*
X234226Y980375D01*
X234220Y980507D01*
X234211Y980638D01*
X234197Y980768D01*
X234180Y980899D01*
X234159Y981028D01*
X234135Y981157D01*
X234106Y981285D01*
X234074Y981413D01*
X234038Y981539D01*
X233999Y981664D01*
X233956Y981789D01*
X233909Y981911D01*
X233859Y982033D01*
X233805Y982153D01*
X233748Y982271D01*
X233687Y982387D01*
X233623Y982502D01*
X233556Y982615D01*
X233485Y982726D01*
X233411Y982834D01*
X233334Y982941D01*
X233254Y983045D01*
X233171Y983147D01*
X233086Y983246D01*
X232997Y983343D01*
X232905Y983437D01*
X232811Y983529D01*
X232714Y983618D01*
X232615Y983703D01*
X232513Y983786D01*
X232409Y983866D01*
X232302Y983943D01*
X232194Y984017D01*
X232083Y984088D01*
X231970Y984155D01*
X231855Y984219D01*
X231739Y984280D01*
X231621Y984337D01*
X231501Y984391D01*
X231379Y984441D01*
X231257Y984488D01*
X231132Y984531D01*
X231007Y984570D01*
X230881Y984606D01*
X230753Y984638D01*
X230625Y984667D01*
X230496Y984691D01*
X230367Y984712D01*
X230236Y984729D01*
X230106Y984743D01*
X229975Y984752D01*
X229843Y984758D01*
X229712Y984760D01*
X229510Y984758D01*
X229309Y984750D01*
X229107Y984738D01*
X228906Y984722D01*
X228705Y984700D01*
X228505Y984674D01*
X228306Y984642D01*
X228107Y984607D01*
X227910Y984566D01*
X227713Y984521D01*
X227518Y984471D01*
X227323Y984416D01*
X227130Y984357D01*
X226939Y984293D01*
X226749Y984225D01*
X226561Y984152D01*
X226375Y984074D01*
X226190Y983993D01*
X226008Y983907D01*
X225827Y983816D01*
X225649Y983721D01*
X225473Y983623D01*
X225300Y983519D01*
X225129Y983412D01*
X224960Y983301D01*
X224795Y983186D01*
X224632Y983067D01*
X231969Y976293D02*
X232082Y976362D01*
X232193Y976434D01*
X232302Y976509D01*
X232409Y976587D01*
X232513Y976669D01*
X232615Y976753D01*
X232714Y976840D01*
X232811Y976930D01*
X232905Y977023D01*
X232997Y977118D01*
X233086Y977217D01*
X233172Y977317D01*
X233254Y977420D01*
X233334Y977526D01*
X233411Y977633D01*
X233485Y977743D01*
X233556Y977855D01*
X233623Y977969D01*
X233687Y978084D01*
X233747Y978202D01*
X233804Y978321D01*
X233858Y978442D01*
X233908Y978565D01*
X233955Y978688D01*
X233998Y978813D01*
X234038Y978940D01*
X234073Y979067D01*
X234105Y979195D01*
X234134Y979324D01*
X234159Y979454D01*
X234179Y979585D01*
X234197Y979716D01*
X234210Y979848D01*
X234219Y979980D01*
X234225Y980112D01*
X234227Y980244D01*
X225761Y972907D02*
X225648Y972838D01*
X225537Y972766D01*
X225428Y972691D01*
X225321Y972613D01*
X225217Y972531D01*
X225115Y972447D01*
X225016Y972360D01*
X224919Y972270D01*
X224825Y972177D01*
X224733Y972082D01*
X224644Y971984D01*
X224558Y971883D01*
X224476Y971780D01*
X224396Y971675D01*
X224319Y971567D01*
X224245Y971457D01*
X224175Y971345D01*
X224107Y971231D01*
X224043Y971116D01*
X223983Y970998D01*
X223926Y970879D01*
X223872Y970758D01*
X223822Y970635D01*
X223775Y970512D01*
X223732Y970387D01*
X223692Y970260D01*
X223657Y970133D01*
X223625Y970005D01*
X223596Y969876D01*
X223571Y969746D01*
X223551Y969615D01*
X223533Y969484D01*
X223520Y969352D01*
X223511Y969220D01*
X223505Y969088D01*
X223503Y968956D01*
X225761Y972907D02*
X231970Y976293D01*
X215568Y957667D02*
X213310Y957667D01*
X206537Y977987D01*
X215568Y977987D02*
X211052Y964440D01*
X197473Y964440D02*
X197473Y977987D01*
X191829Y977987D01*
X191713Y977985D01*
X191598Y977979D01*
X191483Y977969D01*
X191368Y977955D01*
X191254Y977938D01*
X191140Y977916D01*
X191027Y977891D01*
X190915Y977861D01*
X190804Y977828D01*
X190695Y977791D01*
X190586Y977751D01*
X190480Y977707D01*
X190374Y977659D01*
X190271Y977607D01*
X190169Y977552D01*
X190069Y977494D01*
X189971Y977432D01*
X189876Y977367D01*
X189782Y977299D01*
X189692Y977227D01*
X189603Y977153D01*
X189517Y977075D01*
X189434Y976995D01*
X189354Y976912D01*
X189276Y976826D01*
X189202Y976738D01*
X189130Y976647D01*
X189062Y976553D01*
X188997Y976458D01*
X188935Y976360D01*
X188877Y976260D01*
X188822Y976158D01*
X188770Y976055D01*
X188722Y975949D01*
X188678Y975843D01*
X188638Y975734D01*
X188601Y975625D01*
X188568Y975514D01*
X188538Y975402D01*
X188513Y975289D01*
X188491Y975176D01*
X188474Y975061D01*
X188460Y974946D01*
X188450Y974831D01*
X188444Y974716D01*
X188442Y974600D01*
X188442Y964440D01*
X180573Y977987D02*
X173799Y977987D01*
X178315Y984760D02*
X178315Y967827D01*
X178313Y967711D01*
X178307Y967596D01*
X178297Y967481D01*
X178283Y967366D01*
X178266Y967252D01*
X178244Y967138D01*
X178219Y967025D01*
X178189Y966913D01*
X178156Y966802D01*
X178119Y966693D01*
X178079Y966584D01*
X178035Y966478D01*
X177987Y966372D01*
X177935Y966269D01*
X177880Y966167D01*
X177822Y966067D01*
X177760Y965969D01*
X177695Y965874D01*
X177627Y965780D01*
X177555Y965689D01*
X177481Y965601D01*
X177403Y965515D01*
X177323Y965432D01*
X177240Y965352D01*
X177154Y965274D01*
X177065Y965200D01*
X176975Y965128D01*
X176881Y965060D01*
X176786Y964995D01*
X176688Y964933D01*
X176588Y964875D01*
X176486Y964820D01*
X176383Y964768D01*
X176277Y964720D01*
X176171Y964676D01*
X176062Y964636D01*
X175953Y964599D01*
X175842Y964566D01*
X175730Y964536D01*
X175617Y964511D01*
X175503Y964489D01*
X175389Y964472D01*
X175274Y964458D01*
X175159Y964448D01*
X175044Y964442D01*
X174928Y964440D01*
X173799Y964440D01*
X164763Y964440D02*
X164763Y984760D01*
X164763Y977987D02*
X159119Y977987D01*
X159003Y977985D01*
X158888Y977979D01*
X158773Y977969D01*
X158658Y977955D01*
X158544Y977938D01*
X158430Y977916D01*
X158317Y977891D01*
X158205Y977861D01*
X158094Y977828D01*
X157985Y977791D01*
X157876Y977751D01*
X157770Y977707D01*
X157664Y977659D01*
X157561Y977607D01*
X157459Y977552D01*
X157359Y977494D01*
X157261Y977432D01*
X157166Y977367D01*
X157072Y977299D01*
X156982Y977227D01*
X156893Y977153D01*
X156807Y977075D01*
X156724Y976995D01*
X156644Y976912D01*
X156566Y976826D01*
X156492Y976738D01*
X156420Y976647D01*
X156352Y976553D01*
X156287Y976458D01*
X156225Y976360D01*
X156167Y976260D01*
X156112Y976158D01*
X156060Y976055D01*
X156012Y975949D01*
X155968Y975843D01*
X155928Y975734D01*
X155891Y975625D01*
X155858Y975514D01*
X155828Y975402D01*
X155803Y975289D01*
X155781Y975176D01*
X155764Y975061D01*
X155750Y974946D01*
X155740Y974831D01*
X155734Y974716D01*
X155732Y974600D01*
X155732Y964440D01*
X334701Y889635D02*
X334701Y869315D01*
X340346Y889635D02*
X329057Y889635D01*
X322043Y870444D02*
X322043Y869315D01*
X322043Y870444D02*
X320914Y870444D01*
X320914Y869315D01*
X322043Y869315D01*
X295295Y869315D02*
X295164Y869317D01*
X295032Y869323D01*
X294901Y869332D01*
X294771Y869346D01*
X294640Y869363D01*
X294511Y869384D01*
X294382Y869408D01*
X294254Y869437D01*
X294126Y869469D01*
X294000Y869505D01*
X293875Y869544D01*
X293750Y869587D01*
X293628Y869634D01*
X293506Y869684D01*
X293386Y869738D01*
X293268Y869795D01*
X293152Y869856D01*
X293037Y869920D01*
X292924Y869987D01*
X292813Y870058D01*
X292705Y870132D01*
X292598Y870209D01*
X292494Y870289D01*
X292392Y870372D01*
X292293Y870457D01*
X292196Y870546D01*
X292102Y870638D01*
X292010Y870732D01*
X291921Y870829D01*
X291836Y870928D01*
X291753Y871030D01*
X291673Y871134D01*
X291596Y871241D01*
X291522Y871349D01*
X291451Y871460D01*
X291384Y871573D01*
X291320Y871688D01*
X291259Y871804D01*
X291202Y871922D01*
X291148Y872042D01*
X291098Y872164D01*
X291051Y872286D01*
X291008Y872411D01*
X290969Y872536D01*
X290933Y872662D01*
X290901Y872790D01*
X290872Y872918D01*
X290848Y873047D01*
X290827Y873176D01*
X290810Y873307D01*
X290796Y873437D01*
X290787Y873568D01*
X290781Y873700D01*
X290779Y873831D01*
X295295Y869315D02*
X295523Y869318D01*
X295751Y869326D01*
X295979Y869340D01*
X296207Y869359D01*
X296433Y869383D01*
X296660Y869413D01*
X296885Y869448D01*
X297110Y869489D01*
X297333Y869535D01*
X297556Y869587D01*
X297777Y869643D01*
X297996Y869705D01*
X298214Y869773D01*
X298431Y869845D01*
X298646Y869923D01*
X298858Y870006D01*
X299069Y870093D01*
X299277Y870186D01*
X299484Y870284D01*
X299688Y870387D01*
X299889Y870494D01*
X300088Y870606D01*
X300283Y870723D01*
X300477Y870845D01*
X300667Y870971D01*
X300854Y871102D01*
X301038Y871237D01*
X301218Y871377D01*
X301395Y871521D01*
X301569Y871669D01*
X301739Y871821D01*
X301906Y871977D01*
X302068Y872137D01*
X301504Y885119D02*
X301502Y885250D01*
X301496Y885382D01*
X301487Y885513D01*
X301473Y885643D01*
X301456Y885774D01*
X301435Y885903D01*
X301411Y886032D01*
X301382Y886160D01*
X301350Y886288D01*
X301314Y886414D01*
X301275Y886539D01*
X301232Y886664D01*
X301185Y886786D01*
X301135Y886908D01*
X301081Y887028D01*
X301024Y887146D01*
X300963Y887262D01*
X300899Y887377D01*
X300832Y887490D01*
X300761Y887601D01*
X300687Y887709D01*
X300610Y887816D01*
X300530Y887920D01*
X300447Y888022D01*
X300362Y888121D01*
X300273Y888218D01*
X300181Y888312D01*
X300087Y888404D01*
X299990Y888493D01*
X299891Y888578D01*
X299789Y888661D01*
X299685Y888741D01*
X299578Y888818D01*
X299470Y888892D01*
X299359Y888963D01*
X299246Y889030D01*
X299131Y889094D01*
X299015Y889155D01*
X298897Y889212D01*
X298777Y889266D01*
X298655Y889316D01*
X298533Y889363D01*
X298408Y889406D01*
X298283Y889445D01*
X298157Y889481D01*
X298029Y889513D01*
X297901Y889542D01*
X297772Y889566D01*
X297643Y889587D01*
X297512Y889604D01*
X297382Y889618D01*
X297251Y889627D01*
X297119Y889633D01*
X296988Y889635D01*
X296786Y889633D01*
X296585Y889625D01*
X296383Y889613D01*
X296182Y889597D01*
X295981Y889575D01*
X295781Y889549D01*
X295582Y889517D01*
X295383Y889482D01*
X295186Y889441D01*
X294989Y889396D01*
X294794Y889346D01*
X294599Y889291D01*
X294406Y889232D01*
X294215Y889168D01*
X294025Y889100D01*
X293837Y889027D01*
X293651Y888949D01*
X293466Y888868D01*
X293284Y888782D01*
X293103Y888691D01*
X292925Y888596D01*
X292749Y888498D01*
X292576Y888394D01*
X292405Y888287D01*
X292236Y888176D01*
X292071Y888061D01*
X291908Y887942D01*
X299245Y881168D02*
X299358Y881237D01*
X299469Y881309D01*
X299578Y881384D01*
X299685Y881462D01*
X299789Y881544D01*
X299891Y881628D01*
X299990Y881715D01*
X300087Y881805D01*
X300181Y881898D01*
X300273Y881993D01*
X300362Y882092D01*
X300448Y882192D01*
X300530Y882295D01*
X300610Y882401D01*
X300687Y882508D01*
X300761Y882618D01*
X300832Y882730D01*
X300899Y882844D01*
X300963Y882959D01*
X301023Y883077D01*
X301080Y883196D01*
X301134Y883317D01*
X301184Y883440D01*
X301231Y883563D01*
X301274Y883688D01*
X301314Y883815D01*
X301349Y883942D01*
X301381Y884070D01*
X301410Y884199D01*
X301435Y884329D01*
X301455Y884460D01*
X301473Y884591D01*
X301486Y884723D01*
X301495Y884855D01*
X301501Y884987D01*
X301503Y885119D01*
X293037Y877782D02*
X292924Y877713D01*
X292813Y877641D01*
X292704Y877566D01*
X292597Y877488D01*
X292493Y877406D01*
X292391Y877322D01*
X292292Y877235D01*
X292195Y877145D01*
X292101Y877052D01*
X292009Y876957D01*
X291920Y876859D01*
X291834Y876758D01*
X291752Y876655D01*
X291672Y876550D01*
X291595Y876442D01*
X291521Y876332D01*
X291451Y876220D01*
X291383Y876106D01*
X291319Y875991D01*
X291259Y875873D01*
X291202Y875754D01*
X291148Y875633D01*
X291098Y875510D01*
X291051Y875387D01*
X291008Y875262D01*
X290968Y875135D01*
X290933Y875008D01*
X290901Y874880D01*
X290872Y874751D01*
X290847Y874621D01*
X290827Y874490D01*
X290809Y874359D01*
X290796Y874227D01*
X290787Y874095D01*
X290781Y873963D01*
X290779Y873831D01*
X293037Y877782D02*
X299246Y881168D01*
X283069Y870444D02*
X283069Y869315D01*
X283069Y870444D02*
X281940Y870444D01*
X281940Y869315D01*
X283069Y869315D01*
X381635Y816610D02*
X374862Y796290D01*
X368088Y816610D01*
X355178Y796290D02*
X350663Y796290D01*
X355178Y796290D02*
X355309Y796292D01*
X355441Y796298D01*
X355572Y796307D01*
X355702Y796321D01*
X355833Y796338D01*
X355962Y796359D01*
X356091Y796383D01*
X356219Y796412D01*
X356347Y796444D01*
X356473Y796480D01*
X356598Y796519D01*
X356723Y796562D01*
X356845Y796609D01*
X356967Y796659D01*
X357087Y796713D01*
X357205Y796770D01*
X357321Y796831D01*
X357436Y796895D01*
X357549Y796962D01*
X357660Y797033D01*
X357768Y797107D01*
X357875Y797184D01*
X357979Y797264D01*
X358081Y797347D01*
X358180Y797432D01*
X358277Y797521D01*
X358371Y797613D01*
X358463Y797707D01*
X358552Y797804D01*
X358637Y797903D01*
X358720Y798005D01*
X358800Y798109D01*
X358877Y798216D01*
X358951Y798324D01*
X359022Y798435D01*
X359089Y798548D01*
X359153Y798663D01*
X359214Y798779D01*
X359271Y798897D01*
X359325Y799017D01*
X359375Y799139D01*
X359422Y799261D01*
X359465Y799386D01*
X359504Y799511D01*
X359540Y799637D01*
X359572Y799765D01*
X359601Y799893D01*
X359625Y800022D01*
X359646Y800152D01*
X359663Y800282D01*
X359677Y800412D01*
X359686Y800543D01*
X359692Y800675D01*
X359694Y800806D01*
X359694Y812094D01*
X359692Y812228D01*
X359686Y812362D01*
X359676Y812495D01*
X359662Y812628D01*
X359645Y812761D01*
X359623Y812893D01*
X359597Y813024D01*
X359568Y813155D01*
X359534Y813284D01*
X359497Y813413D01*
X359456Y813540D01*
X359411Y813666D01*
X359363Y813791D01*
X359311Y813914D01*
X359255Y814036D01*
X359196Y814156D01*
X359133Y814274D01*
X359066Y814391D01*
X358997Y814505D01*
X358924Y814617D01*
X358847Y814727D01*
X358768Y814834D01*
X358685Y814939D01*
X358599Y815042D01*
X358510Y815142D01*
X358418Y815240D01*
X358324Y815334D01*
X358226Y815426D01*
X358126Y815515D01*
X358024Y815601D01*
X357918Y815684D01*
X357811Y815763D01*
X357701Y815840D01*
X357589Y815913D01*
X357475Y815982D01*
X357358Y816049D01*
X357240Y816112D01*
X357120Y816171D01*
X356999Y816227D01*
X356875Y816279D01*
X356751Y816327D01*
X356624Y816372D01*
X356497Y816413D01*
X356368Y816450D01*
X356239Y816484D01*
X356108Y816513D01*
X355977Y816539D01*
X355845Y816560D01*
X355712Y816578D01*
X355579Y816592D01*
X355446Y816602D01*
X355312Y816608D01*
X355178Y816610D01*
X350663Y816610D01*
X341464Y816610D02*
X341464Y796290D01*
X341464Y816610D02*
X332433Y816610D01*
X332433Y807579D02*
X341464Y807579D01*
X314127Y816610D02*
X307354Y796290D01*
X300580Y816610D01*
X288996Y796290D02*
X283351Y796290D01*
X288996Y796290D02*
X289112Y796292D01*
X289227Y796298D01*
X289342Y796308D01*
X289457Y796322D01*
X289571Y796339D01*
X289685Y796361D01*
X289798Y796386D01*
X289910Y796416D01*
X290021Y796449D01*
X290130Y796486D01*
X290239Y796526D01*
X290345Y796570D01*
X290451Y796618D01*
X290554Y796670D01*
X290656Y796725D01*
X290756Y796783D01*
X290854Y796845D01*
X290949Y796910D01*
X291043Y796978D01*
X291134Y797050D01*
X291222Y797124D01*
X291308Y797202D01*
X291391Y797282D01*
X291471Y797365D01*
X291549Y797451D01*
X291623Y797540D01*
X291695Y797630D01*
X291763Y797724D01*
X291828Y797819D01*
X291890Y797917D01*
X291948Y798017D01*
X292003Y798119D01*
X292055Y798222D01*
X292103Y798328D01*
X292147Y798434D01*
X292187Y798543D01*
X292224Y798652D01*
X292257Y798763D01*
X292287Y798875D01*
X292312Y798988D01*
X292334Y799102D01*
X292351Y799216D01*
X292365Y799331D01*
X292375Y799446D01*
X292381Y799561D01*
X292383Y799677D01*
X292382Y799677D02*
X292382Y805321D01*
X292383Y805321D02*
X292381Y805454D01*
X292375Y805586D01*
X292365Y805718D01*
X292352Y805850D01*
X292334Y805982D01*
X292313Y806112D01*
X292288Y806243D01*
X292259Y806372D01*
X292226Y806500D01*
X292190Y806628D01*
X292150Y806754D01*
X292106Y806879D01*
X292058Y807003D01*
X292007Y807125D01*
X291952Y807246D01*
X291894Y807365D01*
X291832Y807483D01*
X291767Y807598D01*
X291698Y807712D01*
X291627Y807823D01*
X291551Y807932D01*
X291473Y808039D01*
X291392Y808144D01*
X291307Y808246D01*
X291220Y808346D01*
X291130Y808443D01*
X291037Y808538D01*
X290941Y808629D01*
X290843Y808718D01*
X290742Y808804D01*
X290638Y808887D01*
X290532Y808967D01*
X290424Y809043D01*
X290314Y809117D01*
X290201Y809187D01*
X290087Y809254D01*
X289970Y809317D01*
X289852Y809377D01*
X289732Y809434D01*
X289610Y809487D01*
X289487Y809536D01*
X289363Y809582D01*
X289237Y809624D01*
X289110Y809662D01*
X288982Y809697D01*
X288853Y809728D01*
X288724Y809755D01*
X288593Y809778D01*
X288462Y809798D01*
X288330Y809813D01*
X288198Y809825D01*
X288066Y809833D01*
X287933Y809837D01*
X287801Y809837D01*
X287668Y809833D01*
X287536Y809825D01*
X287404Y809813D01*
X287272Y809798D01*
X287141Y809778D01*
X287010Y809755D01*
X286881Y809728D01*
X286752Y809697D01*
X286624Y809662D01*
X286497Y809624D01*
X286371Y809582D01*
X286247Y809536D01*
X286124Y809487D01*
X286002Y809434D01*
X285882Y809377D01*
X285764Y809317D01*
X285647Y809254D01*
X285533Y809187D01*
X285420Y809117D01*
X285310Y809043D01*
X285202Y808967D01*
X285096Y808887D01*
X284992Y808804D01*
X284891Y808718D01*
X284793Y808629D01*
X284697Y808538D01*
X284604Y808443D01*
X284514Y808346D01*
X284427Y808246D01*
X284342Y808144D01*
X284261Y808039D01*
X284183Y807932D01*
X284107Y807823D01*
X284036Y807712D01*
X283967Y807598D01*
X283902Y807483D01*
X283840Y807365D01*
X283782Y807246D01*
X283727Y807125D01*
X283676Y807003D01*
X283628Y806879D01*
X283584Y806754D01*
X283544Y806628D01*
X283508Y806500D01*
X283475Y806372D01*
X283446Y806243D01*
X283421Y806112D01*
X283400Y805982D01*
X283382Y805850D01*
X283369Y805718D01*
X283359Y805586D01*
X283353Y805454D01*
X283351Y805321D01*
X283351Y803063D01*
X292382Y803063D01*
X273412Y796290D02*
X273412Y809837D01*
X266639Y809837D01*
X266639Y807579D01*
X257979Y804192D02*
X252335Y801934D01*
X257979Y804192D02*
X258078Y804234D01*
X258174Y804279D01*
X258270Y804327D01*
X258363Y804380D01*
X258454Y804435D01*
X258544Y804494D01*
X258631Y804556D01*
X258716Y804621D01*
X258798Y804689D01*
X258878Y804760D01*
X258955Y804834D01*
X259030Y804910D01*
X259101Y804990D01*
X259170Y805072D01*
X259235Y805156D01*
X259298Y805243D01*
X259357Y805332D01*
X259413Y805423D01*
X259466Y805516D01*
X259515Y805611D01*
X259561Y805707D01*
X259603Y805806D01*
X259641Y805905D01*
X259676Y806006D01*
X259707Y806109D01*
X259735Y806212D01*
X259758Y806316D01*
X259778Y806421D01*
X259794Y806527D01*
X259806Y806633D01*
X259814Y806740D01*
X259818Y806846D01*
X259819Y806953D01*
X259815Y807060D01*
X259808Y807167D01*
X259796Y807273D01*
X259781Y807379D01*
X259762Y807484D01*
X259739Y807588D01*
X259713Y807692D01*
X259682Y807794D01*
X259648Y807896D01*
X259610Y807996D01*
X259569Y808094D01*
X259524Y808191D01*
X259475Y808286D01*
X259423Y808380D01*
X259368Y808471D01*
X259309Y808561D01*
X259247Y808648D01*
X259182Y808733D01*
X259114Y808815D01*
X259043Y808895D01*
X258969Y808972D01*
X258893Y809046D01*
X258813Y809118D01*
X258731Y809187D01*
X258647Y809252D01*
X258560Y809315D01*
X258471Y809374D01*
X258380Y809430D01*
X258287Y809483D01*
X258193Y809532D01*
X258096Y809578D01*
X257998Y809620D01*
X257898Y809659D01*
X257797Y809694D01*
X257695Y809725D01*
X257592Y809752D01*
X257487Y809776D01*
X257382Y809796D01*
X257277Y809812D01*
X257170Y809824D01*
X257064Y809832D01*
X256957Y809836D01*
X256850Y809837D01*
X256542Y809829D01*
X256234Y809813D01*
X255926Y809790D01*
X255620Y809760D01*
X255314Y809722D01*
X255009Y809677D01*
X254705Y809625D01*
X254403Y809565D01*
X254102Y809498D01*
X253802Y809424D01*
X253505Y809343D01*
X253210Y809255D01*
X252917Y809159D01*
X252626Y809057D01*
X252338Y808947D01*
X252052Y808831D01*
X251770Y808708D01*
X252335Y801935D02*
X252236Y801893D01*
X252140Y801848D01*
X252044Y801800D01*
X251951Y801747D01*
X251860Y801692D01*
X251770Y801633D01*
X251683Y801571D01*
X251598Y801506D01*
X251516Y801438D01*
X251436Y801367D01*
X251359Y801293D01*
X251284Y801217D01*
X251213Y801137D01*
X251144Y801055D01*
X251079Y800971D01*
X251016Y800884D01*
X250957Y800795D01*
X250901Y800704D01*
X250848Y800611D01*
X250799Y800516D01*
X250753Y800420D01*
X250711Y800321D01*
X250673Y800222D01*
X250638Y800121D01*
X250607Y800018D01*
X250579Y799915D01*
X250556Y799811D01*
X250536Y799706D01*
X250520Y799600D01*
X250508Y799494D01*
X250500Y799387D01*
X250496Y799281D01*
X250495Y799174D01*
X250499Y799067D01*
X250506Y798960D01*
X250518Y798854D01*
X250533Y798748D01*
X250552Y798643D01*
X250575Y798539D01*
X250601Y798435D01*
X250632Y798333D01*
X250666Y798231D01*
X250704Y798131D01*
X250745Y798033D01*
X250790Y797936D01*
X250839Y797841D01*
X250891Y797747D01*
X250946Y797656D01*
X251005Y797566D01*
X251067Y797479D01*
X251132Y797394D01*
X251200Y797312D01*
X251271Y797232D01*
X251345Y797155D01*
X251421Y797081D01*
X251501Y797009D01*
X251583Y796940D01*
X251667Y796875D01*
X251754Y796812D01*
X251843Y796753D01*
X251934Y796697D01*
X252027Y796644D01*
X252121Y796595D01*
X252218Y796549D01*
X252316Y796507D01*
X252416Y796468D01*
X252517Y796433D01*
X252619Y796402D01*
X252722Y796375D01*
X252827Y796351D01*
X252932Y796331D01*
X253037Y796315D01*
X253144Y796303D01*
X253250Y796295D01*
X253357Y796291D01*
X253464Y796290D01*
X253916Y796302D01*
X254369Y796324D01*
X254820Y796358D01*
X255271Y796401D01*
X255720Y796456D01*
X256168Y796521D01*
X256615Y796597D01*
X257059Y796683D01*
X257502Y796780D01*
X257942Y796887D01*
X258379Y797005D01*
X258813Y797132D01*
X259245Y797271D01*
X259672Y797419D01*
X242498Y797419D02*
X242498Y796290D01*
X242498Y797419D02*
X241369Y797419D01*
X241369Y796290D01*
X242498Y796290D01*
X221828Y812094D02*
X216183Y816610D01*
X216183Y796290D01*
X210539Y796290D02*
X221828Y796290D01*
D11*
X431800Y565150D03*
X381000Y565150D03*
X212725Y584200D03*
X161925Y584200D03*
D12*
X158750Y708025D03*
X209550Y708025D03*
X263525Y698500D03*
X314325Y698500D03*
D13*
X415925Y984250D03*
X415925Y933450D03*
X419100Y857250D03*
X419100Y806450D03*
D14*
X384429Y508000D02*
X371221Y508000D01*
X371221Y482600D02*
X384429Y482600D01*
X384429Y355600D02*
X371221Y355600D01*
X447421Y355600D02*
X460629Y355600D01*
X384429Y457200D02*
X371221Y457200D01*
X371221Y431800D02*
X384429Y431800D01*
X384429Y381000D02*
X371221Y381000D01*
X371221Y406400D02*
X384429Y406400D01*
X447421Y381000D02*
X460629Y381000D01*
X460629Y406400D02*
X447421Y406400D01*
X447421Y431800D02*
X460629Y431800D01*
X460629Y457200D02*
X447421Y457200D01*
X447421Y482600D02*
X460629Y482600D01*
X460629Y508000D02*
X447421Y508000D01*
D15*
X479425Y946150D03*
X504825Y946150D03*
X479425Y920750D03*
X504825Y920750D03*
X479425Y895350D03*
X504825Y895350D03*
X479425Y869950D03*
X504825Y869950D03*
X479425Y844550D03*
X504825Y844550D03*
D16*
X13907Y91758D02*
X13907Y66993D01*
D17*
X71474Y105375D02*
X94334Y105375D01*
D16*
X126902Y50756D02*
X126902Y25991D01*
X68287Y33376D02*
X43522Y33376D01*
D17*
X81474Y131374D02*
X104334Y131374D01*
D16*
X13907Y228918D02*
X13907Y253683D01*
D17*
X71474Y267300D02*
X94334Y267300D01*
D16*
X126902Y212681D02*
X126902Y187916D01*
X68287Y195301D02*
X43522Y195301D01*
D17*
X81474Y293299D02*
X104334Y293299D01*
D16*
X13907Y905193D02*
X13907Y929958D01*
D17*
X71474Y943575D02*
X94334Y943575D01*
D16*
X126902Y888956D02*
X126902Y864191D01*
X68287Y871576D02*
X43522Y871576D01*
D17*
X81474Y969574D02*
X104334Y969574D01*
D16*
X13907Y768033D02*
X13907Y743268D01*
D17*
X71474Y781650D02*
X94334Y781650D01*
D16*
X126902Y727031D02*
X126902Y702266D01*
X68287Y709651D02*
X43522Y709651D01*
D17*
X81474Y807649D02*
X104334Y807649D01*
D18*
X206375Y537850D03*
X206375Y465450D03*
D19*
X377825Y717550D03*
X403225Y742950D03*
X428625Y717550D03*
D18*
X498475Y394975D03*
X498475Y322575D03*
X312425Y549275D03*
X240025Y549275D03*
X233050Y409575D03*
X160650Y409575D03*
X229875Y923925D03*
X157475Y923925D03*
X229875Y889000D03*
X157475Y889000D03*
X333375Y449575D03*
X333375Y521975D03*
X154300Y660400D03*
X226700Y660400D03*
X271775Y657225D03*
X344175Y657225D03*
X260350Y445775D03*
X260350Y373375D03*
X298450Y385450D03*
X298450Y313050D03*
X428625Y605150D03*
X428625Y677550D03*
X328925Y631825D03*
X401325Y631825D03*
D20*
X292517Y497424D03*
X292517Y475834D03*
X292517Y454244D03*
D21*
X89408Y453625D03*
X89408Y428625D03*
X89408Y403625D03*
D22*
X122408Y472625D03*
X122408Y384625D03*
D21*
X89408Y606025D03*
X89408Y581025D03*
X89408Y556025D03*
D22*
X122408Y625025D03*
X122408Y537025D03*
D23*
X167000Y537850D02*
X206375Y537850D01*
D24*
X167000Y537850D02*
X161925Y542925D01*
X161925Y584200D01*
D23*
X330200Y657225D02*
X344175Y657225D01*
X330200Y657225D02*
X314325Y673100D01*
X314325Y698500D01*
X339725Y457200D02*
X333375Y450850D01*
X333375Y449575D01*
X339725Y457200D02*
X377825Y457200D01*
X401193Y514944D02*
X399796Y516341D01*
X382737Y457200D02*
X377825Y457200D01*
X382737Y457200D02*
X401193Y475656D01*
X401193Y514944D01*
X253511Y429265D02*
X217326Y465450D01*
X253511Y429265D02*
X313065Y429265D01*
X333375Y449575D01*
X217326Y465450D02*
X206375Y465450D01*
X344175Y639853D02*
X344175Y657225D01*
X399796Y584232D02*
X399796Y516341D01*
X399796Y584232D02*
X344175Y639853D01*
X209550Y677550D02*
X209550Y708025D01*
X209550Y677550D02*
X226700Y660400D01*
X263525Y698500D02*
X254000Y708025D01*
X209550Y708025D01*
X263525Y698500D02*
X265425Y698500D01*
X265425Y663575D01*
X271775Y657225D01*
X271775Y518165D01*
X292517Y497424D01*
X381000Y511175D02*
X381000Y565150D01*
X381000Y511175D02*
X377825Y508000D01*
D24*
X89408Y556025D02*
X89408Y581025D01*
D23*
X333375Y521975D02*
X363850Y521975D01*
X377825Y508000D01*
D24*
X89408Y514858D02*
X89408Y556025D01*
X89408Y514858D02*
X82550Y508000D01*
D25*
X82550Y508000D03*
D23*
X158750Y664850D02*
X158750Y708025D01*
X158750Y664850D02*
X154300Y660400D01*
D24*
X89408Y659892D02*
X89408Y606025D01*
D23*
X89408Y659892D02*
X88900Y660400D01*
D24*
X154300Y660400D01*
D23*
X341000Y355600D02*
X298450Y313050D01*
X341000Y355600D02*
X377825Y355600D01*
X298450Y313050D02*
X279400Y313050D01*
X260350Y332100D01*
X260350Y373375D01*
X229875Y889000D02*
X229875Y923925D01*
X240025Y620400D02*
X240025Y549275D01*
X240025Y620400D02*
X181560Y678865D01*
X186682Y678865D01*
X183261Y682286D01*
X229875Y879058D02*
X229875Y889000D01*
X240025Y549275D02*
X240025Y547550D01*
X241250Y546325D01*
X233050Y409575D02*
X213572Y409575D01*
X183261Y832444D02*
X229875Y879058D01*
X183261Y832444D02*
X183261Y682286D01*
D24*
X233050Y409575D02*
X236225Y406400D01*
X377825Y406400D01*
D23*
X241250Y523603D02*
X241250Y546325D01*
X192350Y430797D02*
X213572Y409575D01*
X189915Y458632D02*
X189915Y472268D01*
X189915Y458632D02*
X192350Y456197D01*
X192350Y430797D01*
X189915Y472268D02*
X241250Y523603D01*
D24*
X298450Y385450D02*
X302900Y381000D01*
X377825Y381000D01*
D23*
X409575Y381000D01*
X415925Y374650D01*
X415925Y333375D01*
X428625Y320675D01*
X496575Y320675D02*
X498475Y322575D01*
X496575Y320675D02*
X428625Y320675D01*
D24*
X428625Y677550D02*
X428625Y717550D01*
D23*
X377825Y717550D02*
X377825Y708025D01*
X401325Y684525D02*
X401325Y631825D01*
X401325Y684525D02*
X377825Y708025D01*
X403225Y742950D02*
X435001Y742950D01*
X529590Y648361D02*
X529590Y426090D01*
X498475Y394975D01*
X529590Y648361D02*
X435001Y742950D01*
D24*
X141600Y428625D02*
X89408Y428625D01*
X141600Y428625D02*
X160650Y409575D01*
D23*
X454025Y482600D02*
X454025Y508000D01*
X454025Y482600D02*
X454025Y457200D01*
X73602Y238398D02*
X55904Y220701D01*
X55904Y195301D01*
X73602Y238398D02*
X124098Y238398D01*
X212725Y559647D02*
X212725Y584200D01*
X212725Y559647D02*
X222835Y549537D01*
X222835Y531032D01*
X174675Y452319D02*
X177110Y449884D01*
X174675Y452319D02*
X174675Y482872D01*
X222835Y531032D01*
X212725Y584200D02*
X212725Y612775D01*
D25*
X212725Y612775D03*
D23*
X454025Y539750D02*
X454025Y508000D01*
D25*
X454025Y539750D03*
D23*
X177160Y416414D02*
X177110Y416464D01*
X177110Y449884D01*
X177160Y291460D02*
X124098Y238398D01*
X177160Y291460D02*
X177160Y416414D01*
X419100Y806450D02*
X441325Y806450D01*
X479425Y844550D01*
X504825Y844550D01*
D24*
X463550Y431800D02*
X454025Y431800D01*
X463550Y431800D02*
X477393Y445643D01*
D25*
X478155Y460375D03*
X476250Y768350D03*
D23*
X438150Y806450D01*
X419100Y806450D01*
D24*
X89408Y403625D02*
X89408Y364617D01*
X123825Y330200D01*
X158750Y330200D01*
D25*
X158750Y330200D03*
X477393Y445643D03*
D23*
X477393Y459613D01*
X478155Y460375D01*
X460375Y565150D02*
X431800Y565150D01*
X460375Y565150D02*
X495300Y530225D01*
X495300Y434975D01*
X466725Y406400D01*
X454025Y406400D01*
D24*
X454025Y381000D02*
X454025Y358775D01*
D23*
X454025Y355600D01*
D24*
X517525Y298921D02*
X294500Y75896D01*
X517525Y298921D02*
X517525Y349250D01*
X501650Y365125D01*
X460375Y365125D01*
D23*
X454025Y358775D01*
X77643Y33376D02*
X55904Y33376D01*
X77643Y33376D02*
X120163Y75896D01*
X294500Y75896D01*
D24*
X284048Y445775D02*
X260350Y445775D01*
X284048Y445775D02*
X292517Y454244D01*
D23*
X415925Y984250D02*
X441325Y984250D01*
X479425Y946150D01*
X504825Y946150D01*
X403225Y431800D02*
X377825Y431800D01*
X415036Y591561D02*
X428625Y605150D01*
X415036Y522654D02*
X416433Y521257D01*
X415036Y522654D02*
X415036Y591561D01*
X416433Y445008D02*
X403225Y431800D01*
X416433Y445008D02*
X416433Y521257D01*
D24*
X430525Y605150D02*
X450850Y625475D01*
X430525Y605150D02*
X428625Y605150D01*
X450850Y625475D02*
X450850Y692150D01*
D25*
X450850Y692150D03*
X387350Y908050D03*
D23*
X387350Y933450D01*
X387350Y977900D01*
X393700Y984250D01*
X415925Y984250D01*
D24*
X89408Y486283D02*
X89408Y453625D01*
X89408Y486283D02*
X107950Y504825D01*
X161925Y504825D01*
D25*
X161925Y504825D03*
X387350Y933450D03*
D23*
X157475Y923925D02*
X157202Y924198D01*
X58593Y871576D02*
X55904Y871576D01*
X111215Y924198D02*
X157202Y924198D01*
X111215Y924198D02*
X58593Y871576D01*
X130175Y783921D02*
X55904Y709651D01*
X130175Y783921D02*
X130175Y819150D01*
X157475Y846450D01*
X157475Y889000D01*
M02*
