G04 EAGLE Gerber RS-274X export*
G75*
%MOMM*%
%FSLAX34Y34*%
%LPD*%
%IN*%
%IPPOS*%
%AMOC8*
5,1,8,0,0,1.08239X$1,22.5*%
G01*
G04 Define Apertures*
%ADD10C,0.254000*%
D10*
X0Y10840D02*
X41Y9895D01*
X165Y8958D01*
X369Y8034D01*
X654Y7133D01*
X1016Y6259D01*
X1452Y5420D01*
X1960Y4622D01*
X2536Y3872D01*
X3175Y3175D01*
X3872Y2536D01*
X4623Y1960D01*
X5420Y1452D01*
X6259Y1016D01*
X7133Y654D01*
X8035Y369D01*
X8958Y165D01*
X9895Y41D01*
X10840Y0D01*
X348816Y-2067D01*
X349994Y-2070D01*
X366792Y-1337D01*
X383461Y858D01*
X399876Y4497D01*
X415912Y9553D01*
X431446Y15987D01*
X446359Y23750D01*
X460540Y32784D01*
X473879Y43020D01*
X486275Y54379D01*
X497634Y66775D01*
X507870Y80114D01*
X516904Y94295D01*
X524668Y109209D01*
X531102Y124742D01*
X536158Y140778D01*
X539797Y157193D01*
X541992Y173863D01*
X542725Y190660D01*
X542725Y989715D01*
X542686Y990611D01*
X542569Y991501D01*
X542375Y992377D01*
X542105Y993233D01*
X541761Y994062D01*
X541347Y994858D01*
X540865Y995614D01*
X540319Y996326D01*
X539713Y996988D01*
X539051Y997594D01*
X538339Y998140D01*
X537583Y998622D01*
X536787Y999036D01*
X535958Y999380D01*
X535102Y999650D01*
X534226Y999844D01*
X533336Y999961D01*
X532440Y1000000D01*
X15687Y1000000D01*
X14320Y999940D01*
X12963Y999762D01*
X11627Y999465D01*
X10322Y999054D01*
X9057Y998530D01*
X7844Y997898D01*
X6689Y997163D01*
X5604Y996330D01*
X4595Y995405D01*
X3670Y994396D01*
X2837Y993311D01*
X2102Y992156D01*
X1470Y990943D01*
X946Y989678D01*
X535Y988373D01*
X238Y987037D01*
X60Y985680D01*
X0Y984313D01*
X0Y10840D01*
M02*
