G04 EAGLE Gerber RS-274X export*
G75*
%MOMM*%
%FSLAX34Y34*%
%LPD*%
%IN*%
%IPPOS*%
%AMOC8*
5,1,8,0,0,1.08239X$1,22.5*%
G01*
G04 Define Apertures*
%ADD10C,0.254000*%
D10*
X0Y50821D02*
X0Y50800D01*
X195Y46373D01*
X775Y41979D01*
X1736Y37653D01*
X3071Y33427D01*
X4768Y29333D01*
X6816Y25403D01*
X9199Y21666D01*
X11898Y18151D01*
X14894Y14885D01*
X18162Y11892D01*
X21679Y9196D01*
X25418Y6816D01*
X29350Y4772D01*
X33445Y3077D01*
X37672Y1746D01*
X41999Y789D01*
X46393Y212D01*
X50821Y21D01*
X572591Y233D01*
X572599Y233D01*
X577369Y176D01*
X582126Y536D01*
X586833Y1308D01*
X591455Y2488D01*
X595956Y4066D01*
X600303Y6031D01*
X604462Y8367D01*
X608402Y11056D01*
X612092Y14079D01*
X615505Y17412D01*
X618615Y21029D01*
X621397Y24904D01*
X623831Y29006D01*
X625898Y33305D01*
X627583Y37768D01*
X628872Y42361D01*
X629756Y47049D01*
X630228Y51795D01*
X630228Y950195D01*
X630226Y950217D01*
X629688Y954896D01*
X628743Y959509D01*
X627400Y964023D01*
X625669Y968403D01*
X623563Y972615D01*
X621097Y976627D01*
X618291Y980410D01*
X615167Y983933D01*
X611747Y987171D01*
X608057Y990098D01*
X604127Y992692D01*
X599986Y994934D01*
X595665Y996807D01*
X591197Y998296D01*
X586616Y999390D01*
X581958Y1000080D01*
X577257Y1000362D01*
X572549Y1000233D01*
X50779Y1000021D01*
X50772Y1000021D01*
X46345Y999826D01*
X41953Y999247D01*
X37628Y998287D01*
X33403Y996953D01*
X29310Y995256D01*
X25381Y993210D01*
X21645Y990828D01*
X18130Y988130D01*
X14865Y985136D01*
X11872Y981868D01*
X9176Y978353D01*
X6797Y974615D01*
X4752Y970685D01*
X3058Y966591D01*
X1727Y962366D01*
X769Y958040D01*
X192Y953647D01*
X0Y949221D01*
X0Y50821D01*
M02*
