0
SECTION
2
HEADER
9
$INSUNITS
70
4
9
$ACADVER
1
AC1014
9
$HANDSEED
5
FFFF
0
ENDSEC
0
SECTION
2
TABLES
0
TABLE
2
VPORT
5
8
100
AcDbSymbolTable
0
ENDTAB
0
TABLE
2
LTYPE
5
5
100
AcDbSymbolTable
0
LTYPE
5
14
100
AcDbSymbolTableRecord
100
AcDbLinetypeTableRecord
2
BYBLOCK
70
0
0
LTYPE
5
15
100
AcDbSymbolTableRecord
100
AcDbLinetypeTableRecord
2
BYLAYER
70
0
0
ENDTAB
0
TABLE
2
LAYER
5
2
100
AcDbSymbolTable
70
2
0
LAYER
5
50
100
AcDbSymbolTableRecord
100
AcDbLayerTableRecord
2
0
70
0
6
CONTINUOUS
0
ENDTAB
0
TABLE
2
STYLE
5
3
100
AcDbSymbolTable
70
1
0
STYLE
5
11
100
AcDbSymbolTableRecord
100
AcDbTextStyleTableRecord
2
STANDARD
70
0
0
ENDTAB
0
TABLE
2
VIEW
5
6
100
AcDbSymbolTable
70
0
0
ENDTAB
0
TABLE
2
UCS
5
7
100
AcDbSymbolTable
70
0
0
ENDTAB
0
TABLE
2
APPID
5
9
100
AcDbSymbolTable
70
2
0
APPID
5
12
100
AcDbSymbolTableRecord
100
AcDbRegAppTableRecord
2
ACAD
70
0
0
ENDTAB
0
TABLE
2
DIMSTYLE
5
A
100
AcDbSymbolTable
70
1
0
ENDTAB
0
TABLE
2
BLOCK_RECORD
5
1
100
AcDbSymbolTable
70
1
0
BLOCK_RECORD
5
1F
100
AcDbSymbolTableRecord
100
AcDbBlockTableRecord
2
*MODEL_SPACE
0
BLOCK_RECORD
5
1B
100
AcDbSymbolTableRecord
100
AcDbBlockTableRecord
2
*PAPER_SPACE
0
ENDTAB
0
ENDSEC
0
SECTION
2
BLOCKS
0
BLOCK
5
20
100
AcDbEntity
100
AcDbBlockBegin
2
*MODEL_SPACE
0
ENDBLK
5
21
100
AcDbEntity
100
AcDbBlockEnd
0
BLOCK
5
1C
100
AcDbEntity
100
AcDbBlockBegin
2
*PAPER_SPACE
0
ENDBLK
5
1D
100
AcDbEntity
100
AcDbBlockEnd
0
ENDSEC
0
SECTION
2
ENTITIES
0
CIRCLE
5
100
100
AcDbEntity
8
0
100
AcDbCircle
10
17.100000000000005
20
62.774839468489326
30
0
40
3.2500000000000018
210
0
220
-0
230
1
0
LWPOLYLINE
5
101
100
AcDbEntity
8
0
100
AcDbPolyline
90
8
70
1
43
0.0
10
31.553487518960107
20
32.664449410983984
10
25.553487518960107
20
32.664449410983984
10
25.553487518960107
20
34.664449410983991
10
29.553487518960107
20
34.664449410983991
10
29.553487518960107
20
40.664449410983991
10
35.553487518960111
20
40.664449410983991
10
35.553487518960111
20
38.664449410983991
10
31.553487518960107
20
38.664449410983991
0
SPLINE
5
102
100
AcDbEntity
8
0
100
AcDbSpline
70
0
71
3
72
9
73
5
74
0
42
0.000000001
43
0.0000000001
44
0.0000000001
40
0
40
0
40
0
40
0
40
0.018536857091458078
40
0.031431063331317954
40
0.031431063331317954
40
0.031431063331317954
40
0.031431063331317954
10
8.1080183237791026
20
18.042008228093444
30
0
10
8.169632326568081
20
18.046855173164996
30
0
10
8.2741049248193157
20
18.055073644977973
30
0
10
8.378857827290636
20
18.057726605452569
30
0
10
8.4218314141035044
20
18.058814949780761
30
0
0
SPLINE
5
103
100
AcDbEntity
8
0
100
AcDbSpline
70
0
71
3
72
9
73
5
74
0
42
0.000000001
43
0.0000000001
44
0.0000000001
40
0
40
0
40
0
40
0
40
0.0070282335637711201
40
0.013753434904901326
40
0.013753434904901326
40
0.013753434904901326
40
0.013753434904901326
10
8.4218314141035044
20
18.058814949780761
30
0
10
8.4498732341099867
20
18.055420407341188
30
0
10
8.5047478114237123
20
18.048777682956608
30
0
10
8.4925646980443918
20
17.995319342014756
30
0
10
8.486607357859608
20
17.969179100781737
30
0
0
LINE
5
104
100
AcDbEntity
8
0
100
AcDbLine
10
8.486607357859608
20
17.969179100781737
30
0
11
8.4563204497098887
21
17.896349973470031
31
0
0
SPLINE
5
105
100
AcDbEntity
8
0
100
AcDbSpline
70
0
71
3
72
9
73
5
74
0
42
0.000000001
43
0.0000000001
44
0.0000000001
40
0
40
0
40
0
40
0
40
0.20773671479972647
40
0.38226776101619198
40
0.38226776101619198
40
0.38226776101619198
40
0.38226776101619198
10
8.4563204497098887
20
17.896349973470031
30
0
10
8.2016007867853187
20
17.252362577163765
30
0
10
7.7328771173711424
20
16.067325929472595
30
0
10
7.3096524046077196
20
14.865316655473071
30
0
10
7.1164217442274058
20
14.316518254071532
30
0
0
SPLINE
5
106
100
AcDbEntity
8
0
100
AcDbSpline
70
0
71
3
72
9
73
5
74
0
42
0.000000001
43
0.0000000001
44
0.0000000001
40
0
40
0
40
0
40
0
40
0.087760926780854315
40
0.21022790436907024
40
0.21022790436907024
40
0.21022790436907024
40
0.21022790436907024
10
7.1164217442274058
20
14.316518254071532
30
0
10
7.0235712299282937
20
14.039106321198219
30
0
10
6.8011514155907049
20
13.374576769903037
30
0
10
6.5856608324744794
20
12.707765825523495
30
0
10
6.4601281136274302
20
12.319319195538817
30
0
0
SPLINE
5
107
100
AcDbEntity
8
0
100
AcDbSpline
70
0
71
3
72
9
73
5
74
0
42
0.000000001
43
0.0000000001
44
0.0000000001
40
0
40
0
40
0
40
0
40
0.12231959801753306
40
0.20963825981430678
40
0.20963825981430678
40
0.20963825981430678
40
0.20963825981430678
10
6.4601281136274302
20
12.319319195538817
30
0
10
6.3347512283059384
20
11.931338456603536
30
0
10
6.1198732162316354
20
11.266395076555774
30
0
10
5.8980613248245159
20
10.603734697639053
30
0
10
5.8056720942258799
20
10.327722973614989
30
0
0
SPLINE
5
108
100
AcDbEntity
8
0
100
AcDbSpline
70
0
71
3
72
9
73
5
74
0
42
0.000000001
43
0.0000000001
44
0.0000000001
40
0
40
0
40
0
40
0
40
0.011131044480335649
40
0.019585615089845972
40
0.019585615089845972
40
0.019585615089845972
40
0.019585615089845972
10
5.8056720942258799
20
10.327722973614989
30
0
10
5.7917769245963813
20
10.290373199626718
30
0
10
5.7673276966328917
20
10.224654452538841
30
0
10
5.7009308434424808
20
10.206645020451031
30
0
10
5.6722691506147349
20
10.198870844632445
30
0
0
LINE
5
109
100
AcDbEntity
8
0
100
AcDbLine
10
5.672269150614734
20
10.198870844632445
30
0
11
4.6022409051656687
21
10.198870844632445
31
0
0
SPLINE
5
110
100
AcDbEntity
8
0
100
AcDbSpline
70
0
71
3
72
9
73
5
74
0
42
0.000000001
43
0.0000000001
44
0.0000000001
40
0
40
0
40
0
40
0
40
0.0072265596452774665
40
0.016920341610962716
40
0.016920341610962716
40
0.016920341610962716
40
0.016920341610962716
10
4.6022409051656687
20
10.198870844632445
30
0
10
4.5756693473023944
20
10.206773754565086
30
0
10
4.5134544264754606
20
10.22527770974496
30
0
10
4.5336169913607796
20
10.290408874260446
30
0
10
4.5451682657003367
20
10.327722973614989
30
0
0
SPLINE
5
111
100
AcDbEntity
8
0
100
AcDbSpline
70
0
71
3
72
9
73
5
74
0
42
0.000000001
43
0.0000000001
44
0.0000000001
40
0
40
0
40
0
40
0
40
0.087587882626384214
40
0.21071086282265422
40
0.21071086282265422
40
0.21071086282265422
40
0.21071086282265422
10
4.5451682657003367
20
10.327722973614989
30
0
10
4.6397624870316365
20
10.603934114520401
30
0
10
4.8673285543582958
20
11.26841744344925
30
0
10
5.0982845038883866
20
11.931730704088555
30
0
10
5.233237132430073
20
12.319319195538817
30
0
0
SPLINE
5
112
100
AcDbEntity
8
0
100
AcDbSpline
70
0
71
3
72
9
73
5
74
0
42
0.000000001
43
0.0000000001
44
0.0000000001
40
0
40
0
40
0
40
0
40
0.12327038547541423
40
0.21130047784860861
40
0.21130047784860861
40
0.21130047784860861
40
0.21130047784860861
10
5.233237132430073
20
12.319319195538817
30
0
10
5.3683483753702044
20
12.707372769331361
30
0
10
5.5999455273208909
20
13.372543931545163
30
0
10
5.8280949550665762
20
14.038904956009981
30
0
10
5.9231445044279063
20
14.316518254071532
30
0
0
SPLINE
5
113
100
AcDbEntity
8
0
100
AcDbSpline
70
0
71
3
72
9
73
5
74
0
42
0.000000001
43
0.0000000001
44
0.0000000001
40
0
40
0
40
0
40
0
40
0.079491402433955721
40
0.19020249811238979
40
0.19020249811238979
40
0.19020249811238979
40
0.19020249811238979
10
5.9231445044279063
20
14.316518254071532
30
0
10
6.0050670600192841
20
14.568521739653191
30
0
10
6.2010866828731812
20
15.171501320123969
30
0
10
6.378737781700905
20
15.78016245784881
30
0
10
6.4821430891752208
20
16.1344456146062
30
0
0
SPLINE
5
114
100
AcDbEntity
8
0
100
AcDbSpline
70
0
71
3
72
9
73
5
74
0
42
0.000000001
43
0.0000000001
44
0.0000000001
40
0
40
0
40
0
40
0
40
0.11056307438892481
40
0.1896102650663164
40
0.1896102650663164
40
0.1896102650663164
40
0.1896102650663164
10
6.4821430891752208
20
16.1344456146062
30
0
10
6.5853933199932371
20
16.488259884354704
30
0
10
6.7624624159980744
20
17.095034052331162
30
0
10
6.9577865748834578
20
17.69616348916
30
0
10
7.0392158478498423
20
17.946770138531981
30
0
0
SPLINE
5
115
100
AcDbEntity
8
0
100
AcDbSpline
70
0
71
3
72
9
73
5
74
0
42
0.000000001
43
0.0000000001
44
0.0000000001
40
0
40
0
40
0
40
0
40
0.010208918325682236
40
0.020377786919293251
40
0.020377786919293251
40
0.020377786919293251
40
0.020377786919293251
10
7.0392158478498423
20
17.946770138531981
30
0
10
7.0551852544422156
20
17.979449839009376
30
0
10
7.0870614194173314
20
18.044681037033499
30
0
10
7.1590281072946249
20
18.054109822524531
30
0
10
7.1949407309293711
20
18.058814949780761
30
0
0
SPLINE
5
116
100
AcDbEntity
8
0
100
AcDbSpline
70
0
71
3
72
9
73
5
74
0
42
0.000000001
43
0.0000000001
44
0.0000000001
40
0
40
0
40
0
40
0
40
0.012469875497786363
40
0.029736265786613023
40
0.029736265786613023
40
0.029736265786613023
40
0.029736265786613023
10
7.1949407309293711
20
18.058814949780761
30
0
10
7.2365016866702572
20
18.057756980006268
30
0
10
7.3356099437235081
20
18.055234094319552
30
0
10
7.4344058989459523
20
18.046866740084791
30
0
10
7.4917718619108165
20
18.042008228093444
30
0
0
SPLINE
5
117
100
AcDbEntity
8
0
100
AcDbSpline
70
0
71
3
72
9
73
5
74
0
42
0.000000001
43
0.0000000001
44
0.0000000001
40
0
40
0
40
0
40
0
40
0.01726639028882666
40
0.029736265786613023
40
0.029736265786613023
40
0.029736265786613023
40
0.029736265786613023
10
7.4917718619108165
20
18.042008228093444
30
0
10
7.5491378248756806
20
18.037149716102096
30
0
10
7.6479337800981266
20
18.028782361867339
30
0
10
7.7470420371513775
20
18.02625947618062
30
0
10
7.7886029928922618
20
18.025201506406127
30
0
0
SPLINE
5
118
100
AcDbEntity
8
0
100
AcDbSpline
70
0
71
3
72
9
73
5
74
0
42
0.000000001
43
0.0000000001
44
0.0000000001
40
0
40
0
40
0
40
0
40
0.013314202869344871
40
0.031990749617967745
40
0.031990749617967745
40
0.031990749617967745
40
0.031990749617967745
10
7.7886029928922618
20
18.025201506406127
30
0
10
7.8329780222810523
20
18.026270207994994
30
0
10
7.9396002863698243
20
18.028838034644568
30
0
10
8.0459375029232287
20
18.037153543686038
30
0
10
8.1080183237791026
20
18.042008228093444
30
0
0
SPLINE
5
119
100
AcDbEntity
8
0
100
AcDbSpline
70
0
71
3
72
9
73
5
74
0
42
0.000000001
43
0.0000000001
44
0.0000000001
40
0
40
0
40
0
40
0
40
0.10122792742944597
40
0.19267471094994804
40
0.19267471094994804
40
0.19267471094994804
40
0.19267471094994804
10
11.206057950854298
20
15.750691838055907
30
0
10
11.558621655997852
20
15.7233581471154
30
0
10
12.229682614223268
20
15.671331881885102
30
0
10
12.656376965590358
20
15.155282028588841
30
0
10
12.858893558382984
20
14.910355753690062
30
0
0
SPLINE
5
120
100
AcDbEntity
8
0
100
AcDbSpline
70
0
71
3
72
9
73
5
74
0
42
0.000000001
43
0.0000000001
44
0.0000000001
40
0
40
0
40
0
40
0
40
0.094485584948553511
40
0.20371121539675341
40
0.20371121539675341
40
0.20371121539675341
40
0.20371121539675341
10
12.858893558382984
20
14.910355753690062
30
0
10
12.982303111797615
20
14.610943523561291
30
0
10
13.248374493282459
20
13.965409822971985
30
0
10
13.059340116954187
20
13.289546281861606
30
0
10
12.95798389613628
20
12.927162594586669
30
0
0
SPLINE
5
121
100
AcDbEntity
8
0
100
AcDbSpline
70
0
71
3
72
9
73
5
74
0
42
0.000000001
43
0.0000000001
44
0.0000000001
40
0
40
0
40
0
40
0
40
0.1221703325083472
40
0.2495350686227753
40
0.2495350686227753
40
0.2495350686227753
40
0.2495350686227753
10
12.95798389613628
20
12.927162594586669
30
0
10
12.794710225251515
20
12.548364849862349
30
0
10
12.461220859772881
20
11.774663745156932
30
0
10
11.832009341886005
20
11.213556060581499
30
0
10
11.510854646563526
20
10.927162117749511
30
0
0
SPLINE
5
122
100
AcDbEntity
8
0
100
AcDbSpline
70
0
71
3
72
9
73
5
74
0
42
0.000000001
43
0.0000000001
44
0.0000000001
40
0
40
0
40
0
40
0
40
0.12711733564245889
40
0.24298169047539453
40
0.24298169047539453
40
0.24298169047539453
40
0.24298169047539453
10
11.510854646563526
20
10.927162117749511
30
0
10
11.158614592450022
20
10.677322598918039
30
0
10
10.485316309654227
20
10.199760444815176
30
0
10
9.666167050143585
20
10.111909777126497
30
0
10
9.2755606621503794
20
10.070018715649901
30
0
0
SPLINE
5
123
100
AcDbEntity
8
0
100
AcDbSpline
70
0
71
3
72
9
73
5
74
0
42
0.000000001
43
0.0000000001
44
0.0000000001
40
0
40
0
40
0
40
0
40
0.10201409238229805
40
0.1940357407348276
40
0.1940357407348276
40
0.1940357407348276
40
0.1940357407348276
10
9.2755606621503794
20
10.070018715649901
30
0
10
8.9199346089270115
20
10.09759551513903
30
0
10
8.2435166449931057
20
10.150047922360541
30
0
10
7.8174392633167535
20
10.673372609473674
30
0
10
7.615371629595753
20
10.921559877187072
30
0
0
SPLINE
5
124
100
AcDbEntity
8
0
100
AcDbSpline
70
0
71
3
72
9
73
5
74
0
42
0.000000001
43
0.0000000001
44
0.0000000001
40
0
40
0
40
0
40
0
40
0.094850228004623435
40
0.20468172568833648
40
0.20468172568833648
40
0.20468172568833648
40
0.20468172568833648
10
7.615371629595753
20
10.921559877187072
30
0
10
7.4942792213670035
20
11.22302138807142
30
0
10
7.2329682724591233
20
11.873559226245236
30
0
10
7.4234411059251215
20
12.551940887924037
30
0
10
7.5256481617689097
20
12.915958113461791
30
0
0
SPLINE
5
125
100
AcDbEntity
8
0
100
AcDbSpline
70
0
71
3
72
9
73
5
74
0
42
0.000000001
43
0.0000000001
44
0.0000000001
40
0
40
0
40
0
40
0
40
0.12202671349905503
40
0.24899091462088835
40
0.24899091462088835
40
0.24899091462088835
40
0.24899091462088835
10
7.5256481617689097
20
12.915958113461791
30
0
10
7.6886995722710916
20
13.294379693962721
30
0
10
8.0213998365577197
20
14.066534681501071
30
0
10
8.6502688618265147
20
14.625388043891533
30
0
10
8.9709386080503428
20
14.910355753690062
30
0
0
SPLINE
5
126
100
AcDbEntity
8
0
100
AcDbSpline
70
0
71
3
72
9
73
5
74
0
42
0.000000001
43
0.0000000001
44
0.0000000001
40
0
40
0
40
0
40
0
40
0.12647315707481474
40
0.24225625839745396
40
0.24225625839745396
40
0.24225625839745396
40
0.24225625839745396
10
8.9709386080503428
20
14.910355753690062
30
0
10
9.3236304045189158
20
15.155311125093602
30
0
10
9.9992029683429546
20
15.624517185281352
30
0
10
10.81578406356134
20
15.709889361428854
30
0
10
11.206057950854298
20
15.750691838055907
30
0
0
SPLINE
5
127
100
AcDbEntity
8
0
100
AcDbSpline
70
0
71
3
72
9
73
5
74
0
42
0.000000001
43
0.0000000001
44
0.0000000001
40
0
40
0
40
0
40
0
40
0.023737603406312743
40
0.061239510115216778
40
0.061239510115216778
40
0.061239510115216778
40
0.061239510115216778
10
12.46553336083889
20
39.919939856103667
30
0
10
12.544465913228768
20
39.913434223540818
30
0
10
12.748100237964948
20
39.896650652582991
30
0
10
12.947733597778388
20
39.852462253189273
30
0
10
13.069985255599022
20
39.825402121118316
30
0
0
SPLINE
5
128
100
AcDbEntity
8
0
100
AcDbSpline
70
0
71
3
72
9
73
5
74
0
42
0.000000001
43
0.0000000001
44
0.0000000001
40
0
40
0
40
0
40
0
40
0.036714916933123051
40
0.050266844106339914
40
0.050266844106339914
40
0.050266844106339914
40
0.050266844106339914
10
13.069985255599022
20
39.825402121118316
30
0
10
13.197767011151754
20
39.807823524564469
30
0
10
13.37271458348873
20
39.783756451930486
30
0
10
13.487346728895545
20
39.657704919036931
30
0
10
13.518251523375511
20
39.623721460870513
30
0
0
SPLINE
5
129
100
AcDbEntity
8
0
100
AcDbSpline
70
0
71
3
72
9
73
5
74
0
42
0.000000001
43
0.0000000001
44
0.0000000001
40
0
40
0
40
0
40
0
40
0.0045016321702569554
40
0.012725071330732585
40
0.012725071330732585
40
0.012725071330732585
40
0.012725071330732585
10
13.518251523375511
20
39.623721460870513
30
0
10
13.512184806714124
20
39.609989974603351
30
0
10
13.495035604082791
20
39.571174243859943
30
0
10
13.474203747142875
20
39.534181864144493
30
0
10
13.460741385817528
20
39.510275940469512
30
0
0
SPLINE
5
130
100
AcDbEntity
8
0
100
AcDbSpline
70
0
71
3
72
9
73
5
74
0
42
0.000000001
43
0.0000000001
44
0.0000000001
40
0
40
0
40
0
40
0
40
0.14890699143713609
40
0.27200492527603359
40
0.27200492527603359
40
0.27200492527603359
40
0.27200492527603359
10
13.460741385817528
20
39.510275940469512
30
0
10
13.238313356071407
20
39.066070606470461
30
0
10
12.832009266340803
20
38.25465109207758
30
0
10
12.513204781401772
20
37.405203946280309
30
0
10
12.368927344679832
20
37.020780067018279
30
0
0
SPLINE
5
131
100
AcDbEntity
8
0
100
AcDbSpline
70
0
71
3
72
9
73
5
74
0
42
0.000000001
43
0.0000000001
44
0.0000000001
40
0
40
0
40
0
40
0
40
0.076870356962414649
40
0.29418773791119235
40
0.29418773791119235
40
0.29418773791119235
40
0.29418773791119235
10
12.368927344679832
20
37.020780067018279
30
0
10
12.298257930832065
20
36.774483400176841
30
0
10
12.027801596024752
20
35.831890414579348
30
0
10
11.761490292737681
20
34.888116388979078
30
0
10
11.564765319228172
20
34.190947632364043
30
0
0
LINE
5
132
100
AcDbEntity
8
0
100
AcDbLine
10
11.564765319228172
20
34.190947632364043
30
0
11
11.541130885481834
21
34.102712492517242
31
0
0
SPLINE
5
133
100
AcDbEntity
8
0
100
AcDbSpline
70
0
71
3
72
9
73
5
74
0
42
0.000000001
43
0.0000000001
44
0.0000000001
40
0
40
0
40
0
40
0
40
0.016140379435581449
40
0.031243060695961965
40
0.031243060695961965
40
0.031243060695961965
40
0.031243060695961965
10
11.541130885481834
20
34.102712492517242
30
0
10
11.518637790445862
20
34.049420964341373
30
0
10
11.475097727694944
20
33.946264129892441
30
0
10
11.365131694449079
20
33.928517983256995
30
0
10
11.311974868178368
20
33.919939617685088
30
0
0
SPLINE
5
134
100
AcDbEntity
8
0
100
AcDbSpline
70
0
71
3
72
9
73
5
74
0
42
0.000000001
43
0.0000000001
44
0.0000000001
40
0
40
0
40
0
40
0
40
0.022115829024079648
40
0.053877068243254972
40
0.053877068243254972
40
0.053877068243254972
40
0.053877068243254972
10
11.311974868178368
20
33.919939617685088
30
0
10
11.238279790377838
20
33.917288888463119
30
0
10
11.058748888256646
20
33.910831363446491
30
0
10
10.880192433242611
20
33.89078873688176
30
0
10
10.774931058287621
20
33.878973345330962
30
0
0
SPLINE
5
135
100
AcDbEntity
8
0
100
AcDbSpline
70
0
71
3
72
9
73
5
74
0
42
0.000000001
43
0.0000000001
44
0.0000000001
40
0
40
0
40
0
40
0
40
0.031682800799866025
40
0.053562499714192767
40
0.053562499714192767
40
0.053562499714192767
40
0.053562499714192767
10
10.774931058287621
20
33.878973345330962
30
0
10
10.66993242495429
20
33.867165334669579
30
0
10
10.492423204622639
20
33.847202877067716
30
0
10
10.313945389467701
20
33.840674034285513
30
0
10
10.241039142012596
20
33.838007072976836
30
0
0
SPLINE
5
136
100
AcDbEntity
8
0
100
AcDbSpline
70
0
71
3
72
9
73
5
74
0
42
0.000000001
43
0.0000000001
44
0.0000000001
40
0
40
0
40
0
40
0
40
0.012961588522104094
40
0.04623695739144406
40
0.04623695739144406
40
0.04623695739144406
40
0.04623695739144406
10
10.241039142012596
20
33.838007072976836
30
0
10
10.214521631908561
20
33.873902910336554
30
0
10
10.119927594864667
20
34.001951590457907
30
0
10
10.17125684302221
20
34.163163404287232
30
0
10
10.208196982741356
20
34.279182772210845
30
0
0
SPLINE
5
137
100
AcDbEntity
8
0
100
AcDbSpline
70
0
71
3
72
9
73
5
74
0
42
0.000000001
43
0.0000000001
44
0.0000000001
40
0
40
0
40
0
40
0
40
0.033478924166961736
40
0.044703113086769393
40
0.044703113086769393
40
0.044703113086769393
40
0.044703113086769393
10
10.208196982741356
20
34.279182772210845
30
0
10
10.239312088547965
20
34.389714009646774
30
0
10
10.280858886367479
20
34.537302097665297
30
0
10
10.246905335961348
20
34.683621386724198
30
0
10
10.238380178809166
20
34.720359663537749
30
0
0
SPLINE
5
138
100
AcDbEntity
8
0
100
AcDbSpline
70
0
71
3
72
9
73
5
74
0
42
0.000000001
43
0.0000000001
44
0.0000000001
40
0
40
0
40
0
40
0
40
0.01391695420170963
40
0.049041156808791384
40
0.049041156808791384
40
0.049041156808791384
40
0.049041156808791384
10
10.238380178809166
20
34.720359663537749
30
0
10
10.196454172685165
20
34.700425090550418
30
0
10
10.048713524056678
20
34.630178791998418
30
0
10
9.9122636783623257
20
34.539504598850627
30
0
10
9.8145357221364975
20
34.474562029412994
30
0
0
SPLINE
5
139
100
AcDbEntity
8
0
100
AcDbSpline
70
0
71
3
72
9
73
5
74
0
42
0.000000001
43
0.0000000001
44
0.0000000001
40
0
40
0
40
0
40
0
40
0.052266226957156769
40
0.096706213181333156
40
0.096706213181333156
40
0.096706213181333156
40
0.096706213181333156
10
9.8145357221364975
20
34.474562029412994
30
0
10
9.6664763209097355
20
34.382347312992955
30
0
10
9.3925276383259995
20
34.211725928138009
30
0
10
9.0995230371936557
20
34.076581213868529
30
0
10
8.9648768752813339
20
34.01447735267044
30
0
0
SPLINE
5
140
100
AcDbEntity
8
0
100
AcDbSpline
70
0
71
3
72
9
73
5
74
0
42
0.000000001
43
0.0000000001
44
0.0000000001
40
0
40
0
40
0
40
0
40
0.059310093990612919
40
0.11162287161885887
40
0.11162287161885887
40
0.11162287161885887
40
0.11162287161885887
10
8.9648768752813339
20
34.01447735267044
30
0
10
8.7798494344911386
20
33.941036040790785
30
0
10
8.431623814201977
20
33.802817913388026
30
0
10
8.0583437499682891
20
33.77528200445709
30
0
10
7.8834036439657211
20
33.762377123407134
30
0
0
SPLINE
5
141
100
AcDbEntity
8
0
100
AcDbSpline
70
0
71
3
72
9
73
5
74
0
42
0.000000001
43
0.0000000001
44
0.0000000001
40
0
40
0
40
0
40
0
40
0.10717559676537688
40
0.20749702070618659
40
0.20749702070618659
40
0.20749702070618659
40
0.20749702070618659
10
7.8834036439657211
20
33.762377123407134
30
0
10
7.5087401338226289
20
33.797427241485664
30
0
10
6.7833738707151667
20
33.865285926635948
30
0
10
6.3594862516742277
20
34.454427237648346
30
0
10
6.1545435041189194
20
34.739267448953399
30
0
0
SPLINE
5
142
100
AcDbEntity
8
0
100
AcDbSpline
70
0
71
3
72
9
73
5
74
0
42
0.000000001
43
0.0000000001
44
0.0000000001
40
0
40
0
40
0
40
0
40
0.10410330067853374
40
0.22219918857909304
40
0.22219918857909304
40
0.22219918857909304
40
0.22219918857909304
10
6.1545435041189194
20
34.739267448953399
30
0
10
6.0371439705679091
20
35.074642812904742
30
0
10
5.7865651615909366
20
35.790471545074539
30
0
10
5.9907671366607564
20
36.523854134103729
30
0
10
6.0992977470159531
20
36.913637141755828
30
0
0
SPLINE
5
143
100
AcDbEntity
8
0
100
AcDbSpline
70
0
71
3
72
9
73
5
74
0
42
0.000000001
43
0.0000000001
44
0.0000000001
40
0
40
0
40
0
40
0
40
0.14266554714366714
40
0.28331410725410477
40
0.28331410725410477
40
0.28331410725410477
40
0.28331410725410477
10
6.0992977470159531
20
36.913637141755828
30
0
10
6.2829562255393387
20
37.35870138488103
30
0
10
6.647676642796787
20
38.242537610488895
30
0
10
7.3414445525187224
20
38.900181275407533
30
0
10
7.6858589500188828
20
39.22666213946701
30
0
0
SPLINE
5
144
100
AcDbEntity
8
0
100
AcDbSpline
70
0
71
3
72
9
73
5
74
0
42
0.000000001
43
0.0000000001
44
0.0000000001
40
0
40
0
40
0
40
0
40
0.14075348218143902
40
0.27450109218264368
40
0.27450109218264368
40
0.27450109218264368
40
0.27450109218264368
10
7.6858589500188828
20
39.22666213946701
30
0
10
8.0755428864644188
20
39.504182792408315
30
0
10
8.835514607962887
20
40.045410768831871
30
0
10
9.7631565116858123
20
40.134792849804938
30
0
10
10.215139731764793
20
40.178343276551971
30
0
0
SPLINE
5
145
100
AcDbEntity
8
0
100
AcDbSpline
70
0
71
3
72
9
73
5
74
0
42
0.000000001
43
0.0000000001
44
0.0000000001
40
0
40
0
40
0
40
0
40
0.086239034147496563
40
0.16514977113461476
40
0.16514977113461476
40
0.16514977113461476
40
0.16514977113461476
10
10.215139731764793
20
40.178343276551971
30
0
10
10.512811194581342
20
40.155791954261502
30
0
10
11.082859020875162
20
40.112605643655534
30
0
10
11.480720956292771
20
39.705023878812462
30
0
10
11.670824632048607
20
39.510275940469512
30
0
0
SPLINE
5
146
100
AcDbEntity
8
0
100
AcDbSpline
70
0
71
3
72
9
73
5
74
0
42
0.000000001
43
0.0000000001
44
0.0000000001
40
0
40
0
40
0
40
0
40
0.017607686324373255
40
0.042156063416450777
40
0.042156063416450777
40
0.042156063416450777
40
0.042156063416450777
10
11.670824632048607
20
39.510275940469512
30
0
10
11.698667559063615
20
39.458598423934838
30
0
10
11.765328685081037
20
39.334872874529474
30
0
10
11.838228406680072
20
39.214705579831886
30
0
10
11.880679473280907
20
39.144729594758758
30
0
0
SPLINE
5
147
100
AcDbEntity
8
0
100
AcDbSpline
70
0
71
3
72
9
73
5
74
0
42
0.000000001
43
0.0000000001
44
0.0000000001
40
0
40
0
40
0
40
0
40
0.0020002121862548123
40
0.0037943915416587953
40
0.0037943915416587953
40
0.0037943915416587953
40
0.0037943915416587953
10
11.880679473280907
20
39.144729594758758
30
0
10
11.88492554376686
20
39.139219581703394
30
0
10
11.892980316179463
20
39.128767117172188
30
0
10
11.905957323061859
20
39.12676738390941
30
0
10
11.912093505263329
20
39.125821809343108
30
0
0
SPLINE
5
148
100
AcDbEntity
8
0
100
AcDbSpline
70
0
71
3
72
9
73
5
74
0
42
0.000000001
43
0.0000000001
44
0.0000000001
40
0
40
0
40
0
40
0
40
0.012712745473135162
40
0.046643730824134949
40
0.046643730824134949
40
0.046643730824134949
40
0.046643730824134949
10
11.912093505263329
20
39.125821809343108
30
0
10
11.939407361987623
20
39.158351041637538
30
0
10
12.039623336853891
20
39.277702503386173
30
0
10
12.105920953662006
20
39.419633451967783
30
0
10
12.154149159789085
20
39.522881130746612
30
0
0
SPLINE
5
149
100
AcDbEntity
8
0
100
AcDbSpline
70
0
71
3
72
9
73
5
74
0
42
0.000000001
43
0.0000000001
44
0.0000000001
40
0
40
0
40
0
40
0
40
0.034795039732342083
40
0.051264399310137883
40
0.051264399310137883
40
0.051264399310137883
40
0.051264399310137883
10
12.154149159789085
20
39.522881130746612
30
0
10
12.203088119842572
20
39.632109444623261
30
0
10
12.275191109501558
20
39.79303824199264
30
0
10
12.419251934389369
20
39.889083923285071
30
0
10
12.46553336083889
20
39.919939856103667
30
0
0
SPLINE
5
150
100
AcDbEntity
8
0
100
AcDbSpline
70
0
71
3
72
9
73
5
74
0
42
0.000000001
43
0.0000000001
44
0.0000000001
40
0
40
0
40
0
40
0
40
0.061357293186846372
40
0.096973438671497075
40
0.096973438671497075
40
0.096973438671497075
40
0.096973438671497075
10
15.377790078520775
20
37.732964973024139
30
0
10
15.547983181752276
20
37.618199364053666
30
0
10
15.816968490609902
20
37.436815617068547
30
0
10
16.044441552297577
20
37.20628797401416
30
0
10
16.127987250685692
20
37.121620397142181
30
0
0
SPLINE
5
151
100
AcDbEntity
8
0
100
AcDbSpline
70
0
71
3
72
9
73
5
74
0
42
0.000000001
43
0.0000000001
44
0.0000000001
40
0
40
0
40
0
40
0
40
0.059451352585629905
40
0.13024677569045237
40
0.13024677569045237
40
0.13024677569045237
40
0.13024677569045237
10
16.127987250685692
20
37.121620397142181
30
0
10
16.215577932188829
20
36.936665887216989
30
0
10
16.407472705817082
20
36.531465205996732
30
0
10
16.283697882092383
20
36.097174355881627
30
0
10
16.216420277953148
20
35.861116270593413
30
0
0
SPLINE
5
152
100
AcDbEntity
8
0
100
AcDbSpline
70
0
71
3
72
9
73
5
74
0
42
0.000000001
43
0.0000000001
44
0.0000000001
40
0
40
0
40
0
40
0
40
0.097035154469435364
40
0.19974599975065666
40
0.19974599975065666
40
0.19974599975065666
40
0.19974599975065666
10
16.216420277953148
20
35.861116270593413
30
0
10
16.079792298900589
20
35.561071498592987
30
0
10
15.798544822983372
20
34.943432012358542
30
0
10
15.241152619433629
20
34.554701810068543
30
0
10
14.954537495970726
20
34.354813913873443
30
0
0
SPLINE
5
153
100
AcDbEntity
8
0
100
AcDbSpline
70
0
71
3
72
9
73
5
74
0
42
0.000000001
43
0.0000000001
44
0.0000000001
40
0
40
0
40
0
40
0
40
0.096752421165299224
40
0.1923054854720645
40
0.1923054854720645
40
0.1923054854720645
40
0.1923054854720645
10
14.954537495970726
20
34.354813913873443
30
0
10
14.665090585874241
20
34.204080121332979
30
0
10
14.089784791000175
20
33.904481053915148
30
0
10
13.442777689215099
20
33.860072745788031
30
0
10
13.121291741728783
20
33.838007072976836
30
0
0
SPLINE
5
154
100
AcDbEntity
8
0
100
AcDbSpline
70
0
71
3
72
9
73
5
74
0
42
0.000000001
43
0.0000000001
44
0.0000000001
40
0
40
0
40
0
40
0
40
0.029465651959552551
40
0.042299516576879401
40
0.042299516576879401
40
0.042299516576879401
40
0.042299516576879401
10
13.121291741728783
20
33.838007072976836
30
0
10
13.022880455489716
20
33.836351319566454
30
0
10
12.881605799855567
20
33.833974397144182
30
0
10
12.741599064180601
20
33.851574812715207
30
0
10
12.699120387434959
20
33.856914858392486
30
0
0
SPLINE
5
155
100
AcDbEntity
8
0
100
AcDbSpline
70
0
71
3
72
9
73
5
74
0
42
0.000000001
43
0.0000000001
44
0.0000000001
40
0
40
0
40
0
40
0
40
0.011208728121498888
40
0.032300390937134639
40
0.032300390937134639
40
0.032300390937134639
40
0.032300390937134639
10
12.699120387434959
20
33.856914858392486
30
0
10
12.679970758195861
20
33.890632883382665
30
0
10
12.624786931447691
20
33.98779871495654
30
0
10
12.668445787369482
20
34.095446246831294
30
0
10
12.696954354643822
20
34.16573844390274
30
0
0
SPLINE
5
156
100
AcDbEntity
8
0
100
AcDbSpline
70
0
71
3
72
9
73
5
74
0
42
0.000000001
43
0.0000000001
44
0.0000000001
40
0
40
0
40
0
40
0
40
0.018046193989336417
40
0.042959471465412923
40
0.042959471465412923
40
0.042959471465412923
40
0.042959471465412923
10
12.696954354643822
20
34.16573844390274
30
0
10
12.714367084853732
20
34.223340026131709
30
0
10
12.755818578006778
20
34.360462209878058
30
0
10
12.786126418523018
20
34.500495143840489
30
0
10
12.80370269715786
20
34.581703762582549
30
0
0
SPLINE
5
157
100
AcDbEntity
8
0
100
AcDbSpline
70
0
71
3
72
9
73
5
74
0
42
0.000000001
43
0.0000000001
44
0.0000000001
40
0
40
0
40
0
40
0
40
0.024747638676237058
40
0.042294665067112436
40
0.042294665067112436
40
0.042294665067112436
40
0.042294665067112436
10
12.80370269715786
20
34.581703762582549
30
0
10
12.82111165024148
20
34.662382680555801
30
0
10
12.850864219748155
20
34.800266050290482
30
0
10
12.891448690535352
20
34.935332074495264
30
0
10
12.908286198973656
20
34.991367678216704
30
0
0
SPLINE
5
158
100
AcDbEntity
8
0
100
AcDbSpline
70
0
71
3
72
9
73
5
74
0
42
0.000000001
43
0.0000000001
44
0.0000000001
40
0
40
0
40
0
40
0
40
0.0085001278458760061
40
0.019104139305275436
40
0.019104139305275436
40
0.019104139305275436
40
0.019104139305275436
10
12.908286198973656
20
34.991367678216704
30
0
10
12.923350430656281
20
35.016634658915024
30
0
10
12.957207472080832
20
35.07342250114948
30
0
10
13.022067601220602
20
35.089555669639424
30
0
10
13.058069095015526
20
35.098510603479156
30
0
0
SPLINE
5
159
100
AcDbEntity
8
0
100
AcDbSpline
70
0
71
3
72
9
73
5
74
0
42
0.000000001
43
0.0000000001
44
0.0000000001
40
0
40
0
40
0
40
0
40
0.010294897215199883
40
0.023397005673660803
40
0.023397005673660803
40
0.023397005673660803
40
0.023397005673660803
10
13.058069095015526
20
35.098510603479156
30
0
10
13.092228218069677
20
35.102899680179576
30
0
10
13.169860969441418
20
35.112874646448319
30
0
10
13.247683069250989
20
35.103666872428661
30
0
10
13.291262730956078
20
35.098510603479156
30
0
0
SPLINE
5
160
100
AcDbEntity
8
0
100
AcDbSpline
70
0
71
3
72
9
73
5
74
0
42
0.000000001
43
0.0000000001
44
0.0000000001
40
0
40
0
40
0
40
0
40
0.014087222673131483
40
0.018365133661831366
40
0.018365133661831366
40
0.018365133661831366
40
0.018365133661831366
10
13.291262730956078
20
35.098510603479156
30
0
10
13.338000444545354
20
35.093961015921174
30
0
10
13.398931145864687
20
35.088029840873595
30
0
10
13.459766000535966
20
35.081195887678625
30
0
10
13.473936662077904
20
35.079604010156402
30
0
0
SPLINE
5
161
100
AcDbEntity
8
0
100
AcDbSpline
70
0
71
3
72
9
73
5
74
0
42
0.000000001
43
0.0000000001
44
0.0000000001
40
0
40
0
40
0
40
0
40
0.097282089375010095
40
0.17042865226298462
40
0.17042865226298462
40
0.17042865226298462
40
0.17042865226298462
10
13.473936662077904
20
35.079604010156402
30
0
10
13.822081026430819
20
35.088539994577339
30
0
10
14.431995710529517
20
35.104194960371018
30
0
10
14.768951432566485
20
35.598531126377587
30
0
10
14.913570031523705
20
35.810696105531463
30
0
0
SPLINE
5
162
100
AcDbEntity
8
0
100
AcDbSpline
70
0
71
3
72
9
73
5
74
0
42
0.000000001
43
0.0000000001
44
0.0000000001
40
0
40
0
40
0
40
0
40
0.033293414351485535
40
0.075242222458910921
40
0.075242222458910921
40
0.075242222458910921
40
0.075242222458910921
10
14.913570031523705
20
35.810696105531463
30
0
10
14.92323717334749
20
35.928234298961989
30
0
10
14.945084654292771
20
36.193867460047613
30
0
10
14.727899252104219
20
36.35655141634625
30
0
10
14.606814727187157
20
36.447250465921172
30
0
0
SPLINE
5
163
100
AcDbEntity
8
0
100
AcDbSpline
70
0
71
3
72
9
73
5
74
0
42
0.000000001
43
0.0000000001
44
0.0000000001
40
0
40
0
40
0
40
0
40
0.06597304942033598
40
0.097043749436017526
40
0.097043749436017526
40
0.097043749436017526
40
0.097043749436017526
10
14.606814727187157
20
36.447250465921172
30
0
10
14.422686279970975
20
36.568059824019777
30
0
10
14.151840608099056
20
36.745765617216506
30
0
10
13.904122542892294
20
36.954082738915645
30
0
10
13.8248101323843
20
37.020780067018279
30
0
0
SPLINE
5
164
100
AcDbEntity
8
0
100
AcDbSpline
70
0
71
3
72
9
73
5
74
0
42
0.000000001
43
0.0000000001
44
0.0000000001
40
0
40
0
40
0
40
0
40
0.056039951303703227
40
0.12222904616039704
40
0.12222904616039704
40
0.12222904616039704
40
0.12222904616039704
10
13.8248101323843
20
37.020780067018279
30
0
10
13.730064600007717
20
37.190133853639594
30
0
10
13.523414597983477
20
37.559512329544987
30
0
10
13.638057567227399
20
37.970494993345397
30
0
10
13.700138673186302
20
38.193049053720245
30
0
0
SPLINE
5
165
100
AcDbEntity
8
0
100
AcDbSpline
70
0
71
3
72
9
73
5
74
0
42
0.000000001
43
0.0000000001
44
0.0000000001
40
0
40
0
40
0
40
0
40
0.09608225215848866
40
0.1942034961951935
40
0.1942034961951935
40
0.1942034961951935
40
0.1942034961951935
10
13.700138673186302
20
38.193049053720245
30
0
10
13.832535485263801
20
38.491746717344498
30
0
10
14.100138744064774
20
39.095480802235443
30
0
10
14.64047007595244
20
39.475722204225448
30
0
10
14.913472279906273
20
39.667839030793914
30
0
0
SPLINE
5
166
100
AcDbEntity
8
0
100
AcDbSpline
70
0
71
3
72
9
73
5
74
0
42
0.000000001
43
0.0000000001
44
0.0000000001
40
0
40
0
40
0
40
0
40
0.091949441931247475
40
0.18651698419676105
40
0.18651698419676105
40
0.18651698419676105
40
0.18651698419676105
10
14.913472279906273
20
39.667839030793914
30
0
10
15.191024318517597
20
39.805699154855191
30
0
10
15.754031207000454
20
40.085344730084749
30
0
10
16.381831764369373
20
40.121962446104
30
0
10
16.700138196349144
20
40.14052830176712
30
0
0
SPLINE
5
167
100
AcDbEntity
8
0
100
AcDbSpline
70
0
71
3
72
9
73
5
74
0
42
0.000000001
43
0.0000000001
44
0.0000000001
40
0
40
0
40
0
40
0
40
0.0072420317507871689
40
0.014166541099536939
40
0.014166541099536939
40
0.014166541099536939
40
0.014166541099536939
10
16.700138196349144
20
40.14052830176712
30
0
10
16.726366680154751
20
40.137431038172139
30
0
10
16.777673676119001
20
40.131372308588482
30
0
10
16.793691516728785
20
40.082489394441801
30
0
10
16.801520928740501
20
40.058595757058868
30
0
0
SPLINE
5
168
100
AcDbEntity
8
0
100
AcDbSpline
70
0
71
3
72
9
73
5
74
0
42
0.000000001
43
0.0000000001
44
0.0000000001
40
0
40
0
40
0
40
0
40
0.016861293949204516
40
0.051102451857579986
40
0.051102451857579986
40
0.051102451857579986
40
0.051102451857579986
10
16.801520928740501
20
40.058595757058868
30
0
10
16.803030668037859
20
40.002385667277657
30
0
10
16.80760631804392
20
39.832026653573962
30
0
10
16.794438866164413
20
39.662010620991317
30
0
10
16.785616025328636
20
39.548091511300811
30
0
0
SPLINE
5
169
100
AcDbEntity
8
0
100
AcDbSpline
70
0
71
3
72
9
73
5
74
0
42
0.000000001
43
0.0000000001
44
0.0000000001
40
0
40
0
40
0
40
0
40
0.034473439999461765
40
0.052059534839402205
40
0.052059534839402205
40
0.052059534839402205
40
0.052059534839402205
10
16.785616025328636
20
39.548091511300811
30
0
10
16.779061805741563
20
39.433183583346668
30
0
10
16.769164051907197
20
39.259657144478211
30
0
10
16.737295404954384
20
39.088950600145786
30
0
10
16.726529940962791
20
39.031284670404204
30
0
0
SPLINE
5
170
100
AcDbEntity
8
0
100
AcDbSpline
70
0
71
3
72
9
73
5
74
0
42
0.000000001
43
0.0000000001
44
0.0000000001
40
0
40
0
40
0
40
0
40
0.0075080367784985729
40
0.018040101608901751
40
0.018040101608901751
40
0.018040101608901751
40
0.018040101608901751
10
16.726529940962791
20
39.031284670404204
30
0
10
16.711690833813321
20
39.010000772942675
30
0
10
16.676035840549503
20
38.958860417059093
30
0
10
16.613407879997215
20
38.948877624902842
30
0
10
16.576844796538353
20
38.943049530557403
30
0
0
SPLINE
5
171
100
AcDbEntity
8
0
100
AcDbSpline
70
0
71
3
72
9
73
5
74
0
42
0.000000001
43
0.0000000001
44
0.0000000001
40
0
40
0
40
0
40
0
40
0.042726990534992931
40
0.085619865104033743
40
0.085619865104033743
40
0.085619865104033743
40
0.085619865104033743
10
16.576844796538353
20
38.943049530557403
30
0
10
16.435647953430536
20
38.92438823637648
30
0
10
16.15270608205989
20
38.886993197071561
30
0
10
15.869340523400588
20
38.85295705294233
30
0
10
15.727383241057396
20
38.835906009248504
30
0
0
SPLINE
5
172
100
AcDbEntity
8
0
100
AcDbSpline
70
0
71
3
72
9
73
5
74
0
42
0.000000001
43
0.0000000001
44
0.0000000001
40
0
40
0
40
0
40
0
40
0.04749352932127273
40
0.088006073970603171
40
0.088006073970603171
40
0.088006073970603171
40
0.088006073970603171
10
15.727383241057396
20
38.835906009248504
30
0
10
15.569408340178569
20
38.786762112630072
30
0
10
15.276678972390494
20
38.695697888454433
30
0
10
15.129790916910132
20
38.429181985633349
30
0
10
15.062172755599022
20
38.306494574121245
30
0
0
SPLINE
5
173
100
AcDbEntity
8
0
100
AcDbSpline
70
0
71
3
72
9
73
5
74
0
42
0.000000001
43
0.0000000001
44
0.0000000001
40
0
40
0
40
0
40
0
40
0.028683678344971188
40
0.069219849065040834
40
0.069219849065040834
40
0.069219849065040834
40
0.069219849065040834
10
15.062172755599022
20
38.306494574121245
30
0
10
15.060602348298325
20
38.20582645106937
30
0
10
15.056812619693165
20
37.962892745025592
30
0
10
15.25924353233766
20
37.817884155018753
30
0
10
15.377790078520775
20
37.732964973024139
30
0
0
SPLINE
5
174
100
AcDbEntity
8
0
100
AcDbSpline
70
0
71
3
72
9
73
5
74
0
42
0.000000001
43
0.0000000001
44
0.0000000001
40
0
40
0
40
0
40
0
40
0.068211252048063054
40
0.16338129378383498
40
0.16338129378383498
40
0.16338129378383498
40
0.16338129378383498
10
36.171689232253222
20
81.592644848135762
30
0
10
36.099310002979472
20
81.37710097597386
30
0
10
35.925945466092067
20
80.860824912368216
30
0
10
35.756953166230936
20
80.34310007621022
30
0
10
35.658514698409228
20
80.041523970869832
30
0
0
SPLINE
5
175
100
AcDbEntity
8
0
100
AcDbSpline
70
0
71
3
72
9
73
5
74
0
42
0.000000001
43
0.0000000001
44
0.0000000001
40
0
40
0
40
0
40
0
40
0.095169976243006799
40
0.16338120002791859
40
0.16338120002791859
40
0.16338120002791859
40
0.16338120002791859
10
35.658514698409228
20
80.041523970869832
30
0
10
35.560076735602848
20
79.73994792946138
30
0
10
35.39108528339797
20
79.222223143871716
30
0
10
35.217720641371614
20
78.705947444235292
30
0
10
35.145341356658129
20
78.49040368965035
30
0
0
SPLINE
5
176
100
AcDbEntity
8
0
100
AcDbSpline
70
0
71
3
72
9
73
5
74
0
42
0.000000001
43
0.0000000001
44
0.0000000001
40
0
40
0
40
0
40
0
40
0.10776559214066844
40
0.37249532585476491
40
0.37249532585476491
40
0.37249532585476491
40
0.37249532585476491
10
35.145341356658129
20
78.49040368965035
30
0
10
34.93549016692188
20
78.198671482914662
30
0
10
34.210132603816021
20
77.190289482206168
30
0
10
33.38132068645978
20
76.263740712541903
30
0
10
32.792290051840929
20
75.605249203947835
30
0
0
LINE
5
177
100
AcDbEntity
8
0
100
AcDbLine
10
32.792290051840929
20
75.605249203947821
30
0
11
29.956155618094588
21
72.369955577162557
31
0
0
SPLINE
5
178
100
AcDbEntity
8
0
100
AcDbSpline
70
0
71
3
72
9
73
5
74
0
42
0.000000001
43
0.0000000001
44
0.0000000001
40
0
40
0
40
0
40
0
40
0.022241286896262469
40
0.036951132662872067
40
0.036951132662872067
40
0.036951132662872067
40
0.036951132662872067
10
29.956155618094588
20
72.369955577162557
30
0
10
29.906811954145365
20
72.311606374126939
30
0
10
29.824833591959564
20
72.214666428511435
30
0
10
29.70408765538906
20
72.180482471048137
30
0
10
29.656020005606795
20
72.166874207762532
30
0
0
LINE
5
179
100
AcDbEntity
8
0
100
AcDbLine
10
29.656020005606795
20
72.166874207762547
30
0
11
28.248457213305617
21
72.166874207762532
31
0
0
SPLINE
5
180
100
AcDbEntity
8
0
100
AcDbSpline
70
0
71
3
72
9
73
5
74
0
42
0.000000001
43
0.0000000001
44
0.0000000001
40
0
40
0
40
0
40
0
40
0.0095408234838341276
40
0.025458872830189279
40
0.025458872830189279
40
0.025458872830189279
40
0.025458872830189279
10
28.248457213305617
20
72.166874207762532
30
0
10
28.218217453247824
20
72.18126665186486
30
0
10
28.137525235533978
20
72.219671660063312
30
0
10
28.127617131075304
20
72.312140092527372
30
0
10
28.121422131919051
20
72.369955577162557
30
0
0
SPLINE
5
181
100
AcDbEntity
8
0
100
AcDbSpline
70
0
71
3
72
9
73
5
74
0
42
0.000000001
43
0.0000000001
44
0.0000000001
40
0
40
0
40
0
40
0
40
0.081982326764588068
40
0.31942068989741873
40
0.31942068989741873
40
0.31942068989741873
40
0.31942068989741873
10
28.121422131919051
20
72.369955577162557
30
0
10
28.070285466544277
20
72.638402895242123
30
0
10
27.871046074620605
20
73.684331096186085
30
0
10
27.67021657672753
20
74.729955347419917
30
0
10
27.520931859873919
20
75.507210292128377
30
0
0
SPLINE
5
182
100
AcDbEntity
8
0
100
AcDbSpline
70
0
71
3
72
9
73
5
74
0
42
0.000000001
43
0.0000000001
44
0.0000000001
40
0
40
0
40
0
40
0
40
0.20828873850323695
40
0.29326365861044879
40
0.29326365861044879
40
0.29326365861044879
40
0.29326365861044879
10
27.520931859873919
20
75.507210292128377
30
0
10
27.377596366347646
20
76.188172386833898
30
0
10
27.175784729567308
20
77.146944506264987
30
0
10
27.11592124123548
20
78.123428060928376
30
0
10
27.098575433158068
20
78.406370081213765
30
0
0
SPLINE
5
183
100
AcDbEntity
8
0
100
AcDbSpline
70
0
71
3
72
9
73
5
74
0
42
0.000000001
43
0.0000000001
44
0.0000000001
40
0
40
0
40
0
40
0
40
0.07344652763273439
40
0.17694087524088781
40
0.17694087524088781
40
0.17694087524088781
40
0.17694087524088781
10
27.098575433158068
20
78.406370081213765
30
0
10
27.179572127742773
20
78.63741152460716
30
0
10
27.374702197105631
20
79.194016125649213
30
0
10
27.581430717423785
20
79.746425716267524
30
0
10
27.702348132990984
20
80.069535173682027
30
0
0
SPLINE
5
184
100
AcDbEntity
8
0
100
AcDbSpline
70
0
71
3
72
9
73
5
74
0
42
0.000000001
43
0.0000000001
44
0.0000000001
40
0
40
0
40
0
40
0
40
0.10349437556234599
40
0.17694093129058702
40
0.17694093129058702
40
0.17694093129058702
40
0.17694093129058702
10
27.702348132990984
20
80.069535173682027
30
0
10
27.823265552279992
20
80.392644729267346
30
0
10
28.029994088608625
20
80.945054513504502
30
0
10
28.225124140263382
20
81.501659318818739
30
0
10
28.3061208328239
20
81.732700862196737
30
0
0
SPLINE
5
185
100
AcDbEntity
8
0
100
AcDbSpline
70
0
71
3
72
9
73
5
74
0
42
0.000000001
43
0.0000000001
44
0.0000000001
40
0
40
0
40
0
40
0
40
0.02223208091778342
40
0.038391548735585326
40
0.038391548735585326
40
0.038391548735585326
40
0.038391548735585326
10
28.3061208328239
20
81.732700862196737
30
0
10
28.332885044413672
20
81.807631068507987
30
0
10
28.379102919268398
20
81.937024564240758
30
0
10
28.507934258264157
20
81.975577316773013
30
0
10
28.562160929106859
20
81.991804637221151
30
0
0
SPLINE
5
186
100
AcDbEntity
8
0
100
AcDbSpline
70
0
71
3
72
9
73
5
74
0
42
0.000000001
43
0.0000000001
44
0.0000000001
40
0
40
0
40
0
40
0
40
0.016199761088337442
40
0.038219267653194125
40
0.038219267653194125
40
0.038219267653194125
40
0.038219267653194125
10
28.562160929106859
20
81.991804637221151
30
0
10
28.616155063043745
20
81.990501711175625
30
0
10
28.743540661225296
20
81.987427784406293
30
0
10
28.870536855090645
20
81.976875399707879
30
0
10
28.943703969382433
20
81.970795788077169
30
0
0
SPLINE
5
187
100
AcDbEntity
8
0
100
AcDbSpline
70
0
71
3
72
9
73
5
74
0
42
0.000000001
43
0.0000000001
44
0.0000000001
40
0
40
0
40
0
40
0
40
0.022019534158240966
40
0.03821929428034114
40
0.03821929428034114
40
0.03821929428034114
40
0.03821929428034114
10
28.943703969382433
20
81.970795788077169
30
0
10
29.016871183865884
20
81.964716265946379
30
0
10
29.143867480968247
20
81.954164042464697
30
0
10
29.271253174265965
20
81.951090357533403
30
0
10
29.325247307681231
20
81.949787534979635
30
0
0
SPLINE
5
188
100
AcDbEntity
8
0
100
AcDbSpline
70
0
71
3
72
9
73
5
74
0
42
0.000000001
43
0.0000000001
44
0.0000000001
40
0
40
0
40
0
40
0
40
0.016117727891937893
40
0.039288813362975669
40
0.039288813362975669
40
0.039288813362975669
40
0.039288813362975669
10
29.325247307681231
20
81.949787534979635
30
0
10
29.378964191459154
20
81.951147958154351
30
0
10
29.509905266736087
20
81.954464145929961
30
0
10
29.640495967797907
20
81.964737150725213
30
0
10
29.717513521575121
20
81.970795788077169
30
0
0
SPLINE
5
189
100
AcDbEntity
8
0
100
AcDbSpline
70
0
71
3
72
9
73
5
74
0
42
0.000000001
43
0.0000000001
44
0.0000000001
40
0
40
0
40
0
40
0
40
0.023171057764257513
40
0.039288846200338498
40
0.039288846200338498
40
0.039288846200338498
40
0.039288846200338498
10
29.717513521575121
20
81.970795788077169
30
0
10
29.794530975301701
20
81.976854513987675
30
0
10
29.925121772018485
20
81.987127689812866
30
0
10
30.056062950494166
20
81.990444113353419
30
0
10
30.109780033492235
20
81.991804637221151
30
0
0
SPLINE
5
190
100
AcDbEntity
8
0
100
AcDbSpline
70
0
71
3
72
9
73
5
74
0
42
0.000000001
43
0.0000000001
44
0.0000000001
40
0
40
0
40
0
40
0
40
0.011444172541170829
40
0.021443515085972562
40
0.021443515085972562
40
0.021443515085972562
40
0.021443515085972562
10
30.109780033492235
20
81.991804637221151
30
0
10
30.155371406916625
20
81.98791673490625
30
0
10
30.240798230070407
20
81.980631779035278
30
0
10
30.230470414872521
20
81.897511063624989
30
0
10
30.225654443167834
20
81.858750976828389
30
0
0
SPLINE
5
191
100
AcDbEntity
8
0
100
AcDbSpline
70
0
71
3
72
9
73
5
74
0
42
0.000000001
43
0.0000000001
44
0.0000000001
40
0
40
0
40
0
40
0
40
0.07568283757549879
40
0.18297898321739628
40
0.18297898321739628
40
0.18297898321739628
40
0.18297898321739628
10
30.225654443167834
20
81.858750976828389
30
0
10
30.140254783024957
20
81.621347112612384
30
0
10
29.933783362546464
20
81.047373949373196
30
0
10
29.705374673715941
20
80.481744358160597
30
0
10
29.571439226531176
20
80.150067605284505
30
0
0
SPLINE
5
192
100
AcDbEntity
8
0
100
AcDbSpline
70
0
71
3
72
9
73
5
74
0
42
0.000000001
43
0.0000000001
44
0.0000000001
40
0
40
0
40
0
40
0
40
0.10748105708053353
40
0.18371917873456095
40
0.18371917873456095
40
0.18371917873456095
40
0.18371917873456095
10
29.571439226531176
20
80.150067605284505
30
0
10
29.437298370729085
20
79.817808882922805
30
0
10
29.208009149613158
20
79.249873460088722
30
0
10
29.000802296503338
20
78.673542067868709
30
0
10
28.914817472361712
20
78.43438128402596
30
0
0
SPLINE
5
193
100
AcDbEntity
8
0
100
AcDbSpline
70
0
71
3
72
9
73
5
74
0
42
0.000000001
43
0.0000000001
44
0.0000000001
40
0
40
0
40
0
40
0
40
0.13029606948212011
40
0.43137481265489441
40
0.43137481265489441
40
0.43137481265489441
40
0.43137481265489441
10
28.914817472361712
20
78.43438128402596
30
0
10
28.940001244549222
20
78.000132963903553
30
0
10
29.023377857922963
20
76.56245500106823
30
0
10
29.38862306371762
20
75.16561198791814
30
0
10
29.643546541594652
20
74.190683163908773
30
0
0
SPLINE
5
194
100
AcDbEntity
8
0
100
AcDbSpline
70
0
71
3
72
9
73
5
74
0
42
0.000000001
43
0.0000000001
44
0.0000000001
40
0
40
0
40
0
40
0
40
0.14218340470017302
40
0.30158789480410042
40
0.30158789480410042
40
0.30158789480410042
40
0.30158789480410042
10
29.643546541594652
20
74.190683163908773
30
0
10
29.963582055737618
20
74.540277033496352
30
0
10
30.642415406060447
20
75.281807167675282
30
0
10
31.304213302355997
20
76.038586628122417
30
0
10
31.654007037543444
20
76.438582934645467
30
0
0
SPLINE
5
195
100
AcDbEntity
8
0
100
AcDbSpline
70
0
71
3
72
9
73
5
74
0
42
0.000000001
43
0.0000000001
44
0.0000000001
40
0
40
0
40
0
40
0
40
0.19032391090490502
40
0.27530038767833903
40
0.27530038767833903
40
0.27530038767833903
40
0.27530038767833903
10
31.654007037543444
20
76.438582934645467
30
0
10
32.079275976813605
20
76.911222642860778
30
0
10
32.6944204601945
20
77.594888159637932
30
0
10
33.203313536978754
20
78.359449709284874
30
0
10
33.360392650031237
20
78.595445551184469
30
0
0
SPLINE
5
196
100
AcDbEntity
8
0
100
AcDbSpline
70
0
71
3
72
9
73
5
74
0
42
0.000000001
43
0.0000000001
44
0.0000000001
40
0
40
0
40
0
40
0
40
0.071649578354630844
40
0.17123848459472582
40
0.17123848459472582
40
0.17123848459472582
40
0.17123848459472582
10
33.360392650031237
20
78.595445551184469
30
0
10
33.435245986856799
20
78.822249959737576
30
0
10
33.614141274996882
20
79.364299810021535
30
0
10
33.78214830293971
20
79.909829194311754
30
0
10
33.879857858084826
20
80.227098264006429
30
0
0
SPLINE
5
197
100
AcDbEntity
8
0
100
AcDbSpline
70
0
71
3
72
9
73
5
74
0
42
0.000000001
43
0.0000000001
44
0.0000000001
40
0
40
0
40
0
40
0
40
0.099403896698749286
40
0.17049819602597893
40
0.17049819602597893
40
0.17049819602597893
40
0.17049819602597893
10
33.879857858084826
20
80.227098264006429
30
0
10
33.977372438103288
20
80.543781996953953
30
0
10
34.144630066139392
20
81.086959950449668
30
0
10
34.322675487135605
20
81.626691488250998
30
0
10
34.396916826628832
20
81.851748623160177
30
0
0
SPLINE
5
198
100
AcDbEntity
8
0
100
AcDbSpline
70
0
71
3
72
9
73
5
74
0
42
0.000000001
43
0.0000000001
44
0.0000000001
40
0
40
0
40
0
40
0
40
0.012861331146676888
40
0.026078171887688722
40
0.026078171887688722
40
0.026078171887688722
40
0.026078171887688722
10
34.396916826628832
20
81.851748623160177
30
0
10
34.417560719611636
20
81.892596080215327
30
0
10
34.459419138736124
20
81.975420089185434
30
0
10
34.551770739263176
20
81.986293709815484
30
0
10
34.598576029204516
20
81.991804637221151
30
0
0
SPLINE
5
199
100
AcDbEntity
8
0
100
AcDbSpline
70
0
71
3
72
9
73
5
74
0
42
0.000000001
43
0.0000000001
44
0.0000000001
40
0
40
0
40
0
40
0
40
0.016287214951349265
40
0.038568733743822359
40
0.038568733743822359
40
0.038568733743822359
40
0.038568733743822359
10
34.598576029204516
20
81.991804637221151
30
0
10
34.65286124407357
20
81.990494807724446
30
0
10
34.781410661807953
20
81.987393082521024
30
0
10
34.909577600957064
20
81.976873214425311
30
0
10
34.983620842360644
20
81.970795788077169
30
0
0
SPLINE
5
200
100
AcDbEntity
8
0
100
AcDbSpline
70
0
71
3
72
9
73
5
74
0
42
0.000000001
43
0.0000000001
44
0.0000000001
40
0
40
0
40
0
40
0
40
0.022106840095079117
40
0.037869100206973413
40
0.037869100206973413
40
0.037869100206973413
40
0.037869100206973413
10
34.983620842360644
20
81.970795788077169
30
0
10
35.057080149403312
20
81.964727412037362
30
0
10
35.182916218582307
20
81.954332261063456
30
0
10
35.309128681294119
20
81.951123230256513
30
0
10
35.361662109755663
20
81.949787534979635
30
0
0
SPLINE
5
201
100
AcDbEntity
8
0
100
AcDbSpline
70
0
71
3
72
9
73
5
74
0
42
0.000000001
43
0.0000000001
44
0.0000000001
40
0
40
0
40
0
40
0
40
0.016030334566526444
40
0.038939387066153519
40
0.038939387066153519
40
0.038939387066153519
40
0.038939387066153519
10
35.361662109755663
20
81.949787534979635
30
0
10
35.415088011248187
20
81.95114211399769
30
0
10
35.544865206411629
20
81.954432530456373
30
0
10
35.674285893893682
20
81.964734734143846
30
0
10
35.750427444838671
20
81.970795788077169
30
0
0
SPLINE
5
202
100
AcDbEntity
8
0
100
AcDbSpline
70
0
71
3
72
9
73
5
74
0
42
0.000000001
43
0.0000000001
44
0.0000000001
40
0
40
0
40
0
40
0
40
0.022909173476363353
40
0.038939270728774081
40
0.038939270728774081
40
0.038939270728774081
40
0.038939270728774081
10
35.750427444838671
20
81.970795788077169
30
0
10
35.826569392864741
20
81.97685692071795
30
0
10
35.955989685179624
20
81.987159173004187
30
0
10
36.085766481735192
20
81.990449932848236
30
0
10
36.139191587828783
20
81.991804637221151
30
0
0
SPLINE
5
203
100
AcDbEntity
8
0
100
AcDbSpline
70
0
71
3
72
9
73
5
74
0
42
0.000000001
43
0.0000000001
44
0.0000000001
40
0
40
0
40
0
40
0
40
0.011444172541170829
40
0.02162916568654619
40
0.02162916568654619
40
0.02162916568654619
40
0.02162916568654619
10
36.139191587828783
20
81.991804637221151
30
0
10
36.18332879187097
20
81.987671353527034
30
0
10
36.266746871748282
20
81.979859563069667
30
0
10
36.268327967989549
20
81.897522711364275
30
0
10
36.26907249298015
20
81.858750976828389
30
0
0
SPLINE
5
204
100
AcDbEntity
8
0
100
AcDbSpline
70
0
71
3
72
9
73
5
74
0
42
0.000000001
43
0.0000000001
44
0.0000000001
40
0
40
0
40
0
40
0
40
0.0046334183055307208
40
0.028356212088161838
40
0.028356212088161838
40
0.028356212088161838
40
0.028356212088161838
10
36.26907249298015
20
81.858750976828389
30
0
10
36.26244427596626
20
81.84479317588972
30
0
10
36.221880028359301
20
81.759372361794632
30
0
10
36.194551917243118
20
81.668591812911416
30
0
10
36.171689232253222
20
81.592644848135762
30
0
0
SPLINE
5
205
100
AcDbEntity
8
0
100
AcDbSpline
70
0
71
3
72
9
73
5
74
0
42
0.000000001
43
0.0000000001
44
0.0000000001
40
0
40
0
40
0
40
0
40
0.01987564355832603
40
0.033926052654920297
40
0.033926052654920297
40
0.033926052654920297
40
0.033926052654920297
10
13.062467790746
20
110.85038252852306
30
0
10
13.127690735467489
20
110.8625128900751
30
0
10
13.239020818965761
20
110.88321839747314
30
0
10
13.352021825300572
20
110.8897112319635
30
0
10
13.398820973538664
20
110.89240022681102
30
0
0
SPLINE
5
206
100
AcDbEntity
8
0
100
AcDbSpline
70
0
71
3
72
9
73
5
74
0
42
0.000000001
43
0.0000000001
44
0.0000000001
40
0
40
0
40
0
40
0
40
0.010443554581735582
40
0.020426697222321585
40
0.020426697222321585
40
0.020426697222321585
40
0.020426697222321585
10
13.398820973538664
20
110.89240022681102
30
0
10
13.439999524027609
20
110.88737361884336
30
0
10
13.52054123770456
20
110.87754200469256
30
0
10
13.507206948763354
20
110.79814894421236
30
0
10
13.500690079831388
20
110.75934716246471
30
0
0
SPLINE
5
207
100
AcDbEntity
8
0
100
AcDbSpline
70
0
71
3
72
9
73
5
74
0
42
0.000000001
43
0.0000000001
44
0.0000000001
40
0
40
0
40
0
40
0
40
0.089448200546970197
40
0.15104992904151401
40
0.15104992904151401
40
0.15104992904151401
40
0.15104992904151401
10
13.500690079831388
20
110.75934716246471
30
0
10
13.404540666194276
20
110.4765866870527
30
0
10
13.242174492045892
20
109.99909301489888
30
0
10
13.014808977706164
20
109.54924714537768
30
0
10
12.922083951138761
20
109.36578937552318
30
0
0
SPLINE
5
208
100
AcDbEntity
8
0
100
AcDbSpline
70
0
71
3
72
9
73
5
74
0
42
0.000000001
43
0.0000000001
44
0.0000000001
40
0
40
0
40
0
40
0
40
0.020523897099111732
40
0.03889678568857366
40
0.03889678568857366
40
0.03889678568857366
40
0.03889678568857366
10
12.922083951138761
20
109.36578937552318
30
0
10
12.881476684447065
20
109.30661255770204
30
0
10
12.804517998566014
20
109.19446095270203
30
0
10
12.671006545954839
20
109.17289478223522
30
0
10
12.607942439221647
20
109.16270800612315
30
0
0
SPLINE
5
209
100
AcDbEntity
8
0
100
AcDbSpline
70
0
71
3
72
9
73
5
74
0
42
0.000000001
43
0.0000000001
44
0.0000000001
40
0
40
0
40
0
40
0
40
0.064287125444661669
40
0.15356688078669617
40
0.15356688078669617
40
0.15356688078669617
40
0.15356688078669617
10
12.607942439221647
20
109.16270800612315
30
0
10
12.393665346899445
20
109.16646372930073
30
0
10
11.88180757655492
20
109.17543527203949
30
0
10
11.370704586878762
20
109.20502746437225
30
0
10
11.073562718533781
20
109.22223158858165
30
0
0
SPLINE
5
210
100
AcDbEntity
8
0
100
AcDbSpline
70
0
71
3
72
9
73
5
74
0
42
0.000000001
43
0.0000000001
44
0.0000000001
40
0
40
0
40
0
40
0
40
0.089279755342034514
40
0.15356685099235906
40
0.15356685099235906
40
0.15356685099235906
40
0.15356685099235906
10
11.073562718533781
20
109.22223158858165
30
0
10
10.776420850183811
20
109.23943571231374
30
0
10
10.265317959660916
20
109.26902789808412
30
0
10
9.75346028880681
20
109.27799944649854
30
0
10
9.5391832958691385
20
109.28175517104015
30
0
0
SPLINE
5
211
100
AcDbEntity
8
0
100
AcDbSpline
70
0
71
3
72
9
73
5
74
0
42
0.000000001
43
0.0000000001
44
0.0000000001
40
0
40
0
40
0
40
0
40
0.061280862353181878
40
0.14709195279891871
40
0.14709195279891871
40
0.14709195279891871
40
0.14709195279891871
10
9.5391832958691385
20
109.28175517104015
30
0
10
9.3349156475147304
20
109.28042096535277
30
0
10
8.8446136815122482
20
109.2772184823515
30
0
10
8.354408684767856
20
109.26681572186882
30
0
10
8.068430937432554
20
109.26074691794261
30
0
0
SPLINE
5
212
100
AcDbEntity
8
0
100
AcDbSpline
70
0
71
3
72
9
73
5
74
0
42
0.000000001
43
0.0000000001
44
0.0000000001
40
0
40
0
40
0
40
0
40
0.085811105344385977
40
0.14709196024726093
40
0.14709196024726093
40
0.14709196024726093
40
0.14709196024726093
10
8.068430937432554
20
109.26074691794261
30
0
10
7.782453140424348
20
109.25467811412702
30
0
10
7.2922481188212531
20
109.2442753551134
30
0
10
6.8019461280047819
20
109.24107287083481
30
0
10
6.5976785044901636
20
109.23973866484508
30
0
0
SPLINE
5
213
100
AcDbEntity
8
0
100
AcDbSpline
70
0
71
3
72
9
73
5
74
0
42
0.000000001
43
0.0000000001
44
0.0000000001
40
0
40
0
40
0
40
0
40
0.012437682705609398
40
0.025568162537508994
40
0.025568162537508994
40
0.025568162537508994
40
0.025568162537508994
10
6.5976785044901636
20
109.23973866484508
30
0
10
6.5493651615254578
20
109.24779270716678
30
0
10
6.4500473516978376
20
109.2643494137527
30
0
10
6.4712458963017969
20
109.36375743871677
30
0
10
6.4821323673956659
20
109.41480823538646
30
0
0
SPLINE
5
214
100
AcDbEntity
8
0
100
AcDbSpline
70
0
71
3
72
9
73
5
74
0
42
0.000000001
43
0.0000000001
44
0.0000000001
40
0
40
0
40
0
40
0
40
0.10157307612130094
40
0.24508017166967921
40
0.24508017166967921
40
0.24508017166967921
40
0.24508017166967921
10
6.4821323673956659
20
109.41480823538646
30
0
10
6.5940913650951565
20
109.73434684919675
30
0
10
6.8642311641831384
20
110.50534425636596
30
0
10
7.1502028951128356
20
111.27062122848983
30
0
10
7.3176541100971964
20
111.71873041174754
30
0
0
SPLINE
5
215
100
AcDbEntity
8
0
100
AcDbSpline
70
0
71
3
72
9
73
5
74
0
42
0.000000001
43
0.0000000001
44
0.0000000001
40
0
40
0
40
0
40
0
40
0.14369115712592173
40
0.24581688008380606
40
0.24581688008380606
40
0.24581688008380606
40
0.24581688008380606
10
7.3176541100971964
20
111.71873041174754
30
0
10
7.485306135074711
20
112.16741972053612
30
0
10
7.7721136084364133
20
112.93500631542109
30
0
10
8.0429524694445398
20
113.70836119569873
30
0
10
8.1554736863606241
20
114.02965494177684
30
0
0
SPLINE
5
216
100
AcDbEntity
8
0
100
AcDbSpline
70
0
71
3
72
9
73
5
74
0
42
0.000000001
43
0.0000000001
44
0.0000000001
40
0
40
0
40
0
40
0
40
0.10657424428116564
40
0.25475589179517272
40
0.25475589179517272
40
0.25475589179517272
40
0.25475589179517272
10
8.1554736863606241
20
114.02965494177684
30
0
10
8.2656144558184543
20
114.3674140336323
30
0
10
8.5288957967793237
20
115.17479596008123
30
0
10
8.7691719113625286
20
115.98933977912935
30
0
10
8.9089312325947549
20
116.46312840960368
30
0
0
SPLINE
5
217
100
AcDbEntity
8
0
100
AcDbSpline
70
0
71
3
72
9
73
5
74
0
42
0.000000001
43
0.0000000001
44
0.0000000001
40
0
40
0
40
0
40
0
40
0.14818164751400709
40
0.25475589179517272
40
0.25475589179517272
40
0.25475589179517272
40
0.25475589179517272
10
8.9089312325947549
20
116.46312840960368
30
0
10
9.0486905538269795
20
116.93691704007801
30
0
10
9.2889666684101861
20
117.75146085912613
30
0
10
9.5522480093710538
20
118.55884278557505
30
0
10
9.6623887788288858
20
118.89660187743053
30
0
0
SPLINE
5
218
100
AcDbEntity
8
0
100
AcDbSpline
70
0
71
3
72
9
73
5
74
0
42
0.000000001
43
0.0000000001
44
0.0000000001
40
0
40
0
40
0
40
0
40
0.014231147738063136
40
0.029176494851377764
40
0.029176494851377764
40
0.029176494851377764
40
0.029176494851377764
10
9.6623887788288858
20
118.89660187743053
30
0
10
9.6856562378889066
20
118.94152891935042
30
0
10
9.7333588485261107
20
119.03363769591506
30
0
10
9.8368554669472896
20
119.04489616475064
30
0
10
9.8898705016606119
20
119.05066319487437
30
0
0
SPLINE
5
219
100
AcDbEntity
8
0
100
AcDbSpline
70
0
71
3
72
9
73
5
74
0
42
0.000000001
43
0.0000000001
44
0.0000000001
40
0
40
0
40
0
40
0
40
0.015760949537912176
40
0.037863687373703048
40
0.037863687373703048
40
0.037863687373703048
40
0.037863687373703048
10
9.8898705016606119
20
119.05066319487437
30
0
10
9.9423995679334354
20
119.04932760425142
30
0
10
10.068594004290357
20
119.04611901674308
30
0
10
10.194411939439084
20
119.03572335641746
30
0
10
10.267857528828886
20
119.02965494177684
30
0
0
SPLINE
5
220
100
AcDbEntity
8
0
100
AcDbSpline
70
0
71
3
72
9
73
5
74
0
42
0.000000001
43
0.0000000001
44
0.0000000001
40
0
40
0
40
0
40
0
40
0.022277384534431437
40
0.038563258117729649
40
0.038563258117729649
40
0.038563258117729649
40
0.038563258117729649
10
10.267857528828886
20
119.02965494177684
30
0
10
10.3418869542216
20
119.02357756878598
30
0
10
10.470035563198302
20
119.01305733455644
30
0
10
10.598566752435346
20
119.00995630323378
30
0
10
10.65284750571182
20
119.00864668867931
30
0
0
SPLINE
5
221
100
AcDbEntity
8
0
100
AcDbSpline
70
0
71
3
72
9
73
5
74
0
42
0.000000001
43
0.0000000001
44
0.0000000001
40
0
40
0
40
0
40
0
40
0.01629412453488736
40
0.039993271733171243
40
0.039993271733171243
40
0.039993271733171243
40
0.039993271733171243
10
10.65284750571182
20
119.00864668867931
30
0
10
10.707151762833643
20
119.01001840939003
30
0
10
10.840439372529451
20
119.01338524257019
30
0
10
10.97338845745063
20
119.02360119153718
30
0
10
11.052171207570341
20
119.02965494177684
30
0
0
SPLINE
5
222
100
AcDbEntity
8
0
100
AcDbSpline
70
0
71
3
72
9
73
5
74
0
42
0.000000001
43
0.0000000001
44
0.0000000001
40
0
40
0
40
0
40
0
40
0.023699206671052374
40
0.039993331205939731
40
0.039993331205939731
40
0.039993331205939731
40
0.039993331205939731
10
11.052171207570341
20
119.02965494177684
30
0
10
11.130954156492452
20
119.03570869094288
30
0
10
11.263903440970878
20
119.04592462765315
30
0
10
11.397191248504342
20
119.04929147175412
30
0
10
11.451495505475309
20
119.05066319487437
30
0
0
SPLINE
5
223
100
AcDbEntity
8
0
100
AcDbSpline
70
0
71
3
72
9
73
5
74
0
42
0.000000001
43
0.0000000001
44
0.0000000001
40
0
40
0
40
0
40
0
40
0.011947642283167316
40
0.021959642450543916
40
0.021959642450543916
40
0.021959642450543916
40
0.021959642450543916
10
11.451495505475309
20
119.05066319487437
30
0
10
11.499272845796828
20
119.04735741260156
30
0
10
11.587087101181478
20
119.04128141911181
30
0
10
11.578354359893655
20
118.95633810508969
30
0
10
11.574372864865568
20
118.91761013052806
30
0
0
SPLINE
5
224
100
AcDbEntity
8
0
100
AcDbSpline
70
0
71
3
72
9
73
5
74
0
42
0.000000001
43
0.0000000001
44
0.0000000001
40
0
40
0
40
0
40
0
40
0.098644512070474435
40
0.23780630277189752
40
0.23780630277189752
40
0.23780630277189752
40
0.23780630277189752
10
11.574372864865568
20
118.91761013052806
30
0
10
11.465352428111174
20
118.60738431624813
30
0
10
11.202532465327867
20
117.85951043690245
30
0
10
10.922828239569832
20
117.11777359149643
30
0
10
10.759148217343595
20
116.68371685526714
30
0
0
SPLINE
5
225
100
AcDbEntity
8
0
100
AcDbSpline
70
0
71
3
72
9
73
5
74
0
42
0.000000001
43
0.0000000001
44
0.0000000001
40
0
40
0
40
0
40
0
40
0.13934693056976349
40
0.23854679460936012
40
0.23854679460936012
40
0.23854679460936012
40
0.23854679460936012
10
10.759148217343595
20
116.68371685526714
30
0
10
10.595265154429551
20
116.2490770830693
30
0
10
10.314715168943243
20
115.50502104937269
30
0
10
10.051128749208786
20
114.7548000156456
30
0
10
9.9415161382191446
20
114.4428200342451
30
0
0
LINE
5
226
100
AcDbEntity
8
0
100
AcDbLine
10
9.9415161382191446
20
114.44282003424507
30
0
11
9.5655532847874429
21
113.33637722514018
31
0
0
SPLINE
5
227
100
AcDbEntity
8
0
100
AcDbSpline
70
0
71
3
72
9
73
5
74
0
42
0.000000001
43
0.0000000001
44
0.0000000001
40
0
40
0
40
0
40
0
40
0.068586460814384687
40
0.11708831056023583
40
0.11708831056023583
40
0.11708831056023583
40
0.11708831056023583
10
9.5655532847874429
20
113.33637722514018
30
0
10
9.490165419776238
20
113.12054216779484
30
0
10
9.3614659994227996
20
112.75207641049862
30
0
10
9.2349041923566233
20
112.38287135694195
30
0
10
9.1824781071179178
20
112.22993441603526
30
0
0
SPLINE
5
228
100
AcDbEntity
8
0
100
AcDbSpline
70
0
71
3
72
9
73
5
74
0
42
0.000000001
43
0.0000000001
44
0.0000000001
40
0
40
0
40
0
40
0
40
0.12216697916937948
40
0.16121333296958079
40
0.16121333296958079
40
0.16121333296958079
40
0.16121333296958079
10
9.1824781071179178
20
112.22993441603526
30
0
10
9.0296840033909636
20
111.84760013431438
30
0
10
8.828054668791717
20
111.34306622274656
30
0
10
8.7895746222274678
20
110.8055105561494
30
0
10
8.7802546392910745
20
110.67531295798167
30
0
0
SPLINE
5
229
100
AcDbEntity
8
0
100
AcDbSpline
70
0
71
3
72
9
73
5
74
0
42
0.000000001
43
0.0000000001
44
0.0000000001
40
0
40
0
40
0
40
0
40
0.22780705677202012
40
0.39462423835386251
40
0.39462423835386251
40
0.39462423835386251
40
0.39462423835386251
10
8.7802546392910745
20
110.67531295798167
30
0
10
9.5398701128196333
20
110.67642802437771
30
0
10
10.85573223724454
20
110.67835962488864
30
0
10
12.168612116079689
20
110.76481633321841
30
0
10
12.723598099850919
20
110.80136366865977
30
0
0
SPLINE
5
230
100
AcDbEntity
8
0
100
AcDbSpline
70
0
71
3
72
9
73
5
74
0
42
0.000000001
43
0.0000000001
44
0.0000000001
40
0
40
0
40
0
40
0
40
0.011848592454144238
40
0.034240630691391702
40
0.034240630691391702
40
0.034240630691391702
40
0.034240630691391702
10
12.723598099850919
20
110.80136366865977
30
0
10
12.76275778462573
20
110.80650922687242
30
0
10
12.875923319650662
20
110.82137910775849
30
0
10
12.988709816616662
20
110.83891484177869
30
0
10
13.062467790746
20
110.85038252852306
30
0
0
SPLINE
5
231
100
AcDbEntity
8
0
100
AcDbSpline
70
0
71
3
72
9
73
5
74
0
42
0.000000001
43
0.0000000001
44
0.0000000001
40
0
40
0
40
0
40
0
40
0.025035585763595842
40
0.059825247972544432
40
0.059825247972544432
40
0.059825247972544432
40
0.059825247972544432
10
23.698410011433868
20
118.90360482714519
30
0
10
23.671719382495287
20
118.82450440682894
30
0
10
23.607939229321655
20
118.63548537189055
30
0
10
23.559496661350323
20
118.4419309251399
30
0
10
23.531326271199493
20
118.32937487147197
30
0
0
SPLINE
5
232
100
AcDbEntity
8
0
100
AcDbSpline
70
0
71
3
72
9
73
5
74
0
42
0.000000001
43
0.0000000001
44
0.0000000001
40
0
40
0
40
0
40
0
40
0.045332276690870581
40
0.071726939712832311
40
0.071726939712832311
40
0.071726939712832311
40
0.071726939712832311
10
23.531326271199493
20
118.32937487147197
30
0
10
23.504588161900934
20
118.18054980432865
30
0
10
23.46228182095162
20
117.94507152267209
30
0
10
23.400214620028727
20
117.71409238431349
30
0
10
23.377374626302032
20
117.6290948011671
30
0
0
SPLINE
5
233
100
AcDbEntity
8
0
100
AcDbSpline
70
0
71
3
72
9
73
5
74
0
42
0.000000001
43
0.0000000001
44
0.0000000001
40
0
40
0
40
0
40
0
40
0.012231986447639318
40
0.024840517953449725
40
0.024840517953449725
40
0.024840517953449725
40
0.024840517953449725
10
23.377374626302032
20
117.6290948011671
30
0
10
23.357672155338037
20
117.59029016710275
30
0
10
23.317660699651476
20
117.51148635111764
30
0
10
23.229675562527756
20
117.50124170607953
30
0
10
23.1850161324971
20
117.49604173682079
30
0
0
SPLINE
5
234
100
AcDbEntity
8
0
100
AcDbSpline
70
0
71
3
72
9
73
5
74
0
42
0.000000001
43
0.0000000001
44
0.0000000001
40
0
40
0
40
0
40
0
40
0.071610143831285819
40
0.17725026330384214
40
0.17725026330384214
40
0.17725026330384214
40
0.17725026330384214
10
23.1850161324971
20
117.49604173682079
30
0
10
22.946336819885794
20
117.50019721374841
30
0
10
22.355555001248391
20
117.51048289871102
30
0
10
21.765446259717187
20
117.54092386085084
30
0
10
21.413744903706817
20
117.55906649611339
30
0
0
SPLINE
5
235
100
AcDbEntity
8
0
100
AcDbSpline
70
0
71
3
72
9
73
5
74
0
42
0.000000001
43
0.0000000001
44
0.0000000001
40
0
40
0
40
0
40
0
40
0.10170388120640708
40
0.17791208511261739
40
0.17791208511261739
40
0.17791208511261739
40
0.17791208511261739
10
21.413744903706817
20
117.55906649611339
30
0
10
21.075043635208345
20
117.5751292523419
30
0
10
20.482548558382739
20
117.6032280664616
30
0
10
19.889424765853686
20
117.60172670348979
30
0
10
19.635361648701931
20
117.6010835983549
30
0
0
LINE
5
236
100
AcDbEntity
8
0
100
AcDbLine
10
19.635361648701934
20
117.60108359835492
30
0
11
19.121750808858181
21
117.59408064864024
31
0
0
SPLINE
5
237
100
AcDbEntity
8
0
100
AcDbSpline
70
0
71
3
72
9
73
5
74
0
42
0.000000001
43
0.0000000001
44
0.0000000001
40
0
40
0
40
0
40
0
40
0.037773262786842489
40
0.052592857326660115
40
0.052592857326660115
40
0.052592857326660115
40
0.052592857326660115
10
19.121750808858181
20
117.59408064864024
30
0
10
18.995731029191319
20
117.59385399508352
30
0
10
18.820269874835731
20
117.59353841847479
30
0
10
18.64563872807237
20
117.5775715370707
30
0
10
18.596431232594753
20
117.57307239554271
30
0
0
SPLINE
5
238
100
AcDbEntity
8
0
100
AcDbSpline
70
0
71
3
72
9
73
5
74
0
42
0.000000001
43
0.0000000001
44
0.0000000001
40
0
40
0
40
0
40
0
40
0.020555296575655368
40
0.053838347627538793
40
0.053838347627538793
40
0.053838347627538793
40
0.053838347627538793
10
18.596431232594753
20
117.57307239554271
30
0
10
18.541490215088793
20
117.53007235007983
30
0
10
18.397588929665357
20
117.41744680915856
30
0
10
18.341213275294614
20
117.24098524444678
30
0
10
18.306361652516628
20
117.13189610026225
30
0
0
LINE
5
239
100
AcDbEntity
8
0
100
AcDbLine
10
18.306361652516628
20
117.13189610026225
30
0
11
17.732898212575222
21
115.4442209818159
31
0
0
SPLINE
5
240
100
AcDbEntity
8
0
100
AcDbSpline
70
0
71
3
72
9
73
5
74
0
42
0.000000001
43
0.0000000001
44
0.0000000001
40
0
40
0
40
0
40
0
40
0.036405448408601965
40
0.052740595727944137
40
0.052740595727944137
40
0.052740595727944137
40
0.052740595727944137
10
17.732898212575222
20
115.4442209818159
30
0
10
17.672562278491252
20
115.31460923976044
30
0
10
17.585153573297585
20
115.12684062851802
30
0
10
17.72945534688521
20
115.00558621093899
30
0
10
17.774149395131374
20
114.96803053400859
30
0
0
SPLINE
5
241
100
AcDbEntity
8
0
100
AcDbSpline
70
0
71
3
72
9
73
5
74
0
42
0.000000001
43
0.0000000001
44
0.0000000001
40
0
40
0
40
0
40
0
40
0.085720834445163124
40
0.20707762240410349
40
0.20707762240410349
40
0.20707762240410349
40
0.20707762240410349
10
17.774149395131374
20
114.96803053400859
30
0
10
18.059872127339254
20
114.9720659767636
30
0
10
18.750098540035484
20
114.98181448068874
30
0
10
19.439714159814841
20
115.01286077206167
30
0
10
19.843859888219143
20
115.03105529330119
30
0
0
SPLINE
5
242
100
AcDbEntity
8
0
100
AcDbSpline
70
0
71
3
72
9
73
5
74
0
42
0.000000001
43
0.0000000001
44
0.0000000001
40
0
40
0
40
0
40
0
40
0.12135690707776782
40
0.20707762342936364
40
0.20707762342936364
40
0.20707762342936364
40
0.20707762342936364
10
19.843859888219143
20
115.03105529330119
30
0
10
20.248006015597877
20
115.04924972936065
30
0
10
20.937621642684832
20
115.08029584506639
30
0
10
21.6278480474313
20
115.09004495896386
30
0
10
21.913570381306915
20
115.09408064864024
30
0
0
SPLINE
5
243
100
AcDbEntity
8
0
100
AcDbSpline
70
0
71
3
72
9
73
5
74
0
42
0.000000001
43
0.0000000001
44
0.0000000001
40
0
40
0
40
0
40
0
40
0.010459531895234854
40
0.018902867618927267
40
0.018902867618927267
40
0.018902867618927267
40
0.018902867618927267
10
21.913570381306915
20
115.09408064864024
30
0
10
21.955518069543075
20
115.09176063267219
30
0
10
22.031327542241314
20
115.08756781074126
30
0
10
22.025261175312842
20
115.01461958839384
30
0
10
22.022551513814239
20
114.98203583739146
30
0
0
SPLINE
5
244
100
AcDbEntity
8
0
100
AcDbSpline
70
0
71
3
72
9
73
5
74
0
42
0.000000001
43
0.0000000001
44
0.0000000001
40
0
40
0
40
0
40
0
40
0.015771197576381034
40
0.037954625100991367
40
0.037954625100991367
40
0.037954625100991367
40
0.037954625100991367
10
22.022551513814239
20
114.98203583739146
30
0
10
22.004631101378965
20
114.93260767106409
30
0
10
21.961504221993824
20
114.81365490839032
30
0
10
21.913124628182814
20
114.69673233455923
30
0
10
21.88484809508255
20
114.6283943273817
30
0
0
SPLINE
5
245
100
AcDbEntity
8
0
100
AcDbSpline
70
0
71
3
72
9
73
5
74
0
42
0.000000001
43
0.0000000001
44
0.0000000001
40
0
40
0
40
0
40
0
40
0.022183382903418491
40
0.037954621802079258
40
0.037954621802079258
40
0.037954621802079258
40
0.037954621802079258
10
21.88484809508255
20
114.6283943273817
30
0
10
21.856572205265739
20
114.56005622587963
30
0
10
21.808193618970463
20
114.4431332656406
30
0
10
21.765065607649241
20
114.32418093710555
30
0
10
21.74714467635086
20
114.27475281737193
30
0
0
SPLINE
5
246
100
AcDbEntity
8
0
100
AcDbSpline
70
0
71
3
72
9
73
5
74
0
42
0.000000001
43
0.0000000001
44
0.0000000001
40
0
40
0
40
0
40
0
40
0.016623303535410323
40
0.039881677384346295
40
0.039881677384346295
40
0.039881677384346295
40
0.039881677384346295
10
21.74714467635086
20
114.27475281737193
30
0
10
21.730126379468473
20
114.22201617287354
30
0
10
21.689297056677802
20
114.09549343702032
30
0
10
21.652783281433639
20
113.96765404771571
30
0
10
21.631489015721588
20
113.89310010454997
30
0
0
SPLINE
5
247
100
AcDbEntity
8
0
100
AcDbSpline
70
0
71
3
72
9
73
5
74
0
42
0.000000001
43
0.0000000001
44
0.0000000001
40
0
40
0
40
0
40
0
40
0.023258373848935976
40
0.039881677384346295
40
0.039881677384346295
40
0.039881677384346295
40
0.039881677384346295
10
21.631489015721588
20
113.89310010454997
30
0
10
21.610194750009526
20
113.81854616138423
30
0
10
21.57368097476537
20
113.69070677207961
30
0
10
21.532851651974703
20
113.56418403622641
30
0
10
21.515833355092315
20
113.51144739172801
30
0
0
SPLINE
5
248
100
AcDbEntity
8
0
100
AcDbSpline
70
0
71
3
72
9
73
5
74
0
42
0.000000001
43
0.0000000001
44
0.0000000001
40
0
40
0
40
0
40
0
40
0.0085776074026480444
40
0.020507348763949371
40
0.020507348763949371
40
0.020507348763949371
40
0.020507348763949371
10
21.515833355092315
20
113.51144739172801
30
0
10
21.498268863387899
20
113.48709834318377
30
0
10
21.456275666411706
20
113.42888462377144
30
0
10
21.382900913693845
20
113.42795473028892
30
0
10
21.340216613911895
20
113.42741378329143
30
0
0
SPLINE
5
249
100
AcDbEntity
8
0
100
AcDbSpline
70
0
71
3
72
9
73
5
74
0
42
0.000000001
43
0.0000000001
44
0.0000000001
40
0
40
0
40
0
40
0
40
0.060602896504198339
40
0.14578667725024155
40
0.14578667725024155
40
0.14578667725024155
40
0.14578667725024155
10
21.340216613911895
20
113.42741378329143
30
0
10
21.138210478912157
20
113.42919778112292
30
0
10
20.652263355844617
20
113.43348937659245
30
0
10
20.166489276704791
20
113.44733495516486
30
0
10
19.882649398946072
20
113.45542498610362
30
0
0
SPLINE
5
250
100
AcDbEntity
8
0
100
AcDbSpline
70
0
71
3
72
9
73
5
74
0
42
0.000000001
43
0.0000000001
44
0.0000000001
40
0
40
0
40
0
40
0
40
0.085358846037622227
40
0.14648694390462083
40
0.14648694390462083
40
0.14648694390462083
40
0.14648694390462083
10
19.882649398946072
20
113.45542498610362
30
0
10
19.598225770899976
20
113.46351830896408
30
0
10
19.11011762533796
20
113.47740750952026
30
0
10
18.621835680923745
20
113.48166116480891
30
0
10
18.418078638219143
20
113.48343618891582
30
0
0
SPLINE
5
251
100
AcDbEntity
8
0
100
AcDbSpline
70
0
71
3
72
9
73
5
74
0
42
0.000000001
43
0.0000000001
44
0.0000000001
40
0
40
0
40
0
40
0
40
0.070849449565615522
40
0.10274045432634861
40
0.10274045432634861
40
0.10274045432634861
40
0.10274045432634861
10
18.418078638219143
20
113.48343618891582
30
0
10
18.181873507971925
20
113.48454839226324
30
0
10
17.839346889281135
20
113.48616122451416
30
0
10
17.497092693756471
20
113.47339390668502
30
0
10
17.390855766438747
20
113.46943088553294
30
0
0
SPLINE
5
252
100
AcDbEntity
8
0
100
AcDbSpline
70
0
71
3
72
9
73
5
74
0
42
0.000000001
43
0.0000000001
44
0.0000000001
40
0
40
0
40
0
40
0
40
0.027683960453859253
40
0.050168007644183499
40
0.050168007644183499
40
0.050168007644183499
40
0.050168007644183499
10
17.390855766438747
20
113.46943088553294
30
0
10
17.294162578764439
20
113.45445894050096
30
0
10
17.118938207003385
20
113.42732724978552
30
0
10
17.028278464561268
20
113.2774833854814
30
0
10
16.987647033833767
20
113.21032711050853
30
0
0
SPLINE
5
253
100
AcDbEntity
8
0
100
AcDbSpline
70
0
71
3
72
9
73
5
74
0
42
0.000000001
43
0.0000000001
44
0.0000000001
40
0
40
0
40
0
40
0
40
0.082927843900410692
40
0.19859837890213922
40
0.19859837890213922
40
0.19859837890213922
40
0.19859837890213922
10
16.987647033833767
20
113.21032711050853
30
0
10
16.900704103918848
20
112.94792498262973
30
0
10
16.692490262511836
20
112.31951557553384
30
0
10
16.495113268486097
20
111.68761302497302
30
0
10
16.380154110097195
20
111.3195712187086
30
0
0
SPLINE
5
254
100
AcDbEntity
8
0
100
AcDbSpline
70
0
71
3
72
9
73
5
74
0
42
0.000000001
43
0.0000000001
44
0.0000000001
40
0
40
0
40
0
40
0
40
0.11567141806435027
40
0.19860188732055672
40
0.19860188732055672
40
0.19860188732055672
40
0.19860188732055672
10
16.380154110097195
20
111.3195712187086
30
0
10
16.265193433118977
20
110.95152667802928
30
0
10
16.067811851760471
20
110.31961309367023
30
0
10
15.859525809331672
20
109.69121514821616
30
0
10
15.772551513814237
20
109.42881413481578
30
0
0
SPLINE
5
255
100
AcDbEntity
8
0
100
AcDbSpline
70
0
71
3
72
9
73
5
74
0
42
0.000000001
43
0.0000000001
44
0.0000000001
40
0
40
0
40
0
40
0
40
0.018425653099679178
40
0.033742816333982253
40
0.033742816333982253
40
0.033742816333982253
40
0.033742816333982253
10
15.772551513814237
20
109.42881413481578
30
0
10
15.74776979414451
20
109.36770352633619
30
0
10
15.702387141451981
20
109.25579194161085
30
0
10
15.585983562809529
20
109.23030150304486
30
0
10
15.533143497609403
20
109.21873041174754
30
0
0
SPLINE
5
256
100
AcDbEntity
8
0
100
AcDbSpline
70
0
71
3
72
9
73
5
74
0
42
0.000000001
43
0.0000000001
44
0.0000000001
40
0
40
0
40
0
40
0
40
0.017169500944216196
40
0.0407313206094259
40
0.0407313206094259
40
0.0407313206094259
40
0.0407313206094259
10
15.533143497609403
20
109.21873041174754
30
0
10
15.475923981170379
20
109.22070013756024
30
0
10
15.34018174400423
20
109.22537293112893
30
0
10
15.205252143309311
20
109.2411289904129
30
0
10
15.12719950785568
20
109.25024338744029
30
0
0
SPLINE
5
257
100
AcDbEntity
8
0
100
AcDbSpline
70
0
71
3
72
9
73
5
74
0
42
0.000000001
43
0.0000000001
44
0.0000000001
40
0
40
0
40
0
40
0
40
0.02373600207814603
40
0.041430137452832444
40
0.041430137452832444
40
0.041430137452832444
40
0.041430137452832444
10
15.12719950785568
20
109.25024338744029
30
0
10
15.048562862978214
20
109.25936927425263
30
0
10
14.911306091792531
20
109.2752981043804
30
0
10
14.773225241482981
20
109.27982276314509
30
0
10
14.714253164433744
20
109.28175517104015
30
0
0
SPLINE
5
258
100
AcDbEntity
8
0
100
AcDbSpline
70
0
71
3
72
9
73
5
74
0
42
0.000000001
43
0.0000000001
44
0.0000000001
40
0
40
0
40
0
40
0
40
0.015244236745879399
40
0.037196915677665768
40
0.037196915677665768
40
0.037196915677665768
40
0.037196915677665768
10
14.714253164433744
20
109.28175517104015
30
0
10
14.663448541550901
20
109.28039294904991
30
0
10
14.53948200226716
20
109.27706903999827
30
0
10
14.415884679523662
20
109.266804682283
30
0
10
14.342940665387419
20
109.26074691794261
30
0
0
SPLINE
5
259
100
AcDbEntity
8
0
100
AcDbSpline
70
0
71
3
72
9
73
5
74
0
42
0.000000001
43
0.0000000001
44
0.0000000001
40
0
40
0
40
0
40
0
40
0.021952678931786367
40
0.037196915677665768
40
0.037196915677665768
40
0.037196915677665768
40
0.037196915677665768
10
14.342940665387419
20
109.26074691794261
30
0
10
14.269996651251173
20
109.25468915360221
30
0
10
14.14639932850768
20
109.24442479588694
30
0
10
14.022432789223934
20
109.24110088683531
30
0
10
13.971628166341093
20
109.23973866484508
30
0
0
SPLINE
5
260
100
AcDbEntity
8
0
100
AcDbSpline
70
0
71
3
72
9
73
5
74
0
42
0.000000001
43
0.0000000001
44
0.0000000001
40
0
40
0
40
0
40
0
40
0.01243164226142986
40
0.023994841754825597
40
0.023994841754825597
40
0.023994841754825597
40
0.023994841754825597
10
13.971628166341093
20
109.23973866484508
30
0
10
13.922435791358616
20
109.24517621878159
30
0
10
13.827487495033303
20
109.2556714730285
30
0
10
13.841983756224884
20
109.34888166136247
30
0
10
13.84896955599716
20
109.39379998228893
30
0
0
SPLINE
5
261
100
AcDbEntity
8
0
100
AcDbSpline
70
0
71
3
72
9
73
5
74
0
42
0.000000001
43
0.0000000001
44
0.0000000001
40
0
40
0
40
0
40
0
40
0.10335261523256584
40
0.24925851910199745
40
0.24925851910199745
40
0.24925851910199745
40
0.24925851910199745
10
13.84896955599716
20
109.39379998228893
30
0
10
13.963620739780271
20
109.71868473683442
30
0
10
14.240128346469882
20
110.50221878301799
30
0
10
14.536708064514306
20
111.27839436707382
30
0
10
14.710313893460539
20
111.73273631117686
30
0
0
SPLINE
5
262
100
AcDbEntity
8
0
100
AcDbSpline
70
0
71
3
72
9
73
5
74
0
42
0.000000001
43
0.0000000001
44
0.0000000001
40
0
40
0
40
0
40
0
40
0.1459067581017755
40
0.24926213848459766
40
0.24926213848459766
40
0.24926213848459766
40
0.24926213848459766
10
14.710313893460539
20
111.73273631117686
30
0
10
14.883921188355863
20
112.18708055069979
30
0
10
15.180505980898166
20
112.96326678240703
30
0
10
15.457085499241936
20
113.74678802699069
30
0
10
15.571767903470304
20
114.07167144797191
30
0
0
SPLINE
5
263
100
AcDbEntity
8
0
100
AcDbSpline
70
0
71
3
72
9
73
5
74
0
42
0.000000001
43
0.0000000001
44
0.0000000001
40
0
40
0
40
0
40
0
40
0.16082951823308386
40
0.49101105777548493
40
0.49101105777548493
40
0.49101105777548493
40
0.49101105777548493
10
15.571767903470304
20
114.07167144797191
30
0
10
15.734070249725869
20
114.58261654383608
30
0
10
16.229577838071023
20
116.14252727876649
30
0
10
16.701688252209291
20
117.7096999009029
30
0
10
17.019160009526516
20
118.76354881308421
30
0
0
LINE
5
264
100
AcDbEntity
8
0
100
AcDbLine
10
17.019160009526516
20
118.76354881308421
30
0
11
17.050124622487331
21
118.85458477518901
31
0
0
SPLINE
5
265
100
AcDbEntity
8
0
100
AcDbSpline
70
0
71
3
72
9
73
5
74
0
42
0.000000001
43
0.0000000001
44
0.0000000001
40
0
40
0
40
0
40
0
40
0.014028145151565974
40
0.030170375006974035
40
0.030170375006974035
40
0.030170375006974035
40
0.030170375006974035
10
17.050124622487331
20
118.85458477518901
30
0
10
17.072525790164331
20
118.89851733289126
30
0
10
17.120704050519276
20
118.99300322012523
30
0
10
17.225983734908564
20
119.01231793089332
30
0
10
17.282312132024074
20
119.02265199206218
30
0
0
SPLINE
5
266
100
AcDbEntity
8
0
100
AcDbSpline
70
0
71
3
72
9
73
5
74
0
42
0.000000001
43
0.0000000001
44
0.0000000001
40
0
40
0
40
0
40
0
40
0.024862711345212025
40
0.088249425515575353
40
0.088249425515575353
40
0.088249425515575353
40
0.088249425515575353
10
17.282312132024074
20
119.02265199206218
30
0
10
17.365170345665227
20
119.02094488459618
30
0
10
17.659273014177547
20
119.01488555940526
30
0
10
17.953337802957005
20
119.00717906510195
30
0
10
18.164555050038601
20
119.00164373896465
30
0
0
SPLINE
5
267
100
AcDbEntity
8
0
100
AcDbSpline
70
0
71
3
72
9
73
5
74
0
42
0.000000001
43
0.0000000001
44
0.0000000001
40
0
40
0
40
0
40
0
40
0.10550328559762492
40
0.20354932600810929
40
0.20354932600810929
40
0.20354932600810929
40
0.20354932600810929
10
18.164555050038601
20
119.00164373896465
30
0
10
18.516204102792116
20
118.99601200692689
30
0
10
19.19464674345409
20
118.98514660824245
30
0
10
19.873143442972967
20
118.99155431326798
30
0
10
20.199963070058136
20
118.99464078924998
30
0
0
SPLINE
5
268
100
AcDbEntity
8
0
100
AcDbSpline
70
0
71
3
72
9
73
5
74
0
42
0.000000001
43
0.0000000001
44
0.0000000001
40
0
40
0
40
0
40
0
40
0.14556846453591141
40
0.32791319590705093
40
0.32791319590705093
40
0.32791319590705093
40
0.32791319590705093
10
20.199963070058136
20
118.99464078924998
30
0
10
20.685100019609315
20
119.00596453972506
30
0
10
21.777938417589947
20
119.03147286132324
30
0
10
22.869088448543646
20
119.09780890609939
30
0
10
23.475851036214141
20
119.13469680331096
30
0
0
SPLINE
5
269
100
AcDbEntity
8
0
100
AcDbSpline
70
0
71
3
72
9
73
5
74
0
42
0.000000001
43
0.0000000001
44
0.0000000001
40
0
40
0
40
0
40
0
40
0.019797456133298631
40
0.038428009072648296
40
0.038428009072648296
40
0.038428009072648296
40
0.038428009072648296
10
23.475851036214141
20
119.13469680331096
30
0
10
23.553675643305141
20
119.131654333719
30
0
10
23.704737713463643
20
119.12574872401358
30
0
10
23.700476109552937
20
118.97613843971484
30
0
10
23.698410011433868
20
118.90360482714519
30
0
0
SPLINE
5
270
100
AcDbEntity
8
0
100
AcDbSpline
70
0
71
3
72
9
73
5
74
0
42
0.000000001
43
0.0000000001
44
0.0000000001
40
0
40
0
40
0
40
0
40
0.1795785397644499
40
0.34406127259678554
40
0.34406127259678554
40
0.34406127259678554
40
0.34406127259678554
10
29.335881687306671
20
119.29576107046947
30
0
10
29.962957171496338
20
119.24289881553683
30
0
10
31.164394656106367
20
119.141618034836
30
0
10
31.894528143223067
20
118.18937038884451
30
0
10
32.243577457570339
20
117.73413666270122
30
0
0
SPLINE
5
271
100
AcDbEntity
8
0
100
AcDbSpline
70
0
71
3
72
9
73
5
74
0
42
0.000000001
43
0.0000000001
44
0.0000000001
40
0
40
0
40
0
40
0
40
0.17029310402880485
40
0.36642358646259354
40
0.36642358646259354
40
0.36642358646259354
40
0.36642358646259354
10
32.243577457570339
20
117.73413666270122
30
0
10
32.447879462027835
20
117.18893828028554
30
0
10
32.887480781304674
20
116.01582238837857
30
0
10
32.547180482101481
20
114.80422137060559
30
0
10
32.365032650136257
20
114.15570446036205
30
0
0
SPLINE
5
272
100
AcDbEntity
8
0
100
AcDbSpline
70
0
71
3
72
9
73
5
74
0
42
0.000000001
43
0.0000000001
44
0.0000000001
40
0
40
0
40
0
40
0
40
0.21731731941592397
40
0.44371297566298162
40
0.44371297566298162
40
0.44371297566298162
40
0.44371297566298162
10
32.365032650136257
20
114.15570446036205
30
0
10
32.076147293340256
20
113.48176007971772
30
0
10
31.486308519173853
20
112.10571758402179
30
0
10
30.381841784880752
20
111.09365745224366
30
0
10
29.818309761189727
20
110.57727404616222
30
0
0
SPLINE
5
273
100
AcDbEntity
8
0
100
AcDbSpline
70
0
71
3
72
9
73
5
74
0
42
0.000000001
43
0.0000000001
44
0.0000000001
40
0
40
0
40
0
40
0
40
0.22727084315058768
40
0.43325315602661996
40
0.43325315602661996
40
0.43325315602661996
40
0.43325315602661996
10
29.818309761189727
20
110.57727404616222
30
0
10
29.192606656127218
20
110.12417139255999
30
0
10
27.99981024966355
20
109.26040835126598
30
0
10
26.539118219583298
20
109.09926436561342
30
0
10
25.844658828877716
20
109.02265139601573
30
0
0
SPLINE
5
274
100
AcDbEntity
8
0
100
AcDbSpline
70
0
71
3
72
9
73
5
74
0
42
0.000000001
43
0.0000000001
44
0.0000000001
40
0
40
0
40
0
40
0
40
0.18047253516931264
40
0.34433434097475024
40
0.34433434097475024
40
0.34433434097475024
40
0.34433434097475024
10
25.844658828877716
20
109.02265139601573
30
0
10
25.214365548587637
20
109.07374647820328
30
0
10
24.01179131153885
20
109.17123384067423
30
0
10
23.275596872474352
20
110.11916776201295
30
0
10
22.925256706380157
20
110.57027050040111
30
0
0
SPLINE
5
275
100
AcDbEntity
8
0
100
AcDbSpline
70
0
71
3
72
9
73
5
74
0
42
0.000000001
43
0.0000000001
44
0.0000000001
40
0
40
0
40
0
40
0
40
0.17000466829373451
40
0.36707802688545776
40
0.36707802688545776
40
0.36707802688545776
40
0.36707802688545776
10
22.925256706380157
20
110.57027050040111
30
0
10
22.72285518956167
20
111.11501591896682
30
0
10
22.285825135163499
20
112.29124287443192
30
0
10
22.628981415974145
20
113.50439753076245
30
0
10
22.813211895131378
20
114.15570446036205
30
0
0
SPLINE
5
276
100
AcDbEntity
8
0
100
AcDbSpline
70
0
71
3
72
9
73
5
74
0
42
0.000000001
43
0.0000000001
44
0.0000000001
40
0
40
0
40
0
40
0
40
0.21710946756826122
40
0.44455951129020421
40
0.44455951129020421
40
0.44455951129020421
40
0.44455951129020421
10
22.813211895131378
20
114.15570446036205
30
0
10
23.102932574038448
20
114.82855971343469
30
0
10
23.69617286368679
20
116.20631723744027
30
0
10
24.806005827437527
20
117.21702705840615
30
0
10
25.37382981886795
20
117.73413666270122
30
0
0
SPLINE
5
277
100
AcDbEntity
8
0
100
AcDbSpline
70
0
71
3
72
9
73
5
74
0
42
0.000000001
43
0.0000000001
44
0.0000000001
40
0
40
0
40
0
40
0
40
0.22739537223708017
40
0.43243842858253162
40
0.43243842858253162
40
0.43243842858253162
40
0.43243842858253162
10
25.37382981886795
20
117.73413666270122
30
0
10
25.99871844218508
20
118.18924373006737
30
0
10
27.18707092116442
20
119.05472213937921
30
0
10
28.644726355873644
20
119.21823198092333
30
0
10
29.335881687306671
20
119.29576107046947
30
0
0
SPLINE
5
278
100
AcDbEntity
8
0
100
AcDbSpline
70
0
71
3
72
9
73
5
74
0
42
0.000000001
43
0.0000000001
44
0.0000000001
40
0
40
0
40
0
40
0
40
0.025035585763595842
40
0.059825217237123307
40
0.059825217237123307
40
0.059825217237123307
40
0.059825217237123307
10
36.974900113958512
20
101.95811725676192
30
0
10
36.948209428704438
20
101.87901685148671
30
0
10
36.884429173726176
20
101.6899979495996
30
0
10
36.835987452912704
20
101.49644338289764
30
0
10
36.807817565817032
20
101.38388730108871
30
0
0
SPLINE
5
279
100
AcDbEntity
8
0
100
AcDbSpline
70
0
71
3
72
9
73
5
74
0
42
0.000000001
43
0.0000000001
44
0.0000000001
40
0
40
0
40
0
40
0
40
0.045332299860479201
40
0.071726933144774435
40
0.071726933144774435
40
0.071726933144774435
40
0.071726933144774435
10
36.807817565817032
20
101.38388730108871
30
0
10
36.781078739015825
20
101.23506230931662
30
0
10
36.73877128829654
20
100.99958428883315
30
0
10
36.676705405829381
20
100.76860484014723
30
0
10
36.653865920919571
20
100.68360723078384
30
0
0
SPLINE
5
280
100
AcDbEntity
8
0
100
AcDbSpline
70
0
71
3
72
9
73
5
74
0
42
0.000000001
43
0.0000000001
44
0.0000000001
40
0
40
0
40
0
40
0
40
0.012231986447639318
40
0.024840517953449725
40
0.024840517953449725
40
0.024840517953449725
40
0.024840517953449725
10
36.653865920919571
20
100.68360723078384
30
0
10
36.634163449955579
20
100.6448025967195
30
0
10
36.594151994269012
20
100.56599878073439
30
0
10
36.506166857145303
20
100.55575413569626
30
0
10
36.46150742711464
20
100.55055416643752
30
0
0
SPLINE
5
281
100
AcDbEntity
8
0
100
AcDbSpline
70
0
71
3
72
9
73
5
74
0
42
0.000000001
43
0.0000000001
44
0.0000000001
40
0
40
0
40
0
40
0
40
0.071610024650855628
40
0.177250263213307
40
0.177250263213307
40
0.177250263213307
40
0.177250263213307
10
36.46150742711464
20
100.55055416643752
30
0
10
36.222828512137312
20
100.55470965121258
30
0
10
35.632046694794461
20
100.56499537271243
30
0
10
35.041937951840943
20
100.59543629422153
30
0
10
34.690236198324357
20
100.61357892573012
30
0
0
SPLINE
5
282
100
AcDbEntity
8
0
100
AcDbSpline
70
0
71
3
72
9
73
5
74
0
42
0.000000001
43
0.0000000001
44
0.0000000001
40
0
40
0
40
0
40
0
40
0.10170376208262982
40
0.17791208519687118
40
0.17791208519687118
40
0.17791208519687118
40
0.17791208519687118
10
34.690236198324357
20
100.61357892573012
30
0
10
34.351535327195805
20
100.62964167939853
30
0
10
33.759040251236677
20
100.65774052196473
30
0
10
33.165916458049061
20
100.65623914157368
30
0
10
32.911852943319474
20
100.65559602797164
30
0
0
LINE
5
283
100
AcDbEntity
8
0
100
AcDbLine
10
32.911852943319474
20
100.65559602797165
30
0
11
32.398241507429276
21
100.64859307825698
31
0
0
SPLINE
5
284
100
AcDbEntity
8
0
100
AcDbSpline
70
0
71
3
72
9
73
5
74
0
42
0.000000001
43
0.0000000001
44
0.0000000001
40
0
40
0
40
0
40
0
40
0.037773322375480409
40
0.052592857514794138
40
0.052592857514794138
40
0.052592857514794138
40
0.052592857514794138
10
32.398241507429276
20
100.64859307825698
30
0
10
32.272221527348599
20
100.64836644982152
30
0
10
32.09676037011922
20
100.64805090868657
30
0
10
31.922129227940182
20
100.63208396592648
30
0
10
31.872921931165848
20
100.62758482515945
30
0
0
SPLINE
5
285
100
AcDbEntity
8
0
100
AcDbSpline
70
0
71
3
72
9
73
5
74
0
42
0.000000001
43
0.0000000001
44
0.0000000001
40
0
40
0
40
0
40
0
40
0.02055534067018935
40
0.053838342293246938
40
0.053838342293246938
40
0.053838342293246938
40
0.053838342293246938
10
31.872921931165848
20
100.62758482515945
30
0
10
31.817980640345546
20
100.58458482986723
30
0
10
31.674078962009169
20
100.47195967311137
30
0
10
31.617704057834054
20
100.2954977465559
30
0
10
31.582852947134171
20
100.18640852987899
30
0
0
LINE
5
286
100
AcDbEntity
8
0
100
AcDbLine
10
31.582852947134164
20
100.186408529879
30
0
11
31.009388911146317
21
98.498733411432639
31
0
0
SPLINE
5
287
100
AcDbEntity
8
0
100
AcDbSpline
70
0
71
3
72
9
73
5
74
0
42
0.000000001
43
0.0000000001
44
0.0000000001
40
0
40
0
40
0
40
0
40
0.03640543684922419
40
0.052740522947737976
40
0.052740522947737976
40
0.052740522947737976
40
0.052740522947737976
10
31.009388911146317
20
98.498733411432639
30
0
10
30.949053336077551
20
98.369121762858015
30
0
10
30.861645243856092
20
98.181353486535571
30
0
10
31.005946128568556
20
98.060098673968071
30
0
10
31.050639795679245
20
98.022542963625327
30
0
0
SPLINE
5
288
100
AcDbEntity
8
0
100
AcDbSpline
70
0
71
3
72
9
73
5
74
0
42
0.000000001
43
0.0000000001
44
0.0000000001
40
0
40
0
40
0
40
0
40
0.085720864242450845
40
0.20707765220139124
40
0.20707765220139124
40
0.20707765220139124
40
0.20707765220139124
10
31.050639795679245
20
98.022542963625327
30
0
10
31.336362627254381
20
98.026578405331776
30
0
10
32.026589139385273
20
98.036326904737976
30
0
10
32.716204858389794
20
98.06737320127192
30
0
10
33.120350586790238
20
98.085567722917929
30
0
0
SPLINE
5
289
100
AcDbEntity
8
0
100
AcDbSpline
70
0
71
3
72
9
73
5
74
0
42
0.000000001
43
0.0000000001
44
0.0000000001
40
0
40
0
40
0
40
0
40
0.12135678795894038
40
0.20707762349968556
40
0.20707762349968556
40
0.20707762349968556
40
0.20707762349968556
10
33.120350586790238
20
98.085567722917929
30
0
10
33.524496316709616
20
98.103762161751462
30
0
10
34.214111942722774
20
98.13480831267492
30
0
10
34.904338348425163
20
98.144557395735632
30
0
10
35.190061079878006
20
98.14859307825698
30
0
0
SPLINE
5
290
100
AcDbEntity
8
0
100
AcDbSpline
70
0
71
3
72
9
73
5
74
0
42
0.000000001
43
0.0000000001
44
0.0000000001
40
0
40
0
40
0
40
0
40
0.010459531895234854
40
0.018902867618927267
40
0.018902867618927267
40
0.018902867618927267
40
0.018902867618927267
10
35.190061079878006
20
98.14859307825698
30
0
10
35.232008768114163
20
98.146273062288927
30
0
10
35.307818240812409
20
98.142080240357998
30
0
10
35.30175187388393
20
98.069132018010578
30
0
10
35.299042212385331
20
98.0365482670082
30
0
0
SPLINE
5
291
100
AcDbEntity
8
0
100
AcDbSpline
70
0
71
3
72
9
73
5
74
0
42
0.000000001
43
0.0000000001
44
0.0000000001
40
0
40
0
40
0
40
0
40
0.015771197576381034
40
0.037954625100991367
40
0.037954625100991367
40
0.037954625100991367
40
0.037954625100991367
10
35.299042212385331
20
98.0365482670082
30
0
10
35.281121799950057
20
97.987120100680841
30
0
10
35.237994920564908
20
97.868167338007055
30
0
10
35.189615326753909
20
97.751244764175965
30
0
10
35.161338793653641
20
97.682906756998435
30
0
0
SPLINE
5
292
100
AcDbEntity
8
0
100
AcDbSpline
70
0
71
3
72
9
73
5
74
0
42
0.000000001
43
0.0000000001
44
0.0000000001
40
0
40
0
40
0
40
0
40
0.022183427524610333
40
0.037954625100991367
40
0.037954625100991367
40
0.037954625100991367
40
0.037954625100991367
10
35.161338793653641
20
97.682906756998435
30
0
10
35.133062260553373
20
97.61456874982089
30
0
10
35.084682666742367
20
97.497646175989829
30
0
10
35.041555787357225
20
97.378693413316029
30
0
10
35.023635374921952
20
97.329265246988669
30
0
0
SPLINE
5
293
100
AcDbEntity
8
0
100
AcDbSpline
70
0
71
3
72
9
73
5
74
0
42
0.000000001
43
0.0000000001
44
0.0000000001
40
0
40
0
40
0
40
0
40
0.016623303535410323
40
0.039881677384346295
40
0.039881677384346295
40
0.039881677384346295
40
0.039881677384346295
10
35.023635374921952
20
97.329265246988669
30
0
10
35.006617078039561
20
97.276528602490259
30
0
10
34.96578775524889
20
97.150005866637059
30
0
10
34.929273980004737
20
97.022166477332448
30
0
10
34.907979714292679
20
96.947612534166709
30
0
0
SPLINE
5
294
100
AcDbEntity
8
0
100
AcDbSpline
70
0
71
3
72
9
73
5
74
0
42
0.000000001
43
0.0000000001
44
0.0000000001
40
0
40
0
40
0
40
0
40
0.023258373848935976
40
0.039881677384346295
40
0.039881677384346295
40
0.039881677384346295
40
0.039881677384346295
10
34.907979714292679
20
96.947612534166709
30
0
10
34.886685448580621
20
96.873058591000955
30
0
10
34.850171673336462
20
96.745219201696358
30
0
10
34.809342350545798
20
96.618696465843144
30
0
10
34.792324053663407
20
96.565959821344748
30
0
0
SPLINE
5
295
100
AcDbEntity
8
0
100
AcDbSpline
70
0
71
3
72
9
73
5
74
0
42
0.000000001
43
0.0000000001
44
0.0000000001
40
0
40
0
40
0
40
0
40
0.0085776074026480444
40
0.020507407437116112
40
0.020507407437116112
40
0.020507407437116112
40
0.020507407437116112
10
34.792324053663407
20
96.565959821344748
30
0
10
34.774759557649524
20
96.541610777179315
30
0
10
34.732766230224314
20
96.483396901681772
30
0
10
34.659391241385194
20
96.48246710481439
30
0
10
34.616706716436539
20
96.481926212908164
30
0
0
SPLINE
5
296
100
AcDbEntity
8
0
100
AcDbSpline
70
0
71
3
72
9
73
5
74
0
42
0.000000001
43
0.0000000001
44
0.0000000001
40
0
40
0
40
0
40
0
40
0.060602836903533172
40
0.14578667723609182
40
0.14578667723609182
40
0.14578667723609182
40
0.14578667723609182
10
34.616706716436539
20
96.481926212908164
30
0
10
34.414700780161944
20
96.483710213023542
30
0
10
33.92875365728522
20
96.48800181820738
30
0
10
33.442979577930231
20
96.501847385634193
30
0
10
33.159139501470719
20
96.509937415720358
30
0
0
SPLINE
5
297
100
AcDbEntity
8
0
100
AcDbSpline
70
0
71
3
72
9
73
5
74
0
42
0.000000001
43
0.0000000001
44
0.0000000001
40
0
40
0
40
0
40
0
40
0.085358846037622227
40
0.14648688430388757
40
0.14648688430388757
40
0.14648688430388757
40
0.14648688430388757
10
33.159139501470719
20
96.509937415720358
30
0
10
32.874715873422019
20
96.51803073809856
30
0
10
32.386607926450722
20
96.531919932176066
30
0
10
31.898326180791685
20
96.536173593087682
30
0
10
31.694569336790238
20
96.537948618532553
30
0
0
SPLINE
5
298
100
AcDbEntity
8
0
100
AcDbSpline
70
0
71
3
72
9
73
5
74
0
42
0.000000001
43
0.0000000001
44
0.0000000001
40
0
40
0
40
0
40
0
40
0.070849509169532254
40
0.10274051393026534
40
0.10274051393026534
40
0.10274051393026534
40
0.10274051393026534
10
31.694569336790238
20
96.537948618532553
30
0
10
31.458364007811589
20
96.539060824731479
30
0
10
31.115837190381363
20
96.540673660696228
30
0
10
30.773582796285854
20
96.527906336102433
30
0
10
30.667345868963395
20
96.52394331514968
30
0
0
SPLINE
5
299
100
AcDbEntity
8
0
100
AcDbSpline
70
0
71
3
72
9
73
5
74
0
42
0.000000001
43
0.0000000001
44
0.0000000001
40
0
40
0
40
0
40
0
40
0.027683960453859253
40
0.050167970827489118
40
0.050167970827489118
40
0.050167970827489118
40
0.050167970827489118
10
30.667345868963395
20
96.52394331514968
30
0
10
30.570652633244993
20
96.50897141204608
30
0
10
30.395428303011567
20
96.481839817222948
30
0
10
30.304768951301824
20
96.331995815847989
30
0
10
30.264137732404862
20
96.264839540125266
30
0
0
SPLINE
5
300
100
AcDbEntity
8
0
100
AcDbSpline
70
0
71
3
72
9
73
5
74
0
42
0.000000001
43
0.0000000001
44
0.0000000001
40
0
40
0
40
0
40
0
40
0.08292786251177002
40
0.19859837955265763
40
0.19859837955265763
40
0.19859837955265763
40
0.19859837955265763
10
30.264137732404862
20
96.264839540125266
30
0
10
30.177194539051115
20
96.002437433186685
30
0
10
29.968980112799169
20
95.374028215213528
30
0
10
29.771603643317675
20
94.742125495030194
30
0
10
29.65664480866829
20
94.374083648325339
30
0
0
SPLINE
5
301
100
AcDbEntity
8
0
100
AcDbSpline
70
0
71
3
72
9
73
5
74
0
42
0.000000001
43
0.0000000001
44
0.0000000001
40
0
40
0
40
0
40
0
40
0.11567141806435027
40
0.19860188732055672
40
0.19860188732055672
40
0.19860188732055672
40
0.19860188732055672
10
29.65664480866829
20
94.374083648325339
30
0
10
29.541684131690072
20
94.006039107646018
30
0
10
29.344302550331562
20
93.374125523286978
30
0
10
29.136016507902767
20
92.745727577832895
30
0
10
29.049042212385331
20
92.483326564432517
30
0
0
SPLINE
5
302
100
AcDbEntity
8
0
100
AcDbSpline
70
0
71
3
72
9
73
5
74
0
42
0.000000001
43
0.0000000001
44
0.0000000001
40
0
40
0
40
0
40
0
40
0.018425653099679178
40
0.033742816333982253
40
0.033742816333982253
40
0.033742816333982253
40
0.033742816333982253
10
29.049042212385331
20
92.483326564432517
30
0
10
29.024260492715605
20
92.422215955952936
30
0
10
28.978877840023074
20
92.310304371227573
30
0
10
28.862474261380623
20
92.284813932661592
30
0
10
28.809634196180497
20
92.273242841364279
30
0
0
SPLINE
5
303
100
AcDbEntity
8
0
100
AcDbSpline
70
0
71
3
72
9
73
5
74
0
42
0.000000001
43
0.0000000001
44
0.0000000001
40
0
40
0
40
0
40
0
40
0.017169471173286318
40
0.040731290838496026
40
0.040731290838496026
40
0.040731290838496026
40
0.040731290838496026
10
28.809634196180497
20
92.273242841364279
30
0
10
28.752414779258366
20
92.275212569933416
30
0
10
28.61667264202292
20
92.279885374728238
30
0
10
28.481743139920397
20
92.295641420933492
30
0
10
28.403690504449997
20
92.304755817057028
30
0
0
SPLINE
5
304
100
AcDbEntity
8
0
100
AcDbSpline
70
0
71
3
72
9
73
5
74
0
42
0.000000001
43
0.0000000001
44
0.0000000001
40
0
40
0
40
0
40
0
40
0.023736016905253725
40
0.041430152279940138
40
0.041430152279940138
40
0.041430152279940138
40
0.041430152279940138
10
28.403690504449997
20
92.304755817057028
30
0
10
28.3250538098413
20
92.313881703571951
30
0
10
28.187796988470048
20
92.329810528931006
30
0
10
28.049716088969362
20
92.334335191730304
30
0
10
27.990744012016449
20
92.336267600656882
30
0
0
SPLINE
5
305
100
AcDbEntity
8
0
100
AcDbSpline
70
0
71
3
72
9
73
5
74
0
42
0.000000001
43
0.0000000001
44
0.0000000001
40
0
40
0
40
0
40
0
40
0.015244251638193177
40
0.037196930569979546
40
0.037196930569979546
40
0.037196930569979546
40
0.037196930569979546
10
27.990744012016449
20
92.336267600656882
30
0
10
27.939939339418874
20
92.33490537962075
30
0
10
27.815972750300926
20
92.331581474813561
30
0
10
27.692375378086858
20
92.32131711230393
30
0
10
27.619431363958512
20
92.315259347559348
30
0
0
SPLINE
5
306
100
AcDbEntity
8
0
100
AcDbSpline
70
0
71
3
72
9
73
5
74
0
42
0.000000001
43
0.0000000001
44
0.0000000001
40
0
40
0
40
0
40
0
40
0.021952678931786367
40
0.037196923123822653
40
0.037196923123822653
40
0.037196923123822653
40
0.037196923123822653
10
27.619431363958512
20
92.315259347559348
30
0
10
27.546487349826215
20
92.309201583016858
30
0
10
27.422890002347433
20
92.298937222904399
30
0
10
27.298923438146588
20
92.295613315975004
30
0
10
27.24811879040638
20
92.294251094461814
30
0
0
SPLINE
5
307
100
AcDbEntity
8
0
100
AcDbSpline
70
0
71
3
72
9
73
5
74
0
42
0.000000001
43
0.0000000001
44
0.0000000001
40
0
40
0
40
0
40
0
40
0.012431649345414074
40
0.023994847689605206
40
0.023994847689605206
40
0.023994847689605206
40
0.023994847689605206
10
27.24811879040638
20
92.294251094461814
30
0
10
27.198926353607153
20
92.299688638833061
30
0
10
27.103977968587483
20
92.310183871232908
30
0
10
27.118474483810907
20
92.403394091273668
30
0
10
27.125460403579865
20
92.448312411905661
30
0
0
SPLINE
5
308
100
AcDbEntity
8
0
100
AcDbSpline
70
0
71
3
72
9
73
5
74
0
42
0.000000001
43
0.0000000001
44
0.0000000001
40
0
40
0
40
0
40
0
40
0.10335261773696819
40
0.24925852423079708
40
0.24925852423079708
40
0.24925852423079708
40
0.24925852423079708
10
27.125460403579865
20
92.448312411905661
30
0
10
27.240111613538591
20
92.77319716603526
30
0
10
27.51661928234595
20
93.556731208351664
30
0
10
27.813199038973266
20
94.332906795851187
30
0
10
27.986804890054856
20
94.787248740793601
30
0
0
SPLINE
5
309
100
AcDbEntity
8
0
100
AcDbSpline
70
0
71
3
72
9
73
5
74
0
42
0.000000001
43
0.0000000001
44
0.0000000001
40
0
40
0
40
0
40
0
40
0.1459067581017755
40
0.24926213848459766
40
0.24926213848459766
40
0.24926213848459766
40
0.24926213848459766
10
27.986804890054856
20
94.787248740793601
30
0
10
28.160412184950179
20
95.241592980316511
30
0
10
28.456996977492484
20
96.017779212023768
30
0
10
28.733576495836253
20
96.801300456607436
30
0
10
28.848258900064621
20
97.126183877588645
30
0
0
SPLINE
5
310
100
AcDbEntity
8
0
100
AcDbSpline
70
0
71
3
72
9
73
5
74
0
42
0.000000001
43
0.0000000001
44
0.0000000001
40
0
40
0
40
0
40
0
40
0.16082951823308386
40
0.49101104039141918
40
0.49101104039141918
40
0.49101104039141918
40
0.49101104039141918
10
28.848258900064621
20
97.126183877588645
30
0
10
29.010561260851127
20
97.637128969022001
30
0
10
29.506068876015842
20
99.197039635197058
30
0
10
29.978178912312536
20
100.76421231195994
30
0
10
30.295650410074387
20
101.81806124270095
30
0
0
LINE
5
311
100
AcDbEntity
8
0
100
AcDbLine
10
30.295650410074387
20
101.81806124270095
30
0
11
30.326615917104874
21
101.90909720480575
31
0
0
SPLINE
5
312
100
AcDbEntity
8
0
100
AcDbSpline
70
0
71
3
72
9
73
5
74
0
42
0.000000001
43
0.0000000001
44
0.0000000001
40
0
40
0
40
0
40
0
40
0.014028094452415653
40
0.030170324307823716
40
0.030170324307823716
40
0.030170324307823716
40
0.030170324307823716
10
30.326615917104874
20
101.90909720480575
30
0
10
30.349016762581705
20
101.95302976481614
30
0
10
30.397194423139801
20
102.04751583971982
30
0
10
30.502474064058696
20
102.06683041541393
30
0
10
30.558802532571946
20
102.07716442167892
30
0
0
SPLINE
5
313
100
AcDbEntity
8
0
100
AcDbSpline
70
0
71
3
72
9
73
5
74
0
42
0.000000001
43
0.0000000001
44
0.0000000001
40
0
40
0
40
0
40
0
40
0.02486277093655653
40
0.088249514900033674
40
0.088249514900033674
40
0.088249514900033674
40
0.088249514900033674
10
30.558802532571946
20
102.07716442167892
30
0
10
30.641660944908132
20
102.07545731483236
30
0
10
30.93576391165767
20
102.06939800022599
30
0
10
31.229828998292135
20
102.06169149765343
30
0
10
31.441046344656144
20
102.05615616858138
30
0
0
SPLINE
5
314
100
AcDbEntity
8
0
100
AcDbSpline
70
0
71
3
72
9
73
5
74
0
42
0.000000001
43
0.0000000001
44
0.0000000001
40
0
40
0
40
0
40
0
40
0.10550316639637748
40
0.20354926641065155
40
0.20354926641065155
40
0.20354926641065155
40
0.20354926641065155
10
31.441046344656144
20
102.05615616858138
30
0
10
31.792695000039394
20
102.05052443868675
30
0
10
32.471137441933827
20
102.03965903504219
30
0
10
33.149633942842229
20
102.0460667400927
30
0
10
33.476453768629227
20
102.04915321886672
30
0
0
SPLINE
5
315
100
AcDbEntity
8
0
100
AcDbSpline
70
0
71
3
72
9
73
5
74
0
42
0.000000001
43
0.0000000001
44
0.0000000001
40
0
40
0
40
0
40
0
40
0.14556852411572152
40
0.32791325548686101
40
0.32791325548686101
40
0.32791325548686101
40
0.32791325548686101
10
33.476453768629227
20
102.04915321886672
30
0
10
33.961590916969932
20
102.06047696636132
30
0
10
35.054429514025088
20
102.08598527543997
30
0
10
36.14557974318722
20
102.15232133448426
30
0
10
36.752342330831681
20
102.18920923292769
30
0
0
SPLINE
5
316
100
AcDbEntity
8
0
100
AcDbSpline
70
0
71
3
72
9
73
5
74
0
42
0.000000001
43
0.0000000001
44
0.0000000001
40
0
40
0
40
0
40
0
40
0.019797571894885853
40
0.03842808604726463
40
0.03842808604726463
40
0.03842808604726463
40
0.03842808604726463
10
36.752342330831681
20
102.18920923292769
30
0
10
36.830167686082021
20
102.18616694520215
30
0
10
36.981230627744658
20
102.18026171121087
30
0
10
36.97696712447528
20
102.03065085183792
30
0
10
36.974900113958512
20
101.95811725676192
30
0
0
SPLINE
5
317
100
AcDbEntity
8
0
100
AcDbSpline
70
0
71
3
72
9
73
5
74
0
42
0.000000001
43
0.0000000001
44
0.0000000001
40
0
40
0
40
0
40
0
40
0.17957848158541229
40
0.34406113071888511
40
0.34406113071888511
40
0.34406113071888511
40
0.34406113071888511
10
34.319122719093123
20
56.056625893156529
30
0
10
34.946198049472088
20
56.003763665619495
30
0
10
36.147635133199117
20
55.902482946358809
30
0
10
36.877767808602535
20
54.950235210543461
30
0
10
37.226816701217452
20
54.495001485388279
30
0
0
SPLINE
5
318
100
AcDbEntity
8
0
100
AcDbSpline
70
0
71
3
72
9
73
5
74
0
42
0.000000001
43
0.0000000001
44
0.0000000001
40
0
40
0
40
0
40
0
40
0.17029313514194533
40
0.36642365684042866
40
0.36642365684042866
40
0.36642365684042866
40
0.36642365684042866
10
37.226816701217452
20
54.495001485388279
30
0
10
37.431119354814427
20
53.949803100670721
30
0
10
37.870722074975795
20
52.776687192826373
30
0
10
37.530419664961308
20
51.565086190367879
30
0
10
37.348270701690474
20
50.916569283049107
30
0
0
SPLINE
5
319
100
AcDbEntity
8
0
100
AcDbSpline
70
0
71
3
72
9
73
5
74
0
42
0.000000001
43
0.0000000001
44
0.0000000001
40
0
40
0
40
0
40
0
40
0.21731731941592397
40
0.44371281173442956
40
0.44371281173442956
40
0.44371281173442956
40
0.44371281173442956
10
37.348270701690474
20
50.916569283049107
30
0
10
37.059385261598983
20
50.242624984920369
30
0
10
36.469546535276351
20
48.86658316607776
30
0
10
35.365081270819573
20
47.854522410225478
30
0
10
34.801550196929732
20
47.338138868849278
30
0
0
SPLINE
5
320
100
AcDbEntity
8
0
100
AcDbSpline
70
0
71
3
72
9
73
5
74
0
42
0.000000001
43
0.0000000001
44
0.0000000001
40
0
40
0
40
0
40
0
40
0.22727089431347874
40
0.43325326572352885
40
0.43325326572352885
40
0.43325326572352885
40
0.43325326572352885
10
34.801550196929732
20
47.338138868849278
30
0
10
34.175846886358272
20
46.885036214842479
30
0
10
32.983050054639058
20
46.021273148527122
30
0
10
31.522357658688662
20
45.860129181715919
30
0
10
30.827898072524825
20
45.783516218702793
30
0
0
SPLINE
5
321
100
AcDbEntity
8
0
100
AcDbSpline
70
0
71
3
72
9
73
5
74
0
42
0.000000001
43
0.0000000001
44
0.0000000001
40
0
40
0
40
0
40
0
40
0.18047244784110969
40
0.34433428520102566
40
0.34433428520102566
40
0.34433428520102566
40
0.34433428520102566
10
30.827898072524825
20
45.783516218702793
30
0
10
30.19760514983906
20
45.834611401498435
30
0
10
28.995031207963194
20
45.93209898730791
30
0
10
28.258836713655946
20
46.880032580786661
30
0
10
27.908496397062102
20
47.331135323088169
30
0
0
SPLINE
5
322
100
AcDbEntity
8
0
100
AcDbSpline
70
0
71
3
72
9
73
5
74
0
42
0.000000001
43
0.0000000001
44
0.0000000001
40
0
40
0
40
0
40
0
40
0.17000467214920131
40
0.36707803321963395
40
0.36707803321963395
40
0.36707803321963395
40
0.36707803321963395
10
27.908496397062102
20
47.331135323088169
30
0
10
27.706094808626037
20
47.875880740332533
30
0
10
27.269064601959506
20
49.052107686565975
30
0
10
27.612221029007451
20
50.265262351745569
30
0
10
27.796451585813323
20
50.916569283049107
30
0
0
SPLINE
5
323
100
AcDbEntity
8
0
100
AcDbSpline
70
0
71
3
72
9
73
5
74
0
42
0.000000001
43
0.0000000001
44
0.0000000001
40
0
40
0
40
0
40
0
40
0.21710952886799803
40
0.44455949039631387
40
0.44455949039631387
40
0.44455949039631387
40
0.44455949039631387
10
27.796451585813323
20
50.916569283049107
30
0
10
28.086172821574532
20
51.589424463340194
30
0
10
28.679414056072826
20
52.96718138456032
30
0
10
29.78924624305602
20
53.977891759981496
30
0
10
30.357069658561507
20
54.495001485388279
30
0
0
SPLINE
5
324
100
AcDbEntity
8
0
100
AcDbSpline
70
0
71
3
72
9
73
5
74
0
42
0.000000001
43
0.0000000001
44
0.0000000001
40
0
40
0
40
0
40
0
40
0.22739532114664499
40
0.43243855303484574
40
0.43243855303484574
40
0.43243855303484574
40
0.43243855303484574
10
30.357069658561507
20
54.495001485388279
30
0
10
30.981958081335215
20
54.950108560608669
30
0
10
32.170310787933886
20
55.815587428387616
30
0
10
33.627966746475018
20
55.979096923710678
30
0
10
34.319122719093123
20
56.056625893156529
30
0
0
SPLINE
5
325
100
AcDbEntity
8
0
100
AcDbSpline
70
0
71
3
72
9
73
5
74
0
42
0.000000001
43
0.0000000001
44
0.0000000001
40
0
40
0
40
0
40
0
40
0.035677445363270388
40
0.059657466546969226
40
0.059657466546969226
40
0.059657466546969226
40
0.059657466546969226
10
19.74199090898037
20
35.107965092233428
30
0
10
19.858564756011926
20
35.132441958054144
30
0
10
20.05349183974019
20
35.173370555631863
30
0
10
20.252053062309095
20
35.187407297051926
30
0
10
20.331867083907127
20
35.193049530557403
30
0
0
SPLINE
5
326
100
AcDbEntity
8
0
100
AcDbSpline
70
0
71
3
72
9
73
5
74
0
42
0.000000001
43
0.0000000001
44
0.0000000001
40
0
40
0
40
0
40
0
40
0.0054955803778158063
40
0.014063109266920554
40
0.014063109266920554
40
0.014063109266920554
40
0.014063109266920554
10
20.331867083907127
20
35.193049530557403
30
0
10
20.351043251560537
20
35.185303266234754
30
0
10
20.400114782225288
20
35.165480689893315
30
0
10
20.380714017336359
20
35.112115286660128
30
0
10
20.368894681334496
20
35.079604010156402
30
0
0
SPLINE
5
327
100
AcDbEntity
8
0
100
AcDbSpline
70
0
71
3
72
9
73
5
74
0
42
0.000000001
43
0.0000000001
44
0.0000000001
40
0
40
0
40
0
40
0
40
0.017519122631806792
40
0.040829570101394569
40
0.040829570101394569
40
0.040829570101394569
40
0.040829570101394569
10
20.368894681334496
20
35.079604010156402
30
0
10
20.34873945773068
20
35.024780369342942
30
0
10
20.301766265503176
20
34.897009947681369
30
0
10
20.246642957083321
20
34.77252367199354
30
0
10
20.215171918272972
20
34.7014518781221
30
0
0
SPLINE
5
328
100
AcDbEntity
8
0
100
AcDbSpline
70
0
71
3
72
9
73
5
74
0
42
0.000000001
43
0.0000000001
44
0.0000000001
40
0
40
0
40
0
40
0
40
0.026711866322247608
40
0.041976097869789765
40
0.041976097869789765
40
0.041976097869789765
40
0.041976097869789765
10
20.215171918272972
20
34.7014518781221
30
0
10
20.178819038513133
20
34.620168958636242
30
0
10
20.121692665528229
20
34.492437719556214
30
0
10
20.066682923570237
20
34.363782617223073
30
0
10
20.046679124236107
20
34.316998343042144
30
0
0
SPLINE
5
329
100
AcDbEntity
8
0
100
AcDbSpline
70
0
71
3
72
9
73
5
74
0
42
0.000000001
43
0.0000000001
44
0.0000000001
40
0
40
0
40
0
40
0
40
0.0099321845979183591
40
0.015379798393833207
40
0.015379798393833207
40
0.015379798393833207
40
0.015379798393833207
10
20.046679124236107
20
34.316998343042144
30
0
10
20.034839414653788
20
34.285975706554304
30
0
10
20.016505850207587
20
34.237937745708486
30
0
10
19.990064755694014
20
34.193930177866243
30
0
10
19.98069916665554
20
34.178342442086944
30
0
0
SPLINE
5
330
100
AcDbEntity
8
0
100
AcDbSpline
70
0
71
3
72
9
73
5
74
0
42
0.000000001
43
0.0000000001
44
0.0000000001
40
0
40
0
40
0
40
0
40
0.0072502436818396229
40
0.017475836665725442
40
0.017475836665725442
40
0.017475836665725442
40
0.017475836665725442
10
19.98069916665554
20
34.178342442086944
30
0
10
19.962065088918543
20
34.162749240008438
30
0
10
19.917149895272857
20
34.125163709841743
30
0
10
19.862747447763102
20
34.103047881847239
30
0
10
19.830915078520775
20
34.090107302240142
30
0
0
SPLINE
5
331
100
AcDbEntity
8
0
100
AcDbSpline
70
0
71
3
72
9
73
5
74
0
42
0.000000001
43
0.0000000001
44
0.0000000001
40
0
40
0
40
0
40
0
40
0.07505384620952954
40
0.17344718923643257
40
0.17344718923643257
40
0.17344718923643257
40
0.17344718923643257
10
19.830915078520775
20
34.090107302240142
30
0
10
19.589952207899294
20
34.018742952313687
30
0
10
19.033094235518252
20
33.853822078413714
30
0
10
18.451361949125388
20
33.847752708201064
30
0
10
18.12135611474514
20
33.844309668115386
30
0
0
SPLINE
5
332
100
AcDbEntity
8
0
100
AcDbSpline
70
0
71
3
72
9
73
5
74
0
42
0.000000001
43
0.0000000001
44
0.0000000001
40
0
40
0
40
0
40
0
40
0.10472730507135608
40
0.20497687606011217
40
0.20497687606011217
40
0.20497687606011217
40
0.20497687606011217
10
18.12135611474514
20
33.844309668115386
30
0
10
17.70848011878892
20
33.89495447508061
30
0
10
16.900381105893938
20
33.994078713151339
30
0
10
17.034868505669827
20
34.790790539617205
30
0
10
17.100643262267113
20
35.180444340280303
30
0
0
SPLINE
5
333
100
AcDbEntity
8
0
100
AcDbSpline
70
0
71
3
72
9
73
5
74
0
42
0.000000001
43
0.0000000001
44
0.0000000001
40
0
40
0
40
0
40
0
40
0.071014829942834395
40
0.1709052358151644
40
0.1709052358151644
40
0.1709052358151644
40
0.1709052358151644
10
17.100643262267113
20
35.180444340280303
30
0
10
17.17825765999217
20
35.404077495209002
30
0
10
17.365045503552881
20
35.942276025149084
30
0
10
17.559490081598859
20
36.477759338738707
30
0
10
17.673138722777367
20
36.790737728647002
30
0
0
SPLINE
5
334
100
AcDbEntity
8
0
100
AcDbSpline
70
0
71
3
72
9
73
5
74
0
42
0.000000001
43
0.0000000001
44
0.0000000001
40
0
40
0
40
0
40
0
40
0.099889629787162454
40
0.17090210155779689
40
0.17090210155779689
40
0.17090210155779689
40
0.17090210155779689
10
17.673138722777367
20
36.790737728647002
30
0
10
17.786785061119602
20
37.103714291893233
30
0
10
17.981223643967706
20
37.639188820241046
30
0
10
18.167949107694227
20
38.177398038122604
30
0
10
18.245536431670189
20
38.401032309106597
30
0
0
SPLINE
5
335
100
AcDbEntity
8
0
100
AcDbSpline
70
0
71
3
72
9
73
5
74
0
42
0.000000001
43
0.0000000001
44
0.0000000001
40
0
40
0
40
0
40
0
40
0.019855023529514283
40
0.038323678618813528
40
0.038323678618813528
40
0.038323678618813528
40
0.038323678618813528
10
18.245536431670189
20
38.401032309106597
30
0
10
18.262251009083027
20
38.477038122100211
30
0
10
18.294513075761852
20
38.623742675031068
30
0
10
18.150686377347117
20
38.660587123266282
30
0
10
18.081374511122704
20
38.678342918924102
30
0
0
SPLINE
5
336
100
AcDbEntity
8
0
100
AcDbSpline
70
0
71
3
72
9
73
5
74
0
42
0.000000001
43
0.0000000001
44
0.0000000001
40
0
40
0
40
0
40
0
40
0.02310806608268887
40
0.045797206441742414
40
0.045797206441742414
40
0.045797206441742414
40
0.045797206441742414
10
18.081374511122704
20
38.678342918924102
30
0
10
18.004345650223737
20
38.678595935189257
30
0
10
17.851684383290415
20
38.679097380792143
30
0
10
17.699067484268515
20
38.682807448807523
30
0
10
17.623457059264183
20
38.684645514062652
30
0
0
SPLINE
5
337
100
AcDbEntity
8
0
100
AcDbSpline
70
0
71
3
72
9
73
5
74
0
42
0.000000001
43
0.0000000001
44
0.0000000001
40
0
40
0
40
0
40
0
40
0.015333141738216862
40
0.053670841650417293
40
0.053670841650417293
40
0.053670841650417293
40
0.053670841650417293
10
17.623457059264183
20
38.684645514062652
30
0
10
17.602641401177049
20
38.732785645644029
30
0
10
17.529780019725191
20
38.901291319383077
30
0
10
17.609699702554419
20
39.076382622173384
30
0
10
17.666787251830101
20
39.201452354959258
30
0
0
SPLINE
5
338
100
AcDbEntity
8
0
100
AcDbSpline
70
0
71
3
72
9
73
5
74
0
42
0.000000001
43
0.0000000001
44
0.0000000001
40
0
40
0
40
0
40
0
40
0.020012918383686181
40
0.041496949083274517
40
0.041496949083274517
40
0.041496949083274517
40
0.041496949083274517
10
17.666787251830101
20
39.201452354959258
30
0
10
17.689308211126576
20
39.264276274471584
30
0
10
17.736005603446639
20
39.394542182683153
30
0
10
17.793046675687588
20
39.5206280271384
30
0
10
17.822578296065331
20
39.585905890039214
30
0
0
SPLINE
5
339
100
AcDbEntity
8
0
100
AcDbSpline
70
0
71
3
72
9
73
5
74
0
42
0.000000001
43
0.0000000001
44
0.0000000001
40
0
40
0
40
0
40
0
40
0.015793214881311229
40
0.033185790930975782
40
0.033185790930975782
40
0.033185790930975782
40
0.033185790930975782
10
17.822578296065331
20
39.585905890039214
30
0
10
17.852582439100054
20
39.631544280788077
30
0
10
17.915629211102871
20
39.727442810960682
30
0
10
18.027674296604239
20
39.75449880005268
30
0
10
18.086396798491478
20
39.768678764871368
30
0
0
SPLINE
5
340
100
AcDbEntity
8
0
100
AcDbSpline
70
0
71
3
72
9
73
5
74
0
42
0.000000001
43
0.0000000001
44
0.0000000001
40
0
40
0
40
0
40
0
40
0.015653688291990899
40
0.031107104613951435
40
0.031107104613951435
40
0.031107104613951435
40
0.031107104613951435
10
18.086396798491478
20
39.768678764871368
30
0
10
18.138578592308448
20
39.768934694089936
30
0
10
18.242274570465799
20
39.769443278190202
30
0
10
18.345905659983874
20
39.773143273101418
30
0
10
18.397387608885765
20
39.774981360009917
30
0
0
SPLINE
5
341
100
AcDbEntity
8
0
100
AcDbSpline
70
0
71
3
72
9
73
5
74
0
42
0.000000001
43
0.0000000001
44
0.0000000001
40
0
40
0
40
0
40
0
40
0.025170832479992598
40
0.048348009512213228
40
0.048348009512213228
40
0.048348009512213228
40
0.048348009512213228
10
18.397387608885765
20
39.774981360009917
30
0
10
18.486010506680522
20
39.787099276666737
30
0
10
18.656236926843086
20
39.81037531055469
30
0
10
18.736613876238145
20
39.961120306731821
30
0
10
18.775145158171654
20
40.033384780458221
30
0
0
SPLINE
5
342
100
AcDbEntity
8
0
100
AcDbSpline
70
0
71
3
72
9
73
5
74
0
42
0.000000001
43
0.0000000001
44
0.0000000001
40
0
40
0
40
0
40
0
40
0.033490795369545752
40
0.080718011567894557
40
0.080718011567894557
40
0.080718011567894557
40
0.080718011567894557
10
18.775145158171654
20
40.033384780458221
30
0
10
18.810163569687038
20
40.139388534369125
30
0
10
18.894563373113584
20
40.394874023441787
30
0
10
18.974138622487551
20
40.651905923519791
30
0
10
19.020697221159935
20
40.80229244666458
30
0
0
SPLINE
5
343
100
AcDbEntity
8
0
100
AcDbSpline
70
0
71
3
72
9
73
5
74
0
42
0.000000001
43
0.0000000001
44
0.0000000001
40
0
40
0
40
0
40
0
40
0.04739303568154072
40
0.08138128985913301
40
0.08138128985913301
40
0.08138128985913301
40
0.08138128985913301
10
19.020697221159935
20
40.80229244666458
30
0
10
19.067430082714779
20
40.953203594887846
30
0
10
19.147677749855095
20
41.212341751368406
30
0
10
19.232775830626526
20
41.46992506684191
30
0
10
19.268316373229027
20
41.57750270800949
30
0
0
SPLINE
5
344
100
AcDbEntity
8
0
100
AcDbSpline
70
0
71
3
72
9
73
5
74
0
42
0.000000001
43
0.0000000001
44
0.0000000001
40
0
40
0
40
0
40
0
40
0.03809457727584678
40
0.058740308951053574
40
0.058740308951053574
40
0.058740308951053574
40
0.058740308951053574
10
19.268316373229027
20
41.57750270800949
30
0
10
19.305369679012014
20
41.706881248622381
30
0
10
19.362504389120222
20
41.906377764680499
30
0
10
19.53910006530467
20
42.003463581627649
30
0
10
19.601168975234032
20
42.037586788705596
30
0
0
SPLINE
5
345
100
AcDbEntity
8
0
100
AcDbSpline
70
0
71
3
72
9
73
5
74
0
42
0.000000001
43
0.0000000001
44
0.0000000001
40
0
40
0
40
0
40
0
40
0.031183588072192188
40
0.11354888469510821
40
0.11354888469510821
40
0.11354888469510821
40
0.11354888469510821
10
19.601168975234032
20
42.037586788705596
30
0
10
19.703882734862447
20
42.021608894384372
30
0
10
20.07789462924891
20
41.963428544010611
30
0
10
20.449857430230026
20
41.893171376722464
30
0
10
20.719669207930565
20
41.842208723596343
30
0
0
SPLINE
5
346
100
AcDbEntity
8
0
100
AcDbSpline
70
0
71
3
72
9
73
5
74
0
42
0.000000001
43
0.0000000001
44
0.0000000001
40
0
40
0
40
0
40
0
40
0.01035902229950964
40
0.019821550942097938
40
0.019821550942097938
40
0.019821550942097938
40
0.019821550942097938
10
20.719669207930565
20
41.842208723596343
30
0
10
20.758687536835509
20
41.832674629634745
30
0
10
20.833347458563971
20
41.81443154416948
30
0
10
20.822592192467852
20
41.739380927645477
30
0
10
20.817457780241966
20
41.703552822641143
30
0
0
SPLINE
5
347
100
AcDbEntity
8
0
100
AcDbSpline
70
0
71
3
72
9
73
5
74
0
42
0.000000001
43
0.0000000001
44
0.0000000001
40
0
40
0
40
0
40
0
40
0.036953191273756479
40
0.089277997795536523
40
0.089277997795536523
40
0.089277997795536523
40
0.089277997795536523
10
20.817457780241966
20
41.703552822641143
30
0
10
20.775474719994413
20
41.587736839488379
30
0
10
20.674044682938508
20
41.307928283523609
30
0
10
20.560381002364121
20
41.032844080874291
30
0
10
20.493764027953148
20
40.871620397142181
30
0
0
SPLINE
5
348
100
AcDbEntity
8
0
100
AcDbSpline
70
0
71
3
72
9
73
5
74
0
42
0.000000001
43
0.0000000001
44
0.0000000001
40
0
40
0
40
0
40
0
40
0.052324861802960913
40
0.089278053076717392
40
0.089278053076717392
40
0.089278053076717392
40
0.089278053076717392
10
20.493764027953148
20
40.871620397142181
30
0
10
20.427147071640775
20
40.710396507395856
30
0
10
20.313483471651512
20
40.43531207353324
30
0
10
20.212053346414869
20
40.155503354522537
30
0
10
20.17007027566433
20
40.03968737559677
30
0
0
SPLINE
5
349
100
AcDbEntity
8
0
100
AcDbSpline
70
0
71
3
72
9
73
5
74
0
42
0.000000001
43
0.0000000001
44
0.0000000001
40
0
40
0
40
0
40
0
40
0.013713737815308855
40
0.025820748368607552
40
0.025820748368607552
40
0.025820748368607552
40
0.025820748368607552
10
20.17007027566433
20
40.03968737559677
30
0
10
20.157146133328414
20
39.986441665676658
30
0
10
20.132812065430208
20
39.886188613148533
30
0
10
20.231788919693464
20
39.866259160128756
30
0
10
20.27819786965847
20
39.856914500764617
30
0
0
LINE
5
350
100
AcDbEntity
8
0
100
AcDbLine
10
20.278197869658467
20
39.856914500764617
30
0
11
21.790804013609886
21
39.856914500764617
31
0
0
SPLINE
5
351
100
AcDbEntity
8
0
100
AcDbSpline
70
0
71
3
72
9
73
5
74
0
42
0.000000001
43
0.0000000001
44
0.0000000001
40
0
40
0
40
0
40
0
40
0.0076308431377019349
40
0.01335262118925909
40
0.01335262118925909
40
0.01335262118925909
40
0.01335262118925909
10
21.790804013609886
20
39.856914500764617
30
0
10
21.821534516514269
20
39.856016307302646
30
0
10
21.875307442629122
20
39.854444628153175
30
0
10
21.873162268059801
20
39.803230079257041
30
0
10
21.872243031859398
20
39.781283955148467
30
0
0
SPLINE
5
352
100
AcDbEntity
8
0
100
AcDbSpline
70
0
71
3
72
9
73
5
74
0
42
0.000000001
43
0.0000000001
44
0.0000000001
40
0
40
0
40
0
40
0
40
0.010591195247319184
40
0.0264284093239524
40
0.0264284093239524
40
0.0264284093239524
40
0.0264284093239524
10
21.872243031859398
20
39.781283955148467
30
0
10
21.859572493066885
20
39.748320771192319
30
0
10
21.827955458563792
20
39.666067116352522
30
0
10
21.790284873552128
20
39.586385937930643
30
0
10
21.767710790038109
20
39.538637022546538
30
0
0
SPLINE
5
353
100
AcDbEntity
8
0
100
AcDbSpline
70
0
71
3
72
9
73
5
74
0
42
0.000000001
43
0.0000000001
44
0.0000000001
40
0
40
0
40
0
40
0
40
0.016003030599977076
40
0.027093723425067405
40
0.027093723425067405
40
0.027093723425067405
40
0.027093723425067405
10
21.767710790038109
20
39.538637022546538
30
0
10
21.744943651607969
20
39.490367047575425
30
0
10
21.706398043140087
20
39.408644192430458
30
0
10
21.674192239022403
20
39.324238558365501
30
0
10
21.661008939146996
20
39.28968749480606
30
0
0
SPLINE
5
354
100
AcDbEntity
8
0
100
AcDbSpline
70
0
71
3
72
9
73
5
74
0
42
0.000000001
43
0.0000000001
44
0.0000000001
40
0
40
0
40
0
40
0
40
0.012597234283506266
40
0.030423684440034973
40
0.030423684440034973
40
0.030423684440034973
40
0.030423684440034973
10
21.661008939146996
20
39.28968749480606
30
0
10
21.647864408666262
20
39.249806136094556
30
0
10
21.616118944665335
20
39.153488337665806
30
0
10
21.58627374274203
20
39.056563703620171
30
0
10
21.56878624856472
20
38.999771694711455
30
0
0
SPLINE
5
355
100
AcDbEntity
8
0
100
AcDbSpline
70
0
71
3
72
9
73
5
74
0
42
0.000000001
43
0.0000000001
44
0.0000000001
40
0
40
0
40
0
40
0
40
0.017826450156528707
40
0.030423684440034973
40
0.030423684440034973
40
0.030423684440034973
40
0.030423684440034973
10
21.56878624856472
20
38.999771694711455
30
0
10
21.551298754387407
20
38.94297968580274
30
0
10
21.521453552464102
20
38.846055051757098
30
0
10
21.489708088463175
20
38.749737253328348
30
0
10
21.476563557982445
20
38.709855894616851
30
0
0
SPLINE
5
356
100
AcDbEntity
8
0
100
AcDbSpline
70
0
71
3
72
9
73
5
74
0
42
0.000000001
43
0.0000000001
44
0.0000000001
40
0
40
0
40
0
40
0
40
0.01167656307806331
40
0.026239772122640607
40
0.026239772122640607
40
0.026239772122640607
40
0.026239772122640607
10
21.476563557982445
20
38.709855894616851
30
0
10
21.454630938651988
20
38.675038160530491
30
0
10
21.4053435816244
20
38.596795153393472
30
0
10
21.311503296028249
20
38.592494605415467
30
0
10
21.259421452879906
20
38.5901077790773
30
0
0
SPLINE
5
357
100
AcDbEntity
8
0
100
AcDbSpline
70
0
71
3
72
9
73
5
74
0
42
0.000000001
43
0.0000000001
44
0.0000000001
40
0
40
0
40
0
40
0
40
0.031387971034097524
40
0.07517294613867298
40
0.07517294613867298
40
0.07517294613867298
40
0.07517294613867298
10
21.259421452879906
20
38.5901077790773
30
0
10
21.154804563750744
20
38.592302801402603
30
0
10
20.904251262195856
20
38.59755979284224
30
0
10
20.654217771825145
20
38.614755628895352
30
0
10
20.508584126830101
20
38.624771456292876
30
0
0
SPLINE
5
358
100
AcDbEntity
8
0
100
AcDbSpline
70
0
71
3
72
9
73
5
74
0
42
0.000000001
43
0.0000000001
44
0.0000000001
40
0
40
0
40
0
40
0
40
0.043784975104575449
40
0.07517294613867298
40
0.07517294613867298
40
0.07517294613867298
40
0.07517294613867298
10
20.508584126830101
20
38.624771456292876
30
0
10
20.362950481835046
20
38.634787283690393
30
0
10
20.112916991464338
20
38.65198311974352
30
0
10
19.862363689909458
20
38.657240111183143
30
0
10
19.757746800780296
20
38.659435133508453
30
0
0
SPLINE
5
359
100
AcDbEntity
8
0
100
AcDbSpline
70
0
71
3
72
9
73
5
74
0
42
0.000000001
43
0.0000000001
44
0.0000000001
40
0
40
0
40
0
40
0
40
0.011678117217545865
40
0.041300147120355221
40
0.041300147120355221
40
0.041300147120355221
40
0.041300147120355221
10
19.757746800780296
20
38.659435133508453
30
0
10
19.731634252171887
20
38.63027165720267
30
0
10
19.639286138248664
20
38.527133810618935
30
0
10
19.5931188997498
20
38.394978659328551
30
0
10
19.560006007552147
20
38.300191978982696
30
0
0
SPLINE
5
360
100
AcDbEntity
8
0
100
AcDbSpline
70
0
71
3
72
9
73
5
74
0
42
0.000000001
43
0.0000000001
44
0.0000000001
40
0
40
0
40
0
40
0
40
0.057550323802823836
40
0.1335252886869214
40
0.1335252886869214
40
0.1335252886869214
40
0.1335252886869214
10
19.560006007552147
20
38.300191978982696
30
0
10
19.490141763364672
20
38.121509118498672
30
0
10
19.328046352642275
20
37.706938374965098
30
0
10
19.184157189004637
20
37.285681880545255
30
0
10
19.102285251021385
20
37.045989851526031
30
0
0
LINE
5
361
100
AcDbEntity
8
0
100
AcDbLine
10
19.102285251021385
20
37.045989851526031
30
0
11
18.783121451735497
21
36.106914500764617
31
0
0
SPLINE
5
362
100
AcDbEntity
8
0
100
AcDbSpline
70
0
71
3
72
9
73
5
74
0
42
0.000000001
43
0.0000000001
44
0.0000000001
40
0
40
0
40
0
40
0
40
0.047840391628140168
40
0.077568067225156856
40
0.077568067225156856
40
0.077568067225156856
40
0.077568067225156856
10
18.783121451735497
20
36.106914500764617
30
0
10
18.73008175250385
20
35.955261201672251
30
0
10
18.644083565290391
20
35.709371632240007
30
0
10
18.631687690230226
20
35.450011021903805
30
0
10
18.626937016844749
20
35.350612024835357
30
0
0
SPLINE
5
363
100
AcDbEntity
8
0
100
AcDbSpline
70
0
71
3
72
9
73
5
74
0
42
0.000000001
43
0.0000000001
44
0.0000000001
40
0
40
0
40
0
40
0
40
0.028695989702145867
40
0.066054350056782812
40
0.066054350056782812
40
0.066054350056782812
40
0.066054350056782812
10
18.626937016844749
20
35.350612024835357
30
0
10
18.666748951245403
20
35.255438803062454
30
0
10
18.758390726930244
20
35.036362710121537
30
0
10
19.001828459497499
20
35.027751114342109
30
0
10
19.139509543776512
20
35.022880653909453
30
0
0
SPLINE
5
364
100
AcDbEntity
8
0
100
AcDbSpline
70
0
71
3
72
9
73
5
74
0
42
0.000000001
43
0.0000000001
44
0.0000000001
40
0
40
0
40
0
40
0
40
0.024921884079029035
40
0.06090936305572256
40
0.06090936305572256
40
0.06090936305572256
40
0.06090936305572256
10
19.139509543776512
20
35.022880653909453
30
0
10
19.222486631502566
20
35.028408245710182
30
0
10
19.425283560722917
20
35.04191774181195
30
0
10
19.624365826489377
20
35.083435111844963
30
0
10
19.74199090898037
20
35.107965092233428
30
0
0
SPLINE
5
365
100
AcDbEntity
8
0
100
AcDbSpline
70
0
71
3
72
9
73
5
74
0
42
0.000000001
43
0.0000000001
44
0.0000000001
40
0
40
0
40
0
40
0
40
0.014043145828680091
40
0.053724662145409802
40
0.053724662145409802
40
0.053724662145409802
40
0.053724662145409802
10
7.807478055357933
20
43.071200470498809
30
0
10
7.8020430851405216
20
43.024705458344059
30
0
10
7.7812505973131527
20
42.846830155336136
30
0
10
7.7556958709316941
20
42.669566019250226
30
0
10
7.7368209213018417
20
42.538637141755828
30
0
0
SPLINE
5
366
100
AcDbEntity
8
0
100
AcDbSpline
70
0
71
3
72
9
73
5
74
0
42
0.000000001
43
0.0000000001
44
0.0000000001
40
0
40
0
40
0
40
0
40
0.039866833336661113
40
0.054465879574606628
40
0.054465879574606628
40
0.054465879574606628
40
0.054465879574606628
10
7.7368209213018417
20
42.538637141755828
30
0
10
7.7189128737794732
20
42.406950425791621
30
0
10
7.6944469837617522
20
42.227040655865508
30
0
10
7.6654633443087414
20
42.047812238100747
30
0
10
7.6576945632696152
20
41.999771813920745
30
0
0
SPLINE
5
367
100
AcDbEntity
8
0
100
AcDbSpline
70
0
71
3
72
9
73
5
74
0
42
0.000000001
43
0.0000000001
44
0.0000000001
40
0
40
0
40
0
40
0
40
0.0077192491842020573
40
0.017610511512218742
40
0.017610511512218742
40
0.017610511512218742
40
0.017610511512218742
10
7.6576945632696152
20
41.999771813920745
30
0
10
7.6432972632513554
20
41.977056631453863
30
0
10
7.6104516053815043
20
41.925234754378842
30
0
10
7.5488265137200337
20
41.916463312859975
30
0
10
7.5142136663198471
20
41.911536674073943
30
0
0
SPLINE
5
368
100
AcDbEntity
8
0
100
AcDbSpline
70
0
71
3
72
9
73
5
74
0
42
0.000000001
43
0.0000000001
44
0.0000000001
40
0
40
0
40
0
40
0
40
0.031884858172399673
40
0.063319756271057098
40
0.063319756271057098
40
0.063319756271057098
40
0.063319756271057098
10
7.5142136663198471
20
41.911536674073943
30
0
10
7.4084212129139662
20
41.90132521848664
30
0
10
7.1983292523740179
20
41.881046411679193
30
0
10
6.9879901261458919
20
41.86351655651282
30
0
10
6.8835679143667221
20
41.854813913873443
30
0
0
SPLINE
5
369
100
AcDbEntity
8
0
100
AcDbSpline
70
0
71
3
72
9
73
5
74
0
42
0.000000001
43
0.0000000001
44
0.0000000001
40
0
40
0
40
0
40
0
40
0.0357740173226338
40
0.068849216175806111
40
0.068849216175806111
40
0.068849216175806111
40
0.068849216175806111
10
6.8835679143667221
20
41.854813913873443
30
0
10
6.7648929615032474
20
41.833109714389266
30
0
10
6.5364959824706057
20
41.791338696369891
30
0
10
6.3426819394138825
20
41.663923442189137
30
0
10
6.2495735734701157
20
41.602713088563689
30
0
0
SPLINE
5
370
100
AcDbEntity
8
0
100
AcDbSpline
70
0
71
3
72
9
73
5
74
0
42
0.000000001
43
0.0000000001
44
0.0000000001
40
0
40
0
40
0
40
0
40
0.073215792766713167
40
0.19257907011596859
40
0.19257907011596859
40
0.19257907011596859
40
0.19257907011596859
10
6.2495735734701157
20
41.602713088563689
30
0
10
6.0956454482056106
20
41.411248651212475
30
0
10
5.6907692035054431
20
40.907640865077319
30
0
10
5.4894442012318478
20
40.290097145065324
30
0
10
5.3646600693464279
20
39.907334665826568
30
0
0
SPLINE
5
371
100
AcDbEntity
8
0
100
AcDbSpline
70
0
71
3
72
9
73
5
74
0
42
0.000000001
43
0.0000000001
44
0.0000000001
40
0
40
0
40
0
40
0
40
0.026680482871463733
40
0.065131320982760393
40
0.065131320982760393
40
0.065131320982760393
40
0.065131320982760393
10
5.3646600693464279
20
39.907334665826568
30
0
10
5.4535930446377083
20
39.906516952092133
30
0
10
5.6706926446544497
20
39.904520782233959
30
0
10
5.8877165132846958
20
39.898364116413454
30
0
10
6.0158384293317795
20
39.894729475549468
30
0
0
SPLINE
5
372
100
AcDbEntity
8
0
100
AcDbSpline
70
0
71
3
72
9
73
5
74
0
42
0.000000001
43
0.0000000001
44
0.0000000001
40
0
40
0
40
0
40
0
40
0.038923449723249889
40
0.067021892773800509
40
0.067021892773800509
40
0.067021892773800509
40
0.067021892773800509
10
6.0158384293317795
20
39.894729475549468
30
0
10
6.1455362473398578
20
39.89108589911099
30
0
10
6.3688616029632348
20
39.884812061845565
30
0
10
6.5922647300274839
20
39.882918671504093
30
0
10
6.6859248727560043
20
39.882124881318816
30
0
0
SPLINE
5
373
100
AcDbEntity
8
0
100
AcDbSpline
70
0
71
3
72
9
73
5
74
0
42
0.000000001
43
0.0000000001
44
0.0000000001
40
0
40
0
40
0
40
0
40
0.010759948437550688
40
0.019314372275677637
40
0.019314372275677637
40
0.019314372275677637
40
0.019314372275677637
10
6.6859248727560043
20
39.882124881318816
30
0
10
6.729125094283404
20
39.879974389822735
30
0
10
6.8066705551947244
20
39.876114204658094
30
0
10
6.8010651010409742
20
39.801656859643785
30
0
10
6.7985824197530746
20
39.768679360917815
30
0
0
SPLINE
5
374
100
AcDbEntity
8
0
100
AcDbSpline
70
0
71
3
72
9
73
5
74
0
42
0.000000001
43
0.0000000001
44
0.0000000001
40
0
40
0
40
0
40
0
40
0.023115141271363895
40
0.055190502639032066
40
0.055190502639032066
40
0.055190502639032066
40
0.055190502639032066
10
6.7985824197530746
20
39.768679360917815
30
0
10
6.7745036743615925
20
39.695485590310085
30
0
10
6.7170124375366846
20
39.520725637841572
30
0
10
6.6634706050117023
20
39.344712898222816
30
0
10
6.6323534101247787
20
39.242418627313384
30
0
0
SPLINE
5
375
100
AcDbEntity
8
0
100
AcDbSpline
70
0
71
3
72
9
73
5
74
0
42
0.000000001
43
0.0000000001
44
0.0000000001
40
0
40
0
40
0
40
0
40
0.031908870681993773
40
0.054524155009952745
40
0.054524155009952745
40
0.054524155009952745
40
0.054524155009952745
10
6.6323534101247787
20
39.242418627313384
30
0
10
6.6014115476228943
20
39.140651208768645
30
0
10
6.548539763968658
20
38.966756539822327
30
0
10
6.4918174571557863
20
38.794082180673911
30
0
10
6.4682904332876205
20
38.722461084893951
30
0
0
SPLINE
5
376
100
AcDbEntity
8
0
100
AcDbSpline
70
0
71
3
72
9
73
5
74
0
42
0.000000001
43
0.0000000001
44
0.0000000001
40
0
40
0
40
0
40
0
40
0.010918399629575427
40
0.021810885879045179
40
0.021810885879045179
40
0.021810885879045179
40
0.021810885879045179
10
6.4682904332876205
20
38.722461084893951
30
0
10
6.4511723023416145
20
38.68753456529771
30
0
10
6.4169766680735183
20
38.617764419588596
30
0
10
6.3399422090543816
20
38.607726143961173
30
0
10
6.3014707416296005
20
38.6027129693544
30
0
0
SPLINE
5
377
100
AcDbEntity
8
0
100
AcDbSpline
70
0
71
3
72
9
73
5
74
0
42
0.000000001
43
0.0000000001
44
0.0000000001
40
0
40
0
40
0
40
0
40
0.027548290051900567
40
0.066094429849495734
40
0.066094429849495734
40
0.066094429849495734
40
0.066094429849495734
10
6.3014707416296005
20
38.6027129693544
30
0
10
6.2096477090878146
20
38.60411290890606
30
0
10
5.9893439816525706
20
38.607471672964252
30
0
10
5.7692785549697518
20
38.618398785837222
30
0
10
5.6409368366003036
20
38.624771456292876
30
0
0
SPLINE
5
378
100
AcDbEntity
8
0
100
AcDbSpline
70
0
71
3
72
9
73
5
74
0
42
0.000000001
43
0.0000000001
44
0.0000000001
40
0
40
0
40
0
40
0
40
0.038388753049854306
40
0.065464415042520888
40
0.065464415042520888
40
0.065464415042520888
40
0.065464415042520888
10
5.6409368366003036
20
38.624771456292876
30
0
10
5.5131202947861357
20
38.631139073040927
30
0
10
5.2951544980915708
20
38.641997782233311
30
0
10
5.0769524808800126
20
38.645416556272579
30
0
10
4.9867055267095566
20
38.646830539277801
30
0
0
LINE
5
379
100
AcDbEntity
8
0
100
AcDbLine
10
4.9867055267095566
20
38.646830539277801
30
0
11
4.3462118953466415
21
36.762376646569976
31
0
0
SPLINE
5
380
100
AcDbEntity
8
0
100
AcDbSpline
70
0
71
3
72
9
73
5
74
0
42
0.000000001
43
0.0000000001
44
0.0000000001
40
0
40
0
40
0
40
0
40
0.058327586522268687
40
0.14013833854320829
40
0.14013833854320829
40
0.14013833854320829
40
0.14013833854320829
10
4.3462118953466415
20
36.762376646569976
30
0
10
4.2854620284115468
20
36.57768054327304
30
0
10
4.1395038990492967
20
36.13392816820167
30
0
10
4.003243681111516
20
35.687096116957193
30
0
10
3.9236969202756877
20
35.426241974405059
30
0
0
SPLINE
5
381
100
AcDbEntity
8
0
100
AcDbSpline
70
0
71
3
72
9
73
5
74
0
42
0.000000001
43
0.0000000001
44
0.0000000001
40
0
40
0
40
0
40
0
40
0.081811426652183175
40
0.14014135835836883
40
0.14014135835836883
40
0.14014135835836883
40
0.14014135835836883
10
3.9236969202756877
20
35.426241974405059
30
0
10
3.8441487912500438
20
35.165385755548904
30
0
10
3.7078844170335228
20
34.718544203669516
30
0
10
3.5618613347565886
20
34.274802436383219
30
0
10
3.5010832995176311
20
34.090107302240142
30
0
0
SPLINE
5
382
100
AcDbEntity
8
0
100
AcDbSpline
70
0
71
3
72
9
73
5
74
0
42
0.000000001
43
0.0000000001
44
0.0000000001
40
0
40
0
40
0
40
0
40
0.014796409444489128
40
0.02649618789521635
40
0.02649618789521635
40
0.02649618789521635
40
0.02649618789521635
10
3.5010832995176311
20
34.090107302240142
30
0
10
3.4819881709235831
20
34.040694545842356
30
0
10
3.4477941918363362
20
33.952210263027126
30
0
10
3.357220810570221
20
33.929824415402841
30
0
10
3.3172268122434612
20
33.919939617685088
30
0
0
LINE
5
383
100
AcDbEntity
8
0
100
AcDbLine
10
3.3172268122434607
20
33.919939617685088
30
0
11
2.1638655364513393
21
33.919939617685088
31
0
0
SPLINE
5
384
100
AcDbEntity
8
0
100
AcDbSpline
70
0
71
3
72
9
73
5
74
0
42
0.000000001
43
0.0000000001
44
0.0000000001
40
0
40
0
40
0
40
0
40
0.011699031723134452
40
0.02637883948230111
40
0.02637883948230111
40
0.02637883948230111
40
0.02637883948230111
10
2.1638655364513393
20
33.919939617685088
30
0
10
2.1200532996854893
20
33.93119972731381
30
0
10
2.021265982208476
20
33.956588890406834
30
0
10
2.0502460869758665
20
34.058566953906713
30
0
10
2.0663734972476955
20
34.115317682794341
30
0
0
LINE
5
385
100
AcDbEntity
8
0
100
AcDbLine
10
2.0663734972476955
20
34.115317682794334
30
0
11
3.5399815887212749
21
38.451452474168548
31
0
0
SPLINE
5
386
100
AcDbEntity
8
0
100
AcDbSpline
70
0
71
3
72
9
73
5
74
0
42
0.000000001
43
0.0000000001
44
0.0000000001
40
0
40
0
40
0
40
0
40
0.01368272912961967
40
0.041489968679492339
40
0.041489968679492339
40
0.041489968679492339
40
0.041489968679492339
10
3.5399815887212749
20
38.451452474168548
30
0
10
3.526764531781621
20
38.499374661401468
30
0
10
3.4866866150687761
20
38.644688511329427
30
0
10
3.3217853249702349
20
38.627103748491372
30
0
10
3.211265847086906
20
38.615318159631499
30
0
0
SPLINE
5
387
100
AcDbEntity
8
0
100
AcDbSpline
70
0
71
3
72
9
73
5
74
0
42
0.000000001
43
0.0000000001
44
0.0000000001
40
0
40
0
40
0
40
0
40
0.031671221697095089
40
0.043358858986565968
40
0.043358858986565968
40
0.043358858986565968
40
0.043358858986565968
10
3.211265847086906
20
38.615318159631499
30
0
10
3.1046849349237342
20
38.608632694714863
30
0
10
2.9587724473872528
20
38.59948009134034
30
0
10
2.8186060011514646
20
38.636776950068203
30
0
10
2.7808233052492137
20
38.646830539277801
30
0
0
SPLINE
5
388
100
AcDbEntity
8
0
100
AcDbSpline
70
0
71
3
72
9
73
5
74
0
42
0.000000001
43
0.0000000001
44
0.0000000001
40
0
40
0
40
0
40
0
40
0.0068322861229800592
40
0.02415807096430608
40
0.02415807096430608
40
0.02415807096430608
40
0.02415807096430608
10
2.7808233052492137
20
38.646830539277801
30
0
10
2.7832201884805938
20
38.669532929135883
30
0
10
2.7916952543889266
20
38.749805613180285
30
0
10
2.8204609212581966
20
38.825637880990499
30
0
10
2.8410912007093425
20
38.880023579171905
30
0
0
SPLINE
5
389
100
AcDbEntity
8
0
100
AcDbSpline
70
0
71
3
72
9
73
5
74
0
42
0.000000001
43
0.0000000001
44
0.0000000001
40
0
40
0
40
0
40
0
40
0.018124354088976991
40
0.04321423542036576
40
0.04321423542036576
40
0.04321423542036576
40
0.04321423542036576
10
2.8410912007093425
20
38.880023579171905
30
0
10
2.859831168124523
20
38.937461154334294
30
0
10
2.904513221877937
20
39.074410635836216
30
0
10
2.9451956677165287
20
39.212604440660954
30
0
10
2.9688156098127361
20
39.292838792375335
30
0
0
SPLINE
5
390
100
AcDbEntity
8
0
100
AcDbSpline
70
0
71
3
72
9
73
5
74
0
42
0.000000001
43
0.0000000001
44
0.0000000001
40
0
40
0
40
0
40
0
40
0.02508988990843837
40
0.043214243997415358
40
0.043214243997415358
40
0.043214243997415358
40
0.043214243997415358
10
2.9688156098127361
20
39.292838792375335
30
0
10
2.9924356774817107
20
39.373073136209072
30
0
10
3.0331183337710566
20
39.511266907646785
30
0
10
3.0778003633729489
20
39.648216426254152
30
0
10
3.0965403169393535
20
39.705654005578765
30
0
0
SPLINE
5
391
100
AcDbEntity
8
0
100
AcDbSpline
70
0
71
3
72
9
73
5
74
0
42
0.000000001
43
0.0000000001
44
0.0000000001
40
0
40
0
40
0
40
0
40
0.026190692680755228
40
0.088825424796839372
40
0.088825424796839372
40
0.088825424796839372
40
0.088825424796839372
10
3.0965403169393535
20
39.705654005578765
30
0
10
3.1745990646634104
20
39.746479032775341
30
0
10
3.4393343853444645
20
39.88493663018523
30
0
10
3.7428854787188905
20
39.883287650066819
30
0
10
3.9569327682256694
20
39.882124881318816
30
0
0
SPLINE
5
392
100
AcDbEntity
8
0
100
AcDbSpline
70
0
71
3
72
9
73
5
74
0
42
0.000000001
43
0.0000000001
44
0.0000000001
40
0
40
0
40
0
40
0
40
0.038175215181393357
40
0.068646425747727197
40
0.068646425747727197
40
0.068646425747727197
40
0.068646425747727197
10
3.9569327682256694
20
39.882124881318816
30
0
10
3.9929234310837378
20
40.004189753613026
30
0
10
4.0576416089318119
20
40.223686019777745
30
0
10
4.1290727497629751
20
40.441086101077772
30
0
10
4.160780057311058
20
40.537587027124175
30
0
0
SPLINE
5
393
100
AcDbEntity
8
0
100
AcDbSpline
70
0
71
3
72
9
73
5
74
0
42
0.000000001
43
0.0000000001
44
0.0000000001
40
0
40
0
40
0
40
0
40
0.10562260071792705
40
0.1904234232700302
40
0.1904234232700302
40
0.1904234232700302
40
0.1904234232700302
10
4.160780057311058
20
40.537587027124175
30
0
10
4.2824130950354498
20
40.872087602516189
30
0
10
4.5017011950138492
20
41.475147404291462
30
0
10
4.9243444853224814
20
41.955863782100131
30
0
10
5.1125592440366745
20
42.169940094522246
30
0
0
SPLINE
5
394
100
AcDbEntity
8
0
100
AcDbSpline
70
0
71
3
72
9
73
5
74
0
42
0.000000001
43
0.0000000001
44
0.0000000001
40
0
40
0
40
0
40
0
40
0.071066780050485334
40
0.14836748163553468
40
0.14836748163553468
40
0.14836748163553468
40
0.14836748163553468
10
5.1125592440366745
20
42.169940094522246
30
0
10
5.2988246710916549
20
42.318674429763512
30
0
10
5.6876945806089108
20
42.629189958070903
30
0
10
6.1524752148404218
20
42.807914963796861
30
0
10
6.3946298211812973
20
42.901032189897307
30
0
0
SPLINE
5
395
100
AcDbEntity
8
0
100
AcDbSpline
70
0
71
3
72
9
73
5
74
0
42
0.000000001
43
0.0000000001
44
0.0000000001
40
0
40
0
40
0
40
0
40
0.070659299711585258
40
0.13740521252866045
40
0.13740521252866045
40
0.13740521252866045
40
0.13740521252866045
10
6.3946298211812973
20
42.901032189897307
30
0
10
6.6206781985950318
20
42.970868593837459
30
0
10
7.0602555149153687
20
43.106673589992269
30
0
10
7.519632285844259
20
43.129459799172452
30
0
10
7.7427790015935898
20
43.140528420976409
30
0
0
SPLINE
5
396
100
AcDbEntity
8
0
100
AcDbSpline
70
0
71
3
72
9
73
5
74
0
42
0.000000001
43
0.0000000001
44
0.0000000001
40
0
40
0
40
0
40
0
40
0.0050739290718084442
40
0.010544742711944432
40
0.010544742711944432
40
0.010544742711944432
40
0.010544742711944432
10
7.7427790015935898
20
43.140528420976409
30
0
10
7.7612338191103678
20
43.137228522855452
30
0
10
7.7995869966491611
20
43.130370607388251
30
0
10
7.8047825191761087
20
43.091412618292317
30
0
10
7.807478055357933
20
43.071200470498809
30
0
0
SPLINE
5
397
100
AcDbEntity
8
0
100
AcDbSpline
70
0
71
3
72
9
73
5
74
0
42
0.000000001
43
0.0000000001
44
0.0000000001
40
0
40
0
40
0
40
0
40
0.0094181505784860838
40
0.018137549232417994
40
0.018137549232417994
40
0.018137549232417994
40
0.018137549232417994
10
21.936363860964772
20
15.476182050496398
30
0
10
21.971944468332133
20
15.472276180376255
30
0
10
22.040465884768064
20
15.464754224657966
30
0
10
22.046597994306691
20
15.396803631976317
30
0
10
22.049545928835865
20
15.364137239247619
30
0
0
SPLINE
5
398
100
AcDbEntity
8
0
100
AcDbSpline
70
0
71
3
72
9
73
5
74
0
42
0.000000001
43
0.0000000001
44
0.0000000001
40
0
40
0
40
0
40
0
40
0.04090553413892814
40
0.11998623863772928
40
0.11998623863772928
40
0.11998623863772928
40
0.11998623863772928
10
22.049545928835865
20
15.364137239247619
30
0
10
22.017274021133911
20
15.231601619143412
30
0
10
21.922612384259288
20
14.842841250245327
30
0
10
21.790871802897087
20
14.46482284423416
30
0
10
21.704044029116627
20
14.215677923947631
30
0
0
SPLINE
5
399
100
AcDbEntity
8
0
100
AcDbSpline
70
0
71
3
72
9
73
5
74
0
42
0.000000001
43
0.0000000001
44
0.0000000001
40
0
40
0
40
0
40
0
40
0.091517615021002363
40
0.1441345600190149
40
0.1441345600190149
40
0.1441345600190149
40
0.1441345600190149
10
21.704044029116627
20
14.215677923947631
30
0
10
21.608530112052271
20
13.924843059924978
30
0
10
21.458101624502586
20
13.466796211190175
30
0
10
21.222930219089037
20
13.04685170929174
30
0
10
21.137079879641529
20
12.893549151212035
30
0
0
SPLINE
5
400
100
AcDbEntity
8
0
100
AcDbSpline
70
0
71
3
72
9
73
5
74
0
42
0.000000001
43
0.0000000001
44
0.0000000001
40
0
40
0
40
0
40
0
40
0.072834173050910361
40
0.19851650904046325
40
0.19851650904046325
40
0.19851650904046325
40
0.19851650904046325
10
21.137079879641529
20
12.893549151212035
30
0
10
20.980535623122218
20
12.707920469485474
30
0
10
20.553859270349903
20
12.2019717323675
30
0
10
20.096687791159606
20
11.723244927168954
30
0
10
19.807248994708058
20
11.42015928724414
30
0
0
SPLINE
5
401
100
AcDbEntity
8
0
100
AcDbSpline
70
0
71
3
72
9
73
5
74
0
42
0.000000001
43
0.0000000001
44
0.0000000001
40
0
40
0
40
0
40
0
40
0.12702147973917202
40
0.17927239010517557
40
0.17927239010517557
40
0.17927239010517557
40
0.17927239010517557
10
19.807248994708058
20
11.42015928724414
30
0
10
19.521610161803061
20
11.105812541164957
30
0
10
19.118472390247572
20
10.662157715169247
30
0
10
18.646357681550718
20
10.294751071762256
30
0
10
18.5087546557188
20
10.187666363507567
30
0
0
SPLINE
5
402
100
AcDbEntity
8
0
100
AcDbSpline
70
0
71
3
72
9
73
5
74
0
42
0.000000001
43
0.0000000001
44
0.0000000001
40
0
40
0
40
0
40
0
40
0.013753359573527116
40
0.045221209855526009
40
0.045221209855526009
40
0.045221209855526009
40
0.045221209855526009
10
18.5087546557188
20
10.187666363507567
30
0
10
18.463008520694629
20
10.184501461428646
30
0
10
18.312594684646207
20
10.174095225750881
30
0
10
18.161767387512029
20
10.175490771295594
30
0
10
18.056811973452565
20
10.176461882382689
30
0
0
SPLINE
5
403
100
AcDbEntity
8
0
100
AcDbSpline
70
0
71
3
72
9
73
5
74
0
42
0.000000001
43
0.0000000001
44
0.0000000001
40
0
40
0
40
0
40
0
40
0.021616365354165834
40
0.031593640881335726
40
0.031593640881335726
40
0.031593640881335726
40
0.031593640881335726
10
18.056811973452565
20
10.176461882382689
30
0
10
17.984677931157474
20
10.175638254909053
30
0
10
17.879249613757622
20
10.174434472950541
30
0
10
17.774369459751348
20
10.184490628420676
30
0
10
17.741248294711109
20
10.187666363507567
30
0
0
SPLINE
5
404
100
AcDbEntity
8
0
100
AcDbSpline
70
0
71
3
72
9
73
5
74
0
42
0.000000001
43
0.0000000001
44
0.0000000001
40
0
40
0
40
0
40
0
40
0.056222528947103209
40
0.204861680670753
40
0.204861680670753
40
0.204861680670753
40
0.204861680670753
10
17.741248294711109
20
10.187666363507567
30
0
10
17.654384499953245
20
10.354176847658223
30
0
10
17.337873248737971
20
10.960901914481482
30
0
10
17.178542723444032
20
11.629633310017741
30
0
10
17.062939092516896
20
12.114837116986571
30
0
0
SPLINE
5
405
100
AcDbEntity
8
0
100
AcDbSpline
70
0
71
3
72
9
73
5
74
0
42
0.000000001
43
0.0000000001
44
0.0000000001
40
0
40
0
40
0
40
0
40
0.072731850875333307
40
0.14592302624641962
40
0.14592302624641962
40
0.14592302624641962
40
0.14592302624641962
10
17.062939092516896
20
12.114837116986571
30
0
10
16.896253480117132
20
11.938789283302512
30
0
10
16.561829583290919
20
11.585581818538033
30
0
10
16.226844634793906
20
11.232906414176549
30
0
10
16.058824941515919
20
11.056013650685607
30
0
0
SPLINE
5
406
100
AcDbEntity
8
0
100
AcDbSpline
70
0
71
3
72
9
73
5
74
0
42
0.000000001
43
0.0000000001
44
0.0000000001
40
0
40
0
40
0
40
0
40
0.090353027656238163
40
0.13026709856953791
40
0.13026709856953791
40
0.13026709856953791
40
0.13026709856953791
10
16.058824941515919
20
11.056013650685607
30
0
10
15.852892037098329
20
10.834382695708884
30
0
10
15.555986856891844
20
10.514844743224781
30
0
10
15.200354346836551
20
10.264402356620181
30
0
10
15.091387912631031
20
10.187666363507567
30
0
0
SPLINE
5
407
100
AcDbEntity
8
0
100
AcDbSpline
70
0
71
3
72
9
73
5
74
0
42
0.000000001
43
0.0000000001
44
0.0000000001
40
0
40
0
40
0
40
0
40
0.011796876646360208
40
0.037382750435785456
40
0.037382750435785456
40
0.037382750435785456
40
0.037382750435785456
10
15.091387912631031
20
10.187666363507567
30
0
10
15.052180266203635
20
10.184491317727979
30
0
10
14.927936391701294
20
10.174430015269834
30
0
10
14.80322892832681
20
10.17563627921689
30
0
10
14.717875406146046
20
10.176461882382689
30
0
0
SPLINE
5
408
100
AcDbEntity
8
0
100
AcDbSpline
70
0
71
3
72
9
73
5
74
0
42
0.000000001
43
0.0000000001
44
0.0000000001
40
0
40
0
40
0
40
0
40
0.0258177207906739
40
0.0371912204748404
40
0.0371912204748404
40
0.0371912204748404
40
0.0371912204748404
10
14.717875406146046
20
10.176461882382689
30
0
10
14.631741494264997
20
10.175512033706477
30
0
10
14.507662946313326
20
10.174143747488602
30
0
10
14.384081835803777
20
10.184499466457256
30
0
10
14.346289321780201
20
10.187666363507567
30
0
0
SPLINE
5
409
100
AcDbEntity
8
0
100
AcDbSpline
70
0
71
3
72
9
73
5
74
0
42
0.000000001
43
0.0000000001
44
0.0000000001
40
0
40
0
40
0
40
0
40
0.037959874352169569
40
0.13152233054675508
40
0.13152233054675508
40
0.13152233054675508
40
0.13152233054675508
10
14.346289321780201
20
10.187666363507567
30
0
10
14.276665175208521
20
10.294112931505559
30
0
10
14.035433343551709
20
10.662926078037993
30
0
10
13.94567840729014
20
11.098848196065614
30
0
10
13.881828472018238
20
11.408954806119262
30
0
0
SPLINE
5
410
100
AcDbEntity
8
0
100
AcDbSpline
70
0
71
3
72
9
73
5
74
0
42
0.000000001
43
0.0000000001
44
0.0000000001
40
0
40
0
40
0
40
0
40
0.095415031289433447
40
0.15162929950223011
40
0.15162929950223011
40
0.15162929950223011
40
0.15162929950223011
10
13.881828472018238
20
11.408954806119262
30
0
10
13.800388460393664
20
11.716885239884123
30
0
10
13.670967636994998
20
12.206234510499037
30
0
10
13.604353967041094
20
12.707655067577956
30
0
10
13.579657956957814
20
12.893549151212035
30
0
0
SPLINE
5
411
100
AcDbEntity
8
0
100
AcDbSpline
70
0
71
3
72
9
73
5
74
0
42
0.000000001
43
0.0000000001
44
0.0000000001
40
0
40
0
40
0
40
0
40
0.050388772167182509
40
0.13638495566980333
40
0.13638495566980333
40
0.13638495566980333
40
0.13638495566980333
10
13.579657956957814
20
12.893549151212035
30
0
10
13.599474593890829
20
13.06073807103739
30
0
10
13.653111367191567
20
13.51326057631316
30
0
10
13.804602369827588
20
13.944048723074786
30
0
10
13.900123521685597
20
14.215677923947631
30
0
0
SPLINE
5
412
100
AcDbEntity
8
0
100
AcDbSpline
70
0
71
3
72
9
73
5
74
0
42
0.000000001
43
0.0000000001
44
0.0000000001
40
0
40
0
40
0
40
0
40
0.073684225336272086
40
0.1209133355642676
40
0.1209133355642676
40
0.1209133355642676
40
0.1209133355642676
10
13.900123521685597
20
14.215677923947631
30
0
10
13.978709721689695
20
14.448607471540523
30
0
10
14.107667032816359
20
14.830837025049419
30
0
10
14.273913214584312
20
15.19822531354863
30
0
10
14.338849470019337
20
15.341728276997863
30
0
0
SPLINE
5
413
100
AcDbEntity
8
0
100
AcDbSpline
70
0
71
3
72
9
73
5
74
0
42
0.000000001
43
0.0000000001
44
0.0000000001
40
0
40
0
40
0
40
0
40
0.012251090484240168
40
0.022858190502015732
40
0.022858190502015732
40
0.022858190502015732
40
0.022858190502015732
10
14.338849470019337
20
15.341728276997863
30
0
10
14.362360025428828
20
15.377618899548917
30
0
10
14.406226222895068
20
15.444583933279041
30
0
10
14.484448932715368
20
15.458513638104254
30
0
10
14.520747348666188
20
15.46497756937152
30
0
0
SPLINE
5
414
100
AcDbEntity
8
0
100
AcDbSpline
70
0
71
3
72
9
73
5
74
0
42
0.000000001
43
0.0000000001
44
0.0000000001
40
0
40
0
40
0
40
0
40
0.020915000320767749
40
0.050053286750852063
40
0.050053286750852063
40
0.050053286750852063
40
0.050053286750852063
10
14.520747348666188
20
15.46497756937152
30
0
10
14.59046251376601
20
15.464268720008484
30
0
10
14.75730320686222
20
15.462572318388251
30
0
10
14.924062260510418
20
15.457010736874288
30
0
10
15.021140262484547
20
15.453773088246642
30
0
0
SPLINE
5
415
100
AcDbEntity
8
0
100
AcDbSpline
70
0
71
3
72
9
73
5
74
0
42
0.000000001
43
0.0000000001
44
0.0000000001
40
0
40
0
40
0
40
0
40
0.029138286430084318
40
0.050053405949447689
40
0.050053405949447689
40
0.050053405949447689
40
0.050053405949447689
10
15.021140262484547
20
15.453773088246642
30
0
10
15.11821826445173
20
15.450535438500683
30
0
10
15.28497771521366
20
15.444973841821154
30
0
10
15.451818805873941
20
15.443277453344475
30
0
10
15.521534368395802
20
15.442568607121764
30
0
0
SPLINE
5
416
100
AcDbEntity
8
0
100
AcDbSpline
70
0
71
3
72
9
73
5
74
0
42
0.000000001
43
0.0000000001
44
0.0000000001
40
0
40
0
40
0
40
0
40
0.0078235628925439303
40
0.020967610071596483
40
0.020967610071596483
40
0.020967610071596483
40
0.020967610071596483
10
15.521534368395802
20
15.442568607121764
30
0
10
15.547928672011402
20
15.430217238224476
30
0
10
15.618666962726831
20
15.397114840960487
30
0
10
15.588124651089071
20
15.318303758873606
30
0
10
15.568978473544117
20
15.268899149686156
30
0
0
SPLINE
5
417
100
AcDbEntity
8
0
100
AcDbSpline
70
0
71
3
72
9
73
5
74
0
42
0.000000001
43
0.0000000001
44
0.0000000001
40
0
40
0
40
0
40
0
40
0.016438607060962548
40
0.039724120399651376
40
0.039724120399651376
40
0.039724120399651376
40
0.039724120399651376
10
15.568978473544117
20
15.268899149686156
30
0
10
15.550694881427411
20
15.217241815289629
30
0
10
15.506512329226442
20
15.092411155156274
30
0
10
15.459003445127736
20
14.968805251417345
30
0
10
15.431154653429981
20
14.896349854260741
30
0
0
SPLINE
5
418
100
AcDbEntity
8
0
100
AcDbSpline
70
0
71
3
72
9
73
5
74
0
42
0.000000001
43
0.0000000001
44
0.0000000001
40
0
40
0
40
0
40
0
40
0.023285513338688828
40
0.03972406428450756
40
0.03972406428450756
40
0.03972406428450756
40
0.03972406428450756
10
15.431154653429981
20
14.896349854260741
30
0
10
15.403305887375137
20
14.823894447926824
30
0
10
15.355797114134187
20
14.700288703140147
30
0
10
15.311614439508629
20
14.575458285545116
30
0
10
15.293330833315846
20
14.523801154881774
30
0
0
SPLINE
5
419
100
AcDbEntity
8
0
100
AcDbSpline
70
0
71
3
72
9
73
5
74
0
42
0.000000001
43
0.0000000001
44
0.0000000001
40
0
40
0
40
0
40
0
40
0.087424590486901349
40
0.14390258886203783
40
0.14390258886203783
40
0.14390258886203783
40
0.14390258886203783
10
15.293330833315846
20
14.523801154881774
30
0
10
15.199069796656152
20
14.247865303383811
30
0
10
15.04391428344638
20
13.793669485373581
30
0
10
14.926947239336958
20
13.328296207376688
30
0
10
14.881040737032887
20
13.145649380475341
30
0
0
SPLINE
5
420
100
AcDbEntity
8
0
100
AcDbSpline
70
0
71
3
72
9
73
5
74
0
42
0.000000001
43
0.0000000001
44
0.0000000001
40
0
40
0
40
0
40
0
40
0.054944255493125607
40
0.15347671592235584
40
0.15347671592235584
40
0.15347671592235584
40
0.15347671592235584
10
14.881040737032887
20
13.145649380475341
30
0
10
14.89383647570043
20
12.962020593696472
30
0
10
14.929579028418086
20
12.449087205288773
30
0
10
15.129570894650008
20
11.972578031082131
30
0
10
15.257966205477711
20
11.666657871991454
30
0
0
SPLINE
5
421
100
AcDbEntity
8
0
100
AcDbSpline
70
0
71
3
72
9
73
5
74
0
42
0.000000001
43
0.0000000001
44
0.0000000001
40
0
40
0
40
0
40
0
40
0.011065554179521792
40
0.015339253611507266
40
0.015339253611507266
40
0.015339253611507266
40
0.015339253611507266
10
15.257966205477711
20
11.666657871991454
30
0
10
15.270415156051868
20
11.631384312494601
30
0
10
15.287672096549933
20
11.582487522860319
30
0
10
15.320714831639414
20
11.54316095142989
30
0
10
15.329920932650563
20
11.532204098492919
30
0
0
SPLINE
5
422
100
AcDbEntity
8
0
100
AcDbSpline
70
0
71
3
72
9
73
5
74
0
42
0.000000001
43
0.0000000001
44
0.0000000001
40
0
40
0
40
0
40
0
40
0.0053776421640633707
40
0.01889359398298588
40
0.01889359398298588
40
0.01889359398298588
40
0.01889359398298588
10
15.329920932650563
20
11.532204098492919
30
0
10
15.344841918877812
20
11.542191742699274
30
0
10
15.397264718127499
20
11.577281934408646
30
0
10
15.441183940649461
20
11.622853068555422
30
0
10
15.472602531313893
20
11.655453390866576
30
0
0
SPLINE
5
423
100
AcDbEntity
8
0
100
AcDbSpline
70
0
71
3
72
9
73
5
74
0
42
0.000000001
43
0.0000000001
44
0.0000000001
40
0
40
0
40
0
40
0
40
0.12480456378375075
40
0.1959880337756863
40
0.1959880337756863
40
0.1959880337756863
40
0.1959880337756863
10
15.472602531313893
20
11.655453390866576
30
0
10
15.77373917061699
20
11.943706273493326
30
0
10
16.246631956309464
20
12.396366929349449
30
0
10
16.647415477019813
20
12.913138424404963
30
0
10
16.792981311678883
20
13.100831455975829
30
0
0
SPLINE
5
424
100
AcDbEntity
8
0
100
AcDbSpline
70
0
71
3
72
9
73
5
74
0
42
0.000000001
43
0.0000000001
44
0.0000000001
40
0
40
0
40
0
40
0
40
0.047864797382419222
40
0.12963023859999001
40
0.12963023859999001
40
0.12963023859999001
40
0.12963023859999001
10
16.792981311678883
20
13.100831455975829
30
0
10
16.861322170277923
20
13.245128115991688
30
0
10
17.046406873249534
20
13.635920754631542
30
0
10
17.183223388667919
20
14.046400177655904
30
0
10
17.269521638751026
20
14.305313772946654
30
0
0
SPLINE
5
425
100
AcDbEntity
8
0
100
AcDbSpline
70
0
71
3
72
9
73
5
74
0
42
0.000000001
43
0.0000000001
44
0.0000000001
40
0
40
0
40
0
40
0
40
0.024823565219976716
40
0.05908175060250366
40
0.05908175060250366
40
0.05908175060250366
40
0.05908175060250366
10
17.269521638751026
20
14.305313772946654
30
0
10
17.294873855230605
20
14.384086370351293
30
0
10
17.355213831297437
20
14.571570436919895
30
0
10
17.408490696639866
20
14.761190219152947
30
0
10
17.439382955431935
20
14.87114006975299
30
0
0
SPLINE
5
426
100
AcDbEntity
8
0
100
AcDbSpline
70
0
71
3
72
9
73
5
74
0
42
0.000000001
43
0.0000000001
44
0.0000000001
40
0
40
0
40
0
40
0
40
0.034110880278936113
40
0.058492296335044866
40
0.058492296335044866
40
0.058492296335044866
40
0.058492296335044866
10
17.439382955431935
20
14.87114006975299
30
0
10
17.47012242605367
20
14.980622806843854
30
0
10
17.522833532014175
20
15.168360462662868
30
0
10
17.58252569782897
20
15.353988543861004
30
0
10
17.607407256960865
20
15.431364125996886
30
0
0
SPLINE
5
427
100
AcDbEntity
8
0
100
AcDbSpline
70
0
71
3
72
9
73
5
74
0
42
0.000000001
43
0.0000000001
44
0.0000000001
40
0
40
0
40
0
40
0
40
0.010838447078999273
40
0.019982279002254792
40
0.019982279002254792
40
0.019982279002254792
40
0.019982279002254792
10
17.607407256960865
20
15.431364125996886
30
0
10
17.622161817693925
20
15.467231281745562
30
0
10
17.649364030979161
20
15.533357684168656
30
0
10
17.718467371059742
20
15.547940407289714
30
0
10
17.750088855624195
20
15.554613418370543
30
0
0
LINE
5
428
100
AcDbEntity
8
0
100
AcDbLine
10
17.750088855624199
20
15.554613418370543
30
0
11
18.82011620700359
21
15.554613418370543
31
0
0
SPLINE
5
429
100
AcDbEntity
8
0
100
AcDbSpline
70
0
71
3
72
9
73
5
74
0
42
0.000000001
43
0.0000000001
44
0.0000000001
40
0
40
0
40
0
40
0
40
0.0065847824365295399
40
0.017607370444822038
40
0.017607370444822038
40
0.017607370444822038
40
0.017607370444822038
10
18.82011620700359
20
15.554613418370543
30
0
10
18.842370043857819
20
15.544273098497733
30
0
10
18.90187566201422
20
15.516623613602299
30
0
10
18.87630332947036
20
15.450407720033182
30
0
10
18.860294505953785
20
15.40895516374713
30
0
0
SPLINE
5
430
100
AcDbEntity
8
0
100
AcDbSpline
70
0
71
3
72
9
73
5
74
0
42
0.000000001
43
0.0000000001
44
0.0000000001
40
0
40
0
40
0
40
0
40
0.023880216662915985
40
0.057663760217723153
40
0.057663760217723153
40
0.057663760217723153
40
0.057663760217723153
10
18.860294505953785
20
15.40895516374713
30
0
10
18.833717679277644
20
15.333918503526782
30
0
10
18.769542392158872
20
15.152726848377176
30
0
10
18.700312249671853
20
14.973401075504146
30
0
10
18.659752294421192
20
14.868339247494994
30
0
0
SPLINE
5
431
100
AcDbEntity
8
0
100
AcDbSpline
70
0
71
3
72
9
73
5
74
0
42
0.000000001
43
0.0000000001
44
0.0000000001
40
0
40
0
40
0
40
0
40
0.033783599276301049
40
0.057663815939217031
40
0.057663815939217031
40
0.057663815939217031
40
0.057663815939217031
10
18.659752294421192
20
14.868339247494994
30
0
10
18.619192357139049
20
14.763277213965221
30
0
10
18.54996229260934
20
14.583951212785983
30
0
10
18.485786919495929
20
14.402759391648058
30
0
10
18.4592100828886
20
14.32772273519641
30
0
0
SPLINE
5
432
100
AcDbEntity
8
0
100
AcDbSpline
70
0
71
3
72
9
73
5
74
0
42
0.000000001
43
0.0000000001
44
0.0000000001
40
0
40
0
40
0
40
0
40
0.082348810681997661
40
0.11999928582268579
40
0.11999928582268579
40
0.11999928582268579
40
0.11999928582268579
10
18.4592100828886
20
14.32772273519641
30
0
10
18.36854358950271
20
14.06843884434471
30
0
10
18.236423715952029
20
13.690608472905804
30
0
10
18.135221035787893
20
13.303516579289861
30
0
10
18.103468105196949
20
13.182064242154418
30
0
0
SPLINE
5
433
100
AcDbEntity
8
0
100
AcDbSpline
70
0
71
3
72
9
73
5
74
0
42
0.000000001
43
0.0000000001
44
0.0000000001
40
0
40
0
40
0
40
0
40
0.030070360642040096
40
0.091055527313227066
40
0.091055527313227066
40
0.091055527313227066
40
0.091055527313227066
10
18.103468105196949
20
13.182064242154418
30
0
10
18.11705110085974
20
13.082561203287998
30
0
10
18.158181529832358
20
12.781257810851017
30
0
10
18.261794452345729
20
12.494542406133725
30
0
10
18.33119003474712
20
12.3025124738515
30
0
0
SPLINE
5
434
100
AcDbEntity
8
0
100
AcDbSpline
70
0
71
3
72
9
73
5
74
0
42
0.000000001
43
0.0000000001
44
0.0000000001
40
0
40
0
40
0
40
0
40
0.058076892667789114
40
0.079619161624668672
40
0.079619161624668672
40
0.079619161624668672
40
0.079619161624668672
10
18.33119003474712
20
12.3025124738515
30
0
10
18.385460956587796
20
12.114435724717275
30
0
10
18.459862411263916
20
11.856596291522774
30
0
10
18.609883556155303
20
11.636557204053837
30
0
10
18.650474235415455
20
11.577022022992431
30
0
0
SPLINE
5
435
100
AcDbEntity
8
0
100
AcDbSpline
70
0
71
3
72
9
73
5
74
0
42
0.000000001
43
0.0000000001
44
0.0000000001
40
0
40
0
40
0
40
0
40
0.0056197080458247495
40
0.019927205510189651
40
0.019927205510189651
40
0.019927205510189651
40
0.019927205510189651
10
18.650474235415455
20
11.577022022992431
30
0
10
18.665729259227628
20
11.587944742025122
30
0
10
18.71982281570585
20
11.626676161009819
30
0
10
18.764750174730931
20
11.676036009835675
30
0
10
18.797007486224171
20
11.711475796490966
30
0
0
SPLINE
5
436
100
AcDbEntity
8
0
100
AcDbSpline
70
0
71
3
72
9
73
5
74
0
42
0.000000001
43
0.0000000001
44
0.0000000001
40
0
40
0
40
0
40
0
40
0.1242183974209648
40
0.19196608088147121
40
0.19196608088147121
40
0.19196608088147121
40
0.19196608088147121
10
18.797007486224171
20
11.711475796490966
30
0
10
19.093819990431037
20
12.001946880094557
30
0
10
19.552511572130598
20
12.450838483001082
30
0
10
19.92442058908421
20
12.9726860855535
30
0
10
20.055672809481617
20
13.156853861600219
30
0
0
SPLINE
5
437
100
AcDbEntity
8
0
100
AcDbSpline
70
0
71
3
72
9
73
5
74
0
42
0.000000001
43
0.0000000001
44
0.0000000001
40
0
40
0
40
0
40
0
40
0.044407541464396384
40
0.11005676106154641
40
0.11005676106154641
40
0.11005676106154641
40
0.11005676106154641
10
20.055672809481617
20
13.156853861600219
30
0
10
20.116191042843639
20
13.292019728699302
30
0
10
20.266175494343408
20
13.627006018154832
30
0
10
20.384125282880809
20
13.974677374272224
30
0
10
20.454482719302174
20
14.182064480572997
30
0
0
SPLINE
5
438
100
AcDbEntity
8
0
100
AcDbSpline
70
0
71
3
72
9
73
5
74
0
42
0.000000001
43
0.0000000001
44
0.0000000001
40
0
40
0
40
0
40
0
40
0.027181749027739694
40
0.063799072651979413
40
0.063799072651979413
40
0.063799072651979413
40
0.063799072651979413
10
20.454482719302174
20
14.182064480572997
30
0
10
20.481790573846212
20
14.268473124382158
30
0
10
20.545885632418294
20
14.471285362053607
30
0
10
20.598931502945721
20
14.677279618363858
30
0
10
20.629377052187916
20
14.79550952413684
30
0
0
SPLINE
5
439
100
AcDbEntity
8
0
100
AcDbSpline
70
0
71
3
72
9
73
5
74
0
42
0.000000001
43
0.0000000001
44
0.0000000001
40
0
40
0
40
0
40
0
40
0.035583741923721358
40
0.059659218369399414
40
0.059659218369399414
40
0.059659218369399414
40
0.059659218369399414
10
20.629377052187916
20
14.79550952413684
30
0
10
20.658762520868898
20
14.910451765762714
30
0
10
20.708029798511696
20
15.103162366792983
30
0
10
20.767058416009615
20
15.293092983162843
30
0
10
20.790879413485523
20
15.369739479810058
30
0
0
SPLINE
5
440
100
AcDbEntity
8
0
100
AcDbSpline
70
0
71
3
72
9
73
5
74
0
42
0.000000001
43
0.0000000001
44
0.0000000001
40
0
40
0
40
0
40
0
40
0.0080127196510692382
40
0.017370617100466161
40
0.017370617100466161
40
0.017370617100466161
40
0.017370617100466161
10
20.790879413485523
20
15.369739479810058
30
0
10
20.805173423662453
20
15.394210376276991
30
0
10
20.836161126767784
20
15.447260350710524
30
0
10
20.898152676596048
20
15.45149291925842
30
0
10
20.931548759341236
20
15.453773088246642
30
0
0
SPLINE
5
441
100
AcDbEntity
8
0
100
AcDbSpline
70
0
71
3
72
9
73
5
74
0
42
0.000000001
43
0.0000000001
44
0.0000000001
40
0
40
0
40
0
40
0
40
0.020965302138922715
40
0.05025468340349773
40
0.05025468340349773
40
0.05025468340349773
40
0.05025468340349773
10
20.931548759341236
20
15.453773088246642
30
0
10
21.001431559787168
20
15.454483460275235
30
0
10
21.168943479648323
20
15.456186250970021
30
0
10
21.336374399232984
20
15.461740467049001
30
0
10
21.433956310153004
20
15.46497756937152
30
0
0
SPLINE
5
442
100
AcDbEntity
8
0
100
AcDbSpline
70
0
71
3
72
9
73
5
74
0
42
0.000000001
43
0.0000000001
44
0.0000000001
40
0
40
0
40
0
40
0
40
0.029289142944138584
40
0.050254683480355181
40
0.050254683480355181
40
0.050254683480355181
40
0.050254683480355181
10
21.433956310153004
20
15.46497756937152
30
0
10
21.531537426245293
20
15.468214675561079
30
0
10
21.698968344665502
20
15.47376894347731
30
0
10
21.866480265556113
20
15.475471689166795
30
0
10
21.936363860964772
20
15.476182050496398
30
0
0
SPLINE
5
443
100
AcDbEntity
8
0
100
AcDbSpline
70
0
71
3
72
9
73
5
74
0
42
0.000000001
43
0.0000000001
44
0.0000000001
40
0
40
0
40
0
40
0
40
0.054539755413060838
40
0.08619864643810303
40
0.08619864643810303
40
0.08619864643810303
40
0.08619864643810303
10
3.4627976864576304
20
13.588226980954467
30
0
10
3.6140803937790142
20
13.486213358066298
30
0
10
3.8531787267625948
20
13.324983514906759
30
0
10
4.0553766460397451
20
13.120069513384024
30
0
10
4.1296395510435069
20
13.044809050351439
30
0
0
SPLINE
5
444
100
AcDbEntity
8
0
100
AcDbSpline
70
0
71
3
72
9
73
5
74
0
42
0.000000001
43
0.0000000001
44
0.0000000001
40
0
40
0
40
0
40
0
40
0.052845594132712212
40
0.11577494182478092
40
0.11577494182478092
40
0.11577494182478092
40
0.11577494182478092
10
4.1296395510435069
20
13.044809050351439
30
0
10
4.2074980898331455
20
12.880405260960266
30
0
10
4.3780717761899632
20
12.520226906171846
30
0
10
4.2680487555436395
20
12.134190577649671
30
0
10
4.2082458585500682
20
11.924360937863646
30
0
0
SPLINE
5
445
100
AcDbEntity
8
0
100
AcDbSpline
70
0
71
3
72
9
73
5
74
0
42
0.000000001
43
0.0000000001
44
0.0000000001
40
0
40
0
40
0
40
0
40
0.086253508732202624
40
0.17755202075661924
40
0.17755202075661924
40
0.17755202075661924
40
0.17755202075661924
10
4.2082458585500682
20
11.924360937863646
30
0
10
4.0867988872200067
20
11.657654241959881
30
0
10
3.8368014611283643
20
11.10864106553295
30
0
10
3.3413413750838821
20
10.763103379470172
30
0
10
3.0865722745656932
20
10.585425443440734
30
0
0
SPLINE
5
446
100
AcDbEntity
8
0
100
AcDbSpline
70
0
71
3
72
9
73
5
74
0
42
0.000000001
43
0.0000000001
44
0.0000000001
40
0
40
0
40
0
40
0
40
0.086002041785729899
40
0.17093823160789168
40
0.17093823160789168
40
0.17093823160789168
40
0.17093823160789168
10
3.0865722745656932
20
10.585425443440734
30
0
10
2.8292865193210885
20
10.451439921999519
30
0
10
2.3179036369357204
20
10.185129406334264
30
0
10
1.7427861359909327
20
10.145655171666947
30
0
10
1.4570204019546473
20
10.126041121274291
30
0
0
SPLINE
5
447
100
AcDbEntity
8
0
100
AcDbSpline
70
0
71
3
72
9
73
5
74
0
42
0.000000001
43
0.0000000001
44
0.0000000001
40
0
40
0
40
0
40
0
40
0.026191662722413904
40
0.037599490911486941
40
0.037599490911486941
40
0.037599490911486941
40
0.037599490911486941
10
1.4570204019546473
20
10.126041121274291
30
0
10
1.369543807067872
20
10.124569694142817
30
0
10
1.2439666159871978
20
10.122457384143907
30
0
10
1.1195164166966041
20
10.138101849013877
30
0
10
1.0817577540874446
20
10.142848439008056
30
0
0
SPLINE
5
448
100
AcDbEntity
8
0
100
AcDbSpline
70
0
71
3
72
9
73
5
74
0
42
0.000000001
43
0.0000000001
44
0.0000000001
40
0
40
0
40
0
40
0
40
0.0099632762175569448
40
0.028711463279255982
40
0.028711463279255982
40
0.028711463279255982
40
0.028711463279255982
10
1.0817577540874446
20
10.142848439008056
30
0
10
1.0647361621883884
20
10.172819980138442
30
0
10
1.0156845450202292
20
10.259189843203302
30
0
10
1.0544915151111627
20
10.35487665951238
30
0
10
1.0798319280147517
20
10.417358822614013
30
0
0
SPLINE
5
449
100
AcDbEntity
8
0
100
AcDbSpline
70
0
71
3
72
9
73
5
74
0
42
0.000000001
43
0.0000000001
44
0.0000000001
40
0
40
0
40
0
40
0
40
0.016041130196456435
40
0.038186246379774885
40
0.038186246379774885
40
0.038186246379774885
40
0.038186246379774885
10
1.0798319280147517
20
10.417358822614013
30
0
10
1.0953101594612051
20
10.468560395837695
30
0
10
1.1321564135778899
20
10.59044681320394
30
0
10
1.1590966834519572
20
10.714920715338392
30
0
10
1.1747199892997706
20
10.787106103688537
30
0
0
SPLINE
5
450
100
AcDbEntity
8
0
100
AcDbSpline
70
0
71
3
72
9
73
5
74
0
42
0.000000001
43
0.0000000001
44
0.0000000001
40
0
40
0
40
0
40
0
40
0.021997839143598465
40
0.037595226706599739
40
0.037595226706599739
40
0.037595226706599739
40
0.037595226706599739
10
1.1747199892997706
20
10.787106103688537
30
0
10
1.1901945170578074
20
10.858820503502427
30
0
10
1.2166411319022594
20
10.981383410773958
30
0
10
1.2527156635511645
20
11.101442152847532
30
0
10
1.2676821500062907
20
11.151251740247069
30
0
0
SPLINE
5
451
100
AcDbEntity
8
0
100
AcDbSpline
70
0
71
3
72
9
73
5
74
0
42
0.000000001
43
0.0000000001
44
0.0000000001
40
0
40
0
40
0
40
0
40
0.0075557066901231311
40
0.016981479127586907
40
0.016981479127586907
40
0.016981479127586907
40
0.016981479127586907
10
1.2676821500062907
20
11.151251740247069
30
0
10
1.2810727984817873
20
11.173711277574462
30
0
10
1.3111683311589295
20
11.224189171963737
30
0
10
1.3688217594780179
20
11.238529859967182
30
0
10
1.4008229821920359
20
11.246489829808532
30
0
0
SPLINE
5
452
100
AcDbEntity
8
0
100
AcDbSpline
70
0
71
3
72
9
73
5
74
0
42
0.000000001
43
0.0000000001
44
0.0000000001
40
0
40
0
40
0
40
0
40
0.0091510635320881384
40
0.020797317235096896
40
0.020797317235096896
40
0.020797317235096896
40
0.020797317235096896
10
1.4008229821920359
20
11.246489829808532
30
0
10
1.4311867697677008
20
11.250391580957299
30
0
10
1.5001935382657994
20
11.25925896081198
30
0
10
1.5693686383603367
20
11.251073558878208
30
0
10
1.6081058830022776
20
11.246489829808532
30
0
0
SPLINE
5
453
100
AcDbEntity
8
0
100
AcDbSpline
70
0
71
3
72
9
73
5
74
0
42
0.000000001
43
0.0000000001
44
0.0000000001
40
0
40
0
40
0
40
0
40
0.012522013949419538
40
0.016324625268381306
40
0.016324625268381306
40
0.016324625268381306
40
0.016324625268381306
10
1.6081058830022776
20
11.246489829808532
30
0
10
1.6496506664557666
20
11.242445933388399
30
0
10
1.7038115246430947
20
11.237174010361519
30
0
10
1.757887044270394
20
11.231098354050513
30
0
10
1.7704832404851878
20
11.229683108121215
30
0
0
SPLINE
5
454
100
AcDbEntity
8
0
100
AcDbSpline
70
0
71
3
72
9
73
5
74
0
42
0.000000001
43
0.0000000001
44
0.0000000001
40
0
40
0
40
0
40
0
40
0.086472957245478863
40
0.15149212618323937
40
0.15149212618323937
40
0.15149212618323937
40
0.15149212618323937
10
1.7704832404851878
20
11.229683108121215
30
0
10
2.0799447113872778
20
11.237626625800623
30
0
10
2.6220908076016696
20
11.251542888421447
30
0
10
2.9216075847498941
20
11.690952177058044
30
0
10
3.0501577109098399
20
11.879543013364135
30
0
0
SPLINE
5
455
100
AcDbEntity
8
0
100
AcDbSpline
70
0
71
3
72
9
73
5
74
0
42
0.000000001
43
0.0000000001
44
0.0000000001
40
0
40
0
40
0
40
0
40
0.029594188956418573
40
0.066882019819451813
40
0.066882019819451813
40
0.066882019819451813
40
0.066882019819451813
10
3.0501577109098399
20
11.879543013364135
30
0
10
3.0587504920655513
20
11.984021528412478
30
0
10
3.0781699314834321
20
12.220139981412165
30
0
10
2.8851165691272556
20
12.364748351262293
30
0
10
2.7774861305952037
20
12.445369906216918
30
0
0
SPLINE
5
456
100
AcDbEntity
8
0
100
AcDbSpline
70
0
71
3
72
9
73
5
74
0
42
0.000000001
43
0.0000000001
44
0.0000000001
40
0
40
0
40
0
40
0
40
0.058642730224557682
40
0.086261095940961777
40
0.086261095940961777
40
0.086261095940961777
40
0.086261095940961777
10
2.7774861305952037
20
12.445369906216918
30
0
10
2.613816355158431
20
12.552756033958277
30
0
10
2.3730647027792777
20
12.710716705849821
30
0
10
2.1528704751119494
20
12.895886927986858
30
0
10
2.0823705047368968
20
12.955173201352416
30
0
0
SPLINE
5
457
100
AcDbEntity
8
0
100
AcDbSpline
70
0
71
3
72
9
73
5
74
0
42
0.000000001
43
0.0000000001
44
0.0000000001
40
0
40
0
40
0
40
0
40
0.04981332255702859
40
0.10864800714862143
40
0.10864800714862143
40
0.10864800714862143
40
0.10864800714862143
10
2.0823705047368968
20
12.955173201352416
30
0
10
1.9981523678326458
20
13.105710059453113
30
0
10
1.8144639031665681
20
13.434046512343421
30
0
10
1.9163682717173616
20
13.799364332150358
30
0
10
1.9715511649846995
20
13.997189945966063
30
0
0
SPLINE
5
458
100
AcDbEntity
8
0
100
AcDbSpline
70
0
71
3
72
9
73
5
74
0
42
0.000000001
43
0.0000000001
44
0.0000000001
40
0
40
0
40
0
40
0
40
0.085406482935729042
40
0.17262534635180182
40
0.17262534635180182
40
0.17262534635180182
40
0.17262534635180182
10
1.9715511649846995
20
13.997189945966063
30
0
10
2.0892376004504909
20
14.262698885401019
30
0
10
2.3271078532096325
20
14.799351034675796
30
0
10
2.8074018224156747
20
15.137344046269225
30
0
10
3.0500700920820201
20
15.308114833623229
30
0
0
SPLINE
5
459
100
AcDbEntity
8
0
100
AcDbSpline
70
0
71
3
72
9
73
5
74
0
42
0.000000001
43
0.0000000001
44
0.0000000001
40
0
40
0
40
0
40
0
40
0.081732819943947876
40
0.16579290925233159
40
0.16579290925233159
40
0.16579290925233159
40
0.16579290925233159
10
3.0500700920820201
20
15.308114833623229
30
0
10
3.2967829750241444
20
15.430657115980178
30
0
10
3.7972336708530188
20
15.679230963209623
30
0
10
4.3552787394138868
20
15.711779939370075
30
0
10
4.6382179707288707
20
15.728282875806151
30
0
0
SPLINE
5
460
100
AcDbEntity
8
0
100
AcDbSpline
70
0
71
3
72
9
73
5
74
0
42
0.000000001
43
0.0000000001
44
0.0000000001
40
0
40
0
40
0
40
0
40
0.0064373322380324198
40
0.012592430289383869
40
0.012592430289383869
40
0.012592430289383869
40
0.012592430289383869
10
4.6382179707288707
20
15.728282875806151
30
0
10
4.6615320687053616
20
15.725529662431857
30
0
10
4.7071380965866521
20
15.720143945770722
30
0
10
4.7213758204040586
20
15.676692521945535
30
0
10
4.7283351272344554
20
15.655453748494445
30
0
0
SPLINE
5
461
100
AcDbEntity
8
0
100
AcDbSpline
70
0
71
3
72
9
73
5
74
0
42
0.000000001
43
0.0000000001
44
0.0000000001
40
0
40
0
40
0
40
0
40
0.014987786789893447
40
0.045424388659568153
40
0.045424388659568153
40
0.045424388659568153
40
0.045424388659568153
10
4.7283351272344554
20
15.655453748494445
30
0
10
4.7296770208122005
20
15.605489325153696
30
0
10
4.73374397854717
20
15.454059136240698
30
0
10
4.7220403855710105
20
15.302933777271043
30
0
10
4.7141983956098521
20
15.201672262936889
30
0
0
SPLINE
5
462
100
AcDbEntity
8
0
100
AcDbSpline
70
0
71
3
72
9
73
5
74
0
42
0.000000001
43
0.0000000001
44
0.0000000001
40
0
40
0
40
0
40
0
40
0.03064309905845854
40
0.04627513226620196
40
0.04627513226620196
40
0.04627513226620196
40
0.04627513226620196
10
4.7141983956098521
20
15.201672262936889
30
0
10
4.7083723797096821
20
15.099531744872694
30
0
10
4.6995743251835691
20
14.945286054051998
30
0
10
4.6712464894252772
20
14.79354696395073
30
0
10
4.6616771668195689
20
14.742288536816893
30
0
0
SPLINE
5
463
100
AcDbEntity
8
0
100
AcDbSpline
70
0
71
3
72
9
73
5
74
0
42
0.000000001
43
0.0000000001
44
0.0000000001
40
0
40
0
40
0
40
0
40
0.0066737881106581085
40
0.016035616821452721
40
0.016035616821452721
40
0.016035616821452721
40
0.016035616821452721
10
4.6616771668195689
20
14.742288536816893
30
0
10
4.648486935712123
20
14.723369552944778
30
0
10
4.6167937671070822
20
14.677911475613854
30
0
10
4.5611245874823494
20
14.669037769154563
30
0
10
4.5286241024732554
20
14.663857168942748
30
0
0
SPLINE
5
464
100
AcDbEntity
8
0
100
AcDbSpline
70
0
71
3
72
9
73
5
74
0
42
0.000000001
43
0.0000000001
44
0.0000000001
40
0
40
0
40
0
40
0
40
0.037979610115813293
40
0.076106545675054246
40
0.076106545675054246
40
0.076106545675054246
40
0.076106545675054246
10
4.5286241024732554
20
14.663857168942748
30
0
10
4.4031155604528234
20
14.647269546375835
30
0
10
4.1516116203976221
20
14.614029956746567
30
0
10
3.8997311338013185
20
14.583775560443467
30
0
10
3.7735470980405772
20
14.568619079381286
30
0
0
SPLINE
5
465
100
AcDbEntity
8
0
100
AcDbSpline
70
0
71
3
72
9
73
5
74
0
42
0.000000001
43
0.0000000001
44
0.0000000001
40
0
40
0
40
0
40
0
40
0.042216604677091429
40
0.078227781552845599
40
0.078227781552845599
40
0.078227781552845599
40
0.078227781552845599
10
3.7735470980405772
20
14.568619079381286
30
0
10
3.6331244114003214
20
14.524935624631537
30
0
10
3.3729197990308544
20
14.443989755541043
30
0
10
3.2423527593249113
20
14.207085962326316
30
0
10
3.1822478622198069
20
14.098030276089965
30
0
0
SPLINE
5
466
100
AcDbEntity
8
0
100
AcDbSpline
70
0
71
3
72
9
73
5
74
0
42
0.000000001
43
0.0000000001
44
0.0000000001
40
0
40
0
40
0
40
0
40
0.025496552776650045
40
0.061528746198637657
40
0.061528746198637657
40
0.061528746198637657
40
0.061528746198637657
10
3.1822478622198069
20
14.098030276089965
30
0
10
3.1808520537017371
20
14.008547670268609
30
0
10
3.1774836631274295
20
13.792606613804805
30
0
10
3.3574226243209186
20
13.663710535038867
30
0
10
3.4627976864576304
20
13.588226980954467
30
0
0
LWPOLYLINE
5
467
100
AcDbEntity
8
0
100
AcDbPolyline
90
6
70
1
43
0.0
10
29.542164958840907
20
15.408538414921773
10
26.006631052908169
20
11.873004508989041
10
24.592417490535073
20
13.287218071362135
10
29.542164958840903
20
18.23696553966797
10
34.491912427146744
20
13.287218071362135
10
33.077698864773645
20
11.873004508989037
0
CIRCLE
5
468
100
AcDbEntity
8
0
100
AcDbCircle
10
9.8249999999999993
20
25
30
0
40
3.2499999999999996
210
0
220
-0
230
1
0
LWPOLYLINE
5
469
100
AcDbEntity
8
0
100
AcDbPolyline
90
4
70
1
43
0.0
10
9
20
1.5000000000000002
42
0.99999999999999989
10
8.9999999999999964
20
4.5000000000000009
10
4.9999999999999991
20
4.5
42
0.99999999999999989
10
4.9999999999999982
20
1.4999999999999991
0
LWPOLYLINE
5
470
100
AcDbEntity
8
0
100
AcDbPolyline
90
4
70
1
43
0.0
10
34.299999999999997
20
124
42
0.99999999999999989
10
34.300000000000011
20
127.00000000000001
10
30.299999999999841
20
127.00000000000001
42
0.99999999999999989
10
30.299999999999994
20
124
0
CIRCLE
5
471
100
AcDbEntity
8
0
100
AcDbCircle
10
10
20
76.774839468489333
30
0
40
3.5000000000000009
210
0
220
-0
230
1
0
CIRCLE
5
472
100
AcDbEntity
8
0
100
AcDbCircle
10
10
20
97.274839468489333
30
0
40
3.5000000000000009
210
0
220
-0
230
1
0
CIRCLE
5
473
100
AcDbEntity
8
0
100
AcDbCircle
10
17.100000000000005
20
50.774839468489326
30
0
40
3.2499999999999996
210
0
220
-0
230
1
0
CIRCLE
5
474
100
AcDbEntity
8
0
100
AcDbCircle
10
29.474999999999998
20
25
30
0
40
3.2500000000000018
210
0
220
-0
230
1
0
LWPOLYLINE
5
475
100
AcDbEntity
8
0
100
AcDbPolyline
90
4
70
1
43
0.0
10
0
20
128.5
10
0
20
0
10
39.299999999999997
20
0
10
39.299999999999997
20
128.5
0
SPLINE
5
476
100
AcDbEntity
8
0
100
AcDbSpline
70
0
71
3
72
9
73
5
74
0
42
0.000000001
43
0.0000000001
44
0.0000000001
40
0
40
0
40
0
40
0
40
0.13634453261627086
40
0.28919401742270529
40
0.28919401742270529
40
0.28919401742270529
40
0.28919401742270529
10
31.375538992210188
20
47.436177780668736
30
0
10
31.835330664981992
20
47.491245910345192
30
0
10
32.810573298293967
20
47.608048347138961
30
0
10
33.589832655728678
20
48.210302311118184
30
0
10
34.001699375434676
20
48.528615286390782
30
0
0
SPLINE
5
477
100
AcDbEntity
8
0
100
AcDbSpline
70
0
71
3
72
9
73
5
74
0
42
0.000000001
43
0.0000000001
44
0.0000000001
40
0
40
0
40
0
40
0
40
0.15058880824960774
40
0.29562848515876483
40
0.29562848515876483
40
0.29562848515876483
40
0.29562848515876483
10
34.001699375434676
20
48.528615286390782
30
0
10
34.368249728518244
20
48.880097799026821
30
0
10
35.087843215418594
20
49.570110848324319
30
0
10
35.476854666184785
20
50.487496066138831
30
0
10
35.667709397598067
20
50.937578728239536
30
0
0
SPLINE
5
478
100
AcDbEntity
8
0
100
AcDbSpline
70
0
71
3
72
9
73
5
74
0
42
0.000000001
43
0.0000000001
44
0.0000000001
40
0
40
0
40
0
40
0
40
0.13024145302266313
40
0.24385202012474744
40
0.24385202012474744
40
0.24385202012474744
40
0.24385202012474744
10
35.667709397598067
20
50.937578728239536
30
0
10
35.788769663687674
20
51.36683390383736
30
0
10
36.0154316807158
20
52.170531492348715
30
0
10
35.74903874644172
20
52.95844520573327
30
0
10
35.624926375671187
20
53.325533916990757
30
0
0
SPLINE
5
479
100
AcDbEntity
8
0
100
AcDbSpline
70
0
71
3
72
9
73
5
74
0
42
0.000000001
43
0.0000000001
44
0.0000000001
40
0
40
0
40
0
40
0
40
0.10931110923545732
40
0.22705291359671109
40
0.22705291359671109
40
0.22705291359671109
40
0.22705291359671109
10
35.624926375671187
20
53.325533916990757
30
0
10
35.406197697310034
20
53.639956754654676
30
0
10
34.951870739543253
20
54.293052509443555
30
0
10
34.156119647786667
20
54.366090135319062
30
0
10
33.743470596595564
20
54.403964927237034
30
0
0
SPLINE
5
480
100
AcDbEntity
8
0
100
AcDbSpline
70
0
71
3
72
9
73
5
74
0
42
0.000000001
43
0.0000000001
44
0.0000000001
40
0
40
0
40
0
40
0
40
0.13462969306717507
40
0.28659346757440862
40
0.28659346757440862
40
0.28659346757440862
40
0.28659346757440862
10
33.743470596595564
20
54.403964927237034
30
0
10
33.28959469451685
20
54.348376563260032
30
0
10
32.323404653807934
20
54.230042623502712
30
0
10
31.553537560206809
20
53.629801057122542
30
0
10
31.14532201222972
20
53.311528017561436
30
0
0
SPLINE
5
481
100
AcDbEntity
8
0
100
AcDbSpline
70
0
71
3
72
9
73
5
74
0
42
0.000000001
43
0.0000000001
44
0.0000000001
40
0
40
0
40
0
40
0
40
0.14989554204768504
40
0.29375589517311873
40
0.29375589517311873
40
0.29375589517311873
40
0.29375589517311873
10
31.14532201222972
20
53.311528017561436
30
0
10
30.781152358340037
20
52.96102033048949
30
0
10
30.067475479015524
20
52.274117318069514
30
0
10
29.680595156948787
20
51.362844622372286
30
0
10
29.491129206939497
20
50.916569283049107
30
0
0
SPLINE
5
482
100
AcDbEntity
8
0
100
AcDbSpline
70
0
71
3
72
9
73
5
74
0
42
0.000000001
43
0.0000000001
44
0.0000000001
40
0
40
0
40
0
40
0
40
0.12993694349557322
40
0.24362223593324239
40
0.24362223593324239
40
0.24362223593324239
40
0.24362223593324239
10
29.491129206939497
20
50.916569283049107
30
0
10
29.370406184994195
20
50.488813378204924
30
0
10
29.144059375967281
20
49.686802439912086
30
0
10
29.400322308882462
20
48.897118143987832
30
0
10
29.519906329437056
20
48.528615286390782
30
0
0
SPLINE
5
483
100
AcDbEntity
8
0
100
AcDbSpline
70
0
71
3
72
9
73
5
74
0
42
0.000000001
43
0.0000000001
44
0.0000000001
40
0
40
0
40
0
40
0
40
0.10926871855273326
40
0.22578234338484018
40
0.22578234338484018
40
0.22578234338484018
40
0.22578234338484018
10
29.519906329437056
20
48.528615286390782
30
0
10
29.733525374686756
20
48.210078647046274
30
0
10
30.174927170799457
20
47.55188525155566
30
0
10
30.966864487343742
20
47.475563277738466
30
0
10
31.375538992210188
20
47.436177780668736
30
0
0
SPLINE
5
484
100
AcDbEntity
8
0
100
AcDbSpline
70
0
71
3
72
9
73
5
74
0
42
0.000000001
43
0.0000000001
44
0.0000000001
40
0
40
0
40
0
40
0
40
0.074360500205242014
40
0.15840009321391585
40
0.15840009321391585
40
0.15840009321391585
40
0.15840009321391585
10
8.6651131957769394
20
35.079604010156402
30
0
10
8.9157189584757575
20
35.110122647988995
30
0
10
9.4495504424204988
20
35.175132365031004
30
0
10
9.8770494843486247
20
35.503909311586476
30
0
10
10.10386024415493
20
35.678342799714812
30
0
0
SPLINE
5
485
100
AcDbEntity
8
0
100
AcDbSpline
70
0
71
3
72
9
73
5
74
0
42
0.000000001
43
0.0000000001
44
0.0000000001
40
0
40
0
40
0
40
0
40
0.082436923348731053
40
0.1611860478343724
40
0.1611860478343724
40
0.1611860478343724
40
0.1611860478343724
10
10.10386024415493
20
35.678342799714812
30
0
10
10.305080610279273
20
35.870210315005487
30
0
10
10.69851979070773
20
36.245362191630946
30
0
10
10.911636219381005
20
36.745110459720792
30
0
10
11.015756472945213
20
36.989267687371978
30
0
0
SPLINE
5
486
100
AcDbEntity
8
0
100
AcDbSpline
70
0
71
3
72
9
73
5
74
0
42
0.000000001
43
0.0000000001
44
0.0000000001
40
0
40
0
40
0
40
0
40
0.073165874363516001
40
0.13568079605756567
40
0.13568079605756567
40
0.13568079605756567
40
0.13568079605756567
10
11.015756472945213
20
36.989267687371978
30
0
10
11.085161338021992
20
37.229864553795629
30
0
10
11.213867615720503
20
37.676033955163376
30
0
10
11.072716573212118
20
38.116263854700101
30
0
10
11.007681235671043
20
38.319099764398345
30
0
0
SPLINE
5
487
100
AcDbEntity
8
0
100
AcDbSpline
70
0
71
3
72
9
73
5
74
0
42
0.000000001
43
0.0000000001
44
0.0000000001
40
0
40
0
40
0
40
0
40
0.060167716180163158
40
0.12566962309531343
40
0.12566962309531343
40
0.12566962309531343
40
0.12566962309531343
10
11.007681235671043
20
38.319099764398345
30
0
10
10.888982083360803
20
38.493645995991777
30
0
10
10.641060462272591
20
38.858212918747711
30
0
10
10.199624700461285
20
38.897409163126049
30
0
10
9.9695381969213486
20
38.917839150003203
30
0
0
SPLINE
5
488
100
AcDbEntity
8
0
100
AcDbSpline
70
0
71
3
72
9
73
5
74
0
42
0.000000001
43
0.0000000001
44
0.0000000001
40
0
40
0
40
0
40
0
40
0.075822955600041833
40
0.16028201423094279
40
0.16028201423094279
40
0.16028201423094279
40
0.16028201423094279
10
9.9695381969213486
20
38.917839150003203
30
0
10
9.7138738903422723
20
38.888242173634239
30
0
10
9.1734255564418028
20
38.825677176661742
30
0
10
8.7374055685971399
20
38.49804458947203
30
0
10
8.5076490491628647
20
38.325401763490447
30
0
0
SPLINE
5
489
100
AcDbEntity
8
0
100
AcDbSpline
70
0
71
3
72
9
73
5
74
0
42
0.000000001
43
0.0000000001
44
0.0000000001
40
0
40
0
40
0
40
0
40
0.084308406731670796
40
0.16492047495890122
40
0.16492047495890122
40
0.16492047495890122
40
0.16492047495890122
10
8.5076490491628647
20
38.325401763490447
30
0
10
8.3000440803260123
20
38.130918284955101
30
0
10
7.893936179682461
20
37.750478078632725
30
0
10
7.6751961728362108
20
37.239184636055519
30
0
10
7.5682774633169174
20
36.989267687371978
30
0
0
SPLINE
5
490
100
AcDbEntity
8
0
100
AcDbSpline
70
0
71
3
72
9
73
5
74
0
42
0.000000001
43
0.0000000001
44
0.0000000001
40
0
40
0
40
0
40
0
40
0.07223342393462541
40
0.13533198650437661
40
0.13533198650437661
40
0.13533198650437661
40
0.13533198650437661
10
7.5682774633169174
20
36.989267687371978
30
0
10
7.5014163394236579
20
36.750775089880243
30
0
10
7.3761495553850214
20
36.303950403646965
30
0
10
7.531428992645008
20
35.868682119646849
30
0
10
7.6038280576467514
20
35.665738205484161
30
0
0
SPLINE
5
491
100
AcDbEntity
8
0
100
AcDbSpline
70
0
71
3
72
9
73
5
74
0
42
0.000000001
43
0.0000000001
44
0.0000000001
40
0
40
0
40
0
40
0
40
0.060647856325371653
40
0.12664248281656623
40
0.12664248281656623
40
0.12664248281656623
40
0.12664248281656623
10
7.6038280576467514
20
35.665738205484161
30
0
10
7.729248800547877
20
35.494865790907667
30
0
10
7.9911474930998816
20
35.138056694296999
30
0
10
8.4342225071869805
20
35.099629035818012
30
0
10
8.6651131957769394
20
35.079604010156402
30
0
0
SPLINE
5
492
100
AcDbEntity
8
0
100
AcDbSpline
70
0
71
3
72
9
73
5
74
0
42
0.000000001
43
0.0000000001
44
0.0000000001
40
0
40
0
40
0
40
0
40
0.066774191965619192
40
0.14102855563433919
40
0.14102855563433919
40
0.14102855563433919
40
0.14102855563433919
10
9.6696433275937999
20
11.229683108121215
30
0
10
9.894822451406851
20
11.255649611237789
30
0
10
10.37040569181074
20
11.310491434427361
30
0
10
10.7539999187553
20
11.598859767960841
30
0
10
10.955969974398609
20
11.750691480428038
30
0
0
SPLINE
5
493
100
AcDbEntity
8
0
100
AcDbSpline
70
0
71
3
72
9
73
5
74
0
42
0.000000001
43
0.0000000001
44
0.0000000001
40
0
40
0
40
0
40
0
40
0.073290462265063069
40
0.14364638727643267
40
0.14364638727643267
40
0.14364638727643267
40
0.14364638727643267
10
10.955969974398609
20
11.750691480428038
30
0
10
11.136081651109356
20
11.920115714681518
30
0
10
11.489093364587557
20
12.252180466566568
30
0
10
11.679089662560729
20
12.697732946406688
30
0
10
11.772147104144093
20
12.915958113461791
30
0
0
SPLINE
5
494
100
AcDbEntity
8
0
100
AcDbSpline
70
0
71
3
72
9
73
5
74
0
42
0.000000001
43
0.0000000001
44
0.0000000001
40
0
40
0
40
0
40
0
40
0.064255228219854826
40
0.11914318397341968
40
0.11914318397341968
40
0.11914318397341968
40
0.11914318397341968
10
11.772147104144093
20
12.915958113461791
30
0
10
11.83285741022592
20
13.127876084195339
30
0
10
11.945427536688481
20
13.520818144691811
30
0
10
11.810258053254564
20
13.904476816056571
30
0
10
11.747986957430836
20
14.081224150449096
30
0
0
SPLINE
5
495
100
AcDbEntity
8
0
100
AcDbSpline
70
0
71
3
72
9
73
5
74
0
42
0.000000001
43
0.0000000001
44
0.0000000001
40
0
40
0
40
0
40
0
40
0.052920526593948407
40
0.11134145454441827
40
0.11134145454441827
40
0.11134145454441827
40
0.11134145454441827
10
11.747986957430836
20
14.081224150449096
30
0
10
11.637957417064374
20
14.229818224580093
30
0
10
11.406462194780314
20
14.542450796764633
30
0
10
11.016557773148623
20
14.574310982877121
30
0
10
10.81197468936443
20
14.591028041631041
30
0
0
SPLINE
5
496
100
AcDbEntity
8
0
100
AcDbSpline
70
0
71
3
72
9
73
5
74
0
42
0.000000001
43
0.0000000001
44
0.0000000001
40
0
40
0
40
0
40
0
40
0.066964290295586315
40
0.14031172326784858
40
0.14031172326784858
40
0.14031172326784858
40
0.14031172326784858
10
10.81197468936443
20
14.591028041631041
30
0
10
10.586078009378912
20
14.566446151741507
30
0
10
10.112751818518904
20
14.514939187113697
30
0
10
9.7273110253711685
20
14.233793605227614
30
0
10
9.5258232802152598
20
14.086825794965087
30
0
0
SPLINE
5
497
100
AcDbEntity
8
0
100
AcDbSpline
70
0
71
3
72
9
73
5
74
0
42
0.000000001
43
0.0000000001
44
0.0000000001
40
0
40
0
40
0
40
0
40
0.073157938280444507
40
0.14424531478271629
40
0.14424531478271629
40
0.14424531478271629
40
0.14424531478271629
10
9.5258232802152598
20
14.086825794965087
30
0
10
9.3458456314939689
20
13.917870265970095
30
0
10
8.9909841741612482
20
13.584741093155802
30
0
10
8.8012340857976934
20
13.136742181092739
30
0
10
8.7077209204435313
20
12.915958113461791
30
0
0
SPLINE
5
498
100
AcDbEntity
8
0
100
AcDbSpline
70
0
71
3
72
9
73
5
74
0
42
0.000000001
43
0.0000000001
44
0.0000000001
40
0
40
0
40
0
40
0
40
0.063647471372376696
40
0.11913550036172597
40
0.11913550036172597
40
0.11913550036172597
40
0.11913550036172597
10
8.7077209204435313
20
12.915958113461791
30
0
10
8.6486677213259373
20
12.705868092883074
30
0
10
8.5381317915688211
20
12.312621052851982
30
0
10
8.6741373556666996
20
11.929249115361333
30
0
10
8.7374827116727793
20
11.750691480428038
30
0
0
SPLINE
5
499
100
AcDbEntity
8
0
100
AcDbSpline
70
0
71
3
72
9
73
5
74
0
42
0.000000001
43
0.0000000001
44
0.0000000001
40
0
40
0
40
0
40
0
40
0.053716655823947981
40
0.11155951343836004
40
0.11155951343836004
40
0.11155951343836004
40
0.11155951343836004
10
8.7374827116727793
20
11.750691480428038
30
0
10
8.8479239075584033
20
11.59878776367551
30
0
10
9.077289751123411
20
11.283311968124675
30
0
10
9.4673827372122705
20
11.247994814704336
30
0
10
9.6696433275937999
20
11.229683108121215
30
0
0
SPLINE
5
500
100
AcDbEntity
8
0
100
AcDbSpline
70
0
71
3
72
9
73
5
74
0
42
0.000000001
43
0.0000000001
44
0.0000000001
40
0
40
0
40
0
40
0
40
0.13634447421964133
40
0.2891941099799894
40
0.2891941099799894
40
0.2891941099799894
40
0.2891941099799894
10
26.392299152516632
20
110.67531295798167
30
0
10
26.852090571627983
20
110.73038119588837
30
0
10
27.827333396739775
20
110.84718394965408
30
0
10
28.606593394665367
20
111.44943749644297
30
0
10
29.018460727834015
20
111.76775046370372
30
0
0
SPLINE
5
501
100
AcDbEntity
8
0
100
AcDbSpline
70
0
71
3
72
9
73
5
74
0
42
0.000000001
43
0.0000000001
44
0.0000000001
40
0
40
0
40
0
40
0
40
0.15058872798923528
40
0.29562843169820463
40
0.29562843169820463
40
0.29562843169820463
40
0.29562843169820463
10
29.018460727834015
20
111.76775046370372
30
0
10
29.385010560998701
20
112.11923306522813
30
0
10
30.104603280617532
20
112.80924653200827
30
0
10
30.493615148241915
20
113.72663129972196
30
0
10
30.684470153950958
20
114.17671390555248
30
0
0
SPLINE
5
502
100
AcDbEntity
8
0
100
AcDbSpline
70
0
71
3
72
9
73
5
74
0
42
0.000000001
43
0.0000000001
44
0.0000000001
40
0
40
0
40
0
40
0
40
0.13024145302266313
40
0.24385204796360815
40
0.24385204796360815
40
0.24385204796360815
40
0.24385204796360815
10
30.684470153950958
20
114.17671390555248
30
0
10
30.805530529703926
20
114.60596910860227
30
0
10
31.032192777931968
20
115.40966684026466
30
0
10
30.765798808994312
20
116.19758040449466
30
0
10
30.641685939931183
20
116.5646690943037
30
0
0
SPLINE
5
503
100
AcDbEntity
8
0
100
AcDbSpline
70
0
71
3
72
9
73
5
74
0
42
0.000000001
43
0.0000000001
44
0.0000000001
40
0
40
0
40
0
40
0
40
0.10931110923545732
40
0.22705297161769608
40
0.22705297161769608
40
0.22705297161769608
40
0.22705297161769608
10
30.641685939931183
20
116.5646690943037
30
0
10
30.422957257157428
20
116.87909193041264
30
0
10
29.968630174126645
20
117.5321878488634
30
0
10
29.172878839725183
20
117.60522536207179
30
0
10
28.760229564809112
20
117.64310010454997
30
0
0
SPLINE
5
504
100
AcDbEntity
8
0
100
AcDbSpline
70
0
71
3
72
9
73
5
74
0
42
0.000000001
43
0.0000000001
44
0.0000000001
40
0
40
0
40
0
40
0
40
0.13462945960583672
40
0.2865933345115505
40
0.2865933345115505
40
0.2865933345115505
40
0.2865933345115505
10
28.760229564809112
20
117.64310010454997
30
0
10
28.306354532556519
20
117.58751155946476
30
0
10
27.340165116617065
20
117.46917708391044
30
0
10
26.570298125434874
20
116.8689362200017
30
0
10
26.162082172536163
20
116.55066319487437
30
0
0
SPLINE
5
505
100
AcDbEntity
8
0
100
AcDbSpline
70
0
71
3
72
9
73
5
74
0
42
0.000000001
43
0.0000000001
44
0.0000000001
40
0
40
0
40
0
40
0
40
0.14989556207723895
40
0.29375587500666955
40
0.29375587500666955
40
0.29375587500666955
40
0.29375587500666955
10
26.162082172536163
20
116.55066319487437
30
0
10
25.797912332668346
20
116.20015555877325
30
0
10
25.084235233233709
20
115.51325278518516
30
0
10
24.697355557058913
20
114.60197983181699
30
0
10
24.507889963292389
20
114.15570446036205
30
0
0
SPLINE
5
506
100
AcDbEntity
8
0
100
AcDbSpline
70
0
71
3
72
9
73
5
74
0
42
0.000000001
43
0.0000000001
44
0.0000000001
40
0
40
0
40
0
40
0
40
0.12993693833767039
40
0.24362222412571385
40
0.24362222412571385
40
0.24362222412571385
40
0.24362222412571385
10
24.507889963292389
20
114.15570446036205
30
0
10
24.387167096573449
20
113.7279485576239
30
0
10
24.160820580569904
20
112.92593763031427
30
0
10
24.417083208673311
20
112.13625332294656
30
0
10
24.536667085789947
20
111.76775046370372
30
0
0
SPLINE
5
507
100
AcDbEntity
8
0
100
AcDbSpline
70
0
71
3
72
9
73
5
74
0
42
0.000000001
43
0.0000000001
44
0.0000000001
40
0
40
0
40
0
40
0
40
0.10926867911637778
40
0.2257823039484847
40
0.2257823039484847
40
0.2257823039484847
40
0.2257823039484847
10
24.536667085789947
20
111.76775046370372
30
0
10
24.750285920300637
20
111.4492138253638
30
0
10
25.191687363171962
20
110.79102030936281
30
0
10
25.983624611481186
20
110.71469841891066
30
0
10
26.392299152516632
20
110.67531295798167
30
0
0
ENDSEC
0
SECTION
2
OBJECTS
0
DICTIONARY
5
C
100
AcDbDictionary
3
ACAD_GROUP
350
D
3
ACAD_MLINESTYLE
350
17
0
DICTIONARY
5
D
100
AcDbDictionary
0
DICTIONARY
5
1A
330
C
100
AcDbDictionary
0
DICTIONARY
5
17
100
AcDbDictionary
0
ENDSEC
0
EOF
