0
SECTION
2
HEADER
9
$INSUNITS
70
4
9
$ACADVER
1
AC1014
9
$HANDSEED
5
FFFF
0
ENDSEC
0
SECTION
2
TABLES
0
TABLE
2
VPORT
5
8
100
AcDbSymbolTable
0
ENDTAB
0
TABLE
2
LTYPE
5
5
100
AcDbSymbolTable
0
LTYPE
5
14
100
AcDbSymbolTableRecord
100
AcDbLinetypeTableRecord
2
BYBLOCK
70
0
0
LTYPE
5
15
100
AcDbSymbolTableRecord
100
AcDbLinetypeTableRecord
2
BYLAYER
70
0
0
ENDTAB
0
TABLE
2
LAYER
5
2
100
AcDbSymbolTable
70
2
0
LAYER
5
50
100
AcDbSymbolTableRecord
100
AcDbLayerTableRecord
2
0
70
0
6
CONTINUOUS
0
ENDTAB
0
TABLE
2
STYLE
5
3
100
AcDbSymbolTable
70
1
0
STYLE
5
11
100
AcDbSymbolTableRecord
100
AcDbTextStyleTableRecord
2
STANDARD
70
0
0
ENDTAB
0
TABLE
2
VIEW
5
6
100
AcDbSymbolTable
70
0
0
ENDTAB
0
TABLE
2
UCS
5
7
100
AcDbSymbolTable
70
0
0
ENDTAB
0
TABLE
2
APPID
5
9
100
AcDbSymbolTable
70
2
0
APPID
5
12
100
AcDbSymbolTableRecord
100
AcDbRegAppTableRecord
2
ACAD
70
0
0
ENDTAB
0
TABLE
2
DIMSTYLE
5
A
100
AcDbSymbolTable
70
1
0
ENDTAB
0
TABLE
2
BLOCK_RECORD
5
1
100
AcDbSymbolTable
70
1
0
BLOCK_RECORD
5
1F
100
AcDbSymbolTableRecord
100
AcDbBlockTableRecord
2
*MODEL_SPACE
0
BLOCK_RECORD
5
1B
100
AcDbSymbolTableRecord
100
AcDbBlockTableRecord
2
*PAPER_SPACE
0
ENDTAB
0
ENDSEC
0
SECTION
2
BLOCKS
0
BLOCK
5
20
100
AcDbEntity
100
AcDbBlockBegin
2
*MODEL_SPACE
0
ENDBLK
5
21
100
AcDbEntity
100
AcDbBlockEnd
0
BLOCK
5
1C
100
AcDbEntity
100
AcDbBlockBegin
2
*PAPER_SPACE
0
ENDBLK
5
1D
100
AcDbEntity
100
AcDbBlockEnd
0
ENDSEC
0
SECTION
2
ENTITIES
0
LWPOLYLINE
5
100
100
AcDbEntity
8
0
100
AcDbPolyline
90
7
70
1
43
0.0
10
60.680375543512838
20
79.319626542649715
10
57.583179120317482
20
79.319626542649715
10
57.583179120317482
20
72.319626438341587
10
53.666357324213521
20
72.319626438341587
10
53.666357324213521
20
79.319626542649715
10
50.680375394501226
20
79.319626542649715
10
55.680375469007032
20
83.31962660225436
0
LWPOLYLINE
5
101
100
AcDbEntity
8
0
100
AcDbPolyline
90
6
70
1
43
0.0
10
26.744052599926526
20
112.58097032896978
10
21.744052599926526
20
119.84144976364307
10
26.744052599926526
20
119.84144976364307
10
31.744052599926526
20
112.58097032896978
10
31.744052599926526
20
119.84144976364307
10
26.744052599926526
20
119.84144976364307
0
LWPOLYLINE
5
102
100
AcDbEntity
8
0
100
AcDbPolyline
90
4
70
1
43
0.0
10
8.7396188477151693
20
112.58097032896978
10
8.7396188477151693
20
119.87428120138972
10
16.191479956492092
20
119.87428120138972
10
16.191479956492092
20
112.58097032896978
0
LWPOLYLINE
5
103
100
AcDbEntity
8
0
100
AcDbPolyline
90
7
70
1
43
0.0
10
17.180375543512831
20
79.319626542649715
10
14.083179120317473
20
79.319626542649715
10
14.083179120317473
20
72.319626438341587
10
10.16635732421352
20
72.319626438341587
10
10.16635732421352
20
79.319626542649715
10
7.1803753945012172
20
79.319626542649715
10
12.180375469007023
20
83.31962660225436
0
SPLINE
5
104
100
AcDbEntity
8
0
100
AcDbSpline
70
0
71
3
72
9
73
5
74
0
42
0.000000001
43
0.0000000001
44
0.0000000001
40
0
40
0
40
0
40
0
40
0.14214221941134436
40
0.27166241760835474
40
0.27166241760835474
40
0.27166241760835474
40
0.27166241760835474
10
27.709283481278007
20
10.026652427436595
30
0
10
28.195134703897274
20
9.9949563763933043
30
0
10
29.123694271078122
20
9.9343788372869248
30
0
10
29.847257120194051
20
9.3534273243841124
30
0
10
30.192229400314872
20
9.0764476974027204
30
0
0
SPLINE
5
105
100
AcDbEntity
8
0
100
AcDbSpline
70
0
71
3
72
9
73
5
74
0
42
0.000000001
43
0.0000000001
44
0.0000000001
40
0
40
0
40
0
40
0
40
0.13280645523253423
40
0.28379009838273972
40
0.28379009838273972
40
0.28379009838273972
40
0.28379009838273972
10
30.192229400314872
20
9.0764476974027204
30
0
10
30.460720540502404
20
8.7123550022630276
30
0
10
31.034451139329864
20
7.9343363314596074
30
0
10
31.086234875941887
20
6.9656304302002559
30
0
10
31.113785157837452
20
6.4502539355771589
30
0
0
SPLINE
5
106
100
AcDbEntity
8
0
100
AcDbSpline
70
0
71
3
72
9
73
5
74
0
42
0.000000001
43
0.0000000001
44
0.0000000001
40
0
40
0
40
0
40
0
40
0.098687480268620231
40
0.18333271226757902
40
0.18333271226757902
40
0.18333271226757902
40
0.18333271226757902
10
31.113785157837452
20
6.4502539355771589
30
0
10
31.105047822370242
20
6.1190373301546428
30
0
10
31.088816387492834
20
5.5037329525893508
30
0
10
30.887031443394864
20
4.9230125503749527
30
0
10
30.793866763748703
20
4.654892297508006
30
0
0
SPLINE
5
107
100
AcDbEntity
8
0
100
AcDbSpline
70
0
71
3
72
9
73
5
74
0
42
0.000000001
43
0.0000000001
44
0.0000000001
40
0
40
0
40
0
40
0
40
0.058030339352158879
40
0.11632821423049799
40
0.11632821423049799
40
0.11632821423049799
40
0.11632821423049799
10
30.793866763748703
20
4.654892297508006
30
0
10
30.706965979471505
20
4.4810434088408826
30
0
10
30.532763774847986
20
4.1325441412099284
30
0
10
30.274107088373867
20
3.8411632304571435
30
0
10
30.144481311478195
20
3.6951377112882189
30
0
0
SPLINE
5
108
100
AcDbEntity
8
0
100
AcDbSpline
70
0
71
3
72
9
73
5
74
0
42
0.000000001
43
0.0000000001
44
0.0000000001
40
0
40
0
40
0
40
0
40
0.057074073761327178
40
0.11103517467712964
40
0.11103517467712964
40
0.11103517467712964
40
0.11103517467712964
10
30.144481311478195
20
3.6951377112882189
30
0
10
30.005251109970331
20
3.5636639165487916
30
0
10
29.734384695047744
20
3.3078872599638003
30
0
10
29.399834923360359
20
3.1443348900409287
30
0
10
29.237249742188034
20
3.0648513753430895
30
0
0
SPLINE
5
109
100
AcDbEntity
8
0
100
AcDbSpline
70
0
71
3
72
9
73
5
74
0
42
0.000000001
43
0.0000000001
44
0.0000000001
40
0
40
0
40
0
40
0
40
0.073428763183121387
40
0.15418308575666484
40
0.15418308575666484
40
0.15418308575666484
40
0.15418308575666484
10
29.237249742188034
20
3.0648513753430895
30
0
10
29.004649522338521
20
2.9841257647187351
30
0
10
28.516243915469719
20
2.8146210201731412
30
0
10
27.999191386880948
20
2.7970895483596037
30
0
10
27.72838200155693
20
2.7879073340909533
30
0
0
SPLINE
5
110
100
AcDbEntity
8
0
100
AcDbSpline
70
0
71
3
72
9
73
5
74
0
42
0.000000001
43
0.0000000001
44
0.0000000001
40
0
40
0
40
0
40
0
40
0.14124111416157981
40
0.27115679045515118
40
0.27115679045515118
40
0.27115679045515118
40
0.27115679045515118
10
27.72838200155693
20
2.7879073340909533
30
0
10
27.245662158555092
20
2.8207792622573038
30
0
10
26.318929428539583
20
2.883887278577983
30
0
10
25.599619264300166
20
3.4678674291664402
30
0
10
25.254985938705978
20
3.7476619203107409
30
0
0
SPLINE
5
111
100
AcDbEntity
8
0
100
AcDbSpline
70
0
71
3
72
9
73
5
74
0
42
0.000000001
43
0.0000000001
44
0.0000000001
40
0
40
0
40
0
40
0
40
0.1343004646543727
40
0.28827007759697265
40
0.28827007759697265
40
0.28827007759697265
40
0.28827007759697265
10
25.254985938705978
20
3.7476619203107409
30
0
10
24.983751548855832
20
4.11604427723345
30
0
10
24.401558785708705
20
4.9067609057183805
30
0
10
24.350925536972476
20
5.8910862713043617
30
0
10
24.323881517090381
20
6.4168300349729108
30
0
0
SPLINE
5
112
100
AcDbEntity
8
0
100
AcDbSpline
70
0
71
3
72
9
73
5
74
0
42
0.000000001
43
0.0000000001
44
0.0000000001
40
0
40
0
40
0
40
0
40
0.15287152511025037
40
0.28649425724151001
40
0.28649425724151001
40
0.28649425724151001
40
0.28649425724151001
10
24.323881517090381
20
6.4168300349729108
30
0
10
24.350845239048006
20
6.9386286536748969
30
0
10
24.401377550341074
20
7.9165237036971785
30
0
10
24.9769741778567
20
8.70426517078233
30
0
10
25.245436082520072
20
9.0716727693097639
30
0
0
SPLINE
5
113
100
AcDbEntity
8
0
100
AcDbSpline
70
0
71
3
72
9
73
5
74
0
42
0.000000001
43
0.0000000001
44
0.0000000001
40
0
40
0
40
0
40
0
40
0.12931979220656498
40
0.27007014349430936
40
0.27007014349430936
40
0.27007014349430936
40
0.27007014349430936
10
25.245436082520072
20
9.0716727693097639
30
0
10
25.588570270193696
20
9.3500715876641287
30
0
10
26.305168230348134
20
9.9314768585720152
30
0
10
27.228222489124477
20
9.994044524661911
30
0
10
27.709283481278007
20
10.026652427436595
30
0
0
LINE
5
114
100
AcDbEntity
8
0
100
AcDbLine
10
25.43653347465164
20
32.182177075674375
30
0
11
25.43653347465164
21
34.822695621778806
31
0
0
LINE
5
115
100
AcDbEntity
8
0
100
AcDbLine
10
25.43653347465164
20
34.822695621778806
30
0
11
26.849903100458445
21
34.822695621778806
31
0
0
LINE
5
116
100
AcDbEntity
8
0
100
AcDbLine
10
26.849903100458445
20
34.822695621778806
30
0
11
26.849903100458448
21
27.822695740988095
31
0
0
LINE
5
117
100
AcDbEntity
8
0
100
AcDbLine
10
26.849903100458448
20
27.822695740988095
30
0
11
24.581827008453672
21
27.822695740988095
31
0
0
SPLINE
5
118
100
AcDbEntity
8
0
100
AcDbSpline
70
0
71
3
72
9
73
5
74
0
42
0.000000001
43
0.0000000001
44
0.0000000001
40
0
40
0
40
0
40
0
40
0.10651259194023639
40
0.16861059617812474
40
0.16861059617812474
40
0.16861059617812474
40
0.16861059617812474
10
24.581827008453672
20
27.822695740988092
30
0
10
24.226020840004207
20
27.819986947700805
30
0
10
23.662775789881117
20
27.815698898346504
30
0
10
23.10608722604988
20
27.897585389225014
30
0
10
22.901063048569029
20
27.927743562986688
30
0
0
SPLINE
5
119
100
AcDbEntity
8
0
100
AcDbSpline
70
0
71
3
72
9
73
5
74
0
42
0.000000001
43
0.0000000001
44
0.0000000001
40
0
40
0
40
0
40
0
40
0.060688718805377004
40
0.12375502198403057
40
0.12375502198403057
40
0.12375502198403057
40
0.12375502198403057
10
22.901063048569029
20
27.927743562986688
30
0
10
22.707429993506917
20
27.997430182761825
30
0
10
22.312577977222084
20
28.139533514847678
30
0
10
22.035010255253077
20
28.454712122721737
30
0
10
21.893560075489347
20
28.615329036047296
30
0
0
SPLINE
5
120
100
AcDbEntity
8
0
100
AcDbSpline
70
0
71
3
72
9
73
5
74
0
42
0.000000001
43
0.0000000001
44
0.0000000001
40
0
40
0
40
0
40
0
40
0.067532536486392805
40
0.14401011492742022
40
0.14401011492742022
40
0.14401011492742022
40
0.14401011492742022
10
21.893560075489347
20
28.615329036047296
30
0
10
21.775304990180327
20
28.811073209599627
30
0
10
21.523131307506116
20
29.228488908702303
30
0
10
21.499985378961952
20
29.716834997111317
30
0
10
21.487693571773832
20
29.976174601843194
30
0
0
SPLINE
5
121
100
AcDbEntity
8
0
100
AcDbSpline
70
0
71
3
72
9
73
5
74
0
42
0.000000001
43
0.0000000001
44
0.0000000001
40
0
40
0
40
0
40
0
40
0.059615754251971131
40
0.11172155772725423
40
0.11172155772725423
40
0.11172155772725423
40
0.11172155772725423
10
21.487693571773832
20
29.976174601843194
30
0
10
21.494537649710725
20
30.176776208237758
30
0
10
21.507363639382589
20
30.552709117754695
30
0
10
21.653505003513644
20
30.898706872458035
30
0
10
21.721663856235807
20
31.060076722433404
30
0
0
SPLINE
5
122
100
AcDbEntity
8
0
100
AcDbSpline
70
0
71
3
72
9
73
5
74
0
42
0.000000001
43
0.0000000001
44
0.0000000001
40
0
40
0
40
0
40
0
40
0.047445061446597166
40
0.09206703720813128
40
0.09206703720813128
40
0.09206703720813128
40
0.09206703720813128
10
21.721663856235807
20
31.060076722433404
30
0
10
21.803064026611739
20
31.197357368672684
30
0
10
21.961020877888764
20
31.463750160248985
30
0
10
22.201818646727641
20
31.658195185064613
30
0
10
22.318525695530241
20
31.752436527540521
30
0
0
SPLINE
5
123
100
AcDbEntity
8
0
100
AcDbSpline
70
0
71
3
72
9
73
5
74
0
42
0.000000001
43
0.0000000001
44
0.0000000001
40
0
40
0
40
0
40
0
40
0.041650196465554117
40
0.08053152731050621
40
0.08053152731050621
40
0.08053152731050621
40
0.08053152731050621
10
22.318525695530241
20
31.752436527540521
30
0
10
22.436210280171704
20
31.827722558947006
30
0
10
22.663755889708455
20
31.973289677683766
30
0
10
22.923620164285964
20
32.046538840605969
30
0
10
23.04908492538101
20
32.081904181768735
30
0
0
SPLINE
5
124
100
AcDbEntity
8
0
100
AcDbSpline
70
0
71
3
72
9
73
5
74
0
42
0.000000001
43
0.0000000001
44
0.0000000001
40
0
40
0
40
0
40
0
40
0.062409091310145409
40
0.14708122840384352
40
0.14708122840384352
40
0.14708122840384352
40
0.14708122840384352
10
23.04908492538101
20
32.081904181768735
30
0
10
23.255297058815746
20
32.110984025130385
30
0
10
23.741282886531643
20
32.179517294781263
30
0
10
24.232305200347501
20
32.181205312731741
30
0
10
24.514978313175504
20
32.182177075674375
30
0
0
LINE
5
125
100
AcDbEntity
8
0
100
AcDbLine
10
24.514978313175504
20
32.182177075674375
30
0
11
25.43653347465164
21
32.182177075674375
31
0
0
LWPOLYLINE
5
126
100
AcDbEntity
8
0
100
AcDbPolyline
90
13
70
1
43
0.0
10
16.411977791515653
20
29.589407810499498
10
17.80147232982284
20
34.822695621778799
10
19.334214710918726
20
34.822695621778799
10
21.00542881461746
20
27.822695740988088
10
19.558634543148344
20
27.822695740988092
10
18.503381991115873
20
32.631017932226491
10
17.223709606853788
20
27.822695740988088
10
15.542945646969146
20
27.822695740988088
10
14.315796875683134
20
32.712191113760298
10
13.241444611278839
20
27.822695740988085
10
11.818525576320953
20
27.822695740988085
10
13.518389248577421
20
34.822695621778792
10
15.017707133022611
20
34.822695621778792
0
SPLINE
5
127
100
AcDbEntity
8
0
100
AcDbSpline
70
0
71
3
72
9
73
5
74
0
42
0.000000001
43
0.0000000001
44
0.0000000001
40
0
40
0
40
0
40
0
40
0.05316376205041131
40
0.10516333722243804
40
0.10516333722243804
40
0.10516333722243804
40
0.10516333722243804
10
48.365801820215339
20
24.057643656353495
30
0
10
48.185321960284206
20
24.043394017773949
30
0
10
47.828314411537022
20
24.015206781027647
30
0
10
47.539370158440668
20
23.803973746918942
30
0
10
47.396497377809638
20
23.699526433567545
30
0
0
SPLINE
5
128
100
AcDbEntity
8
0
100
AcDbSpline
70
0
71
3
72
9
73
5
74
0
42
0.000000001
43
0.0000000001
44
0.0000000001
40
0
40
0
40
0
40
0
40
0.057776735896638266
40
0.12837626085038989
40
0.12837626085038989
40
0.12837626085038989
40
0.12837626085038989
10
47.396497377809638
20
23.699526433567545
30
0
10
47.268524670133061
20
23.552260298510681
30
0
10
46.984177390082351
20
23.225044240436539
30
0
10
46.874355448375773
20
22.804129396713879
30
0
10
46.813959726747626
20
22.572650556187174
30
0
0
LINE
5
129
100
AcDbEntity
8
0
100
AcDbLine
10
46.813959726747626
20
22.57265055618717
30
0
11
45.443563708719367
21
23.007166032413981
31
0
0
SPLINE
5
130
100
AcDbEntity
8
0
100
AcDbSpline
70
0
71
3
72
9
73
5
74
0
42
0.000000001
43
0.0000000001
44
0.0000000001
40
0
40
0
40
0
40
0
40
0.10839083118931271
40
0.20299410834443685
40
0.20299410834443685
40
0.20299410834443685
40
0.20299410834443685
10
45.443563708719367
20
23.007166032413981
30
0
10
45.556755602301287
20
23.357198692773139
30
0
10
45.768741129650465
20
24.012739083057035
30
0
10
46.263475543209182
20
24.489578581155271
30
0
10
46.494041332658881
20
24.711804632763407
30
0
0
SPLINE
5
131
100
AcDbEntity
8
0
100
AcDbSpline
70
0
71
3
72
9
73
5
74
0
42
0.000000001
43
0.0000000001
44
0.0000000001
40
0
40
0
40
0
40
0
40
0.092783126679991834
40
0.19649141842794418
40
0.19649141842794418
40
0.19649141842794418
40
0.19649141842794418
10
46.494041332658881
20
24.711804632763407
30
0
10
46.763513702228579
20
24.873220000560305
30
0
10
47.334188673190823
20
25.215057312034741
30
0
10
48.000040193263949
20
25.248199989614548
30
0
10
48.351477035936469
20
25.265692715267679
30
0
0
SPLINE
5
132
100
AcDbEntity
8
0
100
AcDbSpline
70
0
71
3
72
9
73
5
74
0
42
0.000000001
43
0.0000000001
44
0.0000000001
40
0
40
0
40
0
40
0
40
0.12921465197436702
40
0.25379424264549422
40
0.25379424264549422
40
0.25379424264549422
40
0.25379424264549422
10
48.351477035936469
20
25.265692715267679
30
0
10
48.792694421679954
20
25.229073758239686
30
0
10
49.659302275710367
20
25.157149403506033
30
0
10
50.319404534145626
20
24.592605020661289
30
0
10
50.64342791741764
20
24.315487985233805
30
0
0
SPLINE
5
133
100
AcDbEntity
8
0
100
AcDbSpline
70
0
71
3
72
9
73
5
74
0
42
0.000000001
43
0.0000000001
44
0.0000000001
40
0
40
0
40
0
40
0
40
0.13147304369320681
40
0.28095037137320999
40
0.28095037137320999
40
0.28095037137320999
40
0.28095037137320999
10
50.64342791741764
20
24.315487985233805
30
0
10
50.904962751881115
20
23.952369629415763
30
0
10
51.463847727884293
20
23.176406480973188
30
0
10
51.514277772616872
20
22.218199863091126
30
0
10
51.54110866194641
20
21.708393935780069
30
0
0
SPLINE
5
134
100
AcDbEntity
8
0
100
AcDbSpline
70
0
71
3
72
9
73
5
74
0
42
0.000000001
43
0.0000000001
44
0.0000000001
40
0
40
0
40
0
40
0
40
0.15681567305369931
40
0.29114401370323795
40
0.29114401370323795
40
0.29114401370323795
40
0.29114401370323795
10
51.54110866194641
20
21.708393935780069
30
0
10
51.516582219177458
20
21.173401518193526
30
0
10
51.471046420041034
20
20.180134475915125
30
0
10
50.901452739230393
20
19.370022435647446
30
0
10
50.638652989324683
20
18.996252064327738
30
0
0
SPLINE
5
135
100
AcDbEntity
8
0
100
AcDbSpline
70
0
71
3
72
9
73
5
74
0
42
0.000000001
43
0.0000000001
44
0.0000000001
40
0
40
0
40
0
40
0
40
0.12725942633582327
40
0.26231276474837312
40
0.26231276474837312
40
0.26231276474837312
40
0.26231276474837312
10
50.638652989324683
20
18.996252064327738
30
0
10
50.307255794426538
20
18.713607521087955
30
0
10
49.624165221676442
20
18.131008072756174
30
0
10
48.727290425134449
20
18.062314783766173
30
0
10
48.265528926309699
20
18.026947621922037
30
0
0
SPLINE
5
136
100
AcDbEntity
8
0
100
AcDbSpline
70
0
71
3
72
9
73
5
74
0
42
0.000000001
43
0.0000000001
44
0.0000000001
40
0
40
0
40
0
40
0
40
0.1179256346626056
40
0.22635483369211024
40
0.22635483369211024
40
0.22635483369211024
40
0.22635483369211024
10
48.265528926309699
20
18.026947621922037
30
0
10
47.86364812170865
20
18.052924008006755
30
0
10
47.092249579315492
20
18.102784927296707
30
0
10
46.474712839521935
20
18.564827395087367
30
0
10
46.17889846270954
20
18.786156420330546
30
0
0
SPLINE
5
137
100
AcDbEntity
8
0
100
AcDbSpline
70
0
71
3
72
9
73
5
74
0
42
0.000000001
43
0.0000000001
44
0.0000000001
40
0
40
0
40
0
40
0
40
0.068809066755770296
40
0.14883171957636937
40
0.14883171957636937
40
0.14883171957636937
40
0.14883171957636937
10
46.17889846270954
20
18.786156420330546
30
0
10
46.027210082563172
20
18.96133050067521
30
0
10
45.699113168575551
20
19.340226201956021
30
0
10
45.545341920323175
20
19.818320648880391
30
0
10
45.462663421091193
20
20.075378660778544
30
0
0
LINE
5
138
100
AcDbEntity
8
0
100
AcDbLine
10
45.4626634210912
20
20.075378660778544
30
0
11
46.861708411630744
21
20.409621839146158
31
0
0
SPLINE
5
139
100
AcDbEntity
8
0
100
AcDbSpline
70
0
71
3
72
9
73
5
74
0
42
0.000000001
43
0.0000000001
44
0.0000000001
40
0
40
0
40
0
40
0
40
0.052358828639712564
40
0.1020052897549083
40
0.1020052897549083
40
0.1020052897549083
40
0.1020052897549083
10
46.861708411630744
20
20.409621839146158
30
0
10
46.91259557146001
20
20.239212281011376
30
0
10
47.011733761103386
20
19.907220966343946
30
0
10
47.260901677869057
20
19.667038230231434
30
0
10
47.382172891553992
20
19.55014014683201
30
0
0
SPLINE
5
140
100
AcDbEntity
8
0
100
AcDbSpline
70
0
71
3
72
9
73
5
74
0
42
0.000000001
43
0.0000000001
44
0.0000000001
40
0
40
0
40
0
40
0
40
0.04946400736616284
40
0.10210330641540868
40
0.10210330641540868
40
0.10210330641540868
40
0.10210330641540868
10
47.382172891553992
20
19.55014014683201
30
0
10
47.522606812436251
20
19.458248008426832
30
0
10
47.812489667030178
20
19.268564809180639
30
0
10
48.158676061411072
20
19.246415661026838
30
0
10
48.337152251657599
20
19.234996680836222
30
0
0
SPLINE
5
141
100
AcDbEntity
8
0
100
AcDbSpline
70
0
71
3
72
9
73
5
74
0
42
0.000000001
43
0.0000000001
44
0.0000000001
40
0
40
0
40
0
40
0
40
0.071918319044599818
40
0.14184673953987587
40
0.14184673953987587
40
0.14184673953987587
40
0.14184673953987587
10
48.337152251657599
20
19.234996680836222
30
0
10
48.583276244542368
20
19.256940152192136
30
0
10
49.068714257791683
20
19.300219943869315
30
0
10
49.426243485953862
20
19.630725274804888
30
0
10
49.60250029867565
20
19.793659691433451
30
0
0
SPLINE
5
142
100
AcDbEntity
8
0
100
AcDbSpline
70
0
71
3
72
9
73
5
74
0
42
0.000000001
43
0.0000000001
44
0.0000000001
40
0
40
0
40
0
40
0
40
0.081626515156069446
40
0.19009204297290183
40
0.19009204297290183
40
0.19009204297290183
40
0.19009204297290183
10
49.60250029867565
20
19.793659691433451
30
0
10
49.742458768959459
20
20.031891217295701
30
0
10
50.06839442230374
20
20.586685420688084
30
0
10
50.078817533792744
20
21.233995153791998
30
0
10
50.084764906820411
20
21.603346709827921
30
0
0
SPLINE
5
143
100
AcDbEntity
8
0
100
AcDbSpline
70
0
71
3
72
9
73
5
74
0
42
0.000000001
43
0.0000000001
44
0.0000000001
40
0
40
0
40
0
40
0
40
0.11426774878175053
40
0.19777934219187604
40
0.19777934219187604
40
0.19777934219187604
40
0.19777934219187604
10
50.084764906820411
20
21.603346709827921
30
0
10
50.080663419028284
20
21.992183332760831
30
0
10
50.073564394446265
20
22.665197830059334
30
0
10
49.745710266731358
20
23.248084137189323
30
0
10
49.607275077756995
20
23.494205717663309
30
0
0
SPLINE
5
144
100
AcDbEntity
8
0
100
AcDbSpline
70
0
71
3
72
9
73
5
74
0
42
0.000000001
43
0.0000000001
44
0.0000000001
40
0
40
0
40
0
40
0
40
0.069289114112140129
40
0.13994344831395539
40
0.13994344831395539
40
0.13994344831395539
40
0.13994344831395539
10
49.607275077756995
20
23.494205717663309
30
0
10
49.434954033820816
20
23.658537357752571
30
0
10
49.086916662950983
20
23.990438503781945
30
0
10
48.607731666236951
20
24.035096717572131
30
0
10
48.365801820215339
20
24.057643656353495
30
0
0
LWPOLYLINE
5
145
100
AcDbEntity
8
0
100
AcDbPolyline
90
13
70
1
43
0.0
10
40.86046417654147
20
87.901303580585321
10
40.86046417654147
20
93.411535433116754
10
42.173561057454251
20
93.411535433116754
10
42.173561057454251
20
86.411535552326043
10
40.0582816213428
20
86.411535552326043
10
38.788158497220181
20
91.186433246913751
10
37.532361349469326
20
86.411535552326043
10
35.412306389218472
20
86.411535552326043
10
35.412306389218472
20
93.411535433116754
10
36.7254038661777
20
93.411535433116754
10
36.7254038661777
20
87.901303580585321
10
38.114899000531338
20
93.411535433116754
10
39.475744566327236
20
93.411535433116754
0
LWPOLYLINE
5
146
100
AcDbEntity
8
0
100
AcDbPolyline
90
7
70
1
43
0.0
10
35.030082304060642
20
101.12708149384142
10
37.533856427052854
20
108.12817182164068
10
39.042724620804215
20
108.12882856631654
10
41.547817406354824
20
101.1299183803534
10
40.015075170446572
20
101.1292512443457
10
38.241333975656801
20
106.30924390102321
10
36.529401238577094
20
101.12773408214024
0
SPLINE
5
147
100
AcDbEntity
8
0
100
AcDbSpline
70
0
71
3
72
9
73
5
74
0
42
0.000000001
43
0.0000000001
44
0.0000000001
40
0
40
0
40
0
40
0
40
0.05316376205041131
40
0.10516333722243804
40
0.10516333722243804
40
0.10516333722243804
40
0.10516333722243804
10
44.964070601696577
20
107.04272931483146
30
0
10
44.783596961108344
20
107.02840112257857
30
0
10
44.426601714854982
20
107.00005849866395
30
0
10
44.137749429669199
20
106.78869971971423
30
0
10
43.994922123938508
20
106.6841902299572
30
0
0
SPLINE
5
148
100
AcDbEntity
8
0
100
AcDbSpline
70
0
71
3
72
9
73
5
74
0
42
0.000000001
43
0.0000000001
44
0.0000000001
40
0
40
0
40
0
40
0
40
0.057776735896638266
40
0.12837626085038989
40
0.12837626085038989
40
0.12837626085038989
40
0.12837626085038989
10
43.994922123938508
20
106.6841902299572
30
0
10
43.867013526919216
20
106.53686840790354
30
0
10
43.582808696702919
20
106.20952861683692
30
0
10
43.473169971299853
20
105.78856601227655
30
0
10
43.412875008051053
20
105.55706090604907
30
0
0
LINE
5
149
100
AcDbEntity
8
0
100
AcDbLine
10
43.412875008051053
20
105.55706090604907
30
0
11
42.04228999416857
21
105.99097986741077
31
0
0
SPLINE
5
150
100
AcDbEntity
8
0
100
AcDbSpline
70
0
71
3
72
9
73
5
74
0
42
0.000000001
43
0.0000000001
44
0.0000000001
40
0
40
0
40
0
40
0
40
0.10839083118931271
40
0.20299410834443685
40
0.20299410834443685
40
0.20299410834443685
40
0.20299410834443685
10
42.04228999416857
20
105.99097986741077
30
0
10
42.155329523055293
20
106.34106176211517
30
0
10
42.367029702141096
20
106.99669435837171
30
0
10
42.861556521369273
20
107.47374914764634
30
0
10
43.092025563656478
20
107.69607553345134
30
0
0
SPLINE
5
151
100
AcDbEntity
8
0
100
AcDbSpline
70
0
71
3
72
9
73
5
74
0
42
0.000000001
43
0.0000000001
44
0.0000000001
40
0
40
0
40
0
40
0
40
0.092783126679991834
40
0.19649141842794418
40
0.19649141842794418
40
0.19649141842794418
40
0.19649141842794418
10
43.092025563656478
20
107.69607553345134
30
0
10
43.361427650620655
20
107.85760817554529
30
0
10
43.931953780631503
20
108.19969384460151
30
0
10
44.597790812068247
20
108.23312633521083
30
0
10
44.949220007629549
20
108.25077202435955
30
0
0
SPLINE
5
152
100
AcDbEntity
8
0
100
AcDbSpline
70
0
71
3
72
9
73
5
74
0
42
0.000000001
43
0.0000000001
44
0.0000000001
40
0
40
0
40
0
40
0
40
0.12921465197436702
40
0.25379424264549422
40
0.25379424264549422
40
0.25379424264549422
40
0.25379424264549422
10
44.949220007629549
20
108.25077202435955
30
0
10
45.390453290216371
20
108.21434511351329
30
0
10
46.257092367697474
20
108.14279796225078
30
0
10
46.917440285189194
20
107.57854094664768
30
0
10
47.241584254745518
20
107.30156497073742
30
0
0
SPLINE
5
153
100
AcDbEntity
8
0
100
AcDbSpline
70
0
71
3
72
9
73
5
74
0
42
0.000000001
43
0.0000000001
44
0.0000000001
40
0
40
0
40
0
40
0
40
0.13147304369320681
40
0.28095037137320999
40
0.28095037137320999
40
0.28095037137320999
40
0.28095037137320999
10
47.241584254745518
20
107.30156497073742
30
0
10
47.503277114041893
20
106.93856048403904
30
0
10
48.062499780070681
20
106.16284066738956
30
0
10
48.113346885637384
20
105.20465609027498
30
0
10
48.140399668743605
20
104.69486188957248
30
0
0
SPLINE
5
154
100
AcDbEntity
8
0
100
AcDbSpline
70
0
71
3
72
9
73
5
74
0
42
0.000000001
43
0.0000000001
44
0.0000000001
40
0
40
0
40
0
40
0
40
0.15681567305369931
40
0.29114401370323795
40
0.29114401370323795
40
0.29114401370323795
40
0.29114401370323795
10
48.140399668743605
20
104.69486188957248
30
0
10
48.11610608719846
20
104.15985884737019
30
0
10
48.071002618262298
20
103.16657207942782
30
0
10
47.501761597896817
20
102.35621219657376
30
0
10
47.239124558849575
20
101.9823274753729
30
0
0
SPLINE
5
155
100
AcDbEntity
8
0
100
AcDbSpline
70
0
71
3
72
9
73
5
74
0
42
0.000000001
43
0.0000000001
44
0.0000000001
40
0
40
0
40
0
40
0
40
0.12725942633582327
40
0.26231276474837312
40
0.26231276474837312
40
0.26231276474837312
40
0.26231276474837312
10
47.239124558849575
20
101.9823274753729
30
0
10
46.907850418203303
20
101.69953871613973
30
0
10
46.225013490326113
20
101.11664200341637
30
0
10
45.32816867793688
20
101.04755835039316
30
0
10
44.866422616637387
20
101.01199020722838
30
0
0
SPLINE
5
156
100
AcDbEntity
8
0
100
AcDbSpline
70
0
71
3
72
9
73
5
74
0
42
0.000000001
43
0.0000000001
44
0.0000000001
40
0
40
0
40
0
40
0
40
0.1179256346626056
40
0.22635483369211024
40
0.22635483369211024
40
0.22635483369211024
40
0.22635483369211024
10
44.866422616637387
20
101.01199020722838
30
0
10
44.464530543714531
20
101.03779166964014
30
0
10
43.69311037210467
20
101.0873168280159
30
0
10
43.075372583842359
20
101.54909046519083
30
0
10
42.779461900164854
20
101.77029071435328
30
0
0
SPLINE
5
157
100
AcDbEntity
8
0
100
AcDbSpline
70
0
71
3
72
9
73
5
74
0
42
0.000000001
43
0.0000000001
44
0.0000000001
40
0
40
0
40
0
40
0
40
0.068809066755770296
40
0.14883171957636937
40
0.14883171957636937
40
0.14883171957636937
40
0.14883171957636937
10
42.779461900164854
20
101.77029071435328
30
0
10
42.627697288738645
20
101.94539875475888
30
0
10
42.299435489031765
20
102.32415161385107
30
0
10
42.145456161653414
20
102.80217908556074
30
0
10
42.062665784095323
20
103.05920108675923
30
0
0
LINE
5
158
100
AcDbEntity
8
0
100
AcDbLine
10
42.062665784095323
20
103.05920108675923
30
0
11
43.461565160612281
21
103.39405317682207
31
0
0
SPLINE
5
159
100
AcDbEntity
8
0
100
AcDbSpline
70
0
71
3
72
9
73
5
74
0
42
0.000000001
43
0.0000000001
44
0.0000000001
40
0
40
0
40
0
40
0
40
0.052358828639712564
40
0.1020052897549083
40
0.1020052897549083
40
0.1020052897549083
40
0.1020052897549083
10
43.461565160612281
20
103.39405317682207
30
0
10
43.512526487480656
20
103.22366578379372
30
0
10
43.611809169094386
20
102.89171765111035
30
0
10
43.861081603342967
20
102.65164338969186
30
0
10
43.982403686185414
20
102.53479810144347
30
0
0
SPLINE
5
160
100
AcDbEntity
8
0
100
AcDbSpline
70
0
71
3
72
9
73
5
74
0
42
0.000000001
43
0.0000000001
44
0.0000000001
40
0
40
0
40
0
40
0
40
0.04946400736616284
40
0.10210330641540868
40
0.10210330641540868
40
0.10210330641540868
40
0.10210330641540868
10
43.982403686185414
20
102.53479810144347
30
0
10
44.122877590411164
20
102.44296709651258
30
0
10
44.412842978382166
20
102.25341008861618
30
0
10
44.75903898053047
20
102.23141162242152
30
0
10
44.93752012405578
20
102.22007032622555
30
0
0
SPLINE
5
161
100
AcDbEntity
8
0
100
AcDbSpline
70
0
71
3
72
9
73
5
74
0
42
0.000000001
43
0.0000000001
44
0.0000000001
40
0
40
0
40
0
40
0
40
0.071918319044599818
40
0.14184673953987587
40
0.14184673953987587
40
0.14184673953987587
40
0.14184673953987587
10
44.93752012405578
20
102.22007032622555
30
0
10
45.183634542589239
20
102.24212092255831
30
0
10
45.669053672047383
20
102.28561200016225
30
0
10
46.02643901176581
20
102.61627291669365
30
0
10
46.202624889536033
20
102.77928403480301
30
0
0
SPLINE
5
162
100
AcDbEntity
8
0
100
AcDbSpline
70
0
71
3
72
9
73
5
74
0
42
0.000000001
43
0.0000000001
44
0.0000000001
40
0
40
0
40
0
40
0
40
0.081626515156069446
40
0.19009204297290183
40
0.19009204297290183
40
0.19009204297290183
40
0.19009204297290183
10
46.202624889536033
20
102.77928403480301
30
0
10
46.342479654754129
20
103.01757645592593
30
0
10
46.668173799468903
20
103.57251247236137
30
0
10
46.678315164233972
20
104.21982668087595
30
0
10
46.684101774051115
20
104.58918079055786
30
0
0
SPLINE
5
163
100
AcDbEntity
8
0
100
AcDbSpline
70
0
71
3
72
9
73
5
74
0
42
0.000000001
43
0.0000000001
44
0.0000000001
40
0
40
0
40
0
40
0
40
0.11426774878175053
40
0.19777934219187604
40
0.19777934219187604
40
0.19777934219187604
40
0.19777934219187604
10
46.684101774051115
20
104.58918079055786
30
0
10
46.67983104299929
20
104.97801559145955
30
0
10
46.672439085188692
20
105.65102693511113
30
0
10
46.344331283504559
20
106.23377048640398
30
0
10
46.205788981637909
20
106.4798317887554
30
0
0
SPLINE
5
164
100
AcDbEntity
8
0
100
AcDbSpline
70
0
71
3
72
9
73
5
74
0
42
0.000000001
43
0.0000000001
44
0.0000000001
40
0
40
0
40
0
40
0
40
0.069289114112140129
40
0.13994344831395539
40
0.13994344831395539
40
0.13994344831395539
40
0.13994344831395539
10
46.205788981637909
20
106.4798317887554
30
0
10
46.033396427618356
20
106.64408840943264
30
0
10
45.685214627601411
20
106.97583803851242
30
0
10
45.206010238502131
20
107.02028767971179
30
0
10
44.964070601696577
20
107.04272931483146
30
0
0
LWPOLYLINE
5
165
100
AcDbEntity
8
0
100
AcDbPolyline
90
10
70
1
43
0.0
10
46.704939207440518
20
90.436774304691156
10
46.704939207440518
20
93.411535433116754
10
48.118308833247326
20
93.411535433116754
10
48.118308833247326
20
86.411535552326043
10
43.319536647206448
20
86.411535552326043
10
43.319536647206448
20
87.595709970775445
10
46.704939207440518
20
87.595709970775445
10
46.704939207440518
20
89.25259958821853
10
43.782701691990994
20
89.25259958821853
10
43.782701691990994
20
90.436774304691156
0
LWPOLYLINE
5
166
100
AcDbEntity
8
0
100
AcDbPolyline
90
10
70
1
43
0.0
10
55.807281275430299
20
31.846395445660267
10
55.807281275430299
20
34.821156574085862
10
57.220650901237107
20
34.821156574085862
10
57.220650901237107
20
27.821156693295155
10
52.421878715196229
20
27.821156693295155
10
52.421878715196229
20
29.005331111744557
10
55.807281275430299
20
29.005331111744557
10
55.807281275430299
20
30.662220729187641
10
52.885043759980775
20
30.662220729187641
10
52.885043759980775
20
31.846395445660267
0
LWPOLYLINE
5
167
100
AcDbEntity
8
0
100
AcDbPolyline
90
13
70
1
43
0.0
10
9.8035190341151424
20
29.312463769247358
10
9.803519034115137
20
34.822695621778792
10
11.116615318981474
20
34.822695621778792
10
11.116615318981475
20
27.822695740988081
10
9.0013358828700252
20
27.822695740988081
10
7.7312133547938515
20
32.597593435575789
10
6.4754162070429988
20
27.822695740988081
10
4.3553624388850398
20
27.822695740988081
10
4.355362438885038
20
34.822695621778784
10
5.6684575316584729
20
34.822695621778784
10
5.6684575316584755
20
29.312463769247351
10
7.0579538581050087
20
34.822695621778784
10
8.4187982318080081
20
34.822695621778792
0
SPLINE
5
168
100
AcDbEntity
8
0
100
AcDbSpline
70
0
71
3
72
9
73
5
74
0
42
0.000000001
43
0.0000000001
44
0.0000000001
40
0
40
0
40
0
40
0
40
0.053163791427106075
40
0.10516329004217684
40
0.10516329004217684
40
0.10516329004217684
40
0.10516329004217684
10
34.962352166809623
20
8.8186033685224103
30
0
10
34.781872177268482
20
8.8043537924032815
30
0
10
34.424864729578303
20
8.7761667074312015
30
0
10
34.135920796564179
20
8.5649334584298629
30
0
10
33.99304832045037
20
8.4604861457364606
30
0
0
SPLINE
5
169
100
AcDbEntity
8
0
100
AcDbSpline
70
0
71
3
72
9
73
5
74
0
42
0.000000001
43
0.0000000001
44
0.0000000001
40
0
40
0
40
0
40
0
40
0.057776681957363504
40
0.12837623654103472
40
0.12837623654103472
40
0.12837623654103472
40
0.12837623654103472
10
33.99304832045037
20
8.4604861457364606
30
0
10
33.865076022077176
20
8.3132199506375546
30
0
10
33.580729439856
20
7.9860035156323939
30
0
10
33.470906807576164
20
7.5650890447979702
30
0
10
33.410510669388358
20
7.3336102683560895
30
0
0
LINE
5
170
100
AcDbEntity
8
0
100
AcDbLine
10
33.410510669388358
20
7.3336102683560895
30
0
11
32.040115247406547
21
7.7681257445828962
31
0
0
SPLINE
5
171
100
AcDbEntity
8
0
100
AcDbSpline
70
0
71
3
72
9
73
5
74
0
42
0.000000001
43
0.0000000001
44
0.0000000001
40
0
40
0
40
0
40
0
40
0.10839083118931271
40
0.20299406863335662
40
0.20299406863335662
40
0.20299406863335662
40
0.20299406863335662
10
32.040115247406547
20
7.7681257445828962
30
0
10
32.153307169529917
20
8.118158378069019
30
0
10
32.365292708861404
20
8.773698589783919
30
0
10
32.860026723459669
20
9.2505382619915579
30
0
10
33.090592275299613
20
9.4727643449323224
30
0
0
SPLINE
5
172
100
AcDbEntity
8
0
100
AcDbSpline
70
0
71
3
72
9
73
5
74
0
42
0.000000001
43
0.0000000001
44
0.0000000001
40
0
40
0
40
0
40
0
40
0.092783179976677996
40
0.19649141265368658
40
0.19649141265368658
40
0.19649141265368658
40
0.19649141265368658
10
33.090592275299613
20
9.4727643449323224
30
0
10
33.360064845368299
20
9.6341797154288784
30
0
10
33.930739896358403
20
9.9760168262161901
30
0
10
34.596591357077948
20
10.009159639570971
30
0
10
34.948027978577201
20
10.026652427436595
30
0
0
SPLINE
5
173
100
AcDbEntity
8
0
100
AcDbSpline
70
0
71
3
72
9
73
5
74
0
42
0.000000001
43
0.0000000001
44
0.0000000001
40
0
40
0
40
0
40
0
40
0.12921462268000355
40
0.25379421335113073
40
0.25379421335113073
40
0.25379421335113073
40
0.25379421335113073
10
34.948027978577201
20
10.026652427436595
30
0
10
35.389245258094
20
9.9900334514519358
30
0
10
36.255852999922141
20
9.9181090514808403
30
0
10
36.915955179883092
20
9.3535647331491774
30
0
10
37.239978562035148
20
9.0764476974027204
30
0
0
SPLINE
5
174
100
AcDbEntity
8
0
100
AcDbSpline
70
0
71
3
72
9
73
5
74
0
42
0.000000001
43
0.0000000001
44
0.0000000001
40
0
40
0
40
0
40
0
40
0.13147308184691361
40
0.28095040393389648
40
0.28095040393389648
40
0.28095040393389648
40
0.28095040393389648
10
37.239978562035148
20
9.0764476974027204
30
0
10
37.501513729941408
20
8.7133293771166738
30
0
10
38.060399321075138
20
7.9373664398596624
30
0
10
38.110828992494881
20
6.9791596099227249
30
0
10
38.137659679092948
20
6.469353647948985
30
0
0
SPLINE
5
175
100
AcDbEntity
8
0
100
AcDbSpline
70
0
71
3
72
9
73
5
74
0
42
0.000000001
43
0.0000000001
44
0.0000000001
40
0
40
0
40
0
40
0
40
0.15681567841335547
40
0.29114401906289411
40
0.29114401906289411
40
0.29114401906289411
40
0.29114401906289411
10
38.137659679092948
20
6.469353647948985
30
0
10
38.113133081929234
20
5.9343612342390903
30
0
10
38.067596996861546
20
4.941094214821014
30
0
10
37.498003359132845
20
4.1309821515492775
30
0
10
37.235203633942184
20
3.7572117764966539
30
0
0
SPLINE
5
176
100
AcDbEntity
8
0
100
AcDbSpline
70
0
71
3
72
9
73
5
74
0
42
0.000000001
43
0.0000000001
44
0.0000000001
40
0
40
0
40
0
40
0
40
0.12725937741404761
40
0.26231280378255806
40
0.26231280378255806
40
0.26231280378255806
40
0.26231280378255806
10
37.235203633942184
20
3.7572117764966539
30
0
10
36.903806640255574
20
3.474567235633923
30
0
10
36.220716118004987
20
2.8919674815402603
30
0
10
35.323841111728669
20
2.8232744045541338
30
0
10
34.862079272903976
20
2.7879073340909533
30
0
0
SPLINE
5
177
100
AcDbEntity
8
0
100
AcDbSpline
70
0
71
3
72
9
73
5
74
0
42
0.000000001
43
0.0000000001
44
0.0000000001
40
0
40
0
40
0
40
0
40
0.11792554642128816
40
0.22635477081301722
40
0.22635477081301722
40
0.22635477081301722
40
0.22635477081301722
10
34.862079272903976
20
2.7879073340909533
30
0
10
34.460198793063988
20
2.8138837905341796
30
0
10
33.688800511105434
20
2.8637448683343623
30
0
10
33.071263880990877
20
3.3257871048089327
30
0
10
32.775449405350265
20
3.5471161324994616
30
0
0
SPLINE
5
178
100
AcDbEntity
8
0
100
AcDbSpline
70
0
71
3
72
9
73
5
74
0
42
0.000000001
43
0.0000000001
44
0.0000000001
40
0
40
0
40
0
40
0
40
0.068809066755770296
40
0.14883169734780211
40
0.14883169734780211
40
0.14883169734780211
40
0.14883169734780211
10
32.775449405350265
20
3.5471161324994616
30
0
10
32.623760989349158
20
3.7222901981230456
30
0
10
32.295664046811403
20
4.1011858109731776
30
0
10
32.141893221167606
20
4.5792803464498357
30
0
10
32.059214959778373
20
4.8363383729474592
30
0
0
LINE
5
179
100
AcDbEntity
8
0
100
AcDbLine
10
32.059214959778373
20
4.8363383729474592
30
0
11
33.458259950317924
21
5.1705815513150739
31
0
0
SPLINE
5
180
100
AcDbEntity
8
0
100
AcDbSpline
70
0
71
3
72
9
73
5
74
0
42
0.000000001
43
0.0000000001
44
0.0000000001
40
0
40
0
40
0
40
0
40
0.052358795821750855
40
0.1020052175249387
40
0.1020052175249387
40
0.1020052175249387
40
0.1020052175249387
10
33.458259950317924
20
5.1705815513150739
30
0
10
33.509146783394705
20
5.0001719981385087
30
0
10
33.608284328399058
20
4.6681807201251564
30
0
10
33.857451903250684
20
4.4279979492803427
30
0
10
33.978722940125046
20
4.311099859000926
30
0
0
SPLINE
5
181
100
AcDbEntity
8
0
100
AcDbSpline
70
0
71
3
72
9
73
5
74
0
42
0.000000001
43
0.0000000001
44
0.0000000001
40
0
40
0
40
0
40
0
40
0.049463981186362901
40
0.10210333916885464
40
0.10210333916885464
40
0.10210333916885464
40
0.10210333916885464
10
33.978722940125046
20
4.311099859000926
30
0
10
34.119156761234407
20
4.2192077218808013
30
0
10
34.409039656294624
20
4.0295243640455904
30
0
10
34.755226192384249
20
4.0073753257035651
30
0
10
34.933702598251877
20
3.9959563930051378
30
0
0
SPLINE
5
182
100
AcDbEntity
8
0
100
AcDbSpline
70
0
71
3
72
9
73
5
74
0
42
0.000000001
43
0.0000000001
44
0.0000000001
40
0
40
0
40
0
40
0
40
0.071918319044599818
40
0.14184675146995507
40
0.14184675146995507
40
0.14184675146995507
40
0.14184675146995507
10
34.933702598251877
20
3.9959563930051378
30
0
10
35.179826585565515
20
4.017899872643377
30
0
10
35.665264628654654
20
4.0611796842961079
30
0
10
36.022793930157739
20
4.3916849868647025
30
0
10
36.199050794281547
20
4.5546194036023664
30
0
0
SPLINE
5
183
100
AcDbEntity
8
0
100
AcDbSpline
70
0
71
3
72
9
73
5
74
0
42
0.000000001
43
0.0000000001
44
0.0000000001
40
0
40
0
40
0
40
0
40
0.081626534964813369
40
0.19009205946893604
40
0.19009205946893604
40
0.19009205946893604
40
0.19009205946893604
10
36.199050794281547
20
4.5546194036023664
30
0
10
36.339009462870337
20
4.792850912716248
30
0
10
36.664945527215615
20
5.3476449906147092
30
0
10
36.675368346078777
20
5.9949548418744403
30
0
10
36.681315551437919
20
6.3643064219968366
30
0
0
SPLINE
5
184
100
AcDbEntity
8
0
100
AcDbSpline
70
0
71
3
72
9
73
5
74
0
42
0.000000001
43
0.0000000001
44
0.0000000001
40
0
40
0
40
0
40
0
40
0.11426774566838944
40
0.19777935185846202
40
0.19777935185846202
40
0.19777935185846202
40
0.19777935185846202
10
36.681315551437919
20
6.3643064219968366
30
0
10
36.677214219727404
20
6.753143062086159
30
0
10
36.670115464757501
20
7.4261576403107687
30
0
10
36.342261047869897
20
8.0090438604532572
30
0
10
36.203825722374503
20
8.2551654298322248
30
0
0
SPLINE
5
185
100
AcDbEntity
8
0
100
AcDbSpline
70
0
71
3
72
9
73
5
74
0
42
0.000000001
43
0.0000000001
44
0.0000000001
40
0
40
0
40
0
40
0
40
0.069289090493921457
40
0.1399434831038463
40
0.1399434831038463
40
0.1399434831038463
40
0.1399434831038463
10
36.203825722374503
20
8.2551654298322248
30
0
10
36.03150477887381
20
8.4194970693944526
30
0
10
35.683467405698252
20
8.7513984100033539
30
0
10
35.204282238671716
20
8.7960564861835184
30
0
10
34.962352166809623
20
8.8186033685224103
30
0
0
LWPOLYLINE
5
186
100
AcDbEntity
8
0
100
AcDbPolyline
90
7
70
1
43
0.0
10
38.6103745800634
20
2.9072799403684191
10
41.117195735611503
20
9.9072798211591291
10
42.626063476242606
20
9.9072798211591291
10
45.128109673138717
20
2.9072799403684191
10
43.595367620625076
20
2.9072799403684191
10
41.823880623020713
20
8.0880441386716413
10
40.109692464508591
20
2.9072799403684191
0
CIRCLE
5
187
100
AcDbEntity
8
0
100
AcDbCircle
10
61.433003045649144
20
55.885964580403581
30
0
40
1.5000000000000036
210
0
220
-0
230
1
0
CIRCLE
5
188
100
AcDbEntity
8
0
100
AcDbCircle
10
12.346827724393904
20
90.195455649373827
30
0
40
4.5
210
0
220
-0
230
1
0
CIRCLE
5
189
100
AcDbEntity
8
0
100
AcDbCircle
10
55.699998755007982
20
90.19999798387289
30
0
40
4.5000000000000018
210
0
220
-0
230
1
0
LWPOLYLINE
5
190
100
AcDbEntity
8
0
100
AcDbPolyline
90
4
70
1
43
0.0
10
38.364244377774249
20
22.153685398296151
42
0.15591174217617584
10
38.364904198470072
20
21.568403178859135
42
-0.92223269157478172
10
31.387791481294403
20
21.58035326067829
42
0.1443040255855158
10
31.387176339331372
20
22.126004004384999
42
-0.92223269157478505
0
CIRCLE
5
191
100
AcDbEntity
8
0
100
AcDbCircle
10
55.694903246732665
20
105.06191931104227
30
0
40
4.5000000000000018
210
0
220
-0
230
1
0
CIRCLE
5
192
100
AcDbEntity
8
0
100
AcDbCircle
10
12.21384471249973
20
66.314304258836771
30
0
40
3.4999999999999987
210
0
220
-0
230
1
0
CIRCLE
5
193
100
AcDbEntity
8
0
100
AcDbCircle
10
12.500353256041791
20
105.06739212437969
30
0
40
4.5
210
0
220
-0
230
1
0
CIRCLE
5
194
100
AcDbEntity
8
0
100
AcDbCircle
10
55.585555295172675
20
66.299998518079519
30
0
40
3.5000000000000053
210
0
220
-0
230
1
0
CIRCLE
5
195
100
AcDbEntity
8
0
100
AcDbCircle
10
55.787085663397413
20
44.716408710661369
30
0
40
3.5000000000000053
210
0
220
-0
230
1
0
CIRCLE
5
196
100
AcDbEntity
8
0
100
AcDbCircle
10
27.78605228301954
20
105.07875246634312
30
0
40
4.5000000000000018
210
0
220
-0
230
1
0
CIRCLE
5
197
100
AcDbEntity
8
0
100
AcDbCircle
10
12.399999722838405
20
44.699999000877156
30
0
40
3.5000000000000031
210
0
220
-0
230
1
0
LWPOLYLINE
5
198
100
AcDbEntity
8
0
100
AcDbPolyline
90
4
70
1
43
0.0
10
60.799999999999997
20
4.5000000000000009
10
64.800000000000011
20
4.5000000000000036
42
-0.99999999999999989
10
64.800000000000011
20
1.4999999999999969
10
60.799999999999997
20
1.5000000000000002
42
-0.99999999999999989
0
LWPOLYLINE
5
199
100
AcDbEntity
8
0
100
AcDbPolyline
90
4
70
1
43
0.0
10
5
20
127.00000000000001
10
9.0000000000000124
20
127.00000000000001
42
-0.99999999999999989
10
9.0000000000000036
20
124
10
4.9999999999999929
20
124
42
-0.99999999999999989
0
LWPOLYLINE
5
200
100
AcDbEntity
8
0
100
AcDbPolyline
90
4
70
1
43
0.0
10
9
20
1.5000000000000002
42
0.99999999999999989
10
8.9999999999999964
20
4.5000000000000009
10
4.9999999999999982
20
4.5
42
0.99999999999999989
10
4.9999999999999982
20
1.5000000000000002
0
LWPOLYLINE
5
201
100
AcDbEntity
8
0
100
AcDbPolyline
90
4
70
1
43
0.0
10
64.800000000000011
20
124.00000000000003
42
0.99999999999999989
10
64.800000000000026
20
127
10
60.799999999999997
20
127
42
0.99999999999999989
10
60.799999999999997
20
124
0
LWPOLYLINE
5
202
100
AcDbEntity
8
0
100
AcDbPolyline
90
4
70
1
43
0.0
10
0
20
128.5
10
0
20
0
10
69.800000000000011
20
0
10
69.800000000000011
20
128.5
0
ENDSEC
0
SECTION
2
OBJECTS
0
DICTIONARY
5
C
100
AcDbDictionary
3
ACAD_GROUP
350
D
3
ACAD_MLINESTYLE
350
17
0
DICTIONARY
5
D
100
AcDbDictionary
0
DICTIONARY
5
1A
330
C
100
AcDbDictionary
0
DICTIONARY
5
17
100
AcDbDictionary
0
ENDSEC
0
EOF
