G04 EAGLE Gerber RS-274X export*
G75*
%MOMM*%
%FSLAX34Y34*%
%LPD*%
%INBottom Copper*%
%IPPOS*%
%AMOC8*
5,1,8,0,0,1.08239X$1,22.5*%
G01*
G04 Define Apertures*
%ADD10C,0.508000*%
%ADD11P,1.42962X8X292.5*%
%ADD12C,1.408000*%
%ADD13C,1.320800*%
%ADD14C,1.879600*%
%ADD15P,1.42962X8X112.5*%
%ADD16P,1.42962X8X22.5*%
%ADD17P,1.42962X8X202.5*%
%ADD18C,1.700000*%
%ADD19C,3.000000*%
%ADD20C,3.716000*%
%ADD21C,1.270000*%
%ADD22C,1.524000*%
G36*
X617050Y535588D02*
X614581Y535045D01*
X612097Y535509D01*
X611387Y535979D01*
X611383Y535972D01*
X611383Y535972D01*
X611221Y536089D01*
X609990Y536905D01*
X609733Y537162D01*
X609733Y537162D01*
X546732Y600163D01*
X545415Y602083D01*
X544872Y604552D01*
X545336Y607036D01*
X546732Y609143D01*
X562063Y624474D01*
X563416Y627742D01*
X563416Y632618D01*
X562375Y635131D01*
X561892Y637561D01*
X561892Y663735D01*
X562301Y665977D01*
X563646Y668116D01*
X565719Y669562D01*
X568191Y670085D01*
X570672Y669602D01*
X573911Y668260D01*
X580889Y668260D01*
X587336Y670930D01*
X592270Y675864D01*
X594940Y682311D01*
X594940Y689289D01*
X592270Y695736D01*
X587336Y700670D01*
X580889Y703340D01*
X573911Y703340D01*
X570672Y701998D01*
X568444Y701518D01*
X565953Y701942D01*
X563824Y703304D01*
X562395Y705388D01*
X561892Y707865D01*
X561892Y740082D01*
X562337Y742418D01*
X563716Y744536D01*
X564645Y745162D01*
X568521Y749038D01*
X570665Y754215D01*
X570802Y754919D01*
X572198Y757026D01*
X583609Y768436D01*
X584962Y771704D01*
X584962Y924296D01*
X583609Y927564D01*
X576536Y934637D01*
X573268Y935990D01*
X556723Y935990D01*
X554340Y936454D01*
X553718Y936866D01*
X548475Y939038D01*
X543725Y939038D01*
X538548Y936893D01*
X537954Y936493D01*
X535477Y935990D01*
X531323Y935990D01*
X528940Y936454D01*
X528318Y936866D01*
X523075Y939038D01*
X518325Y939038D01*
X513148Y936893D01*
X512554Y936493D01*
X510077Y935990D01*
X452845Y935990D01*
X450461Y936454D01*
X448355Y937850D01*
X444074Y942131D01*
X442717Y944144D01*
X442214Y946621D01*
X442214Y953748D01*
X436858Y959104D01*
X429282Y959104D01*
X423926Y953748D01*
X423926Y944539D01*
X424180Y943288D01*
X424180Y938794D01*
X425533Y935526D01*
X441496Y919563D01*
X444764Y918210D01*
X505114Y918210D01*
X507355Y917801D01*
X509495Y916456D01*
X510941Y914383D01*
X511463Y911911D01*
X510980Y909430D01*
X509357Y905510D01*
X524510Y905510D01*
X524510Y897890D01*
X509357Y897890D01*
X510579Y894938D01*
X512027Y893490D01*
X513344Y891570D01*
X513886Y889101D01*
X513423Y886617D01*
X512027Y884510D01*
X510579Y883062D01*
X509357Y880110D01*
X524510Y880110D01*
X524510Y872490D01*
X509357Y872490D01*
X510579Y869538D01*
X512027Y868090D01*
X513344Y866170D01*
X513886Y863701D01*
X513423Y861217D01*
X512027Y859110D01*
X510579Y857662D01*
X509357Y854710D01*
X524510Y854710D01*
X524510Y847090D01*
X509357Y847090D01*
X510579Y844138D01*
X512027Y842690D01*
X513344Y840770D01*
X513886Y838301D01*
X513423Y835817D01*
X512027Y833710D01*
X510579Y832262D01*
X508762Y827875D01*
X508762Y823125D01*
X510579Y818738D01*
X513938Y815379D01*
X518325Y813562D01*
X523075Y813562D01*
X528430Y815780D01*
X530658Y816260D01*
X533149Y815837D01*
X535278Y814475D01*
X536707Y812390D01*
X537210Y809914D01*
X537210Y799813D01*
X536746Y797429D01*
X535350Y795323D01*
X509626Y769598D01*
X507612Y768241D01*
X506881Y768093D01*
X500848Y765593D01*
X500254Y765193D01*
X497777Y764690D01*
X344745Y764690D01*
X342361Y765154D01*
X340255Y766550D01*
X301289Y805516D01*
X300013Y807344D01*
X299432Y809804D01*
X299856Y812295D01*
X301218Y814424D01*
X303302Y815853D01*
X305779Y816356D01*
X308588Y816356D01*
X313944Y821712D01*
X313944Y828332D01*
X314353Y830574D01*
X315698Y832714D01*
X317771Y834159D01*
X320243Y834682D01*
X322724Y834199D01*
X323156Y834020D01*
X325216Y832644D01*
X331896Y825964D01*
X332639Y824862D01*
X339112Y818388D01*
X346688Y818388D01*
X352044Y823744D01*
X352044Y831320D01*
X345533Y837831D01*
X344469Y838536D01*
X343090Y839915D01*
X341733Y841928D01*
X341230Y844405D01*
X341230Y846775D01*
X339413Y851162D01*
X335933Y854642D01*
X334658Y856470D01*
X334076Y858930D01*
X334500Y861421D01*
X335862Y863550D01*
X337946Y864979D01*
X340423Y865482D01*
X383559Y865482D01*
X384082Y865378D01*
X425890Y865378D01*
X428273Y864914D01*
X428723Y864616D01*
X436858Y864616D01*
X442214Y869972D01*
X442214Y877548D01*
X436858Y882904D01*
X436207Y882904D01*
X434930Y883158D01*
X390020Y883158D01*
X389498Y883262D01*
X295369Y883262D01*
X292102Y881909D01*
X271755Y861562D01*
X270402Y858295D01*
X270402Y855023D01*
X269938Y852640D01*
X269526Y852018D01*
X267354Y846775D01*
X267354Y842025D01*
X269171Y837638D01*
X272530Y834279D01*
X276917Y832462D01*
X281667Y832462D01*
X286622Y834515D01*
X288850Y834995D01*
X291341Y834571D01*
X293470Y833209D01*
X294899Y831125D01*
X295402Y828648D01*
X295402Y824205D01*
X294993Y821963D01*
X293648Y819824D01*
X291575Y818378D01*
X289103Y817855D01*
X286622Y818338D01*
X286502Y818388D01*
X154940Y818388D01*
X152651Y818815D01*
X150522Y820177D01*
X149093Y822261D01*
X148590Y824738D01*
X148590Y827268D01*
X147237Y830536D01*
X132036Y845737D01*
X128768Y847090D01*
X36332Y847090D01*
X33064Y845737D01*
X13380Y826053D01*
X11552Y824777D01*
X9092Y824196D01*
X6601Y824620D01*
X4472Y825982D01*
X3043Y828066D01*
X2540Y830543D01*
X2540Y947454D01*
X2541Y947456D01*
X2540Y949221D01*
X2594Y950050D01*
X4019Y960895D01*
X4448Y962497D01*
X5871Y965935D01*
X7038Y967776D01*
X9076Y969271D01*
X11535Y969853D01*
X14027Y969429D01*
X16156Y968067D01*
X17585Y965983D01*
X18088Y963506D01*
X18088Y960055D01*
X18861Y958188D01*
X20290Y956759D01*
X22157Y955985D01*
X24178Y955985D01*
X25253Y956431D01*
X27633Y956914D01*
X30113Y956431D01*
X31188Y955985D01*
X33209Y955985D01*
X34287Y956432D01*
X36667Y956915D01*
X39147Y956432D01*
X40225Y955985D01*
X42364Y955985D01*
X44048Y955985D01*
X47028Y957219D01*
X49407Y957703D01*
X51888Y957219D01*
X54867Y955985D01*
X56888Y955985D01*
X57963Y956431D01*
X60343Y956914D01*
X62823Y956431D01*
X63898Y955985D01*
X65919Y955985D01*
X67416Y956605D01*
X69694Y957087D01*
X72182Y956643D01*
X74300Y955265D01*
X75713Y953169D01*
X75898Y952723D01*
X76055Y952301D01*
X76306Y951548D01*
X76867Y950987D01*
X77174Y950657D01*
X77694Y950058D01*
X78427Y949754D01*
X78837Y949567D01*
X79962Y949004D01*
X79967Y949003D01*
X79981Y948995D01*
X80508Y948732D01*
X80484Y948684D01*
X82118Y947675D01*
X83580Y945614D01*
X84122Y943146D01*
X83659Y940661D01*
X82263Y938554D01*
X81405Y937696D01*
X81136Y937045D01*
X79830Y935057D01*
X77746Y933628D01*
X75269Y933125D01*
X61673Y933125D01*
X57907Y931565D01*
X55578Y931083D01*
X53093Y931546D01*
X52379Y932020D01*
X49709Y933125D01*
X42499Y933125D01*
X39209Y931762D01*
X36880Y931280D01*
X34395Y931743D01*
X34146Y931909D01*
X31208Y933125D01*
X22869Y933125D01*
X19757Y931836D01*
X17376Y929455D01*
X16087Y926343D01*
X16087Y924659D01*
X16087Y924659D01*
X16087Y913488D01*
X16860Y911621D01*
X18289Y910192D01*
X20156Y909419D01*
X22177Y909419D01*
X23252Y909864D01*
X25632Y910347D01*
X28112Y909864D01*
X29187Y909419D01*
X31208Y909419D01*
X33067Y910189D01*
X35447Y910672D01*
X37927Y910189D01*
X39786Y909419D01*
X45876Y909419D01*
X45877Y909419D01*
X47938Y909419D01*
X50580Y910691D01*
X53234Y911319D01*
X55718Y910856D01*
X56097Y910605D01*
X58960Y909419D01*
X61037Y909419D01*
X63307Y909880D01*
X65673Y909419D01*
X67810Y909419D01*
X70080Y909880D01*
X72446Y909419D01*
X74528Y909419D01*
X75895Y909985D01*
X77414Y910403D01*
X79938Y910260D01*
X83145Y909419D01*
X84009Y909419D01*
X86360Y910393D01*
X88740Y910876D01*
X91221Y910393D01*
X93572Y909419D01*
X95593Y909419D01*
X98099Y910457D01*
X98896Y910999D01*
X101369Y911522D01*
X103850Y911038D01*
X107760Y909419D01*
X116548Y909419D01*
X118415Y910192D01*
X119844Y911621D01*
X120618Y913488D01*
X120618Y917254D01*
X121009Y919448D01*
X122337Y921599D01*
X124398Y923061D01*
X126866Y923603D01*
X129351Y923140D01*
X131458Y921744D01*
X131721Y921481D01*
X132372Y921211D01*
X134360Y919906D01*
X135789Y917821D01*
X136292Y915345D01*
X136292Y913488D01*
X137065Y911621D01*
X138494Y910192D01*
X140361Y909419D01*
X142382Y909419D01*
X145416Y910675D01*
X145437Y910626D01*
X147132Y911204D01*
X149653Y911021D01*
X151207Y910226D01*
X155826Y909172D01*
X161510Y910469D01*
X161513Y910454D01*
X163066Y910782D01*
X165546Y910299D01*
X167672Y909419D01*
X169811Y909419D01*
X171495Y909419D01*
X173697Y910331D01*
X176674Y910790D01*
X179098Y910076D01*
X180118Y909536D01*
X182130Y909346D01*
X184344Y910027D01*
X186161Y910308D01*
X188642Y909825D01*
X189622Y909419D01*
X191643Y909419D01*
X193070Y910010D01*
X195450Y910493D01*
X197930Y910010D01*
X199357Y909419D01*
X201378Y909419D01*
X203470Y910285D01*
X205448Y911541D01*
X207949Y911907D01*
X210394Y911268D01*
X210969Y910826D01*
X211422Y910599D01*
X212225Y910063D01*
X212606Y909936D01*
X213438Y909592D01*
X213797Y909412D01*
X214132Y909345D01*
X214533Y909374D01*
X215433Y909374D01*
X215834Y909345D01*
X216169Y909412D01*
X216528Y909592D01*
X217360Y909936D01*
X217741Y910063D01*
X218025Y910253D01*
X218288Y910557D01*
X218925Y911193D01*
X219229Y911457D01*
X219418Y911740D01*
X219545Y912122D01*
X219890Y912953D01*
X220070Y913313D01*
X220258Y914259D01*
X226895Y934171D01*
X226752Y936187D01*
X225848Y937994D01*
X224321Y939318D01*
X222404Y939957D01*
X220388Y939814D01*
X217823Y938531D01*
X214583Y937874D01*
X212143Y938531D01*
X209578Y939814D01*
X207562Y939957D01*
X206618Y939643D01*
X204660Y939317D01*
X202180Y939800D01*
X201943Y939899D01*
X198793Y939899D01*
X197648Y939424D01*
X195269Y938941D01*
X192788Y939424D01*
X191643Y939899D01*
X189622Y939899D01*
X187755Y939125D01*
X186405Y937776D01*
X184485Y936459D01*
X182017Y935916D01*
X179532Y936380D01*
X177425Y937776D01*
X176075Y939125D01*
X174208Y939899D01*
X172187Y939899D01*
X170320Y939125D01*
X168891Y937696D01*
X168178Y935975D01*
X167577Y934855D01*
X165775Y933083D01*
X163425Y932154D01*
X160899Y932214D01*
X155826Y933372D01*
X151381Y932357D01*
X150513Y931831D01*
X148044Y931289D01*
X145560Y931752D01*
X145332Y931903D01*
X142382Y933125D01*
X133588Y933125D01*
X131721Y932352D01*
X131458Y932089D01*
X129629Y930814D01*
X127170Y930232D01*
X124679Y930656D01*
X122550Y932018D01*
X121121Y934102D01*
X120916Y935108D01*
X119844Y937696D01*
X118415Y939125D01*
X116548Y939899D01*
X107760Y939899D01*
X104249Y938444D01*
X101920Y937962D01*
X99436Y938425D01*
X98970Y938733D01*
X96157Y939899D01*
X92914Y939899D01*
X90991Y939468D01*
X88493Y939852D01*
X86343Y941180D01*
X84880Y943241D01*
X84338Y945710D01*
X84801Y948194D01*
X86197Y950301D01*
X87310Y951414D01*
X87580Y952065D01*
X88886Y954053D01*
X90970Y955482D01*
X93447Y955985D01*
X95454Y955985D01*
X95454Y955985D01*
X98378Y955985D01*
X103776Y958234D01*
X105259Y959730D01*
X105954Y960929D01*
X107397Y962636D01*
X109625Y963829D01*
X112142Y964058D01*
X114549Y963287D01*
X116465Y961639D01*
X119605Y957593D01*
X123003Y955959D01*
X124889Y955986D01*
X128936Y956044D01*
X132745Y957414D01*
X133696Y957756D01*
X134089Y958114D01*
X135793Y959224D01*
X138261Y959766D01*
X140745Y959303D01*
X142852Y957907D01*
X144001Y956759D01*
X145868Y955985D01*
X147945Y955985D01*
X150215Y956446D01*
X152581Y955985D01*
X154718Y955985D01*
X156988Y956446D01*
X159354Y955985D01*
X161436Y955985D01*
X163486Y956835D01*
X165865Y957318D01*
X168346Y956835D01*
X170396Y955985D01*
X172417Y955985D01*
X173492Y956431D01*
X175872Y956914D01*
X178352Y956431D01*
X179427Y955985D01*
X181448Y955985D01*
X183829Y956971D01*
X184857Y957670D01*
X187329Y958192D01*
X189810Y957709D01*
X193972Y955985D01*
X198238Y955985D01*
X202530Y957763D01*
X203799Y958633D01*
X206267Y959175D01*
X208751Y958712D01*
X210858Y957316D01*
X211416Y956759D01*
X213283Y955985D01*
X215360Y955985D01*
X217629Y956446D01*
X219995Y955985D01*
X222077Y955985D01*
X223944Y956759D01*
X225373Y958188D01*
X226271Y960354D01*
X226611Y962101D01*
X228006Y964208D01*
X228760Y964961D01*
X229533Y966828D01*
X229533Y968905D01*
X229072Y971175D01*
X229533Y973541D01*
X229533Y975622D01*
X228760Y977490D01*
X228006Y978243D01*
X226650Y980256D01*
X226281Y982071D01*
X225373Y984263D01*
X223429Y986207D01*
X222965Y986501D01*
X221469Y988538D01*
X220887Y990998D01*
X221309Y993489D01*
X222671Y995619D01*
X224754Y997049D01*
X227231Y997553D01*
X572550Y997693D01*
X573379Y997639D01*
X584230Y996215D01*
X585832Y995786D01*
X595943Y991601D01*
X597380Y990773D01*
X606063Y984113D01*
X607236Y982941D01*
X613899Y974260D01*
X614729Y972824D01*
X618918Y962714D01*
X619347Y961112D01*
X620776Y950262D01*
X620830Y949433D01*
X620830Y541395D01*
X620439Y539200D01*
X619111Y537050D01*
X617050Y535588D01*
G37*
%LPC*%
G36*
X256803Y896860D02*
X263781Y896860D01*
X270228Y899530D01*
X275162Y904464D01*
X277832Y910911D01*
X277832Y917889D01*
X275162Y924336D01*
X270228Y929270D01*
X263781Y931940D01*
X256803Y931940D01*
X250356Y929270D01*
X245422Y924336D01*
X242752Y917889D01*
X242752Y910911D01*
X245422Y904464D01*
X250356Y899530D01*
X256803Y896860D01*
G37*
G36*
X344803Y896860D02*
X351781Y896860D01*
X358228Y899530D01*
X363162Y904464D01*
X365832Y910911D01*
X365832Y917889D01*
X363162Y924336D01*
X358228Y929270D01*
X351781Y931940D01*
X344803Y931940D01*
X338356Y929270D01*
X333422Y924336D01*
X330752Y917889D01*
X330752Y910911D01*
X333422Y904464D01*
X338356Y899530D01*
X344803Y896860D01*
G37*
G36*
X205428Y862807D02*
X205829Y862779D01*
X206164Y862845D01*
X206523Y863025D01*
X207355Y863370D01*
X207737Y863497D01*
X208020Y863686D01*
X208284Y863990D01*
X208920Y864627D01*
X209224Y864890D01*
X209413Y865174D01*
X209541Y865555D01*
X209885Y866387D01*
X210065Y866746D01*
X210253Y867692D01*
X216890Y887604D01*
X216747Y889620D01*
X215843Y891428D01*
X214316Y892752D01*
X212399Y893391D01*
X210383Y893248D01*
X207818Y891965D01*
X204578Y891307D01*
X202138Y891965D01*
X199573Y893248D01*
X197557Y893391D01*
X195083Y892566D01*
X194693Y892321D01*
X192220Y891798D01*
X189740Y892281D01*
X187203Y893332D01*
X185295Y893332D01*
X185295Y893332D01*
X179769Y893332D01*
X176827Y892114D01*
X176826Y892113D01*
X176824Y892112D01*
X176735Y892075D01*
X176728Y892092D01*
X174353Y891590D01*
X171872Y892073D01*
X168834Y893332D01*
X164567Y893332D01*
X160625Y891699D01*
X156715Y887789D01*
X156643Y887861D01*
X155245Y886693D01*
X152827Y885958D01*
X150313Y886224D01*
X148103Y887449D01*
X146546Y889439D01*
X145551Y891428D01*
X144025Y892752D01*
X142107Y893391D01*
X140091Y893248D01*
X137526Y891965D01*
X134287Y891307D01*
X131846Y891965D01*
X129281Y893248D01*
X127265Y893391D01*
X125348Y892752D01*
X123821Y891428D01*
X123094Y889973D01*
X120878Y887491D01*
X118528Y886562D01*
X116001Y886622D01*
X115199Y886805D01*
X110754Y885791D01*
X109886Y885265D01*
X107417Y884722D01*
X104933Y885186D01*
X104705Y885337D01*
X101755Y886559D01*
X92961Y886559D01*
X91871Y886107D01*
X89139Y885631D01*
X86689Y886251D01*
X85996Y886585D01*
X84110Y886558D01*
X82275Y886532D01*
X78691Y885736D01*
X77017Y884982D01*
X77017Y884982D01*
X76096Y884567D01*
X74711Y883095D01*
X73994Y881206D01*
X74010Y880684D01*
X73586Y878202D01*
X72224Y876073D01*
X70140Y874644D01*
X67718Y874152D01*
X65824Y873367D01*
X64229Y871773D01*
X63265Y870278D01*
X61203Y868816D01*
X58735Y868274D01*
X56251Y868737D01*
X54144Y870133D01*
X52962Y871314D01*
X51965Y872609D01*
X51153Y875003D01*
X51339Y877523D01*
X52494Y879771D01*
X53758Y881352D01*
X54321Y883293D01*
X54098Y885302D01*
X53123Y887072D01*
X47183Y891823D01*
X46660Y892292D01*
X46184Y892768D01*
X45538Y892955D01*
X44875Y893188D01*
X44253Y893445D01*
X43584Y893371D01*
X42883Y893332D01*
X42209Y893332D01*
X41620Y893007D01*
X40987Y892703D01*
X40365Y892445D01*
X39944Y891920D01*
X39476Y891396D01*
X39000Y890920D01*
X38813Y890274D01*
X38580Y889611D01*
X38323Y888989D01*
X38397Y888320D01*
X38436Y887619D01*
X38436Y877907D01*
X37990Y875571D01*
X36612Y873453D01*
X35375Y872619D01*
X33565Y870810D01*
X32791Y868942D01*
X32791Y866922D01*
X33565Y865054D01*
X34994Y863625D01*
X36861Y862852D01*
X50171Y862852D01*
X52038Y863625D01*
X54075Y865663D01*
X54266Y865961D01*
X56316Y867439D01*
X58780Y868001D01*
X61268Y867557D01*
X63386Y866178D01*
X63621Y865828D01*
X65824Y863625D01*
X67691Y862852D01*
X70841Y862852D01*
X72563Y863565D01*
X75295Y864041D01*
X77745Y863421D01*
X78983Y862826D01*
X80869Y862853D01*
X84916Y862910D01*
X88725Y864281D01*
X90307Y864850D01*
X90666Y865084D01*
X93134Y865626D01*
X95619Y865163D01*
X97725Y863767D01*
X97867Y863625D01*
X99734Y862852D01*
X101755Y862852D01*
X103284Y863485D01*
X105664Y863969D01*
X108144Y863485D01*
X109673Y862852D01*
X118012Y862852D01*
X121124Y864141D01*
X121670Y864687D01*
X123185Y865807D01*
X125609Y866523D01*
X128120Y866237D01*
X130321Y864994D01*
X130744Y864626D01*
X131381Y863990D01*
X131644Y863686D01*
X131928Y863497D01*
X132309Y863370D01*
X133141Y863025D01*
X133500Y862845D01*
X133835Y862779D01*
X134236Y862807D01*
X135136Y862807D01*
X135537Y862779D01*
X135872Y862845D01*
X136232Y863025D01*
X137063Y863370D01*
X137445Y863497D01*
X137728Y863686D01*
X137992Y863990D01*
X138628Y864627D01*
X138932Y864890D01*
X139122Y865174D01*
X139249Y865555D01*
X139593Y866387D01*
X139773Y866746D01*
X139961Y867692D01*
X143602Y878614D01*
X144926Y880877D01*
X146964Y882371D01*
X149423Y882953D01*
X151915Y882529D01*
X154044Y881167D01*
X155473Y879083D01*
X155976Y876606D01*
X155976Y871443D01*
X157609Y867502D01*
X160625Y864485D01*
X164567Y862852D01*
X168834Y862852D01*
X171872Y864111D01*
X174201Y864593D01*
X176686Y864130D01*
X176731Y864100D01*
X176735Y864109D01*
X179769Y862852D01*
X187203Y862852D01*
X190730Y864313D01*
X191502Y865085D01*
X193018Y866205D01*
X195441Y866921D01*
X197952Y866635D01*
X200153Y865392D01*
X201036Y864627D01*
X201673Y863990D01*
X201936Y863686D01*
X202220Y863497D01*
X202601Y863370D01*
X203433Y863025D01*
X203792Y862845D01*
X204127Y862779D01*
X204528Y862807D01*
X205428Y862807D01*
G37*
%LPD*%
G36*
X580364Y212593D02*
X577887Y212090D01*
X548572Y212090D01*
X547224Y212235D01*
X544910Y213252D01*
X543177Y215091D01*
X542298Y217461D01*
X542413Y219985D01*
X543504Y222265D01*
X545397Y223939D01*
X546368Y224500D01*
X550300Y228432D01*
X553081Y233248D01*
X554520Y238619D01*
X554520Y244181D01*
X553804Y246853D01*
X553755Y249944D01*
X554809Y252240D01*
X556675Y253944D01*
X559059Y254785D01*
X561581Y254630D01*
X565590Y253556D01*
X565590Y270590D01*
X548556Y270590D01*
X548996Y268947D01*
X549045Y265856D01*
X547991Y263560D01*
X546125Y261856D01*
X543741Y261015D01*
X541219Y261170D01*
X536181Y262520D01*
X530619Y262520D01*
X526947Y261536D01*
X523856Y261487D01*
X521560Y262541D01*
X519856Y264407D01*
X519015Y266791D01*
X519170Y269313D01*
X519520Y270619D01*
X519520Y276181D01*
X518081Y281552D01*
X515300Y286368D01*
X511368Y290300D01*
X506552Y293081D01*
X501181Y294520D01*
X495619Y294520D01*
X490248Y293081D01*
X485432Y290300D01*
X481500Y286368D01*
X478795Y281682D01*
X477926Y280513D01*
X475865Y279051D01*
X473397Y278508D01*
X470912Y278972D01*
X468805Y280367D01*
X462236Y286937D01*
X458968Y288290D01*
X438875Y288290D01*
X436680Y288681D01*
X434530Y290009D01*
X433068Y292070D01*
X432525Y294539D01*
X432989Y297023D01*
X434385Y299130D01*
X464737Y329482D01*
X466090Y332750D01*
X466090Y379346D01*
X466344Y380650D01*
X466344Y391439D01*
X466090Y392690D01*
X466090Y478474D01*
X466481Y480669D01*
X467809Y482819D01*
X469870Y484281D01*
X472339Y484824D01*
X474823Y484360D01*
X476930Y482965D01*
X479464Y480430D01*
X485911Y477760D01*
X492889Y477760D01*
X499336Y480430D01*
X504270Y485364D01*
X506940Y491811D01*
X506940Y498789D01*
X504270Y505236D01*
X499336Y510170D01*
X492889Y512840D01*
X485911Y512840D01*
X479464Y510170D01*
X476930Y507635D01*
X475102Y506360D01*
X472642Y505779D01*
X470151Y506203D01*
X468022Y507564D01*
X466593Y509649D01*
X466090Y512126D01*
X466090Y528760D01*
X466344Y530064D01*
X466344Y539220D01*
X460988Y544576D01*
X453358Y544576D01*
X451462Y543309D01*
X450640Y542969D01*
X427819Y520148D01*
X426466Y516880D01*
X426466Y514418D01*
X426212Y513114D01*
X426212Y503958D01*
X431568Y498602D01*
X440984Y498602D01*
X441758Y498785D01*
X444249Y498361D01*
X446378Y496999D01*
X447807Y494915D01*
X448310Y492438D01*
X448310Y446854D01*
X447919Y444659D01*
X446591Y442509D01*
X444530Y441047D01*
X442061Y440505D01*
X441067Y440690D01*
X439166Y440690D01*
X439166Y422402D01*
X440984Y422402D01*
X441758Y422585D01*
X444249Y422161D01*
X446378Y420799D01*
X447807Y418715D01*
X448310Y416238D01*
X448310Y392690D01*
X448056Y391386D01*
X448056Y380597D01*
X448310Y379346D01*
X448310Y340831D01*
X447846Y338447D01*
X446450Y336341D01*
X437486Y327376D01*
X435565Y326059D01*
X433097Y325517D01*
X430612Y325980D01*
X428505Y327376D01*
X422380Y333502D01*
X413171Y333502D01*
X411920Y333248D01*
X405902Y333248D01*
X402634Y331895D01*
X401276Y330536D01*
X399262Y329179D01*
X396785Y328676D01*
X382995Y328676D01*
X380800Y329067D01*
X378650Y330395D01*
X377188Y332456D01*
X376645Y334925D01*
X377109Y337409D01*
X378505Y339516D01*
X394400Y355411D01*
X396460Y356788D01*
X399127Y357892D01*
X401822Y360587D01*
X403280Y364108D01*
X403280Y367920D01*
X401822Y371441D01*
X399127Y374136D01*
X395606Y375594D01*
X391794Y375594D01*
X387771Y373928D01*
X341967Y328124D01*
X340614Y324856D01*
X340614Y298413D01*
X340150Y296029D01*
X338754Y293923D01*
X327906Y283075D01*
X326124Y281821D01*
X323669Y281220D01*
X321174Y281624D01*
X319035Y282968D01*
X317589Y285041D01*
X317066Y287514D01*
X317549Y289995D01*
X318510Y292313D01*
X318510Y295951D01*
X317118Y299312D01*
X314087Y302342D01*
X312771Y304262D01*
X312228Y306731D01*
X312692Y309215D01*
X314087Y311322D01*
X317118Y314352D01*
X318510Y317713D01*
X318510Y321351D01*
X317118Y324712D01*
X314545Y327284D01*
X311185Y328676D01*
X294339Y328676D01*
X290978Y327284D01*
X288406Y324712D01*
X287014Y321351D01*
X287014Y317713D01*
X288406Y314352D01*
X288896Y313862D01*
X290171Y312034D01*
X290753Y309574D01*
X290329Y307083D01*
X288967Y304954D01*
X286883Y303525D01*
X284406Y303022D01*
X268872Y303022D01*
X266489Y303486D01*
X264382Y304882D01*
X257788Y311476D01*
X250212Y311476D01*
X244856Y306120D01*
X244856Y298544D01*
X246302Y297098D01*
X247577Y295270D01*
X248159Y292810D01*
X247735Y290319D01*
X246373Y288190D01*
X244289Y286761D01*
X241812Y286258D01*
X223588Y286258D01*
X221393Y286649D01*
X219243Y287977D01*
X217781Y290038D01*
X217239Y292507D01*
X217702Y294991D01*
X219098Y297098D01*
X225022Y303022D01*
X206778Y303022D01*
X212702Y297098D01*
X213977Y295270D01*
X214559Y292810D01*
X214135Y290319D01*
X212773Y288190D01*
X210689Y286761D01*
X208212Y286258D01*
X186145Y286258D01*
X183761Y286722D01*
X181655Y288118D01*
X132036Y337737D01*
X128768Y339090D01*
X35523Y339090D01*
X33139Y339554D01*
X31033Y340950D01*
X27260Y344723D01*
X25903Y346736D01*
X25400Y349213D01*
X25400Y474889D01*
X25809Y477130D01*
X27154Y479270D01*
X29227Y480716D01*
X31699Y481238D01*
X34180Y480755D01*
X41411Y477760D01*
X48389Y477760D01*
X54836Y480430D01*
X59770Y485364D01*
X62440Y491811D01*
X62440Y498789D01*
X59770Y505236D01*
X54836Y510170D01*
X48389Y512840D01*
X41411Y512840D01*
X34180Y509845D01*
X31952Y509365D01*
X29461Y509788D01*
X27332Y511150D01*
X25903Y513235D01*
X25400Y515711D01*
X25400Y665389D01*
X25809Y667630D01*
X27154Y669770D01*
X29227Y671216D01*
X31699Y671738D01*
X34180Y671255D01*
X41411Y668260D01*
X48389Y668260D01*
X54836Y670930D01*
X59770Y675864D01*
X62440Y682311D01*
X62440Y689289D01*
X59770Y695736D01*
X54836Y700670D01*
X48389Y703340D01*
X41411Y703340D01*
X34180Y700345D01*
X31952Y699865D01*
X29461Y700288D01*
X27332Y701650D01*
X25903Y703735D01*
X25400Y706211D01*
X25400Y810297D01*
X25864Y812681D01*
X27260Y814788D01*
X39923Y827450D01*
X41936Y828807D01*
X44413Y829310D01*
X55050Y829310D01*
X57245Y828919D01*
X59395Y827591D01*
X60857Y825530D01*
X61399Y823061D01*
X60936Y820577D01*
X59540Y818470D01*
X54356Y813286D01*
X54356Y805127D01*
X54507Y804903D01*
X55010Y802426D01*
X55010Y766423D01*
X54546Y764040D01*
X54134Y763418D01*
X51962Y758175D01*
X51962Y753425D01*
X53779Y749038D01*
X57138Y745679D01*
X61525Y743862D01*
X66275Y743862D01*
X71230Y745915D01*
X73458Y746395D01*
X75949Y745971D01*
X78078Y744609D01*
X79507Y742525D01*
X80010Y740048D01*
X80010Y607832D01*
X81363Y604564D01*
X90596Y595332D01*
X91339Y594230D01*
X97812Y587756D01*
X105388Y587756D01*
X110744Y593112D01*
X110744Y600688D01*
X104233Y607199D01*
X103169Y607904D01*
X99650Y611423D01*
X98293Y613436D01*
X97790Y615913D01*
X97790Y740048D01*
X98199Y742290D01*
X99544Y744429D01*
X101617Y745875D01*
X104089Y746398D01*
X106570Y745915D01*
X110090Y744457D01*
X110090Y767143D01*
X107138Y765921D01*
X105890Y764673D01*
X103970Y763356D01*
X101501Y762814D01*
X99017Y763277D01*
X96910Y764673D01*
X95662Y765921D01*
X91275Y767738D01*
X86525Y767738D01*
X81570Y765685D01*
X79342Y765205D01*
X76851Y765629D01*
X74722Y766991D01*
X73293Y769075D01*
X72790Y771552D01*
X72790Y811748D01*
X72644Y812482D01*
X72644Y813286D01*
X67460Y818470D01*
X66185Y820298D01*
X65603Y822758D01*
X66027Y825249D01*
X67389Y827378D01*
X69473Y828807D01*
X71950Y829310D01*
X120687Y829310D01*
X123071Y828846D01*
X125178Y827450D01*
X128950Y823678D01*
X130307Y821664D01*
X130810Y819187D01*
X130810Y816170D01*
X130556Y814866D01*
X130556Y805710D01*
X135912Y800354D01*
X145121Y800354D01*
X146372Y800608D01*
X278421Y800608D01*
X280805Y800144D01*
X282912Y798748D01*
X312376Y769284D01*
X313651Y767456D01*
X314232Y764996D01*
X313808Y762505D01*
X312447Y760376D01*
X310362Y758947D01*
X307885Y758444D01*
X299379Y758444D01*
X298128Y758190D01*
X284236Y758190D01*
X280968Y756837D01*
X269196Y745064D01*
X267182Y743707D01*
X264705Y743204D01*
X262341Y743204D01*
X258980Y741812D01*
X256408Y739240D01*
X255016Y735879D01*
X255016Y732241D01*
X256408Y728880D01*
X259438Y725850D01*
X260755Y723930D01*
X261297Y721461D01*
X260834Y718977D01*
X259438Y716870D01*
X255984Y713416D01*
X255261Y712333D01*
X246336Y703408D01*
X244322Y702051D01*
X241845Y701548D01*
X239481Y701548D01*
X236120Y700156D01*
X233090Y697126D01*
X231170Y695809D01*
X228701Y695267D01*
X226217Y695730D01*
X224110Y697126D01*
X221080Y700156D01*
X217719Y701548D01*
X214081Y701548D01*
X210720Y700156D01*
X207423Y696859D01*
X207268Y696622D01*
X205183Y695193D01*
X202707Y694690D01*
X199146Y694690D01*
X195878Y693337D01*
X170263Y667722D01*
X168910Y664454D01*
X168910Y603572D01*
X168656Y602268D01*
X168656Y593112D01*
X174012Y587756D01*
X181588Y587756D01*
X186944Y593112D01*
X186944Y602321D01*
X186690Y603572D01*
X186690Y656373D01*
X187154Y658757D01*
X188550Y660864D01*
X200435Y672749D01*
X202356Y674066D01*
X204824Y674608D01*
X207309Y674145D01*
X209416Y672749D01*
X210720Y671444D01*
X213502Y670292D01*
X215417Y669056D01*
X216879Y666995D01*
X217422Y664526D01*
X216958Y662042D01*
X215563Y659935D01*
X208617Y652990D01*
X207264Y649722D01*
X207264Y550492D01*
X207010Y549188D01*
X207010Y538399D01*
X207264Y537148D01*
X207264Y520913D01*
X206800Y518529D01*
X205404Y516423D01*
X126307Y437325D01*
X124340Y435988D01*
X121867Y435466D01*
X119387Y435949D01*
X116275Y437238D01*
X111525Y437238D01*
X106348Y435093D01*
X105754Y434693D01*
X103277Y434190D01*
X99523Y434190D01*
X97140Y434654D01*
X96518Y435066D01*
X91275Y437238D01*
X86525Y437238D01*
X82138Y435421D01*
X80890Y434173D01*
X78970Y432856D01*
X76501Y432314D01*
X74017Y432777D01*
X71910Y434173D01*
X70662Y435421D01*
X66275Y437238D01*
X61525Y437238D01*
X57138Y435421D01*
X53779Y432062D01*
X51962Y427675D01*
X51962Y422925D01*
X53779Y418538D01*
X57138Y415179D01*
X57294Y415115D01*
X59282Y413809D01*
X60711Y411725D01*
X61214Y409248D01*
X61214Y409194D01*
X60787Y406905D01*
X59425Y404776D01*
X57341Y403347D01*
X55282Y402929D01*
X51716Y401452D01*
X49144Y398880D01*
X47752Y395519D01*
X47752Y391881D01*
X49144Y388520D01*
X52174Y385490D01*
X53491Y383570D01*
X54033Y381101D01*
X53570Y378617D01*
X52174Y376510D01*
X49144Y373480D01*
X47752Y370119D01*
X47752Y366481D01*
X49144Y363120D01*
X51716Y360548D01*
X55077Y359156D01*
X72522Y359156D01*
X73799Y359410D01*
X94928Y359410D01*
X96232Y359156D01*
X105388Y359156D01*
X110744Y364512D01*
X110744Y372088D01*
X105388Y377444D01*
X96179Y377444D01*
X94928Y377190D01*
X81856Y377190D01*
X79661Y377581D01*
X77511Y378909D01*
X76049Y380970D01*
X75507Y383439D01*
X75970Y385923D01*
X77366Y388030D01*
X77856Y388520D01*
X79248Y391881D01*
X79248Y396118D01*
X78994Y397395D01*
X78994Y407012D01*
X79421Y409301D01*
X80783Y411430D01*
X82867Y412859D01*
X85344Y413362D01*
X91275Y413362D01*
X96452Y415507D01*
X97046Y415907D01*
X99523Y416410D01*
X103277Y416410D01*
X105660Y415946D01*
X106282Y415534D01*
X111525Y413362D01*
X116275Y413362D01*
X121602Y415569D01*
X124032Y416052D01*
X132625Y416052D01*
X135009Y415588D01*
X137116Y414192D01*
X160937Y390371D01*
X162274Y388404D01*
X162797Y385931D01*
X162314Y383450D01*
X162052Y382819D01*
X162052Y379181D01*
X163444Y375820D01*
X166474Y372790D01*
X167791Y370870D01*
X168333Y368401D01*
X167870Y365917D01*
X166474Y363810D01*
X163444Y360780D01*
X162052Y357419D01*
X162052Y353781D01*
X163444Y350420D01*
X166741Y347123D01*
X166978Y346968D01*
X168407Y344883D01*
X168910Y342407D01*
X168910Y336872D01*
X168656Y335568D01*
X168656Y326412D01*
X174012Y321056D01*
X181588Y321056D01*
X186944Y326412D01*
X186944Y335621D01*
X186690Y336872D01*
X186690Y342407D01*
X187136Y344743D01*
X188515Y346861D01*
X188766Y347031D01*
X192156Y350420D01*
X193548Y353781D01*
X193548Y357419D01*
X192156Y360780D01*
X189126Y363810D01*
X187809Y365730D01*
X187267Y368199D01*
X187730Y370683D01*
X189126Y372790D01*
X192156Y375820D01*
X193548Y379181D01*
X193548Y382819D01*
X192156Y386180D01*
X189584Y388752D01*
X187536Y389600D01*
X185476Y390977D01*
X149780Y426673D01*
X148463Y428593D01*
X147920Y431062D01*
X148384Y433546D01*
X149780Y435653D01*
X223691Y509564D01*
X225044Y512832D01*
X225044Y537148D01*
X225298Y538453D01*
X225298Y549241D01*
X225044Y550492D01*
X225044Y641641D01*
X225508Y644025D01*
X226904Y646132D01*
X234772Y653999D01*
X236600Y655274D01*
X239059Y655856D01*
X241551Y655432D01*
X243680Y654070D01*
X243707Y654031D01*
X243707Y654812D01*
X257550Y654812D01*
X257550Y660146D01*
X255060Y660146D01*
X252818Y660555D01*
X250679Y661900D01*
X249233Y663973D01*
X248710Y666445D01*
X249194Y668926D01*
X250190Y671332D01*
X250190Y675501D01*
X250444Y676778D01*
X250444Y679741D01*
X250908Y682125D01*
X252304Y684232D01*
X265729Y697656D01*
X267742Y699013D01*
X270219Y699516D01*
X279187Y699516D01*
X282548Y700908D01*
X285120Y703480D01*
X286512Y706841D01*
X286512Y710479D01*
X285120Y713840D01*
X282090Y716870D01*
X280773Y718790D01*
X280231Y721259D01*
X280694Y723743D01*
X282090Y725850D01*
X285120Y728880D01*
X286512Y732241D01*
X286512Y734060D01*
X286939Y736349D01*
X288301Y738478D01*
X290385Y739907D01*
X292862Y740410D01*
X298128Y740410D01*
X299432Y740156D01*
X308588Y740156D01*
X313944Y745512D01*
X313944Y752385D01*
X314335Y754580D01*
X315663Y756730D01*
X317724Y758192D01*
X320193Y758735D01*
X322677Y758271D01*
X324784Y756876D01*
X331896Y749764D01*
X333253Y747750D01*
X333322Y747412D01*
X333507Y747137D01*
X334010Y744660D01*
X334010Y722345D01*
X333546Y719962D01*
X332150Y717855D01*
X276077Y661782D01*
X274110Y660445D01*
X271638Y659922D01*
X270488Y660146D01*
X265170Y660146D01*
X265170Y647192D01*
X246437Y647192D01*
X247004Y645822D01*
X250034Y642792D01*
X251351Y640872D01*
X251893Y638403D01*
X251430Y635919D01*
X250034Y633812D01*
X247004Y630782D01*
X245612Y627421D01*
X245612Y623783D01*
X247004Y620422D01*
X250034Y617392D01*
X251351Y615472D01*
X251893Y613003D01*
X251430Y610519D01*
X250034Y608412D01*
X247004Y605382D01*
X246437Y604012D01*
X265170Y604012D01*
X265170Y596392D01*
X246437Y596392D01*
X247004Y595022D01*
X250034Y591992D01*
X251351Y590072D01*
X251893Y587603D01*
X251430Y585119D01*
X250034Y583012D01*
X247004Y579982D01*
X245612Y576621D01*
X245612Y572983D01*
X247004Y569622D01*
X250034Y566592D01*
X251351Y564672D01*
X251893Y562203D01*
X251430Y559719D01*
X250034Y557612D01*
X247004Y554582D01*
X246437Y553212D01*
X265170Y553212D01*
X265170Y545592D01*
X246437Y545592D01*
X247004Y544222D01*
X250034Y541192D01*
X251351Y539272D01*
X251893Y536803D01*
X251430Y534319D01*
X250034Y532212D01*
X247004Y529182D01*
X245612Y525821D01*
X245612Y522183D01*
X247004Y518822D01*
X250034Y515792D01*
X251351Y513872D01*
X251893Y511403D01*
X251430Y508919D01*
X250034Y506812D01*
X247004Y503782D01*
X246437Y502412D01*
X265170Y502412D01*
X265170Y489458D01*
X269234Y489458D01*
X271523Y489031D01*
X273652Y487669D01*
X275081Y485585D01*
X275584Y483108D01*
X275584Y463058D01*
X276937Y459790D01*
X286976Y449752D01*
X288251Y447924D01*
X288832Y445464D01*
X288408Y442973D01*
X287047Y440844D01*
X284962Y439415D01*
X282485Y438912D01*
X282361Y438912D01*
X281110Y438658D01*
X239985Y438658D01*
X237602Y439122D01*
X235495Y440518D01*
X234854Y441159D01*
X230830Y442826D01*
X228770Y444202D01*
X226904Y446069D01*
X225547Y448082D01*
X225044Y450559D01*
X225044Y460948D01*
X225298Y462253D01*
X225298Y471408D01*
X219942Y476764D01*
X212366Y476764D01*
X207010Y471408D01*
X207010Y462199D01*
X207264Y460948D01*
X207264Y442478D01*
X208617Y439210D01*
X216198Y431630D01*
X217574Y429570D01*
X219241Y425546D01*
X221197Y423590D01*
X222514Y421670D01*
X223056Y419201D01*
X222593Y416717D01*
X221197Y414610D01*
X219241Y412654D01*
X218229Y410210D01*
X238971Y410210D01*
X238189Y412098D01*
X237709Y414326D01*
X238133Y416817D01*
X239495Y418946D01*
X241579Y420375D01*
X244056Y420878D01*
X281110Y420878D01*
X282414Y420624D01*
X291338Y420624D01*
X293627Y420197D01*
X295756Y418835D01*
X297185Y416751D01*
X297688Y414274D01*
X297688Y411440D01*
X297871Y410666D01*
X297447Y408175D01*
X296085Y406046D01*
X294001Y404617D01*
X291524Y404114D01*
X288046Y404114D01*
X284778Y402761D01*
X262338Y380320D01*
X261236Y379577D01*
X254762Y373104D01*
X254762Y365528D01*
X260118Y360172D01*
X267694Y360172D01*
X274205Y366683D01*
X274910Y367748D01*
X291637Y384474D01*
X293650Y385831D01*
X296127Y386334D01*
X328862Y386334D01*
X331057Y385943D01*
X333207Y384615D01*
X334669Y382554D01*
X335211Y380085D01*
X334748Y377601D01*
X333352Y375494D01*
X330962Y373104D01*
X330962Y365528D01*
X336318Y360172D01*
X345527Y360172D01*
X345933Y360255D01*
X349615Y361779D01*
X416413Y428577D01*
X418333Y429894D01*
X420802Y430436D01*
X423286Y429973D01*
X425393Y428577D01*
X431546Y422424D01*
X431546Y440690D01*
X429768Y440690D01*
X427479Y441117D01*
X425350Y442479D01*
X423921Y444563D01*
X423418Y447040D01*
X423418Y469578D01*
X422065Y472845D01*
X406482Y488428D01*
X405125Y490441D01*
X404622Y492918D01*
X404622Y525407D01*
X405086Y527790D01*
X406482Y529897D01*
X425875Y549290D01*
X427228Y552557D01*
X427228Y558174D01*
X427692Y560558D01*
X429088Y562664D01*
X444700Y578276D01*
X446713Y579633D01*
X449190Y580136D01*
X515810Y580136D01*
X519078Y581489D01*
X525179Y587591D01*
X527099Y588907D01*
X529568Y589450D01*
X532052Y588986D01*
X534159Y587591D01*
X594840Y526910D01*
X596197Y524896D01*
X596700Y522419D01*
X596700Y515794D01*
X596291Y513552D01*
X594946Y511413D01*
X592873Y509967D01*
X590401Y509444D01*
X587920Y509928D01*
X580889Y512840D01*
X573911Y512840D01*
X567464Y510170D01*
X562530Y505236D01*
X559860Y498789D01*
X559860Y491811D01*
X562530Y485364D01*
X567464Y480430D01*
X573911Y477760D01*
X580889Y477760D01*
X587920Y480672D01*
X590148Y481153D01*
X592639Y480729D01*
X594768Y479367D01*
X596197Y477282D01*
X596700Y474806D01*
X596700Y292298D01*
X596309Y290104D01*
X594981Y287954D01*
X592920Y286492D01*
X590451Y285949D01*
X587967Y286413D01*
X585860Y287808D01*
X582368Y291300D01*
X577552Y294081D01*
X573210Y295244D01*
X573210Y253556D01*
X577552Y254719D01*
X582368Y257500D01*
X585860Y260992D01*
X587688Y262267D01*
X590148Y262848D01*
X592639Y262425D01*
X594768Y261063D01*
X596197Y258978D01*
X596700Y256502D01*
X596700Y230903D01*
X596236Y228519D01*
X594840Y226413D01*
X582378Y213950D01*
X580364Y212593D01*
G37*
%LPC*%
G36*
X117710Y759610D02*
X125243Y759610D01*
X124021Y762562D01*
X120662Y765921D01*
X117710Y767143D01*
X117710Y759610D01*
G37*
G36*
X117710Y751990D02*
X117710Y744457D01*
X120662Y745679D01*
X124021Y749038D01*
X125243Y751990D01*
X117710Y751990D01*
G37*
G36*
X129411Y668260D02*
X136389Y668260D01*
X142836Y670930D01*
X147770Y675864D01*
X150440Y682311D01*
X150440Y689289D01*
X147770Y695736D01*
X142836Y700670D01*
X136389Y703340D01*
X129411Y703340D01*
X122964Y700670D01*
X118030Y695736D01*
X115360Y689289D01*
X115360Y682311D01*
X118030Y675864D01*
X122964Y670930D01*
X129411Y668260D01*
G37*
G36*
X129411Y477760D02*
X136389Y477760D01*
X142836Y480430D01*
X147770Y485364D01*
X150440Y491811D01*
X150440Y498789D01*
X147770Y505236D01*
X142836Y510170D01*
X136389Y512840D01*
X129411Y512840D01*
X122964Y510170D01*
X118030Y505236D01*
X115360Y498789D01*
X115360Y491811D01*
X118030Y485364D01*
X122964Y480430D01*
X129411Y477760D01*
G37*
G36*
X252937Y489458D02*
X257550Y489458D01*
X257550Y494792D01*
X246437Y494792D01*
X247004Y493422D01*
X249576Y490850D01*
X252937Y489458D01*
G37*
G36*
X530619Y300280D02*
X536181Y300280D01*
X541552Y301719D01*
X546368Y304500D01*
X550300Y308432D01*
X553081Y313248D01*
X554520Y318619D01*
X554520Y324181D01*
X553081Y329552D01*
X550300Y334368D01*
X546368Y338300D01*
X545465Y338822D01*
X544222Y339760D01*
X542793Y341844D01*
X542290Y344321D01*
X542290Y356696D01*
X540937Y359964D01*
X534867Y366034D01*
X533591Y367862D01*
X533010Y370322D01*
X533434Y372813D01*
X534796Y374942D01*
X536259Y375945D01*
X542544Y382230D01*
X542544Y391439D01*
X542290Y392690D01*
X542290Y409548D01*
X542699Y411790D01*
X544044Y413929D01*
X546117Y415375D01*
X548589Y415898D01*
X551070Y415415D01*
X556025Y413362D01*
X560775Y413362D01*
X565162Y415179D01*
X568521Y418538D01*
X570338Y422925D01*
X570338Y427675D01*
X568521Y432062D01*
X565162Y435421D01*
X560775Y437238D01*
X556025Y437238D01*
X550848Y435093D01*
X550254Y434693D01*
X547777Y434190D01*
X544023Y434190D01*
X541640Y434654D01*
X541018Y435066D01*
X535775Y437238D01*
X531025Y437238D01*
X526638Y435421D01*
X525390Y434173D01*
X523470Y432856D01*
X521001Y432314D01*
X518517Y432777D01*
X516410Y434173D01*
X515162Y435421D01*
X510775Y437238D01*
X506025Y437238D01*
X501638Y435421D01*
X498279Y432062D01*
X496462Y427675D01*
X496462Y422925D01*
X498607Y417748D01*
X499007Y417154D01*
X499510Y414677D01*
X499510Y378160D01*
X500863Y374892D01*
X522650Y353106D01*
X524007Y351092D01*
X524510Y348615D01*
X524510Y344321D01*
X524319Y342775D01*
X523228Y340495D01*
X521335Y338822D01*
X520432Y338300D01*
X516500Y334368D01*
X513719Y329552D01*
X512280Y324181D01*
X512280Y318619D01*
X513719Y313248D01*
X516500Y308432D01*
X520432Y304500D01*
X525248Y301719D01*
X530619Y300280D01*
G37*
G36*
X218229Y384810D02*
X238971Y384810D01*
X237959Y387254D01*
X236003Y389210D01*
X234686Y391130D01*
X234144Y393599D01*
X234607Y396083D01*
X236003Y398190D01*
X237959Y400146D01*
X238971Y402590D01*
X218229Y402590D01*
X219241Y400146D01*
X221197Y398190D01*
X222514Y396270D01*
X223056Y393801D01*
X222593Y391317D01*
X221197Y389210D01*
X219241Y387254D01*
X218229Y384810D01*
G37*
G36*
X232410Y377190D02*
X232410Y370629D01*
X234854Y371641D01*
X237959Y374746D01*
X238971Y377190D01*
X232410Y377190D01*
G37*
G36*
X222346Y371641D02*
X224790Y370629D01*
X224790Y377190D01*
X218229Y377190D01*
X219241Y374746D01*
X222346Y371641D01*
G37*
G36*
X219710Y310642D02*
X225022Y310642D01*
X219710Y315954D01*
X219710Y310642D01*
G37*
G36*
X206778Y310642D02*
X212090Y310642D01*
X212090Y315954D01*
X206778Y310642D01*
G37*
G36*
X548556Y278210D02*
X565590Y278210D01*
X565590Y295244D01*
X561248Y294081D01*
X556432Y291300D01*
X552500Y287368D01*
X549719Y282552D01*
X548556Y278210D01*
G37*
%LPD*%
G36*
X329883Y404617D02*
X327406Y404114D01*
X322580Y404114D01*
X320291Y404541D01*
X318162Y405903D01*
X316733Y407987D01*
X316230Y410464D01*
X316230Y418928D01*
X315976Y420205D01*
X315976Y420856D01*
X311554Y425278D01*
X310237Y427198D01*
X309695Y429667D01*
X310158Y432151D01*
X311554Y434258D01*
X315976Y438680D01*
X315976Y446256D01*
X309465Y452767D01*
X308401Y453472D01*
X295224Y466649D01*
X293867Y468662D01*
X293364Y471139D01*
X293364Y651293D01*
X293828Y653677D01*
X295224Y655784D01*
X350437Y710996D01*
X351790Y714264D01*
X351790Y740560D01*
X352217Y742849D01*
X353579Y744978D01*
X355663Y746407D01*
X358140Y746910D01*
X497777Y746910D01*
X500160Y746446D01*
X500782Y746034D01*
X506025Y743862D01*
X510775Y743862D01*
X515730Y745915D01*
X517958Y746395D01*
X520449Y745971D01*
X522578Y744609D01*
X524007Y742525D01*
X524510Y740048D01*
X524510Y647513D01*
X524046Y645129D01*
X522650Y643023D01*
X501606Y621978D01*
X499592Y620621D01*
X497115Y620118D01*
X464276Y620118D01*
X461893Y620582D01*
X461600Y620776D01*
X453412Y620776D01*
X446906Y614269D01*
X444985Y612952D01*
X442517Y612410D01*
X440032Y612873D01*
X437925Y614269D01*
X397050Y655145D01*
X393656Y658539D01*
X390388Y659892D01*
X347859Y659892D01*
X346582Y660146D01*
X329137Y660146D01*
X325776Y658754D01*
X323204Y656182D01*
X321812Y652821D01*
X321812Y649183D01*
X323204Y645822D01*
X326234Y642792D01*
X327551Y640872D01*
X328093Y638403D01*
X327630Y635919D01*
X326234Y633812D01*
X323204Y630782D01*
X322637Y629412D01*
X352483Y629412D01*
X351916Y630782D01*
X351425Y631272D01*
X350150Y633100D01*
X349569Y635560D01*
X349993Y638051D01*
X351354Y640180D01*
X353439Y641609D01*
X355916Y642112D01*
X382307Y642112D01*
X384691Y641648D01*
X386797Y640252D01*
X397465Y629584D01*
X398741Y627756D01*
X399322Y625296D01*
X398898Y622805D01*
X397536Y620676D01*
X397497Y620649D01*
X397510Y620649D01*
X397510Y613410D01*
X404749Y613410D01*
X404749Y613352D01*
X406624Y614682D01*
X409093Y615225D01*
X411577Y614761D01*
X413684Y613365D01*
X429674Y597376D01*
X430991Y595455D01*
X431533Y592987D01*
X431070Y590502D01*
X429674Y588395D01*
X410802Y569523D01*
X410076Y567772D01*
X408841Y565857D01*
X406779Y564395D01*
X404311Y563853D01*
X401827Y564316D01*
X399720Y565712D01*
X397488Y567944D01*
X389912Y567944D01*
X383401Y561433D01*
X382696Y560369D01*
X364141Y541813D01*
X362360Y540560D01*
X359905Y539959D01*
X357410Y540362D01*
X355270Y541707D01*
X353824Y543779D01*
X353301Y546252D01*
X353314Y546320D01*
X353308Y546320D01*
X353308Y551221D01*
X351916Y554582D01*
X348885Y557612D01*
X347569Y559532D01*
X347026Y562001D01*
X347490Y564485D01*
X348885Y566592D01*
X351916Y569622D01*
X352483Y570992D01*
X322637Y570992D01*
X323204Y569622D01*
X326234Y566592D01*
X327551Y564672D01*
X328093Y562203D01*
X327630Y559719D01*
X326234Y557612D01*
X323204Y554582D01*
X321812Y551221D01*
X321812Y547583D01*
X323204Y544222D01*
X323694Y543732D01*
X324969Y541904D01*
X325551Y539444D01*
X325127Y536953D01*
X323765Y534824D01*
X321681Y533395D01*
X319204Y532892D01*
X319034Y532892D01*
X315766Y531539D01*
X307925Y523698D01*
X306572Y520430D01*
X306572Y482870D01*
X307925Y479602D01*
X332150Y455378D01*
X333507Y453364D01*
X334010Y450887D01*
X334010Y448632D01*
X333756Y447328D01*
X333756Y438172D01*
X338178Y433750D01*
X339495Y431830D01*
X340037Y429361D01*
X339574Y426877D01*
X338178Y424770D01*
X333778Y420370D01*
X346710Y420370D01*
X346710Y412750D01*
X333756Y412750D01*
X333756Y410464D01*
X333329Y408175D01*
X331967Y406046D01*
X329883Y404617D01*
G37*
%LPC*%
G36*
X485911Y668260D02*
X492889Y668260D01*
X499336Y670930D01*
X504270Y675864D01*
X506940Y682311D01*
X506940Y689289D01*
X504270Y695736D01*
X499336Y700670D01*
X492889Y703340D01*
X485911Y703340D01*
X479464Y700670D01*
X474530Y695736D01*
X471860Y689289D01*
X471860Y682311D01*
X474530Y675864D01*
X479464Y670930D01*
X485911Y668260D01*
G37*
G36*
X322637Y578612D02*
X352483Y578612D01*
X351916Y579982D01*
X348885Y583012D01*
X347569Y584932D01*
X347026Y587401D01*
X347490Y589885D01*
X348885Y591992D01*
X351916Y595022D01*
X353308Y598383D01*
X353308Y602021D01*
X351916Y605382D01*
X348885Y608412D01*
X347569Y610332D01*
X347026Y612801D01*
X347490Y615285D01*
X348885Y617392D01*
X351916Y620422D01*
X352483Y621792D01*
X322637Y621792D01*
X323204Y620422D01*
X326234Y617392D01*
X327551Y615472D01*
X328093Y613003D01*
X327630Y610519D01*
X326234Y608412D01*
X323204Y605382D01*
X321812Y602021D01*
X321812Y598383D01*
X323204Y595022D01*
X326234Y591992D01*
X327551Y590072D01*
X328093Y587603D01*
X327630Y585119D01*
X326234Y583012D01*
X323204Y579982D01*
X322637Y578612D01*
G37*
G36*
X384578Y613410D02*
X389890Y613410D01*
X389890Y618722D01*
X384578Y613410D01*
G37*
G36*
X384578Y605790D02*
X389890Y600478D01*
X389890Y605790D01*
X384578Y605790D01*
G37*
G36*
X397510Y605790D02*
X397510Y600478D01*
X402822Y605790D01*
X397510Y605790D01*
G37*
%LPD*%
G36*
X570823Y2773D02*
X50820Y2561D01*
X49991Y2615D01*
X39140Y4039D01*
X37538Y4468D01*
X27427Y8653D01*
X25990Y9481D01*
X17307Y16141D01*
X16134Y17313D01*
X9471Y25994D01*
X8641Y27430D01*
X4452Y37540D01*
X4023Y39142D01*
X2594Y49992D01*
X2540Y50821D01*
X2540Y328967D01*
X2931Y331162D01*
X4259Y333312D01*
X6320Y334774D01*
X8789Y335317D01*
X11273Y334853D01*
X13380Y333458D01*
X24174Y322663D01*
X27442Y321310D01*
X120687Y321310D01*
X123071Y320846D01*
X125178Y319450D01*
X173258Y271370D01*
X174575Y269449D01*
X175117Y266981D01*
X174654Y264496D01*
X173258Y262389D01*
X168656Y257788D01*
X168656Y248579D01*
X168910Y247328D01*
X168910Y235308D01*
X168765Y233960D01*
X167748Y231646D01*
X165909Y229913D01*
X163539Y229034D01*
X161015Y229149D01*
X158735Y230240D01*
X157061Y232133D01*
X154500Y236568D01*
X150568Y240500D01*
X145752Y243281D01*
X141410Y244444D01*
X141410Y202756D01*
X145752Y203919D01*
X150568Y206700D01*
X154500Y210632D01*
X157061Y215067D01*
X157860Y216162D01*
X159898Y217657D01*
X162358Y218239D01*
X164849Y217815D01*
X166978Y216453D01*
X168407Y214369D01*
X168910Y211892D01*
X168910Y191253D01*
X168446Y188869D01*
X167050Y186763D01*
X120587Y140300D01*
X117838Y138683D01*
X115318Y138488D01*
X112922Y139290D01*
X109752Y141121D01*
X104381Y142560D01*
X98819Y142560D01*
X93448Y141121D01*
X88632Y138340D01*
X84700Y134408D01*
X81919Y129592D01*
X80480Y124221D01*
X80480Y118659D01*
X81919Y113288D01*
X84700Y108472D01*
X88632Y104540D01*
X93448Y101759D01*
X98819Y100320D01*
X104381Y100320D01*
X109752Y101759D01*
X114568Y104540D01*
X118500Y108472D01*
X121281Y113288D01*
X121778Y115142D01*
X123421Y117989D01*
X185337Y179904D01*
X186690Y183172D01*
X186690Y247328D01*
X186944Y248632D01*
X186944Y257853D01*
X185819Y259466D01*
X185237Y261926D01*
X185661Y264417D01*
X187023Y266546D01*
X189107Y267975D01*
X191584Y268478D01*
X242684Y268478D01*
X244879Y268087D01*
X247029Y266759D01*
X248491Y264698D01*
X249033Y262229D01*
X248570Y259745D01*
X247174Y257638D01*
X244856Y255320D01*
X244856Y246111D01*
X245110Y244860D01*
X245110Y224604D01*
X244856Y223300D01*
X244856Y214144D01*
X246992Y212008D01*
X248267Y210180D01*
X248849Y207720D01*
X248425Y205229D01*
X247063Y203100D01*
X244979Y201671D01*
X242502Y201168D01*
X241870Y201168D01*
X239486Y201632D01*
X237380Y203028D01*
X226650Y213758D01*
X225293Y215771D01*
X224790Y218248D01*
X224790Y223960D01*
X225044Y225264D01*
X225044Y234420D01*
X219688Y239776D01*
X212112Y239776D01*
X206756Y234420D01*
X206756Y225211D01*
X207010Y223960D01*
X207010Y168649D01*
X206828Y167714D01*
X206828Y158261D01*
X212184Y152905D01*
X219760Y152905D01*
X225116Y158261D01*
X225116Y167187D01*
X224790Y168793D01*
X224790Y177612D01*
X225199Y179854D01*
X226544Y181993D01*
X228617Y183439D01*
X231089Y183962D01*
X233570Y183479D01*
X233789Y183388D01*
X284152Y183388D01*
X286346Y182997D01*
X288497Y181669D01*
X289959Y179608D01*
X290501Y177139D01*
X290038Y174655D01*
X288642Y172548D01*
X288406Y172312D01*
X287014Y168951D01*
X287014Y166587D01*
X286550Y164203D01*
X285154Y162097D01*
X271674Y148617D01*
X270748Y147182D01*
X268687Y145720D01*
X266218Y145177D01*
X263734Y145641D01*
X261627Y147037D01*
X257810Y150854D01*
X257810Y132610D01*
X259670Y134470D01*
X261498Y135745D01*
X263958Y136327D01*
X266449Y135903D01*
X268578Y134541D01*
X270007Y132457D01*
X270510Y129980D01*
X270510Y120613D01*
X270046Y118229D01*
X268650Y116123D01*
X249054Y96527D01*
X247041Y95170D01*
X244564Y94667D01*
X222716Y94667D01*
X221042Y94993D01*
X212184Y94993D01*
X206828Y89636D01*
X206828Y80145D01*
X207010Y79249D01*
X207010Y61282D01*
X206756Y59978D01*
X206756Y50822D01*
X212112Y45466D01*
X219688Y45466D01*
X225044Y50822D01*
X225044Y60031D01*
X224790Y61282D01*
X224790Y70537D01*
X225217Y72826D01*
X226579Y74955D01*
X228663Y76384D01*
X231140Y76887D01*
X252645Y76887D01*
X255913Y78240D01*
X286937Y109264D01*
X288290Y112532D01*
X288290Y137458D01*
X288754Y139841D01*
X290150Y141948D01*
X304330Y156128D01*
X306344Y157485D01*
X308820Y157988D01*
X311185Y157988D01*
X314545Y159380D01*
X317118Y161952D01*
X318510Y165313D01*
X318510Y168951D01*
X317118Y172312D01*
X314087Y175342D01*
X312771Y177262D01*
X312228Y179731D01*
X312692Y182215D01*
X314087Y184322D01*
X317118Y187352D01*
X318510Y190713D01*
X318510Y194351D01*
X317118Y197712D01*
X316627Y198202D01*
X315352Y200030D01*
X314771Y202490D01*
X315195Y204981D01*
X316556Y207110D01*
X318641Y208539D01*
X321118Y209042D01*
X334000Y209042D01*
X337268Y210395D01*
X350437Y223564D01*
X351790Y226832D01*
X351790Y237169D01*
X352164Y239316D01*
X353475Y241477D01*
X355524Y242955D01*
X357988Y243517D01*
X360476Y243074D01*
X362594Y241695D01*
X364007Y239599D01*
X364606Y238152D01*
X367636Y235122D01*
X368953Y233202D01*
X369495Y230733D01*
X369032Y228249D01*
X367636Y226142D01*
X364606Y223112D01*
X363214Y219751D01*
X363214Y216113D01*
X364606Y212752D01*
X367636Y209722D01*
X368953Y207802D01*
X369495Y205333D01*
X369032Y202849D01*
X367636Y200742D01*
X364606Y197712D01*
X363214Y194351D01*
X363214Y190713D01*
X364606Y187352D01*
X367636Y184322D01*
X368953Y182402D01*
X369495Y179933D01*
X369032Y177449D01*
X367636Y175342D01*
X364606Y172312D01*
X363214Y168951D01*
X363214Y165313D01*
X364606Y161952D01*
X367178Y159380D01*
X370539Y157988D01*
X372903Y157988D01*
X375286Y157524D01*
X377393Y156128D01*
X380492Y153030D01*
X382080Y150378D01*
X382315Y147862D01*
X381551Y145453D01*
X379907Y143533D01*
X377645Y142406D01*
X372848Y141121D01*
X368032Y138340D01*
X364100Y134408D01*
X363578Y133505D01*
X362640Y132262D01*
X360556Y130833D01*
X358079Y130330D01*
X338112Y130330D01*
X334844Y128977D01*
X284563Y78696D01*
X283210Y75428D01*
X283210Y61282D01*
X282956Y59978D01*
X282956Y50822D01*
X288312Y45466D01*
X295888Y45466D01*
X301244Y50822D01*
X301244Y60031D01*
X300990Y61282D01*
X300990Y67347D01*
X301454Y69731D01*
X302850Y71838D01*
X314582Y83570D01*
X315638Y84421D01*
X317993Y85337D01*
X320519Y85262D01*
X322816Y84208D01*
X324520Y82342D01*
X325361Y79958D01*
X325206Y77436D01*
X324880Y76221D01*
X324880Y70659D01*
X326319Y65288D01*
X329100Y60472D01*
X333032Y56540D01*
X337848Y53759D01*
X343219Y52320D01*
X348781Y52320D01*
X352453Y53304D01*
X355544Y53353D01*
X357840Y52299D01*
X359544Y50433D01*
X360385Y48049D01*
X360230Y45527D01*
X359880Y44221D01*
X359880Y38659D01*
X361319Y33288D01*
X364100Y28472D01*
X368032Y24540D01*
X372848Y21759D01*
X378219Y20320D01*
X383781Y20320D01*
X389152Y21759D01*
X393968Y24540D01*
X397900Y28472D01*
X400681Y33288D01*
X402120Y38659D01*
X402120Y44221D01*
X401404Y46893D01*
X401355Y49984D01*
X402409Y52280D01*
X404275Y53984D01*
X406659Y54825D01*
X409181Y54670D01*
X413190Y53596D01*
X413190Y70630D01*
X396156Y70630D01*
X396596Y68987D01*
X396645Y65896D01*
X395591Y63600D01*
X393725Y61896D01*
X391341Y61055D01*
X388819Y61210D01*
X383781Y62560D01*
X378219Y62560D01*
X374547Y61576D01*
X371456Y61527D01*
X369160Y62581D01*
X367456Y64447D01*
X366615Y66831D01*
X366770Y69353D01*
X367120Y70659D01*
X367120Y76221D01*
X365681Y81592D01*
X362900Y86408D01*
X358968Y90340D01*
X354152Y93121D01*
X348781Y94560D01*
X343219Y94560D01*
X342004Y94234D01*
X340664Y94025D01*
X338166Y94409D01*
X336016Y95737D01*
X334554Y97798D01*
X334011Y100267D01*
X334475Y102751D01*
X335870Y104858D01*
X341703Y110690D01*
X343716Y112047D01*
X346193Y112550D01*
X358079Y112550D01*
X359625Y112359D01*
X361905Y111268D01*
X363578Y109375D01*
X364100Y108472D01*
X368032Y104540D01*
X372848Y101759D01*
X378219Y100320D01*
X383781Y100320D01*
X389152Y101759D01*
X393968Y104540D01*
X397900Y108472D01*
X400681Y113288D01*
X402120Y118659D01*
X402120Y124221D01*
X400681Y129592D01*
X397900Y134408D01*
X397606Y134702D01*
X396331Y136530D01*
X395750Y138990D01*
X396173Y141481D01*
X397535Y143610D01*
X399620Y145039D01*
X402096Y145542D01*
X412428Y145542D01*
X413732Y145288D01*
X422888Y145288D01*
X428244Y150644D01*
X428244Y158220D01*
X422888Y163576D01*
X413679Y163576D01*
X412428Y163322D01*
X401060Y163322D01*
X398771Y163749D01*
X396642Y165111D01*
X395213Y167195D01*
X394997Y168257D01*
X393318Y172312D01*
X390287Y175342D01*
X388971Y177262D01*
X388428Y179731D01*
X388892Y182215D01*
X390287Y184322D01*
X393318Y187352D01*
X394710Y190713D01*
X394710Y194351D01*
X393318Y197712D01*
X392827Y198202D01*
X391552Y200030D01*
X390971Y202490D01*
X391395Y204981D01*
X392756Y207110D01*
X394841Y208539D01*
X397318Y209042D01*
X401558Y209042D01*
X404826Y210395D01*
X426129Y231698D01*
X427482Y234966D01*
X427482Y241486D01*
X427946Y243869D01*
X428137Y244157D01*
X428200Y244483D01*
X429596Y246590D01*
X430322Y247316D01*
X432335Y248673D01*
X434812Y249176D01*
X439097Y249176D01*
X440401Y248922D01*
X449556Y248922D01*
X450170Y249535D01*
X451998Y250810D01*
X454458Y251392D01*
X456949Y250968D01*
X459078Y249606D01*
X460507Y247522D01*
X461010Y245045D01*
X461010Y214132D01*
X462363Y210864D01*
X477564Y195663D01*
X480832Y194310D01*
X585968Y194310D01*
X589236Y195663D01*
X609990Y216418D01*
X611818Y217693D01*
X614278Y218274D01*
X616769Y217850D01*
X618898Y216489D01*
X620327Y214404D01*
X620830Y211927D01*
X620830Y52800D01*
X620830Y52798D01*
X620830Y51033D01*
X620776Y50204D01*
X619351Y39359D01*
X618922Y37757D01*
X614739Y27651D01*
X613910Y26215D01*
X607254Y17536D01*
X606082Y16363D01*
X597405Y9703D01*
X595970Y8874D01*
X585865Y4686D01*
X584264Y4257D01*
X573419Y2828D01*
X572590Y2773D01*
X570825Y2773D01*
X570823Y2773D01*
G37*
%LPC*%
G36*
X98819Y249480D02*
X104381Y249480D01*
X109752Y250919D01*
X114568Y253700D01*
X118500Y257632D01*
X121281Y262448D01*
X122720Y267819D01*
X122720Y273381D01*
X121281Y278752D01*
X118500Y283568D01*
X114568Y287500D01*
X113919Y287875D01*
X112676Y288813D01*
X111247Y290897D01*
X110744Y293374D01*
X110744Y295888D01*
X105388Y301244D01*
X97812Y301244D01*
X92456Y295888D01*
X92456Y293374D01*
X92265Y291829D01*
X91174Y289549D01*
X89281Y287875D01*
X88632Y287500D01*
X84700Y283568D01*
X81919Y278752D01*
X80480Y273381D01*
X80480Y267819D01*
X81919Y262448D01*
X84700Y257632D01*
X88632Y253700D01*
X93448Y250919D01*
X98819Y249480D01*
G37*
G36*
X116756Y227410D02*
X133790Y227410D01*
X133790Y244444D01*
X129448Y243281D01*
X124632Y240500D01*
X120700Y236568D01*
X117919Y231752D01*
X116756Y227410D01*
G37*
G36*
X98819Y169480D02*
X104381Y169480D01*
X109752Y170919D01*
X114568Y173700D01*
X118500Y177632D01*
X121281Y182448D01*
X122720Y187819D01*
X122720Y193381D01*
X122004Y196053D01*
X121955Y199144D01*
X123009Y201440D01*
X124875Y203144D01*
X127259Y203985D01*
X129781Y203830D01*
X133790Y202756D01*
X133790Y219790D01*
X116756Y219790D01*
X117196Y218147D01*
X117245Y215056D01*
X116191Y212760D01*
X114325Y211056D01*
X111941Y210215D01*
X109419Y210370D01*
X104381Y211720D01*
X98819Y211720D01*
X95147Y210736D01*
X92056Y210687D01*
X89760Y211741D01*
X88056Y213607D01*
X87215Y215991D01*
X87370Y218513D01*
X87720Y219819D01*
X87720Y225381D01*
X86281Y230752D01*
X83500Y235568D01*
X79568Y239500D01*
X74752Y242281D01*
X69381Y243720D01*
X63819Y243720D01*
X58448Y242281D01*
X53632Y239500D01*
X49700Y235568D01*
X46919Y230752D01*
X45480Y225381D01*
X45480Y219819D01*
X46919Y214448D01*
X49700Y209632D01*
X53632Y205700D01*
X58448Y202919D01*
X63819Y201480D01*
X69381Y201480D01*
X73053Y202464D01*
X76144Y202513D01*
X78440Y201459D01*
X80144Y199593D01*
X80985Y197209D01*
X80830Y194687D01*
X80480Y193381D01*
X80480Y187819D01*
X81919Y182448D01*
X84700Y177632D01*
X88632Y173700D01*
X93448Y170919D01*
X98819Y169480D01*
G37*
G36*
X449578Y185676D02*
X454890Y185676D01*
X449578Y190987D01*
X449578Y185676D01*
G37*
G36*
X436647Y185676D02*
X441958Y185676D01*
X441958Y190987D01*
X436647Y185676D01*
G37*
G36*
X436647Y178056D02*
X441958Y172744D01*
X441958Y178056D01*
X436647Y178056D01*
G37*
G36*
X449578Y178056D02*
X449578Y172744D01*
X454890Y178056D01*
X449578Y178056D01*
G37*
G36*
X530619Y100320D02*
X536181Y100320D01*
X541552Y101759D01*
X546368Y104540D01*
X550300Y108472D01*
X553081Y113288D01*
X554520Y118659D01*
X554520Y124221D01*
X553081Y129592D01*
X550300Y134408D01*
X546368Y138340D01*
X545465Y138862D01*
X544222Y139800D01*
X542793Y141884D01*
X542532Y143171D01*
X540937Y147022D01*
X525990Y161969D01*
X522722Y163322D01*
X501972Y163322D01*
X500668Y163576D01*
X491512Y163576D01*
X486156Y158220D01*
X486156Y150644D01*
X491512Y145288D01*
X500721Y145288D01*
X501972Y145542D01*
X512304Y145542D01*
X514498Y145151D01*
X516648Y143823D01*
X518110Y141762D01*
X518653Y139293D01*
X518189Y136809D01*
X516794Y134702D01*
X516500Y134408D01*
X513719Y129592D01*
X512280Y124221D01*
X512280Y118659D01*
X513719Y113288D01*
X516500Y108472D01*
X520432Y104540D01*
X525248Y101759D01*
X530619Y100320D01*
G37*
G36*
X244878Y145542D02*
X250190Y145542D01*
X250190Y150854D01*
X244878Y145542D01*
G37*
G36*
X244878Y137922D02*
X250190Y132610D01*
X250190Y137922D01*
X244878Y137922D01*
G37*
G36*
X420810Y78250D02*
X437844Y78250D01*
X436681Y82592D01*
X433900Y87408D01*
X429968Y91340D01*
X425152Y94121D01*
X420810Y95284D01*
X420810Y78250D01*
G37*
G36*
X116756Y78250D02*
X133790Y78250D01*
X133790Y95284D01*
X129448Y94121D01*
X124632Y91340D01*
X120700Y87408D01*
X117919Y82592D01*
X116756Y78250D01*
G37*
G36*
X141410Y78250D02*
X158444Y78250D01*
X157281Y82592D01*
X154500Y87408D01*
X150568Y91340D01*
X145752Y94121D01*
X141410Y95284D01*
X141410Y78250D01*
G37*
G36*
X396156Y78250D02*
X413190Y78250D01*
X413190Y95284D01*
X408848Y94121D01*
X404032Y91340D01*
X400100Y87408D01*
X397319Y82592D01*
X396156Y78250D01*
G37*
G36*
X548556Y78250D02*
X565590Y78250D01*
X565590Y95284D01*
X561248Y94121D01*
X556432Y91340D01*
X552500Y87408D01*
X549719Y82592D01*
X548556Y78250D01*
G37*
G36*
X573210Y78250D02*
X590244Y78250D01*
X589081Y82592D01*
X586300Y87408D01*
X582368Y91340D01*
X577552Y94121D01*
X573210Y95284D01*
X573210Y78250D01*
G37*
G36*
X98819Y20320D02*
X104381Y20320D01*
X109752Y21759D01*
X114568Y24540D01*
X118500Y28472D01*
X121281Y33288D01*
X122720Y38659D01*
X122720Y44221D01*
X122004Y46893D01*
X121955Y49984D01*
X123009Y52280D01*
X124875Y53984D01*
X127259Y54825D01*
X129781Y54670D01*
X133790Y53596D01*
X133790Y70630D01*
X116756Y70630D01*
X117196Y68987D01*
X117245Y65896D01*
X116191Y63600D01*
X114325Y61896D01*
X111941Y61055D01*
X109419Y61210D01*
X104381Y62560D01*
X98819Y62560D01*
X95147Y61576D01*
X92056Y61527D01*
X89760Y62581D01*
X88056Y64447D01*
X87215Y66831D01*
X87370Y69353D01*
X87720Y70659D01*
X87720Y76221D01*
X86281Y81592D01*
X83500Y86408D01*
X79568Y90340D01*
X74752Y93121D01*
X69381Y94560D01*
X63819Y94560D01*
X58448Y93121D01*
X53632Y90340D01*
X49700Y86408D01*
X46919Y81592D01*
X45480Y76221D01*
X45480Y70659D01*
X46919Y65288D01*
X49700Y60472D01*
X53632Y56540D01*
X58448Y53759D01*
X63819Y52320D01*
X69381Y52320D01*
X73053Y53304D01*
X76144Y53353D01*
X78440Y52299D01*
X80144Y50433D01*
X80985Y48049D01*
X80830Y45527D01*
X80480Y44221D01*
X80480Y38659D01*
X81919Y33288D01*
X84700Y28472D01*
X88632Y24540D01*
X93448Y21759D01*
X98819Y20320D01*
G37*
G36*
X530619Y20320D02*
X536181Y20320D01*
X541552Y21759D01*
X546368Y24540D01*
X550300Y28472D01*
X553081Y33288D01*
X554520Y38659D01*
X554520Y44221D01*
X553804Y46893D01*
X553755Y49984D01*
X554809Y52280D01*
X556675Y53984D01*
X559059Y54825D01*
X561581Y54670D01*
X565590Y53596D01*
X565590Y70630D01*
X548556Y70630D01*
X548996Y68987D01*
X549045Y65896D01*
X547991Y63600D01*
X546125Y61896D01*
X543741Y61055D01*
X541219Y61210D01*
X536181Y62560D01*
X530619Y62560D01*
X526947Y61576D01*
X523856Y61527D01*
X521560Y62581D01*
X519856Y64447D01*
X519015Y66831D01*
X519170Y69353D01*
X519520Y70659D01*
X519520Y76221D01*
X518081Y81592D01*
X515300Y86408D01*
X511368Y90340D01*
X506552Y93121D01*
X501181Y94560D01*
X495619Y94560D01*
X490248Y93121D01*
X485432Y90340D01*
X481500Y86408D01*
X478719Y81592D01*
X477280Y76221D01*
X477280Y70659D01*
X478719Y65288D01*
X481500Y60472D01*
X485432Y56540D01*
X490248Y53759D01*
X495619Y52320D01*
X501181Y52320D01*
X504853Y53304D01*
X507944Y53353D01*
X510240Y52299D01*
X511944Y50433D01*
X512785Y48049D01*
X512630Y45527D01*
X512280Y44221D01*
X512280Y38659D01*
X513719Y33288D01*
X516500Y28472D01*
X520432Y24540D01*
X525248Y21759D01*
X530619Y20320D01*
G37*
G36*
X573210Y70630D02*
X573210Y53596D01*
X577552Y54759D01*
X582368Y57540D01*
X586300Y61472D01*
X589081Y66288D01*
X590244Y70630D01*
X573210Y70630D01*
G37*
G36*
X420810Y70630D02*
X420810Y53596D01*
X425152Y54759D01*
X429968Y57540D01*
X433900Y61472D01*
X436681Y66288D01*
X437844Y70630D01*
X420810Y70630D01*
G37*
G36*
X141410Y70630D02*
X141410Y53596D01*
X145752Y54759D01*
X150568Y57540D01*
X154500Y61472D01*
X157281Y66288D01*
X158444Y70630D01*
X141410Y70630D01*
G37*
%LPD*%
D10*
X211751Y888252D02*
X204978Y867932D01*
X198205Y888252D01*
X185295Y867932D02*
X180779Y867932D01*
X185295Y867932D02*
X185426Y867934D01*
X185558Y867940D01*
X185689Y867949D01*
X185819Y867963D01*
X185950Y867980D01*
X186079Y868001D01*
X186208Y868025D01*
X186336Y868054D01*
X186464Y868086D01*
X186590Y868122D01*
X186715Y868161D01*
X186840Y868204D01*
X186962Y868251D01*
X187084Y868301D01*
X187204Y868355D01*
X187322Y868412D01*
X187438Y868473D01*
X187553Y868537D01*
X187666Y868604D01*
X187777Y868675D01*
X187885Y868749D01*
X187992Y868826D01*
X188096Y868906D01*
X188198Y868989D01*
X188297Y869074D01*
X188394Y869163D01*
X188488Y869255D01*
X188580Y869349D01*
X188669Y869446D01*
X188754Y869545D01*
X188837Y869647D01*
X188917Y869751D01*
X188994Y869858D01*
X189068Y869966D01*
X189139Y870077D01*
X189206Y870190D01*
X189270Y870305D01*
X189331Y870421D01*
X189388Y870539D01*
X189442Y870659D01*
X189492Y870781D01*
X189539Y870903D01*
X189582Y871028D01*
X189621Y871153D01*
X189657Y871279D01*
X189689Y871407D01*
X189718Y871535D01*
X189742Y871664D01*
X189763Y871794D01*
X189780Y871924D01*
X189794Y872054D01*
X189803Y872185D01*
X189809Y872317D01*
X189811Y872448D01*
X189810Y872448D02*
X189810Y883736D01*
X189811Y883736D02*
X189809Y883870D01*
X189803Y884004D01*
X189793Y884137D01*
X189779Y884270D01*
X189762Y884403D01*
X189740Y884535D01*
X189714Y884666D01*
X189685Y884797D01*
X189651Y884926D01*
X189614Y885055D01*
X189573Y885182D01*
X189528Y885308D01*
X189480Y885433D01*
X189428Y885556D01*
X189372Y885678D01*
X189313Y885798D01*
X189250Y885916D01*
X189183Y886033D01*
X189114Y886147D01*
X189041Y886259D01*
X188964Y886369D01*
X188885Y886476D01*
X188802Y886581D01*
X188716Y886684D01*
X188627Y886784D01*
X188535Y886882D01*
X188441Y886976D01*
X188343Y887068D01*
X188243Y887157D01*
X188141Y887243D01*
X188035Y887326D01*
X187928Y887405D01*
X187818Y887482D01*
X187706Y887555D01*
X187592Y887624D01*
X187475Y887691D01*
X187357Y887754D01*
X187237Y887813D01*
X187116Y887869D01*
X186992Y887921D01*
X186868Y887969D01*
X186741Y888014D01*
X186614Y888055D01*
X186485Y888092D01*
X186356Y888126D01*
X186225Y888155D01*
X186094Y888181D01*
X185962Y888202D01*
X185829Y888220D01*
X185696Y888234D01*
X185563Y888244D01*
X185429Y888250D01*
X185295Y888252D01*
X180779Y888252D01*
X172345Y882608D02*
X172345Y873576D01*
X172344Y882608D02*
X172342Y882757D01*
X172336Y882906D01*
X172326Y883055D01*
X172313Y883203D01*
X172295Y883351D01*
X172273Y883498D01*
X172248Y883645D01*
X172219Y883791D01*
X172185Y883936D01*
X172148Y884081D01*
X172108Y884224D01*
X172063Y884366D01*
X172015Y884507D01*
X171963Y884647D01*
X171907Y884785D01*
X171848Y884922D01*
X171785Y885057D01*
X171719Y885190D01*
X171649Y885322D01*
X171575Y885451D01*
X171499Y885579D01*
X171419Y885705D01*
X171335Y885828D01*
X171249Y885950D01*
X171159Y886068D01*
X171066Y886185D01*
X170970Y886299D01*
X170871Y886410D01*
X170769Y886519D01*
X170664Y886625D01*
X170557Y886728D01*
X170447Y886829D01*
X170334Y886926D01*
X170219Y887021D01*
X170101Y887112D01*
X169981Y887200D01*
X169859Y887285D01*
X169734Y887367D01*
X169608Y887445D01*
X169479Y887520D01*
X169348Y887592D01*
X169216Y887660D01*
X169082Y887725D01*
X168946Y887786D01*
X168808Y887844D01*
X168669Y887897D01*
X168529Y887947D01*
X168387Y887994D01*
X168245Y888037D01*
X168101Y888075D01*
X167956Y888110D01*
X167810Y888142D01*
X167664Y888169D01*
X167517Y888193D01*
X167369Y888212D01*
X167221Y888228D01*
X167072Y888240D01*
X166923Y888248D01*
X166774Y888252D01*
X166626Y888252D01*
X166477Y888248D01*
X166328Y888240D01*
X166179Y888228D01*
X166031Y888212D01*
X165883Y888193D01*
X165736Y888169D01*
X165590Y888142D01*
X165444Y888110D01*
X165299Y888075D01*
X165155Y888037D01*
X165013Y887994D01*
X164871Y887947D01*
X164731Y887897D01*
X164592Y887844D01*
X164454Y887786D01*
X164318Y887725D01*
X164184Y887660D01*
X164052Y887592D01*
X163921Y887520D01*
X163792Y887445D01*
X163666Y887367D01*
X163541Y887285D01*
X163419Y887200D01*
X163299Y887112D01*
X163181Y887021D01*
X163066Y886926D01*
X162953Y886829D01*
X162843Y886728D01*
X162736Y886625D01*
X162631Y886519D01*
X162529Y886410D01*
X162430Y886299D01*
X162334Y886185D01*
X162241Y886068D01*
X162151Y885950D01*
X162065Y885828D01*
X161981Y885705D01*
X161901Y885579D01*
X161825Y885451D01*
X161751Y885322D01*
X161681Y885190D01*
X161615Y885057D01*
X161552Y884922D01*
X161493Y884785D01*
X161437Y884647D01*
X161385Y884507D01*
X161337Y884366D01*
X161292Y884224D01*
X161252Y884081D01*
X161215Y883936D01*
X161181Y883791D01*
X161152Y883645D01*
X161127Y883498D01*
X161105Y883351D01*
X161087Y883203D01*
X161074Y883055D01*
X161064Y882906D01*
X161058Y882757D01*
X161056Y882608D01*
X161056Y873576D01*
X161058Y873427D01*
X161064Y873278D01*
X161074Y873129D01*
X161087Y872981D01*
X161105Y872833D01*
X161127Y872686D01*
X161152Y872539D01*
X161181Y872393D01*
X161215Y872248D01*
X161252Y872103D01*
X161292Y871960D01*
X161337Y871818D01*
X161385Y871677D01*
X161437Y871537D01*
X161493Y871399D01*
X161552Y871262D01*
X161615Y871127D01*
X161681Y870994D01*
X161751Y870862D01*
X161825Y870733D01*
X161901Y870605D01*
X161981Y870479D01*
X162065Y870356D01*
X162151Y870234D01*
X162241Y870116D01*
X162334Y869999D01*
X162430Y869885D01*
X162529Y869774D01*
X162631Y869665D01*
X162736Y869559D01*
X162843Y869456D01*
X162953Y869355D01*
X163066Y869258D01*
X163181Y869163D01*
X163299Y869072D01*
X163419Y868984D01*
X163541Y868899D01*
X163666Y868817D01*
X163792Y868739D01*
X163921Y868664D01*
X164052Y868592D01*
X164184Y868524D01*
X164318Y868459D01*
X164454Y868398D01*
X164592Y868340D01*
X164731Y868287D01*
X164871Y868237D01*
X165013Y868190D01*
X165155Y868147D01*
X165299Y868109D01*
X165444Y868074D01*
X165590Y868042D01*
X165736Y868015D01*
X165883Y867991D01*
X166031Y867972D01*
X166179Y867956D01*
X166328Y867944D01*
X166477Y867936D01*
X166626Y867932D01*
X166774Y867932D01*
X166923Y867936D01*
X167072Y867944D01*
X167221Y867956D01*
X167369Y867972D01*
X167517Y867991D01*
X167664Y868015D01*
X167810Y868042D01*
X167956Y868074D01*
X168101Y868109D01*
X168245Y868147D01*
X168387Y868190D01*
X168529Y868237D01*
X168669Y868287D01*
X168808Y868340D01*
X168946Y868398D01*
X169082Y868459D01*
X169216Y868524D01*
X169348Y868592D01*
X169479Y868664D01*
X169608Y868739D01*
X169734Y868817D01*
X169859Y868899D01*
X169981Y868984D01*
X170101Y869072D01*
X170219Y869163D01*
X170334Y869258D01*
X170447Y869355D01*
X170557Y869456D01*
X170664Y869559D01*
X170769Y869665D01*
X170871Y869774D01*
X170970Y869885D01*
X171066Y869999D01*
X171159Y870116D01*
X171249Y870234D01*
X171335Y870356D01*
X171419Y870479D01*
X171499Y870605D01*
X171575Y870733D01*
X171649Y870862D01*
X171719Y870994D01*
X171785Y871127D01*
X171848Y871262D01*
X171907Y871399D01*
X171963Y871537D01*
X172015Y871677D01*
X172063Y871818D01*
X172108Y871960D01*
X172148Y872103D01*
X172185Y872248D01*
X172219Y872393D01*
X172248Y872539D01*
X172273Y872686D01*
X172295Y872833D01*
X172313Y872981D01*
X172326Y873129D01*
X172336Y873278D01*
X172342Y873427D01*
X172344Y873576D01*
X141460Y888252D02*
X134686Y867932D01*
X127913Y888252D01*
X116328Y867932D02*
X110684Y867932D01*
X116328Y867932D02*
X116444Y867934D01*
X116559Y867940D01*
X116674Y867950D01*
X116789Y867964D01*
X116903Y867981D01*
X117017Y868003D01*
X117130Y868028D01*
X117242Y868058D01*
X117353Y868091D01*
X117462Y868128D01*
X117571Y868168D01*
X117677Y868212D01*
X117783Y868260D01*
X117886Y868312D01*
X117988Y868367D01*
X118088Y868425D01*
X118186Y868487D01*
X118281Y868552D01*
X118375Y868620D01*
X118466Y868692D01*
X118554Y868766D01*
X118640Y868844D01*
X118723Y868924D01*
X118803Y869007D01*
X118881Y869093D01*
X118955Y869182D01*
X119027Y869272D01*
X119095Y869366D01*
X119160Y869461D01*
X119222Y869559D01*
X119280Y869659D01*
X119335Y869761D01*
X119387Y869864D01*
X119435Y869970D01*
X119479Y870076D01*
X119519Y870185D01*
X119556Y870294D01*
X119589Y870405D01*
X119619Y870517D01*
X119644Y870630D01*
X119666Y870744D01*
X119683Y870858D01*
X119697Y870973D01*
X119707Y871088D01*
X119713Y871203D01*
X119715Y871319D01*
X119715Y876963D01*
X119713Y877096D01*
X119707Y877228D01*
X119697Y877360D01*
X119684Y877492D01*
X119666Y877624D01*
X119645Y877754D01*
X119620Y877885D01*
X119591Y878014D01*
X119558Y878142D01*
X119522Y878270D01*
X119482Y878396D01*
X119438Y878521D01*
X119390Y878645D01*
X119339Y878767D01*
X119284Y878888D01*
X119226Y879007D01*
X119164Y879125D01*
X119099Y879240D01*
X119030Y879354D01*
X118959Y879465D01*
X118883Y879574D01*
X118805Y879681D01*
X118724Y879786D01*
X118639Y879888D01*
X118552Y879988D01*
X118462Y880085D01*
X118369Y880180D01*
X118273Y880271D01*
X118175Y880360D01*
X118074Y880446D01*
X117970Y880529D01*
X117864Y880609D01*
X117756Y880685D01*
X117646Y880759D01*
X117533Y880829D01*
X117419Y880896D01*
X117302Y880959D01*
X117184Y881019D01*
X117064Y881076D01*
X116942Y881129D01*
X116819Y881178D01*
X116695Y881224D01*
X116569Y881266D01*
X116442Y881304D01*
X116314Y881339D01*
X116185Y881370D01*
X116056Y881397D01*
X115925Y881420D01*
X115794Y881440D01*
X115662Y881455D01*
X115530Y881467D01*
X115398Y881475D01*
X115265Y881479D01*
X115133Y881479D01*
X115000Y881475D01*
X114868Y881467D01*
X114736Y881455D01*
X114604Y881440D01*
X114473Y881420D01*
X114342Y881397D01*
X114213Y881370D01*
X114084Y881339D01*
X113956Y881304D01*
X113829Y881266D01*
X113703Y881224D01*
X113579Y881178D01*
X113456Y881129D01*
X113334Y881076D01*
X113214Y881019D01*
X113096Y880959D01*
X112979Y880896D01*
X112865Y880829D01*
X112752Y880759D01*
X112642Y880685D01*
X112534Y880609D01*
X112428Y880529D01*
X112324Y880446D01*
X112223Y880360D01*
X112125Y880271D01*
X112029Y880180D01*
X111936Y880085D01*
X111846Y879988D01*
X111759Y879888D01*
X111674Y879786D01*
X111593Y879681D01*
X111515Y879574D01*
X111439Y879465D01*
X111368Y879354D01*
X111299Y879240D01*
X111234Y879125D01*
X111172Y879007D01*
X111114Y878888D01*
X111059Y878767D01*
X111008Y878645D01*
X110960Y878521D01*
X110916Y878396D01*
X110876Y878270D01*
X110840Y878142D01*
X110807Y878014D01*
X110778Y877885D01*
X110753Y877754D01*
X110732Y877624D01*
X110714Y877492D01*
X110701Y877360D01*
X110691Y877228D01*
X110685Y877096D01*
X110683Y876963D01*
X110684Y876963D02*
X110684Y874705D01*
X119715Y874705D01*
X100745Y867932D02*
X100745Y881479D01*
X93971Y881479D01*
X93971Y879221D01*
X85312Y875834D02*
X79667Y873576D01*
X85312Y875834D02*
X85411Y875876D01*
X85507Y875921D01*
X85603Y875969D01*
X85696Y876022D01*
X85787Y876077D01*
X85877Y876136D01*
X85964Y876198D01*
X86049Y876263D01*
X86131Y876331D01*
X86211Y876402D01*
X86288Y876476D01*
X86363Y876552D01*
X86434Y876632D01*
X86503Y876714D01*
X86568Y876798D01*
X86631Y876885D01*
X86690Y876974D01*
X86746Y877065D01*
X86799Y877158D01*
X86848Y877253D01*
X86894Y877349D01*
X86936Y877448D01*
X86974Y877547D01*
X87009Y877648D01*
X87040Y877751D01*
X87068Y877854D01*
X87091Y877958D01*
X87111Y878063D01*
X87127Y878169D01*
X87139Y878275D01*
X87147Y878382D01*
X87151Y878488D01*
X87152Y878595D01*
X87148Y878702D01*
X87141Y878809D01*
X87129Y878915D01*
X87114Y879021D01*
X87095Y879126D01*
X87072Y879230D01*
X87046Y879334D01*
X87015Y879436D01*
X86981Y879538D01*
X86943Y879638D01*
X86902Y879736D01*
X86857Y879833D01*
X86808Y879928D01*
X86756Y880022D01*
X86701Y880113D01*
X86642Y880203D01*
X86580Y880290D01*
X86515Y880375D01*
X86447Y880457D01*
X86376Y880537D01*
X86302Y880614D01*
X86226Y880688D01*
X86146Y880760D01*
X86064Y880829D01*
X85980Y880894D01*
X85893Y880957D01*
X85804Y881016D01*
X85713Y881072D01*
X85620Y881125D01*
X85526Y881174D01*
X85429Y881220D01*
X85331Y881262D01*
X85231Y881301D01*
X85130Y881336D01*
X85028Y881367D01*
X84925Y881394D01*
X84820Y881418D01*
X84715Y881438D01*
X84610Y881454D01*
X84503Y881466D01*
X84397Y881474D01*
X84290Y881478D01*
X84183Y881479D01*
X83875Y881471D01*
X83567Y881455D01*
X83259Y881432D01*
X82953Y881402D01*
X82647Y881364D01*
X82342Y881319D01*
X82038Y881267D01*
X81736Y881207D01*
X81435Y881140D01*
X81135Y881066D01*
X80838Y880985D01*
X80543Y880897D01*
X80250Y880801D01*
X79959Y880699D01*
X79671Y880589D01*
X79385Y880473D01*
X79103Y880350D01*
X79667Y873577D02*
X79568Y873535D01*
X79472Y873490D01*
X79376Y873442D01*
X79283Y873389D01*
X79192Y873334D01*
X79102Y873275D01*
X79015Y873213D01*
X78930Y873148D01*
X78848Y873080D01*
X78768Y873009D01*
X78691Y872935D01*
X78616Y872859D01*
X78545Y872779D01*
X78476Y872697D01*
X78411Y872613D01*
X78348Y872526D01*
X78289Y872437D01*
X78233Y872346D01*
X78180Y872253D01*
X78131Y872158D01*
X78085Y872062D01*
X78043Y871963D01*
X78005Y871864D01*
X77970Y871763D01*
X77939Y871660D01*
X77911Y871557D01*
X77888Y871453D01*
X77868Y871348D01*
X77852Y871242D01*
X77840Y871136D01*
X77832Y871029D01*
X77828Y870923D01*
X77827Y870816D01*
X77831Y870709D01*
X77838Y870602D01*
X77850Y870496D01*
X77865Y870390D01*
X77884Y870285D01*
X77907Y870181D01*
X77933Y870077D01*
X77964Y869975D01*
X77998Y869873D01*
X78036Y869773D01*
X78077Y869675D01*
X78122Y869578D01*
X78171Y869483D01*
X78223Y869389D01*
X78278Y869298D01*
X78337Y869208D01*
X78399Y869121D01*
X78464Y869036D01*
X78532Y868954D01*
X78603Y868874D01*
X78677Y868797D01*
X78753Y868723D01*
X78833Y868651D01*
X78915Y868582D01*
X78999Y868517D01*
X79086Y868454D01*
X79175Y868395D01*
X79266Y868339D01*
X79359Y868286D01*
X79453Y868237D01*
X79550Y868191D01*
X79648Y868149D01*
X79748Y868110D01*
X79849Y868075D01*
X79951Y868044D01*
X80054Y868017D01*
X80159Y867993D01*
X80264Y867973D01*
X80369Y867957D01*
X80476Y867945D01*
X80582Y867937D01*
X80689Y867933D01*
X80796Y867932D01*
X81248Y867944D01*
X81701Y867966D01*
X82152Y868000D01*
X82603Y868043D01*
X83052Y868098D01*
X83500Y868163D01*
X83947Y868239D01*
X84391Y868325D01*
X84834Y868422D01*
X85274Y868529D01*
X85711Y868647D01*
X86145Y868774D01*
X86577Y868913D01*
X87004Y869061D01*
X69831Y869061D02*
X69831Y867932D01*
X69831Y869061D02*
X68702Y869061D01*
X68702Y867932D01*
X69831Y867932D01*
X49160Y883736D02*
X43516Y888252D01*
X43516Y867932D01*
X49160Y867932D02*
X37871Y867932D01*
X214983Y914499D02*
X221756Y934819D01*
X208210Y934819D02*
X214983Y914499D01*
X200368Y914499D02*
X200368Y928045D01*
X200932Y933690D02*
X200932Y934819D01*
X199803Y934819D01*
X199803Y933690D01*
X200932Y933690D01*
X190633Y934819D02*
X190633Y914499D01*
X190633Y921272D02*
X181602Y928045D01*
X186682Y924094D02*
X181602Y914499D01*
X175456Y928045D02*
X168682Y928045D01*
X173198Y934819D02*
X173198Y917885D01*
X173196Y917769D01*
X173190Y917654D01*
X173180Y917539D01*
X173166Y917424D01*
X173149Y917310D01*
X173127Y917196D01*
X173102Y917083D01*
X173072Y916971D01*
X173039Y916860D01*
X173002Y916751D01*
X172962Y916642D01*
X172918Y916536D01*
X172870Y916430D01*
X172818Y916327D01*
X172763Y916225D01*
X172705Y916125D01*
X172643Y916027D01*
X172578Y915932D01*
X172510Y915838D01*
X172438Y915747D01*
X172364Y915659D01*
X172286Y915573D01*
X172206Y915490D01*
X172123Y915410D01*
X172037Y915332D01*
X171948Y915258D01*
X171858Y915186D01*
X171764Y915118D01*
X171669Y915053D01*
X171571Y914991D01*
X171471Y914933D01*
X171369Y914878D01*
X171266Y914826D01*
X171160Y914778D01*
X171054Y914734D01*
X170945Y914694D01*
X170836Y914657D01*
X170725Y914624D01*
X170613Y914594D01*
X170500Y914569D01*
X170386Y914547D01*
X170272Y914530D01*
X170157Y914516D01*
X170042Y914506D01*
X169927Y914500D01*
X169811Y914498D01*
X169811Y914499D02*
X168682Y914499D01*
X160342Y919014D02*
X160342Y923530D01*
X160340Y923663D01*
X160334Y923795D01*
X160324Y923927D01*
X160311Y924059D01*
X160293Y924191D01*
X160272Y924321D01*
X160247Y924452D01*
X160218Y924581D01*
X160185Y924709D01*
X160149Y924837D01*
X160109Y924963D01*
X160065Y925088D01*
X160017Y925212D01*
X159966Y925334D01*
X159911Y925455D01*
X159853Y925574D01*
X159791Y925692D01*
X159726Y925807D01*
X159657Y925921D01*
X159586Y926032D01*
X159510Y926141D01*
X159432Y926248D01*
X159351Y926353D01*
X159266Y926455D01*
X159179Y926555D01*
X159089Y926652D01*
X158996Y926747D01*
X158900Y926838D01*
X158802Y926927D01*
X158701Y927013D01*
X158597Y927096D01*
X158491Y927176D01*
X158383Y927252D01*
X158273Y927326D01*
X158160Y927396D01*
X158046Y927463D01*
X157929Y927526D01*
X157811Y927586D01*
X157691Y927643D01*
X157569Y927696D01*
X157446Y927745D01*
X157322Y927791D01*
X157196Y927833D01*
X157069Y927871D01*
X156941Y927906D01*
X156812Y927937D01*
X156683Y927964D01*
X156552Y927987D01*
X156421Y928007D01*
X156289Y928022D01*
X156157Y928034D01*
X156025Y928042D01*
X155892Y928046D01*
X155760Y928046D01*
X155627Y928042D01*
X155495Y928034D01*
X155363Y928022D01*
X155231Y928007D01*
X155100Y927987D01*
X154969Y927964D01*
X154840Y927937D01*
X154711Y927906D01*
X154583Y927871D01*
X154456Y927833D01*
X154330Y927791D01*
X154206Y927745D01*
X154083Y927696D01*
X153961Y927643D01*
X153841Y927586D01*
X153723Y927526D01*
X153606Y927463D01*
X153492Y927396D01*
X153379Y927326D01*
X153269Y927252D01*
X153161Y927176D01*
X153055Y927096D01*
X152951Y927013D01*
X152850Y926927D01*
X152752Y926838D01*
X152656Y926747D01*
X152563Y926652D01*
X152473Y926555D01*
X152386Y926455D01*
X152301Y926353D01*
X152220Y926248D01*
X152142Y926141D01*
X152066Y926032D01*
X151995Y925921D01*
X151926Y925807D01*
X151861Y925692D01*
X151799Y925574D01*
X151741Y925455D01*
X151686Y925334D01*
X151635Y925212D01*
X151587Y925088D01*
X151543Y924963D01*
X151503Y924837D01*
X151467Y924709D01*
X151434Y924581D01*
X151405Y924452D01*
X151380Y924321D01*
X151359Y924191D01*
X151341Y924059D01*
X151328Y923927D01*
X151318Y923795D01*
X151312Y923663D01*
X151310Y923530D01*
X151311Y923530D02*
X151311Y919014D01*
X151310Y919014D02*
X151312Y918881D01*
X151318Y918749D01*
X151328Y918617D01*
X151341Y918485D01*
X151359Y918353D01*
X151380Y918223D01*
X151405Y918092D01*
X151434Y917963D01*
X151467Y917835D01*
X151503Y917707D01*
X151543Y917581D01*
X151587Y917456D01*
X151635Y917332D01*
X151686Y917210D01*
X151741Y917089D01*
X151799Y916970D01*
X151861Y916852D01*
X151926Y916737D01*
X151995Y916623D01*
X152066Y916512D01*
X152142Y916403D01*
X152220Y916296D01*
X152301Y916191D01*
X152386Y916089D01*
X152473Y915989D01*
X152563Y915892D01*
X152656Y915797D01*
X152752Y915706D01*
X152850Y915617D01*
X152951Y915531D01*
X153055Y915448D01*
X153161Y915368D01*
X153269Y915292D01*
X153379Y915218D01*
X153492Y915148D01*
X153606Y915081D01*
X153723Y915018D01*
X153841Y914958D01*
X153961Y914901D01*
X154083Y914848D01*
X154206Y914799D01*
X154330Y914753D01*
X154456Y914711D01*
X154583Y914673D01*
X154711Y914638D01*
X154840Y914607D01*
X154969Y914580D01*
X155100Y914557D01*
X155231Y914537D01*
X155363Y914522D01*
X155495Y914510D01*
X155627Y914502D01*
X155760Y914498D01*
X155892Y914498D01*
X156025Y914502D01*
X156157Y914510D01*
X156289Y914522D01*
X156421Y914537D01*
X156552Y914557D01*
X156683Y914580D01*
X156812Y914607D01*
X156941Y914638D01*
X157069Y914673D01*
X157196Y914711D01*
X157322Y914753D01*
X157446Y914799D01*
X157569Y914848D01*
X157691Y914901D01*
X157811Y914958D01*
X157929Y915018D01*
X158046Y915081D01*
X158160Y915148D01*
X158273Y915218D01*
X158383Y915292D01*
X158491Y915368D01*
X158597Y915448D01*
X158701Y915531D01*
X158802Y915617D01*
X158900Y915706D01*
X158996Y915797D01*
X159089Y915892D01*
X159179Y915989D01*
X159266Y916089D01*
X159351Y916191D01*
X159432Y916296D01*
X159510Y916403D01*
X159586Y916512D01*
X159657Y916623D01*
X159726Y916737D01*
X159791Y916852D01*
X159853Y916970D01*
X159911Y917089D01*
X159966Y917210D01*
X160017Y917332D01*
X160065Y917456D01*
X160109Y917581D01*
X160149Y917707D01*
X160185Y917835D01*
X160218Y917963D01*
X160247Y918092D01*
X160272Y918223D01*
X160293Y918353D01*
X160311Y918485D01*
X160324Y918617D01*
X160334Y918749D01*
X160340Y918881D01*
X160342Y919014D01*
X141372Y914499D02*
X141372Y928045D01*
X134598Y928045D01*
X134598Y925788D01*
X115538Y934819D02*
X115538Y914499D01*
X115538Y934819D02*
X109893Y934819D01*
X109893Y934818D02*
X109745Y934816D01*
X109598Y934810D01*
X109450Y934801D01*
X109303Y934787D01*
X109156Y934770D01*
X109010Y934749D01*
X108864Y934723D01*
X108720Y934695D01*
X108575Y934662D01*
X108432Y934626D01*
X108290Y934586D01*
X108149Y934542D01*
X108009Y934494D01*
X107870Y934443D01*
X107733Y934388D01*
X107597Y934330D01*
X107463Y934268D01*
X107331Y934203D01*
X107200Y934134D01*
X107071Y934062D01*
X106944Y933986D01*
X106819Y933907D01*
X106696Y933825D01*
X106576Y933740D01*
X106457Y933652D01*
X106341Y933560D01*
X106228Y933466D01*
X106116Y933368D01*
X106008Y933268D01*
X105902Y933165D01*
X105799Y933059D01*
X105699Y932951D01*
X105601Y932839D01*
X105507Y932726D01*
X105415Y932610D01*
X105327Y932491D01*
X105242Y932371D01*
X105160Y932248D01*
X105081Y932123D01*
X105005Y931996D01*
X104933Y931867D01*
X104864Y931736D01*
X104799Y931604D01*
X104737Y931470D01*
X104679Y931334D01*
X104624Y931197D01*
X104573Y931058D01*
X104525Y930918D01*
X104481Y930777D01*
X104441Y930635D01*
X104405Y930492D01*
X104372Y930347D01*
X104344Y930203D01*
X104318Y930057D01*
X104297Y929911D01*
X104280Y929764D01*
X104266Y929617D01*
X104257Y929469D01*
X104251Y929322D01*
X104249Y929174D01*
X104249Y920143D01*
X104251Y919995D01*
X104257Y919848D01*
X104266Y919700D01*
X104280Y919553D01*
X104297Y919406D01*
X104318Y919260D01*
X104344Y919114D01*
X104372Y918970D01*
X104405Y918825D01*
X104441Y918682D01*
X104481Y918540D01*
X104525Y918399D01*
X104573Y918259D01*
X104624Y918120D01*
X104679Y917983D01*
X104737Y917847D01*
X104799Y917713D01*
X104864Y917581D01*
X104933Y917450D01*
X105005Y917321D01*
X105081Y917194D01*
X105160Y917069D01*
X105242Y916946D01*
X105327Y916826D01*
X105415Y916707D01*
X105507Y916591D01*
X105601Y916478D01*
X105699Y916366D01*
X105799Y916258D01*
X105902Y916152D01*
X106008Y916049D01*
X106116Y915949D01*
X106228Y915851D01*
X106341Y915757D01*
X106457Y915665D01*
X106576Y915577D01*
X106696Y915492D01*
X106819Y915410D01*
X106944Y915331D01*
X107071Y915255D01*
X107200Y915183D01*
X107331Y915114D01*
X107463Y915049D01*
X107597Y914987D01*
X107733Y914929D01*
X107870Y914874D01*
X108009Y914823D01*
X108149Y914775D01*
X108290Y914731D01*
X108432Y914691D01*
X108575Y914655D01*
X108720Y914622D01*
X108864Y914594D01*
X109010Y914568D01*
X109156Y914547D01*
X109303Y914530D01*
X109450Y914516D01*
X109598Y914507D01*
X109745Y914501D01*
X109893Y914499D01*
X115538Y914499D01*
X94582Y914499D02*
X94582Y928045D01*
X95147Y933690D02*
X95147Y934819D01*
X94018Y934819D01*
X94018Y933690D01*
X95147Y933690D01*
X85712Y934819D02*
X85712Y917885D01*
X85710Y917769D01*
X85704Y917654D01*
X85694Y917539D01*
X85680Y917424D01*
X85663Y917310D01*
X85641Y917196D01*
X85616Y917083D01*
X85586Y916971D01*
X85553Y916860D01*
X85516Y916751D01*
X85476Y916642D01*
X85432Y916536D01*
X85384Y916430D01*
X85332Y916327D01*
X85277Y916225D01*
X85219Y916125D01*
X85157Y916027D01*
X85092Y915932D01*
X85024Y915838D01*
X84952Y915748D01*
X84878Y915659D01*
X84800Y915573D01*
X84720Y915490D01*
X84637Y915410D01*
X84551Y915332D01*
X84463Y915258D01*
X84372Y915186D01*
X84278Y915118D01*
X84183Y915053D01*
X84085Y914991D01*
X83985Y914933D01*
X83883Y914878D01*
X83780Y914826D01*
X83674Y914778D01*
X83568Y914734D01*
X83459Y914694D01*
X83350Y914657D01*
X83239Y914624D01*
X83127Y914594D01*
X83014Y914569D01*
X82901Y914547D01*
X82786Y914530D01*
X82671Y914516D01*
X82556Y914506D01*
X82441Y914500D01*
X82325Y914498D01*
X73517Y914499D02*
X73517Y928045D01*
X63357Y928045D01*
X63357Y928046D02*
X63241Y928044D01*
X63126Y928038D01*
X63011Y928028D01*
X62896Y928014D01*
X62782Y927997D01*
X62668Y927975D01*
X62555Y927950D01*
X62443Y927920D01*
X62332Y927887D01*
X62223Y927850D01*
X62114Y927810D01*
X62008Y927766D01*
X61902Y927718D01*
X61799Y927666D01*
X61697Y927611D01*
X61597Y927553D01*
X61499Y927491D01*
X61404Y927426D01*
X61310Y927358D01*
X61220Y927286D01*
X61131Y927212D01*
X61045Y927134D01*
X60962Y927054D01*
X60882Y926971D01*
X60804Y926885D01*
X60730Y926797D01*
X60658Y926706D01*
X60590Y926612D01*
X60525Y926517D01*
X60463Y926419D01*
X60405Y926319D01*
X60350Y926217D01*
X60298Y926114D01*
X60250Y926008D01*
X60206Y925902D01*
X60166Y925793D01*
X60129Y925684D01*
X60096Y925573D01*
X60066Y925461D01*
X60041Y925348D01*
X60019Y925235D01*
X60002Y925120D01*
X59988Y925005D01*
X59978Y924890D01*
X59972Y924775D01*
X59970Y924659D01*
X59970Y914499D01*
X66744Y914499D02*
X66744Y928045D01*
X45877Y922401D02*
X40797Y922401D01*
X45877Y922401D02*
X46001Y922399D01*
X46125Y922393D01*
X46249Y922383D01*
X46372Y922370D01*
X46495Y922352D01*
X46617Y922331D01*
X46739Y922306D01*
X46860Y922277D01*
X46979Y922244D01*
X47098Y922208D01*
X47215Y922167D01*
X47331Y922124D01*
X47446Y922076D01*
X47559Y922025D01*
X47671Y921970D01*
X47780Y921912D01*
X47888Y921851D01*
X47994Y921786D01*
X48098Y921718D01*
X48199Y921646D01*
X48299Y921572D01*
X48395Y921494D01*
X48490Y921414D01*
X48582Y921330D01*
X48671Y921244D01*
X48757Y921155D01*
X48841Y921063D01*
X48921Y920968D01*
X48999Y920872D01*
X49073Y920772D01*
X49145Y920671D01*
X49213Y920567D01*
X49278Y920461D01*
X49339Y920353D01*
X49397Y920244D01*
X49452Y920132D01*
X49503Y920019D01*
X49551Y919904D01*
X49594Y919788D01*
X49635Y919671D01*
X49671Y919552D01*
X49704Y919433D01*
X49733Y919312D01*
X49758Y919190D01*
X49779Y919068D01*
X49797Y918945D01*
X49810Y918822D01*
X49820Y918698D01*
X49826Y918574D01*
X49828Y918450D01*
X49826Y918326D01*
X49820Y918202D01*
X49810Y918078D01*
X49797Y917955D01*
X49779Y917832D01*
X49758Y917710D01*
X49733Y917588D01*
X49704Y917467D01*
X49671Y917348D01*
X49635Y917229D01*
X49594Y917112D01*
X49551Y916996D01*
X49503Y916881D01*
X49452Y916768D01*
X49397Y916656D01*
X49339Y916547D01*
X49278Y916439D01*
X49213Y916333D01*
X49145Y916229D01*
X49073Y916128D01*
X48999Y916028D01*
X48921Y915932D01*
X48841Y915837D01*
X48757Y915745D01*
X48671Y915656D01*
X48582Y915570D01*
X48490Y915486D01*
X48395Y915406D01*
X48299Y915328D01*
X48199Y915254D01*
X48098Y915182D01*
X47994Y915114D01*
X47888Y915049D01*
X47780Y914988D01*
X47671Y914930D01*
X47559Y914875D01*
X47446Y914824D01*
X47331Y914776D01*
X47215Y914733D01*
X47098Y914692D01*
X46979Y914656D01*
X46860Y914623D01*
X46739Y914594D01*
X46617Y914569D01*
X46495Y914548D01*
X46372Y914530D01*
X46249Y914517D01*
X46125Y914507D01*
X46001Y914501D01*
X45877Y914499D01*
X40797Y914499D01*
X40797Y924659D01*
X40796Y924659D02*
X40798Y924775D01*
X40804Y924890D01*
X40814Y925005D01*
X40828Y925120D01*
X40845Y925234D01*
X40867Y925348D01*
X40892Y925461D01*
X40922Y925573D01*
X40955Y925684D01*
X40992Y925793D01*
X41032Y925902D01*
X41076Y926008D01*
X41124Y926114D01*
X41176Y926217D01*
X41231Y926319D01*
X41289Y926419D01*
X41351Y926517D01*
X41416Y926612D01*
X41484Y926706D01*
X41556Y926797D01*
X41630Y926885D01*
X41708Y926971D01*
X41788Y927054D01*
X41871Y927134D01*
X41957Y927212D01*
X42046Y927286D01*
X42136Y927358D01*
X42230Y927426D01*
X42325Y927491D01*
X42423Y927553D01*
X42523Y927611D01*
X42625Y927666D01*
X42728Y927718D01*
X42834Y927766D01*
X42940Y927810D01*
X43049Y927850D01*
X43158Y927887D01*
X43269Y927920D01*
X43381Y927950D01*
X43494Y927975D01*
X43608Y927997D01*
X43722Y928014D01*
X43837Y928028D01*
X43952Y928038D01*
X44067Y928044D01*
X44183Y928046D01*
X44183Y928045D02*
X48699Y928045D01*
X30198Y928045D02*
X30198Y914499D01*
X30198Y928045D02*
X24553Y928045D01*
X24553Y928046D02*
X24437Y928044D01*
X24322Y928038D01*
X24207Y928028D01*
X24092Y928014D01*
X23978Y927997D01*
X23864Y927975D01*
X23751Y927950D01*
X23639Y927920D01*
X23528Y927887D01*
X23419Y927850D01*
X23310Y927810D01*
X23204Y927766D01*
X23098Y927718D01*
X22995Y927666D01*
X22893Y927611D01*
X22793Y927553D01*
X22695Y927491D01*
X22600Y927426D01*
X22506Y927358D01*
X22416Y927286D01*
X22327Y927212D01*
X22241Y927134D01*
X22158Y927054D01*
X22078Y926971D01*
X22000Y926885D01*
X21926Y926797D01*
X21854Y926706D01*
X21786Y926612D01*
X21721Y926517D01*
X21659Y926419D01*
X21601Y926319D01*
X21546Y926217D01*
X21494Y926114D01*
X21446Y926008D01*
X21402Y925902D01*
X21362Y925793D01*
X21325Y925684D01*
X21292Y925573D01*
X21262Y925461D01*
X21237Y925348D01*
X21215Y925235D01*
X21198Y925120D01*
X21184Y925005D01*
X21174Y924890D01*
X21168Y924775D01*
X21166Y924659D01*
X21167Y924659D02*
X21167Y914499D01*
X210907Y967839D02*
X224453Y967839D01*
X224453Y974612D02*
X210907Y974612D01*
X221067Y981385D02*
X221067Y961065D01*
X214293Y961065D02*
X214293Y981385D01*
X201750Y975741D02*
X201750Y966710D01*
X201749Y975741D02*
X201747Y975890D01*
X201741Y976039D01*
X201731Y976188D01*
X201718Y976336D01*
X201700Y976484D01*
X201678Y976631D01*
X201653Y976778D01*
X201624Y976924D01*
X201590Y977069D01*
X201553Y977214D01*
X201513Y977357D01*
X201468Y977499D01*
X201420Y977640D01*
X201368Y977780D01*
X201312Y977918D01*
X201253Y978055D01*
X201190Y978190D01*
X201124Y978323D01*
X201054Y978455D01*
X200980Y978584D01*
X200904Y978712D01*
X200824Y978838D01*
X200740Y978961D01*
X200654Y979083D01*
X200564Y979201D01*
X200471Y979318D01*
X200375Y979432D01*
X200276Y979543D01*
X200174Y979652D01*
X200069Y979758D01*
X199962Y979861D01*
X199852Y979962D01*
X199739Y980059D01*
X199624Y980154D01*
X199506Y980245D01*
X199386Y980333D01*
X199264Y980418D01*
X199139Y980500D01*
X199013Y980578D01*
X198884Y980653D01*
X198753Y980725D01*
X198621Y980793D01*
X198487Y980858D01*
X198351Y980919D01*
X198213Y980977D01*
X198074Y981030D01*
X197934Y981080D01*
X197792Y981127D01*
X197650Y981170D01*
X197506Y981208D01*
X197361Y981243D01*
X197215Y981275D01*
X197069Y981302D01*
X196922Y981326D01*
X196774Y981345D01*
X196626Y981361D01*
X196477Y981373D01*
X196328Y981381D01*
X196179Y981385D01*
X196031Y981385D01*
X195882Y981381D01*
X195733Y981373D01*
X195584Y981361D01*
X195436Y981345D01*
X195288Y981326D01*
X195141Y981302D01*
X194995Y981275D01*
X194849Y981243D01*
X194704Y981208D01*
X194560Y981170D01*
X194418Y981127D01*
X194276Y981080D01*
X194136Y981030D01*
X193997Y980977D01*
X193859Y980919D01*
X193723Y980858D01*
X193589Y980793D01*
X193457Y980725D01*
X193326Y980653D01*
X193197Y980578D01*
X193071Y980500D01*
X192946Y980418D01*
X192824Y980333D01*
X192704Y980245D01*
X192586Y980154D01*
X192471Y980059D01*
X192358Y979962D01*
X192248Y979861D01*
X192141Y979758D01*
X192036Y979652D01*
X191934Y979543D01*
X191835Y979432D01*
X191739Y979318D01*
X191646Y979201D01*
X191556Y979083D01*
X191470Y978961D01*
X191386Y978838D01*
X191306Y978712D01*
X191230Y978584D01*
X191156Y978455D01*
X191086Y978323D01*
X191020Y978190D01*
X190957Y978055D01*
X190898Y977918D01*
X190842Y977780D01*
X190790Y977640D01*
X190742Y977499D01*
X190697Y977357D01*
X190657Y977214D01*
X190620Y977069D01*
X190586Y976924D01*
X190557Y976778D01*
X190532Y976631D01*
X190510Y976484D01*
X190492Y976336D01*
X190479Y976188D01*
X190469Y976039D01*
X190463Y975890D01*
X190461Y975741D01*
X190461Y966710D01*
X190463Y966561D01*
X190469Y966412D01*
X190479Y966263D01*
X190492Y966115D01*
X190510Y965967D01*
X190532Y965820D01*
X190557Y965673D01*
X190586Y965527D01*
X190620Y965382D01*
X190657Y965237D01*
X190697Y965094D01*
X190742Y964952D01*
X190790Y964811D01*
X190842Y964671D01*
X190898Y964533D01*
X190957Y964396D01*
X191020Y964261D01*
X191086Y964128D01*
X191156Y963996D01*
X191230Y963867D01*
X191306Y963739D01*
X191386Y963613D01*
X191470Y963490D01*
X191556Y963368D01*
X191646Y963250D01*
X191739Y963133D01*
X191835Y963019D01*
X191934Y962908D01*
X192036Y962799D01*
X192141Y962693D01*
X192248Y962590D01*
X192358Y962489D01*
X192471Y962392D01*
X192586Y962297D01*
X192704Y962206D01*
X192824Y962118D01*
X192946Y962033D01*
X193071Y961951D01*
X193197Y961873D01*
X193326Y961798D01*
X193457Y961726D01*
X193589Y961658D01*
X193723Y961593D01*
X193859Y961532D01*
X193997Y961474D01*
X194136Y961421D01*
X194276Y961371D01*
X194418Y961324D01*
X194560Y961281D01*
X194704Y961243D01*
X194849Y961208D01*
X194995Y961176D01*
X195141Y961149D01*
X195288Y961125D01*
X195436Y961106D01*
X195584Y961090D01*
X195733Y961078D01*
X195882Y961070D01*
X196031Y961066D01*
X196179Y961066D01*
X196328Y961070D01*
X196477Y961078D01*
X196626Y961090D01*
X196774Y961106D01*
X196922Y961125D01*
X197069Y961149D01*
X197215Y961176D01*
X197361Y961208D01*
X197506Y961243D01*
X197650Y961281D01*
X197792Y961324D01*
X197934Y961371D01*
X198074Y961421D01*
X198213Y961474D01*
X198351Y961532D01*
X198487Y961593D01*
X198621Y961658D01*
X198753Y961726D01*
X198884Y961798D01*
X199013Y961873D01*
X199139Y961951D01*
X199264Y962033D01*
X199386Y962118D01*
X199506Y962206D01*
X199624Y962297D01*
X199739Y962392D01*
X199852Y962489D01*
X199962Y962590D01*
X200069Y962693D01*
X200174Y962799D01*
X200276Y962908D01*
X200375Y963019D01*
X200471Y963133D01*
X200564Y963250D01*
X200654Y963368D01*
X200740Y963490D01*
X200824Y963613D01*
X200904Y963739D01*
X200980Y963867D01*
X201054Y963996D01*
X201124Y964128D01*
X201190Y964261D01*
X201253Y964396D01*
X201312Y964533D01*
X201368Y964671D01*
X201420Y964811D01*
X201468Y964952D01*
X201513Y965094D01*
X201553Y965237D01*
X201590Y965382D01*
X201624Y965527D01*
X201653Y965673D01*
X201678Y965820D01*
X201700Y965967D01*
X201718Y966115D01*
X201731Y966263D01*
X201741Y966412D01*
X201747Y966561D01*
X201749Y966710D01*
X180438Y961065D02*
X180438Y981385D01*
X180438Y974612D02*
X174794Y974612D01*
X174678Y974610D01*
X174563Y974604D01*
X174448Y974594D01*
X174333Y974580D01*
X174219Y974563D01*
X174105Y974541D01*
X173992Y974516D01*
X173880Y974486D01*
X173769Y974453D01*
X173660Y974416D01*
X173551Y974376D01*
X173445Y974332D01*
X173339Y974284D01*
X173236Y974232D01*
X173134Y974177D01*
X173034Y974119D01*
X172936Y974057D01*
X172841Y973992D01*
X172747Y973924D01*
X172657Y973852D01*
X172568Y973778D01*
X172482Y973700D01*
X172399Y973620D01*
X172319Y973537D01*
X172241Y973451D01*
X172167Y973363D01*
X172095Y973272D01*
X172027Y973178D01*
X171962Y973083D01*
X171900Y972985D01*
X171842Y972885D01*
X171787Y972783D01*
X171735Y972680D01*
X171687Y972574D01*
X171643Y972468D01*
X171603Y972359D01*
X171566Y972250D01*
X171533Y972139D01*
X171503Y972027D01*
X171478Y971914D01*
X171456Y971801D01*
X171439Y971686D01*
X171425Y971571D01*
X171415Y971456D01*
X171409Y971341D01*
X171407Y971225D01*
X171407Y961065D01*
X160425Y961065D02*
X160425Y974612D01*
X150265Y974612D01*
X150149Y974610D01*
X150034Y974604D01*
X149919Y974594D01*
X149804Y974580D01*
X149690Y974563D01*
X149576Y974541D01*
X149463Y974516D01*
X149351Y974486D01*
X149240Y974453D01*
X149131Y974416D01*
X149022Y974376D01*
X148916Y974332D01*
X148810Y974284D01*
X148707Y974232D01*
X148605Y974177D01*
X148505Y974119D01*
X148407Y974057D01*
X148312Y973992D01*
X148218Y973924D01*
X148128Y973852D01*
X148039Y973778D01*
X147953Y973700D01*
X147870Y973620D01*
X147790Y973537D01*
X147712Y973451D01*
X147638Y973363D01*
X147566Y973272D01*
X147498Y973178D01*
X147433Y973083D01*
X147371Y972985D01*
X147313Y972885D01*
X147258Y972783D01*
X147206Y972680D01*
X147158Y972574D01*
X147114Y972468D01*
X147074Y972359D01*
X147037Y972250D01*
X147004Y972139D01*
X146974Y972027D01*
X146949Y971914D01*
X146927Y971801D01*
X146910Y971686D01*
X146896Y971571D01*
X146886Y971456D01*
X146880Y971341D01*
X146878Y971225D01*
X146878Y961065D01*
X153652Y961065D02*
X153652Y974612D01*
X138341Y981385D02*
X138341Y985901D01*
X129332Y968967D02*
X123687Y966710D01*
X129332Y968967D02*
X129431Y969009D01*
X129527Y969054D01*
X129623Y969102D01*
X129716Y969155D01*
X129807Y969210D01*
X129897Y969269D01*
X129984Y969331D01*
X130069Y969396D01*
X130151Y969464D01*
X130231Y969535D01*
X130308Y969609D01*
X130383Y969685D01*
X130454Y969765D01*
X130523Y969847D01*
X130588Y969931D01*
X130651Y970018D01*
X130710Y970107D01*
X130766Y970198D01*
X130819Y970291D01*
X130868Y970386D01*
X130914Y970482D01*
X130956Y970581D01*
X130994Y970680D01*
X131029Y970781D01*
X131060Y970884D01*
X131088Y970987D01*
X131111Y971091D01*
X131131Y971196D01*
X131147Y971302D01*
X131159Y971408D01*
X131167Y971515D01*
X131171Y971621D01*
X131172Y971728D01*
X131168Y971835D01*
X131161Y971942D01*
X131149Y972048D01*
X131134Y972154D01*
X131115Y972259D01*
X131092Y972363D01*
X131066Y972467D01*
X131035Y972569D01*
X131001Y972671D01*
X130963Y972771D01*
X130922Y972869D01*
X130877Y972966D01*
X130828Y973061D01*
X130776Y973155D01*
X130721Y973246D01*
X130662Y973336D01*
X130600Y973423D01*
X130535Y973508D01*
X130467Y973590D01*
X130396Y973670D01*
X130322Y973747D01*
X130246Y973821D01*
X130166Y973893D01*
X130084Y973962D01*
X130000Y974027D01*
X129913Y974090D01*
X129824Y974149D01*
X129733Y974205D01*
X129640Y974258D01*
X129546Y974307D01*
X129449Y974353D01*
X129351Y974395D01*
X129251Y974434D01*
X129150Y974469D01*
X129048Y974500D01*
X128945Y974527D01*
X128840Y974551D01*
X128735Y974571D01*
X128630Y974587D01*
X128523Y974599D01*
X128417Y974607D01*
X128310Y974611D01*
X128203Y974612D01*
X127895Y974604D01*
X127587Y974588D01*
X127279Y974565D01*
X126973Y974535D01*
X126667Y974497D01*
X126362Y974452D01*
X126058Y974400D01*
X125756Y974340D01*
X125455Y974273D01*
X125155Y974199D01*
X124858Y974118D01*
X124563Y974030D01*
X124270Y973934D01*
X123979Y973832D01*
X123691Y973722D01*
X123405Y973606D01*
X123123Y973483D01*
X123687Y966710D02*
X123588Y966668D01*
X123492Y966623D01*
X123396Y966575D01*
X123303Y966522D01*
X123212Y966467D01*
X123122Y966408D01*
X123035Y966346D01*
X122950Y966281D01*
X122868Y966213D01*
X122788Y966142D01*
X122711Y966068D01*
X122636Y965992D01*
X122565Y965912D01*
X122496Y965830D01*
X122431Y965746D01*
X122368Y965659D01*
X122309Y965570D01*
X122253Y965479D01*
X122200Y965386D01*
X122151Y965291D01*
X122105Y965195D01*
X122063Y965096D01*
X122025Y964997D01*
X121990Y964896D01*
X121959Y964793D01*
X121931Y964690D01*
X121908Y964586D01*
X121888Y964481D01*
X121872Y964375D01*
X121860Y964269D01*
X121852Y964162D01*
X121848Y964056D01*
X121847Y963949D01*
X121851Y963842D01*
X121858Y963735D01*
X121870Y963629D01*
X121885Y963523D01*
X121904Y963418D01*
X121927Y963314D01*
X121953Y963210D01*
X121984Y963108D01*
X122018Y963006D01*
X122056Y962906D01*
X122097Y962808D01*
X122142Y962711D01*
X122191Y962616D01*
X122243Y962522D01*
X122298Y962431D01*
X122357Y962341D01*
X122419Y962254D01*
X122484Y962169D01*
X122552Y962087D01*
X122623Y962007D01*
X122697Y961930D01*
X122773Y961856D01*
X122853Y961784D01*
X122935Y961715D01*
X123019Y961650D01*
X123106Y961587D01*
X123195Y961528D01*
X123286Y961472D01*
X123379Y961419D01*
X123473Y961370D01*
X123570Y961324D01*
X123668Y961282D01*
X123768Y961243D01*
X123869Y961208D01*
X123971Y961177D01*
X124074Y961150D01*
X124179Y961126D01*
X124284Y961106D01*
X124389Y961090D01*
X124496Y961078D01*
X124602Y961070D01*
X124709Y961066D01*
X124816Y961065D01*
X124816Y961066D02*
X125268Y961078D01*
X125721Y961100D01*
X126172Y961134D01*
X126623Y961177D01*
X127072Y961232D01*
X127520Y961297D01*
X127967Y961373D01*
X128411Y961459D01*
X128854Y961556D01*
X129294Y961663D01*
X129731Y961781D01*
X130165Y961908D01*
X130597Y962047D01*
X131024Y962195D01*
X95454Y961065D02*
X95323Y961067D01*
X95191Y961073D01*
X95060Y961082D01*
X94930Y961096D01*
X94799Y961113D01*
X94670Y961134D01*
X94541Y961158D01*
X94413Y961187D01*
X94285Y961219D01*
X94159Y961255D01*
X94034Y961294D01*
X93909Y961337D01*
X93787Y961384D01*
X93665Y961434D01*
X93545Y961488D01*
X93427Y961545D01*
X93311Y961606D01*
X93196Y961670D01*
X93083Y961737D01*
X92972Y961808D01*
X92864Y961882D01*
X92757Y961959D01*
X92653Y962039D01*
X92551Y962122D01*
X92452Y962207D01*
X92355Y962296D01*
X92261Y962388D01*
X92169Y962482D01*
X92080Y962579D01*
X91995Y962678D01*
X91912Y962780D01*
X91832Y962884D01*
X91755Y962991D01*
X91681Y963099D01*
X91610Y963210D01*
X91543Y963323D01*
X91479Y963438D01*
X91418Y963554D01*
X91361Y963672D01*
X91307Y963792D01*
X91257Y963914D01*
X91210Y964036D01*
X91167Y964161D01*
X91128Y964286D01*
X91092Y964412D01*
X91060Y964540D01*
X91031Y964668D01*
X91007Y964797D01*
X90986Y964926D01*
X90969Y965057D01*
X90955Y965187D01*
X90946Y965318D01*
X90940Y965450D01*
X90938Y965581D01*
X95454Y961065D02*
X95682Y961068D01*
X95910Y961076D01*
X96138Y961090D01*
X96366Y961109D01*
X96592Y961133D01*
X96819Y961163D01*
X97044Y961198D01*
X97269Y961239D01*
X97492Y961285D01*
X97715Y961337D01*
X97936Y961393D01*
X98155Y961455D01*
X98373Y961523D01*
X98590Y961595D01*
X98805Y961673D01*
X99017Y961756D01*
X99228Y961843D01*
X99436Y961936D01*
X99643Y962034D01*
X99847Y962137D01*
X100048Y962244D01*
X100247Y962356D01*
X100442Y962473D01*
X100636Y962595D01*
X100826Y962721D01*
X101013Y962852D01*
X101197Y962987D01*
X101377Y963127D01*
X101554Y963271D01*
X101728Y963419D01*
X101898Y963571D01*
X102065Y963727D01*
X102227Y963887D01*
X101664Y976870D02*
X101662Y977001D01*
X101656Y977133D01*
X101647Y977264D01*
X101633Y977394D01*
X101616Y977525D01*
X101595Y977654D01*
X101571Y977783D01*
X101542Y977911D01*
X101510Y978039D01*
X101474Y978165D01*
X101435Y978290D01*
X101392Y978415D01*
X101345Y978537D01*
X101295Y978659D01*
X101241Y978779D01*
X101184Y978897D01*
X101123Y979013D01*
X101059Y979128D01*
X100992Y979241D01*
X100921Y979352D01*
X100847Y979460D01*
X100770Y979567D01*
X100690Y979671D01*
X100607Y979773D01*
X100522Y979872D01*
X100433Y979969D01*
X100341Y980063D01*
X100247Y980155D01*
X100150Y980244D01*
X100051Y980329D01*
X99949Y980412D01*
X99845Y980492D01*
X99738Y980569D01*
X99630Y980643D01*
X99519Y980714D01*
X99406Y980781D01*
X99291Y980845D01*
X99175Y980906D01*
X99057Y980963D01*
X98937Y981017D01*
X98815Y981067D01*
X98693Y981114D01*
X98568Y981157D01*
X98443Y981196D01*
X98317Y981232D01*
X98189Y981264D01*
X98061Y981293D01*
X97932Y981317D01*
X97803Y981338D01*
X97672Y981355D01*
X97542Y981369D01*
X97411Y981378D01*
X97279Y981384D01*
X97148Y981386D01*
X96946Y981384D01*
X96745Y981376D01*
X96543Y981364D01*
X96342Y981348D01*
X96141Y981326D01*
X95941Y981300D01*
X95742Y981268D01*
X95543Y981233D01*
X95346Y981192D01*
X95149Y981147D01*
X94954Y981097D01*
X94759Y981042D01*
X94566Y980983D01*
X94375Y980919D01*
X94185Y980851D01*
X93997Y980778D01*
X93811Y980700D01*
X93626Y980619D01*
X93444Y980533D01*
X93263Y980442D01*
X93085Y980347D01*
X92909Y980249D01*
X92736Y980145D01*
X92565Y980038D01*
X92396Y979927D01*
X92231Y979812D01*
X92068Y979693D01*
X99405Y972919D02*
X99518Y972988D01*
X99629Y973060D01*
X99738Y973135D01*
X99845Y973213D01*
X99949Y973295D01*
X100051Y973379D01*
X100150Y973466D01*
X100247Y973556D01*
X100341Y973649D01*
X100433Y973744D01*
X100522Y973843D01*
X100608Y973943D01*
X100690Y974046D01*
X100770Y974152D01*
X100847Y974259D01*
X100921Y974369D01*
X100992Y974481D01*
X101059Y974595D01*
X101123Y974710D01*
X101183Y974828D01*
X101240Y974947D01*
X101294Y975068D01*
X101344Y975191D01*
X101391Y975314D01*
X101434Y975439D01*
X101474Y975566D01*
X101509Y975693D01*
X101541Y975821D01*
X101570Y975950D01*
X101595Y976080D01*
X101615Y976211D01*
X101633Y976342D01*
X101646Y976474D01*
X101655Y976606D01*
X101661Y976738D01*
X101663Y976870D01*
X93197Y969532D02*
X93084Y969463D01*
X92973Y969391D01*
X92864Y969316D01*
X92757Y969238D01*
X92653Y969156D01*
X92551Y969072D01*
X92452Y968985D01*
X92355Y968895D01*
X92261Y968802D01*
X92169Y968707D01*
X92080Y968609D01*
X91994Y968508D01*
X91912Y968405D01*
X91832Y968300D01*
X91755Y968192D01*
X91681Y968082D01*
X91611Y967970D01*
X91543Y967856D01*
X91479Y967741D01*
X91419Y967623D01*
X91362Y967504D01*
X91308Y967383D01*
X91258Y967260D01*
X91211Y967137D01*
X91168Y967012D01*
X91128Y966885D01*
X91093Y966758D01*
X91061Y966630D01*
X91032Y966501D01*
X91007Y966371D01*
X90987Y966240D01*
X90969Y966109D01*
X90956Y965977D01*
X90947Y965845D01*
X90941Y965713D01*
X90939Y965581D01*
X93197Y969532D02*
X99405Y972919D01*
X83004Y954292D02*
X80746Y954292D01*
X73973Y974612D01*
X83004Y974612D02*
X78488Y961065D01*
X64909Y961065D02*
X64909Y974612D01*
X59265Y974612D01*
X59149Y974610D01*
X59034Y974604D01*
X58919Y974594D01*
X58804Y974580D01*
X58690Y974563D01*
X58576Y974541D01*
X58463Y974516D01*
X58351Y974486D01*
X58240Y974453D01*
X58131Y974416D01*
X58022Y974376D01*
X57916Y974332D01*
X57810Y974284D01*
X57707Y974232D01*
X57605Y974177D01*
X57505Y974119D01*
X57407Y974057D01*
X57312Y973992D01*
X57218Y973924D01*
X57128Y973852D01*
X57039Y973778D01*
X56953Y973700D01*
X56870Y973620D01*
X56790Y973537D01*
X56712Y973451D01*
X56638Y973363D01*
X56566Y973272D01*
X56498Y973178D01*
X56433Y973083D01*
X56371Y972985D01*
X56313Y972885D01*
X56258Y972783D01*
X56206Y972680D01*
X56158Y972574D01*
X56114Y972468D01*
X56074Y972359D01*
X56037Y972250D01*
X56004Y972139D01*
X55974Y972027D01*
X55949Y971914D01*
X55927Y971801D01*
X55910Y971686D01*
X55896Y971571D01*
X55886Y971456D01*
X55880Y971341D01*
X55878Y971225D01*
X55878Y961065D01*
X48009Y974612D02*
X41235Y974612D01*
X45751Y981385D02*
X45751Y964452D01*
X45749Y964336D01*
X45743Y964221D01*
X45733Y964106D01*
X45719Y963991D01*
X45702Y963877D01*
X45680Y963763D01*
X45655Y963650D01*
X45625Y963538D01*
X45592Y963427D01*
X45555Y963318D01*
X45515Y963209D01*
X45471Y963103D01*
X45423Y962997D01*
X45371Y962894D01*
X45316Y962792D01*
X45258Y962692D01*
X45196Y962594D01*
X45131Y962499D01*
X45063Y962405D01*
X44991Y962314D01*
X44917Y962226D01*
X44839Y962140D01*
X44759Y962057D01*
X44676Y961977D01*
X44590Y961899D01*
X44501Y961825D01*
X44411Y961753D01*
X44317Y961685D01*
X44222Y961620D01*
X44124Y961558D01*
X44024Y961500D01*
X43922Y961445D01*
X43819Y961393D01*
X43713Y961345D01*
X43607Y961301D01*
X43498Y961261D01*
X43389Y961224D01*
X43278Y961191D01*
X43166Y961161D01*
X43053Y961136D01*
X42939Y961114D01*
X42825Y961097D01*
X42710Y961083D01*
X42595Y961073D01*
X42480Y961067D01*
X42364Y961065D01*
X41235Y961065D01*
X32199Y961065D02*
X32199Y981385D01*
X32199Y974612D02*
X26555Y974612D01*
X26439Y974610D01*
X26324Y974604D01*
X26209Y974594D01*
X26094Y974580D01*
X25980Y974563D01*
X25866Y974541D01*
X25753Y974516D01*
X25641Y974486D01*
X25530Y974453D01*
X25421Y974416D01*
X25312Y974376D01*
X25206Y974332D01*
X25100Y974284D01*
X24997Y974232D01*
X24895Y974177D01*
X24795Y974119D01*
X24697Y974057D01*
X24602Y973992D01*
X24508Y973924D01*
X24418Y973852D01*
X24329Y973778D01*
X24243Y973700D01*
X24160Y973620D01*
X24080Y973537D01*
X24002Y973451D01*
X23928Y973363D01*
X23856Y973272D01*
X23788Y973178D01*
X23723Y973083D01*
X23661Y972985D01*
X23603Y972885D01*
X23548Y972783D01*
X23496Y972680D01*
X23448Y972574D01*
X23404Y972468D01*
X23364Y972359D01*
X23327Y972250D01*
X23294Y972139D01*
X23264Y972027D01*
X23239Y971914D01*
X23217Y971801D01*
X23200Y971686D01*
X23186Y971571D01*
X23176Y971456D01*
X23170Y971341D01*
X23168Y971225D01*
X23168Y961065D01*
D11*
X393700Y609600D03*
X393700Y558800D03*
X254000Y302332D03*
X254000Y251532D03*
D12*
X393700Y442214D03*
X393700Y366014D03*
D13*
X385566Y167132D02*
X372358Y167132D01*
X372358Y192532D02*
X385566Y192532D01*
X385566Y319532D02*
X372358Y319532D01*
X309366Y319532D02*
X296158Y319532D01*
X372358Y217932D02*
X385566Y217932D01*
X385566Y243332D02*
X372358Y243332D01*
X372358Y294132D02*
X385566Y294132D01*
X385566Y268732D02*
X372358Y268732D01*
X309366Y294132D02*
X296158Y294132D01*
X296158Y268732D02*
X309366Y268732D01*
X309366Y243332D02*
X296158Y243332D01*
X296158Y217932D02*
X309366Y217932D01*
X309366Y192532D02*
X296158Y192532D01*
X296158Y167132D02*
X309366Y167132D01*
X267964Y651002D02*
X254756Y651002D01*
X254756Y625602D02*
X267964Y625602D01*
X267964Y498602D02*
X254756Y498602D01*
X330956Y498602D02*
X344164Y498602D01*
X267964Y600202D02*
X254756Y600202D01*
X254756Y574802D02*
X267964Y574802D01*
X267964Y524002D02*
X254756Y524002D01*
X254756Y549402D02*
X267964Y549402D01*
X330956Y524002D02*
X344164Y524002D01*
X344164Y549402D02*
X330956Y549402D01*
X330956Y574802D02*
X344164Y574802D01*
X344164Y600202D02*
X330956Y600202D01*
X330956Y625602D02*
X344164Y625602D01*
X344164Y651002D02*
X330956Y651002D01*
D14*
X520700Y927100D03*
X546100Y927100D03*
X520700Y901700D03*
X546100Y901700D03*
X520700Y876300D03*
X546100Y876300D03*
X520700Y850900D03*
X546100Y850900D03*
X520700Y825500D03*
X546100Y825500D03*
D15*
X306832Y442468D03*
X287782Y429768D03*
X306832Y417068D03*
D11*
X342900Y416560D03*
X361950Y429260D03*
X342900Y441960D03*
D15*
X433070Y873760D03*
X433070Y949960D03*
X254000Y141732D03*
X254000Y217932D03*
D11*
X215900Y306832D03*
X215900Y230632D03*
X215972Y162049D03*
X215972Y85849D03*
D16*
X215900Y54610D03*
X292100Y54610D03*
D15*
X457200Y535432D03*
X457200Y611632D03*
X445768Y181866D03*
X445768Y258066D03*
D16*
X457200Y386018D03*
X533400Y386018D03*
D15*
X435356Y431546D03*
X435356Y507746D03*
D11*
X418592Y324358D03*
X418592Y248158D03*
D16*
X419100Y154432D03*
X495300Y154432D03*
D15*
X342900Y751332D03*
X342900Y827532D03*
D17*
X139700Y809498D03*
X63500Y809498D03*
D11*
X304800Y825500D03*
X304800Y749300D03*
D16*
X101600Y596900D03*
X177800Y596900D03*
D15*
X177800Y254000D03*
X177800Y330200D03*
X101600Y292100D03*
X101600Y368300D03*
X216154Y467620D03*
X216154Y543820D03*
D18*
X228600Y431800D03*
X228600Y406400D03*
X228600Y381000D03*
D16*
X263906Y369316D03*
X340106Y369316D03*
D14*
X279292Y844400D03*
X304292Y844400D03*
X329292Y844400D03*
D19*
X260292Y914400D03*
X348292Y914400D03*
D14*
X113900Y755800D03*
X88900Y755800D03*
X63900Y755800D03*
D19*
X132900Y685800D03*
X44900Y685800D03*
D14*
X63900Y425300D03*
X88900Y425300D03*
X113900Y425300D03*
D19*
X44900Y495300D03*
X132900Y495300D03*
D14*
X558400Y755800D03*
X533400Y755800D03*
X508400Y755800D03*
D19*
X577400Y685800D03*
X489400Y685800D03*
D14*
X508400Y425300D03*
X533400Y425300D03*
X558400Y425300D03*
D19*
X489400Y495300D03*
X577400Y495300D03*
D20*
X137600Y74440D03*
X101600Y41440D03*
X66600Y73440D03*
X101600Y121440D03*
X137600Y223600D03*
X101600Y190600D03*
X66600Y222600D03*
X101600Y270600D03*
X569400Y274400D03*
X533400Y241400D03*
X498400Y273400D03*
X533400Y321400D03*
X417000Y74440D03*
X381000Y41440D03*
X346000Y73440D03*
X381000Y121440D03*
X569400Y74440D03*
X533400Y41440D03*
X498400Y73440D03*
X533400Y121440D03*
D13*
X277368Y734060D02*
X264160Y734060D01*
X264160Y708660D02*
X277368Y708660D01*
X215900Y692404D02*
X215900Y679196D01*
X241300Y679196D02*
X241300Y692404D01*
X184404Y355600D02*
X171196Y355600D01*
X171196Y381000D02*
X184404Y381000D01*
X70104Y368300D02*
X56896Y368300D01*
X56896Y393700D02*
X70104Y393700D01*
D21*
X304292Y826008D02*
X304292Y844400D01*
X304292Y826008D02*
X304800Y825500D01*
X361950Y429260D02*
X361950Y410972D01*
X346202Y395224D01*
X307340Y416560D02*
X306832Y417068D01*
X307340Y416560D02*
X307340Y395224D01*
X289814Y395224D02*
X263906Y369316D01*
X289814Y395224D02*
X307340Y395224D01*
X346202Y395224D01*
X177800Y184940D02*
X114300Y121440D01*
X101600Y121440D01*
X177800Y184940D02*
X177800Y254000D01*
X101600Y270600D02*
X101600Y292100D01*
X215900Y85777D02*
X215900Y54610D01*
X215900Y85777D02*
X215972Y85849D01*
X279400Y143770D02*
X302762Y167132D01*
X279400Y143770D02*
X279400Y114300D01*
X250877Y85777D01*
X215900Y85777D01*
X329292Y841140D02*
X329292Y844400D01*
X329292Y841140D02*
X342900Y827532D01*
X533400Y425300D02*
X533400Y386018D01*
X533400Y425300D02*
X558400Y425300D01*
X503428Y611228D02*
X457604Y611228D01*
X457200Y611632D01*
X533400Y641200D02*
X533400Y755800D01*
X533400Y641200D02*
X503428Y611228D01*
X88900Y609600D02*
X88900Y755800D01*
X88900Y609600D02*
X101600Y596900D01*
X432562Y874268D02*
X433070Y873760D01*
X432562Y874268D02*
X386842Y874268D01*
X386738Y874372D02*
X297138Y874372D01*
X279292Y856526D01*
X279292Y844400D01*
X386738Y874372D02*
X386842Y874268D01*
X63900Y809098D02*
X63500Y809498D01*
X63900Y809098D02*
X63900Y755800D01*
X216154Y467620D02*
X216154Y444246D01*
X228600Y431800D01*
X230632Y429768D02*
X287782Y429768D01*
X230632Y429768D02*
X228600Y431800D01*
X215900Y162121D02*
X215972Y162049D01*
X215900Y162121D02*
X215900Y211935D01*
X235557Y192278D01*
X215900Y211935D02*
X215900Y230632D01*
X302508Y192278D02*
X302762Y192532D01*
X302508Y192278D02*
X235557Y192278D01*
X495300Y154432D02*
X520954Y154432D01*
X533400Y141986D01*
X533400Y121440D01*
X508400Y379928D02*
X508400Y425300D01*
X533400Y354928D02*
X533400Y321400D01*
X533400Y354928D02*
X508400Y379928D01*
X381000Y121440D02*
X339880Y121440D01*
X292100Y73660D01*
X292100Y54610D01*
X576072Y922528D02*
X571500Y927100D01*
X546100Y927100D01*
X576072Y922528D02*
X576072Y773472D01*
X558400Y755800D01*
X546100Y927100D02*
X446532Y927100D01*
X433070Y940562D01*
X433070Y949960D01*
X554526Y630850D02*
X554526Y629510D01*
X514042Y589026D02*
X450596Y589026D01*
X388620Y651002D01*
X337560Y651002D01*
X418338Y554326D02*
X395732Y531720D01*
X395732Y486606D01*
X414528Y467809D01*
X344579Y369316D02*
X340106Y369316D01*
X425853Y279400D02*
X389785Y243332D01*
X378962Y243332D01*
X425853Y279400D02*
X457200Y279400D01*
X469900Y266700D01*
X469900Y215900D01*
X482600Y203200D01*
X584200Y203200D01*
X605590Y224590D01*
X605590Y528732D01*
X546100Y927100D02*
X520700Y927100D01*
X418338Y564487D02*
X418338Y554326D01*
X418338Y564487D02*
X442877Y589026D01*
X450596Y589026D01*
X414528Y467809D02*
X414528Y439265D01*
X344579Y369316D01*
X553002Y750402D02*
X558400Y755800D01*
X553002Y750402D02*
X553002Y632374D01*
X529669Y604653D02*
X605590Y528732D01*
X554526Y630850D02*
X553002Y632374D01*
X554526Y629510D02*
X529669Y604653D01*
X514042Y589026D01*
X342900Y716032D02*
X342900Y751332D01*
X342900Y716032D02*
X284474Y657606D01*
X284474Y464826D01*
X306832Y442468D01*
X347368Y755800D02*
X508400Y755800D01*
X347368Y755800D02*
X342900Y751332D01*
X546100Y793500D02*
X546100Y825500D01*
X546100Y793500D02*
X508400Y755800D01*
X284734Y809498D02*
X139700Y809498D01*
X284734Y809498D02*
X342900Y751332D01*
X139700Y809498D02*
X139700Y825500D01*
X127000Y838200D01*
X38100Y838200D01*
X16510Y816610D02*
X16510Y342900D01*
X16510Y816610D02*
X38100Y838200D01*
X290068Y243332D02*
X302762Y243332D01*
X290068Y243332D02*
X256032Y277368D01*
X179832Y277368D01*
X127000Y330200D01*
X29210Y330200D01*
X16510Y342900D01*
X520700Y825500D02*
X546100Y825500D01*
X546100Y901700D02*
X520700Y901700D01*
X520700Y876300D02*
X546100Y876300D01*
X546100Y850900D02*
X520700Y850900D01*
D22*
X408178Y783844D03*
X408940Y725170D03*
X373126Y725678D03*
X314452Y725932D03*
X43942Y306578D03*
X43942Y351028D03*
D21*
X286004Y749300D02*
X304800Y749300D01*
X286004Y749300D02*
X270764Y734060D01*
X177800Y662686D02*
X177800Y596900D01*
X200914Y685800D02*
X215900Y685800D01*
X200914Y685800D02*
X177800Y662686D01*
X177800Y355600D02*
X177800Y330200D01*
X70104Y419096D02*
X63900Y425300D01*
X70104Y419096D02*
X70104Y393700D01*
X63500Y393700D01*
X264414Y708914D02*
X270510Y708914D01*
X264414Y708914D02*
X241300Y685800D01*
X270510Y708914D02*
X270764Y708660D01*
X113900Y425300D02*
X88900Y425300D01*
X241300Y673100D02*
X241300Y685800D01*
X241300Y673100D02*
X216154Y647954D01*
X216154Y543820D01*
X216154Y514600D02*
X126854Y425300D01*
X113900Y425300D01*
X216154Y514600D02*
X216154Y543820D01*
X177800Y386080D02*
X177800Y381000D01*
X177800Y386080D02*
X138938Y424942D01*
X114258Y424942D01*
X113900Y425300D01*
X101600Y368300D02*
X63500Y368300D01*
X254000Y217932D02*
X302762Y217932D01*
X254000Y217932D02*
X254000Y251532D01*
X302762Y217932D02*
X332232Y217932D01*
X342900Y228600D01*
X342900Y254000D01*
X357632Y268732D01*
X378962Y268732D01*
X302762Y294132D02*
X302762Y319532D01*
X302762Y294132D02*
X262200Y294132D01*
X254000Y302332D01*
X457200Y334518D02*
X457200Y386018D01*
X457200Y535432D01*
X455676Y535432D01*
X435356Y515112D01*
X435356Y507746D01*
X457200Y334518D02*
X416814Y294132D01*
X378962Y294132D01*
X407670Y324358D02*
X418592Y324358D01*
X407670Y324358D02*
X403098Y319786D01*
X379216Y319786D01*
X378962Y319532D01*
X418592Y248158D02*
X418592Y236734D01*
X399790Y217932D01*
X378962Y217932D01*
X428500Y258066D02*
X445768Y258066D01*
X428500Y258066D02*
X418592Y248158D01*
X419100Y154432D02*
X391662Y154432D01*
X378962Y167132D01*
X378962Y192532D01*
X358902Y524002D02*
X393700Y558800D01*
X358902Y524002D02*
X337560Y524002D01*
X342900Y457200D02*
X342900Y441960D01*
X337560Y524002D02*
X320802Y524002D01*
X315462Y518662D01*
X315462Y484638D01*
X342900Y457200D01*
X393700Y458108D02*
X393700Y442214D01*
X353206Y498602D02*
X337560Y498602D01*
X353206Y498602D02*
X393700Y458108D01*
X349504Y292100D02*
X326390Y268986D01*
X303016Y268986D01*
X302762Y268732D01*
X349504Y292100D02*
X349504Y323088D01*
X392430Y366014D02*
X393700Y366014D01*
X392430Y366014D02*
X349504Y323088D01*
M02*
