0
SECTION
2
HEADER
9
$INSUNITS
70
4
9
$ACADVER
1
AC1014
9
$HANDSEED
5
FFFF
0
ENDSEC
0
SECTION
2
TABLES
0
TABLE
2
VPORT
5
8
100
AcDbSymbolTable
0
ENDTAB
0
TABLE
2
LTYPE
5
5
100
AcDbSymbolTable
0
LTYPE
5
14
100
AcDbSymbolTableRecord
100
AcDbLinetypeTableRecord
2
BYBLOCK
70
0
0
LTYPE
5
15
100
AcDbSymbolTableRecord
100
AcDbLinetypeTableRecord
2
BYLAYER
70
0
0
ENDTAB
0
TABLE
2
LAYER
5
2
100
AcDbSymbolTable
70
2
0
LAYER
5
50
100
AcDbSymbolTableRecord
100
AcDbLayerTableRecord
2
0
70
0
6
CONTINUOUS
0
ENDTAB
0
TABLE
2
STYLE
5
3
100
AcDbSymbolTable
70
1
0
STYLE
5
11
100
AcDbSymbolTableRecord
100
AcDbTextStyleTableRecord
2
STANDARD
70
0
0
ENDTAB
0
TABLE
2
VIEW
5
6
100
AcDbSymbolTable
70
0
0
ENDTAB
0
TABLE
2
UCS
5
7
100
AcDbSymbolTable
70
0
0
ENDTAB
0
TABLE
2
APPID
5
9
100
AcDbSymbolTable
70
2
0
APPID
5
12
100
AcDbSymbolTableRecord
100
AcDbRegAppTableRecord
2
ACAD
70
0
0
ENDTAB
0
TABLE
2
DIMSTYLE
5
A
100
AcDbSymbolTable
70
1
0
ENDTAB
0
TABLE
2
BLOCK_RECORD
5
1
100
AcDbSymbolTable
70
1
0
BLOCK_RECORD
5
1F
100
AcDbSymbolTableRecord
100
AcDbBlockTableRecord
2
*MODEL_SPACE
0
BLOCK_RECORD
5
1B
100
AcDbSymbolTableRecord
100
AcDbBlockTableRecord
2
*PAPER_SPACE
0
ENDTAB
0
ENDSEC
0
SECTION
2
BLOCKS
0
BLOCK
5
20
100
AcDbEntity
100
AcDbBlockBegin
2
*MODEL_SPACE
0
ENDBLK
5
21
100
AcDbEntity
100
AcDbBlockEnd
0
BLOCK
5
1C
100
AcDbEntity
100
AcDbBlockBegin
2
*PAPER_SPACE
0
ENDBLK
5
1D
100
AcDbEntity
100
AcDbBlockEnd
0
ENDSEC
0
SECTION
2
ENTITIES
0
SPLINE
5
100
100
AcDbEntity
8
0
100
AcDbSpline
70
0
71
3
72
9
73
5
74
0
42
0.000000001
43
0.0000000001
44
0.0000000001
40
0
40
0
40
0
40
0
40
0.022531944425189535
40
0.053842652707521886
40
0.053842652707521886
40
0.053842652707521886
40
0.053842652707521886
10
7.4474790096283003
20
-7.9914997518062485
30
0
10
7.3762888573514598
20
-7.9674783873292547
30
0
10
7.2061718637664596
20
-7.9100765954248677
30
5.5511151231257827e-16
10
7.0319731928551557
20
-7.8664779653283858
30
0
10
6.9306727647781425
20
-7.8411243855953119
30
0
0
SPLINE
5
101
100
AcDbEntity
8
0
100
AcDbSpline
70
0
71
3
72
9
73
5
74
0
42
0.000000001
43
0.0000000001
44
0.0000000001
40
0
40
0
40
0
40
0
40
0.040799048804220014
40
0.064554279629606581
40
0.064554279629606581
40
0.064554279629606581
40
0.064554279629606581
10
6.9306727647781425
20
-7.8411243855953119
30
0
10
6.7967303462979096
20
-7.8170594181906718
30
0
10
6.5848000050213145
20
-7.7789826325633573
30
0
10
6.3769184277796906
20
-7.723123094498904
30
0
10
6.3004204034805351
20
-7.7025674283504388
30
5.5511151231257827e-16
0
SPLINE
5
102
100
AcDbEntity
8
0
100
AcDbSpline
70
0
71
3
72
9
73
5
74
0
42
0.000000001
43
0.0000000001
44
0.0000000001
40
0
40
0
40
0
40
0
40
0.011008747638123408
40
0.022356324864635888
40
0.022356324864635888
40
0.022356324864635888
40
0.022356324864635888
10
6.3004204034805351
20
-7.7025674283504388
30
5.5511151231257827e-16
10
6.2654961277430576
20
-7.6848356199336001
30
5.5511151231257827e-16
10
6.1945726694429197
20
-7.6488262497095452
30
0
10
6.1853523292057799
20
-7.5696400814971323
30
-5.5511151231257827e-16
10
6.1806722879409843
20
-7.5294469296932132
30
-5.5511151231257827e-16
0
SPLINE
5
103
100
AcDbEntity
8
0
100
AcDbSpline
70
0
71
3
72
9
73
5
74
0
42
0.000000001
43
0.0000000001
44
0.0000000001
40
0
40
0
40
0
40
0
40
0.06444917705475621
40
0.15952535830095915
40
0.15952535830095915
40
0.15952535830095915
40
0.15952535830095915
10
6.1806722879409843
20
-7.5294469296932132
30
-5.5511151231257827e-16
10
6.1844121822029603
20
-7.3146353883456783
30
0
10
6.1936692123065828
20
-6.7829313439087358
30
0
10
6.2210664528769977
20
-6.2518330882230755
30
-5.5511151231257827e-16
10
6.2373950481414848
20
-5.9353016316890637
30
0
0
SPLINE
5
104
100
AcDbEntity
8
0
100
AcDbSpline
70
0
71
3
72
9
73
5
74
0
42
0.000000001
43
0.0000000001
44
0.0000000001
40
0
40
0
40
0
40
0
40
0.091533279340140425
40
0.16012082974697317
40
0.16012082974697317
40
0.16012082974697317
40
0.16012082974697317
10
6.2373950481414848
20
-5.9353016316890637
30
0
10
6.2518516013719285
20
-5.6304712059687354
30
5.5511151231257827e-16
10
6.2771407127773884
20
-5.0972258000319171
30
0
10
6.2757894364434179
20
-4.5634145414761074
30
0
10
6.2752106189727836
20
-4.3347571790218309
30
5.5511151231257827e-16
0
LINE
5
105
100
AcDbEntity
8
0
100
AcDbLine
10
6.2752106189727836
20
-4.3347571790218318
30
5.5511151231257817e-16
11
6.2689080238342338
21
-3.8725064694881399
31
5.5511151231257817e-16
0
SPLINE
5
106
100
AcDbEntity
8
0
100
AcDbSpline
70
0
71
3
72
9
73
5
74
0
42
0.000000001
43
0.0000000001
44
0.0000000001
40
0
40
0
40
0
40
0
40
0.033996175000837035
40
0.047333693750155045
40
0.047333693750155045
40
0.047333693750155045
40
0.047333693750155045
10
6.268908023834233
20
-3.8725064694881395
30
0
10
6.2687041632623419
20
-3.7590878616197543
30
5.5511151231257827e-16
10
6.2684203232751265
20
-3.6011724005339385
30
0
10
6.254049576103081
20
-3.4440040061852351
30
5.5511151231257827e-16
10
6.2500002384185844
20
-3.399717658758159
30
0
0
SPLINE
5
107
100
AcDbEntity
8
0
100
AcDbSpline
70
0
71
3
72
9
73
5
74
0
42
0.000000001
43
0.0000000001
44
0.0000000001
40
0
40
0
40
0
40
0
40
0.018499679527162034
40
0.048454426916988022
40
0.048454426916988022
40
0.048454426916988022
40
0.048454426916988022
10
6.2500002384185844
20
-3.399717658758159
30
0
10
6.2113001924961271
20
-3.350271142845469
30
-5.5511151231257827e-16
10
6.1099368935221898
20
-3.2207606511597442
30
0
10
5.9511217549797557
20
-3.1700228233932837
30
0
10
5.8529415130615288
20
-3.1386564671993211
30
0
0
LINE
5
108
100
AcDbEntity
8
0
100
AcDbLine
10
5.8529415130615279
20
-3.1386564671993216
30
2.1164822540129297e-32
11
4.3340339660644602
21
-2.6225398480892133
31
1.2325951644078309e-31
0
SPLINE
5
109
100
AcDbEntity
8
0
100
AcDbSpline
70
0
71
3
72
9
73
5
74
0
42
0.000000001
43
0.0000000001
44
0.0000000001
40
0
40
0
40
0
40
0
40
0.032764929404054476
40
0.047466476019866519
40
0.047466476019866519
40
0.047466476019866519
40
0.047466476019866519
10
4.3340339660644611
20
-2.6225398480892115
30
0
10
4.2173833853446752
20
-2.5682377874985218
30
5.5511151231257827e-16
10
4.048391963933156
20
-2.4895705202790097
30
0
10
3.9392624011995947
20
-2.6194410639724985
30
5.5511151231257827e-16
10
3.9054622650146564
20
-2.6596651971340113
30
0
0
SPLINE
5
110
100
AcDbEntity
8
0
100
AcDbSpline
70
0
71
3
72
9
73
5
74
0
42
0.000000001
43
0.0000000001
44
0.0000000001
40
0
40
0
40
0
40
0
40
0.077148715682129956
40
0.18636984959759237
40
0.18636984959759237
40
0.18636984959759237
40
0.18636984959759237
10
3.9054622650146564
20
-2.6596651971340113
30
0
10
3.9090942496553471
20
-2.9168155370088056
30
5.5511151231257827e-16
10
3.9178681148485861
20
-3.5380192698602619
30
5.5511151231257827e-16
10
3.9458098870281266
20
-4.1586732869475203
30
0
10
3.9621850252151569
20
-4.522404521703713
30
0
0
SPLINE
5
111
100
AcDbEntity
8
0
100
AcDbSpline
70
0
71
3
72
9
73
5
74
0
42
0.000000001
43
0.0000000001
44
0.0000000001
40
0
40
0
40
0
40
0
40
0.10922113391546241
40
0.18636996878674261
40
0.18636996878674261
40
0.18636996878674261
40
0.18636996878674261
10
3.9621850252151569
20
-4.522404521703713
30
0
10
3.978560165028211
20
-4.8861357564444603
30
0
10
4.0065019578519312
20
-5.5067901704323683
30
5.5511151231257827e-16
10
4.0152758049692157
20
-6.127994301022488
30
5.5511151231257827e-16
10
4.0189077854156574
20
-6.3851450383663089
30
0
0
SPLINE
5
112
100
AcDbEntity
8
0
100
AcDbSpline
70
0
71
3
72
9
73
5
74
0
42
0.000000001
43
0.0000000001
44
0.0000000001
40
0
40
0
40
0
40
0
40
0.0094135407450565388
40
0.017012517869866763
40
0.017012517869866763
40
0.017012517869866763
40
0.017012517869866763
10
4.0189077854156574
20
-6.3851450383663089
30
0
10
4.0168196017004565
20
-6.4228976985236441
30
5.5511151231257827e-16
10
4.0130457546717357
20
-6.4911257779420106
30
5.5511151231257827e-16
10
3.9473926923201441
20
-6.4856665359053478
30
5.5511151231257827e-16
10
3.9180674552917583
20
-6.4832280576229007
30
5.5511151231257827e-16
0
SPLINE
5
113
100
AcDbEntity
8
0
100
AcDbSpline
70
0
71
3
72
9
73
5
74
0
42
0.000000001
43
0.0000000001
44
0.0000000001
40
0
40
0
40
0
40
0
40
0.014194126190606936
40
0.034159178002085143
40
0.034159178002085143
40
0.034159178002085143
40
0.034159178002085143
10
3.9180674552917583
20
-6.4832280576229007
30
5.5511151231257827e-16
10
3.8735820740600735
20
-6.4670993032667212
30
5.5511151231257827e-16
10
3.7665248282967334
20
-6.428284304470302
30
5.5511151231257827e-16
10
3.6612945992248047
20
-6.3847423343376875
30
-5.5511151231257827e-16
10
3.5997905731201252
20
-6.3592933118343264
30
-5.5511151231257827e-16
0
SPLINE
5
114
100
AcDbEntity
8
0
100
AcDbSpline
70
0
71
3
72
9
73
5
74
0
42
0.000000001
43
0.0000000001
44
0.0000000001
40
0
40
0
40
0
40
0
40
0.019965017840636964
40
0.034159144031243899
40
0.034159144031243899
40
0.034159144031243899
40
0.034159144031243899
10
3.5997905731201252
20
-6.3592933118343264
30
-5.5511151231257827e-16
10
3.5382862590843889
20
-6.3338453052170474
30
-5.5511151231257827e-16
10
3.4330554629759424
20
-6.2903050424290807
30
-5.5511151231257827e-16
10
3.3259984313807411
20
-6.251489815445872
30
0
10
3.2815130949020466
20
-6.2353609502315432
30
0
0
SPLINE
5
115
100
AcDbEntity
8
0
100
AcDbSpline
70
0
71
3
72
9
73
5
74
0
42
0.000000001
43
0.0000000001
44
0.0000000001
40
0
40
0
40
0
40
0
40
0.014960910775994768
40
0.035893577154877711
40
0.035893577154877711
40
0.035893577154877711
40
0.035893577154877711
10
3.2815130949020466
20
-6.2353609502315432
30
0
10
3.234050139516107
20
-6.2200451006650459
30
0
10
3.1201790472643376
20
-6.183299969547118
30
0
10
3.0051238990188023
20
-6.1504357609189011
30
0
10
2.9380252361297687
20
-6.1312697827815912
30
0
0
SPLINE
5
116
100
AcDbEntity
8
0
100
AcDbSpline
70
0
71
3
72
9
73
5
74
0
42
0.000000001
43
0.0000000001
44
0.0000000001
40
0
40
0
40
0
40
0
40
0.020932475195671835
40
0.035893458121385016
40
0.035893458121385016
40
0.035893458121385016
40
0.035893458121385016
10
2.9380252361297687
20
-6.1312697827815912
30
0
10
2.8709265600077316
20
-6.1121060933216942
30
0
10
2.7558707197942134
20
-6.0792456179765608
30
-5.5511151231257827e-16
10
2.6420008186226673
20
-6.0424980072705834
30
0
10
2.5945379734039387
20
-6.0271809995174328
30
0
0
SPLINE
5
117
100
AcDbEntity
8
0
100
AcDbSpline
70
0
71
3
72
9
73
5
74
0
42
0.000000001
43
0.0000000001
44
0.0000000001
40
0
40
0
40
0
40
0
40
0.0077197014530718186
40
0.018456592322397006
40
0.018456592322397006
40
0.018456592322397006
40
0.018456592322397006
10
2.5945379734039387
20
-6.0271809995174328
30
0
10
2.5726241361955093
20
-6.011373403587231
30
0
10
2.5202315971790679
20
-5.9735799273168775
30
0
10
2.5193948126996712
20
-5.907542572796519
30
0
10
2.5189080238342365
20
-5.869126170873634
30
0
0
SPLINE
5
118
100
AcDbEntity
8
0
100
AcDbSpline
70
0
71
3
72
9
73
5
74
0
42
0.000000001
43
0.0000000001
44
0.0000000001
40
0
40
0
40
0
40
0
40
0.054542606784902858
40
0.13120796266912976
40
0.13120796266912976
40
0.13120796266912976
40
0.13120796266912976
10
2.5189080238342365
20
-5.869126170873634
30
0
10
2.5205135795134148
20
-5.6873206488740733
30
0
10
2.5243759121380283
20
-5.2499683925429164
30
0
10
2.5368372140704465
20
-4.8127718843127987
30
0
10
2.5441184043884357
20
-4.5573161542415574
30
0
0
SPLINE
5
119
100
AcDbEntity
8
0
100
AcDbSpline
70
0
71
3
72
9
73
5
74
0
42
0.000000001
43
0.0000000001
44
0.0000000001
40
0
40
0
40
0
40
0
40
0.07682290126048516
40
0.13183826079338004
40
0.13183826079338004
40
0.13183826079338004
40
0.13183826079338004
10
2.5441184043884357
20
-4.5573161542415574
30
0
10
2.5514023013453935
20
-4.3013350872236611
30
0
10
2.5639024320466208
20
-3.8620377147221641
30
0
10
2.567730681910263
20
-3.4225839270333891
30
0
10
2.5693281888961894
20
-3.2392023503780321
30
0
0
SPLINE
5
120
100
AcDbEntity
8
0
100
AcDbSpline
70
0
71
3
72
9
73
5
74
0
42
0.000000001
43
0.0000000001
44
0.0000000001
40
0
40
0
40
0
40
0
40
0.063764635590378441
40
0.092466494573031049
40
0.092466494573031049
40
0.092466494573031049
40
0.092466494573031049
10
2.5693281888961894
20
-3.2392023503780321
30
0
10
2.5703294992151116
20
-3.0266172896140375
30
0
10
2.5717815212381856
20
-2.7183430371942974
30
0
10
2.5602899992427419
20
-2.4103140057031269
30
0
10
2.5567229986190876
20
-2.3147009313106515
30
0
0
SPLINE
5
121
100
AcDbEntity
8
0
100
AcDbSpline
70
0
71
3
72
9
73
5
74
0
42
0.000000001
43
0.0000000001
44
0.0000000001
40
0
40
0
40
0
40
0
40
0.024915617776321633
40
0.045151175227700131
40
0.045151175227700131
40
0.045151175227700131
40
0.045151175227700131
10
2.5567229986190876
20
-2.3147009313106515
30
0
10
2.5432484179778569
20
-2.2276767552314447
30
-5.5511151231257827e-16
10
2.5188302736190082
20
-2.0699747123412005
30
0
10
2.3839705187649995
20
-1.9883814719174553
30
0
10
2.3235299587249836
20
-1.9518135488033272
30
5.5511151231257827e-16
0
SPLINE
5
122
100
AcDbEntity
8
0
100
AcDbSpline
70
0
71
3
72
9
73
5
74
0
42
0.000000001
43
0.0000000001
44
0.0000000001
40
0
40
0
40
0
40
0
40
0.07463510271169016
40
0.17873861681281958
40
0.17873861681281958
40
0.17873861681281958
40
0.17873861681281958
10
2.3235299587249836
20
-1.9518135488033272
30
5.5511151231257827e-16
10
2.0873679575569559
20
-1.8735647119240784
30
0
10
1.5217993725497192
20
-1.6861718047951535
30
5.5511151231257827e-16
10
0.95308673118170262
20
-1.5085327628974188
30
0
10
0.62184894084931219
20
-1.4050696790218309
30
0
0
SPLINE
5
123
100
AcDbEntity
8
0
100
AcDbSpline
70
0
71
3
72
9
73
5
74
0
42
0.000000001
43
0.0000000001
44
0.0000000001
40
0
40
0
40
0
40
0
40
0.10410426848359174
40
0.17874167933509466
40
0.17874167933509466
40
0.17874167933509466
40
0.17874167933509466
10
0.62184894084931219
20
-1.4050696790218309
30
0
10
0.29060888084910141
20
-1.3016050693882453
30
0
10
-0.27811328059451634
20
-1.1239616514281803
30
0
10
-0.8436712511563571
20
-0.93650387085831621
30
0
10
-1.079832077026357
20
-0.8582268655300096
30
5.5511151231257827e-16
0
SPLINE
5
124
100
AcDbEntity
8
0
100
AcDbSpline
70
0
71
3
72
9
73
5
74
0
42
0.000000001
43
0.0000000001
44
0.0000000001
40
0
40
0
40
0
40
0
40
0.016583118371399627
40
0.030368557107123592
40
0.030368557107123592
40
0.030368557107123592
40
0.030368557107123592
10
-1.079832077026357
20
-0.8582268655300096
30
5.5511151231257827e-16
10
-1.1348317984576073
20
-0.83592335940868789
30
5.5511151231257827e-16
10
-1.2355524315588862
20
-0.79507909332043436
30
5.5511151231257827e-16
10
-1.2584936559863213
20
-0.69031571696040128
30
-5.5511151231257827e-16
10
-1.2689075469970601
20
-0.64275965094565901
30
-5.5511151231257827e-16
0
SPLINE
5
125
100
AcDbEntity
8
0
100
AcDbSpline
70
0
71
3
72
9
73
5
74
0
42
0.000000001
43
0.0000000001
44
0.0000000001
40
0
40
0
40
0
40
0
40
0.015452443611997551
40
0.036658135928609649
40
0.036658135928609649
40
0.036658135928609649
40
0.036658135928609649
10
-1.2689075469970601
20
-0.64275965094565901
30
-5.5511151231257827e-16
10
-1.2671353459944679
20
-0.59126241696774606
30
0
10
-1.262931118697026
20
-0.46909451585701589
30
0
10
-1.2487498986540957
20
-0.34765811283612669
30
0
10
-1.2405464649200315
20
-0.27741059660911116
30
5.5511151231257827e-16
0
SPLINE
5
126
100
AcDbEntity
8
0
100
AcDbSpline
70
0
71
3
72
9
73
5
74
0
42
0.000000001
43
0.0000000001
44
0.0000000001
40
0
40
0
40
0
40
0
40
0.021362379338195764
40
0.037287129239626599
40
0.037287129239626599
40
0.037287129239626599
40
0.037287129239626599
10
-1.2405464649200315
20
-0.27741059660911116
30
5.5511151231257827e-16
10
-1.2323329810228056
20
-0.20663771705338618
30
5.5511151231257827e-16
10
-1.2179966924130503
20
-0.083106650364739298
30
0
10
-1.2139237014905335
20
0.041166102965122242
30
5.5511151231257827e-16
10
-1.2121841907501096
20
0.094241052865986497
30
5.5511151231257827e-16
0
SPLINE
5
127
100
AcDbEntity
8
0
100
AcDbSpline
70
0
71
3
72
9
73
5
74
0
42
0.000000001
43
0.0000000001
44
0.0000000001
40
0
40
0
40
0
40
0
40
0.013719835256149365
40
0.033477282009515608
40
0.033477282009515608
40
0.033477282009515608
40
0.033477282009515608
10
-1.2121841907501096
20
0.094241052865986497
30
5.5511151231257827e-16
10
-1.2134099596134029
20
0.13996529686285175
30
5.5511151231257827e-16
10
-1.2164009146175125
20
0.25153539827999172
30
0
10
-1.2256395605522097
20
0.36277313454932791
30
5.5511151231257827e-16
10
-1.2310919761657613
20
0.42842283844948037
30
5.5511151231257827e-16
0
SPLINE
5
128
100
AcDbEntity
8
0
100
AcDbSpline
70
0
71
3
72
9
73
5
74
0
42
0.000000001
43
0.0000000001
44
0.0000000001
40
0
40
0
40
0
40
0
40
0.019757446753366246
40
0.033477282009515608
40
0.033477282009515608
40
0.033477282009515608
40
0.033477282009515608
10
-1.2310919761657613
20
0.42842283844948037
30
5.5511151231257827e-16
10
-1.2365443917793151
20
0.49407254234963061
30
0
10
-1.24578303771401
20
0.60531027861897346
30
5.5511151231257827e-16
10
-1.2487739927181174
20
0.71688038003610899
30
5.5511151231257827e-16
10
-1.2499997615814107
20
0.76260462403297646
30
0
0
SPLINE
5
129
100
AcDbEntity
8
0
100
AcDbSpline
70
0
71
3
72
9
73
5
74
0
42
0.000000001
43
0.0000000001
44
0.0000000001
40
0
40
0
40
0
40
0
40
0.011188395001370198
40
0.021595360458382663
40
0.021595360458382663
40
0.021595360458382663
40
0.021595360458382663
10
-1.2499997615814107
20
0.76260462403297646
30
0
10
-1.2451058888724642
20
0.80687728970038952
30
0
10
-1.2356599455379458
20
0.89233049129223696
30
0
10
-1.1517707097511076
20
0.87928426729077414
30
0
10
-1.1113438606262105
20
0.87299719452858193
30
0
0
SPLINE
5
130
100
AcDbEntity
8
0
100
AcDbSpline
70
0
71
3
72
9
73
5
74
0
42
0.000000001
43
0.0000000001
44
0.0000000001
40
0
40
0
40
0
40
0
40
0.093017459555842757
40
0.22433261132395441
40
0.22433261132395441
40
0.22433261132395441
40
0.22433261132395441
10
-1.1113438606262105
20
0.87299719452858193
30
0
10
-0.81894724639148819
20
0.76981101565301246
30
0
10
-0.11376677460942508
20
0.52095424112672539
30
0
10
0.58479079858767102
20
0.25403182298719962
30
0
10
0.99369788169861861
20
0.097786337137226731
30
0
0
SPLINE
5
131
100
AcDbEntity
8
0
100
AcDbSpline
70
0
71
3
72
9
73
5
74
0
42
0.000000001
43
0.0000000001
44
0.0000000001
40
0
40
0
40
0
40
0
40
0.13131610316440753
40
0.22433593507862248
40
0.22433593507862248
40
0.22433593507862248
40
0.22433593507862248
10
0.99369788169861861
20
0.097786337137226731
30
0
10
1.4026078514128337
20
-0.058460013470642558
30
0
10
2.1011756447622854
20
-0.32538592980212888
30
0
10
2.8063446423477467
20
-0.57430794033265231
30
0
10
3.0987396240234455
20
-0.67752227187156455
30
-5.5511151231257827e-16
0
SPLINE
5
132
100
AcDbEntity
8
0
100
AcDbSpline
70
0
71
3
72
9
73
5
74
0
42
0.000000001
43
0.0000000001
44
0.0000000001
40
0
40
0
40
0
40
0
40
0.1447465424759159
40
0.44190990178197298
40
0.44190990178197298
40
0.44190990178197298
40
0.44190990178197298
10
3.0987396240234455
20
-0.67752227187156455
30
-5.5511151231257827e-16
10
3.5585901762217875
20
-0.82359422655019721
30
0
10
4.9625098062203197
20
-1.26955059995288
30
0
10
6.3729649771977552
20
-1.6944500141851937
30
5.5511151231257827e-16
10
7.3214288949966475
20
-1.9801746308803514
30
0
0
LINE
5
133
100
AcDbEntity
8
0
100
AcDbLine
10
7.3214288949966475
20
-1.9801746308803514
30
2.1462236101398805e-31
11
7.4033614397048995
21
-2.008043378591533
31
0
0
SPLINE
5
134
100
AcDbEntity
8
0
100
AcDbSpline
70
0
71
3
72
9
73
5
74
0
42
0.000000001
43
0.0000000001
44
0.0000000001
40
0
40
0
40
0
40
0
40
0.012625328181667518
40
0.027153257115129184
40
0.027153257115129184
40
0.027153257115129184
40
0.027153257115129184
10
7.4033614397048995
20
-2.008043378591533
30
0
10
7.4429007244143994
20
-2.0282044276217048
30
0
10
7.5279377506537868
20
-2.0715647379558089
30
0
10
7.5453211935013362
20
-2.166316071679073
30
0
10
7.5546219348907515
20
-2.217011302709575
30
0
0
SPLINE
5
135
100
AcDbEntity
8
0
100
AcDbSpline
70
0
71
3
72
9
73
5
74
0
42
0.000000001
43
0.0000000001
44
0.0000000001
40
0
40
0
40
0
40
0
40
0.022376523197898155
40
0.079424589711635948
40
0.079424589711635948
40
0.079424589711635948
40
0.079424589711635948
10
7.5546219348907515
20
-2.217011302709575
30
0
10
7.5530856179094652
20
-2.2915839733551047
30
0
10
7.5476325211604047
20
-2.5562767371656325
30
0
10
7.5406965937257677
20
-2.8209354013089549
30
-5.5511151231257827e-16
10
7.5357147455215499
20
-3.0110310018062525
30
0
0
SPLINE
5
136
100
AcDbEntity
8
0
100
AcDbSpline
70
0
71
3
72
9
73
5
74
0
42
0.000000001
43
0.0000000001
44
0.0000000001
40
0
40
0
40
0
40
0
40
0.094952790502289636
40
0.18319444163693605
40
0.18319444163693605
40
0.18319444163693605
40
0.18319444163693605
10
7.5357147455215499
20
-3.0110310018062525
30
0
10
7.5306460330057998
20
-3.3275145928447025
30
0
10
7.5208668579628259
20
-3.9381131275569792
30
0
10
7.5266341457894139
20
-4.5487603168850725
30
0
10
7.529412150383
20
-4.8428986966609884
30
0
0
SPLINE
5
137
100
AcDbEntity
8
0
100
AcDbSpline
70
0
71
3
72
9
73
5
74
0
42
0.000000001
43
0.0000000001
44
0.0000000001
40
0
40
0
40
0
40
0
40
0.13101171220571775
40
0.29512180442907388
40
0.29512180442907388
40
0.29512180442907388
40
0.29512180442907388
10
7.529412150383
20
-4.8428986966609884
30
0
10
7.5396033374837215
20
-5.2795222709286556
30
0
10
7.5625603806045429
20
-6.2630766030162457
30
0
10
7.6222630536153515
20
-7.2451113806035607
30
0
10
7.6554622650146529
20
-7.7911971509456537
30
0
0
SPLINE
5
138
100
AcDbEntity
8
0
100
AcDbSpline
70
0
71
3
72
9
73
5
74
0
42
0.000000001
43
0.0000000001
44
0.0000000001
40
0
40
0
40
0
40
0
40
0.017817831262476363
40
0.034585328221566999
40
0.034585328221566999
40
0.034585328221566999
40
0.034585328221566999
10
7.6554622650146529
20
-7.7911971509456537
30
0
10
7.6527241201342564
20
-7.8612399732361196
30
0
10
7.6474092398880735
20
-7.9971966989899714
30
0
10
7.5127593426210346
20
-7.9933598937603296
30
0
10
7.4474790096283003
20
-7.9914997518062485
30
0
0
SPLINE
5
139
100
AcDbEntity
8
0
100
AcDbSpline
70
0
71
3
72
9
73
5
74
0
42
0.000000001
43
0.0000000001
44
0.0000000001
40
0
40
0
40
0
40
0
40
0.014880201805851945
40
0.055935091625093962
40
0.055935091625093962
40
0.055935091625093962
40
0.055935091625093962
10
1.2584033012390217
20
1.5613509714603446
30
5.5511151231257827e-16
10
1.2171343428531989
20
1.5336729818313777
30
0
10
1.062003182758624
20
1.429630650544873
30
-5.5511151231257827e-16
10
0.88630869152772185
20
1.3639256854207527
30
-5.5511151231257827e-16
10
0.75735354423523749
20
1.3156999647617362
30
0
0
SPLINE
5
140
100
AcDbEntity
8
0
100
AcDbSpline
70
0
71
3
72
9
73
5
74
0
42
0.000000001
43
0.0000000001
44
0.0000000001
40
0
40
0
40
0
40
0
40
0.041692891330036293
40
0.058462973545415929
40
0.058462973545415929
40
0.058462973545415929
40
0.058462973545415929
10
0.75735354423523749
20
1.3156999647617362
30
0
10
0.62991445929365231
20
1.2587074267334541
30
0
10
0.45121570240929776
20
1.1787908477498044
30
0
10
0.26056974740313654
20
1.1369901785780279
30
0
10
0.20588302612305709
20
1.1249996721744537
30
0
0
SPLINE
5
141
100
AcDbEntity
8
0
100
AcDbSpline
70
0
71
3
72
9
73
5
74
0
42
0.000000001
43
0.0000000001
44
0.0000000001
40
0
40
0
40
0
40
0
40
0.010986507497557077
40
0.028988530431858901
40
0.028988530431858901
40
0.028988530431858901
40
0.028988530431858901
10
0.20588302612305709
20
1.1249996721744537
30
0
10
0.17438585143902952
20
1.1441079109430019
30
0
10
0.091278748745244886
20
1.1945260953536851
30
0
10
0.029785063106910759
20
1.270402837184772
30
0
10
-0.0084028244018452547
20
1.3175226747989655
30
0
0
SPLINE
5
142
100
AcDbEntity
8
0
100
AcDbSpline
70
0
71
3
72
9
73
5
74
0
42
0.000000001
43
0.0000000001
44
0.0000000001
40
0
40
0
40
0
40
0
40
0.20405827680696095
40
0.38652858405140739
40
0.38652858405140739
40
0.38652858405140739
40
0.38652858405140739
10
-0.0084028244018452547
20
1.3175226747989655
30
0
10
-0.42345186137781488
20
1.8739411890141433
30
0
10
-1.2096405868956062
20
2.9279129455385733
30
0
10
-1.3612171830472164
20
4.2307265346298584
30
0
10
-1.432772636413564
20
4.8457516729831651
30
0
0
SPLINE
5
143
100
AcDbEntity
8
0
100
AcDbSpline
70
0
71
3
72
9
73
5
74
0
42
0.000000001
43
0.0000000001
44
0.0000000001
40
0
40
0
40
0
40
0
40
0.1621535029307343
40
0.30413106332950401
40
0.30413106332950401
40
0.30413106332950401
40
0.30413106332950401
10
-1.432772636413564
20
4.8457516729831651
30
0
10
-1.3921500220843641
20
5.4160609459858744
30
0
10
-1.3159592604426495
20
6.4857187855644671
30
-5.5511151231257827e-16
10
-0.45462010650170859
20
7.1102623831643141
30
0
10
-0.052520990371693888
20
7.401818186044693
30
0
0
SPLINE
5
144
100
AcDbEntity
8
0
100
AcDbSpline
70
0
71
3
72
9
73
5
74
0
42
0.000000001
43
0.0000000001
44
0.0000000001
40
0
40
0
40
0
40
0
40
0.14777360077551524
40
0.32772504455945467
40
0.32772504455945467
40
0.32772504455945467
40
0.32772504455945467
10
-0.052520990371693888
20
7.401818186044693
30
0
10
0.42922260158844816
20
7.5461524078018627
30
0
10
1.4976099137525933
20
7.866249766251423
30
5.5511151231257827e-16
10
2.5718871465046989
20
7.5448268588767142
30
0
10
3.1617649793624958
20
7.3683358728885606
30
0
0
SPLINE
5
145
100
AcDbEntity
8
0
100
AcDbSpline
70
0
71
3
72
9
73
5
74
0
42
0.000000001
43
0.0000000001
44
0.0000000001
40
0
40
0
40
0
40
0
40
0.1973746445207161
40
0.39275954731407242
40
0.39275954731407242
40
0.39275954731407242
40
0.39275954731407242
10
3.1617649793624958
20
7.3683358728885606
30
0
10
3.7772528234973479
20
7.115165407075752
30
0
10
5.0020237540630843
20
6.6113766970953547
30
0
10
5.9280090419395339
20
5.6648375483879354
30
0
10
6.3886561393737846
20
5.1939655840396837
30
5.5511151231257827e-16
0
SPLINE
5
146
100
AcDbEntity
8
0
100
AcDbSpline
70
0
71
3
72
9
73
5
74
0
42
0.000000001
43
0.0000000001
44
0.0000000001
40
0
40
0
40
0
40
0
40
0.19876476002267898
40
0.38399651049389538
40
0.38399651049389538
40
0.38399651049389538
40
0.38399651049389538
10
6.3886561393737846
20
5.1939655840396837
30
5.5511151231257827e-16
10
6.796594449610339
20
4.6540369179208474
30
0
10
7.5846963626946264
20
3.610940930072688
30
0
10
7.7217192432632782
20
2.3130057003098026
30
0
10
7.787816166877751
20
1.6869093477726005
30
0
0
SPLINE
5
147
100
AcDbEntity
8
0
100
AcDbSpline
70
0
71
3
72
9
73
5
74
0
42
0.000000001
43
0.0000000001
44
0.0000000001
40
0
40
0
40
0
40
0
40
0.16166238312226272
40
0.29616166086261414
40
0.29616166086261414
40
0.29616166086261414
40
0.29616166086261414
10
7.787816166877751
20
1.6869093477726005
30
0
10
7.7567237182110391
20
1.116787129246366
30
0
10
7.6997630879173782
20
0.072336714299123805
30
0
10
6.8718078386893904
20
-0.54809984313613613
30
0
10
6.4957990646362358
20
-0.82986578345298545
30
5.5511151231257827e-16
0
SPLINE
5
148
100
AcDbEntity
8
0
100
AcDbSpline
70
0
71
3
72
9
73
5
74
0
42
0.000000001
43
0.0000000001
44
0.0000000001
40
0
40
0
40
0
40
0
40
0.012610386547465786
40
0.022573146291095254
40
0.022573146291095254
40
0.022573146291095254
40
0.022573146291095254
10
6.4957990646362358
20
-0.82986578345298545
30
5.5511151231257827e-16
10
6.4557602656612323
20
-0.84553273555036279
30
5.5511151231257827e-16
10
6.3840890553315095
20
-0.87357726854692119
30
5.5511151231257827e-16
10
6.3085500840408955
20
-0.86121939626819799
30
5.5511151231257827e-16
10
6.2752106189727836
20
-0.85576519370078818
30
5.5511151231257827e-16
0
SPLINE
5
149
100
AcDbEntity
8
0
100
AcDbSpline
70
0
71
3
72
9
73
5
74
0
42
0.000000001
43
0.0000000001
44
0.0000000001
40
0
40
0
40
0
40
0
40
0.026287840195928447
40
0.083967402637034935
40
0.083967402637034935
40
0.083967402637034935
40
0.083967402637034935
10
6.2752106189727836
20
-0.85576519370078818
30
5.5511151231257827e-16
10
6.2035351960775404
20
-0.80516492787036542
30
0
10
5.9745928771738868
20
-0.64353990037259168
30
-5.5511151231257827e-16
10
5.7773198962350065
20
-0.44372154055799085
30
-5.5511151231257827e-16
10
5.6418075561523491
20
-0.30646070837974326
30
0
0
SPLINE
5
150
100
AcDbEntity
8
0
100
AcDbSpline
70
0
71
3
72
9
73
5
74
0
42
0.000000001
43
0.0000000001
44
0.0000000001
40
0
40
0
40
0
40
0
40
0.056335960410014367
40
0.078648809791736704
40
0.078648809791736704
40
0.078648809791736704
40
0.078648809791736704
10
5.6418075561523491
20
-0.30646070837974326
30
0
10
5.5027790267704102
20
-0.17879693226894977
30
0
10
5.3086857995776207
20
-0.00056966905098043696
30
0
10
5.1582311538028138
20
0.21467063855054036
30
0
10
5.1155468225479197
20
0.27573481202125993
30
0
0
SPLINE
5
151
100
AcDbEntity
8
0
100
AcDbSpline
70
0
71
3
72
9
73
5
74
0
42
0.000000001
43
0.0000000001
44
0.0000000001
40
0
40
0
40
0
40
0
40
0.013509598708228879
40
0.042164675797066085
40
0.042164675797066085
40
0.042164675797066085
40
0.042164675797066085
10
5.1155468225479197
20
0.27573481202125993
30
0
10
5.1395737664720551
20
0.31436097318350731
30
0
10
5.214564025090052
20
0.43491670528673865
30
0
10
5.3394785829289946
20
0.50659672150749957
30
0
10
5.4243704080581718
20
0.55531039834022522
30
0
0
SPLINE
5
152
100
AcDbEntity
8
0
100
AcDbSpline
70
0
71
3
72
9
73
5
74
0
42
0.000000001
43
0.0000000001
44
0.0000000001
40
0
40
0
40
0
40
0
40
0.041372111438360032
40
0.076390860929400256
40
0.076390860929400256
40
0.076390860929400256
40
0.076390860929400256
10
5.4243704080581718
20
0.55531039834022522
30
0
10
5.5393275822938541
20
0.6329579862909207
30
0
10
5.7515883832190964
20
0.77632910964976043
30
-5.5511151231257827e-16
10
5.9161567397932826
20
0.97225651732676832
30
0
10
5.9915974140167307
20
1.0620726644992828
30
-5.5511151231257827e-16
0
SPLINE
5
153
100
AcDbEntity
8
0
100
AcDbSpline
70
0
71
3
72
9
73
5
74
0
42
0.000000001
43
0.0000000001
44
0.0000000001
40
0
40
0
40
0
40
0
40
0.054347314805201198
40
0.11492695950582676
40
0.11492695950582676
40
0.11492695950582676
40
0.11492695950582676
10
5.9915974140167307
20
1.0620726644992828
30
-5.5511151231257827e-16
10
6.08159917185775
20
1.2222194436510758
30
0
10
6.2719237245228303
20
1.5608779858170863
30
5.5511151231257827e-16
10
6.2905845902220836
20
1.9496489812194895
30
0
10
6.3004209995269829
20
2.1545757353305817
30
5.5511151231257827e-16
0
SPLINE
5
154
100
AcDbEntity
8
0
100
AcDbSpline
70
0
71
3
72
9
73
5
74
0
42
0.000000001
43
0.0000000001
44
0.0000000001
40
0
40
0
40
0
40
0
40
0.12136663288306197
40
0.25036748484377813
40
0.25036748484377813
40
0.25036748484377813
40
0.25036748484377813
10
6.3004209995269829
20
2.1545757353305817
30
5.5511151231257827e-16
10
6.2561457857610527
20
2.5657559031742894
30
0
10
6.1648103532111707
20
3.41398034505908
30
0
10
5.626237817823899
20
4.0774157805309841
30
-5.5511151231257827e-16
10
5.3487404584884715
20
4.4192482531070709
30
0
0
SPLINE
5
155
100
AcDbEntity
8
0
100
AcDbSpline
70
0
71
3
72
9
73
5
74
0
42
0.000000001
43
0.0000000001
44
0.0000000001
40
0
40
0
40
0
40
0
40
0.12440483785010793
40
0.25500473547657526
40
0.25500473547657526
40
0.25500473547657526
40
0.25500473547657526
10
5.3487404584884715
20
4.4192482531070709
30
0
10
5.0417400491566386
20
4.7036914899618765
30
0
10
4.412451353268545
20
5.2867425483110253
30
0
10
3.6145336617255008
20
5.6031068490926295
30
-5.5511151231257827e-16
10
3.2058825492858967
20
5.7651318609714464
30
0
0
SPLINE
5
156
100
AcDbEntity
8
0
100
AcDbSpline
70
0
71
3
72
9
73
5
74
0
42
0.000000001
43
0.0000000001
44
0.0000000001
40
0
40
0
40
0
40
0
40
0.12125698187007515
40
0.21961238082345094
40
0.21961238082345094
40
0.21961238082345094
40
0.21961238082345094
10
3.2058825492858967
20
5.7651318609714464
30
0
10
2.8118686526647929
20
5.8860231689374753
30
0
10
2.0982575386490931
20
6.1049732661098455
30
0
10
1.3701897963887077
20
5.9554089830685175
30
0
10
1.0441180467605693
20
5.8884252607822418
30
-5.5511151231257827e-16
0
SPLINE
5
157
100
AcDbEntity
8
0
100
AcDbSpline
70
0
71
3
72
9
73
5
74
0
42
0.000000001
43
0.0000000001
44
0.0000000001
40
0
40
0
40
0
40
0
40
0.093531175899383756
40
0.19856259487172156
40
0.19856259487172156
40
0.19856259487172156
40
0.19856259487172156
10
1.0441180467605693
20
5.8884252607822418
30
-5.5511151231257827e-16
10
0.75944972601525329
20
5.720404351804067
30
0
10
0.15511133401458155
20
5.3637033121924116
30
0
10
0.097631555886223964
20
4.6585263837952295
30
0
10
0.067227125167856894
20
4.2855168879032117
30
0
0
SPLINE
5
158
100
AcDbEntity
8
0
100
AcDbSpline
70
0
71
3
72
9
73
5
74
0
42
0.000000001
43
0.0000000001
44
0.0000000001
40
0
40
0
40
0
40
0
40
0.063755500455371608
40
0.13401220188638779
40
0.13401220188638779
40
0.13401220188638779
40
0.13401220188638779
10
0.067227125167856894
20
4.2855168879032117
30
0
10
0.082418425771833004
20
4.07210845104448
30
0
10
0.11435009643422589
20
3.6235301429722289
30
0
10
0.2860408187139063
20
3.2074803967349541
30
0
10
0.3760507106781108
20
2.989363819360733
30
0
0
SPLINE
5
159
100
AcDbEntity
8
0
100
AcDbSpline
70
0
71
3
72
9
73
5
74
0
42
0.000000001
43
0.0000000001
44
0.0000000001
40
0
40
0
40
0
40
0
40
0.052460813290293243
40
0.11228903570150296
40
0.11228903570150296
40
0.11228903570150296
40
0.11228903570150296
10
0.3760507106781108
20
2.989363819360733
30
0
10
0.45399085120852334
20
2.8325509281825334
30
-5.5511151231257827e-16
10
0.62081676704347943
20
2.4969029038461854
30
0
10
0.83530121146844438
20
2.1894067033721032
30
0
10
0.94957971572876776
20
2.0255710184574149
30
-5.5511151231257827e-16
0
SPLINE
5
160
100
AcDbEntity
8
0
100
AcDbSpline
70
0
71
3
72
9
73
5
74
0
42
0.000000001
43
0.0000000001
44
0.0000000001
40
0
40
0
40
0
40
0
40
0.040514612807417513
40
0.055790263520122299
40
0.055790263520122299
40
0.055790263520122299
40
0.055790263520122299
10
0.94957971572876776
20
2.0255710184574149
30
-5.5511151231257827e-16
10
1.0300352770696364
20
1.9168469083083961
30
0
10
1.1408258451592967
20
1.7671294030458529
30
-5.5511151231257827e-16
10
1.2331299733693757
20
1.6055831392871012
30
0
10
1.2584033012390217
20
1.5613509714603446
30
5.5511151231257827e-16
0
SPLINE
5
161
100
AcDbEntity
8
0
100
AcDbSpline
70
0
71
3
72
9
73
5
74
0
42
0.000000001
43
0.0000000001
44
0.0000000001
40
0
40
0
40
0
40
0
40
0.06139010327756593
40
0.14704309093038903
40
0.14704309093038903
40
0.14704309093038903
40
0.14704309093038903
10
7.2331937551498466
20
6.7598475515842393
30
0
10
7.0392043400428168
20
6.8249888191674879
30
0
10
6.5745561038907239
20
6.9810167914492149
30
5.5511151231257827e-16
10
6.1086039675815353
20
7.1331097345669958
30
0
10
5.8371856212616038
20
7.2217042744159698
30
0
0
SPLINE
5
162
100
AcDbEntity
8
0
100
AcDbSpline
70
0
71
3
72
9
73
5
74
0
42
0.000000001
43
0.0000000001
44
0.0000000001
40
0
40
0
40
0
40
0
40
0.085653044284838858
40
0.14704314756240477
40
0.14704314756240477
40
0.14704314756240477
40
0.14704314756240477
10
5.8371856212616038
20
7.2217042744159698
30
0
10
5.5657670704933517
20
7.3102987967015043
30
-5.5511151231257827e-16
10
5.0998147118233117
20
7.4623916676837831
30
0
10
4.6351663035720296
20
7.6184197209444049
30
0
10
4.4411768913269123
20
7.6835609972476915
30
0
0
SPLINE
5
163
100
AcDbEntity
8
0
100
AcDbSpline
70
0
71
3
72
9
73
5
74
0
42
0.000000001
43
0.0000000001
44
0.0000000001
40
0
40
0
40
0
40
0
40
0.09698906753031418
40
0.33524571750678328
40
0.33524571750678328
40
0.33524571750678328
40
0.33524571750678328
10
4.4411768913269123
20
7.6835609972476915
30
0
10
4.1786178090418353
20
7.872427130941273
30
5.5511151231257827e-16
10
3.2710742046962049
20
8.5252487748141448
30
-5.5511151231257827e-16
10
2.4371803106861512
20
9.2711791097658178
30
0
10
1.8445380926132304
20
9.8013062775135005
30
0
0
LINE
5
164
100
AcDbEntity
8
0
100
AcDbLine
10
1.8445380926132304
20
9.8013062775135005
30
-4.6631687489829393e-32
11
-1.0672268867492551
21
12.353827506303784
31
0
0
SPLINE
5
165
100
AcDbEntity
8
0
100
AcDbSpline
70
0
71
3
72
9
73
5
74
0
42
0.000000001
43
0.0000000001
44
0.0000000001
40
0
40
0
40
0
40
0
40
0.020017137535915316
40
0.033255994611440146
40
0.033255994611440146
40
0.033255994611440146
40
0.033255994611440146
10
-1.0672268867492551
20
12.353827506303784
30
0
10
-1.1197410872155111
20
12.398236792826246
30
0
10
-1.2069869266666533
20
12.472017321667552
30
0
10
-1.2377523674466051
20
12.580688614338342
30
5.5511151231257827e-16
10
-1.2499997615814085
20
12.623949497938147
30
5.5511151231257827e-16
0
LINE
5
166
100
AcDbEntity
8
0
100
AcDbLine
10
-1.2499997615814085
20
12.623949497938145
30
5.5511151231257837e-16
11
-1.2499997615814094
21
13.890756219625464
31
5.5511151231257827e-16
0
SPLINE
5
167
100
AcDbEntity
8
0
100
AcDbSpline
70
0
71
3
72
9
73
5
74
0
42
0.000000001
43
0.0000000001
44
0.0000000001
40
0
40
0
40
0
40
0
40
0.008586752454631693
40
0.022912967125074263
40
0.022912967125074263
40
0.022912967125074263
40
0.022912967125074263
10
-1.2499997615814107
20
13.890756219625464
30
0
10
-1.2370466223983234
20
13.91797209621091
30
0
10
-1.202482349835825
20
13.990595184948731
30
5.5511151231257827e-16
10
-1.1192607582281866
20
13.999512350956774
30
5.5511151231257827e-16
10
-1.0672268867492574
20
14.005087763071057
30
5.5511151231257827e-16
0
SPLINE
5
168
100
AcDbEntity
8
0
100
AcDbSpline
70
0
71
3
72
9
73
5
74
0
42
0.000000001
43
0.0000000001
44
0.0000000001
40
0
40
0
40
0
40
0
40
0.073784129218331093
40
0.28747868001450161
40
0.28747868001450161
40
0.28747868001450161
40
0.28747868001450161
10
-1.0672268867492574
20
14.005087763071057
30
5.5511151231257827e-16
10
-0.82562418077087418
20
14.051110759297408
30
5.5511151231257827e-16
10
0.11571141183433609
20
14.230426153348009
30
0
10
1.0567734271922236
20
14.411172760902788
30
0
10
1.7563029527664287
20
14.545529037714001
30
0
0
SPLINE
5
169
100
AcDbEntity
8
0
100
AcDbSpline
70
0
71
3
72
9
73
5
74
0
42
0.000000001
43
0.0000000001
44
0.0000000001
40
0
40
0
40
0
40
0
40
0.18745988813916573
40
0.26393725152942155
40
0.26393725152942155
40
0.26393725152942155
40
0.26393725152942155
10
1.7563029527664287
20
14.545529037714001
30
0
10
2.3691689202442467
20
14.674530945768737
30
0
10
3.2320637006568398
20
14.856161316895085
30
0
10
4.1108987473319729
20
14.910038641135799
30
0
10
4.3655463457107624
20
14.925649911165229
30
0
0
SPLINE
5
170
100
AcDbEntity
8
0
100
AcDbSpline
70
0
71
3
72
9
73
5
74
0
42
0.000000001
43
0.0000000001
44
0.0000000001
40
0
40
0
40
0
40
0
40
0.066101975364620938
40
0.15924683789441518
40
0.15924683789441518
40
0.15924683789441518
40
0.15924683789441518
10
4.3655463457107624
20
14.925649911165229
30
0
10
4.5734839908385378
20
14.852752859448316
30
0
10
5.0744283617617185
20
14.677135944617703
30
0
10
5.5715970876442338
20
14.491080047235823
30
-5.5511151231257827e-16
10
5.8623954057693552
20
14.382254332303992
30
0
0
SPLINE
5
171
100
AcDbEntity
8
0
100
AcDbSpline
70
0
71
3
72
9
73
5
74
0
42
0.000000001
43
0.0000000001
44
0.0000000001
40
0
40
0
40
0
40
0
40
0.093144918438176516
40
0.15924682767091508
40
0.15924682767091508
40
0.15924682767091508
40
0.15924682767091508
10
5.8623954057693552
20
14.382254332303992
30
0
10
6.1531939252516779
20
14.27342862412412
30
0
10
6.650362665054649
20
14.087372861906804
30
5.5511151231257827e-16
10
7.1513070214237633
20
13.911756009161662
30
0
10
7.3592444658279472
20
13.838859051465979
30
0
0
SPLINE
5
172
100
AcDbEntity
8
0
100
AcDbSpline
70
0
71
3
72
9
73
5
74
0
42
0.000000001
43
0.0000000001
44
0.0000000001
40
0
40
0
40
0
40
0
40
0.020008871092301136
40
0.034552360728691896
40
0.034552360728691896
40
0.034552360728691896
40
0.034552360728691896
10
7.3592444658279472
20
13.838859051465979
30
0
10
7.426681623853729
20
13.814771196428271
30
0
10
7.5431356206772273
20
13.773175033776006
30
0
10
7.5778329831631783
20
13.657226927859636
30
0
10
7.5924375057220512
20
13.608423024415961
30
0
0
SPLINE
5
173
100
AcDbEntity
8
0
100
AcDbSpline
70
0
71
3
72
9
73
5
74
0
42
0.000000001
43
0.0000000001
44
0.0000000001
40
0
40
0
40
0
40
0
40
0.01457977844242484
40
0.034397358131535612
40
0.034397358131535612
40
0.034397358131535612
40
0.034397358131535612
10
7.5924375057220512
20
13.608423024415961
30
0
10
7.5912649429201862
20
13.559828323428862
30
0
10
7.5884985728558698
20
13.445181222325843
30
0
10
7.5790013936159788
20
13.330884590984979
30
0
10
7.5735297203064018
20
13.26503410935401
30
0
0
SPLINE
5
174
100
AcDbEntity
8
0
100
AcDbSpline
70
0
71
3
72
9
73
5
74
0
42
0.000000001
43
0.0000000001
44
0.0000000001
40
0
40
0
40
0
40
0
40
0.019817547830644391
40
0.034397355093528231
40
0.034397355093528231
40
0.034397355093528231
40
0.034397355093528231
10
7.5735297203064018
20
13.26503410935401
30
0
10
7.5680581349774299
20
13.199183726348211
30
0
10
7.5585610940168859
20
13.084887092544065
30
0
10
7.5557949853594595
20
12.970239994383208
30
0
10
7.5546225309371993
20
12.92164519429206
30
0
0
SPLINE
5
175
100
AcDbEntity
8
0
100
AcDbSpline
70
0
71
3
72
9
73
5
74
0
42
0.000000001
43
0.0000000001
44
0.0000000001
40
0
40
0
40
0
40
0
40
0.014505996124065976
40
0.0353599222986666
40
0.0353599222986666
40
0.0353599222986666
40
0.0353599222986666
10
7.5546225309371993
20
12.92164519429206
30
0
10
7.5558468247709882
20
12.873299859199427
30
0
10
7.5588311723789214
20
12.755452916613915
30
0
10
7.5680769281265654
20
12.637921319827887
30
0
10
7.5735297203064018
20
12.568605691194525
30
0
0
SPLINE
5
176
100
AcDbEntity
8
0
100
AcDbSpline
70
0
71
3
72
9
73
5
74
0
42
0.000000001
43
0.0000000001
44
0.0000000001
40
0
40
0
40
0
40
0
40
0.020854017401176067
40
0.035359984709859245
40
0.035359984709859245
40
0.035359984709859245
40
0.035359984709859245
10
7.5735297203064018
20
12.568605691194525
30
0
10
7.5789825966536064
20
12.499289764958048
30
0
10
7.5882284709881613
20
12.381757970257734
30
0
10
7.5912131007366979
20
12.263910827780315
30
0
10
7.5924375057220512
20
12.215565592050543
30
0
0
SPLINE
5
177
100
AcDbEntity
8
0
100
AcDbSpline
70
0
71
3
72
9
73
5
74
0
42
0.000000001
43
0.0000000001
44
0.0000000001
40
0
40
0
40
0
40
0
40
0.010299704464612192
40
0.019299113894701399
40
0.019299113894701399
40
0.019299113894701399
40
0.019299113894701399
10
7.5924375057220512
20
12.215565592050543
30
0
10
7.588938407584207
20
12.174533591885348
30
0
10
7.582381957957617
20
12.097649711650114
30
0
10
7.5075734835154311
20
12.106944601972751
30
0
10
7.4726893901825004
20
12.111278921365729
30
0
0
SPLINE
5
178
100
AcDbEntity
8
0
100
AcDbSpline
70
0
71
3
72
9
73
5
74
0
42
0.000000001
43
0.0000000001
44
0.0000000001
40
0
40
0
40
0
40
0
40
0.06811453648045139
40
0.16468103778656126
40
0.16468103778656126
40
0.16468103778656126
40
0.16468103778656126
10
7.4726893901825004
20
12.111278921365729
30
0
10
7.2590259539820394
20
12.18813855998941
30
0
10
6.7424502239154762
20
12.373962698366689
30
0
10
6.2333836756260306
20
12.579530305123292
30
0
10
5.9348746538162302
20
12.700072079896918
30
-5.5511151231257827e-16
0
SPLINE
5
179
100
AcDbEntity
8
0
100
AcDbSpline
70
0
71
3
72
9
73
5
74
0
42
0.000000001
43
0.0000000001
44
0.0000000001
40
0
40
0
40
0
40
0
40
0.096732980116371867
40
0.16534729062823386
40
0.16534729062823386
40
0.16534729062823386
40
0.16534729062823386
10
5.9348746538162302
20
12.700072079896918
30
-5.5511151231257827e-16
10
5.6358417260737284
20
12.820798914187721
30
0
10
5.1246997727154406
20
13.027159298537434
30
0
10
4.6060014324123602
20
13.213645517206295
30
5.5511151231257827e-16
10
4.3907567262649616
20
13.291031867265692
30
0
0
SPLINE
5
180
100
AcDbEntity
8
0
100
AcDbSpline
70
0
71
3
72
9
73
5
74
0
42
0.000000001
43
0.0000000001
44
0.0000000001
40
0
40
0
40
0
40
0
40
0.11726653885906163
40
0.38823729881565627
40
0.38823729881565627
40
0.38823729881565627
40
0.38823729881565627
10
4.3907567262649616
20
13.291031867265692
30
0
10
3.999932976150109
20
13.26836653860282
30
0
10
2.7060228928998642
20
13.193327861223437
30
0
10
1.448864332613109
20
12.864606949785253
30
5.5511151231257827e-16
10
0.57142877578736373
20
12.635175734758374
30
0
0
SPLINE
5
181
100
AcDbEntity
8
0
100
AcDbSpline
70
0
71
3
72
9
73
5
74
0
42
0.000000001
43
0.0000000001
44
0.0000000001
40
0
40
0
40
0
40
0
40
0.12796506022117007
40
0.27142903295403054
40
0.27142903295403054
40
0.27142903295403054
40
0.27142903295403054
10
0.57142877578736373
20
12.635175734758374
30
0
10
0.88606326637507449
20
12.347143800849917
30
-5.5511151231257827e-16
10
1.5534402469868391
20
11.736193990444441
30
5.5511151231257827e-16
10
2.2345415073568242
20
11.140575960619387
30
5.5511151231257827e-16
10
2.5945379734039387
20
10.825761705636969
30
0
0
SPLINE
5
182
100
AcDbEntity
8
0
100
AcDbSpline
70
0
71
3
72
9
73
5
74
0
42
0.000000001
43
0.0000000001
44
0.0000000001
40
0
40
0
40
0
40
0
40
0.17129152365088385
40
0.24777037393029866
40
0.24777037393029866
40
0.24777037393029866
40
0.24777037393029866
10
2.5945379734039387
20
10.825761705636969
30
0
10
3.0199136762070977
20
10.443019590910394
30
0
10
3.6352126396234885
20
9.8893894119999803
30
0
10
4.3233182611886765
20
9.431385824859909
30
0
10
4.5357146263122647
20
9.2900146543979609
30
0
0
SPLINE
5
183
100
AcDbEntity
8
0
100
AcDbSpline
70
0
71
3
72
9
73
5
74
0
42
0.000000001
43
0.0000000001
44
0.0000000001
40
0
40
0
40
0
40
0
40
0.064484599709947271
40
0.15411464482986148
40
0.15411464482986148
40
0.15411464482986148
40
0.15411464482986148
10
4.5357146263122647
20
9.2900146543979609
30
0
10
4.7398385169906518
20
9.2226466396436457
30
0
10
5.2276833831244227
20
9.0616407915271413
30
0
10
5.7186597901971528
20
8.9104342435321584
30
0
10
6.0042020082473826
20
8.8224954903125763
30
-5.5511151231257827e-16
0
SPLINE
5
184
100
AcDbEntity
8
0
100
AcDbSpline
70
0
71
3
72
9
73
5
74
0
42
0.000000001
43
0.0000000001
44
0.0000000001
40
0
40
0
40
0
40
0
40
0.089463493181030362
40
0.15344830962284289
40
0.15344830962284289
40
0.15344830962284289
40
0.15344830962284289
10
6.0042020082473826
20
8.8224954903125763
30
-5.5511151231257827e-16
10
6.2892174190457792
20
8.7347326852292859
30
5.5511151231257827e-16
10
6.7780775277716465
20
8.5842014058331237
30
0
10
7.2638355880649321
20
8.4239602499127244
30
0
10
7.4663867950439498
20
8.35714295506477
30
0
0
SPLINE
5
185
100
AcDbEntity
8
0
100
AcDbSpline
70
0
71
3
72
9
73
5
74
0
42
0.000000001
43
0.0000000001
44
0.0000000001
40
0
40
0
40
0
40
0
40
0.011575258194491983
40
0.023470350059877243
40
0.023470350059877243
40
0.023470350059877243
40
0.023470350059877243
10
7.4663867950439498
20
8.35714295506477
30
0
10
7.5031496612596973
20
8.3385632935727916
30
0
10
7.5776911811800538
20
8.3008905996351068
30
0
10
7.5874776105375217
20
8.2177742736968185
30
0
10
7.5924375057220503
20
8.1756497919559443
30
0
0
SPLINE
5
186
100
AcDbEntity
8
0
100
AcDbSpline
70
0
71
3
72
9
73
5
74
0
42
0.000000001
43
0.0000000001
44
0.0000000001
40
0
40
0
40
0
40
0
40
0.014658564367954721
40
0.034711848043584903
40
0.034711848043584903
40
0.034711848043584903
40
0.034711848043584903
10
7.5924375057220503
20
8.1756497919559443
30
0
10
7.5912587399834237
20
8.1267928592773053
30
0
10
7.5884673931522419
20
8.0110984174174895
30
0
10
7.5789994303505068
20
7.8957482174783511
30
0
10
7.5735297203064009
20
7.8291095793247178
30
0
0
SPLINE
5
187
100
AcDbEntity
8
0
100
AcDbSpline
70
0
71
3
72
9
73
5
74
0
42
0.000000001
43
0.0000000001
44
0.0000000001
40
0
40
0
40
0
40
0
40
0.019896084529487875
40
0.034082237078189533
40
0.034082237078189533
40
0.034082237078189533
40
0.034082237078189533
10
7.5735297203064009
20
7.8291095793247178
30
0
10
7.568068162185182
20
7.7629964423511177
30
0
10
7.5587124460678794
20
7.6497438269946816
30
0
10
7.5558245631658183
20
7.5361524457601803
30
0
10
7.5546225309372002
20
7.4888719618320421
30
0
0
SPLINE
5
188
100
AcDbEntity
8
0
100
AcDbSpline
70
0
71
3
72
9
73
5
74
0
42
0.000000001
43
0.0000000001
44
0.0000000001
40
0
40
0
40
0
40
0
40
0.014427181281097672
40
0.035045447252801058
40
0.035045447252801058
40
0.035045447252801058
40
0.035045447252801058
10
7.5546225309372002
20
7.4888719618320421
30
0
10
7.5558415821564529
20
7.4407890481415917
30
0
10
7.5588028116835773
20
7.3239895720230264
30
0
10
7.5680747604890133
20
7.2075109530201109
30
0
10
7.5735297203064018
20
7.138983160257335
30
0
0
SPLINE
5
189
100
AcDbEntity
8
0
100
AcDbSpline
70
0
71
3
72
9
73
5
74
0
42
0.000000001
43
0.0000000001
44
0.0000000001
40
0
40
0
40
0
40
0
40
0.020618149094428228
40
0.035045450497231338
40
0.035045450497231338
40
0.035045450497231338
40
0.035045450497231338
10
7.5735297203064018
20
7.138983160257335
30
0
10
7.5789847719998882
20
7.0704557658055345
30
0
10
7.5882569303885186
20
6.9539771527658312
30
0
10
7.591218361484918
20
6.8371776707082343
30
0
10
7.5924375057220503
20
6.789094358682628
30
0
0
SPLINE
5
190
100
AcDbEntity
8
0
100
AcDbSpline
70
0
71
3
72
9
73
5
74
0
42
0.000000001
43
0.0000000001
44
0.0000000001
40
0
40
0
40
0
40
0
40
0.010299704464612192
40
0.019466188754128304
40
0.019466188754128304
40
0.019466188754128304
40
0.019466188754128304
10
7.5924375057220503
20
6.789094358682628
30
0
10
7.5887175796469952
20
6.7493710343171021
30
0
10
7.5816870106265721
20
6.6742949258037365
30
0
10
7.507583965825936
20
6.6728723691337199
30
0
10
7.4726893901824996
20
6.6722024977207139
30
0
0
SPLINE
5
191
100
AcDbEntity
8
0
100
AcDbSpline
70
0
71
3
72
9
73
5
74
0
42
0.000000001
43
0.0000000001
44
0.0000000001
40
0
40
0
40
0
40
0
40
0.0041701073853418506
40
0.025520610053324368
40
0.025520610053324368
40
0.025520610053324368
40
0.025520610053324368
10
7.4726893901824996
20
6.6722024977207139
30
0
10
7.4601273351822259
20
6.6781680646059804
30
0
10
7.3832489055625681
20
6.7146766942784408
30
0
10
7.3015461518228388
20
6.7392715410432258
30
0
10
7.2331937551498466
20
6.7598475515842393
30
0
0
CIRCLE
5
192
100
AcDbEntity
8
0
100
AcDbCircle
10
-42.862499999999962
20
11.534999999999958
30
0
40
3.4999999999999987
210
1.2884008829705241e-45
220
-7.1520616261061923e-62
230
1
0
CIRCLE
5
193
100
AcDbEntity
8
0
100
AcDbCircle
10
-91.757499999999951
20
4.5349999999999806
30
0
40
3.2500000000000053
210
9.2028634497894589e-46
220
-5.1086154472187277e-62
230
1
0
CIRCLE
5
194
100
AcDbEntity
8
0
100
AcDbCircle
10
-24.129999999999988
20
4.5349999999999806
30
0
40
3.2499999999999978
210
1.104343613974735e-45
220
-6.1303385366624613e-62
230
1
0
CIRCLE
5
195
100
AcDbEntity
8
0
100
AcDbCircle
10
-58.102499999999964
20
11.534999999999954
30
0
40
3.4999999999999938
210
9.2028634497894621e-46
220
-3.9443045261050599e-31
230
1
0
CIRCLE
5
196
100
AcDbEntity
8
0
100
AcDbCircle
10
-75.564999999999955
20
4.5524999999999931
30
5.5511151231257827e-16
40
3.2499999999999982
210
9.2028634497894605e-46
220
-5.1086154472187285e-62
230
1
0
CIRCLE
5
197
100
AcDbEntity
8
0
100
AcDbCircle
10
-7.9375
20
4.5700000000000056
30
5.5511151231257827e-16
40
3.2499999999999978
210
1.104343613974735e-45
220
-6.1303385366624613e-62
230
1
0
LWPOLYLINE
5
198
100
AcDbEntity
8
0
100
AcDbPolyline
90
4
70
1
43
0.0
10
12.750000000000021
20
-6.3999999999999897
42
0.99999999999999989
10
9.7500000000000178
20
-6.3999999999999924
10
9.7500000000000284
20
-10.399999999999993
42
0.99999999999999989
10
12.750000000000025
20
-10.399999999999988
0
LWPOLYLINE
5
199
100
AcDbEntity
8
0
100
AcDbPolyline
90
4
70
1
43
0.0
10
-109.74999999999993
20
18.899999999999899
42
0.99999999999999989
10
-112.74999999999993
20
18.899999999999906
10
-112.74999999999993
20
14.89999999999975
42
0.99999999999999989
10
-109.74999999999993
20
14.899999999999899
0
LWPOLYLINE
5
200
100
AcDbEntity
8
0
100
AcDbPolyline
90
4
70
1
43
0.0
10
-114.24999999999991
20
-15.400000000000073
10
14.250000000000025
20
-15.399999999999981
10
14.25
20
23.899999999999984
10
-114.24999999999994
20
23.899999999999892
0
ENDSEC
0
SECTION
2
OBJECTS
0
DICTIONARY
5
C
100
AcDbDictionary
3
ACAD_GROUP
350
D
3
ACAD_MLINESTYLE
350
17
0
DICTIONARY
5
D
100
AcDbDictionary
0
DICTIONARY
5
1A
330
C
100
AcDbDictionary
0
DICTIONARY
5
17
100
AcDbDictionary
0
ENDSEC
0
EOF
